<svg width="120" height="120" viewBox="0 0 120 120" fill="none" xmlns="http://www.w3.org/2000/svg">
<path d="M120 60.0102C120.041 92.8398 93.4333 120 60.0102 120C26.5871 120 -0.0204555 92.8193 1.18001e-05 59.9692C0.0204791 27.1192 26.5871 0 60.0307 0C93.4743 0 120.061 27.2011 120 60.0102Z" fill="#FE9B00"/>
<path d="M96.4765 68.1441C96.3943 67.9798 96.46 67.8483 96.46 67.7168C96.7394 64.8571 94.9151 62.3261 92.154 61.7344C90.3462 61.3564 88.7355 61.8659 87.355 63.0492C85.6786 64.4791 84.0844 66.0075 82.5066 67.5524C80.5837 69.4425 78.6991 71.3654 76.8529 73.3212C75.5545 74.7018 74.0425 75.77 72.2346 76.3946C67.1397 78.1367 61.5681 75.4085 59.6288 70.6751C59.3987 70.0999 59.4151 69.9849 59.8753 69.5904C60.9436 68.6536 62.0283 67.7332 63.0966 66.7964C63.1295 66.7636 63.1624 66.7471 63.1952 66.7143C63.3267 66.6321 63.4253 66.4349 63.5897 66.517C63.754 66.5992 63.6554 66.78 63.6719 66.9115C63.8056 69.533 65.7875 71.6876 68.3888 72.0393C71.0019 72.4008 73.6151 70.8066 74.404 68.3085C75.3408 65.3501 73.7795 62.4082 70.7554 61.4386C68.9147 60.8469 67.2383 61.2413 65.7756 62.4575C64.5758 63.4436 63.4253 64.4791 62.2584 65.5145C61.486 66.2048 60.7135 66.9115 59.9246 67.5853C59.6237 67.8437 59.4206 68.1976 59.3494 68.5879C58.7249 71.7599 56.9499 74.1265 54.1394 75.6879C52.3794 76.6693 50.3571 77.0772 48.3543 76.8548C46.1761 76.6685 44.1171 75.7803 42.4869 74.3237C41.3343 73.3128 40.4338 72.0465 39.8573 70.6258C39.8228 70.5575 39.7953 70.486 39.7751 70.4122C39.6557 70.164 39.732 69.8659 39.9559 69.7055C40.3339 69.3932 40.6955 69.0809 41.0735 68.7687C41.8459 68.0948 42.6184 67.421 43.4073 66.7636C43.5388 66.6485 43.6702 66.4513 43.8346 66.517C43.9989 66.5828 43.9332 66.8129 43.9496 66.9772C44.0279 69.529 45.8285 71.702 48.3214 72.2529C51.1656 72.8588 53.9895 71.1443 54.764 68.3413C55.7501 64.7092 52.8739 61.1263 49.1267 61.3071C47.9847 61.3408 46.8886 61.7642 46.0205 62.5068C44.9522 63.3943 43.9003 64.3147 42.8649 65.2351C41.7966 66.1719 40.7448 67.1251 39.6765 68.0619C39.3862 68.2988 39.2223 68.6571 39.2327 69.0316V76.1645C39.2327 76.8383 39.1341 76.9369 38.4603 76.9205C37.1789 76.92 35.9611 76.3621 35.1239 75.392C34.7952 75.014 34.7295 75.014 34.2857 75.2605C32.6587 76.1645 30.933 76.6575 29.0758 76.5918C25.2628 76.4603 22.3538 74.7346 20.3816 71.464C19.4531 69.9226 18.9748 68.152 19.001 66.3527C19.0028 63.9907 19.8347 61.7045 21.3513 59.8937C22.8962 58.0036 24.8684 56.771 27.2844 56.3765C30.5057 55.867 33.464 56.4587 35.9457 58.7103C36.7342 59.4292 37.42 60.2532 37.9837 61.1592C38.0645 61.3412 38.2031 61.4914 38.3781 61.5865C38.6233 61.4294 38.7671 61.1543 38.7561 60.8633C38.7397 59.2362 38.7561 57.6092 38.7561 55.9656C38.7561 52.2677 38.7506 48.5753 38.7397 44.8883C38.7397 44.1652 38.8219 44.083 39.5614 44.083C41.8193 44.0857 43.7152 45.7835 43.9661 48.0274C43.9989 48.2891 44.0153 48.5526 44.0154 48.8163V57.4448C44.0318 57.8393 44.114 57.8886 44.4756 57.7078C45.5321 57.1482 46.6776 56.7756 47.8612 56.6066C50.8031 56.1957 53.4327 56.9353 55.7665 58.7761C56.5477 59.4039 57.2293 60.1464 57.7881 60.9784C57.8208 61.0369 57.8593 61.0919 57.9031 61.1427C58.0182 61.3071 58.1168 61.4879 58.3304 61.5207C58.4455 61.5372 58.7742 61.1099 58.7906 60.9291C58.8183 60.7056 58.8293 60.4803 58.8235 60.2552V48.7013C58.8235 46.3182 60.3026 44.5268 62.6529 44.083C62.9113 44.0223 63.1764 43.9947 63.4418 44.0008C63.7869 44.0173 63.9348 44.1487 64.017 44.4774C64.0715 44.7367 64.0936 45.0017 64.0827 45.2663V57.4119C64.1156 57.6256 64.1813 57.6913 64.395 57.6092C64.6744 57.4941 64.9538 57.3626 65.2332 57.2476C69.1776 55.6698 73.5987 56.623 76.4584 59.68C77.4182 60.7137 78.1664 61.9253 78.6607 63.2464L78.7594 63.5423C78.9237 63.9696 78.973 63.986 79.3181 63.6737L83.9529 59.5814C85.2519 58.3971 86.8292 57.5603 88.5383 57.149C93.4962 55.988 98.5553 58.6399 100.421 63.3779C100.615 63.7637 100.52 64.2325 100.191 64.5119C99.0568 65.6295 97.9557 66.7636 96.8216 67.8976C96.725 68.0029 96.6075 68.0869 96.4765 68.1441Z" fill="#191C31"/>
<path d="M92.0227 72.598C92.0145 72.7247 91.9477 72.8402 91.8419 72.9103C90.6421 74.1101 89.4424 75.3098 88.259 76.526C88.0607 76.7588 87.7325 76.8325 87.4537 76.7068C84.6269 75.655 82.6272 73.743 81.4549 70.971C81.2741 70.5601 81.3069 70.4286 81.6357 70.1492C82.8026 69.1302 83.9859 68.1112 85.1528 67.1087C85.2265 67.0261 85.3242 66.9687 85.4322 66.9443C85.5472 67.0594 85.5144 67.2073 85.5308 67.3388C85.5898 68.1118 85.7845 68.8685 86.106 69.574C86.8785 71.1846 88.1933 72.105 89.8861 72.5159C90.2471 72.5982 90.6175 72.6314 90.9873 72.6145C91.316 72.5816 91.6611 72.598 92.0227 72.598Z" fill="#191C31"/>
<path d="M34.7451 66.4842C34.8273 69.4096 32.3291 71.9571 29.2886 71.9899C26.2644 72.0055 23.7962 69.574 23.7664 66.5499C23.7171 63.5587 26.0673 60.9948 29.2886 60.9291C32.2634 60.8633 34.7615 63.2957 34.7451 66.4842Z" fill="#FF9C00"/>
</svg>
