<svg width="120" height="120" viewBox="0 0 120 120" fill="none" xmlns="http://www.w3.org/2000/svg">
<circle cx="60" cy="60" r="60" fill="#767DFF"/>
<path fill-rule="evenodd" clip-rule="evenodd" d="M68.8576 24H52.1424C50.9631 23.9994 49.8753 24.6408 49.2978 25.6773L23.4155 72.2158C22.8615 73.2133 22.8615 74.4294 23.4155 75.4269L31.6944 90.3189C32.2709 91.3569 33.3589 91.9998 34.539 92H86.461C87.6398 91.9985 88.726 91.3557 89.3018 90.3189L97.5845 75.4269C98.1385 74.4294 98.1385 73.2133 97.5845 72.2158L71.7022 25.6773C71.1247 24.6408 70.0369 23.9994 68.8576 24ZM43.0615 73.8213L60.5 42.5149L77.9385 73.8213H43.0615Z" fill="white"/>
</svg>
