<svg width="120" height="120" viewBox="0 0 120 120" fill="none" xmlns="http://www.w3.org/2000/svg">
<circle cx="60" cy="60" r="60" fill="#1B75BC"/>
<path fill-rule="evenodd" clip-rule="evenodd" d="M45.1376 30.8475L60.4319 15L75.7261 30.8475L67.6777 39.3412L60.4319 31.4137L53.186 39.3412L45.1376 30.8475ZM43.7936 32.2575L60.5 49.53L76.7975 32.2575L87 42.6L70.358 60L87 77.2612L76.7975 87.735L60.5 70.47L43.7936 87.735L34 77.55L50.5057 59.9025L34 42.6L43.7936 32.2612V32.2575ZM53.186 80.6588L45.1376 89.1525L60.4319 105L75.7261 89.1525L67.6777 80.6588L60.4319 88.5863L53.186 80.6588Z" fill="white"/>
</svg>
