<svg width="120" height="120" viewBox="0 0 120 120" fill="none" xmlns="http://www.w3.org/2000/svg">
<circle cx="60" cy="60" r="60" fill="#EDF0F4"/>
<path fill-rule="evenodd" clip-rule="evenodd" d="M74.4368 33.4915C73.5788 33.2546 72.7456 32.9357 71.9487 32.5393C71.7644 32.4778 71.3651 32.2628 72.6245 31.9249C73.7426 31.6249 74.4976 32.0271 74.9968 32.2931L74.9969 32.2931C75.0599 32.3267 75.1189 32.3581 75.174 32.3857C75.5118 32.5393 75.174 33.0614 74.9282 33.3379C74.7986 33.4651 74.6157 33.5222 74.4368 33.4915ZM64.761 33.1536C64.4845 33.1536 64.3924 33.4915 64.3924 33.4915C64.2695 33.7065 65.6211 33.7679 65.8668 33.7679C66.1125 33.7679 66.2047 33.3072 65.9897 33.1536C65.8375 33.0449 65.4237 33.0901 65.0968 33.1257C64.9619 33.1405 64.8418 33.1536 64.761 33.1536ZM32.447 51.9522C32.447 51.9522 31.7098 51.9829 31.8327 51.1229C31.9555 50.2628 32.9385 49.2184 33.5221 48.8191C34.1057 48.4198 34.4129 48.1126 34.4129 47.4983C34.4129 47.0735 34.8387 46.7075 35.1726 46.4205C35.3216 46.2924 35.4523 46.1801 35.5187 46.0853C35.7337 45.7782 36.5323 45.3788 36.4095 45.901C36.3621 46.1024 36.2872 46.2582 36.2132 46.4122C36.0953 46.6576 35.9794 46.8989 35.9794 47.314C35.9794 47.9898 36.1023 48.4505 36.4402 47.744C36.7781 47.0375 38.8668 43.7509 40.9862 42.0307C43.1057 40.3106 45.9316 38.4061 46.3002 38.3447C46.6688 38.2833 46.8839 38.529 46.8839 38.9283C46.8839 39.1836 46.4696 39.4389 46.0424 39.7021C45.8013 39.8507 45.556 40.0019 45.3787 40.157C45.3335 40.1966 45.2414 40.2728 45.1102 40.3816C43.8155 41.4541 38.7085 45.6846 37.1467 49.0034C36.7943 49.4935 36.3929 49.9463 35.9487 50.3549C35.6654 50.5935 35.4979 50.8827 35.3093 51.2085C35.1092 51.5539 34.8853 51.9405 34.4743 52.3515C34.0489 52.777 33.8588 53.2111 33.7137 53.5425C33.5864 53.8333 33.4937 54.045 33.3071 54.1024C32.9077 54.2253 32.3856 53.7338 32.6927 52.6894C32.915 51.9335 33.4753 51.3868 34.024 50.8513L34.0241 50.8513C34.2335 50.6469 34.4412 50.4442 34.6279 50.2321C35.3037 49.4642 35.5494 48.7884 35.3651 48.7884C35.1808 48.7884 34.1978 49.0034 33.9214 49.7713C33.8397 49.9984 33.7821 50.1879 33.7328 50.3501C33.6154 50.7364 33.545 50.968 33.3071 51.1843C33.1649 51.3155 33.0422 51.4545 32.9335 51.5777C32.7367 51.8007 32.5855 51.972 32.447 51.9522ZM47.0374 38.2526C47.0622 38.0912 47.1659 37.9529 47.3139 37.884C48.1125 37.4539 50.1091 36.9625 50.1091 36.9625C49.3908 37.3779 48.6936 37.8289 48.0204 38.314C47.7132 38.5904 47.2832 38.7747 47.0989 38.529C47.0497 38.4457 47.0282 38.3489 47.0374 38.2526Z" fill="black"/>
<path fill-rule="evenodd" clip-rule="evenodd" d="M59.9695 34.0751C61.3518 33.7679 66.0821 33.0614 73.4542 35.9181C73.4542 35.9181 73.6999 36.1331 73.3927 36.5324C73.2819 36.7543 73.0571 36.8963 72.8091 36.901C72.8091 36.901 72.1333 36.6553 70.5361 36.041C68.9388 35.4266 66.2664 35.1195 65.2221 35.1502C64.5964 35.1686 63.8273 35.0547 62.9678 34.9273C62.3927 34.8422 61.777 34.751 61.1368 34.6894C60.7305 34.6641 60.3285 34.592 59.9388 34.4744C59.856 34.4384 59.8051 34.3538 59.8121 34.2638C59.819 34.1738 59.8822 34.098 59.9695 34.0751ZM33.676 55.4846C34.0753 55.9147 34.3518 55.4846 34.3518 55.4846C34.8956 55.0827 35.6033 53.9708 36.0404 53.284C36.1711 53.0787 36.2776 52.9113 36.3484 52.8123C36.6555 52.3822 38.4064 49.9556 38.9593 49.2799C39.0855 49.1256 39.1573 48.9841 39.2445 48.8122C39.5392 48.2315 40.0097 47.3043 43.3518 44.3652C47.6828 40.5563 52.5361 36.5939 58.4951 36.3788C64.4542 36.1638 71.3347 40.4642 71.3347 40.4642C71.7326 40.2853 71.911 39.8185 71.734 39.4198C65.0071 35.2423 59.5088 34.8123 56.8364 35.3345C54.1641 35.8567 51.6453 37.2389 49.8023 38.2833C47.9894 39.3106 44.4525 42.151 42.4079 43.793L42.3074 43.8737C40.5232 45.3707 38.9431 47.0953 37.6077 49.0034C37.0856 49.8635 35.1504 52.9352 34.4746 53.5495C33.7989 54.1638 33.2767 55.0546 33.676 55.4846Z" fill="black"/>
<path fill-rule="evenodd" clip-rule="evenodd" d="M67.6485 32.8772C67.5641 32.9072 67.5077 32.9872 67.5077 33.0768C67.5077 33.1664 67.5641 33.2464 67.6485 33.2765C68.1681 33.5087 68.7152 33.6739 69.2765 33.7679C70.1366 33.8294 72.4711 34.5666 73.5769 35.1502C74.2833 35.5188 74.652 34.2287 74.1912 34.0751C74.0576 34.0256 73.8913 33.9634 73.7036 33.8931L73.7036 33.8931L73.7035 33.8931C72.7262 33.5273 71.1692 32.9446 70.6281 32.8157C70.0444 32.6621 68.5086 32.57 67.6485 32.8772ZM72.6861 37.5461C72.6861 37.5461 72.9625 38.529 72.041 38.5905C71.5872 38.6207 70.4479 38.0848 69.236 37.5146C67.9871 36.9271 66.6611 36.3032 65.9284 36.2253C64.4847 36.0717 65.4676 35.1502 67.3414 35.6724C69.2151 36.1946 72.6861 37.5461 72.6861 37.5461ZM69.6284 41.5263C67.6159 40.364 62.7473 37.5523 54.9011 38.6212C54.2077 38.7052 53.6149 39.163 53.1621 39.5127C52.9529 39.6742 52.7736 39.8126 52.6281 39.8806C51.727 40.3085 50.8639 40.812 50.0479 41.3857C48.3976 42.5667 46.8649 43.9039 45.4711 45.3789C44.0888 46.9147 42.338 50.1092 41.9386 50.9079C41.5393 51.7065 39.9728 53.4574 39.5427 53.9181C39.1127 54.3789 38.0376 56.7133 37.3311 58.372C36.6246 60.0307 35.7031 59.8157 35.8567 58.5563C36.0103 57.2969 38.5598 53.7952 39.1434 53.0888C39.727 52.3823 42.8909 47.8055 43.0444 47.4062C43.198 47.0068 42.7373 46.9147 42.338 47.4062C42.1733 47.6088 41.7373 48.2551 41.2385 48.9943C40.5274 50.0483 39.6888 51.2913 39.3277 51.7065C38.7134 52.413 35.9796 56.8976 35.9796 56.8976C35.9796 56.8976 35.611 57.8806 35.0274 57.5734C34.4438 57.2662 34.6281 56.4983 35.3038 55.669C35.6056 55.2986 36.808 53.5621 38.0791 51.7261C39.6544 49.451 41.3353 47.0232 41.5393 46.8533C41.6715 46.7431 41.9223 46.6368 42.2307 46.5062C42.7821 46.2727 43.5176 45.9611 44.0888 45.4096C44.3996 45.1095 44.7141 44.7384 45.0402 44.3537C45.6487 43.6356 46.2976 42.8701 47.0376 42.4301C47.2782 42.287 47.604 42.0078 48.0219 41.6497C49.5784 40.3158 52.4113 37.888 56.867 37.3311C62.5188 36.6246 68.6008 39.0819 71.0888 41.1707C71.0888 41.1707 71.2731 41.8772 70.6281 42C70.4931 42.0257 70.1607 41.8337 69.6284 41.5263Z" fill="black"/>
<path d="M43.9966 48.6041C43.9966 48.6041 46.3925 44.9795 48.942 43.2287C51.4915 41.4778 52.9659 40.2492 53.7645 39.942C54.5631 39.6348 57.2969 38.2219 63.5017 39.6348C69.7065 41.0478 70.4437 43.0751 70.1672 43.4744C69.8908 43.8737 68.9078 43.2594 67.4949 42.4915C66.0819 41.7236 63.4096 40.5256 61.2594 40.587C59.1092 40.6485 54.8703 42.1229 54.5939 42.3686C54.3174 42.6143 54.2867 41.8771 55.0239 41.7236C55.7611 41.57 56.2218 40.9864 56.6826 40.9249C57.1433 40.8635 57.8191 40.7099 57.8191 40.3413C57.8191 39.9727 56.2833 40.0341 55.5154 40.3413C54.7474 40.6485 51.7679 42.3379 51.215 42.6451C50.6621 42.9522 49.9249 43.1672 49.802 43.628C49.6792 44.0887 48.7577 45.1638 48.2969 45.4096C47.8362 45.6553 45.5324 47.4676 45.2867 47.8976C45.0689 48.4005 44.5376 48.6914 43.9966 48.6041Z" fill="black"/>
<path fill-rule="evenodd" clip-rule="evenodd" d="M52.6588 44.3345C51.9524 44.8566 52.321 44.9488 52.321 44.9488C53.3644 45.1636 53.7946 44.8879 54.9901 44.1215L54.9933 44.1194C56.1913 43.3515 59.1093 42.2457 61.9967 42.3379C64.435 42.4157 67.7931 44.6839 68.8899 45.4246C69.0919 45.5611 69.2172 45.6457 69.2459 45.6553C69.4302 45.7167 69.9216 44.5495 69.2459 43.9659C68.5701 43.3822 64.6998 41.4164 61.3517 41.2321C58.0035 41.0478 53.3653 43.8123 52.6588 44.3345ZM50.3551 45.2252C49.065 46.2082 48.7578 45.7474 48.7578 45.7474C48.7799 45.4377 50.045 44.6499 50.8428 44.1531C51.1527 43.9601 51.3921 43.811 51.4609 43.7508C51.7066 43.5358 52.0445 44.0273 51.9216 44.0273C51.8562 44.0273 51.7821 44.0882 51.5324 44.2936C51.313 44.4739 50.9583 44.7657 50.3551 45.2252Z" fill="black"/>
<path d="M56.0679 44.7645C55.9972 44.7451 55.9439 44.687 55.9308 44.6149C55.9177 44.5428 55.9471 44.4696 56.0064 44.4266C57.997 43.0851 60.4465 42.6085 62.7948 43.1058C66.9416 43.9966 68.6617 45.9625 68.7539 46.4232C68.846 46.884 68.6924 47.959 68.0781 47.744C67.4638 47.529 65.4672 44.4881 62.2419 44.2116C59.1395 43.9352 58.4331 45.3174 56.0679 44.7645Z" fill="black"/>
<path fill-rule="evenodd" clip-rule="evenodd" d="M60.3377 45.5017L59.9691 45.3788C59.9076 45.3481 59.9383 45.2867 59.9691 45.2867C60.4913 45.1638 62.2421 44.8259 63.8394 45.4095C64.9751 45.8786 66.0004 46.5795 66.8496 47.4675C66.8799 47.4974 66.8858 47.5441 66.8639 47.5806C66.8421 47.617 66.7981 47.6338 66.7575 47.6211L60.3377 45.5017ZM37.9759 61.1672C37.9759 61.1672 37.7916 61.7508 37.2694 61.3208C36.7976 60.9322 37.0279 60.343 37.2127 59.8704L37.2127 59.8704L37.2128 59.8703C37.2325 59.8199 37.2517 59.7709 37.2694 59.7235C37.4537 59.2321 38.8667 56.3447 39.2046 56.0068C39.5424 55.6689 40.8018 54.1638 40.8018 53.8259C40.8018 53.488 41.1397 54.7781 39.8496 56.744C39.2152 57.7591 39.0394 58.3893 38.8612 59.0279C38.6944 59.6259 38.5255 60.2313 37.9759 61.1672ZM38.5595 63.1024C38.8974 63.5017 39.0817 63.1024 39.0817 63.1024C39.4677 62.4826 39.7869 61.8236 40.0339 61.1365C40.506 59.9701 40.476 58.6278 40.4659 58.1769C40.4648 58.1291 40.4639 58.0913 40.4639 58.0648C40.4639 57.7884 40.4332 56.8361 40.1568 57.2662C40.007 57.4992 39.7759 58.2375 39.5322 59.0165C39.3261 59.6749 39.111 60.3624 38.9281 60.7986C38.5288 61.7508 38.2216 62.703 38.5595 63.1024ZM40.679 64.9761C40.679 64.9761 40.3104 65.5904 39.8496 64.8532C39.5299 64.3465 39.5299 63.7012 39.8496 63.1945C39.9241 63.0605 40.0129 62.7822 40.0987 62.5135C40.19 62.2277 40.2778 61.9528 40.3411 61.8737C40.4639 61.7201 40.6175 62.0887 40.679 62.5495C40.712 62.7969 40.807 63.062 40.8878 63.2878C40.9576 63.4825 41.0168 63.6479 41.0168 63.7474C41.0168 63.9624 40.9554 64.6689 40.679 64.9761ZM41.324 65.2218C41.4305 65.3722 41.5133 65.5379 41.5697 65.7133C41.607 65.875 41.607 66.043 41.5697 66.2048C41.5083 66.5119 41.2626 66.8498 41.2319 66.5733C41.2179 66.4477 41.1405 66.3538 41.063 66.2598C40.9701 66.1471 40.8772 66.0344 40.894 65.8669C40.9247 65.5597 41.2319 65.1604 41.324 65.2218ZM42.522 56.4983C42.8277 54.7745 43.5677 53.157 44.6721 51.7986C46.4537 49.7099 47.2831 49.372 47.2831 49.372C47.2831 49.372 47.5288 49.3106 47.4059 49.802C47.3296 50.1075 46.9447 50.6622 46.6274 51.1194L46.6274 51.1194L46.6274 51.1194C46.4342 51.3978 46.2661 51.64 46.208 51.7679C46.1338 51.931 45.8379 52.2729 45.5515 52.6039C45.2445 52.9586 44.9486 53.3005 44.9486 53.3959C44.9486 53.5032 45.1152 53.4959 45.2666 53.4894C45.3751 53.4846 45.4758 53.4803 45.5015 53.5187C45.5089 53.5299 45.5186 53.5415 45.5295 53.5545C45.6078 53.6484 45.7444 53.812 45.5015 54.3788C45.4426 54.5163 45.3473 54.7278 45.2337 54.9803C44.8141 55.912 44.1434 57.4017 44.1192 57.7884C44.0885 58.2798 42.4913 61.9658 42.3377 61.9658C42.1841 61.9658 41.8462 61.9351 41.8769 60.7986C41.9076 59.6621 43.5971 55.3925 44.0578 54.686C44.1305 54.5745 44.1925 54.4807 44.2446 54.4017C44.4252 54.1281 44.4875 54.0339 44.4665 54.0085C44.4554 53.9951 44.4214 54.0008 44.3694 54.0095L44.365 54.0102C44.1807 54.0409 43.0442 55.2696 42.8906 56.1297C42.737 56.9897 42.522 56.4983 42.522 56.4983ZM45.5015 57.174C46.3923 57.2355 46.8223 56.2218 46.8223 56.2218C46.8223 56.2218 47.4059 53.9795 47.4981 53.3037C47.5736 52.7499 48.2887 51.3708 48.7303 50.5192C48.8275 50.3317 48.9115 50.1697 48.9725 50.0478C49.1147 49.7633 49.3114 49.5223 49.48 49.3158C49.7119 49.0317 49.8908 48.8126 49.8018 48.6348C49.6482 48.3276 48.7267 48.6962 48.3889 49.0034C48.051 49.3106 46.3923 52.9658 46.1773 53.9181C46.1107 54.2129 45.9352 54.6314 45.751 55.0706C45.3403 56.0498 44.8865 57.1316 45.5015 57.174Z" fill="black"/>
<path d="M45.9624 58.372C46.0209 58.2216 46.0144 58.0537 45.9445 57.9082C45.8747 57.7627 45.7477 57.6526 45.5938 57.6041C45.0102 57.3584 44.9795 57.5427 44.703 58.0034C44.4266 58.4642 42.645 62.7645 42.645 63.4096C42.645 64.0546 42.8293 65.2526 43.0443 65.4369C43.2594 65.6212 43.4744 65.2833 43.4744 64.8225C43.5473 64.2563 43.782 63.7231 44.1501 63.2867C44.5207 62.7722 44.6547 62.1244 44.5187 61.5051C44.3959 60.7679 45.5631 59.57 45.5631 59.57C45.5681 60.4316 45.5271 61.2929 45.4402 62.1502C45.3174 62.9181 44.5187 63.5324 44.3344 63.8703C44.1501 64.2082 44.058 65.529 43.9044 65.9283C43.7517 66.4151 43.7201 66.9317 43.8123 67.4335C43.9044 67.8328 44.1501 68.8157 44.3037 68.1092C44.4573 67.4027 45.0102 65.314 45.1638 65.3447C45.3174 65.3754 45.2867 67.6485 45.1945 68.1092C45.1024 68.57 44.9795 70.8123 44.9795 71.0887C44.9795 71.3652 44.1501 72.6246 43.9966 73.0853C43.843 73.5461 42.9215 75.2355 42.9215 75.3277C42.9215 75.4198 43.843 75.3277 44.4266 74.8669C44.8733 74.4783 45.14 73.9227 45.1638 73.3311C45.1638 72.9625 45.1024 72.0717 45.3174 71.5495C45.5324 71.0273 46.0853 69.7986 46.1774 69.3072C46.2544 68.049 46.2544 66.7872 46.1774 65.529C46.116 64.8225 46.2696 61.843 46.4846 61.2287C46.6996 60.6143 46.7303 60.3072 46.8839 60.3072C47.0375 60.3072 46.9454 62.1809 46.8839 62.7645C46.8225 63.3481 46.6689 65.2526 46.6689 65.529C46.4062 67.8774 46.7774 70.2533 47.744 72.4096C47.744 72.4096 47.8976 73.0853 48.6348 72.6246C49.372 72.1638 48.2969 70.1058 48.1126 69.5222C47.9283 68.9386 47.314 65.8976 47.529 65.4676C47.744 65.0376 48.9727 69.7065 49.0034 70.1672C49.0341 70.628 49.1877 72.0717 49.4334 72.1024C49.6791 72.1331 50.6928 71.5188 50.6928 71.3959C50.6916 71.0685 50.5955 70.7484 50.4164 70.4744C50.1399 70.0137 48.6655 66.2355 48.389 63.1024C48.1126 59.9693 48.6041 54.6246 48.8498 54.0717C49.0955 53.5188 50.232 51 50.5085 50.6007C50.785 50.2014 51.5836 48.5427 51.7372 48.4812C51.8908 48.4198 52.0443 48.4198 52.0443 48.6041C51.8565 49.2416 51.6309 49.8672 51.3686 50.4778C51.1843 51 50.2013 52.5666 50.017 53.0887C49.4556 54.7482 49.1047 56.4716 48.9727 58.2184C48.6962 60.9829 49.3413 65.6519 49.5256 66.5734C49.7099 67.4949 50.8771 70.628 51.5222 70.9044C52.1672 71.1809 52.7201 70.3515 52.628 70.198C52.5358 70.0444 51.1843 67.587 50.8771 66.5734C50.5699 65.5597 50.017 63.1331 50.1092 62.5802C50.2013 62.0273 50.9078 67.1877 53.3344 69.8908C53.3344 69.8908 53.6416 70.0751 54.1945 69.7065C54.7474 69.3379 54.7167 69.0307 54.1945 68.4471C53.6723 67.8635 51.8908 64.4232 51.645 63.5324C51.3993 62.6417 50.3242 59.6928 50.2628 59.6007C50.1451 58.5561 50.1865 57.4997 50.3856 56.4676C50.6621 55.1775 51.0614 53.3652 51.0921 52.8737C51.1228 52.3823 51.9215 51.2765 52.1058 51.0307C52.2901 50.785 52.7201 49.6178 52.9351 48.7884C53.1501 47.9591 53.5802 47.4062 53.2116 47.3447C52.843 47.2833 51.4914 47.4983 51.2457 47.7748C51 48.0512 50.017 48.6348 47.9283 53.3959C47.9283 53.3959 47.3447 54.5017 47.3447 55.1468C47.3443 55.9821 47.087 56.7972 46.6075 57.4812C46.4324 57.8052 46.2156 58.1047 45.9624 58.372Z" fill="black"/>
<path fill-rule="evenodd" clip-rule="evenodd" d="M55.638 47.4061C55.7609 47.529 55.3001 48.0819 55.3001 48.0819C55.3001 48.0819 54.2865 50.3242 54.0407 50.7235C53.795 51.1843 52.2592 54.3481 52.597 55.6382C52.8899 56.7562 52.7674 57.9204 52.6696 58.8508C52.6545 58.994 52.64 59.1317 52.6278 59.2628C52.5356 60.2457 53.8564 63.256 54.1022 63.6553C54.3479 64.0546 56.2523 67.4949 56.2523 67.4949L57.0202 68.3856C57.0202 68.3856 56.0373 69.5222 55.0237 68.3856C54.01 67.2491 51.7063 61.8737 51.3377 59.2321C51.0738 57.5512 51.0945 55.8378 51.3991 54.1638C51.4559 53.9083 51.7751 53.2131 52.1263 52.4483C52.535 51.5584 52.9871 50.5741 53.1192 50.0785C53.4694 49.0502 53.966 48.0777 54.5936 47.1911C54.8394 46.8839 55.5151 47.2833 55.638 47.4061ZM46.0354 71.0928C46.1565 71.0064 46.307 70.9717 46.4537 70.9966C47.0373 70.9966 47.2216 71.7645 47.2216 72.2867C47.1833 72.847 46.9559 73.3776 46.5766 73.7918C46.2387 74.1911 45.5322 74.3754 45.44 74.314C45.3897 74.2804 45.4768 74.0362 45.5712 73.7714C45.6497 73.5512 45.7333 73.3169 45.7472 73.1775C45.7255 72.6033 45.7461 72.0284 45.8086 71.4573C45.8327 71.3105 45.9143 71.1793 46.0354 71.0928Z" fill="black"/>
<path d="M54.471 54.8396C54.4933 54.3476 54.5864 53.8614 54.7474 53.3959C54.9624 52.7816 55.2082 51.7679 54.7474 51.5222C54.2867 51.2764 53.488 51.4607 53.488 53.1809C53.488 54.901 53.0887 56.8669 53.488 59.4471C53.8873 62.0273 55.8225 66.5734 58.4027 68.9078C60.9829 71.2423 60.5222 70.4437 61.7815 71.5802C63.0409 72.7167 69.43 73.9147 71.2116 73.6997C72.9931 73.4846 73.4539 72.6246 73.546 72.3174C73.6382 72.0102 73.3925 71.4881 73.1467 71.7338C72.901 71.9795 71.5802 73.1775 67.2491 72.2253C62.9181 71.273 61.7815 70.198 61.5358 69.9829C61.2901 69.7679 58.8634 67.2799 58.587 67.0341C58.3105 66.7884 55.5153 62.9795 55.5153 62.4266C55.5153 61.8737 59.1399 68.785 63.9624 70.628C68.785 72.471 70.5665 72.1638 71.488 71.8567C72.4095 71.5495 73.3617 71.273 73.3617 70.9352C73.3617 70.5973 73.331 69.9522 73.0239 69.9522C72.7167 69.9522 70.9044 71.0273 70.0443 70.9352C69.1843 70.843 67.9249 70.2901 66.7576 70.2901C65.5904 70.2901 63.1331 68.8464 62.5187 68.2628C61.9044 67.6792 58.6484 66.0205 55.5153 59.2935C55.4846 59.3242 54.3174 55.8532 54.471 54.8396Z" fill="black"/>
<path d="M62.9486 72.8089C62.9486 72.8089 61.6585 71.9488 61.4128 71.9795C61.1671 72.0102 61.1978 72.4403 61.2285 72.901C61.2592 73.3618 61.4435 73.8532 61.7507 73.9147C62.0578 73.9761 62.8872 73.7918 63.0715 73.9147C64.5534 74.6617 66.1751 75.0907 67.8326 75.174C70.3206 75.2662 70.8121 75.3583 71.5186 75.2969C72.2251 75.2355 73.423 74.8054 73.5152 74.529C73.6073 74.2525 73.5459 73.3925 73.3002 73.3925C73.0544 73.3925 72.778 74.6211 68.0783 74.0682C63.4401 73.4539 62.9486 72.8089 62.9486 72.8089Z" fill="black"/>
<path d="M63.5631 74.7133C63.5631 74.7133 62.6109 74.0375 62.3344 74.314C62.058 74.5904 61.9966 75.4198 62.9488 75.6348C63.901 75.8498 66.0512 76.4642 66.5426 76.5563C67.5056 76.7361 68.4814 76.8388 69.4607 76.8635C70.5051 76.8635 71.5495 76.372 71.9795 76.372C72.4095 76.372 73.6996 76.372 73.7611 76.0956C73.7679 75.7715 73.7159 75.4488 73.6075 75.1433C73.5768 75.0205 73.2082 75.0512 72.9624 75.1741C72.1702 75.4875 71.3462 75.7141 70.5051 75.8498C69.095 75.9328 67.68 75.8295 66.2969 75.5427C65.3686 75.3259 64.4554 75.0489 63.5631 74.7133Z" fill="black"/>
<path d="M72.8087 77.3857C72.8087 77.3857 70.8428 78.7372 65.3753 77.8771C59.9077 77.0171 61.3207 74.8669 61.4435 74.959C61.5664 75.0512 62.0271 75.6962 62.365 75.8191C62.7029 75.942 66.7882 77.2935 67.9248 77.3242C69.0613 77.355 70.5357 77.2935 71.1807 77.0785C71.8258 76.8635 72.6859 76.3106 73.0237 76.7713C73.3616 77.1707 72.8087 77.3857 72.8087 77.3857Z" fill="black"/>
<path d="M62.1506 77.4471C62.1506 77.4471 61.6592 77.1092 61.6592 77.4471C61.7079 77.9396 62.0109 78.3708 62.4578 78.5836C62.8869 78.7997 63.3596 78.9153 63.8401 78.9215C64.4212 78.9679 64.9862 79.1353 65.4988 79.4129C65.9595 79.628 67.5875 80.273 70.4134 79.7508C73.2394 79.2286 73.9459 78.5529 74.0687 78.3686C74.1611 78.0893 74.1611 77.7878 74.0687 77.5085C74.0073 77.2013 73.7923 77.0785 73.5466 77.3242C73.3008 77.5699 71.6421 79.0443 67.5875 78.7679C63.5329 78.4914 62.1506 77.4471 62.1506 77.4471Z" fill="black"/>
<path d="M64.9142 79.6587C64.9142 79.6587 64.5763 79.1673 63.6548 79.413C62.7333 79.6587 66.02 81.4096 66.2043 81.5632C66.3886 81.7167 66.6036 81.8089 67.4023 81.7167C68.2009 81.6246 70.4739 81.5017 71.2726 81.3174C72.0712 81.1331 73.6685 80.6724 74.16 80.058C74.6514 79.4437 74.4671 79.0444 74.0064 79.1058C73.5456 79.1673 70.7197 80.9181 67.8937 80.6724C65.0678 80.4266 64.9142 79.6587 64.9142 79.6587Z" fill="black"/>
<path fill-rule="evenodd" clip-rule="evenodd" d="M58.1877 47.7747C58.037 47.9983 57.8618 48.2043 57.6655 48.3891C57.1433 49.0034 56.4675 50.7542 56.4061 51.1843C56.3447 51.6143 56.529 52.8123 56.7133 53.5495C56.7956 53.8789 56.9639 54.834 57.1467 55.872C57.373 57.1569 57.6217 58.5688 57.7576 59.0785C57.9009 59.6158 58.3262 60.4979 58.6681 61.2069C58.9125 61.7138 59.1143 62.1322 59.1399 62.273C59.2013 62.6109 61.9658 65.4676 62.3344 65.6211C62.4748 65.6796 62.9002 66.041 63.4327 66.4933C64.2984 67.2286 65.4469 68.2042 66.1126 68.5085C67.1877 69 70.4129 69.5836 71.0273 69.6143C71.6416 69.645 71.2116 70.0443 71.2116 70.0443C68.2637 70.6416 65.2029 69.8989 62.8566 68.017C56.8361 63.2867 55.7303 58.8942 55.2389 54.6246C54.7474 50.3549 56.3139 47.2833 56.7747 47.1911C57.2354 47.099 58.1877 47.6826 58.1877 47.7747ZM67.5255 82.4539C67.4641 82.1775 68.8464 82.1467 68.8464 82.1467C70.7663 82.3741 73.1226 81.1263 74.0697 80.6248C74.2742 80.5165 74.413 80.443 74.4675 80.4266C74.7747 80.3344 74.8976 80.8259 74.8976 81.256C74.8976 81.5683 74.5896 81.7024 74.1503 81.8937C73.9848 81.9657 73.8007 82.0459 73.6075 82.1467C73.0369 82.4444 70.6831 82.8624 69.475 83.0768C69.1873 83.1279 68.9645 83.1675 68.8464 83.1911C68.2956 83.244 67.7696 82.9504 67.5255 82.4539ZM70.075 84.0205C70.075 83.8669 71.5802 83.3754 71.5802 83.3754C72.0716 83.3447 74.1604 82.2082 74.3754 82.0853C74.5803 81.9923 74.8155 81.9923 75.0204 82.0853C75.2078 82.4217 75.2831 82.809 75.2354 83.1911C75.1909 83.4583 74.4846 83.6287 73.8887 83.7724C73.6626 83.8269 73.4524 83.8776 73.3003 83.9283C73.0776 84.0025 72.7703 84.1614 72.4504 84.3268C71.9761 84.5721 71.4744 84.8315 71.1808 84.8498C70.6894 84.8805 70.075 84.174 70.075 84.0205ZM73.0238 85.7099C72.6845 85.875 72.2881 85.875 71.9488 85.7099C71.3651 85.4334 71.5802 85.0955 72.0716 84.8498C72.3762 84.6975 72.846 84.5098 73.2396 84.3526C73.4811 84.2561 73.694 84.171 73.8225 84.1126C74.1604 83.959 75.0819 83.6211 75.2354 83.744C75.3973 83.9132 75.5043 84.1273 75.5426 84.3583C75.5426 84.5119 73.0238 85.7099 73.0238 85.7099ZM72.9317 86.4778C72.9317 86.6007 73.8532 87.0921 73.8532 87.0921C74.2218 87.1536 76.2184 86.6314 76.2184 86.1706C76.2184 85.7099 75.7269 85.2491 75.7269 85.2491C75.7269 85.2491 73.8532 86.017 73.5767 86.017C73.2981 86.0529 73.056 86.2259 72.9317 86.4778ZM76.2184 88.1058C75.9545 88.1557 75.6836 88.1557 75.4197 88.1058C75.2726 88.0567 75.0993 87.9207 74.9509 87.8041C74.8205 87.7017 74.7093 87.6143 74.6518 87.6143C74.529 87.6143 74.9283 87.3686 75.2354 87.3379C75.4251 87.3189 75.6966 87.2414 75.9201 87.1776L75.9201 87.1776C76.0586 87.1381 76.1786 87.1039 76.2491 87.0921C76.4334 87.0614 76.6791 87.3071 76.6791 87.6143C76.6791 87.9215 76.2184 88.1058 76.2184 88.1058Z" fill="black"/>
<path d="M59.7848 48.8498C59.7848 48.8498 60.3377 48.6962 60.3685 48.5119C60.3992 48.3276 60.307 47.8976 59.5698 47.7747C58.8326 47.6519 58.1261 48.1741 57.6347 49.4949C57.1432 50.8157 57.3582 53.6109 58.0033 55.3311C58.6483 57.0512 58.2797 58.4334 59.4777 60.7372C60.6756 63.041 60.6449 63.041 61.1057 63.4096C61.5664 63.7782 63.778 65.9283 64.1159 66.2662C64.4538 66.6041 66.4196 67.8942 66.7882 67.8942C67.1569 67.8942 67.3412 67.2799 67.3104 66.9727C67.2797 66.6655 67.249 66.5119 66.7268 66.4812C66.2046 66.4505 65.4674 65.5904 65.4674 65.5904C65.4674 65.5904 62.6722 62.9488 62.4572 62.8259C62.2422 62.7031 59.9691 60.1229 59.9691 59.8157C59.9691 59.5085 59.9999 59.0785 60.1842 59.3242C60.3685 59.57 61.6893 61.4744 62.5493 62.273C63.4094 63.0717 66.1432 65.3754 66.7882 65.6519C67.4333 65.9283 67.7405 65.959 67.8019 65.4369C67.8633 64.9147 68.1705 64.6689 68.447 64.8225C68.7234 64.9761 70.7814 66.1741 71.4265 66.0819C72.0715 65.9898 73.0237 65.0375 73.3309 65.099C73.6381 65.1604 72.778 66.1126 72.5016 66.2662C72.2251 66.4198 72.7166 66.7577 72.8087 66.8191C73.1573 67.0083 73.5869 66.9592 73.8838 66.6962C74.3753 66.2662 74.4367 65.6826 74.0988 64.9147C73.7609 64.1468 73.6688 62.8567 73.5766 62.6109C73.4845 62.3652 73.3616 61.9966 73.1159 62.6109C72.8702 63.2253 72.4094 64.4846 70.8121 64.5461C68.9169 64.7007 67.027 64.1902 65.4674 63.1024C63.5016 61.8123 61.1364 60.0307 59.2934 54.7782C57.4504 49.5256 59.7848 48.8498 59.7848 48.8498Z" fill="black"/>
<path fill-rule="evenodd" clip-rule="evenodd" d="M72.8701 60.0307C72.7037 59.9512 72.505 59.9885 72.3786 60.1228C72.2865 60.2764 72.1636 59.5699 72.3479 58.8942C72.5322 58.2184 72.3786 57.2048 72.1636 57.2662C72.1216 57.2782 72.0246 57.3886 71.8819 57.5509C71.2937 58.22 69.93 59.7713 68.4469 58.9556C66.6039 57.942 64.3001 55.0546 63.6551 53.7645C63.5969 53.6481 63.5375 53.5303 63.4776 53.4115L63.4776 53.4114C62.8734 52.2134 62.2225 50.9224 62.3343 50.1399C62.3343 50.1399 62.4264 49.4641 62.4571 49.2798C62.4878 49.0955 62.0885 48.3583 61.5971 48.5426C61.1056 48.7269 59.9076 49.4027 59.7541 49.8942C59.719 50.0064 59.6663 50.1171 59.6087 50.2379C59.4144 50.6458 59.1651 51.1691 59.3547 52.2594C59.5436 53.3452 60.0227 54.6669 60.3599 55.5971C60.4614 55.8773 60.5501 56.122 60.6141 56.314C60.8906 57.1433 61.7506 59.017 62.6721 59.8464C63.5936 60.6757 65.4059 62.3037 66.2046 62.6723C66.3378 62.7338 66.4959 62.8201 66.6769 62.919L66.6769 62.919C67.5807 63.4125 69.0565 64.2183 70.8735 63.8088C73.0544 63.3174 73.0851 61.1365 73.0851 60.9215C73.0645 60.6145 72.9918 60.3133 72.8701 60.0307ZM63.0007 58.9597L63.0007 58.9597L63.0007 58.9597C62.6458 58.4248 62.0832 57.5771 61.9964 57.5119C62.5798 57.9452 63.1245 58.4282 63.6244 58.9556C64.2387 59.6621 64.7916 60.4914 64.7916 60.7372C64.7916 60.7372 63.3786 59.5085 63.2865 59.3856C63.2595 59.3496 63.148 59.1816 63.0007 58.9597ZM67.1998 61.0627C67.6558 61.4029 68.3438 61.9161 69.737 61.9658C71.4571 62.0273 71.8872 61.1672 71.795 61.0443C71.7029 60.9215 71.365 60.9215 71.0578 61.0443C71.0378 61.0523 71.0139 61.0627 70.9862 61.0747C70.5879 61.247 69.4 61.761 67.6483 60.5836C65.7745 59.3242 63.6551 57.0205 63.4093 56.4983C63.3595 56.3924 63.244 56.1967 63.0919 55.9393C62.4944 54.9276 61.3331 52.9615 61.382 51.7372C61.3142 51.4135 61.2731 51.0847 61.2592 50.7542C61.2592 50.5699 60.6756 50.8771 60.7677 51.2457C60.8599 51.6143 61.7506 54.7781 62.0885 55.4232C62.4264 56.0682 63.225 56.959 64.2387 58.0034C64.6464 58.4235 65.084 58.9231 65.4914 59.3883C66.0968 60.0795 66.6356 60.6948 66.9111 60.86C66.9986 60.9126 67.0928 60.9829 67.1998 61.0627Z" fill="black"/>
<path fill-rule="evenodd" clip-rule="evenodd" d="M71.9489 55.7918C71.8426 55.7918 71.6863 55.9008 71.5291 56.0105C71.2772 56.1861 71.0226 56.3637 70.9659 56.099C70.9217 55.8926 71.019 55.5729 71.1321 55.2012C71.2547 54.7985 71.3959 54.3346 71.3959 53.8874C71.3959 53.0273 71.2116 51.3993 70.8123 50.6007C70.413 49.802 70.0137 49.0956 69.3072 49.5256C68.6626 49.918 68.913 50.2336 69.1952 50.5892C69.2222 50.6234 69.2496 50.6579 69.2765 50.6928C69.3005 50.7241 69.3274 50.7583 69.3565 50.7955C69.6992 51.2325 70.3516 52.0647 70.3516 53.0273C70.3516 54.0717 70.198 55.4232 69.7987 55.5153C69.3994 55.6075 68.4471 55.3003 67.5871 54.6246C66.6684 53.9365 65.8149 53.1653 65.0376 52.3208C64.7611 51.9215 64.2082 51 64.3618 50.8464C64.5154 50.6928 64.7611 50.6314 65.0069 51.0614C65.2526 51.4915 66.4506 52.7508 66.7577 53.058C67.2711 53.5713 67.8148 54.0533 68.3857 54.5017C68.429 54.5306 68.4736 54.562 68.5191 54.5941C68.8609 54.8349 69.2548 55.1125 69.5529 54.6246C69.8908 54.0717 69.9523 52.7508 69.6758 52.2594C69.5981 52.1213 69.5059 51.954 69.41 51.7802L69.4099 51.78L69.4099 51.78C69.1646 51.3353 68.8954 50.8474 68.785 50.6928L68.7737 50.6769C68.6193 50.4602 68.373 50.1144 67.8635 50.3242C67.3413 50.5392 67.3721 50.9693 67.5564 51.1229C67.5834 51.1454 67.6244 51.1773 67.6749 51.2165L67.6749 51.2165C67.9678 51.444 68.579 51.9187 68.6314 52.2594C68.6426 52.3318 68.6578 52.4144 68.6734 52.499C68.7436 52.8807 68.8214 53.3039 68.57 53.0273C68.4557 52.9015 68.2732 52.6693 68.0781 52.421C67.7491 52.0023 67.3842 51.5379 67.2492 51.4607C67.0342 51.3379 65.5598 50.4164 65.5598 50.4164C65.5598 50.4164 63.7782 49.6792 63.6553 49.4949C63.5325 49.3106 63.1639 49.2799 63.4403 50.3242C63.4899 50.5116 63.5366 50.706 63.5841 50.9042L63.5841 50.9042L63.5841 50.9042C63.8017 51.8107 64.0389 52.7989 64.669 53.5802C65.0995 54.0784 65.4143 54.6659 65.5905 55.3003C65.7441 55.7611 67.2799 58.0341 69.2458 58.5256C71.0448 58.9753 71.7891 57.11 71.9731 56.6488C71.9902 56.6061 72.0025 56.5754 72.0103 56.5597C72.1024 56.3754 72.2253 55.7918 71.9489 55.7918ZM70.0751 57.1741C70.0349 57.4756 69.6527 57.3693 69.29 57.2684C69.0985 57.2152 68.9124 57.1634 68.785 57.1741C68.4164 57.2048 67.7407 56.5904 67.3106 56.099C66.8806 55.6075 66.5427 55.0853 66.6656 55.0239C66.7256 54.9939 66.888 55.1396 67.1029 55.3323C67.3283 55.5344 67.6112 55.7882 67.8942 55.9454L67.9849 55.9958L67.9849 55.9958C68.5256 56.2973 69.2107 56.6793 69.6758 56.6212C70.1673 56.5597 70.0751 57.1741 70.0751 57.1741ZM73.884 67.5256C73.884 67.3413 74.2833 66.8805 74.2833 66.8805C74.6125 66.8046 74.6286 67.1251 74.6413 67.3778C74.644 67.4316 74.6465 67.4824 74.6519 67.5256C74.6826 67.7713 74.6826 67.9556 74.4676 68.1092C74.2526 68.2628 74.099 68.1706 74.099 67.9863C74.099 67.8942 74.0453 67.8251 73.9915 67.756C73.9378 67.6869 73.884 67.6177 73.884 67.5256ZM74.6826 68.5085C74.6826 68.5085 74.2833 68.7543 74.2833 69.0614C74.2678 69.3172 74.2678 69.5736 74.2833 69.8293C74.3206 69.933 74.4189 70.0022 74.5291 70.0022C74.6392 70.0022 74.7376 69.933 74.7748 69.8293C74.7976 69.7838 74.8214 69.7414 74.8443 69.7007L74.8443 69.7007C74.9451 69.5214 75.0285 69.3731 74.9284 69.1229C74.8807 69.0276 74.87 68.8815 74.8605 68.7509C74.8454 68.5446 74.8331 68.3769 74.6826 68.5085ZM74.4676 71.6723C74.4369 71.8874 74.9898 71.488 74.9898 71.488L75.0318 71.463C75.3157 71.2942 75.4978 71.186 75.2048 70.6587C74.9894 70.2709 74.925 70.3364 74.8423 70.4207C74.807 70.4566 74.7684 70.4959 74.7134 70.5051C74.5673 70.5295 74.5177 71.1133 74.4881 71.4616L74.4881 71.4616L74.4881 71.4617C74.4804 71.5528 74.474 71.6278 74.4676 71.6723ZM75.4506 72.1945C75.4506 72.1945 75.6041 71.6109 75.1741 71.9795C74.9939 72.134 74.8676 72.2021 74.784 72.2473C74.6681 72.3099 74.6341 72.3282 74.6519 72.471C74.6826 72.7167 74.7748 73.1467 75.0205 73.0853C75.048 73.0762 75.081 73.0704 75.1165 73.0642C75.3194 73.0288 75.6074 72.9786 75.4506 72.1945ZM75.0512 74.1604C74.9898 73.7611 75.6963 73.4232 75.6963 73.4232C75.853 73.3252 75.8598 73.5272 75.8681 73.7741C75.8728 73.9142 75.8779 74.0688 75.9113 74.1911C76.0035 74.529 75.7577 74.959 75.6041 74.959C75.4506 74.959 75.1127 74.5597 75.0512 74.1604Z" fill="black"/>
<path fill-rule="evenodd" clip-rule="evenodd" d="M21.3584 60C21.3584 38.6588 38.6588 21.3583 60 21.3583C70.2492 21.3559 80.0793 25.4263 87.3265 32.6735C94.5737 39.9208 98.6441 49.7508 98.6417 60C98.6417 81.3412 81.3412 98.6416 60 98.6416C38.6588 98.6416 21.3584 81.3412 21.3584 60ZM23.9079 60C23.9164 79.9246 40.0754 96.0699 60 96.0614C69.5692 96.0606 78.7457 92.2568 85.5093 85.4875C92.2728 78.7182 96.0688 69.5384 96.0615 59.9693C96.053 40.0446 79.894 23.8994 59.9693 23.9078C40.0447 23.9163 23.8994 40.0753 23.9079 60Z" fill="black"/>
<path fill-rule="evenodd" clip-rule="evenodd" d="M15 60C15 35.1472 35.1472 15 60 15C84.8521 15.0017 104.998 35.1479 105 60C105 84.8528 84.8528 105 60 105C35.1472 105 15 84.8528 15 60ZM19.2082 60C19.2082 82.5287 37.4713 100.792 60 100.792C82.5245 100.782 100.782 82.5245 100.792 60C100.792 37.4713 82.5287 19.2082 60 19.2082C37.4713 19.2082 19.2082 37.4713 19.2082 60Z" fill="#151515"/>
</svg>
