<svg width="120" height="120" viewBox="0 0 120 120" fill="none" xmlns="http://www.w3.org/2000/svg">
<circle cx="60" cy="60" r="60" fill="#6916FF"/>
<path fill-rule="evenodd" clip-rule="evenodd" d="M64.377 22.2173C64.1171 22.6839 64.2462 23.266 64.6805 23.5856C66.5581 25.4005 68.2546 27.3859 69.7471 29.5149C73.3066 35.7168 73.1276 43.3196 69.2801 49.3552C68.7684 50.2262 68.8613 51.3155 69.5136 52.0918C70.3149 53.1843 71.8459 53.4834 73.0158 52.7759C76.9277 49.5584 77.5716 43.149 77.8292 40.5842C77.8637 40.2405 77.8913 39.9658 77.9189 39.7771C77.9155 38.1567 77.6797 36.5447 77.2185 34.9881C76.7382 33.4891 76.1128 32.0382 75.3506 30.6551C74.6286 29.2966 73.6819 28.0638 72.5488 27.0063C70.5747 24.958 68.1905 23.3279 65.5444 22.2173C65.191 21.9867 64.7303 21.9867 64.377 22.2173ZM58.0263 94.6459C58.2597 94.4178 58.2597 93.9617 57.7928 93.5056C55.8908 91.6938 54.1707 89.7083 52.6562 87.5763C49.0967 81.3744 49.2756 73.7716 53.1231 67.736C53.8261 66.953 53.8261 65.7824 53.1231 64.9994C52.3218 63.9069 50.7908 63.6078 49.6209 64.3153C45.7091 67.5328 45.0652 73.9422 44.8075 76.507C44.773 76.8507 44.7454 77.1254 44.7178 77.3141C44.7212 78.9345 44.957 80.5465 45.4182 82.1031C45.8985 83.6021 46.5239 85.053 47.2861 86.4361C48.0081 87.7946 48.9548 89.0274 50.0879 90.0849C52.062 92.1332 54.4462 93.7633 57.0923 94.8739C57.3258 95.102 57.7928 94.8739 58.0263 94.6459Z" fill="white" fill-opacity="0.5"/>
<path d="M77.9426 74.6915C77.6147 70.3359 75.9003 66.1895 73.0395 62.8329C70.1711 59.926 66.864 57.465 63.2332 55.5354C60.0701 53.7726 57.0976 51.7021 54.3609 49.3552C52.0893 47.1944 50.5424 44.4112 49.9248 41.3735C49.368 38.2219 49.7656 34.9801 51.0688 32.0462C52.6158 28.8095 54.8526 25.9327 57.6297 23.6084C57.948 23.3156 58.0417 22.858 57.8632 22.4682C57.7347 22.2258 57.4968 22.0567 57.2211 22.0118C56.9455 21.9669 56.6643 22.0515 56.4623 22.2401C52.7154 23.8984 49.5493 26.5944 47.3565 29.9938C44.8645 33.6168 43.704 37.958 44.0644 42.3085C44.2486 44.5098 44.8007 46.6668 45.6987 48.6939C46.6666 50.685 47.925 52.5286 49.4345 54.1671C52.3884 57.0145 55.7749 59.3991 59.4742 61.2366C62.6434 62.8922 65.6185 64.8804 68.3465 67.1659C70.7595 69.314 72.3286 72.2178 72.7827 75.3757C73.4403 78.6837 73.0325 82.1094 71.6153 85.1818C70.0421 88.3951 67.7237 91.2061 64.8443 93.3916C64.653 93.5081 64.5194 93.6965 64.4752 93.9124C64.431 94.1283 64.4801 94.3525 64.6108 94.5318C64.7393 94.7742 64.9772 94.9433 65.2528 94.9882C65.5285 95.0331 65.8097 94.9485 66.0117 94.7599C69.501 92.7254 72.5217 90.0079 74.884 86.7782C77.1972 83.171 78.2689 78.9359 77.9426 74.6915Z" fill="white"/>
</svg>
