<svg width="120" height="120" viewBox="0 0 120 120" fill="none" xmlns="http://www.w3.org/2000/svg">
<path fill-rule="evenodd" clip-rule="evenodd" d="M60 120C27 120 0 93.0006 0 59.7012C0.3 26.7019 27 -0.297518 60.3 0.00247602C93.3 0.30247 120 27.0019 120 60.6012C119.7 93.3006 93 120 60 120Z" fill="black"/>
<path d="M40.3704 90L49.0476 74.9735L57.7249 60L66.3492 44.9735L67.7778 42.5926L68.4127 44.9735L71.0582 54.8677L68.0952 60L59.418 74.9735L50.7937 90H61.164L69.8413 74.9735L74.3386 67.1958L76.455 74.9735L80.4762 90H89.7884L85.7672 74.9735L81.746 60L80.6878 56.1376L87.1429 44.9735H77.7249L77.4074 43.8624L74.127 31.5873L73.7037 30H64.6561L64.4444 30.3175L55.9788 44.9735L47.3016 60L38.6772 74.9735L30 90H40.3704Z" fill="white"/>
</svg>
