<svg width="120" height="120" viewBox="0 0 120 120" fill="none" xmlns="http://www.w3.org/2000/svg">
<circle cx="60" cy="60" r="60" fill="#E7EFF3"/>
<path d="M74.276 85.2193C70.616 83.4625 67.7246 80.7053 66.7364 79.5464C66.407 80.4857 65.5652 82.6866 64.8332 83.9749C63.9182 85.5853 62.2713 87.7447 60.7707 89.0623C59.2701 90.3799 54.4389 94.9182 49.1686 94.0398C43.8982 93.1615 40.165 90.4897 38.4082 87.1957C36.6515 83.9017 36.4319 80.6077 37.2736 77.204C37.9471 74.481 39.6038 71.409 40.348 70.2134C39.5062 70.4086 37.054 70.5209 33.9797 69.4082C30.1367 68.0174 27.8309 65.9313 26.5133 63.2595C25.1957 60.5877 24.7199 55.8663 25.1591 51.5476C25.5983 47.2288 28.2335 42.0682 34.3091 42.5074C39.1695 42.8588 44.2886 45.6306 46.2406 46.9726C45.6672 43.276 44.8644 34.8874 46.2406 30.9053C47.9608 25.9278 52.1697 24.8664 57.3303 25.0128C62.4909 25.1592 65.4188 27.7943 67.322 30.8687C68.8446 33.3282 69.0544 38.5547 68.969 40.8604C70.3598 39.494 74.2687 36.6881 78.7777 36.3953C84.4141 36.0293 87.1225 37.0175 89.3917 38.7377C91.6608 40.4578 94.2228 43.7152 94.8084 47.0824C95.394 50.4496 94.5888 52.5724 93.0516 55.2441C91.8219 57.3816 88.7329 59.6239 87.3421 60.4779C88.1839 61.1367 90.2115 62.8496 91.5876 64.4307C93.3078 66.4071 94.9182 69.9572 94.9548 74.3126C94.9914 78.668 93.6738 80.6443 92.5392 82.5475C91.4046 84.4507 89.0623 87.3787 85.1095 87.7081C81.1567 88.0375 78.8509 87.4153 74.276 85.2193Z" fill="#DC8898"/>
<path d="M49.2785 82.1815C47.3168 84.4361 45.338 84.8533 44.5938 84.7801C44.8988 84.5727 45.6844 84.0408 46.3871 83.5723C47.2655 82.9867 50.3765 78.9608 51.4379 77.3504C52.287 76.0621 55.0369 71.5432 56.3057 69.4448L57.0377 69.8474C55.2686 73.0194 51.2403 79.927 49.2785 82.1815Z" fill="#C57180"/>
<path d="M41.738 55.6833C44.461 56.2982 48.9481 58.4283 50.8513 59.4165L50.2291 60.6609C49.4971 60.2949 47.7989 59.4311 46.862 58.9041C45.6908 58.2453 41.2622 56.6349 38.1512 56.4153C35.0402 56.1957 34.0887 56.6715 32.8077 57.1473C31.5267 57.6231 30.3555 58.7943 30.6117 57.9525C30.8679 57.1107 31.5633 56.2323 33.7227 55.5003C35.882 54.7683 38.3342 54.9147 41.738 55.6833Z" fill="#C57180"/>
<path d="M58.209 41.5192C58.4725 43.6859 58.758 49.0588 58.8678 51.4744H57.9894C57.9771 50.9497 57.9601 49.6297 57.9894 48.5464C58.026 47.1922 57.3306 41.9584 56.8914 39.0671C56.54 36.754 55.3786 32.4669 54.8418 30.6125C55.3786 31.4055 56.54 33.3063 56.8914 34.5653C57.3306 36.1391 57.8796 38.8109 58.209 41.5192Z" fill="#C57180"/>
<path d="M73.6167 50.0104C71.2743 51.6793 68.5659 55.2685 67.5045 56.8545L66.8457 55.8297C67.4923 54.9513 69.1002 52.8505 70.3593 51.4744C71.9331 49.7542 74.5316 47.7412 78.5942 45.838C81.8443 44.3155 85.7555 44.8864 87.305 45.3622C86.756 45.3256 85.4823 45.2744 84.7796 45.3622C83.9012 45.472 82.8398 45.5452 80.6804 46.0576C78.521 46.57 76.5446 47.9242 73.6167 50.0104Z" fill="#C57180"/>
<path d="M76.4727 70.7258C74.0718 69.1154 67.7131 66.8096 64.834 65.858L65.4562 64.9431C66.3346 65.2359 68.3988 65.9386 69.6285 66.407C71.1657 66.9926 74.0937 68.603 75.1917 69.1886C76.2897 69.7742 80.0229 72.1166 81.1209 72.812C82.2189 73.5074 86.0984 76.3622 86.867 77.021C87.6356 77.6798 87.6722 78.668 87.4526 78.9241C87.233 79.1803 86.501 78.1922 85.5494 77.204C84.5978 76.2158 79.4739 72.7388 76.4727 70.7258Z" fill="#C57180"/>
<ellipse cx="59.1598" cy="60.1119" rx="9.84533" ry="9.95513" fill="#FBECB3"/>
</svg>
