<svg width="120" height="120" viewBox="0 0 120 120" fill="none" xmlns="http://www.w3.org/2000/svg">
<path fill-rule="evenodd" clip-rule="evenodd" d="M60 120C27 120 0 93.0006 0 59.7012C0.3 26.7019 27 -0.297518 60.3 0.00247602C93.3 0.30247 120 27.0019 120 60.6012C119.7 93.3006 93 120 60 120Z" fill="#EDF0F4"/>
<path fill-rule="evenodd" clip-rule="evenodd" d="M58.6197 30.1109C57.2835 30.4463 56.6006 31.0947 55.9157 32.6787C55.6734 33.2389 54.7807 35.1235 53.9319 36.8666L52.3884 40.0358L52.3929 40.7753C52.4002 41.986 53.1971 43.6252 54.4349 44.9754C55.0387 45.6341 56.3934 46.5774 57.2439 46.9313C59.9963 48.0767 63.5494 46.8796 65.4819 44.1559C66.5008 42.7198 66.9645 41.392 66.8842 40.1404C66.8395 39.4447 66.7474 39.2111 65.4877 36.5993C64.7459 35.0612 63.9687 33.3751 63.7607 32.8522C63.4382 32.0418 63.2799 31.7991 62.6886 31.2088C62.0661 30.5872 61.9137 30.4927 61.2027 30.2862C60.1197 29.9718 59.3752 29.9213 58.6197 30.1109ZM67.0801 45.5591C66.2164 46.7628 65.5257 47.7952 65.5451 47.8533C65.5766 47.9481 71.9198 50.9756 72.4178 51.1337C72.6111 51.195 72.6141 51.1795 72.4728 50.8465C72.1678 50.1269 68.7635 43.3637 68.7081 43.367C68.6764 43.3689 67.9437 44.3553 67.0801 45.5591ZM49.0338 47.0316C47.4497 50.389 47.2893 50.7626 47.4358 50.7526C47.6444 50.7382 53.7428 47.9482 53.7728 47.8533C53.8054 47.7498 50.8052 43.8674 50.6479 43.8096C50.6038 43.7934 49.8776 45.2433 49.0338 47.0316ZM56.9269 49.8698C54.239 50.2875 51.2934 51.412 48.42 53.1173L47.4164 53.7129L59.0106 53.7147C65.427 53.7157 70.6048 53.6758 70.6048 53.6255C70.6048 53.4863 69.1379 52.3936 68.1713 51.8127C66.5134 50.8163 64.1188 50.0755 61.7086 49.8135C60.3268 49.6634 58.0859 49.6897 56.9269 49.8698ZM54.8113 56.0394L45.4092 56.0934L44.9731 56.3266C44.3244 56.6737 43.7274 57.4214 43.3202 58.3973L42.959 59.2626L50.5754 59.3154C54.7644 59.3445 58.2513 59.4067 58.3239 59.4537C58.4285 59.5214 58.456 62.6741 58.456 74.6335C58.456 84.3886 58.4926 89.7504 58.5596 89.7918C58.6167 89.8271 59.0594 89.8838 59.5434 89.918C60.544 89.9886 60.7877 89.9061 61.1023 89.3901C61.3029 89.0611 61.3076 88.7212 61.3079 74.1845L61.3083 59.3154L64.9793 59.3007C66.9985 59.2925 70.4257 59.2569 72.5955 59.2214L76.5405 59.157L75.9136 58.2024C75.2283 57.159 74.6549 56.6051 73.8398 56.1989L73.3099 55.9349L68.7617 55.9602C66.2601 55.9741 59.9825 56.0097 54.8113 56.0394ZM42.7682 61.8434C41.9427 61.9837 41.6503 62.2829 40.931 63.7234C39.9626 65.6629 39.5458 67.5097 39.5467 69.8569C39.547 70.7118 39.6186 71.8839 39.7056 72.4616C40.2064 75.7848 41.6971 79.3865 43.6462 81.9836C45.5325 84.497 48.4167 86.7685 51.2665 87.9852C52.5401 88.5289 55.6722 89.6689 56.2281 89.7909L56.5712 89.8664L56.5058 76.466C56.4698 69.0958 56.4157 62.865 56.3857 62.6197C56.3475 62.3074 56.2493 62.1093 56.0588 61.9594C55.7917 61.7493 55.6653 61.7454 49.4886 61.7584C46.0248 61.7657 43.0006 61.8039 42.7682 61.8434ZM64.8242 61.9437C63.9904 61.9944 63.7018 62.0522 63.5565 62.1977C63.391 62.3633 63.3615 62.6697 63.3122 64.7331C63.2363 67.9093 63.2468 89.918 63.3244 89.9956C63.4267 90.0979 67.9316 88.4022 69.1786 87.792C73.6615 85.5981 77.1752 81.6887 78.8692 77.0104C79.8002 74.439 80.1049 72.9447 80.1831 70.5663C80.2504 68.5169 80.1223 67.5131 79.5734 65.7887C79.2272 64.7009 78.5201 63.1748 78.0941 62.5964C77.5728 61.8881 77.8026 61.9129 71.5555 61.8946C68.447 61.8855 65.4179 61.9076 64.8242 61.9437ZM81.8179 71.1209C81.397 73.0836 80.717 76.8579 80.774 76.9149C80.8603 77.0011 84.5464 75.9845 84.5482 75.874C84.5501 75.754 82.0386 70.6191 81.9779 70.6191C81.9491 70.6191 81.8771 70.8449 81.8179 71.1209ZM37.0185 71.9132C36.9106 72.1601 36.3878 73.2852 35.8564 74.4132C35.3252 75.5413 34.9277 76.5004 34.9734 76.5444C35.019 76.5886 35.7456 76.8116 36.5881 77.0401C38.7896 77.6373 38.7009 77.6207 38.7009 77.4346C38.7009 77.3461 38.4157 75.9905 38.0671 74.4222C37.7185 72.8538 37.4332 71.5467 37.4332 71.5175C37.4332 71.4882 37.384 71.4642 37.3238 71.4642C37.2637 71.4642 37.1263 71.6663 37.0185 71.9132ZM83.341 78.6056C80.5555 79.2228 78.3498 81.2683 77.691 83.8454C77.3852 85.0413 77.3338 85.8787 77.5075 86.8351C77.7305 88.0635 78.0575 88.8414 78.5799 89.3866L79.0317 89.8582L83.6304 89.8257L88.229 89.793L88.6845 89.4728C88.9349 89.2967 89.2815 88.9235 89.4546 88.6436C89.7241 88.2077 89.7685 88.0333 89.7632 87.432C89.7549 86.5114 89.6058 86.1365 87.7182 82.2925C86.6738 80.1658 86.0518 79.02 85.8275 78.8096C85.5341 78.5344 85.4061 78.4927 84.7836 78.4695C84.3933 78.4551 83.7441 78.5163 83.341 78.6056ZM33.9471 79.1443C33.6159 79.3147 33.4332 79.622 32.1953 82.0905C30.2939 85.8823 30.0251 86.5427 30.0032 87.4769C29.9875 88.1411 30.0212 88.2822 30.3062 88.7446C30.5225 89.0954 30.8134 89.3766 31.1995 89.6082L31.7721 89.9515L35.6327 89.9452C37.756 89.9418 39.7278 89.9004 40.0144 89.8534C41.1638 89.6647 41.8165 88.3346 41.8062 86.2012C41.8017 85.238 41.7529 84.8946 41.5212 84.194C40.6806 81.6519 38.7568 79.9139 36.0426 79.2444C34.8758 78.9566 34.3596 78.932 33.9471 79.1443ZM44.0453 86.1219C43.9878 86.3057 43.6371 88.3845 43.5017 89.3441L43.4309 89.8459H46.4243H49.4178L47.2022 88.1975C44.0712 85.8681 44.1154 85.8973 44.0453 86.1219ZM72.8761 87.5836C71.6559 88.4887 70.5037 89.3323 70.3155 89.4584C70.1275 89.5843 69.9732 89.7112 69.9728 89.7402C69.9724 89.7693 71.3385 89.793 73.0086 89.793C74.9697 89.793 76.0416 89.7556 76.0347 89.6874C76.0025 89.3644 75.1916 85.9381 75.1473 85.938C75.1183 85.9379 74.0962 86.6784 72.8761 87.5836Z" fill="black"/>
</svg>
