<svg width="120" height="120" viewBox="0 0 120 120" fill="none" xmlns="http://www.w3.org/2000/svg">
<circle cx="60" cy="60" r="60" fill="#EDF0F4"/>
<path fill-rule="evenodd" clip-rule="evenodd" d="M64.3657 27.6559C70.1576 28.9942 74.5347 31.369 78.7715 35.4719C81.5001 38.1146 83.3006 40.5673 84.8602 43.766C86.6008 47.3365 87.4323 50.2659 87.8591 54.3324L88 55.6765L82.6705 55.6192L77.341 55.5618L77.1887 54.8111C76.651 52.1584 76.2594 50.7077 75.7736 49.568C72.5101 41.9094 65.0198 37.2396 56.768 37.7189C48.5418 38.1965 41.376 44.0869 39.2359 52.1303C38.6322 54.3991 38.574 59.1221 39.1226 61.3157C41.0625 69.0696 47.5812 75.0605 55.1003 75.9997L56.3231 76.1524V81.5132V86.874L55.1436 86.8047C52.2669 86.6355 48.0962 85.4772 44.9411 83.9714C39.2357 81.2483 33.8976 75.9748 30.9776 70.1769C30.0359 68.3067 28.9033 64.8772 28.4063 62.3917C27.8211 59.464 27.8762 53.8913 28.5192 50.9762C29.8169 45.0942 32.2878 40.4463 36.3888 36.1737C41.1292 31.2349 47.3526 28.0803 54.1785 27.1566C56.7218 26.8124 61.7897 27.0607 64.3657 27.6559ZM82.8635 61.2286L87.7426 61.2451V66.4996V71.7541H82.381H77.0193V66.5354C77.0193 63.665 77.0742 61.2619 77.1411 61.1947C77.2082 61.1278 77.4253 61.1042 77.6236 61.1426C77.822 61.181 80.1801 61.2196 82.8635 61.2286ZM72.5154 81.6196V86.9812H67.1538H61.7921V81.6196V76.2579H67.1538H72.5154V81.6196ZM87.7426 81.6196V86.9812H82.381H77.0193V81.7626C77.0193 78.8922 77.0836 76.4794 77.1623 76.4009C77.2408 76.3222 79.6536 76.2579 82.524 76.2579H87.7426V81.6196Z" fill="black"/>
</svg>
