<svg width="120" height="120" viewBox="0 0 120 120" fill="none" xmlns="http://www.w3.org/2000/svg">
<rect width="120" height="120" rx="60" fill="#1E1E1E"/>
<path opacity="0.4" d="M94.1355 72.5304C96.2147 76.0978 96.2237 80.5056 94.1592 84.0815C92.0947 87.6573 88.273 89.8535 84.1439 89.8366C80.0149 89.8198 76.2112 87.5926 74.1759 84L50.0199 42.1632C46.8524 36.6515 48.7526 29.6156 54.2643 26.448C59.776 23.2804 66.812 25.1807 69.9795 30.6924L94.1355 72.5304Z" fill="#4BDB4B"/>
<path opacity="0.8" d="M45.8294 84C42.641 89.4679 35.6366 91.3364 30.1484 88.1831C24.6602 85.0298 22.7469 78.0374 25.865 72.5292L50.0186 30.6936C52.045 27.0827 55.8545 24.8383 59.9951 24.8159C64.1357 24.7935 67.9693 26.9966 70.0346 30.5853C72.1 34.1741 72.0789 38.5955 69.9794 42.1644L45.8294 84Z" fill="#4BDB4B"/>
<path d="M69.9105 30.5772C69.7773 30.3504 69.6333 30.1332 69.4869 29.9184C69.4161 29.8152 69.3489 29.7096 69.2745 29.6088C69.1317 29.4132 68.9781 29.2284 68.8245 29.0448C68.7309 28.932 68.6409 28.8168 68.5425 28.7076C68.4033 28.554 68.2569 28.4112 68.1117 28.266C67.9665 28.1208 67.8573 28.0092 67.7229 27.8868C67.5885 27.7644 67.4613 27.666 67.3293 27.5568C67.1637 27.42 66.9993 27.282 66.8241 27.1536C66.7041 27.0648 66.5781 26.9844 66.4545 26.9016C66.2601 26.7696 66.0645 26.6388 65.8545 26.5176C65.8113 26.4924 65.7729 26.4624 65.7345 26.4372C65.6433 26.3844 65.5473 26.3448 65.4537 26.2944C65.2593 26.19 65.0637 26.088 64.8657 25.9956C64.6989 25.9164 64.5285 25.8456 64.3569 25.776C64.1853 25.7064 64.0221 25.6404 63.8529 25.5804C63.6537 25.51 63.4537 25.4452 63.2529 25.386C63.1041 25.3416 62.9565 25.2996 62.8065 25.266C62.5917 25.212 62.3745 25.1652 62.1573 25.1232C62.0097 25.0956 61.8609 25.0692 61.7133 25.0464C61.5009 25.0152 61.2885 24.99 61.0737 24.9696C60.9089 24.9536 60.7445 24.9416 60.5805 24.9336C60.3877 24.924 60.1945 24.9192 60.0009 24.9192C59.8101 24.9192 59.6205 24.9192 59.4297 24.9336C59.2629 24.942 59.0949 24.954 58.9269 24.9696C58.7169 24.99 58.5057 25.014 58.2969 25.0464C58.1457 25.0692 57.9945 25.0956 57.8445 25.1244C57.6285 25.1652 57.4145 25.212 57.2025 25.2648C57.0501 25.3032 56.8989 25.3464 56.7477 25.3908C56.5477 25.45 56.3477 25.514 56.1477 25.5828C55.9749 25.644 55.8033 25.7124 55.6329 25.782C55.4625 25.8516 55.2993 25.92 55.1361 25.9968C54.9333 26.0916 54.7329 26.196 54.5361 26.3028C54.4461 26.352 54.3537 26.3904 54.2649 26.442C54.2229 26.466 54.1857 26.4948 54.1449 26.5188C53.9337 26.6388 53.7309 26.778 53.5317 26.9136C53.4117 26.9928 53.2917 27.0696 53.1801 27.1536C52.9965 27.2892 52.8201 27.4332 52.6473 27.5784C52.5273 27.6792 52.4073 27.7764 52.2873 27.8832C52.1397 28.0164 52.0017 28.158 51.8625 28.2972C51.7233 28.4364 51.5889 28.56 51.4689 28.6968C51.3489 28.8336 51.2517 28.9536 51.1437 29.0832C51.0069 29.25 50.8677 29.4168 50.7393 29.592C50.6481 29.712 50.5665 29.8428 50.4813 29.9688C50.3517 30.1596 50.2233 30.3528 50.1045 30.5544C47.9869 34.123 47.9558 38.5555 50.0229 42.1536L60.0033 59.4408L69.9825 42.1536C72.0452 38.5635 72.0177 34.1414 69.9105 30.5772Z" fill="#4BDB4B"/>
</svg>
