<svg width="120" height="120" viewBox="0 0 120 120" fill="none" xmlns="http://www.w3.org/2000/svg">
<circle cx="60" cy="60" r="60" fill="#EDF0F4"/>
<path fill-rule="evenodd" clip-rule="evenodd" d="M64.1 30.9L83.75 40.95C86.6 42.45 88.4 45.3 88.4 48.6V53.25H81.2V48.6C81.2 48.15 80.9 47.7 80.45 47.4L60.8 37.35C60.5 37.2 60.05 37.2 59.6 37.35L39.95 47.4C39.5 47.55 39.2 48 39.2 48.6V53.25H32V48.6C32 45.45 33.8 42.45 36.65 40.95L56.3 30.9C58.7 29.7 61.55 29.7 64.1 30.9ZM66.35 59.7C66.35 56.25 63.5 53.55 60.2 53.55C56.75 53.55 54.05 56.25 54.05 59.7C54.05 63.15 56.9 65.85 60.2 65.85C63.5 65.85 66.35 63.15 66.35 59.7ZM80.3 72.6C80.75 72.45 81.05 72 81.05 71.4V66.75H88.25V71.4C88.25 74.55 86.45 77.55 83.6 79.05L63.95 89.1C62.75 89.7 61.4 90 60.05 90C58.7 90 57.35 89.7 56.15 89.1L36.65 79.05C33.8 77.55 32 74.7 32 71.4V66.75H39.2V71.4C39.2 71.85 39.5 72.3 39.95 72.6L56.6 81V72.6C50.9 70.95 46.85 65.85 46.85 59.7C46.85 52.35 52.85 46.2 60.35 46.2C67.7 46.2 73.85 52.2 73.85 59.7C73.85 65.85 69.65 71.1 64.1 72.6V81L80.3 72.6Z" fill="#245AE5" fill-opacity="0.9"/>
</svg>
