<svg width="120" height="120" viewBox="0 0 120 120" fill="none" xmlns="http://www.w3.org/2000/svg">
<circle cx="60" cy="60" r="60" fill="#EDF0F4"/>
<path d="M94.5729 68.8214L61.1158 93.5595C60.6725 93.8847 60.0222 93.9142 59.5789 93.5891L25.5898 69.5603C24.9396 69.0874 24.7918 68.1416 25.3238 67.5209L58.7514 27.4433C59.2242 26.8522 60.1109 26.8522 60.6134 27.4433L94.7503 67.2845C95.1345 67.7574 95.0754 68.4667 94.5729 68.8214Z" fill="#FFF4FC"/>
<path d="M92.7705 67.9938L60.9685 91.4906L60.7911 67.5505L60.5547 29.9556L92.0316 67.1071L92.7705 67.9938Z" fill="url(#paint0_linear)"/>
<path d="M26.8906 68.4963L59.5202 91.4906L58.7813 29.9556L26.8906 68.4963Z" fill="url(#paint1_linear)"/>
<path d="M59.2542 67.6096L27.1271 68.2303L26.8906 68.4963L59.5202 91.4907L59.2542 67.6096Z" fill="url(#paint2_linear)"/>
<path d="M60.791 67.5505L92.0314 67.1072L92.7703 67.9939L60.9684 91.4907L60.791 67.5505Z" fill="url(#paint3_linear)"/>
<path d="M48.1706 51.5904L47.5408 50.8136L47.5305 50.8222L48.1706 51.5904ZM51.8651 74.5552L52.5378 75.2952L52.5424 75.291L51.8651 74.5552ZM42.7028 76.5059L42.795 77.5017L42.7995 77.5012L42.7028 76.5059ZM55.1754 43.2557L56.0821 42.8339L56.0813 42.8323L55.1754 43.2557ZM85.9133 64.0629L84.9992 64.4683L84.9998 64.4696L85.9133 64.0629ZM80.15 58.8611L79.7472 59.7764L79.7545 59.7797L79.7619 59.7828L80.15 58.8611ZM75.9235 57.5016L75.6032 58.449L75.6146 58.4526L75.9235 57.5016ZM71.8448 56.1124L72.2058 55.1798L72.1959 55.1761L71.8448 56.1124ZM64.5445 52.5066L65.0845 51.6649L65.0767 51.66L64.5445 52.5066ZM60.8051 68.2549L92.0456 67.8115L92.0172 65.8117L60.7768 66.2551L60.8051 68.2549ZM59.2347 66.3142L27.1076 66.9349L27.1463 68.9345L59.2734 68.3139L59.2347 66.3142ZM59.7139 56.0275C56.2362 53.3672 53.6997 51.7794 51.8555 50.9734C50.9341 50.5706 50.1305 50.3381 49.4343 50.292C48.7248 50.2449 48.0635 50.3899 47.5408 50.8136L48.8004 52.3672C48.8246 52.3476 48.9391 52.2635 49.3019 52.2876C49.6781 52.3125 50.2432 52.4513 51.0545 52.8059C52.6758 53.5146 55.0603 54.9858 58.4987 57.616L59.7139 56.0275ZM47.5305 50.8222C46.8079 51.4243 46.6374 52.3357 46.647 53.1418C46.6568 53.9703 46.8571 54.9318 47.1417 55.934C47.7108 57.9378 48.7117 60.4114 49.6256 62.8281C50.5568 65.2903 51.4071 67.7145 51.7614 69.7579C52.1294 71.8801 51.8882 73.1748 51.1878 73.8195L52.5424 75.291C54.0735 73.8815 54.1094 71.5926 53.732 69.4162C53.341 67.1612 52.4234 64.572 51.4963 62.1206C50.5519 59.6235 49.604 57.2833 49.0656 55.3876C48.7965 54.44 48.6535 53.6803 48.6468 53.1181C48.6399 52.5335 48.7797 52.3846 48.8108 52.3586L47.5305 50.8222ZM51.1924 73.8153C50.7592 74.2092 49.9987 74.532 48.5521 74.8025C47.1241 75.0696 45.2105 75.2576 42.6061 75.5106L42.7995 77.5012C45.3674 77.2518 47.3847 77.0555 48.9197 76.7684C50.4361 76.4848 51.6706 76.0835 52.5378 75.2952L51.1924 73.8153ZM42.6106 75.5102C41.0371 75.6559 39.7388 75.7128 38.9197 75.7128V77.7128C39.8149 77.7128 41.1766 77.6515 42.795 77.5016L42.6106 75.5102ZM72.0007 66.3545L61.3902 57.074L60.0735 58.5794L70.684 67.8599L72.0007 66.3545ZM52.729 35.717C52.6341 37.2673 52.6979 40.3159 54.2694 43.679L56.0813 42.8323C54.6973 39.8705 54.6428 37.1853 54.7253 35.8392L52.729 35.717ZM54.2686 43.6774C55.529 46.3872 57.2606 48.1485 58.3546 49.1174L59.6806 47.6202C58.7057 46.7567 57.1862 45.2077 56.0821 42.834L54.2686 43.6774ZM85.1986 74.4742C85.3563 74.2464 86.3104 72.8408 86.9592 70.8706C87.6059 68.9069 87.9871 66.2625 86.8269 63.6562L84.9998 64.4696C85.8789 66.4445 85.6247 68.529 85.0596 70.245C84.4966 71.9545 83.6626 73.1793 83.5542 73.3358L85.1986 74.4742ZM86.8275 63.6575C85.1448 59.8632 81.0906 58.1721 80.538 57.9395L79.7619 59.7828C80.3325 60.023 83.6672 61.4648 84.9992 64.4683L86.8275 63.6575ZM80.5527 57.9458C80.1225 57.7565 79.8796 57.6828 79.3425 57.5224C78.8148 57.3648 77.9511 57.1087 76.2324 56.5505L75.6146 58.4526C77.3539 59.0175 78.234 59.2786 78.7703 59.4388C79.2972 59.5961 79.4385 59.6406 79.7472 59.7764L80.5527 57.9458ZM76.2437 56.5542C74.1067 55.8318 73.0956 55.5243 72.2058 55.1799L71.4838 57.045C72.4265 57.4099 73.5434 57.7526 75.6033 58.4489L76.2437 56.5542ZM72.1959 55.1761C70.8011 54.653 68.1293 53.6182 65.0845 51.6649L64.0046 53.3483C67.2256 55.4147 70.0512 56.5078 71.4937 57.0488L72.1959 55.1761ZM65.0767 51.66C64.0824 51.035 62.7869 50.1149 61.3084 48.8973L60.037 50.4412C61.5733 51.7064 62.9377 52.6778 64.0124 53.3533L65.0767 51.66Z" fill="#98C9C0"/>
<defs>
<linearGradient id="paint0_linear" x1="60.5497" y1="91.5039" x2="92.7778" y2="91.5039" gradientUnits="userSpaceOnUse">
<stop stop-color="#3B8270"/>
<stop offset="1" stop-color="#305C6E"/>
</linearGradient>
<linearGradient id="paint1_linear" x1="26.9032" y1="91.4872" x2="59.5275" y2="91.4872" gradientUnits="userSpaceOnUse">
<stop stop-color="#4E7F98"/>
<stop offset="1" stop-color="#3BC0B5"/>
</linearGradient>
<linearGradient id="paint2_linear" x1="26.9032" y1="91.486" x2="59.5275" y2="91.486" gradientUnits="userSpaceOnUse">
<stop stop-color="#30435C"/>
<stop offset="1" stop-color="#299AA9"/>
</linearGradient>
<linearGradient id="paint3_linear" x1="60.7979" y1="91.501" x2="92.7776" y2="91.501" gradientUnits="userSpaceOnUse">
<stop stop-color="#2E2C29"/>
<stop offset="1" stop-color="#323232"/>
</linearGradient>
</defs>
</svg>
