<svg width="120" height="120" viewBox="0 0 120 120" fill="none" xmlns="http://www.w3.org/2000/svg">
<circle cx="60" cy="60" r="60" fill="white"/>
<path fill-rule="evenodd" clip-rule="evenodd" d="M60 0C26.856 0 0 26.856 0 60C0 93.144 26.856 120 60 120C93.144 120 120 93.144 120 60C120 26.856 93.144 0 60 0ZM32.916 44.49C32.916 37.074 38.928 31.104 46.392 31.104H77.136C80.652 31.104 84.03 32.484 86.538 34.95L70.806 42.864H49.146C46.704 42.864 44.76 44.628 44.76 46.752V56.382L32.958 62.532V44.49H32.916ZM77.088 77.91C84.462 77.91 90.474 71.94 90.474 64.524L90.468 43.812L78.714 49.734V61.5C78.714 63.672 76.68 65.436 74.238 65.436H48.33L32.91 73.482V93.378H37.524L41.55 93.288C43.272 92.88 44.718 91.296 44.718 89.352V77.91H77.088Z" fill="url(#paint0_linear)"/>
<defs>
<linearGradient id="paint0_linear" x1="0" y1="120" x2="120" y2="120" gradientUnits="userSpaceOnUse">
<stop stop-color="#B38C30"/>
<stop offset="1" stop-color="#F2DE98"/>
</linearGradient>
</defs>
</svg>
