<svg width="120" height="120" viewBox="0 0 120 120" fill="none" xmlns="http://www.w3.org/2000/svg">
<circle cx="60" cy="60" r="60" fill="#EDF0F4"/>
<path fill-rule="evenodd" clip-rule="evenodd" d="M94.1166 59.0401L91.9933 56.9104L60.3608 25L28.7169 56.9104L26 59.6502L26.9817 60.5021C28.089 61.4345 29.2306 62.3209 30.4064 63.1498C42.9178 72.0368 58.4316 74.719 72.7581 71.1849C78.6028 69.7575 84.1508 67.3055 89.1622 63.9441C90.4065 63.1152 91.6165 62.2173 92.8038 61.2734C93.4545 60.7438 94.0937 60.2028 94.7216 59.6502L94.1166 59.0401ZM77.6896 76.9868L60.3608 94.4616L51.7649 85.7933C61.0343 85.2407 69.9841 82.2016 77.6896 76.9868ZM37.3242 58.1882C48.3973 58.1422 59.2649 61.2158 68.7056 67.0637C74.7444 65.9816 80.5206 63.7138 85.6919 60.3985C69.459 50.9819 51.7535 51.8453 37.3242 58.1882Z" fill="#2B71FF"/>
</svg>
