<svg width="120" height="120" viewBox="0 0 120 120" fill="none" xmlns="http://www.w3.org/2000/svg">
<path d="M60 120C93.138 120 120 93.138 120 60C120 26.862 93.138 0 60 0C26.862 0 0 26.862 0 60C0 93.138 26.862 120 60 120Z" fill="#EDF0F4"/>
<path fill-rule="evenodd" clip-rule="evenodd" d="M53.8113 30.8293C54.4558 29.7227 56.0652 29.7238 56.7082 30.8311L65.5779 46.1073L73.4129 59.6007L90.1179 88.3706C90.7607 89.478 89.9555 90.8613 88.6677 90.8604L71.9273 90.8493L55.2197 90.8386L41.821 90.8295C40.5335 90.8285 39.7298 89.4445 40.3742 88.3381L46.8439 77.2299C47.143 76.7161 47.6953 76.4 48.2929 76.4004L63.4969 76.4105C64.6367 76.4111 65.3981 75.3274 65.1117 74.3102C65.0748 74.1783 65.0209 74.0478 64.9471 73.9207L63.6587 71.7015L56.6889 59.6981C56.0863 58.6604 54.6351 58.5942 53.9246 59.5007C53.877 59.5616 53.8326 59.6265 53.792 59.6962L52.7648 61.46L46.0475 72.9937C45.7484 73.5072 45.1959 73.8235 44.5985 73.8229L31.674 73.8144C30.3864 73.8134 29.5827 72.4294 30.2271 71.323L37.0682 59.577L53.8113 30.8293Z" fill="#7E1BCC"/>
</svg>
