<svg width="120" height="120" viewBox="0 0 120 120" fill="none" xmlns="http://www.w3.org/2000/svg">
<circle cx="60" cy="60" r="60" fill="#E84142"/>
<path fill-rule="evenodd" clip-rule="evenodd" d="M63.591 17.811C61.5123 14.2205 58.2052 14.2205 56.1264 17.811L18.3784 84.2835C16.2997 87.9213 18.0005 90.8031 22.1579 90.8031H41.1028C44.9296 90.5669 48.3784 88.5354 50.4571 85.3228L73.276 45.7795C74.9296 42.378 74.9296 38.3622 73.276 34.9606L66.4729 23.0079L63.591 17.811ZM88.6776 61.5591C86.5989 57.9685 83.2445 57.9685 81.1658 61.5591L67.9847 84.2835C65.9532 87.874 67.654 90.8032 71.7642 90.8032H97.843C102 90.8032 103.701 87.874 101.622 84.2835L88.6776 61.5591Z" fill="white"/>
</svg>
