<svg width="120" height="120" viewBox="0 0 120 120" fill="none" xmlns="http://www.w3.org/2000/svg">
<path d="M60 120C93.138 120 120 93.138 120 60C120 26.862 93.138 0 60 0C26.862 0 0 26.862 0 60C0 93.138 26.862 120 60 120Z" fill="#EDF0F4"/>
<path fill-rule="evenodd" clip-rule="evenodd" d="M58.5131 26.989C59.1636 25.6703 61.0439 25.6703 61.6942 26.989L71.9012 47.682L65.1852 60.5874L46.6885 50.9618L58.5131 26.989ZM63.4658 63.8912L45.0405 54.3025L31.1852 82.392C30.6039 83.5706 31.4616 84.9499 32.7757 84.9499H52.5066L63.4658 63.8912ZM56.7052 84.9499L66.7696 65.6105L85.5708 75.3948L89.0222 82.392C89.6035 83.5706 88.7458 84.9499 87.4317 84.9499H56.7052ZM68.4888 62.3068L73.9443 51.8238L82.7848 69.7464L68.4888 62.3068Z" fill="#1A45D5"/>
</svg>
