<svg width="120" height="120" viewBox="0 0 120 120" fill="none" xmlns="http://www.w3.org/2000/svg">
<path fill-rule="evenodd" clip-rule="evenodd" d="M60 0C93.132 0 120 26.868 120 60C120 93.132 93.132 120 60 120C26.868 120 0 93.132 0 60C0 26.868 26.868 0 60 0Z" fill="#0055D5"/>
<path fill-rule="evenodd" clip-rule="evenodd" d="M32.6399 39.696C32.6399 39.696 26.1839 34.536 25.7399 47.28C25.2959 57.156 25.3079 76.332 29.8799 85.392C31.8119 88.8 34.3919 87.756 39.1919 84.36C43.3679 81.276 58.4759 67.356 64.8719 61.248C71.2679 55.14 84.2399 37.62 86.9399 49.524C88.0079 54.528 89.3279 58.776 88.3199 69.876C88.0079 73.296 86.5439 75.888 79.8719 71.256C74.8319 68.016 70.0439 64.536 70.0439 64.536C70.0439 64.536 69.1199 62.88 66.9359 65.568C65.2199 67.716 64.3559 68.244 67.1039 69.876C69.8639 71.508 83.8199 81.132 89.1719 82.632C93.5879 83.916 96.1079 83.892 96.2399 75.216C96.2159 68.328 95.8199 48.612 93.3119 40.212C91.4159 34.98 88.6319 32.604 82.6199 38.484C76.6079 44.364 57.6479 62.748 47.2799 71.076C40.4039 76.236 37.4639 80.892 34.8719 72.288C33.0479 65.772 30.6839 45.492 38.1479 49.356C42.8159 51.588 45.1439 51.576 43.3199 52.98C41.4959 54.372 36.2519 59.184 36.2519 59.184C36.2519 59.184 34.6319 60.492 35.3879 63.324C36.1439 65.304 36.1439 66.288 40.2119 62.46C44.2799 58.632 47.2799 55.74 47.2799 55.74C47.2799 55.74 47.9279 54.72 49.8599 56.604C51.7919 58.488 52.1039 59.016 52.1039 59.016C52.1039 59.016 52.6199 60.42 54.6839 57.984C56.7599 55.548 58.0919 54.06 54.1679 51.78C50.2559 49.476 32.6399 39.696 32.6399 39.696Z" fill="white"/>
</svg>
