<svg width="120" height="120" viewBox="0 0 120 120" fill="none" xmlns="http://www.w3.org/2000/svg">
<circle cx="60" cy="60" r="60" fill="#EDF0F4"/>
<path fill-rule="evenodd" clip-rule="evenodd" d="M35 25.25V23H35.25H45.5C45.5 23 45.75 23 45.75 23.25V23.5L37.75 29.75H37.5L35 25.25ZM35 32.25C35 32.25 35 32.5 35.25 32.5V32.25L37 30.5V30.25L35.5 27.25C35.25 27.25 35.25 27 35.25 27L35 27.25V32.25ZM35 35.25V33.75L37 31.5L37.25 31.25C37.25 31.5 37.5 31.5 37.5 31.5L38.75 36C38.75 36 38.75 36.25 38.5 36.25L35.25 35.5C35.125 35.5 35.0625 35.5 35.0312 35.4688C35 35.4375 35 35.375 35 35.25ZM35 36.5V40.75C35 40.875 35 40.9375 35.0312 40.9688C35.0625 41 35.125 41 35.25 41L38.25 37.25C38.5 37.25 38.5 37 38.5 37C38.5 37 38.25 37 38.25 36.75L35.25 36.25H35V36.5ZM35 43.25V42.5V42.25L38.5 38H38.75V38.25L38.5 43.5V43.75L35.25 43.5C35.125 43.5 35.0625 43.5 35.0312 43.4688C35 43.4375 35 43.375 35 43.25ZM35 44.25V51C35 51 35 51.25 35.25 51.25L35.5 51L38.25 44.75V44.5L35.25 44.25H35ZM38.75 45.25L35.25 53V53.25H35.5L41.5 49.5C41.625 49.5 41.6875 49.5 41.7188 49.4688C41.75 49.4375 41.75 49.375 41.75 49.25L39 45.25V45C38.875 45 38.8125 45 38.7812 45.0312C38.75 45.0625 38.75 45.125 38.75 45.25ZM46.5 73.5L49 81.25C49 81.375 49 81.4375 49.0312 81.4688C49.0625 81.5 49.125 81.5 49.25 81.5V81.25V73.75L46.75 73.25H46.5V73.5ZM49 73L46.75 72.75C46.75 72.75 46.75 72.5 46.5 72.5L49 67C49 66.875 49 66.8125 49.0312 66.7812C49.0625 66.75 49.125 66.75 49.25 66.75V67V72.75V73H49ZM42 93.25L35.25 96.75V97C35.25 97 35.25 97.25 35.5 97.25L48.25 98C48.5 98 48.5 97.75 48.5 97.75V97.5L42.25 93.25H42ZM35 94.75V86V85.75H35.25L41.25 87.5C41.375 87.5 41.4375 87.5 41.4688 87.5312C41.5 87.5625 41.5 87.625 41.5 87.75L35.25 95C35.125 95 35.0625 95 35.0312 94.9688C35 94.9375 35 94.875 35 94.75ZM35 84.25V85L35.25 85.25L41.25 86.75C41.5 87 41.5 86.75 41.5 86.75V86.5L38.25 77.5V77.25C38.125 77.25 38.0625 77.25 38.0312 77.2812C38 77.3125 38 77.375 38 77.5L35 84.25ZM35 81.75V75.25V75H35.25L37.5 76.5V76.75L35.5 81.75H35.25H35ZM35 73V74V74.25L37.75 76C38 76 38 75.75 38 75.75L41.25 68.25V68H41L35 72.75V73ZM35 71.5V71L38.25 63H38.5L41.75 66.25V66.5L35.25 71.75H35V71.5ZM35 57.5V68.25C35 68.25 35 68.5 35.25 68.5L35.5 68.25L37.75 62.5V62.25L35.5 57.5L35.25 57.25C35 57.25 35 57.5 35 57.5ZM35.25 55.25L43 57.5L43.25 57.75L43 58L38.5 61.75H38.25V61.5L35 55.5C35 55.5 35 55.25 35.25 55.25ZM48.25 29.75L47 23.5H46.75H46.5L38.75 29.75V30H39H48H48.25V29.75ZM47.75 23H54.25H54.5V23.25L49.25 29.25C49.25 29.5 49 29.5 49 29.5L48.75 29.25L47.5 23.25C47.5 23.125 47.5 23.0625 47.5312 23.0312C47.5625 23 47.625 23 47.75 23ZM39.5 36L47.25 31V30.75H47H38V31L39.25 36C39.3867 36.1367 39.4486 36.1986 39.4767 36.1859C39.5 36.1753 39.5 36.1133 39.5 36ZM65 24.25L57.5 28.5H57.25L56 23.25V23H56.25L64.75 24H65V24.25ZM64 29.75L72.75 28.25V28V27.75L66.75 24.25H66.5C66.5 24.25 66.25 24.25 66.25 24.5L63.75 29.5V29.75C63.875 29.75 63.9375 29.8125 63.9688 29.8438C63.9801 29.8551 63.9873 29.8623 63.9919 29.8609C64 29.8585 64 29.8296 64 29.75ZM77.75 35.5L72.5 40.75H72.25C72 40.75 72 40.5 72 40.5L74.25 29.5H74.5L77.75 35.25V35.5ZM77 49.25L78.75 43.5L78 36.5C78 36.5 78 36.25 77.75 36.25V36.5L72 42C71.875 42.125 71.8125 42.1875 71.8125 42.25C71.8125 42.3125 71.875 42.375 72 42.5L76.5 49.5H76.75C76.75 49.5 77 49.5 77 49.25ZM71.5 55.5L69.75 50.25V50H70L75.75 50.5C76 50.5 76 50.75 76 50.75V51L71.75 55.5C71.75 55.5 71.75 55.75 71.5 55.5ZM62.75 49.25L70.25 55.25H70.5C70.75 55.25 70.75 55 70.75 55L69 50L63 49H62.75V49.25ZM69.75 49L71.5 43.25H71.75L76 49.75V50H75.75L70 49.5C70 49.25 69.75 49.25 69.75 49.25V49ZM66 40L69 48C69 48.25 69.25 48.25 69.25 48.25L69.5 48L71 42.5V42.25L66.25 39.75H66V40ZM71 41.5L65.75 38.75V38.5L73 30H73.25C73.25 30 73.5 30 73.5 30.25L71.25 41.5H71ZM62.25 39.25L63 42C63 42 63 42.25 63.25 42.25V42L64.5 39.5V39.25C64.5 39.125 64.5 39.0625 64.4688 39.0312C64.4375 39 64.375 39 64.25 39H62.5L62.25 39.25ZM65.25 40L68.75 49L68.5 49.25L61.75 48.25L61.5 48V47.75L63.25 43.75L65 40H65.25ZM63.5 30.75L65.25 37.75H65.5L73 29.25V29C73 28.75 72.75 28.75 72.75 28.75L63.75 30.5C63.625 30.5 63.5625 30.5 63.5312 30.5312C63.5 30.5625 63.5 30.625 63.5 30.75ZM62.5 38.5H62.25V38.25L63 33H63.25H63.5L64.75 38.25V38.5H64.5H62.5ZM57.75 29.75L59 35V35.25C59.125 35.25 59.1875 35.25 59.2188 35.2188C59.25 35.1875 59.25 35.125 59.25 35L62.25 30.75V30.5L58 29.5C57.875 29.5 57.8125 29.5 57.7812 29.5312C57.75 29.5625 57.75 29.625 57.75 29.75ZM62.5 32.25L61.75 37.75C61.75 37.75 61.75 38 61.5 38H61.25L59.5 36.25C59.25 36.25 59.25 36 59.5 36L62 32.25C62.125 32.25 62.1875 32.1875 62.2188 32.1563C62.2301 32.1449 62.2373 32.1377 62.2419 32.1391C62.25 32.1415 62.25 32.1704 62.25 32.25H62.5ZM58.5 29L62.75 30H63L65.25 25.25V25C65.25 24.75 65 24.75 65 24.75L58.5 28.75V29ZM55.5 23.75L56.75 28.75C56.75 28.75 56.5 28.75 56.5 29L50.25 29.75H50V29.5L55 23.5H55.25L55.5 23.75ZM41.25 36L49.25 34.75V34.5L48.75 31.25C48.5 31.25 48.5 31 48.5 31H48.25L41.25 35.75C41.125 35.75 41.0625 35.75 41.0312 35.7812C41 35.8125 41 35.875 41 36H41.25ZM49.75 31.5L53.75 34.5H54C54 34.75 53.75 34.75 53.75 34.75H50.25C50.125 34.75 50.0625 34.75 50.0312 34.7188C50 34.6875 50 34.625 50 34.5L49.25 31.75C49.25 31.5 49.5 31.5 49.5 31.5H49.75ZM49.5 49V37.5H49.25C49.25 37.25 49 37.5 49 37.5L46.75 43H46.5L49 49H49.25H49.5ZM56 34.75L57 31H57.25L58.5 35.5H58.25V35.75L56 35C56 35 55.75 34.75 56 34.75ZM56.5 29.5L50 30.5L49.75 30.75C49.75 30.75 50 30.75 50 31L55 34.5H55.25V34.25L56.75 29.75L56.5 29.5ZM61.25 48.75L68.75 54.75V55C68.75 55.125 68.75 55.1875 68.7188 55.2188C68.6875 55.25 68.625 55.25 68.5 55.25L58 51.5V51.25L60.75 48.75H61.25ZM58.5 57.25L57 52C57 51.75 56.75 51.75 56.75 51.75H51.25C51.25 51.75 51 51.75 51 52V52.25L58 57.5H58.25C58.5 57.5 58.5 57.25 58.5 57.25ZM58 52L69.25 56L69.5 56.25C69.5 56.375 69.5 56.4375 69.4688 56.4688C69.4375 56.5 69.375 56.5 69.25 56.5L59.5 58.25C59.25 58.25 59.25 58 59.25 58L57.75 52.25C57.75 52 58 52 58 52ZM72.5 62.5L71.25 57L71 56.75L61 58.5C61 58.5 60.75 58.5 60.75 58.75L61 59L72.25 62.75C72.5 62.75 72.5 62.5 72.5 62.5ZM77 59.5L73.5 62.5H73.25C73.125 62.5 73.0625 62.5 73.0312 62.4688C73 62.4375 73 62.375 73 62.25L72 57.5V57.25H72.25L77 59L77.25 59.25C77.25 59.25 77.25 59.5 77 59.5ZM74 63.25L81.75 64.75H82C82 64.625 82 64.5625 81.9688 64.5312C81.9375 64.5 81.875 64.5 81.75 64.5L78 59.75H77.75L74 62.75V63V63.25ZM85 73.25L81.25 74.5H81V74.25L82.75 67.25L83 67L83.25 67.25L85 73V73.25ZM79.5 82.75L83.75 83.25H84L85 75.5C85 75.375 85 75.3125 84.9688 75.2812C84.9375 75.25 84.875 75.25 84.75 75.25H84.5L79.5 82.25L79.25 82.5C79.5 82.5 79.5 82.75 79.5 82.75ZM79.25 89.75L79 83.5V83.25H79.25L83.5 84V84.25L79.75 89.75C79.5 89.75 79.5 90 79.5 90L79.25 89.75ZM70 88V88.25L70.5 95.25H70.75L78 91.5V91.25V91L70.25 88H70ZM63.25 97H63L56.5 92.75C56.375 92.75 56.3125 92.75 56.2812 92.7188C56.25 92.6875 56.25 92.625 56.25 92.5H56.5L68.25 95.75V96L63.25 97ZM53.5 91.75V92L50.5 97.5V97.75C50.5 97.875 50.5 97.9375 50.5312 97.9688C50.5625 98 50.625 98 50.75 98L61.5 97.25C61.5 97.25 61.75 97.25 61.75 97C61.75 97 61.75 96.75 61.5 96.75L53.75 91.75H53.5ZM57.25 58L45.25 57.25H45V57L49.5 52H50L57.5 57.75V58H57.25ZM42.75 50.5L44.25 56.5V56.75C44.375 56.75 44.4375 56.75 44.4688 56.7188C44.5 56.6875 44.5 56.625 44.5 56.5L49 52V51.75C49 51.75 49 51.5 48.75 51.5L43 50.25C43 50 42.75 50.25 42.75 50.25V50.5ZM49 64L43.25 66C43.125 66 43.0625 66 43.0312 65.9688C43 65.9375 43 65.875 43 65.75L44.25 58.75V58.5H44.5L49 63.75V64ZM57.5 58.75L45.25 58H45V58.25L49.75 63.75H50L57.5 59H57.75C57.75 58.75 57.5 58.75 57.5 58.75ZM59 59.25L60.5 63.5V63.75C60.25 63.75 60.25 64 60.25 64H51.75C51.5 64 51.5 63.75 51.5 63.75V63.5L58.75 59.25C58.75 59.125 58.75 59.0625 58.7812 59.0312C58.8125 59 58.875 59 59 59V59.25ZM70.25 62.75L60 59.25H59.75V59.5L61.25 63.75L70.25 63H70.5C70.5 62.875 70.5 62.8125 70.4688 62.7812C70.4375 62.75 70.375 62.75 70.25 62.75ZM71.5 64L66.75 67.75H66.5L62.25 64.75V64.5H62.5L71.25 63.75H71.5V64ZM77.5 74L67.75 69H67.5V69.25L69.25 73C69.25 73.25 69.5 73.25 69.5 73.25L77.25 74.25H77.5V74ZM69.75 74.5L77 81.75V82H76.75L68.5 80C68.5 80 68.25 80 68.25 79.75L69.5 74.5V74.25C69.5 74.25 69.75 74.25 69.75 74.5ZM69 86.5L67.75 81H67.5L63.75 83.5V83.75L68.75 86.75H69C69 86.625 69.0625 86.5625 69.0938 86.5312C69.1051 86.5199 69.1123 86.5127 69.1109 86.5081C69.1085 86.5 69.0796 86.5 69 86.5ZM63 84L66.75 86.25C67 86.25 67 86.5 67 86.5C66.875 86.5 66.8125 86.5625 66.7812 86.5938C66.7699 86.6051 66.7627 86.6123 66.7581 86.6109C66.75 86.6085 66.75 86.5796 66.75 86.5L59 85.25V85L62.75 84H63ZM53.5 90.25L55.75 85.75V85.5H55.5L50.75 85C50.625 85 50.5625 85 50.5312 85.0312C50.5 85.0625 50.5 85.125 50.5 85.25V85.5L53.25 90.25H53.5ZM73 64L79.25 73.75V74H79L67.5 68.25L67.25 68H67.5L72.75 63.75C72.75 63.75 73 63.75 73 64ZM82.5 65.5L74 63.75H73.75V64L80.25 74H80.5L82.5 65.75V65.5ZM80 75.5L78.5 81.75C78.5 81.875 78.5 81.9375 78.4688 81.9688C78.4375 82 78.375 82 78.25 82L70.5 74.25V74H70.75L79.75 75.25C80 75.25 80 75.5 80 75.5ZM79.75 80.75L84.25 74.5C84.3633 74.5 84.4253 74.5 84.4359 74.4767C84.4486 74.4486 84.3867 74.3867 84.25 74.25L80.75 75.25V75.5L79.5 80.5V80.75H79.75ZM68.75 80.75L77.25 82.75L77.5 83C77.5 83 77.5 83.25 77.25 83.25L70.25 87H70L69.75 86.75L68.5 81V80.75H68.75ZM78.75 90.5L78.25 83.75V83.5H78L71 87.25C70.875 87.25 70.8125 87.25 70.7812 87.2812C70.75 87.3125 70.75 87.375 70.75 87.5H71L78.5 90.75H78.75V90.5ZM67.25 87.75L54.5 90.75H54.25V90.5L56.5 85.75C56.5 85.5 56.75 85.5 56.75 85.5L67.25 87.25V87.5V87.75ZM41.75 50.25L35.5 54.25C35.375 54.25 35.3125 54.25 35.2812 54.2812C35.25 54.3125 35.25 54.375 35.25 54.5H35.5L43.25 57H43.5V56.75L42 50.5V50.25H41.75ZM42 65.5L38.75 62.5V62.25L43.25 58.5H43.5V58.75L42.25 65.5H42ZM46.25 71.75L49 65V64.75H48.75L43.25 66.5C43.125 66.5 43.0625 66.5 43.0312 66.5312C43 66.5625 43 66.625 43 66.75L45.75 71.75L46 72L46.25 71.75ZM42.75 67.5L45.5 72.5V72.75L38.75 76.25H38.5V76L42.25 67.5C42.25 67.5 42.5 67.5 42.5 67.25L42.75 67.5ZM46 74.5L42.75 86.5V86.75H43L49 84.5C49.125 84.5 49.1875 84.5 49.2188 84.4688C49.25 84.4375 49.25 84.375 49.25 84.25L46.25 74.5H46ZM48.25 86L43 91.75H42.75C42.5 91.75 42.5 91.5 42.5 91.5V87.75L42.75 87.5L48 85.75C48.25 85.5 48.25 85.75 48.25 85.75C48.5 85.75 48.5 86 48.25 86ZM50.5 96.25L53 91.5V91.25L50.25 86.5V86.25C50 86.25 50 86.5 50 86.5V96.25H50.25C50.25 96.5 50.5 96.25 50.5 96.25ZM49 97.25L43 93C42.75 93 42.75 92.75 42.75 92.75L49 86H49.25V86.25L49.5 97C49.5 97.125 49.5 97.1875 49.4688 97.2188C49.4375 97.25 49.375 97.25 49.25 97.25H49ZM42 92.5V88.75L41.75 88.5C41.75 88.5 41.5 88.5 41.5 88.75L35.5 95.5V95.75C35.625 95.75 35.6875 95.8125 35.7187 95.8438C35.7301 95.8551 35.7373 95.8623 35.7419 95.8609C35.75 95.8585 35.75 95.8296 35.75 95.75L41.75 92.75C41.875 92.75 41.9375 92.75 41.9688 92.7188C42 92.6875 42 92.625 42 92.5ZM69.5 95.5L55.25 91.5V91.25L69.25 88H69.5L69.75 95.25V95.5H69.5ZM45.25 73.75L39 77C39 77 38.75 77 39 77.25L42 85.75C42 85.75 42 86 42.25 86V85.75L45.5 74V73.75H45.25ZM49 35.75L46.25 42.25H46L40.25 37.25V37V36.75L48.75 35.5H49V35.75ZM39.5 43.25L40.75 42.25V42L39.75 39.5C39.75 39.375 39.75 39.3125 39.7188 39.2812C39.6875 39.25 39.625 39.25 39.5 39.25V39.5L39.25 43C39.25 43 39.25 43.25 39.5 43.25ZM40.5 38.25L44.75 42.25V42.5H44.5L41.5 42L40.25 38.5C40 38.5 40.25 38.25 40.25 38.25H40.5ZM42.75 48.25L45.5 43.5V43.25L41.75 42.75H41.5V43L42.25 48.25H42.5H42.75ZM48.75 51L43 49.5C42.8633 49.3633 42.8014 49.3014 42.8141 49.2733C42.8247 49.25 42.8867 49.25 43 49.25L46 44H46.25H46.5L49 50.75C49 50.875 49 50.9375 48.9688 50.9688C48.9375 51 48.875 51 48.75 51ZM39.25 44.5L41.25 47.25C41.25 47.375 41.25 47.4375 41.2812 47.4688C41.3125 47.5 41.375 47.5 41.5 47.5V47.25L41 43.25C41 43.25 41 43 40.75 43L39.5 44.25C39.375 44.25 39.3125 44.25 39.2812 44.2812C39.25 44.3125 39.25 44.375 39.25 44.5Z" fill="url(#paint0_linear)"/>
<defs>
<linearGradient id="paint0_linear" x1="85.1424" y1="96.4626" x2="82.3321" y2="21.7713" gradientUnits="userSpaceOnUse">
<stop stop-color="#11A1BC"/>
<stop offset="1" stop-color="#5FCEB4"/>
</linearGradient>
</defs>
</svg>
