<svg width="120" height="120" viewBox="0 0 120 120" fill="none" xmlns="http://www.w3.org/2000/svg">
<circle cx="60" cy="60" r="60" fill="#8DC351"/>
<path fill-rule="evenodd" clip-rule="evenodd" d="M79.5518 39.791C76.5487 32.3284 69.4162 31.9552 60.7822 33.4478L57.779 23L51.3974 24.8657L54.4005 34.9403C53.7922 35.0915 53.1223 35.3039 52.4157 35.5279C51.3781 35.8569 50.2616 36.2109 49.145 36.4328L46.1419 25.9851L39.7602 27.8507L42.7633 38.2985C42.0126 38.4851 41.3557 38.6716 40.6988 38.8582L40.6987 38.8582L40.6986 38.8582C40.0417 39.0448 39.3848 39.2313 38.634 39.4179L30 42.403L31.877 49.1194C31.877 49.1194 36.7571 47.6269 36.3817 47.6269C39.0094 46.8806 40.1356 48 40.8864 49.4925L44.2649 61.4328H45.0157L44.2649 61.806L49.145 78.597C49.145 79.3433 49.145 80.8358 47.2681 81.5821L42.7633 83.0746L43.5141 90.9104L51.7728 88.6716L56.2775 87.5522L59.2806 98L65.6623 96.1343L62.6591 85.6866C64.5361 85.3134 66.0377 84.9403 67.9146 84.194L70.9178 94.6418L77.2994 92.7761L74.2963 82.3284C84.8073 78.597 91.5644 73.7463 89.6874 63.2985C88.1858 55.0896 83.3057 52.4776 76.5487 52.8507C80.3026 49.1194 81.8042 45.3881 79.5518 39.791ZM77.2994 65.1642C79.2849 72.0716 68.727 75.2096 63.1115 76.8787L63.1113 76.8787C62.3566 77.103 61.6912 77.3008 61.1576 77.4776L57.0283 63.2985C57.6203 63.1514 58.3615 62.9334 59.2084 62.6843C64.805 61.038 75.0171 58.0341 77.2994 65.1642ZM56.198 56.6548C60.6862 55.387 70.3613 52.654 68.29 46.1343C66.5921 39.3833 57.2139 42.4038 52.6616 43.87C52.1816 44.0246 51.7554 44.1619 51.3974 44.2687L55.1513 56.9552C55.453 56.8652 55.8057 56.7656 56.198 56.6548Z" fill="white"/>
</svg>
