<svg width="120" height="120" viewBox="0 0 120 120" fill="none" xmlns="http://www.w3.org/2000/svg">
<circle cx="60" cy="60" r="60" fill="#13A0F6"/>
<path fill-rule="evenodd" clip-rule="evenodd" d="M26.0533 35.3416C26.0517 38.7338 27.9377 41.8466 30.9492 43.4223C28.0001 48.5407 26.4522 54.3428 26.4609 60.2464C26.4609 78.8892 41.5791 94 60.2305 94C78.8819 94 94 78.8854 94 60.2464C94 41.6074 78.8781 26.4928 60.2305 26.4928C54.2595 26.4842 48.3943 28.0649 43.24 31.0716C43.2291 27.2928 40.8775 23.9141 37.332 22.5833C33.7865 21.2524 29.7854 22.2465 27.2798 25.0807C24.7743 27.915 24.2861 31.9992 26.0533 35.3416ZM76.8397 60.2464C76.8397 69.4191 69.4033 76.8521 60.2305 76.8521C51.0577 76.8521 43.6213 69.4153 43.6213 60.2464C43.6213 51.0775 51.0577 43.6407 60.2305 43.6407C69.4033 43.6407 76.8397 51.0737 76.8397 60.2464Z" fill="white"/>
</svg>
