<svg width="120" height="120" viewBox="0 0 120 120" fill="none" xmlns="http://www.w3.org/2000/svg">
<circle cx="60" cy="60" r="60" fill="#EDF0F4"/>
<path fill-rule="evenodd" clip-rule="evenodd" d="M68.9085 31C72.2921 31.0005 75.6032 31.9803 78.4425 33.8212C81.2815 35.662 83.5271 38.2852 84.9081 41.3741C86.2892 44.463 86.7468 47.8856 86.2256 51.2289C85.7046 54.5721 84.2268 57.693 81.9712 60.2151C84.1948 62.7012 85.6628 65.7699 86.2032 69.061C86.7435 72.3522 86.3338 75.7295 85.0219 78.7959C83.7101 81.8623 81.5505 84.4907 78.797 86.3729C76.0433 88.2548 72.81 89.3122 69.4765 89.4208L68.9085 89.4302H46.074C44.8002 89.4302 43.7508 88.4673 43.6176 87.2309L43.6036 86.9598V67.8134H55.2896V76.648C55.2896 77.1856 55.6753 77.6343 56.1871 77.7255L56.3834 77.7442H68.9085C70.4275 77.7479 71.888 77.1599 72.9809 76.1051C74.0738 75.0501 74.7128 73.611 74.7625 72.0928C74.8126 70.5748 74.2692 69.097 73.248 67.9725C72.2267 66.8483 70.8078 66.1659 69.2918 66.0698L68.9085 66.0581H57.0425V54.3721H68.9085C70.4275 54.3758 71.888 53.7878 72.9809 52.7329C74.0738 51.678 74.7128 50.2389 74.7625 48.7208C74.8126 47.2027 74.2692 45.7249 73.248 44.6005C72.2267 43.4762 70.8078 42.7937 69.2918 42.6977L68.9085 42.686H56.3834C56.1274 42.6858 55.8795 42.7756 55.683 42.9396C55.4864 43.1037 55.3538 43.3316 55.3083 43.5835L55.2896 43.7822V52.6168H43.6036V33.4681C43.6036 32.1967 44.5665 31.1496 45.8029 31.014L46.0717 31H68.9085ZM54.3898 54.3721C54.8245 54.3721 55.1845 54.6806 55.2709 55.0896L55.2896 55.2719V65.1583C55.2895 65.3656 55.2178 65.5666 55.0866 65.7272C54.9555 65.8877 54.7729 65.9981 54.5698 66.0394L54.3898 66.0581H44.5034C44.2963 66.0586 44.0954 65.9873 43.9348 65.8567C43.7742 65.7258 43.6638 65.5435 43.6223 65.3406L43.6036 65.1606V55.2719C43.6036 54.8372 43.9121 54.4749 44.3211 54.3908L44.5011 54.3721H54.3875H54.3898ZM41.8483 54.3721V66.0534H39.5298C35.2644 65.7683 34 60.2151 34 60.2151C34 60.2151 35.1709 55.0639 39.0671 54.4282L39.5298 54.3721H41.8483ZM52.3751 56.8355H46.5157C46.4174 56.8353 46.3218 56.8673 46.2436 56.9269C46.1654 56.9865 46.1091 57.0702 46.0834 57.165L46.067 57.2842V63.1413C46.067 63.347 46.2072 63.5222 46.3942 63.5737L46.5157 63.59H52.3705C52.5785 63.59 52.7514 63.4498 52.8052 63.2628L52.8215 63.1413V61.4468H50.3418C50.0346 61.4456 49.7389 61.3299 49.5125 61.1224C49.2862 60.9146 49.1453 60.6302 49.1175 60.3242C49.0898 60.0183 49.1771 59.7131 49.3624 59.4681C49.5478 59.2232 49.8178 59.0563 50.1197 58.9997L50.3418 58.9811H52.8239V57.2842C52.8239 57.2251 52.8122 57.1667 52.7895 57.112C52.7668 57.0573 52.7335 57.0077 52.6916 56.9661C52.6497 56.9243 52.5999 56.8914 52.5452 56.8689C52.4905 56.8465 52.4343 56.8353 52.3751 56.8355ZM66.7513 58.7356C66.36 58.7356 65.9852 58.8911 65.7084 59.1676C65.4319 59.4443 65.2765 59.8192 65.2765 60.2104C65.2765 60.6017 65.4319 60.9766 65.7084 61.2533C65.9852 61.5298 66.36 61.6852 66.7513 61.6852C67.1425 61.6852 67.5174 61.5298 67.7942 61.2533C68.0706 60.9766 68.2261 60.6017 68.2261 60.2104C68.2261 59.8192 68.0706 59.4443 67.7942 59.1676C67.5174 58.8911 67.1425 58.7356 66.7513 58.7356ZM61.3851 58.7356C61.1913 58.7354 60.9992 58.7735 60.8202 58.8476C60.6411 58.9217 60.4782 59.0301 60.341 59.1671C60.0641 59.4436 59.9082 59.8189 59.9079 60.2104C59.9077 60.6019 60.0629 60.9775 60.3394 61.2545C60.6159 61.5314 60.9912 61.6873 61.3827 61.6875C61.7742 61.6878 62.1498 61.5326 62.4268 61.2561C62.7037 60.9796 62.8596 60.6042 62.8598 60.2128C62.8601 59.8213 62.7049 59.4457 62.4284 59.1687C62.1519 58.8918 61.7765 58.7359 61.3851 58.7356Z" fill="#FCB251"/>
</svg>
