<svg width="120" height="120" viewBox="0 0 120 120" fill="none" xmlns="http://www.w3.org/2000/svg">
<circle cx="60.0002" cy="60" r="56.6667" fill="white"/>
<path fill-rule="evenodd" clip-rule="evenodd" d="M60 120C26.8633 120 0 93.1367 0 60C0 26.8633 26.8633 0 60 0C93.1367 0 120 26.8633 120 60C120 93.1367 93.1367 120 60 120ZM67.0467 90.63C80.4967 90.63 89.5333 82.4267 89.48 70.3033C89.48 65.86 88.08 61.7867 85.5867 58.86L85.64 58.8067C88.13 55.88 89.5333 51.8067 89.5333 47.4167C89.5333 35.2433 80.5 27.04 67.0467 27.04H48.1433L44.4033 48.4067H30.7467L29.4467 55.6733H43.1067L42.0167 61.9933H28.3567L27.0567 69.26H40.7167L36.9767 90.5767L67.0467 90.63ZM45.6006 83.26L45.6 83.2633V83.26H45.6006ZM45.6006 83.26L48.09 69.2567H56.19C70.0067 69.2567 76.9667 68.6833 81.4833 65.9133C82.0033 67.1667 82.2633 68.68 82.2633 70.25C82.2633 78.2967 76.4467 83.3133 67.0467 83.3133L45.6006 83.26ZM49.3367 61.9433L49.3373 61.94H56.1933C71.0467 61.94 76.3433 61.21 78.7833 58.8067C75.5633 56.6133 71.5133 55.6733 56.1933 55.6733H50.48L49.3373 61.94H49.3333L49.3367 61.9433ZM54.22 34.25L51.7267 48.3567H56.1933C70.5267 48.3567 76.6033 49.14 81.43 51.8567C82.0033 50.5533 82.2633 48.9833 82.2633 47.3133C82.2633 39.11 76.55 34.25 67.0467 34.25H54.22Z" fill="#E83355"/>
</svg>
