<svg width="120" height="120" viewBox="0 0 120 120" fill="none" xmlns="http://www.w3.org/2000/svg">
<path d="M60 120C93.138 120 120 93.138 120 60C120 26.862 93.138 0 60 0C26.862 0 0 26.862 0 60C0 93.138 26.862 120 60 120Z" fill="#EDF0F4"/>
<path fill-rule="evenodd" clip-rule="evenodd" d="M41.9189 44.6541H31.3295C31.3277 44.6799 31.3244 44.7005 31.3217 44.7174C31.3177 44.7427 31.315 44.7597 31.3204 44.7735C31.3431 44.8469 31.3703 44.9158 31.402 44.9801C32.104 46.3343 33.1095 47.335 34.586 47.7894C35.1205 47.9547 35.4874 48.2714 35.5145 48.882C35.5176 48.9615 35.5165 49.0411 35.5155 49.1207C35.515 49.1604 35.5145 49.2002 35.5145 49.24V61.8454C35.5145 63.3832 36.0852 64.641 37.3263 65.5545C38.1506 66.165 39.0972 66.3578 40.1027 66.3533C42.245 66.3486 44.3828 66.3486 46.5207 66.3486C47.1683 66.3486 47.8024 66.2614 48.4003 65.986C49.7092 65.3801 50.5472 64.3839 50.8642 62.9517C50.9904 62.376 50.9751 61.7963 50.9597 61.2166C50.9519 60.9226 50.9441 60.6286 50.9548 60.3351C50.9593 60.1745 50.8552 60.1148 50.7102 60.0735C48.826 59.518 47.2408 58.4439 45.882 57.0438C44.7905 55.9191 43.9299 54.6108 43.2777 53.1694C42.5575 51.5812 42.0865 49.9148 41.9461 48.175C41.893 47.5224 41.9024 46.8675 41.9118 46.212C41.9161 45.9177 41.9203 45.6233 41.9189 45.329V44.6541ZM38.839 55.4831C38.069 55.4693 37.5119 54.8771 37.5165 54.0783C37.444 53.2475 38.1959 52.6875 38.8481 52.692C39.618 52.6966 40.2386 53.3347 40.225 54.1151C40.2114 54.8725 39.5773 55.4968 38.839 55.4831Z" fill="white"/>
<path d="M49.2428 54.1013C49.2337 54.7806 48.6404 55.3866 47.9837 55.382C47.3043 55.382 46.6883 54.7439 46.7064 54.0645C46.7246 53.3852 47.3179 52.7792 47.9746 52.7884C48.6585 52.7975 49.3153 53.4402 49.2428 54.1013Z" fill="white"/>
<path d="M37.5165 54.0783C37.4486 53.2474 38.1959 52.6874 38.8481 52.692C39.6181 52.6966 40.2386 53.3392 40.225 54.115C40.2115 54.8725 39.5773 55.4968 38.8391 55.483C38.0691 55.4692 37.5075 54.877 37.5165 54.0783Z" fill="black"/>
<path fill-rule="evenodd" clip-rule="evenodd" d="M89.2456 68.5245H89.2183C89.2183 68.5245 89.2165 68.5263 89.2129 68.5288L89.2092 68.5312L89.2049 68.5337C88.8787 68.5245 88.5748 68.4832 88.2492 68.3225C88.2492 68.3179 88.2492 68.3133 88.2442 68.3088C87.8276 67.8864 87.7507 67.3677 87.7552 66.7985C87.7687 63.9443 87.7643 61.0858 87.76 58.2313V58.2307V58.2301V58.2294V58.2288L87.7596 57.9802C87.7552 55.5427 85.8304 53.3117 83.4525 52.9858C83.4153 52.9795 83.3781 52.984 83.3251 52.9903C83.3005 52.9933 83.2725 52.9966 83.2396 52.9995C83.267 53.042 83.2904 53.0804 83.3118 53.1155L83.3118 53.1156L83.3119 53.1157C83.3506 53.1793 83.3829 53.2323 83.4207 53.2796C84.6255 54.776 85.2957 56.4883 85.2689 58.43C85.2562 59.3583 85.2005 60.2888 85.1448 61.2184C85.1198 61.6357 85.0948 62.0529 85.0738 62.4697C85.0392 63.1438 85.0071 63.8171 84.9749 64.49C84.9314 65.4024 84.8879 66.3139 84.8385 67.2254C84.7928 68.0775 84.7423 68.9279 84.6917 69.7787C84.657 70.3625 84.6223 70.9465 84.5892 71.5312C84.5666 71.9374 84.5474 72.3447 84.5282 72.752V72.7521V72.7522V72.7522V72.7523C84.5089 73.1597 84.4897 73.5671 84.4671 73.9734L84.2363 78.192C84.2174 78.552 84.198 78.9119 84.1786 79.2719L84.1786 79.2723L84.1786 79.2728L84.1785 79.2732L84.1785 79.2736C84.1374 80.0378 84.0963 80.8019 84.0595 81.566C84.0188 82.4657 83.2351 83.2645 82.3473 83.269C80.137 83.2782 77.9222 83.2782 75.7119 83.269C74.9057 83.2645 74.1765 82.5988 74.0135 81.7909C73.8419 80.9569 73.6592 80.1252 73.4763 79.2925C73.3984 78.9382 73.3206 78.5836 73.2435 78.2287L73.2064 78.0583C73.083 77.4915 72.9602 76.9279 72.8449 76.3604C72.7996 76.1217 72.7 76.0069 72.4373 76.0069C67.8809 76.0161 63.3244 76.0161 58.768 76.0161C58.7455 76.0161 58.7253 76.023 58.685 76.0368L58.6849 76.0368L58.6655 76.0434C58.6531 76.0476 58.6391 76.0523 58.623 76.0575C58.514 76.5501 58.4027 77.0428 58.2914 77.5355C58.1807 78.0252 58.0701 78.5148 57.9617 79.0045C57.8859 79.3513 57.8118 79.6975 57.7377 80.0433C57.604 80.6679 57.4705 81.2914 57.3276 81.9148C57.1465 82.6952 56.4671 83.2645 55.6835 83.269C53.4732 83.2828 51.2584 83.2828 49.0481 83.269C48.0834 83.2598 47.3316 82.4428 47.2998 81.3961C47.284 80.871 47.2761 80.3447 47.2682 79.8184C47.2602 79.2912 47.2523 78.764 47.2364 78.2379C47.2109 77.3659 47.1764 76.4922 47.142 75.6188L47.142 75.6181L47.142 75.6177C47.1215 75.0984 47.101 74.5792 47.0824 74.0606C47.0643 73.6021 47.0474 73.1424 47.0304 72.6828L47.0304 72.6824L47.0304 72.6821L47.0304 72.6818L47.0304 72.6814C47.0134 72.2212 46.9964 71.7609 46.9783 71.3017L46.9783 71.3017C46.9828 71.2695 46.9873 71.2374 46.9828 71.2007C46.9647 70.962 46.9601 70.7187 46.9601 70.48C46.9601 70.4387 46.9511 70.3974 46.942 70.3607C46.942 70.0347 46.7971 69.6721 46.6703 69.4058C46.4347 68.9101 46.0452 68.676 45.5153 68.6576H45.4881C45.4247 68.6484 45.3659 68.6439 45.3025 68.6439V68.6301H41.208C41.1129 68.6301 41.0223 68.6347 40.9272 68.6439C40.8618 68.6439 40.7962 68.6437 40.7305 68.6435C40.4684 68.6427 40.2041 68.642 39.9398 68.653C39.8854 68.6484 39.8311 68.6484 39.7767 68.6484C39.582 68.6392 39.3872 68.6301 39.1879 68.6255C39.1472 68.6117 39.1019 68.6025 39.0475 68.6025C39.0461 68.6025 39.0446 68.6024 39.0432 68.6022L39.0409 68.6019L39.0371 68.601L39.0339 68.6002C39.0315 68.5996 39.029 68.599 39.0265 68.5985C39.0245 68.5982 39.0224 68.5979 39.0204 68.5979C38.9841 68.5796 38.9434 68.5704 38.898 68.5658C38.8905 68.5632 38.8826 68.5603 38.8745 68.5574C38.8536 68.5497 38.8316 68.5416 38.812 68.5383L38.7973 68.5321C38.781 68.5252 38.7661 68.5189 38.7486 68.5153C38.7033 68.4877 38.649 68.4694 38.581 68.4556C35.9721 67.9231 34.3008 66.3349 33.5399 63.7688C33.3905 63.25 33.3406 62.6854 33.3361 62.1437C33.318 58.2051 33.3225 54.2711 33.3361 50.3371C33.3406 49.9148 33.2365 49.699 32.8379 49.497C30.8948 48.5147 29.6357 46.9126 28.9608 44.8377C28.825 44.42 28.6981 43.9839 28.6664 43.5478C28.6121 42.8317 29.0741 42.3818 29.7852 42.3772C31.2934 42.3635 32.8017 42.3543 34.3099 42.3451H34.79C34.7935 42.2802 34.7983 42.2193 34.8029 42.1609V42.1609V42.1609L34.8029 42.1609C34.8103 42.0665 34.8172 41.9786 34.8172 41.8906C34.8217 41.1607 34.8262 40.4309 34.8172 39.7056C34.8036 38.4248 35.5645 37.2589 36.7467 36.8641C38.6897 36.2168 40.515 37.571 40.5875 39.4944C40.6062 40.0247 40.6013 40.5572 40.5964 41.0889L40.5964 41.0891C40.5942 41.3305 40.592 41.5718 40.592 41.8126V42.3176H45.8731C45.8763 42.2614 45.88 42.2058 45.8837 42.1506C45.8906 42.0478 45.8974 41.9463 45.9003 41.8447C45.9056 41.5856 45.9081 41.3264 45.9107 41.0673L45.9107 41.067L45.9107 41.0666L45.9107 41.0663L45.9108 41.066V41.0659C45.917 40.4353 45.9233 39.8053 45.9683 39.1777C46.0543 38.0301 47.0508 36.9926 48.1695 36.7631C49.7774 36.4372 51.195 37.4287 51.5619 38.7967C51.6479 39.1042 51.6706 39.4393 51.6796 39.7607C51.6893 40.2694 51.6875 40.7805 51.6857 41.2906V41.2911V41.2915V41.292V41.2925C51.6849 41.4952 51.6842 41.6977 51.6842 41.8998C51.6842 41.9853 51.6902 42.0727 51.6969 42.1703L51.6969 42.1705C51.7002 42.2196 51.7038 42.2714 51.7068 42.3267C51.7558 42.3295 51.8032 42.3327 51.8493 42.3357C51.9566 42.3429 52.057 42.3497 52.1552 42.3497C52.9094 42.3566 53.6635 42.3612 54.4176 42.3657H54.4176H54.4177H54.4177H54.4178C55.1718 42.3703 55.9259 42.3749 56.68 42.3818C57.468 42.3864 57.8666 42.7995 57.8394 43.6029C57.8168 44.3006 57.5677 44.9433 57.296 45.563C56.5396 47.2798 55.3801 48.634 53.7043 49.497C53.6136 49.5429 53.5185 49.5842 53.4234 49.621C53.1834 49.7174 53.0701 49.8735 53.1698 50.1718L53.1773 50.1736C53.2529 50.1916 53.345 50.2136 53.437 50.2269C53.4823 50.233 53.5316 50.231 53.5809 50.229C53.6056 50.2279 53.6302 50.2269 53.6544 50.2269C56.1 50.2324 58.5457 50.2364 60.991 50.2405C64.6685 50.2465 68.3454 50.2526 72.0206 50.2637C75.5942 50.2728 79.1677 50.282 82.7413 50.3187C86.0657 50.3509 88.9054 52.5313 89.9113 55.6207C90.1968 56.4929 90.2916 57.388 90.2961 58.2924C90.3048 60.0507 90.3043 61.8108 90.3039 63.5705V63.5706V63.5707V63.5707V63.5708C90.3036 64.6179 90.3033 65.6649 90.305 66.7112L90.305 66.7394C90.3051 67.3356 90.3053 67.9205 89.7212 68.3317L89.7301 68.3409C89.6799 68.3592 89.6348 68.3868 89.5985 68.4281C89.5355 68.4556 89.463 68.4832 89.395 68.5015C89.3493 68.5061 89.3041 68.5107 89.2634 68.5199C89.2624 68.5209 89.2612 68.5217 89.2599 68.5223C89.2581 68.5231 89.2561 68.5237 89.2541 68.524C89.2509 68.5245 89.2477 68.5245 89.2456 68.5245ZM48.7628 38.9344C48.4322 38.9619 48.1241 39.2511 48.1196 39.6092C48.1081 40.1718 48.1094 40.7345 48.1107 41.309V41.309V41.309V41.309V41.3091C48.1115 41.6391 48.1122 41.973 48.1106 42.3129H49.4422C49.4422 42.0393 49.4437 41.7678 49.4452 41.498V41.4976V41.4973V41.4969V41.4965C49.4489 40.8256 49.4525 40.1646 49.4331 39.5036C49.4241 39.1685 49.0617 38.9114 48.7628 38.9344ZM47.9792 52.7884C48.6632 52.7976 49.3154 53.4402 49.2475 54.1013C49.2384 54.7807 48.645 55.3866 47.9883 55.382C47.3089 55.382 46.6929 54.7439 46.711 54.0645C46.7246 53.3852 47.3225 52.7792 47.9792 52.7884ZM37.1181 39.3246C37.0547 39.4669 37.032 39.6367 37.032 39.7974C37.0275 40.5502 37.0275 41.3031 37.0365 42.0605C37.0365 42.12 37.0492 42.1774 37.063 42.24C37.0694 42.2691 37.0761 42.2993 37.0818 42.3313H38.3273C38.3373 42.2979 38.3466 42.2711 38.3544 42.2486L38.3544 42.2485L38.3544 42.2485C38.3681 42.2094 38.3772 42.1831 38.3772 42.1569C38.3772 41.8752 38.3787 41.594 38.3802 41.313V41.3129V41.3129C38.3832 40.7513 38.3863 40.1905 38.3772 39.6275C38.3727 39.2741 38.119 39.0032 37.802 38.939C37.571 38.8977 37.2313 39.0675 37.1181 39.3246ZM48.405 65.986C47.8071 66.2614 47.173 66.3486 46.5253 66.3486C44.3875 66.3486 42.2497 66.3486 40.1074 66.3532C39.1019 66.3578 38.1553 66.165 37.3309 65.5545C36.0899 64.641 35.5192 63.3832 35.5192 61.8454V49.2399C35.5192 49.2002 35.5197 49.1604 35.5202 49.1206C35.5212 49.041 35.5222 48.9615 35.5192 48.8819C35.492 48.2714 35.1252 47.9547 34.5907 47.7894C33.1142 47.3349 32.1087 46.3342 31.4066 44.98C31.3749 44.9157 31.3478 44.8469 31.3251 44.7734C31.3197 44.7597 31.3224 44.7426 31.3264 44.7173C31.3291 44.7004 31.3324 44.6798 31.3342 44.6541H41.9236V45.3289C41.925 45.6231 41.9208 45.9173 41.9165 46.2113V46.2114C41.9071 46.8671 41.8976 47.5221 41.9508 48.175C42.0912 49.9148 42.5622 51.5811 43.2824 53.1694C43.9346 54.6108 44.7952 55.9191 45.8867 57.0437C47.2455 58.4438 48.8307 59.518 50.7149 60.0735C50.8599 60.1148 50.964 60.1744 50.9595 60.3351C50.9488 60.6286 50.9566 60.9226 50.9644 61.2166C50.9798 61.7963 50.9951 62.376 50.8689 62.9517C50.5519 64.3839 49.7139 65.38 48.405 65.986ZM82.5959 62.0191C82.6438 61.0461 82.6916 60.0732 82.7549 59.1003C82.8772 57.2549 82.2613 55.7034 80.984 54.3813C80.5945 53.9819 80.214 53.5688 79.8472 53.1465C79.6615 52.9307 79.4621 52.8343 79.1678 52.8343C78.7352 52.8343 78.3027 52.8354 77.8701 52.8366C77.4376 52.8377 77.005 52.8389 76.5725 52.8389V52.7563H59.1982V52.7608H53.7269H53.4189C53.2196 52.7608 53.129 52.8618 53.1335 53.0638C53.1366 53.1434 53.1355 53.2229 53.1345 53.3025C53.134 53.3423 53.1335 53.3821 53.1335 53.4218C53.1335 54.1772 53.1341 54.9322 53.1347 55.6871C53.1364 57.9464 53.1381 60.2045 53.1245 62.4651C53.1245 62.9792 53.0566 63.5117 52.9026 63.9983C52.4043 65.5866 51.426 66.8123 50.0083 67.6615C49.7774 67.8038 49.6958 67.9552 49.7004 68.2261C49.7185 69.2099 49.725 70.1965 49.7315 71.1815C49.7331 71.4283 49.7348 71.6749 49.7366 71.9214C49.7456 73.31 49.7536 74.6974 49.7615 76.0848C49.7694 77.4724 49.7773 78.8599 49.7864 80.2485C49.7864 80.7168 49.8045 80.7305 50.2484 80.7305H54.5105C54.966 80.7305 54.9679 80.7216 55.0678 80.2636L55.0721 80.2439C55.2985 79.2203 55.5296 78.192 55.7651 77.1683C55.8341 76.8681 55.9035 76.5681 55.9728 76.2684C56.1537 75.4866 56.3343 74.7059 56.5078 73.9229C56.6029 73.4914 56.6211 73.4547 57.0423 73.4547H74.403C74.4984 73.4547 74.5938 73.465 74.6949 73.476C74.7283 73.4797 74.7622 73.4834 74.797 73.4868C75.0693 74.6163 75.3209 75.7448 75.5716 76.869C75.8589 78.1573 76.1449 79.4399 76.4593 80.7121H81.5818C81.6304 79.9211 81.6746 79.1736 81.7187 78.4272L81.7223 78.3665C81.7947 77.1408 81.8672 75.9105 81.9351 74.6849C82.0439 72.6605 82.1525 70.6315 82.2567 68.6025C82.3023 67.7087 82.349 66.8149 82.3957 65.921C82.4419 65.0383 82.488 64.1557 82.533 63.273C82.5548 62.855 82.5754 62.437 82.5959 62.0191Z" fill="black"/>
<path fill-rule="evenodd" clip-rule="evenodd" d="M89.2546 69.2178H89.2635L90.7584 68.1896C91.0121 67.6939 91.0121 67.1522 91.0121 66.7023V63.4522C91.0165 61.7308 91.0165 60.0048 91.0076 58.2834C91.0032 57.1955 90.8626 56.2544 90.5861 55.4006C89.4765 51.9807 86.3379 49.6579 82.7777 49.6258C79.3808 49.5937 76.0337 49.5799 72.0524 49.5707C67.7768 49.5615 63.4966 49.5524 59.221 49.5477L54.9726 49.5386C56.2498 48.648 57.2463 47.4086 57.9347 45.8341C58.211 45.2006 58.51 44.4569 58.5371 43.6169C58.5552 43.0247 58.4012 42.5519 58.0751 42.2076C57.749 41.8633 57.2915 41.6843 56.7073 41.6797C55.806 41.6705 54.9092 41.6659 54.0078 41.6614L52.3818 41.6522V41.1793C52.3818 40.6973 52.3818 40.2153 52.3728 39.7333C52.3592 39.2743 52.3184 38.9254 52.2324 38.6041C51.7522 36.8046 49.9179 35.6937 48.0519 36.0747C46.5935 36.3731 45.4113 37.6814 45.3071 39.1136C45.2618 39.7425 45.2528 40.3714 45.2482 40.9774C45.246 41.0852 45.2448 41.192 45.2437 41.2987C45.2426 41.4054 45.2415 41.5122 45.2392 41.62H41.2942C41.2942 41.5305 41.2953 41.441 41.2965 41.3515C41.2976 41.262 41.2987 41.1724 41.2987 41.0829L41.3005 40.891C41.305 40.4222 41.3096 39.9383 41.2896 39.4579C41.2444 38.3149 40.6963 37.2866 39.7814 36.644C38.8529 35.9921 37.6799 35.8314 36.5566 36.2033C35.1027 36.6853 34.1425 38.0945 34.1606 39.7058C34.1651 40.3117 34.1651 40.9131 34.1606 41.5144V41.6476L33.1596 41.6522C32.0364 41.6567 30.9176 41.6659 29.7989 41.6751C29.2463 41.6797 28.7617 41.8817 28.4356 42.2397C28.1186 42.5886 27.9691 43.066 28.0053 43.5847C28.0416 44.0989 28.1865 44.5901 28.3314 45.0399C29.0878 47.3627 30.51 49.0658 32.5527 50.0986C32.5973 50.1225 32.6267 50.1403 32.6444 50.151L32.6444 50.151C32.6573 50.1588 32.664 50.1629 32.6659 50.1629C32.6659 50.1666 32.6666 50.1728 32.6676 50.1818C32.6702 50.2056 32.675 50.249 32.675 50.319C32.6569 54.3907 32.6569 58.3614 32.675 62.1302C32.6795 62.828 32.7565 63.4247 32.9105 63.948C33.753 66.7941 35.6236 68.5293 38.4317 69.0939L38.7351 69.2225L39.1881 69.2959C39.3352 69.2994 39.4823 69.3055 39.645 69.3122L39.8086 69.3189C39.8318 69.3189 39.8526 69.3201 39.8729 69.3212L39.873 69.3213H39.8731H39.8731H39.8732H39.8733H39.8733H39.8734H39.8734C39.8925 69.3224 39.9112 69.3234 39.9309 69.3234H39.9581H39.9852C40.266 69.3142 40.5469 69.3142 40.8277 69.3142H40.9454L41.0134 69.3097C41.0768 69.3051 41.1447 69.3005 41.2262 69.3005H44.6821L45.3026 69.3142C45.3473 69.3142 45.392 69.3188 45.4367 69.3233L45.4368 69.3233L45.4385 69.3234L45.5109 69.328C45.8053 69.3418 45.9593 69.4382 46.0771 69.6861C46.2447 70.0488 46.2809 70.2416 46.2809 70.3425V70.4435L46.2991 70.5078C46.2991 70.7235 46.3036 70.9531 46.3217 71.1964L46.3126 71.2285L46.4711 75.4058C46.4804 75.6504 46.4901 75.8947 46.4997 76.1388C46.5275 76.8429 46.5551 77.5451 46.5753 78.2473C46.5889 78.7798 46.598 79.3077 46.607 79.8402C46.6161 80.3635 46.6251 80.8822 46.6387 81.4056C46.6795 82.8194 47.7439 83.9349 49.0619 83.9441C50.1217 83.9487 51.1997 83.9533 52.3139 83.9533C53.3683 83.9533 54.4523 83.949 55.5863 83.9445L55.7063 83.9441C56.7888 83.9349 57.7535 83.1453 58.0072 82.0574C58.1431 81.4606 58.2744 80.8593 58.4012 80.2625C58.4422 80.0755 58.4832 79.8874 58.5242 79.6992C58.5647 79.5133 58.6053 79.3273 58.6458 79.1424C58.7949 78.4602 58.9485 77.7825 59.1021 77.1048L59.1033 77.0997L59.1938 76.6912H62.1333C65.4986 76.6912 68.8638 76.6912 72.2382 76.6865C72.3287 77.118 72.4193 77.5496 72.5144 77.9811L72.8451 79.5005C72.8799 79.6598 72.9149 79.819 72.9499 79.9783L72.9504 79.9805L72.9509 79.9828L72.9511 79.9839C73.0933 80.6306 73.2354 81.2775 73.3659 81.9243C73.6014 83.0719 74.616 83.9441 75.7257 83.9487C77.936 83.9578 80.1508 83.9578 82.3656 83.9487C83.602 83.9441 84.698 82.8653 84.7571 81.5937C84.7957 80.7851 84.8383 79.9807 84.881 79.1725V79.1724L84.881 79.1719L84.8811 79.1714L84.8811 79.1709L84.8811 79.1704L84.8812 79.1695L84.8812 79.1681L84.8813 79.1667L84.8882 79.0368L85.0287 76.4478L85.0369 76.3004C85.0793 75.5366 85.122 74.7691 85.1603 74.0057L85.1743 73.7157L85.1868 73.4606L85.1873 73.4503L85.1878 73.44C85.1967 73.2586 85.2056 73.0773 85.2143 72.8948C85.2222 72.7428 85.2294 72.5914 85.2366 72.44L85.2366 72.4399L85.2366 72.4396L85.2366 72.4394L85.2366 72.4391L85.2366 72.4388L85.2366 72.4385L85.2367 72.4381L85.2367 72.4377L85.2367 72.4372C85.2506 72.1463 85.2644 71.8559 85.2824 71.5636L85.3911 69.7228C85.4137 69.312 85.4375 68.9011 85.4614 68.4903L85.4616 68.4863L85.4616 68.4861L85.4616 68.4859C85.4854 68.0765 85.5091 67.6671 85.5316 67.2577C85.5857 66.2249 85.6359 65.1874 85.6855 64.1546L85.7669 62.502L85.7738 62.3735C85.7943 61.9894 85.8148 61.6053 85.8394 61.2213C85.894 60.3078 85.9481 59.3714 85.9621 58.4349C85.9799 56.9338 85.6175 55.5108 84.8792 54.1933C86.179 54.9645 87.0895 56.4243 87.0895 57.9713V58.9306L87.0895 58.9358V58.9359V58.936V58.9361V58.9362V58.9363V58.9364V58.9365V58.9366C87.094 61.5558 87.0984 64.1704 87.085 66.7895C87.085 67.3909 87.1531 68.0749 87.651 68.6579L87.6922 68.8047L87.9593 68.9379C88.4165 69.1628 88.8381 69.2041 89.1866 69.2178H89.2457H89.2546ZM47.8118 75.3553L47.6623 71.3295C47.6669 71.2652 47.6714 71.1964 47.6669 71.1229C47.6442 70.9072 47.6442 70.6823 47.6442 70.4665V70.4665C47.6442 70.4022 47.6397 70.3333 47.6261 70.2645C47.608 69.8146 47.4268 69.3831 47.2909 69.0939C47.0192 68.5201 46.5753 68.1529 45.991 68.0152V67.9326H41.2308C41.1221 67.9326 41.0134 67.9371 40.9047 67.9463H40.8186H40.8184C40.5286 67.9463 40.2388 67.9463 39.949 67.9555H39.8131C39.7248 67.9532 39.6365 67.9498 39.5482 67.9463C39.4599 67.9429 39.3715 67.9394 39.2832 67.9371C39.2424 67.9279 39.2017 67.9234 39.161 67.9188L39.1609 67.9188C39.1473 67.9165 39.1337 67.913 39.1202 67.9096C39.1066 67.9062 39.093 67.9027 39.0794 67.9004L39.0386 67.8866L39.0358 67.8853L39.0324 67.8839L39.0273 67.8821L39.0224 67.8803L39.0191 67.879L39.016 67.8775C38.9254 67.8315 38.8212 67.7994 38.717 67.7764C36.3709 67.299 34.8898 65.9219 34.1923 63.567C34.0745 63.1722 34.0202 62.704 34.0157 62.1348C33.9975 58.3706 33.9975 54.4045 34.0157 50.3373C34.0202 49.635 33.7484 49.1851 33.1415 48.8775C31.434 48.0145 30.2428 46.5823 29.6041 44.6222C29.4819 44.2549 29.3686 43.8602 29.3415 43.4975C29.3369 43.4011 29.346 43.268 29.4094 43.1854C29.4819 43.1073 29.6177 43.0614 29.7853 43.0614C30.3447 43.0568 30.9041 43.0534 31.4634 43.05L31.4641 43.05C32.0232 43.0465 32.5824 43.0431 33.1415 43.0385L35.4198 43.0293L35.4741 42.2397L35.4766 42.2054C35.4848 42.0952 35.4922 41.9949 35.4922 41.8909V41.5282L35.4922 41.5207V41.5206C35.4967 40.9126 35.5012 40.3046 35.4922 39.6966C35.4832 38.6913 36.0674 37.8145 36.9552 37.5207C37.6708 37.2866 38.4091 37.383 38.9843 37.787C39.5459 38.1818 39.8811 38.8152 39.9082 39.5222C39.9263 40.0363 39.9218 40.5688 39.9173 41.0829C39.9173 41.2046 39.9162 41.3262 39.915 41.4479C39.9139 41.5695 39.9127 41.6912 39.9127 41.8128V43.0064H46.5074L46.5527 42.2168L46.5527 42.2167C46.5617 42.0974 46.5708 41.978 46.5889 41.8679C46.5949 41.6782 46.597 41.4864 46.599 41.2953V41.2951V41.2951V41.295V41.2949V41.2948V41.2948V41.2947V41.2946V41.2945C46.6 41.1992 46.601 41.1041 46.6025 41.0095C46.607 40.3944 46.6161 39.816 46.6569 39.233C46.7157 38.4205 47.4585 37.6171 48.3145 37.4427C49.619 37.1765 50.6607 38.0165 50.9189 38.9805C50.9914 39.2513 51.0049 39.5681 51.0095 39.7838C51.0203 40.1584 51.0196 40.5329 51.0189 40.9074V40.9076C51.0187 41.0013 51.0185 41.0949 51.0185 41.1885V41.9046C51.0185 42.0056 51.023 42.1066 51.0321 42.2214L51.0729 42.988L51.8338 43.0293C51.8733 43.0309 51.9122 43.033 51.9505 43.0352L51.9507 43.0352C52.0223 43.0392 52.0921 43.043 52.1599 43.043L53.9897 43.0568L54.035 43.0571L54.0351 43.0571L54.0353 43.0571L54.0355 43.0571L54.0357 43.0571L54.0359 43.0571L54.0361 43.0571L54.0362 43.0571L54.0364 43.0571C54.9178 43.0616 55.8034 43.0662 56.6847 43.0752C56.8749 43.0752 57.0243 43.1119 57.0832 43.1762C57.1421 43.2404 57.1738 43.3874 57.1693 43.5847C57.1511 44.1723 56.9202 44.7461 56.6847 45.2832C55.9509 46.9496 54.8775 48.1293 53.4055 48.8867C53.333 48.9235 53.256 48.9556 53.179 48.9877C52.5766 49.231 52.3275 49.7864 52.5358 50.4016L52.6627 50.7688L53.0975 50.8606C53.179 50.879 53.2696 50.8974 53.3601 50.9111C53.4289 50.9221 53.4977 50.9214 53.5664 50.9206H53.5664C53.5837 50.9205 53.601 50.9203 53.6183 50.9203H53.6682L59.2074 50.9295C63.4831 50.934 67.7632 50.9432 72.0389 50.9524C76.0201 50.9616 79.3627 50.9754 82.7551 51.0075C85.7307 51.0351 88.358 52.9768 89.2864 55.8367C89.5217 56.5482 89.6348 57.3561 89.6399 58.2972C89.6443 60.0186 89.6443 61.74 89.6443 63.4614V66.7482C89.6488 67.3496 89.6215 67.5791 89.3544 67.7673L89.3137 67.7948L89.2972 67.8058L89.273 67.8224C89.2656 67.8248 89.2571 67.826 89.248 67.8272C89.2399 67.8282 89.2314 67.8294 89.2228 67.8315L89.0148 67.8178C88.8966 67.804 88.7923 67.7811 88.6842 67.7398C88.5163 67.5332 88.4572 67.2624 88.4572 66.7895C88.4667 64.1684 88.4667 61.5472 88.4617 58.9261V57.9666C88.4572 55.2124 86.2609 52.6647 83.5659 52.2929C83.4526 52.2791 83.353 52.2882 83.285 52.2974L82.0666 52.3846L82.7506 53.4588C82.8049 53.5552 82.8547 53.6287 82.9136 53.7021C84.0596 55.1344 84.63 56.7181 84.6077 58.4119C84.5938 59.3163 84.5397 60.239 84.485 61.1341C84.4583 61.5648 84.4355 61.9955 84.4127 62.4263L84.4126 62.4265L84.4126 62.4268L84.4126 62.427L84.4126 62.4273L84.4126 62.4275L84.4126 62.4278L84.4126 62.4281L84.4126 62.4283L84.4125 62.4286L84.3311 64.0811L84.331 64.0835C84.2814 65.1156 84.2318 66.1476 84.1772 67.1797C84.1365 67.9968 84.0869 68.8185 84.0367 69.6356L83.928 71.481C83.9104 71.7767 83.8964 72.0705 83.8824 72.3649C83.8751 72.5183 83.8678 72.6718 83.86 72.826L83.8328 73.3801L83.8059 73.9277C83.7652 74.7402 83.7199 75.5527 83.6745 76.3652L83.5341 78.9543L83.5324 78.9864L83.5324 78.9869L83.5324 78.9875L83.5324 78.988L83.5323 78.9885L83.5323 78.9891L83.5323 78.9896L83.5323 78.9901L83.5322 78.9906C83.4876 79.8323 83.443 80.6741 83.4028 81.5203C83.3756 82.0666 82.8819 82.5669 82.3656 82.5669C80.1553 82.5761 77.945 82.5761 75.7347 82.5669C75.2682 82.5669 74.8017 82.1492 74.6975 81.6397C74.5299 80.8271 74.3533 80.01 74.1721 79.1975L73.8415 77.6827C73.7328 77.1915 73.6287 76.7049 73.529 76.2138C73.4112 75.6399 73.0217 75.3094 72.4556 75.3094H72.451C69.0088 75.314 65.5711 75.314 62.1288 75.314H58.7817C58.6661 75.314 58.5786 75.3424 58.5191 75.3618L58.4964 75.3691L58.0616 75.5022L57.7672 76.7967C57.7124 77.0398 57.6571 77.2824 57.6018 77.5248L57.6018 77.5249L57.6018 77.5251L57.6017 77.5252L57.6017 77.5253L57.6017 77.5255L57.6016 77.5256L57.6016 77.5258L57.6016 77.5259C57.5014 77.965 57.4014 78.4036 57.3051 78.8441L57.0606 79.9733L57.0589 79.981C56.9326 80.5706 56.8064 81.1602 56.6711 81.7452C56.5623 82.2181 56.1457 82.5623 55.6837 82.5669C53.3058 82.5807 51.1408 82.5807 49.0528 82.5669C48.4595 82.5623 47.9975 82.0482 47.9794 81.3642C47.9659 80.8527 47.9568 80.3366 47.9478 79.8251L47.9477 79.8172C47.9454 79.6822 47.9434 79.5471 47.9414 79.412L47.9414 79.4117V79.4116V79.4116V79.4115V79.4115V79.4115V79.4114V79.4114C47.9355 79.0096 47.9295 78.6078 47.916 78.206C47.8843 77.2558 47.8481 76.3055 47.8118 75.3553ZM50.244 81.4285C49.4288 81.4285 49.1072 81.1026 49.1026 80.2625L49.0528 71.4672C49.0483 70.3931 49.0392 69.3189 49.0211 68.2493C49.0121 67.7306 49.2204 67.345 49.6643 67.0787C50.937 66.3167 51.8111 65.2104 52.2595 63.8011C52.3818 63.4155 52.4498 62.9565 52.4498 62.4745C52.4634 60.216 52.4634 57.9575 52.4634 55.699V53.4359V53.3028V53.1007C52.4498 52.729 52.5993 52.4994 52.7215 52.3663C52.8438 52.2378 53.0612 52.0725 53.4326 52.0863H54.8276H58.7047H59.2029H77.2566V52.1689C77.5759 52.1689 77.8941 52.1678 78.2122 52.1666C78.5304 52.1654 78.8486 52.1643 79.1679 52.1643H79.177C79.6525 52.1643 80.0421 52.3433 80.3591 52.7152C80.6988 53.1054 81.0702 53.5093 81.4688 53.9225C82.9046 55.3914 83.5613 57.1541 83.43 59.1556C83.3665 60.1241 83.3167 61.0928 83.2715 62.0613L82.9317 68.6487C82.8289 70.6518 82.7216 72.6549 82.6143 74.658L82.6143 74.6583L82.6143 74.6585L82.6143 74.6588L82.6143 74.6591L82.6142 74.6594L82.6142 74.6596L82.6139 74.665L82.6102 74.7356C82.5587 75.6961 82.5032 76.6525 82.4474 77.6125L82.438 77.7745L82.2206 81.4193H75.9249L75.7981 80.9006C75.4875 79.6501 75.2022 78.3696 74.926 77.1295L74.9258 77.129L74.8968 76.9987C74.6885 76.0577 74.4756 75.112 74.2536 74.1618C72.3527 74.1618 70.4523 74.1613 68.552 74.1608C64.7519 74.1598 60.9526 74.1588 57.1511 74.1618C57.0064 74.822 56.8526 75.4822 56.6988 76.1424L56.6982 76.1449L56.3767 77.5358L56.3749 77.5434C56.1581 78.5003 55.9413 79.4571 55.729 80.414C55.5568 81.2035 55.2715 81.4377 54.5061 81.4377L50.244 81.4285ZM50.4116 71.458C50.4071 70.4022 50.398 69.3418 50.3799 68.2493C51.9335 67.3082 53.0023 65.954 53.5413 64.2235C53.7044 63.7093 53.7949 63.108 53.7995 62.4882C53.8146 60.6047 53.814 58.721 53.8133 56.8374L53.8131 55.699V53.468H54.8231H59.1984L75.8933 53.4634V53.546H76.5726C77.4378 53.546 78.3029 53.546 79.1679 53.5415C79.2585 53.5415 79.2676 53.5415 79.3355 53.6195C79.6888 54.0326 80.0828 54.4596 80.4995 54.8865C81.6636 56.08 82.1799 57.4434 82.0712 59.0592C82.0204 59.8388 81.9812 60.6214 81.942 61.4045C81.9323 61.5989 81.9226 61.7934 81.9126 61.9879L81.573 68.5706C81.4751 70.4773 81.3732 72.3799 81.2711 74.286L81.2704 74.2978L81.2514 74.653C81.197 75.6675 81.1382 76.6774 81.0793 77.6873L80.9389 80.033H76.9848C76.7176 78.9175 76.464 77.7837 76.2193 76.682L76.1448 76.3493C75.9204 75.3476 75.6945 74.3393 75.4539 73.3309L75.3361 72.8489L74.7293 72.7938C74.616 72.7801 74.5073 72.7709 74.3986 72.7709H57.0379C56.2181 72.7709 55.9871 73.1289 55.8422 73.7808C55.6927 74.4602 55.5387 75.1396 55.3802 75.8189L55.0586 77.2144C54.9988 77.479 54.9386 77.7432 54.8783 78.0077C54.7242 78.6839 54.5698 79.3617 54.42 80.0514H50.4614L50.4116 71.458ZM40.0894 67.042C38.8167 67.042 37.7795 66.739 36.9325 66.1101C35.5466 65.0911 34.8445 63.6542 34.84 61.841V53.0181V49.1346V48.9097C34.831 48.7214 34.7947 48.57 34.3916 48.4461C32.8426 47.9686 31.6333 46.9083 30.8044 45.297C30.7546 45.2006 30.7138 45.095 30.6776 44.9894C30.622 44.8205 30.6431 44.6762 30.6532 44.6064L30.6549 44.5946L30.7501 44.0208L31.3343 43.9612H42.6031V45.3245C42.6031 45.4737 42.602 45.6229 42.6009 45.7721V45.7721V45.7722V45.7722V45.7722V45.7722C42.5997 45.9214 42.5986 46.0705 42.5986 46.2196L42.5984 46.2361C42.5894 46.8865 42.5809 47.5056 42.6303 48.1201C42.7571 49.7038 43.1874 51.3059 43.9031 52.885C44.5417 54.2943 45.3751 55.5337 46.3761 56.5666C47.762 57.9942 49.2431 58.9261 50.9098 59.4172C51.6164 59.6284 51.6481 60.1976 51.6436 60.3675C51.6345 60.6475 51.6391 60.9229 51.6481 61.203C51.6662 61.8134 51.6798 62.447 51.5348 63.108C51.1725 64.733 50.2168 65.9127 48.6859 66.6151C48.0609 66.9043 47.377 67.0374 46.5255 67.0374H44.1929C42.8341 67.0374 41.4708 67.0374 40.1121 67.042H40.0894ZM34.7856 47.1332C33.8119 46.8302 33.0283 46.2426 32.4123 45.3429H41.2489C41.2534 45.6275 41.2489 45.9167 41.2444 46.2013C41.2353 46.8623 41.2262 47.5463 41.2806 48.2303C41.421 49.9747 41.8875 51.7328 42.6711 53.4588C43.3731 55.015 44.2971 56.3875 45.4068 57.5306C46.8652 59.0362 48.5003 60.0829 50.2802 60.6613C50.2802 60.8516 50.2847 61.0418 50.2891 61.2322L50.2892 61.2323L50.2893 61.2396L50.2895 61.2481V61.2482C50.3031 61.7959 50.3159 62.3164 50.2078 62.805C49.9451 64.0031 49.2611 64.8432 48.1243 65.3665C47.6805 65.5685 47.1732 65.6649 46.5255 65.6649H44.1929C42.8296 65.6649 41.4708 65.6649 40.1075 65.6695C39.1156 65.6695 38.3502 65.4629 37.7296 65.0038C36.7015 64.2464 36.1988 63.2135 36.1988 61.8502V53.0273V49.153C36.1988 49.0566 36.1988 48.9556 36.1942 48.8592C36.1761 48.368 35.9632 47.4958 34.7856 47.1332ZM47.9885 56.0754H47.9839C47.4767 56.0754 46.9694 55.8505 46.5935 55.4603C46.222 55.0746 46.0137 54.5605 46.0273 54.051C46.0544 52.9906 46.9376 52.1046 47.9613 52.1046H47.9839C48.5229 52.1138 49.0755 52.3755 49.4514 52.807C49.7956 53.1972 49.9587 53.6746 49.9179 54.1474C49.8953 55.194 49.0166 56.0754 47.9885 56.0754ZM47.3861 54.0831C47.3951 53.7802 47.6805 53.4772 47.9613 53.4772L47.9631 53.4772C47.9642 53.4772 47.9648 53.4774 47.9652 53.4777C47.9655 53.4781 47.9657 53.4786 47.9657 53.4794L47.9658 53.4818C48.1289 53.4818 48.31 53.5782 48.4368 53.7205C48.5274 53.8215 48.5773 53.9408 48.5682 54.0326L48.5637 54.0969C48.5591 54.3953 48.2693 54.6983 47.9885 54.6983C47.8435 54.6983 47.685 54.6202 47.5672 54.4963C47.4495 54.3769 47.3815 54.2208 47.3861 54.0831ZM38.8348 43.0155H36.5113L36.398 42.382C36.3799 42.2994 36.3573 42.1892 36.3573 42.0607V42.0606C36.3528 41.3032 36.3482 40.5458 36.3573 39.7884C36.3618 39.5038 36.4071 39.2559 36.4977 39.0448C36.7332 38.5077 37.3764 38.1542 37.9289 38.2644C38.5812 38.3929 39.0431 38.9484 39.0522 39.6186C39.0613 40.275 39.0567 40.936 39.0522 41.5925L39.0477 42.1571C39.0477 42.2994 39.0114 42.4096 38.9888 42.4739L38.8348 43.0155ZM47.4359 43.0064H50.1263L50.1353 41.5098C50.1398 40.8488 50.1398 40.1648 50.1217 39.49C50.1127 39.1549 49.9632 38.8428 49.7005 38.6041C49.4242 38.3562 49.0573 38.2231 48.7132 38.2506C48.0156 38.3057 47.4585 38.9025 47.4449 39.6002C47.4341 40.1058 47.4348 40.6114 47.4355 41.1263C47.4357 41.2566 47.4359 41.3874 47.4359 41.519V43.0064Z" fill="black"/>
<path d="M80.9885 54.3997C80.5989 54.0003 80.2184 53.5872 79.8516 53.1649C79.6614 52.9491 79.4666 52.8481 79.1722 52.8527C78.5698 52.8573 77.972 52.8573 77.3695 52.8573V52.793H60.6747C60.5298 52.7884 60.3803 52.7792 60.2354 52.7792C58.0658 52.7747 55.8963 52.7747 53.7313 52.7747C53.6271 52.7747 53.5275 52.7747 53.4233 52.7747C53.224 52.7747 53.1289 52.8756 53.138 53.0776C53.1425 53.197 53.138 53.3163 53.138 53.4357C53.138 56.4516 53.1471 59.463 53.1289 62.4789C53.1244 62.993 53.0565 63.5255 52.907 64.0121C52.4042 65.5958 51.4304 66.826 50.0128 67.6753C49.7773 67.8176 49.7003 67.9691 49.7048 68.2399C49.7274 69.4701 49.732 70.705 49.741 71.9353C49.7591 74.7125 49.7727 77.4851 49.7909 80.2623C49.7954 80.7305 49.809 80.7443 50.2528 80.7443C51.675 80.7443 53.0972 80.7443 54.5149 80.7443C54.9769 80.7443 54.9723 80.7352 55.0765 80.2578C55.3029 79.2295 55.5339 78.2058 55.7695 77.1821C56.0141 76.0988 56.2722 75.02 56.5123 73.9367C56.6074 73.5052 56.6255 73.4684 57.0467 73.4684C62.8351 73.4684 68.619 73.4684 74.4074 73.4684C74.5342 73.4684 74.661 73.4868 74.8014 73.5006C75.3857 75.9289 75.8704 78.3435 76.4637 80.726C78.1939 80.726 79.8606 80.726 81.5863 80.726C81.6361 79.9135 81.6814 79.1468 81.7267 78.3802C81.7992 77.1546 81.8717 75.9244 81.9396 74.6987C82.0483 72.6697 82.157 70.6407 82.2611 68.6163C82.3563 66.8398 82.4469 65.0633 82.5374 63.2868C82.6099 61.8959 82.6688 60.505 82.7594 59.1141C82.8772 57.2549 82.2611 55.7034 80.9885 54.3997Z" fill="white"/>
<path d="M62.2372 60.3994C64.7736 60.3994 66.8299 58.3154 66.8299 55.7447C66.8299 53.174 64.7736 51.09 62.2372 51.09C59.7007 51.09 57.6445 53.174 57.6445 55.7447C57.6445 58.3154 59.7007 60.3994 62.2372 60.3994Z" fill="black"/>
<path d="M75.3269 69.5941C77.4606 69.5941 79.1903 67.841 79.1903 65.6784C79.1903 63.5159 77.4606 61.7628 75.3269 61.7628C73.1932 61.7628 71.4634 63.5159 71.4634 65.6784C71.4634 67.841 73.1932 69.5941 75.3269 69.5941Z" fill="black"/>
<path d="M62.3416 74.9374C64.4658 74.8685 66.5538 75.1623 68.6463 75.4653C68.7007 75.4653 68.7551 75.4653 68.8048 75.4653C68.8502 75.1578 68.8773 74.841 68.8773 74.5197C68.8773 71.086 66.1281 68.2996 62.7402 68.2996C59.3523 68.2996 56.603 71.086 56.603 74.5197C56.603 75.1256 56.6891 75.7086 56.8476 76.2641C58.2834 74.7997 60.4755 74.9971 62.3416 74.9374Z" fill="black"/>
<path d="M65.2134 50.7732C65.073 50.7732 64.9416 50.7548 64.8102 50.7181C64.2803 51.3103 63.9678 52.0218 63.9678 52.7838C63.9678 54.8587 66.2596 56.5434 69.0904 56.5434C71.9166 56.5434 74.213 54.8587 74.213 52.7838C74.213 52.0447 73.9231 51.3562 73.4204 50.7732H65.2134Z" fill="black"/>
<path d="M46.7113 54.0783C46.6434 53.2474 47.3908 52.6874 48.043 52.692C48.8129 52.6966 49.4335 53.3392 49.4198 54.115C49.4062 54.8725 48.7722 55.4968 48.0339 55.483C47.2639 55.4692 46.7068 54.877 46.7113 54.0783Z" fill="white"/>
<path d="M38.4903 41.7162C37.8607 41.7162 37.2583 41.7162 36.6332 41.7162C36.6061 41.5877 36.5653 41.4775 36.5653 41.3673C36.5607 40.3987 36.5562 40.6833 36.5653 39.7148C36.5698 39.5128 36.597 39.2924 36.6921 39.1088C36.8597 38.7783 37.3669 38.558 37.7067 38.613C38.1822 38.6911 38.5536 39.0446 38.5627 39.499C38.5808 40.5824 38.5673 40.4125 38.5627 41.4959C38.5627 41.5464 38.531 41.6014 38.4903 41.7162Z" fill="white"/>
<path d="M49.7051 41.7162C49.0755 41.7162 48.4731 41.7162 47.8481 41.7162C47.8209 41.5877 47.7802 41.4775 47.7802 41.3673C47.7756 40.3987 47.7711 40.6833 47.7802 39.7148C47.7847 39.5128 47.8118 39.2924 47.907 39.1088C48.0746 38.7783 48.5818 38.558 48.9215 38.613C49.3971 38.6911 49.7685 39.0446 49.7775 39.499C49.7956 40.5824 49.7821 40.4125 49.7775 41.4959C49.7775 41.5464 49.7459 41.6014 49.7051 41.7162Z" fill="white"/>
</svg>
