<svg width="120" height="120" viewBox="0 0 120 120" fill="none" xmlns="http://www.w3.org/2000/svg">
<path d="M60 120C93.1364 120 120 93.1364 120 60C120 26.8636 93.1364 0 60 0C26.8636 0 0 26.8636 0 60C0 93.1364 26.8636 120 60 120Z" fill="white"/>
<path d="M47.9379 37.4355C41.9438 37.3378 36.8898 38.9789 32.9721 44C31.2287 38.8617 31.7772 34.2705 35.0485 30.1871C37.7126 26.8267 41.2582 25.0293 45.5873 25.0293C57.3015 24.9902 69.0352 24.9902 80.7493 25.0293C84.2754 25.0293 86.9198 27.6668 86.9982 31.0859C87.0766 34.5048 84.5496 37.201 81.0432 37.455C80.6906 37.4746 80.3185 37.4746 79.9658 37.4746C76.7631 37.4746 73.5603 37.4851 70.3575 37.4957C62.8844 37.5203 55.4112 37.5449 47.9379 37.4355Z" fill="black"/>
<path fill-rule="evenodd" clip-rule="evenodd" d="M60 120C93.1371 120 120 93.1371 120 60C120 26.8629 93.1371 0 60 0C26.8629 0 0 26.8629 0 60C0 93.1371 26.8629 120 60 120ZM89.3799 82.4677H87.4474C87.4096 82.8233 87.3856 83.17 87.3621 83.5099C87.3368 83.8741 87.3121 84.2305 87.2716 84.5818C86.0809 91.3702 80.4396 96.0639 73.3927 96.0832C61.9929 96.1027 50.6125 96.1027 39.2126 96.0832C38.5684 96.0832 37.9047 96.0251 37.2801 95.87C34.1763 95.0747 32.3024 92.2624 32.6733 89.0427C32.9856 86.1334 35.6013 83.7672 38.6855 83.7284C41.2786 83.6868 43.8815 83.6948 46.4873 83.7026C47.5303 83.7058 48.5736 83.7089 49.6169 83.7089C53.0131 83.7007 56.4127 83.7031 59.8144 83.7055C64.3511 83.7086 68.8915 83.7118 73.4317 83.6896C84.0704 83.612 91.6247 73.9336 88.8919 63.9062C87.0569 57.1372 80.8885 52.3659 73.8026 52.3271C69.5953 52.3092 65.3879 52.3162 61.1806 52.3231C56.2719 52.331 51.3633 52.3391 46.4546 52.3078C41.3988 52.2884 37.4752 50.0385 34.5668 45.7327C34.8323 45.4311 35.0877 45.1234 35.3421 44.8168C35.873 44.1771 36.3997 43.5423 37.0068 42.9785C39.7006 40.496 42.902 39.3128 46.5913 39.3128C58.0497 39.3322 69.5081 39.3322 80.9666 39.3128C86.7251 39.2935 90.6682 34.1148 89.0676 28.7229C88.0135 25.1929 84.8121 22.9236 80.7519 22.9236C69.4105 22.9043 58.0887 22.9043 46.7669 22.9236C45.8885 22.9236 44.9906 22.9819 44.1317 23.0981C36.0893 24.2619 30.1551 31.2055 30.6236 39.2352C31.1116 47.9438 37.8852 54.2667 46.4156 54.2667C49.4354 54.2667 52.4532 54.2645 55.4701 54.2624C61.502 54.2581 67.5309 54.2537 73.5684 54.2667C80.4201 54.286 86.1004 59.0768 87.2327 65.7876C87.6425 68.2315 87.4669 70.6365 86.3152 73.2549C86.2724 73.1576 86.2391 73.0774 86.2113 73.0103C86.1502 72.8632 86.1151 72.7784 86.0614 72.7118C82.6844 68.5417 78.2728 66.6604 72.9242 66.6797C64.0034 66.7186 55.0826 66.738 46.1618 66.6797C39.8567 66.641 34.4691 62.3352 32.9856 56.2644C32.8096 55.5653 32.7088 54.8383 32.605 54.0897C32.5589 53.7584 32.5125 53.4228 32.4585 53.0835H30.5651C30.6041 55.8959 31.2482 58.4949 32.6733 60.8223C35.855 66.0203 40.5399 68.6775 46.6693 68.6969C51.7561 68.7191 56.8364 68.7159 61.914 68.7128C65.7217 68.7104 69.5279 68.708 73.3342 68.7163C78.1557 68.7163 82.0012 70.6365 84.8902 74.4961C85.2806 75.0199 85.2806 75.3884 84.8902 75.9314C82.6844 78.8989 79.7954 80.7997 76.1451 81.4592C75.091 81.6337 74.0174 81.6919 72.9437 81.6919C67.2731 81.7016 61.6073 81.7016 55.944 81.7016C50.2807 81.7016 44.6197 81.7016 38.9588 81.7113C34.2349 81.7307 30.5651 85.3382 30.5456 89.8767C30.526 94.3571 34.1959 98.081 38.8027 98.1199C40.8663 98.1266 42.9301 98.1353 44.9937 98.144C54.6221 98.1843 64.2483 98.2248 73.8612 98.081C80.342 97.984 85.0659 94.7644 87.9549 88.9652C88.9504 86.9481 89.3993 84.7757 89.3799 82.4677Z" fill="black"/>
</svg>
