<svg width="120" height="120" viewBox="0 0 120 120" fill="none" xmlns="http://www.w3.org/2000/svg">
<circle cx="60" cy="60" r="60" fill="#265FAC"/>
<path fill-rule="evenodd" clip-rule="evenodd" d="M78.8355 47.2512C78.8355 47.2512 88.1853 48.4359 89.0502 39H98.226V39.7172C98.226 48.8846 90.7943 56.3162 81.627 56.3162H78.8549V68.134C78.825 78.0549 70.7899 86.09 60.8689 86.1199H57.9422C48.0105 86.119 39.9598 78.0674 39.9598 68.1357V56.383L37.3002 56.3109C28.2259 56.0615 20.9994 48.6332 21 39.5555V39.1758H30.218C30.218 39.1758 30.8262 47.7891 40.0459 47.2266V39H49.2252V47.2512H69.4611V39H78.8355V47.2512ZM64.6261 76.0305C67.7351 74.1549 69.598 70.7547 69.5051 67.125V56.1211H49.3113V67.125V67.4484C49.3347 71.0793 51.3055 74.4181 54.473 76.1931C57.6405 77.9681 61.5171 77.906 64.6261 76.0305Z" fill="white"/>
</svg>
