<svg width="120" height="120" viewBox="0 0 120 120" fill="none" xmlns="http://www.w3.org/2000/svg">
<circle cx="60" cy="60" r="60" fill="#13C2C2"/>
<mask id="mask0" style="mask-type:alpha" maskUnits="userSpaceOnUse" x="33" y="26" width="53" height="36">
<path fill-rule="evenodd" clip-rule="evenodd" d="M33 54.2079L68.6432 54.4956C68.6432 54.4956 76.51 55.4951 83.2298 61.3971C83.6122 61.7302 85.1075 61.3971 85.1075 61.3971L84.9258 26L33 26.0606V54.2079Z" fill="white"/>
</mask>
<g mask="url(#mask0)">
<path d="M77.5362 33.9729C73.2961 30.4824 67.4622 28.7333 60.0345 28.7333C50.1044 28.7333 45.7015 28.7333 41.5296 28.7333V31.319C41.5296 31.319 51.5733 31.319 59.6938 31.319C66.0085 31.319 71.725 32.6213 75.2155 35.6348C78.706 38.6521 81.3523 43.142 81.3523 48.6844C81.3523 54.0337 79.0619 57.9975 75.4313 60.9958C71.8007 63.9941 65.327 65.3154 58.8458 65.3154C51.1114 65.3154 37.9785 65.3154 37.9785 65.3154V67.9011C37.9785 67.9011 55.7452 67.8973 58.9896 67.8973C66.8073 67.8973 72.9137 66.1975 77.309 62.8054C81.7043 59.4096 83.9001 54.6357 83.9001 48.4762C83.9001 42.3016 81.7801 37.4671 77.5362 33.9729Z" fill="white"/>
</g>
<mask id="mask1" style="mask-type:alpha" maskUnits="userSpaceOnUse" x="33" y="26" width="53" height="36">
<path fill-rule="evenodd" clip-rule="evenodd" d="M33 54.2079L68.6432 54.4956C68.6432 54.4956 76.51 55.4951 83.2298 61.3971C83.6122 61.7302 85.1075 61.3971 85.1075 61.3971L84.9258 26L33 26.0606V54.2079Z" fill="white"/>
</mask>
<g mask="url(#mask1)">
<path d="M75.9689 37.7208C73.3302 35.7181 70.2978 34.1053 61.7192 34.1053C52.4667 34.1091 51.3348 34.1053 47.4468 34.1053V36.6267C47.4468 36.6267 53.8334 36.5434 61.4012 36.6267C68.7153 36.7024 71.3994 37.5277 73.8602 39.3487C77.01 41.6769 78.9634 44.5503 78.9634 48.5708C78.9634 52.4475 76.9797 55.1922 73.8148 57.5204C70.5779 59.9055 65.6299 59.932 63.6159 59.9774C62.8549 59.9963 53.0195 59.9774 53.0195 59.9774V62.4987C53.0195 62.4987 57.9145 62.5669 60.9393 62.4949C67.8824 62.3397 72.0014 61.9271 75.8364 59.0764C79.4367 56.4074 81.3409 52.8828 81.3409 48.4194C81.3409 42.5325 78.3956 39.5644 75.9689 37.7208Z" fill="white"/>
</g>
<mask id="mask2" style="mask-type:alpha" maskUnits="userSpaceOnUse" x="33" y="26" width="53" height="36">
<path fill-rule="evenodd" clip-rule="evenodd" d="M33 54.2079L68.6432 54.4956C68.6432 54.4956 76.51 55.4951 83.2298 61.3971C83.6122 61.7302 85.1075 61.3971 85.1075 61.3971L84.9258 26L33 26.0606V54.2079Z" fill="white"/>
</mask>
<g mask="url(#mask2)">
<path d="M74.6928 41.0485C72.7128 39.8068 70.9751 38.9701 62.7789 38.9701C54.4502 38.9701 56.0213 38.9701 52.5194 38.9701V40.6283C52.5194 40.6283 55.6844 40.6283 62.495 40.6283C69.7561 40.6283 72.5084 41.9192 73.3413 42.4303C74.9729 43.4297 77.1233 45.0576 77.1233 48.374C77.1233 50.494 75.8702 53.1554 74.0189 54.2003C72.3304 55.1505 69.245 56.0023 63.8086 56.0023C63.1234 56.0023 30.2969 56.0023 30.2969 56.0023V57.6605C30.2969 57.6605 61.2078 57.6605 63.9336 57.6605C70.4868 57.6605 72.7355 56.9336 75.0449 55.6578C77.3618 54.382 78.9064 51.7585 78.9064 48.3891C78.9064 44.6261 76.8052 42.3697 74.6928 41.0485Z" fill="white"/>
</g>
<path d="M81.2159 59.3414C76.9758 55.8471 71.1381 54.1019 63.7142 54.1019C53.7803 54.1019 55.5104 54.0981 51.3347 54.0981V56.6838C51.3347 56.6838 55.2492 56.6838 63.3697 56.6838C69.6844 56.6838 75.4047 57.9861 78.8952 60.9996C82.3857 64.0168 85.0282 68.5068 85.0282 74.053C85.0282 79.3985 82.7415 83.3622 79.111 86.3605C75.4804 89.3589 69.0029 90.6801 62.5217 90.6801C54.7911 90.6801 41.6582 90.6801 41.6582 90.6801V93.2658C41.6582 93.2658 59.4211 93.262 62.6693 93.262C70.487 93.262 76.5896 91.566 80.9849 88.1702C85.3802 84.7781 87.5798 80.0004 87.5798 73.8447C87.5798 67.6663 85.4597 62.8319 81.2159 59.3414Z" fill="white"/>
<path d="M79.6484 63.0856C77.0097 61.0867 73.9773 59.4702 65.3987 59.4702C56.1425 59.4739 49.8846 59.4702 45.9966 59.4702V61.9915C45.9966 61.9915 57.5092 61.9082 65.0807 61.9915C72.3949 62.0672 75.0752 62.8925 77.536 64.7135C80.6895 67.0455 82.643 69.9151 82.643 73.9356C82.643 77.8123 80.6592 80.557 77.4943 82.889C74.2575 85.2703 69.3094 85.3006 67.2916 85.346C66.5307 85.3611 56.6952 85.346 56.6952 85.346V87.8635C56.6952 87.8635 61.5902 87.9317 64.6189 87.8635C71.5582 87.7045 75.6809 87.2919 79.5159 84.445C83.1124 81.7722 85.0167 78.2476 85.0167 73.7842C85.0167 67.9011 82.0751 64.9293 79.6484 63.0856Z" fill="white"/>
<path d="M50.1494 71.6414H68.3325V70.2331H50.1494V71.6414Z" fill="white"/>
<path d="M57.6494 76.5667H68.2269V75.3553H57.6494V76.5667Z" fill="white"/>
<path fill-rule="evenodd" clip-rule="evenodd" d="M48.7073 40.5185H42.3321V39.3563H48.7073V40.5185ZM47.0454 71.6414H41.6582V70.2331H47.0454V71.6414Z" fill="white"/>
<path d="M38.3003 76.6651H54.6625V75.2568H38.3003V76.6651Z" fill="white"/>
<path d="M37.8911 49.9451H52.4929V48.5936H37.8911V49.9451Z" fill="white"/>
<path d="M38.3003 87.6894H53.6971V86.0009H38.3003V87.6894Z" fill="white"/>
<path d="M34.4614 93.1636H38.3116V90.718H34.4614V93.1636Z" fill="white"/>
<path d="M44.085 45.8186H68.261V44.467H44.085V45.8186Z" fill="white"/>
<path d="M56.1729 49.9451H67.8028V48.5936H56.1729V49.9451Z" fill="white"/>
<path d="M78.3725 66.6669C76.3887 65.4668 74.651 64.6605 66.4586 64.6605C58.1299 64.6605 56.8843 64.6605 53.3863 64.6605V66.2618C53.3863 66.2618 59.3603 66.2618 66.1709 66.2618C73.432 66.2618 76.1881 67.5074 77.0209 68.0033C78.6488 68.9687 80.8029 70.536 80.8029 73.7388C80.8029 75.7869 79.5498 78.3536 77.6948 79.3607C76.0063 80.2806 72.9209 81.1021 67.4845 81.1021C66.7993 81.1021 33.9766 81.1021 33.9766 81.1021V82.7035C33.9766 82.7035 64.8875 82.6997 67.6095 82.6997C74.1665 82.6997 76.4152 81.9994 78.7245 80.769C81.0377 79.5348 82.5823 77.0021 82.5823 73.7501C82.5823 70.1196 80.4849 67.9427 78.3725 66.6669Z" fill="white"/>
</svg>
