<svg width="120" height="120" viewBox="0 0 120 120" fill="none" xmlns="http://www.w3.org/2000/svg">
<circle cx="60" cy="60" r="60" fill="#EF494D"/>
<path fill-rule="evenodd" clip-rule="evenodd" d="M22 42.4668C22 41.6574 22.6488 41 23.4513 41H42.2923C50.9852 41 56.423 45.5448 56.423 51.963C56.423 54.642 55.2154 57.0778 52.8003 59.2704C56.1792 61.2198 57.8705 64.142 57.8705 68.037C57.8705 77.176 49.1739 79 43.3761 79H23.4476C22.6481 79 22 78.3433 22 77.5332V73.1632C22 72.35 22.6488 71.6926 23.4476 71.6926H43.3761C47.4825 71.6926 49.5376 70.3512 49.5376 67.6722C49.5376 64.9932 47.4825 63.5302 43.3761 63.287H23.4476C22.6496 63.287 22.0021 62.6326 22 61.824V57.454C22 56.6408 22.6488 55.9834 23.4476 55.9834H43.3761C46.275 55.497 47.7263 54.281 47.7263 52.3316C47.7263 49.6526 46.275 48.3112 43.3761 48.3112H23.4476C23.063 48.3112 22.6942 48.1561 22.4227 47.8802C22.1511 47.6043 21.999 47.2303 22 46.8406V42.4706V42.4668ZM61.1332 42.4668C61.1332 41.6574 61.782 41 62.5808 41H81.7855C82.5843 41 83.2368 41.6574 83.2368 42.4668V77.5332C83.2368 77.9229 83.0838 78.2965 82.8115 78.5717C82.5392 78.8469 82.1701 79.001 81.7855 79H76.3477C75.5482 79 74.9001 78.3433 74.9001 77.5332V49.778C74.9011 49.3883 74.7491 49.0143 74.4775 48.7384C74.2059 48.4625 73.8371 48.3074 73.4526 48.3074H62.577C61.7776 48.3074 61.1295 47.6507 61.1295 46.8406L61.1332 42.4668ZM95.5524 41H88.3033C87.5045 41 86.8557 41.6574 86.8557 42.4706V46.8406C86.8557 47.6507 87.5038 48.3074 88.3033 48.3074H95.5524C95.937 48.3074 96.3058 48.1523 96.5773 47.8764C96.8489 47.6005 97.001 47.2265 97 46.8368V42.4668C97 41.6574 96.3512 41 95.5524 41Z" fill="white"/>
</svg>
