<svg width="120" height="120" viewBox="0 0 120 120" fill="none" xmlns="http://www.w3.org/2000/svg">
<circle cx="60" cy="60" r="60" fill="#EDF0F4"/>
<path d="M36.516 74.9833C38.8262 72.6852 42.5611 72.6925 44.8623 74.9997C47.1634 77.3068 47.161 81.0418 44.8568 83.346C42.5527 85.6501 38.8177 85.6525 36.5105 83.3514C34.2034 81.0503 34.1961 77.3153 36.4942 75.0051L36.516 74.9833Z" fill="#FDBA4D"/>
<path d="M76.9456 36.6001C78.6362 34.9093 81.1788 34.4035 83.3878 35.3185C85.5968 36.2334 87.0371 38.3889 87.0371 40.7799C87.0371 43.1709 85.5968 45.3264 83.3878 46.2413C81.1788 47.1563 78.6362 46.6505 76.9456 44.9597C74.6408 42.6561 74.6375 38.9208 76.9383 36.6131H76.9456" fill="#FDBA4D"/>
<path d="M44.0957 70.4357L50.3327 76.6727L56.0464 70.959C53.1971 69.8151 50.9388 67.5568 49.7948 64.7075L44.0957 70.4357Z" fill="#FDBA4D"/>
<path d="M72.1413 55.1745L77.855 49.4609L71.618 43.2238L65.9043 48.9375C67.3145 49.5033 68.5955 50.349 69.6698 51.4236C70.7429 52.4905 71.5843 53.7675 72.1413 55.1745Z" fill="#FDBA4D"/>
<path d="M76.7473 83.0479C75.0566 81.3572 74.5508 78.8146 75.4657 76.6056C76.3807 74.3967 78.5362 72.9564 80.9272 72.9564C83.3181 72.9564 85.4737 74.3967 86.3886 76.6056C87.3036 78.8146 86.7977 81.3572 85.107 83.0479C84.0004 84.1565 82.4987 84.7802 80.9323 84.7815C79.3659 84.7829 77.8631 84.1619 76.7546 83.0551L76.7473 83.0479Z" fill="#5DA9DD"/>
<path d="M37.1087 44.4334C35.4179 42.7428 34.9121 40.2002 35.8271 37.9912C36.742 35.7822 38.8975 34.3419 41.2885 34.3419C43.6795 34.3419 45.835 35.7822 46.7499 37.9912C47.6649 40.2002 47.1591 42.7428 45.4683 44.4334C44.3608 45.5411 42.8586 46.1634 41.2921 46.1634C39.7257 46.1634 38.2235 45.5411 37.1159 44.4334" fill="#5DA9DD"/>
<path d="M71.1481 76.4241L77.3852 70.187L71.6715 64.4734C70.5275 67.3227 68.2692 69.581 65.4199 70.725" fill="#5DA9DD"/>
<path d="M56.523 48.6133L50.8093 42.8996L44.5723 49.1366L50.2859 54.8503C50.8517 53.4401 51.6974 52.1591 52.772 51.0848C53.839 50.0116 55.1159 49.1702 56.523 48.6133Z" fill="#5DA9DD"/>
<path d="M66.9702 31.9172C66.9678 35.1819 64.3199 37.8269 61.0552 37.8257C57.7905 37.8245 55.1445 35.1775 55.1445 31.9128C55.1445 28.6481 57.7905 26.0012 61.0552 26C64.3199 25.9988 66.9678 28.6438 66.9702 31.9085V31.9172Z" fill="#18568C"/>
<path d="M66.9702 88.4344C66.9678 91.6991 64.3199 94.3441 61.0552 94.3429C57.7905 94.3417 55.1445 91.6948 55.1445 88.43C55.1445 85.1653 57.7905 82.5184 61.0552 82.5172C64.3199 82.516 66.9678 85.161 66.9702 88.4257V88.4344Z" fill="#18568C"/>
<path d="M63.2004 40.9311H59.4785V48.2585C60.7099 48.0448 61.969 48.0448 63.2004 48.2585" fill="#18568C"/>
<path d="M63.2004 72.4158C61.969 72.6295 60.7099 72.6295 59.4785 72.4158V79.7432H63.2004" fill="#18568C"/>
<path d="M87.2327 64.4734C83.968 64.471 81.323 61.8231 81.3242 58.5584C81.3254 55.2936 83.9723 52.6477 87.2371 52.6477C90.5018 52.6477 93.1487 55.2936 93.1499 58.5584C93.1511 61.8231 90.5061 64.471 87.2414 64.4734H87.2327Z" fill="#18578C"/>
<path d="M32.9172 65.478C29.6494 65.478 27.0003 62.8291 27 59.5613C26.9997 56.2935 29.6484 53.6442 32.9162 53.6436C36.184 53.6431 38.8336 56.2916 38.8344 59.5594C38.8348 61.1289 38.2115 62.6344 37.1018 63.7444C35.9921 64.8544 34.4868 65.478 32.9172 65.478Z" fill="#18578C"/>
<path d="M72.1875 61.4217H79.5149V57.694H72.1875C72.4012 58.9255 72.4012 60.1845 72.1875 61.4159V61.4217Z" fill="#18578C"/>
<path d="M49.4192 61.4218C49.2055 60.1903 49.2055 58.9313 49.4192 57.6999H42.0918V61.4218" fill="#18578C"/>
<path d="M69.2638 59.997C69.2638 64.6299 65.5081 68.3857 60.8751 68.3857C56.2421 68.3857 52.4863 64.6299 52.4863 59.997C52.4863 55.364 56.2421 51.6082 60.8751 51.6082C65.5074 51.6098 69.2622 55.3647 69.2638 59.997Z" fill="#18568B"/>
</svg>
