<svg width="120" height="120" viewBox="0 0 120 120" fill="none" xmlns="http://www.w3.org/2000/svg">
<path fill-rule="evenodd" clip-rule="evenodd" d="M60 120C27 120 0 93.0006 0 59.7012C0.3 26.7019 27 -0.297518 60.3 0.00247602C93.3 0.30247 120 27.0019 120 60.6012C119.7 93.3006 93 120 60 120Z" fill="#EDF0F4"/>
<path fill-rule="evenodd" clip-rule="evenodd" d="M20 60.0013C20 37.9203 37.9203 20 60.0013 20C82.0797 20 100 37.9229 100 60.0013C100 82.0797 82.0824 100 60.0013 100C37.9203 100 20 82.0824 20 60.0013ZM24.8013 60.0027C24.8013 77.671 39.1303 92 56.7987 92H56.8C74.4054 92 88.7973 77.7608 88.7973 60.0027C88.7973 42.2446 74.4054 28.0054 56.8 28.0054C39.1303 28.0054 24.8013 42.3343 24.8013 60.0027Z" fill="black"/>
</svg>
