<svg width="120" height="120" viewBox="0 0 120 120" fill="none" xmlns="http://www.w3.org/2000/svg">
<path d="M60 120C93.138 120 120 93.138 120 60C120 26.862 93.138 0 60 0C26.862 0 0 26.862 0 60C0 93.138 26.862 120 60 120Z" fill="#EDF0F4"/>
<path fill-rule="evenodd" clip-rule="evenodd" d="M87.9661 52.9439C88.9842 53.3802 91.8928 54.8345 91.8928 57.4523C91.8928 58.3694 91.9286 59.2746 91.9627 60.1336C92.0473 62.2712 92.1206 64.1227 91.6019 65.1601C91.0202 67.0507 89.4205 68.3596 87.3844 68.5051C86.221 72.5771 84.0395 76.3583 81.1309 79.4124C75.8954 84.7934 68.6238 87.5565 59.8979 87.5565C51.172 87.5565 43.9005 84.7934 38.665 79.4124C35.7563 76.3583 33.5749 72.5771 32.4114 68.5051C30.5208 68.3596 28.7756 67.0507 28.1939 65.1601C27.9141 64.2275 27.9932 62.6368 28.0859 60.7718C28.1378 59.7287 28.1939 58.5999 28.1939 57.4523C28.1939 54.8563 30.8895 53.544 31.9393 53.0329C32.0069 52.9999 32.0677 52.9703 32.1206 52.9439C35.6109 40.4368 47.1 31.8564 60.0433 32.0018C72.9867 31.8564 84.4758 40.4368 87.9661 52.9439ZM60.1888 85.3751C76.0408 85.3751 86.8027 75.0495 86.8027 59.6338C86.8027 45.5269 74.8773 34.0379 60.1888 34.0379C45.5002 34.0379 33.5749 45.5269 33.5749 59.6338C33.5749 75.0495 44.3368 85.3751 60.1888 85.3751Z" fill="#3B3F4C"/>
<path d="M55.9959 55.5035C55.9959 53.322 54.2507 51.5768 52.0692 51.5768C49.8878 51.5768 48.1426 53.322 48.1426 55.5035C48.1426 57.685 49.8878 59.4301 52.0692 59.4301C54.2507 59.4301 55.9959 57.685 55.9959 55.5035Z" fill="#3B3F4C"/>
<path d="M61.6678 66.1199C62.104 66.1199 62.5403 65.6836 62.5403 65.2473C62.5403 64.811 62.104 64.3748 61.6678 64.3748C61.2315 64.3748 60.7952 64.811 60.7952 65.2473C60.7952 65.6836 61.086 66.1199 61.6678 66.1199Z" fill="#3B3F4C"/>
<path d="M54.1052 69.9012C54.1052 73.1007 56.723 75.573 59.777 75.573H59.9225C63.122 75.7184 65.7397 73.2461 65.8852 70.0466V69.9012C63.9945 70.6283 61.9585 71.0646 59.9225 71.2101C57.8864 71.2101 55.9958 70.7738 54.1052 69.9012Z" fill="#3B3F4C"/>
<path d="M58.4683 66.1199C58.9046 66.1199 59.3409 65.6836 59.3409 65.2473C59.3409 64.811 58.9046 64.3748 58.4683 64.3748C58.032 64.3748 57.5957 64.811 57.5957 65.2473C57.5957 65.6836 58.032 66.1199 58.4683 66.1199Z" fill="#3B3F4C"/>
<path d="M68.5031 51.4314C66.3216 51.4314 64.5764 53.1766 64.5764 55.358C64.5764 57.5395 66.3216 59.2847 68.5031 59.2847C70.6845 59.2847 72.4297 57.5395 72.4297 55.358C72.4297 53.322 70.6845 51.5768 68.5031 51.4314Z" fill="#3B3F4C"/>
<path fill-rule="evenodd" clip-rule="evenodd" d="M60.068 44.5961C63.9947 44.3053 68.0667 44.5961 71.9934 45.3233C81.5918 47.7956 82.0281 54.34 81.7373 61.4662C81.7373 68.4469 79.1195 75.8639 70.8299 79.2088C68.0667 80.3722 64.5764 80.5177 60.2135 80.5177C55.8505 80.5177 52.3602 80.3722 49.4515 79.2088C41.162 75.8639 38.1079 68.4469 38.1079 61.4662C38.1079 54.4855 38.5442 47.9411 47.8518 45.4687C51.9239 44.5961 55.996 44.4507 60.068 44.5961ZM67.6304 64.3748H68.2122C73.1568 64.3748 77.0835 60.3027 77.0835 55.5035C77.0835 50.7043 73.1568 46.6322 68.2122 46.6322C64.5764 46.6322 61.3769 48.6682 60.068 52.0131C58.7591 48.8136 55.4142 46.6322 51.9239 46.6322C46.9792 46.6322 43.0526 50.5588 43.0526 55.5035C43.0526 60.3027 46.9792 64.3748 51.9239 64.3748H52.2147C51.4876 66.2654 51.1967 68.156 51.0513 70.192C51.0513 74.9913 54.9779 79.0633 59.9226 79.0633C64.8673 79.0633 68.7939 75.1367 68.7939 70.192C68.6485 68.3014 68.3576 66.2654 67.6304 64.3748Z" fill="#3B3F4C"/>
</svg>
