<svg width="120" height="120" viewBox="0 0 120 120" fill="none" xmlns="http://www.w3.org/2000/svg">
<circle cx="60" cy="60" r="60" fill="#EDF0F4"/>
<path d="M68.9946 23.1453C65.2414 22.2469 61.2725 22.0578 59.124 22.0105C58.134 21.9869 57.5429 22.0105 57.5429 22.0105H35.4139C28.0465 22.0105 22 28.0481 22 35.4629V58.6942C22 58.907 22 59.0961 22.0236 59.3118C22.0236 59.5246 22 59.7137 22 59.9265C22 80.8616 38.91 97.8189 59.786 97.8189C80.662 97.8189 97.572 80.8616 97.572 59.9265C97.5956 42.1654 85.4081 27.2679 68.9946 23.1453Z" fill="#4C66FF"/>
<path fill-rule="evenodd" clip-rule="evenodd" d="M46.0409 38.1847C46.0409 35.9121 44.1997 34.065 41.933 34.065H41.9301C39.6634 34.065 37.8223 35.9091 37.8223 38.1847V51.0933C37.823 52.1947 38.2618 53.2507 39.0417 54.0284C39.8217 54.8061 40.8789 55.2418 41.9803 55.2395C43.6952 55.2399 45.2337 54.1853 45.8517 52.5857C48.9936 46.1564 56.156 42.7451 63.1279 44.3576C70.0998 45.97 75.0372 52.1796 75.0372 59.3355C75.0372 66.4914 70.0998 72.701 63.1279 74.3134C56.156 75.9258 48.9936 72.5146 45.8517 66.0853C45.8373 66.0511 45.8229 66.016 45.8083 65.9805C45.751 65.841 45.6907 65.6941 45.6153 65.5622C44.906 64.2855 43.5377 63.4315 41.9803 63.4315C39.687 63.4315 37.8223 65.2785 37.8223 67.5777C37.8403 68.4233 38.1031 69.2456 38.5788 69.9449C43.0148 78.7646 52.4695 83.8935 62.2816 82.8031C72.0936 81.7126 80.1915 74.6329 82.5828 65.0544C84.9741 55.476 81.154 45.4209 73.0059 39.8466C64.8577 34.2723 54.1017 34.3555 46.0409 40.0554V38.1847ZM66.045 59.3325C66.045 55.8305 63.2109 53.0083 59.7385 53.0083C56.2424 53.0083 53.432 55.8542 53.432 59.3325C53.4432 62.8137 56.2573 65.6357 59.7385 65.6568C63.2346 65.6568 66.045 62.8168 66.045 59.3325Z" fill="white"/>
</svg>
