<svg width="120" height="120" viewBox="0 0 120 120" fill="none" xmlns="http://www.w3.org/2000/svg">
<circle cx="60" cy="60" r="60" fill="#FD7A3D"/>
<path fill-rule="evenodd" clip-rule="evenodd" d="M96.9005 81.4085C98.8279 78.5563 97.8642 74.9118 94.9769 73.3273L94.9806 73.331C93.2145 72.2219 90.9684 72.3803 89.206 73.1726C89.1659 72.9319 89.0534 72.7093 88.8835 72.535L81.8265 60.5L88.8835 48.4612C88.9649 48.3813 89.0052 48.2611 89.0454 48.1412C89.0848 48.0234 89.1242 47.9059 89.2023 47.8274C90.9684 48.7781 93.0532 48.7781 94.9769 47.669C96.35 46.9078 97.3615 45.6233 97.7839 44.1043C98.2063 42.5852 98.0042 40.9591 97.223 39.5915C95.6181 36.7394 91.9321 35.7924 89.0448 37.377C87.2786 38.4824 86.1575 40.2254 85.9962 42.2815H71.241L64.1877 30.2465C64.0265 30.088 63.8652 29.9296 63.8652 29.7711C65.4664 28.662 66.5913 26.919 66.5913 24.859C66.5913 21.5353 63.8652 19 60.6592 19C57.4494 19 54.7234 21.69 54.7234 24.859C54.7238 26.8613 55.7555 28.7203 57.4494 29.7711L57.4387 29.7819C57.2847 29.9368 57.1307 30.0916 57.1307 30.2465L50.0737 42.2853H35.161C34.9997 40.3838 34.036 38.4824 32.1124 37.3732C29.2251 35.7886 25.5354 36.7394 23.9342 39.5915C23.1527 40.9587 22.95 42.5844 23.3717 44.1034C23.7933 45.6224 24.804 46.9072 26.1766 47.669C27.9427 48.7781 30.1888 48.6197 31.9512 47.8274C31.9913 48.0681 32.1038 48.2907 32.2737 48.465L39.3307 60.5L32.1124 72.5388C32.0311 72.6187 31.9908 72.7389 31.9506 72.8588C31.9111 72.9766 31.8717 73.0941 31.7937 73.1726C30.0276 72.2219 27.9427 72.2219 26.0191 73.331C23.1318 74.9156 22.1681 78.5563 23.773 81.4085C25.3779 84.2606 29.0639 85.2076 31.9512 83.623C33.7173 82.5176 34.8385 80.7746 34.9997 78.7185H49.755L56.8082 90.7535C56.9695 90.912 57.1307 91.0704 57.1307 91.2289C55.5296 92.3381 54.4046 94.081 54.4046 96.141C54.4046 99.4647 57.1307 102 60.3367 102C63.5465 102 66.2726 99.31 66.2726 96.141C66.2726 94.081 65.1477 92.1796 63.5465 91.2289L63.5573 91.2181C63.7113 91.0632 63.8652 90.9084 63.8652 90.7535L70.9223 78.7147H85.6775C85.8172 80.7607 86.9602 82.6025 88.726 83.6268C91.6133 85.2114 95.2993 84.2606 96.9005 81.4085ZM62.1029 50.5211C65.4701 50.5211 68.1962 53.2149 68.1962 56.5386C68.1962 58.1232 67.555 59.3908 66.7525 60.6585C67.7162 61.6092 68.1962 63.0353 68.1962 64.4614C68.1962 67.7851 65.4701 70.4789 62.1029 70.4789H54.4046C53.6022 70.4789 52.961 69.845 52.961 69.0528V51.9472C52.963 51.565 53.1165 51.1994 53.3876 50.9317C53.6587 50.6639 54.0248 50.5161 54.4046 50.5211H62.1029Z" fill="white"/>
</svg>
