<svg width="120" height="120" viewBox="0 0 120 120" fill="none" xmlns="http://www.w3.org/2000/svg">
<circle cx="60" cy="60" r="60" fill="#EDF0F4"/>
<g opacity="0.8">
<path fill-rule="evenodd" clip-rule="evenodd" d="M68.288 54.8354L49.2403 35.7877L38.6216 38.6297L52.1306 25L68.288 54.8354ZM51.712 65.1646L70.7597 84.2123L81.3703 81.3703L67.8694 95L51.712 65.1646ZM35.7877 70.7597L48.0006 44.8688L29.3071 63.5704L25 67.8694L38.6297 81.3703L35.7877 70.7597ZM65.1646 68.288L84.2204 49.2323L81.3703 38.6216L95 52.1306L65.1646 68.288Z" fill="#040000"/>
</g>
<g opacity="0.8">
<path fill-rule="evenodd" clip-rule="evenodd" d="M56.4291 29.3071L75.1226 47.9925L68.2874 54.8354L52.13 25L56.4291 29.3071ZM67.8688 95L44.8763 71.9994L51.7114 65.1646L67.8688 95ZM54.8348 51.712L48 44.8688L35.7871 70.7597L54.8348 51.712ZM94.9994 52.1306L71.9988 75.1231L65.164 68.288L94.9994 52.1306Z" fill="#323333"/>
</g>
<g opacity="0.8">
<path fill-rule="evenodd" clip-rule="evenodd" d="M67.8694 25L89.2681 30.7319L74.141 36.6896L67.8694 25ZM25 52.1306L30.74 30.7319L36.6896 45.8512L25 52.1306ZM95 67.8694L89.2681 89.2681L83.3107 74.141L95 67.8694ZM30.74 89.26L52.1306 95L45.8593 83.3027L30.74 89.26Z" fill="#555555"/>
</g>
<g opacity="0.8">
<path fill-rule="evenodd" clip-rule="evenodd" d="M52.1306 25L38.6216 38.6297L36.6896 45.8512L30.74 30.7319L52.1306 25ZM67.8694 95L81.3703 81.3703L83.3107 74.141L89.2681 89.2681L67.8694 95ZM38.6297 81.3703L25 67.8694L30.74 89.26L45.8593 83.3027L38.6297 81.3703ZM95 52.1306L81.3703 38.6216L74.141 36.6896L89.2681 30.7319L95 52.1306Z" fill="#323333"/>
</g>
<g opacity="0.8">
<path fill-rule="evenodd" clip-rule="evenodd" d="M65.1646 27.7132L67.8694 25L74.1411 36.6896L65.1646 27.7132ZM25 52.1306L36.6896 45.8512L27.7132 54.8354L25 52.1306ZM95 67.8694L83.3107 74.1411L92.2868 65.1646L95 67.8694ZM52.1306 95L54.8354 92.2868L45.8593 83.3027L52.1306 95Z" fill="#040000"/>
</g>
</svg>
