<svg width="120" height="120" viewBox="0 0 120 120" fill="none" xmlns="http://www.w3.org/2000/svg">
<circle cx="60" cy="60" r="60" fill="#35BAEB"/>
<path fill-rule="evenodd" clip-rule="evenodd" d="M45.5531 56.3969C42.4984 53.3233 39.563 50.3697 38 48.8066C38 48.1299 38 24 38.036 24L58.5084 42.3161V65.474C57.5256 65.6936 56.5861 66.0788 55.7293 66.6079C54.5465 65.4463 49.9275 60.7986 45.5531 56.3969ZM74.553 56.6831C70.9387 53.4649 66.3381 51.5713 61.5035 51.3049V65.474C62.5906 65.6504 63.6238 66.0536 64.5382 66.6655L74.553 56.6831ZM38 53.3929L53.3894 68.7823C52.7594 69.7182 52.349 70.7802 52.1834 71.8889H38V53.3929ZM38 74.9236H52.1834C52.3382 75.982 52.7522 76.9863 53.3894 77.8503L43.3746 87.9767C40.2139 84.3228 38.3276 79.7402 38 74.9236ZM76.8929 87.7175L66.8781 77.7027C67.3857 76.8171 67.7312 75.8524 67.9004 74.848H82.1559C81.8427 79.5962 79.996 84.1141 76.8929 87.7175ZM67.904 71.8925H82.0875C81.7599 67.0759 79.8736 62.4933 76.7129 58.8394L66.6945 68.8902C67.3245 69.783 67.7384 70.8126 67.904 71.8925ZM58.566 95.4536C53.7314 95.1908 49.1308 93.2973 45.5129 90.079L55.5313 80.0606C56.4457 80.6726 57.4788 81.0758 58.566 81.2522V95.4536ZM61.5035 81.2486V95.432C66.3381 95.108 70.9279 93.1929 74.5566 89.9818L64.6102 80.0354C63.667 80.6438 62.6122 81.0542 61.5035 81.2486Z" fill="white"/>
</svg>
