<svg width="120" height="120" viewBox="0 0 120 120" fill="none" xmlns="http://www.w3.org/2000/svg">
<circle cx="60" cy="60" r="60" fill="#2D2D2D"/>
<path fill-rule="evenodd" clip-rule="evenodd" d="M43.8972 72.36L15 62.8875H34.3311L36.2435 53.7262L53.4109 53.7375L57.6933 30H74.9657C86.6581 30 91.398 34.7063 89.6468 44.4187L89.2718 46.5C88.248 52.1588 85.6643 55.92 81.2244 58.0912C85.6231 60.3412 87.1006 64.5975 85.9943 70.7287L85.1393 75.4762C83.4293 84.9487 76.4619 90 65.1445 90H46.8634L51.5996 63.7762H45.8622L43.8972 72.36ZM62.8945 62.0588L59.3546 81.6712H66.6483C70.9757 81.6712 73.3794 79.7513 74.1969 75.2213L75.1157 70.1475C76.1582 64.3613 74.1557 62.0588 68.482 62.0588H62.8945ZM64.0908 55.44L67.1807 38.325H67.8745H73.1619C77.5906 38.325 79.3381 40.6537 78.4944 45.33L77.9056 48.5775C77.0394 53.3775 74.2157 55.44 69.3857 55.44H64.0908Z" fill="white"/>
</svg>
