<svg width="120" height="120" viewBox="0 0 120 120" fill="none" xmlns="http://www.w3.org/2000/svg">
<circle cx="60" cy="60" r="60" fill="#EDF0F4"/>
<path d="M25 39C25 31.3 31.3 25 39 25H81C88.7 25 95 31.3 95 39V81C95 88.7 88.7 95 81 95H39C31.3 95 25 88.7 25 81V39Z" fill="url(#paint0_linear)"/>
<path d="M53 25H46V41.1H53V25Z" fill="white"/>
<path d="M64.8125 74.6125H55.5375C50.2875 74.6125 46 70.325 46 65.075V58.25H53V64.9875C53 66.3875 54.1375 67.525 55.5375 67.525H64.8125C66.2125 67.525 67.35 66.3875 67.35 64.9875V55.8C67.35 54.4 66.2125 53.2625 64.8125 53.2625H25V46.2625H64.8125C70.0625 46.2625 74.35 50.55 74.35 55.8V65.075C74.35 70.325 70.0625 74.6125 64.8125 74.6125Z" fill="white"/>
<defs>
<linearGradient id="paint0_linear" x1="118.45" y1="62.45" x2="62.45" y2="6.45" gradientUnits="userSpaceOnUse">
<stop offset="0.1594" stop-color="#003CDA"/>
<stop offset="1" stop-color="#33DFCC"/>
</linearGradient>
</defs>
</svg>
