<svg width="120" height="120" viewBox="0 0 120 120" fill="none" xmlns="http://www.w3.org/2000/svg">
<circle cx="60" cy="60" r="60" fill="white"/>
<circle cx="90" cy="46.86" r="3" fill="url(#paint0_linear)"/>
<path fill-rule="evenodd" clip-rule="evenodd" d="M60 0C26.88 0 0 26.88 0 60C0 93.12 26.88 120 60 120C93.12 120 120 93.12 120 60C120 26.88 93.12 0 60 0ZM87.24 85.08C80.16 92.88 70.08 97.38 59.64 97.38H59.58C48.96 97.38 38.82 92.82 31.74 84.9C24.54 76.86 21.24 66.54 22.38 55.8C24.24 38.64 38.04 24.78 55.2 22.8C56.64 22.62 58.14 22.56 59.58 22.56C67.86 22.56 75.78 25.26 82.38 30.36C82.8 30.66 83.04 31.14 83.04 31.68C83.04 32.22 82.86 32.7 82.44 33.06L78.48 36.6C78.06 36.96 77.52 37.2 76.92 37.2C76.44 37.2 75.96 37.08 75.6 36.78C70.86 33.48 65.28 31.74 59.58 31.74C51.54 31.74 43.86 35.22 38.52 41.22C33.12 47.28 30.6 55.14 31.56 63.24C33 76.14 43.44 86.58 56.4 88.02C57.48 88.14 58.56 88.2 59.64 88.2C67.2 88.2 74.28 85.2 79.68 79.8C80.1 79.38 80.7 79.08 81.36 79.08C81.78 79.08 82.26 79.2 82.62 79.44L87 82.32C87.42 82.62 87.72 83.04 87.78 83.58C87.78 84.18 87.6 84.72 87.24 85.08ZM80.94 46.86C80.94 51.84 85.02 55.92 90 55.92C94.98 55.92 99.06 51.84 99.06 46.86C99.06 41.88 94.98 37.8 90 37.8C85.02 37.8 80.94 41.88 80.94 46.86Z" fill="url(#paint1_linear)"/>
<defs>
<linearGradient id="paint0_linear" x1="5.58794e-06" y1="120" x2="120" y2="120" gradientUnits="userSpaceOnUse">
<stop offset="0.05" stop-color="#F76C1D"/>
<stop offset="0.95" stop-color="#F7CC69"/>
</linearGradient>
<linearGradient id="paint1_linear" x1="-2.68e-09" y1="120" x2="120" y2="120" gradientUnits="userSpaceOnUse">
<stop offset="0.05" stop-color="#F76C1D"/>
<stop offset="0.95" stop-color="#F7CC69"/>
</linearGradient>
</defs>
</svg>
