<svg width="120" height="120" viewBox="0 0 120 120" fill="none" xmlns="http://www.w3.org/2000/svg">
<path d="M60 120C93.1371 120 120 93.1371 120 60C120 26.8629 93.1371 0 60 0C26.8629 0 0 26.8629 0 60C0 93.1371 26.8629 120 60 120Z" fill="#45CD85"/>
<path fill-rule="evenodd" clip-rule="evenodd" d="M68.6689 67.9645H73.4371V64.2202C80.4702 63.3748 85 59.2682 85 53.7123C85 45.9822 78.9205 44.2913 73.1987 43.2043V32.9378C75.9404 33.1794 78.9205 34.0249 81.6623 35.3535V29.3144C79.0397 28.3481 76.1788 27.7442 73.4371 27.6234V24H68.6689V27.6234C61.3974 28.4689 57.2252 32.5755 57.2252 37.7691C57.2252 45.6199 63.1854 47.4316 68.9073 48.5187V58.7851C65.4503 58.302 61.755 56.8526 57.4636 54.5577V60.9591C61.1589 62.7709 64.9735 63.9787 68.6689 64.2202V67.9645ZM83.0927 73.8828C79.3974 84.3908 69.5033 92 57.8212 92C43.0397 92 31 79.8011 31 64.8242C31 52.9876 38.5099 42.9627 48.8808 39.2185V46.5861C42.2053 49.8472 37.6755 56.8526 37.6755 64.8242C37.6755 76.0568 46.7351 85.2362 57.8212 85.2362C65.6887 85.2362 72.6026 80.6465 75.8212 73.8828H83.0927ZM73.1987 48.881V58.7851C76.894 58.302 79.1589 56.3694 79.1589 53.7123C79.1589 50.8135 76.5364 49.7265 73.1987 48.881ZM63.0662 37.7691C63.0662 40.7886 65.5695 41.9964 68.9073 42.7211V32.9378C65.2119 33.3002 63.0662 34.9911 63.0662 37.7691Z" fill="white"/>
</svg>
