<svg width="120" height="120" viewBox="0 0 120 120" fill="none" xmlns="http://www.w3.org/2000/svg">
<path fill-rule="evenodd" clip-rule="evenodd" d="M60 120C27 120 0 93.0006 0 59.7012C0.3 26.7019 27 -0.297518 60.3 0.00247602C93.3 0.30247 120 27.0019 120 60.6012C119.7 93.3006 93 120 60 120Z" fill="#EDF0F4"/>
<path d="M59.9569 56.25C59.0948 56.5086 58.2328 57.0259 57.5431 57.6293C56.9397 58.2328 56.5086 59.0948 56.25 59.9569C56.5086 60.819 57.0259 61.681 57.6293 62.3707C58.319 62.9741 59.0948 63.4914 59.9569 63.75C60.819 63.4914 61.681 62.9741 62.3707 62.3707C62.9741 61.7672 63.4914 60.9052 63.75 60.0431C63.4914 59.181 62.9741 58.319 62.3707 57.6293C61.681 56.9397 60.9052 56.5086 59.9569 56.25Z" fill="#172026"/>
<path fill-rule="evenodd" clip-rule="evenodd" d="M15 60C15 35.16 35.16 15 60 15C84.84 15 105 35.16 105 60C105 84.84 84.84 105 60 105C35.16 105 15 84.84 15 60ZM78.81 78.72C80.43 77.1 81.42 75.03 81.6 72.69C81.78 70.44 80.97 68.19 79.35 66.57L72.78 60L76.83 56.22L73.95 53.34L70.08 57.21L66.93 54.06L66.48 53.61C66.39 53.52 66.3225 53.43 66.255 53.34C66.1875 53.25 66.12 53.16 66.03 53.07L62.88 49.92L69.45 43.35C70.26 42.63 71.34 42.27 72.42 42.36C75.3 42.63 77.55 44.97 77.64 47.85C77.73 48.84 77.28 49.74 76.65 50.46L75.21 51.9L78.09 54.78L79.53 53.25C82.77 50.1 82.41 44.61 78.9 41.1C77.28 39.48 75.21 38.49 72.87 38.31C70.53 38.04 68.37 38.85 66.75 40.47L60.18 47.04L56.31 43.17L53.43 46.05L57.3 49.92L54.15 53.07L53.7 53.52C53.61 53.61 53.52 53.6775 53.43 53.745C53.34 53.8125 53.25 53.88 53.16 53.97L50.01 57.12L43.44 50.55C42.72 49.74 42.36 48.66 42.45 47.58C42.72 44.7 45.06 42.45 47.94 42.36C48.93 42.27 49.83 42.72 50.55 43.35L51.99 44.79L54.87 41.91L53.43 40.47C50.28 37.23 44.79 37.59 41.28 41.1C39.66 42.72 38.67 44.79 38.49 47.13C38.22 49.47 39.03 51.63 40.65 53.25L47.22 59.82L43.35 63.69L46.23 66.57L50.1 62.7L53.25 65.85L53.7 66.3C53.79 66.39 53.8575 66.48 53.925 66.57C53.9925 66.66 54.06 66.75 54.15 66.84L57.3 69.99L50.73 76.56C49.92 77.28 48.84 77.64 47.76 77.55C44.88 77.28 42.63 74.94 42.54 72.06C42.45 71.07 42.9 70.17 43.53 69.45L44.97 68.01L42.09 65.13L40.65 66.57C37.41 69.72 37.77 75.21 41.28 78.72C42.9 80.34 44.97 81.33 47.31 81.51C49.65 81.78 51.81 80.97 53.43 79.35L60 72.78L63.69 76.65L66.57 73.77L62.7 69.9L65.85 66.75L66.3 66.3C66.39 66.21 66.48 66.1425 66.57 66.075C66.66 66.0075 66.75 65.94 66.84 65.85L69.99 62.7L76.56 69.27C77.28 70.08 77.64 71.16 77.55 72.24C77.28 75.12 74.94 77.37 72.06 77.46C71.07 77.55 70.17 77.1 69.45 76.47L68.01 75.03L65.13 77.91L66.66 79.35C69.81 82.59 75.3 82.23 78.81 78.72Z" fill="#172026"/>
</svg>
