<svg width="120" height="120" viewBox="0 0 120 120" fill="none" xmlns="http://www.w3.org/2000/svg">
<circle cx="60" cy="60" r="60" fill="white"/>
<path d="M71.5473 62.8825C71.5473 62.0846 71.5473 61.6856 70.7528 61.2867C67.9721 59.292 64.794 57.2973 62.0133 55.3025C61.4121 54.8992 60.6282 54.8992 60.027 55.3025L51.2875 61.6856C50.5431 62.0669 50.0805 62.8413 50.0958 63.6803C50.0771 64.5404 49.8002 65.3747 49.3013 66.074C48.8996 66.6777 48.8996 67.465 49.3013 68.0687C52.4793 74.4518 55.26 80.8349 58.438 87.218C59.6298 89.2127 60.4243 91.6063 61.616 94C62.0133 93.6011 62.0133 93.2021 62.4105 92.8032C65.9858 84.8243 69.1638 76.8455 72.7391 68.8666C73.1363 68.0687 73.1363 67.6698 72.3418 67.2708C71.4375 66.0007 71.1461 64.391 71.5473 62.8825Z" fill="#CD0124"/>
<path d="M58 52.3901C50 46.7935 42 41.1969 34.4 36L34 36.3998C34.4 37.1993 34.4 37.599 34.8 38.3985L43.2 56.3877C44 57.9867 44.4 59.5857 46.8 59.9855C47.4913 60.0477 48.1858 59.9089 48.8 59.5857C51.2 57.5869 54 55.9879 56.4 53.9891L58 52.3901Z" fill="#CD0124"/>
<path fill-rule="evenodd" clip-rule="evenodd" d="M0 60C0 26.8629 26.8629 0 60 0C75.913 0 91.1742 6.32141 102.426 17.5736C113.679 28.8258 120 44.087 120 60C120 93.1371 93.1371 120 60 120C26.8629 120 0 93.1371 0 60ZM90.8 36C91.2 35.2 91.6 34.8 92.4 34.8C94.9558 34.4022 96.8308 32.1864 96.8 29.6C96.6307 27.4379 95.2282 25.5679 93.2 24.8C91.0954 24.0084 88.727 24.8543 87.6 26.8C87.2 28 86.4 28 85.6 28H34.8C33.6 28 33.2 28 32.8 27.2C31.5395 25.1793 29.0208 24.3397 26.8 25.2C24.7339 26.138 23.3507 28.1359 23.2 30.4C23.3293 32.8467 25.1738 34.8589 27.6 35.2C28.8 35.2 29.2 35.6 29.2 36C33.2 44 36.8 51.6 40.4 59.6C40.8045 60.2053 40.8045 60.9947 40.4 61.6C39.5649 63.0544 39.4951 64.8256 40.213 66.3412C40.931 67.8568 42.3456 68.9248 44 69.2C44.8858 69.3793 45.6306 69.9751 46 70.8C48 74.8 49.9 78.8 51.8 82.8C53.7 86.8 55.6 90.8 57.6 94.8C57.9982 95.5504 57.9982 96.4496 57.6 97.2C56.9093 98.2075 56.6476 99.4483 56.8727 100.649C57.0979 101.849 57.7912 102.911 58.8 103.6C60.7339 105.084 63.4659 104.913 65.2 103.2C67.2017 101.49 67.5502 98.5277 66 96.4C65.5956 95.7947 65.5956 95.0053 66 94.4C69.2 86.4 72.8 78 76.4 70C76.8 69.2 77.2 68.8 77.6 68.8C79.0489 68.363 80.2356 67.3164 80.8502 65.9334C81.4649 64.5505 81.4465 62.9683 80.8 61.6V60C82.4 56 84.1 51.9999 85.8 47.9999C87.5 43.9999 89.2 40 90.8 36Z" fill="#CD0124"/>
<path d="M60 49.695C60.6005 50.1017 61.3836 50.1017 61.9841 49.695C69.5238 44.0648 77.0635 38.8367 84.2063 33.2065C84.6032 32.8043 85 32.8043 85 32.4022V32H35C35.454 32.1688 35.8621 32.4445 36.1905 32.8043L60 49.695Z" fill="#CD0124"/>
<path d="M64 52.4749C67.1429 54.8557 70.2857 56.8397 73.4286 58.8236C74.2143 59.2204 75.3929 58.8236 76.5714 58.8236C76.9643 58.8236 77.3571 58.0301 77.3571 57.6333C80.1071 51.2846 82.8571 44.5391 85.6071 38.1904C85.6071 37.7936 86 37.3968 86 37H85.6071C78.9286 41.7615 71.4643 46.9198 64 52.4749Z" fill="#CD0124"/>
</svg>
