<svg width="120" height="120" viewBox="0 0 120 120" fill="none" xmlns="http://www.w3.org/2000/svg">
<circle cx="60" cy="60" r="60" fill="#EDF0F4"/>
<path fill-rule="evenodd" clip-rule="evenodd" d="M30.9688 60C30.9688 76.5432 44.3832 90 60.874 90C74.3308 90 85.7348 81.04 89.48 68.7508H99.7868C95.8096 86.6332 79.8976 100 60.874 100C38.8524 100 21 82.0916 21 60C21 37.9084 38.8524 20 60.874 20C79.8976 20 95.8096 33.3668 99.7864 51.2488H89.4796C85.7372 38.9624 74.3308 30.0024 60.874 30.0024C44.3852 30.0024 30.9688 43.4568 30.9688 60ZM70.2172 54.6876C70.2206 58.2666 68.1869 61.5355 64.9748 63.114H64.9744V74.688H56.7744V63.1136C53.5597 61.5374 51.5239 58.2675 51.528 54.6872C51.528 49.5108 55.7152 45.316 60.8736 45.316C66.032 45.316 70.2172 49.5112 70.2172 54.6876Z" fill="#3AB03E"/>
</svg>
