<svg width="120" height="120" viewBox="0 0 120 120" fill="none" xmlns="http://www.w3.org/2000/svg">
<path d="M60 120C93.138 120 120 93.138 120 60C120 26.862 93.138 0 60 0C26.862 0 0 26.862 0 60C0 93.138 26.862 120 60 120Z" fill="#EDF0F4"/>
<path fill-rule="evenodd" clip-rule="evenodd" d="M53.8608 54.7338C55.4462 69.2054 58.0062 84.6072 58.4814 87.4174C59.1243 87.3505 59.7701 87.3172 60.4164 87.3175H60.7647C61.2647 84.2823 63.6299 69.2004 65.1203 55.4839C66.6755 41.1775 66.7957 26.9808 66.7957 22.9803V22.33C65.5307 21.205 62.6003 19 59.0106 19C55.421 19 52.5558 21.205 51.3057 22.33V22.9555C51.4357 25.6609 52.1359 38.9922 53.8608 54.7392V54.7342V54.7338ZM68.1475 22.9758C68.1475 27.001 68.0224 41.2625 66.4622 55.6392L66.4613 55.6396C65.1216 67.947 63.0722 81.3435 62.329 86.2016L62.329 86.2017C62.2539 86.6926 62.1921 87.0964 62.1458 87.403C62.7915 87.4652 63.4328 87.5671 64.066 87.7081C65.3314 85.0828 71.6669 71.9112 74.5672 62.0152C77.8878 50.6837 79.803 35.5772 79.8579 29.4666V28.3663C78.7437 26.641 76.3533 23.4906 73.2428 22.6405C70.5275 21.9003 68.9476 22.2202 68.1475 22.5654V22.9758ZM67.2722 88.8178C66.6541 88.5199 66.0158 88.2659 65.362 88.0578H65.3579C66.8884 84.9123 72.994 72.111 75.8493 62.3748C79.1946 50.9285 81.1399 35.6469 81.1948 29.4612V29.4063C83.5981 29.4292 85.9391 30.173 87.9147 31.5416C90.7799 33.4068 92.255 36.9623 92.8701 38.8725L92.5853 39.9975C91.8851 42.748 86.7146 56.9194 81.1588 67.6007C76.4482 76.6565 68.9125 86.6727 67.2722 88.8178ZM68.467 89.473C69.2498 89.9497 69.9849 90.5006 70.6621 91.1182L70.9644 90.8163C73.4025 88.382 81.3406 80.4563 86.6889 73.7162C93.15 65.5752 99.5761 54.1452 100.626 51.6702L101.171 50.38C101.021 48.7397 100.566 46.1347 99.1706 44.2042C97.8051 42.4525 95.9679 41.1271 93.875 40.3836C92.9952 43.7825 87.6447 58.0602 82.3738 68.2302C77.7033 77.156 70.3588 86.9823 68.4625 89.4703H68.4674L68.467 89.473ZM55.1609 88.1127C53.9099 85.4122 48.3402 73.1758 44.5948 60.9096C40.4192 47.2381 38.0239 34.5417 37.5248 30.5363C37.4997 30.3422 37.4763 30.1569 37.454 29.9798L37.4539 29.9792L37.4539 29.979L37.4538 29.9782L37.4538 29.9779L37.4537 29.9771L37.4536 29.9769L37.4535 29.9761C37.4225 29.7303 37.3936 29.5006 37.3646 29.2861C38.4375 26.7804 40.3654 24.7372 42.8047 23.5207C46.1901 21.9606 48.805 22.4056 50.0353 22.7305V23.0005C50.1055 25.7158 50.8102 39.0975 52.5355 54.8841C54.116 69.3305 56.6612 84.6922 57.1611 87.6127C56.484 87.7349 55.8158 87.9019 55.1609 88.1127ZM48.7551 94.6584C49.7451 93.028 53.0904 88.6576 60.4164 88.6576V88.659V88.6639C67.6925 88.6639 71.0423 93.1446 72.0575 94.8546C66.5419 98.78 62.0513 101.215 60.4713 101.215C58.8914 101.215 54.9512 99.2039 48.7551 94.6584ZM101.811 52.2687C100.651 54.9291 94.2003 66.3902 87.7262 74.551C82.0903 81.6515 73.6497 90.0526 71.5945 92.0529C72.1632 92.6726 72.6753 93.342 73.1245 94.0531C77.5238 90.8343 81.719 87.3455 85.6859 83.6068C96.2654 73.606 104.685 63.7302 104.977 58.7442C105.187 56.1689 103.972 53.6847 101.811 52.2687ZM49.9737 91.1173C43.6149 85.5294 37.7297 79.4246 32.3786 72.8652C25.7096 64.6851 21.102 57.409 18.6922 51.3007C18.3649 50.4738 18.0547 49.6403 17.7621 48.8005C17.7579 47.3234 18.1149 45.8677 18.802 44.5601C20.3469 41.7251 24.2525 40.43 25.8027 40.0151V40.0425L25.9575 40.6374L25.9619 40.6531C27.0899 44.6421 29.7236 53.9566 36.632 67.4094C40.7329 75.4392 45.6871 83.0038 51.4087 89.9721C50.9059 90.3221 50.4265 90.7047 49.9737 91.1173ZM31.3387 73.7153C24.8379 65.7143 20.2475 58.5736 17.7171 52.468C16.7671 53.3032 14.7966 55.528 15.0171 59.4687C15.3019 64.6392 22.7279 72.8153 36.3044 84.5766C40.6649 88.3566 44.4652 91.4274 47.7007 93.8466C48.1001 93.218 48.5517 92.6242 49.0507 92.0713C42.6514 86.4498 36.726 80.3106 31.3346 73.7162H31.3396L31.3387 73.7153ZM37.8281 66.7776C30.9683 53.4441 28.3632 44.2127 27.2531 40.2725L27.0776 39.6569C26.9075 39.0471 26.7725 38.5467 26.6676 38.1269C27.0177 36.4565 27.8678 33.9518 29.963 32.4065C31.7584 31.0787 33.9585 30.4143 36.1888 30.5264V30.6812C36.6991 34.7267 39.1093 47.5301 43.3087 61.2867C47.0343 73.4831 52.5499 85.6548 53.9 88.5699C53.4403 88.7661 52.9913 88.9865 52.5549 89.23C46.8444 82.3035 41.9062 74.7749 37.8281 66.7776Z" fill="url(#paint0_linear)"/>
<defs>
<linearGradient id="paint0_linear" x1="4.78102" y1="52.3433" x2="50.146" y2="111.09" gradientUnits="userSpaceOnUse">
<stop stop-color="white"/>
<stop offset="0.16" stop-color="#D5AC51"/>
<stop offset="0.18" stop-color="#D2A644"/>
<stop offset="0.26" stop-color="#CC9B2E"/>
<stop offset="0.29" stop-color="#E6DE5F"/>
<stop offset="0.45" stop-color="#9D9A62"/>
<stop offset="0.63" stop-color="#787864"/>
<stop offset="0.7" stop-color="#517E69" stop-opacity="0.96"/>
<stop offset="0.89" stop-color="#4F99CA"/>
</linearGradient>
</defs>
</svg>
