<svg width="120" height="120" viewBox="0 0 120 120" fill="none" xmlns="http://www.w3.org/2000/svg">
<circle cx="60" cy="60" r="60" fill="#FF3A00"/>
<path fill-rule="evenodd" clip-rule="evenodd" d="M101 60.5113C101.008 37.6599 82.4005 19.0377 59.5113 19C36.6373 19 18.0113 37.5995 18 60.4472C17.9887 83.3363 36.5845 101.977 59.4472 102H59.4849C82.3703 102 100.992 83.3891 101 60.5113ZM23.3799 60.4925C23.3875 40.5649 39.5913 24.3497 59.5 24.3497H59.5075C69.0957 24.3295 78.2933 28.1471 85.0489 34.9511C91.8488 41.708 95.66 50.9063 95.6314 60.4925C95.6163 80.4125 79.386 96.6201 59.4547 96.6201C39.5574 96.605 23.3761 80.3974 23.3799 60.4925ZM77.3375 56.7914C78.6164 63.2767 76.9715 68.7245 72.3122 73.4555L71.6708 74.1007L70.8559 73.7008C70.4048 73.4801 69.9468 73.2738 69.4826 73.082L67.6378 72.3124L69.1242 70.9769C72.0255 68.3737 73.5685 64.9745 73.7156 60.8773C73.8666 56.7801 72.4141 53.2073 69.4034 50.2608C66.7646 47.6718 63.2119 46.2269 59.5151 46.2391C55.4276 46.2359 51.5369 47.9943 48.8383 51.0644C45.8276 54.4976 44.677 58.6778 45.5183 63.1485C46.0384 66.1061 47.5149 68.8113 49.7211 70.8486L51.1811 72.203L49.3363 72.9462C48.876 73.1311 48.3931 73.331 47.8762 73.5499L47.084 73.8819L46.4803 73.2669C43.3754 70.0676 41.6927 66.3855 41.3419 62.0091C40.5986 52.7848 46.5784 44.6583 55.5651 42.689C56.8907 42.3956 58.2442 42.2463 59.6019 42.2438C68.2225 42.2521 75.6412 48.3386 77.3337 56.7914H77.3375ZM30.7141 51.004C26.6773 63.2956 31.1932 74.312 36.7618 80.5219L37.6786 81.5518L41.1344 77.8319L40.3949 76.9755C37.7869 73.9734 35.9369 70.3898 34.9999 66.525C33.8736 62.0119 34.0304 57.2739 35.4526 52.8451C36.8525 48.3896 39.4793 44.4187 43.0321 41.3874C47.6173 37.4348 53.4689 35.2593 59.5226 35.2567C66.1132 35.2345 72.4442 37.8241 77.13 42.4588C81.7704 47.0314 84.3057 52.5848 84.6679 58.9607C85.0565 65.9403 82.906 72.1275 78.2731 77.3452L77.5261 78.1865L80.9102 81.9668L81.8534 80.9595C89.2593 73.0141 91.7417 61.1225 88.1727 50.6645C83.9766 38.4013 72.4424 30.1673 59.4811 30.1824C46.4038 30.1885 34.8057 38.5832 30.7141 51.004Z" fill="white"/>
</svg>
