<svg width="120" height="120" viewBox="0 0 120 120" fill="none" xmlns="http://www.w3.org/2000/svg">
<path d="M60 120C93.138 120 120 93.138 120 60C120 26.862 93.138 0 60 0C26.862 0 0 26.862 0 60C0 93.138 26.862 120 60 120Z" fill="#EDF0F4"/>
<path fill-rule="evenodd" clip-rule="evenodd" d="M14 59.4969C13.9983 84.6235 34.3642 104.995 59.4908 105C71.5613 105.002 83.1382 100.209 91.6734 91.6734C100.209 83.1382 105.002 71.5613 105 59.4908C104.995 34.3642 84.6235 13.9983 59.4969 14C34.3704 14.0017 14.0017 34.3704 14 59.4969ZM101.439 59.5031C101.437 82.6693 82.657 101.448 59.4908 101.448V101.402C36.3398 101.397 17.5679 82.6417 17.5425 59.4908C17.5475 36.3246 36.3307 17.5483 59.4969 17.5517C82.6632 17.5551 101.441 36.3368 101.439 59.5031Z" fill="black"/>
<circle cx="60" cy="60" r="4" fill="black"/>
</svg>
