<svg width="120" height="120" viewBox="0 0 120 120" fill="none" xmlns="http://www.w3.org/2000/svg">
<circle cx="60" cy="60" r="60" fill="#77C3B0"/>
<path fill-rule="evenodd" clip-rule="evenodd" d="M95.9664 49.9282L89.6527 43.6195C87.7364 41.695 85.1282 40.6181 82.4113 40.6295H81.4388V39.6204C81.4388 37.8526 81.0199 36.1708 80.1372 34.6572C79.6828 33.7793 79.0849 32.9835 78.368 32.3026L72.0543 25.9901C70.137 24.0648 67.5273 22.9878 64.8092 23.0002H35.7166C32.9787 23.0002 30.4128 24.0542 28.4753 25.9901L22.1615 32.2989C20.2297 34.1928 19.1498 36.7891 19.1692 39.4934L19.0009 66.7577C18.9635 69.4898 20.0557 72.1396 21.9932 74.0756L28.307 80.388C30.2237 82.3114 32.8319 83.387 35.5483 83.3742H36.6854V84.3833C36.6854 86.1511 37.108 87.8329 37.9908 89.3466C38.4546 90.2324 39.0418 91.0284 39.76 91.7012L46.0737 98.0174C47.9922 99.9376 50.5996 101.012 53.315 101H82.4525C85.1904 101 87.7563 99.9496 89.6938 98.0136L96.0113 91.7049C97.9341 89.7883 99.0102 87.1831 98.9999 84.4693V57.1227C98.9854 54.4178 97.8955 51.8296 95.9702 49.9282H95.9664ZM35.5483 74.1167C35.2811 74.117 35.0245 74.0123 34.8339 73.8252L31.677 70.667L28.5164 67.5127C28.3808 67.3534 28.2802 67.1676 28.2209 66.967V39.5382C28.2209 39.2392 28.3481 38.9888 28.5202 38.8206L34.8339 32.5119C34.913 32.4292 34.9956 32.3881 35.075 32.3485L35.0845 32.3437C35.2405 32.2624 35.4135 32.2189 35.5894 32.2166H64.7269C64.8952 32.2166 65.0224 32.2578 65.1907 32.3437C65.3081 32.3817 65.3872 32.4578 65.4664 32.534L65.4862 32.553L71.7999 38.8655C71.8922 38.9444 71.964 39.0444 72.0094 39.157C72.0543 39.2019 72.0543 39.243 72.0543 39.2841C72.0543 39.3046 72.0636 39.3261 72.073 39.3476C72.0823 39.3691 72.0917 39.3906 72.0917 39.4111C72.0917 39.4282 72.0994 39.4599 72.1084 39.4971L72.1084 39.4972C72.1212 39.5498 72.1366 39.6134 72.1366 39.6616V41.007C72.1366 41.5975 71.6728 42.0161 71.1267 42.0161H66.0772C65.8087 42.0174 65.5505 41.9127 65.359 41.7246L62.4939 38.8655H37.8224L36.7714 39.912L35.3388 41.3471V65.031L37.8224 67.5127H62.4528L65.3179 64.6125L65.3553 64.5676C65.3997 64.5464 65.4441 64.5132 65.488 64.4804C65.5291 64.4497 65.5698 64.4193 65.6096 64.3994C65.7368 64.3172 65.9088 64.3172 66.0323 64.3172H71.0818C71.4184 64.3172 71.7176 64.4854 71.9271 64.7358C72.0581 64.9053 72.1315 65.1122 72.1366 65.3263V66.7577C72.1359 67.0253 72.0297 67.2817 71.8411 67.4716L68.6842 70.6259L65.5273 73.7803C65.5055 73.8041 65.4712 73.8268 65.4375 73.849L65.4375 73.849C65.4076 73.8687 65.3784 73.8881 65.359 73.9074C65.359 73.9074 65.3179 73.9485 65.273 73.9485C65.2318 73.9933 65.1907 73.9933 65.1458 73.9933C65.1084 73.9933 65.1084 73.9933 65.0635 74.0344C65.043 74.0344 65.0214 74.0447 64.9999 74.055C64.9784 74.0653 64.9569 74.0756 64.9364 74.0756H35.5483V74.1167ZM89.4806 85.0972C89.6707 84.9079 89.7782 84.6514 89.7799 84.3833C89.7799 84.3833 89.7799 57.1227 89.735 57.2049V56.9956C89.6979 56.8621 89.6412 56.7349 89.5667 56.6182C89.5313 56.5443 89.4932 56.5035 89.4594 56.4674C89.4539 56.4615 89.4485 56.4557 89.4432 56.45L86.2826 53.2956L83.1257 50.1412C82.9574 49.9693 82.7031 49.8422 82.4113 49.8422H53.0644C53.0439 49.8422 53.0224 49.8535 53.0008 49.8647C52.9793 49.8759 52.9578 49.8871 52.9373 49.8871C52.9101 49.912 52.8993 49.9218 52.8868 49.9257C52.8786 49.9282 52.8697 49.9282 52.855 49.9282C52.8101 49.9282 52.7689 49.9282 52.7278 49.973C52.6867 49.973 52.6418 50.0104 52.6418 50.0104C52.6189 50.0353 52.5834 50.0591 52.5486 50.0823C52.5208 50.1009 52.4934 50.1192 52.4735 50.1375L49.3166 53.2956L46.1597 56.45C45.9704 56.6393 45.8641 56.8961 45.8642 57.1638V58.5952C45.8701 58.8081 45.9435 59.0135 46.0737 59.182C46.2775 59.4428 46.588 59.5979 46.919 59.6043H51.9685C52.0957 59.6043 52.264 59.6043 52.3912 59.5184C52.4344 59.4968 52.4787 59.4638 52.5229 59.4309C52.5629 59.4012 52.6027 59.3715 52.6418 59.3502L52.6867 59.3091L55.548 56.4051H80.1372L82.6208 58.8905V82.5744L81.1882 84.0058L80.1372 85.056H55.5069L52.6418 82.1969C52.4735 82.0288 52.2229 81.9017 51.9236 81.9017H46.8741C46.328 81.9017 45.8642 82.324 45.8642 82.9108V84.2562C45.8642 84.3071 45.8799 84.3722 45.8927 84.4255C45.9016 84.4624 45.9091 84.4936 45.9091 84.5104C45.9091 84.5305 45.9181 84.5506 45.9272 84.5712C45.9368 84.5926 45.9465 84.6146 45.9465 84.6375C45.9465 84.6786 45.9465 84.7234 45.9914 84.7608C46.0325 84.8879 46.1186 84.9738 46.2009 85.056L52.5183 91.3685C52.5973 91.4607 52.6974 91.5325 52.8101 91.5778C52.9514 91.6588 53.111 91.7025 53.2739 91.7049H82.4113C82.5873 91.7027 82.7603 91.6592 82.9163 91.5778C83.0088 91.5364 83.0935 91.4795 83.1669 91.4096L89.4806 85.0972Z" fill="white"/>
</svg>
