<svg width="120" height="120" viewBox="0 0 120 120" fill="none" xmlns="http://www.w3.org/2000/svg">
<circle cx="60" cy="60" r="60" fill="#EDF0F2"/>
<circle cx="59.9832" cy="60.0158" r="44.9734" fill="#C8D2D9"/>
<path d="M88.5355 94.7216C81.6787 100.383 73.2748 103.864 64.4137 104.708C52.5638 105.868 40.7139 102.282 31.466 94.7216C22.2533 87.1615 16.4163 76.261 15.2208 64.3759C14.3417 55.5149 16.0998 46.6187 20.2842 38.7773C24.4686 30.936 30.9034 24.5012 38.7448 20.3168C46.5861 16.1324 55.4823 14.3391 64.3434 15.2181C73.2044 16.0972 81.5732 19.5432 88.4652 25.2044L79.3931 36.2807C74.7165 32.448 68.9849 30.0569 62.9369 29.4943C56.8888 28.8965 50.8408 30.1272 45.496 32.9754C40.1513 35.8236 35.7911 40.219 32.9077 45.5638C30.0595 50.9085 28.864 56.9917 29.4617 63.0046C30.2705 71.0921 34.2439 78.5466 40.5381 83.6804C46.8322 88.8493 54.9197 91.2756 63.0072 90.4669C69.0552 89.8691 74.7516 87.478 79.4283 83.6452L88.5355 94.7216Z" fill="url(#paint0_linear)"/>
<path d="M60.1242 96.8314C80.4132 96.8314 96.8343 80.3751 96.8343 60.1213C96.8343 39.8322 80.4132 23.376 60.1242 23.376C39.8352 23.376 23.3789 39.8322 23.3789 60.1213C23.3789 80.4103 39.8352 96.8314 60.1242 96.8314Z" fill="white"/>
<path fill-rule="evenodd" clip-rule="evenodd" d="M63.4297 61.1058C63.2187 61.1058 62.2342 61.1761 59.9837 61.1761C58.1904 61.1761 56.9246 61.1058 56.4674 61.1058C49.5403 60.7893 44.4066 59.629 44.4066 58.1873C44.4066 56.7456 49.5755 55.5852 56.4674 55.2687V59.9454C56.9246 59.9806 58.2256 60.0509 60.0189 60.0509C62.1638 60.0509 63.2539 59.9454 63.4297 59.9454V55.3039C70.3216 55.6204 75.4906 56.7808 75.4906 58.2224C75.4906 59.629 70.3568 60.8245 63.4297 61.1058ZM63.4297 54.8116V50.6624H73.0644V44.3331H46.868V50.6624H56.5026V54.8116C48.6613 55.1633 42.7891 56.7104 42.7891 58.5389C42.7891 60.3674 48.6613 61.9145 56.5026 62.2662V75.5929H63.4649V62.2662C71.271 61.9145 77.1433 60.3674 77.1433 58.5389C77.1433 56.7104 71.271 55.1633 63.4297 54.8116Z" fill="#283947"/>
<defs>
<linearGradient id="paint0_linear" x1="15.362" y1="28.6011" x2="35.9701" y2="105.01" gradientUnits="userSpaceOnUse">
<stop stop-color="#27D3A2"/>
<stop offset="1" stop-color="#9388FD"/>
</linearGradient>
</defs>
</svg>
