<svg width="121" height="122" viewBox="0 0 121 122" fill="none" xmlns="http://www.w3.org/2000/svg">
<path d="M60 122C93.138 122 120 95.138 120 62C120 28.862 93.138 2 60 2C26.862 2 0 28.862 0 62C0 95.138 26.862 122 60 122Z" fill="white"/>
<path fill-rule="evenodd" clip-rule="evenodd" d="M1 60C1 26.8629 27.8629 0 61 0C76.913 0 92.1742 6.32141 103.426 17.5736C114.679 28.8258 121 44.087 121 60C121 93.1371 94.1371 120 61 120C27.8629 120 1 93.1371 1 60ZM86.872 83.872L65.832 62.832V62.96C65.4585 62.5916 65.1644 62.1505 64.968 61.664C64.7507 61.1589 64.6417 60.6138 64.648 60.064C64.645 59.516 64.7482 58.9727 64.952 58.464C65.1523 57.9796 65.4459 57.5392 65.816 57.168L86.872 36.112C87.6783 35.3237 88.1112 34.2295 88.0623 33.1028C88.0135 31.9762 87.4875 30.9236 86.616 30.208C71.0687 17.875 48.6507 19.5756 35.1418 34.1129C21.633 48.6501 21.5787 71.1325 35.0173 85.7348C48.4558 100.337 70.8654 102.146 86.472 89.888C87.3869 89.1847 87.9551 88.1218 88.0317 86.9704C88.1082 85.819 87.6858 84.6902 86.872 83.872Z" fill="#69E2DC"/>
</svg>
