<svg width="120" height="120" viewBox="0 0 120 120" fill="none" xmlns="http://www.w3.org/2000/svg">
<circle cx="60" cy="60" r="60" fill="#EDF0F4"/>
<circle cx="60" cy="60" r="45" fill="#0F1529"/>
<path fill-rule="evenodd" clip-rule="evenodd" d="M35.3417 58.1192L35.3413 58.1185L35.4671 57.9602C35.8047 58.0283 36.142 58.0975 36.4793 58.1666C37.2341 58.3215 37.9888 58.4762 38.7462 58.6189C41.1419 59.0684 43.5404 59.1843 45.9277 58.6047C48.9691 57.8669 51.5577 56.2499 53.8668 54.107C56.4498 51.7098 58.4038 48.7867 60.3438 45.8353C61.2132 44.5123 61.4564 43.3759 60.4249 42.0981C60.2998 41.9433 60.1922 41.7733 60.0654 41.5731C60.0023 41.4735 59.9345 41.3664 59.8574 41.25L59.4297 42.0246C57.6714 45.2247 55.7313 48.2948 53.3412 51.0313C51.8485 52.736 50.1908 54.2314 48.178 55.2463C44.9437 56.8775 41.5919 56.7785 38.1982 55.9248C35.5538 55.2633 33.0574 54.1777 30.589 53.0102C30.3248 52.8849 30.0571 52.768 29.7889 52.6509C29.6456 52.5883 29.5021 52.5257 29.359 52.4617L29.25 52.6087C29.2856 52.6799 29.3203 52.7518 29.3549 52.8237C29.4401 53.0003 29.5253 53.177 29.6246 53.3438L32.543 58.3051C33.1084 59.2666 33.6738 60.2282 34.2393 61.1899C37.2745 66.3521 40.3104 71.5154 43.3503 76.6747C43.858 77.5342 44.0618 77.9163 44.3441 77.9875C44.6292 78.0594 44.9942 77.8144 45.8326 77.4238C46.607 77.0648 46.607 77.0422 46.1597 76.2902L36.7558 60.5158C36.2807 59.7188 35.8112 58.919 35.3417 58.1192ZM84.1739 57.8907C84.3307 57.8567 84.5013 57.8197 84.6922 57.7764C84.6243 57.9063 84.5713 58.0108 84.5265 58.0993C84.4532 58.2439 84.4018 58.3454 84.3428 58.4436C83.8873 59.202 83.4288 59.959 82.9703 60.7162C82.323 61.7849 81.6756 62.854 81.0358 63.9279C78.9923 67.3542 76.96 70.7861 74.9277 74.218C74.6985 74.6025 74.4553 74.8032 73.9968 74.5629C70.7933 72.9007 67.3129 72.3805 63.8214 71.9847C60.0908 71.5623 56.3183 71.7177 52.634 72.4455C51.9751 72.5737 51.6431 72.6296 51.5482 72.8102C51.4526 72.9919 51.5973 73.3 51.8904 73.9353C52.4243 75.0944 52.6228 75.1905 53.741 74.9955C60.8918 73.7516 67.8189 74.3764 74.4329 77.6613C75.4337 78.156 75.649 78.0825 76.2248 77.1044C80.9156 69.1408 85.6008 61.1744 90.286 53.2081C90.3806 53.0486 90.4668 52.8821 90.5839 52.6561C90.6329 52.5616 90.6873 52.4566 90.75 52.3374C90.6175 52.3905 90.5201 52.4271 90.4438 52.4558C90.3414 52.4943 90.2769 52.5186 90.2161 52.5494C87.0069 54.1579 83.7334 55.5912 80.1888 56.1905C77.6812 56.6174 75.1849 56.7559 72.7333 55.8117C70.237 54.8477 68.3444 53.0413 66.5749 51.0567L65.3477 49.6941L64.4392 51.1839C64.0842 51.7663 64.196 52.2752 64.6628 52.7218C64.9359 52.9852 65.2068 53.2515 65.4777 53.5179C66.1607 54.1894 66.844 54.8612 67.5645 55.4866C70.0553 57.6407 72.8787 58.9779 76.1661 59.1051C78.6261 59.1984 81.005 58.7037 83.3672 58.0789C83.6163 58.0117 83.8691 57.9569 84.1739 57.8907Z" fill="white"/>
</svg>
