<svg width="120" height="120" viewBox="0 0 120 120" fill="none" xmlns="http://www.w3.org/2000/svg">
<circle cx="60" cy="60" r="60" fill="#2992FB"/>
<path fill-rule="evenodd" clip-rule="evenodd" d="M72.2807 46.57L71.1307 47.72C68.2835 45.3619 64.6976 44.0804 61.0007 44.1C52.6285 44.1007 45.6837 50.5782 45.1007 58.93H43.4507C44.0073 49.6531 51.7071 42.4227 61.0007 42.45C65.1282 42.4713 69.1197 43.9279 72.2907 46.57H72.2807ZM61.0007 48.3C64.7808 48.2996 68.3335 50.1057 70.5607 53.16L71.7107 52C68.2523 47.3898 62.232 45.5096 56.7646 47.3323C51.2972 49.1551 47.6094 54.2718 47.6094 60.035C47.6094 65.7983 51.2972 70.9149 56.7646 72.7377C62.232 74.5604 68.2523 72.6803 71.7107 68.07L70.5607 66.92C67.3195 71.4489 61.3477 73.0862 56.2499 70.8436C51.1521 68.601 48.3239 63.0925 49.4723 57.6429C50.6208 52.1934 55.4315 48.2947 61.0007 48.3ZM73.6107 47.81L72.4507 49C72.8307 49.3926 73.1879 49.8067 73.5207 50.24L74.6707 49C74.3381 48.5665 73.9808 48.1525 73.6007 47.76L73.6107 47.81ZM43.3607 61.15C43.7726 67.7709 47.8783 73.5954 53.9756 76.2085C60.0729 78.8216 67.1222 77.7779 72.2007 73.51L71.0007 72.36C68.1669 74.7166 64.5963 76.0046 60.9107 76C52.5275 76.0039 45.5739 69.5136 45.0007 61.15H43.3607ZM72.4407 71.15L73.5907 72.3C73.976 71.8883 74.3366 71.4542 74.6707 71L73.5207 69.85C73.188 70.2834 72.8307 70.6974 72.4507 71.09L72.4407 71.15ZM61.0007 79.94C49.9881 79.94 41.0607 71.0126 41.0607 60C41.0607 48.9875 49.9881 40.06 61.0007 40.06C66.9362 40.057 72.5596 42.7182 76.3207 47.31L77.4707 46.16C71.041 38.5082 60.1954 36.2786 51.2686 40.7733C42.3417 45.268 37.6743 55.3085 39.9924 65.0305C42.3104 74.7525 51.0062 81.6068 61.0007 81.59C67.3781 81.6079 73.427 78.7633 77.4807 73.84L76.3307 72.69C72.5912 77.3149 66.9481 79.9837 61.0007 79.94Z" fill="white"/>
</svg>
