<svg width="120" height="120" viewBox="0 0 120 120" fill="none" xmlns="http://www.w3.org/2000/svg">
<circle cx="60" cy="60" r="57" fill="white"/>
<circle cx="60" cy="60" r="60" fill="url(#paint0_linear)"/>
<path d="M59.4898 74C55.8852 74 52.4991 72.5804 49.9595 70.0415C47.3927 67.4752 46 64.1173 46 60.4864C46 56.8827 47.42 53.4975 49.9595 50.9585C52.5264 48.3923 55.9125 47 59.5171 47C63.1216 47 66.5077 48.3923 69.0473 50.9312C74.3176 56.2002 74.3176 64.7725 69.0473 70.0415C66.5077 72.5804 63.0943 74 59.4898 74Z" fill="#FEFEFE"/>
<path d="M24.2642 73C20.7271 73 17.4043 71.6324 14.8855 69.1116C12.3934 66.5908 11 63.2924 11 59.7526C11 56.2128 12.3934 52.8875 14.8855 50.3936C15.9841 49.2673 17.4043 48.3555 18.8513 47.7119C26.4883 44.3062 32.2227 50.1254 41.2531 40.8201C51.0337 30.7638 42.7804 22.4775 50.3906 14.8884C52.9095 12.3676 56.2322 11 59.7693 11C63.3064 11 66.6292 12.3945 69.1212 14.8884C74.2929 20.064 74.2929 28.4844 69.1212 33.66C61.5111 41.2223 52.7755 32.8824 42.7536 43.2067C33.1606 53.1021 41.3334 61.3884 33.6161 69.1652C31.124 71.6324 27.8013 73 24.2642 73Z" fill="#FEFEFE"/>
<path d="M60.2685 109C56.7302 109 53.4064 107.606 50.8867 105.112C48.3671 102.618 47 99.2924 47 95.7526C47 92.2128 48.3671 88.8875 50.8867 86.3936C51.9857 85.2941 53.4064 84.3555 54.8539 83.7119C62.4933 80.3062 68.2296 86.1522 77.2629 76.8469C87.0467 66.7907 78.7907 58.4775 86.4034 50.8884C88.923 48.3676 92.2201 47 95.7851 47C99.3234 47 102.647 48.3676 105.14 50.8884C110.287 56.0372 110.287 64.4576 105.14 69.6332C97.5275 77.1955 88.789 68.8824 78.7639 79.1799C69.1677 89.0484 77.3165 97.3616 69.6234 105.138C67.1038 107.606 63.8067 109 60.2685 109Z" fill="#FEFEFE"/>
<defs>
<linearGradient id="paint0_linear" x1="58.0599" y1="143.955" x2="143.955" y2="61.9401" gradientUnits="userSpaceOnUse">
<stop stop-color="#744196"/>
<stop offset="1" stop-color="#6FCDE5"/>
</linearGradient>
</defs>
</svg>
