<svg width="120" height="120" viewBox="0 0 120 120" fill="none" xmlns="http://www.w3.org/2000/svg">
<circle cx="60" cy="60" r="60" fill="#EDF0F4"/>
<path fill-rule="evenodd" clip-rule="evenodd" d="M23 38.3462L60 17L97 38.3462V81.0385L60 102.385L23 81.0385V38.3462ZM45.3928 35.4555H74.5331L78.018 50.2792H41.982L45.3928 35.4555ZM52.8076 70.143L53.7715 60.8782L50.5832 52.5769H69.4168L66.3026 60.8782L67.1924 70.143H59.9258H52.8076ZM74.6072 85.7079H69.3427L63.0401 79.9267V76.9619L69.5651 70.736V60.8782L78.0922 55.3193L87.8056 62.6571L74.6072 85.7079ZM50.8056 85.7821L57.1082 79.9267V76.9619L50.5832 70.736V60.8782L41.982 55.3934L32.1944 62.6571L45.4669 85.7821H50.8056Z" fill="#03316C"/>
</svg>
