<svg width="120" height="120" viewBox="0 0 120 120" fill="none" xmlns="http://www.w3.org/2000/svg">
<circle cx="60" cy="60" r="60" fill="#EDF0F4"/>
<circle cx="60" cy="60" r="41.25" fill="white"/>
<path d="M55.9948 43.5408C52.9154 45.1201 50.5736 47.9275 49.4968 51.3307C47.7592 56.3536 47.5286 61.8108 48.8357 66.9741C49.4649 69.9542 50.913 72.6774 53.0024 74.8095C54.5111 76.3924 56.4167 77.4982 58.5 78L58.1434 42.75C57.3344 43.0681 56.6298 43.2318 55.9948 43.5408Z" fill="black"/>
<path fill-rule="evenodd" clip-rule="evenodd" d="M15 60C15 35.1472 35.1472 15 60 15C71.9347 15 83.3807 19.7411 91.8198 28.1802C100.259 36.6193 105 48.0653 105 60C105 84.8528 84.8528 105 60 105C35.1472 105 15 84.8528 15 60ZM77.667 75.003C78.1509 74.5021 78.5384 73.9163 78.81 73.275C79.0105 72.7515 78.8991 72.1598 78.522 71.745C78.1094 71.4224 77.5814 71.2855 77.064 71.367C76.5562 71.5746 76.0943 71.8805 75.705 72.267C75.2421 72.6031 74.7868 72.9519 74.3318 73.3005C73.3978 74.0159 72.4645 74.7309 71.466 75.336C69.2605 76.567 66.8473 77.3816 64.347 77.739L63.996 42.171C64.563 42.207 65.121 42.27 65.679 42.36C68.3422 42.8519 70.6499 44.5003 71.979 46.86C72.3104 47.4486 72.6164 48.052 72.9226 48.6558C73.2485 49.2984 73.5747 49.9416 73.932 50.568C74.2592 51.4093 75.1998 51.8336 76.047 51.522C76.776 51.243 76.983 50.64 76.839 49.497C76.6473 48.5741 76.5807 47.6296 76.641 46.689C76.9437 44.8811 76.0748 43.0785 74.472 42.189C71.9606 40.5334 69.1151 39.4517 66.138 39.021L64.059 38.661C64.1495 38.0308 64.2268 37.4218 64.3022 36.8282C64.4517 35.6502 64.5936 34.5332 64.815 33.432C65.0957 31.2912 65.9027 29.2534 67.164 27.501C68.577 25.764 70.521 25.53 72.501 26.889C72.4134 27.0188 72.3223 27.1462 72.2311 27.2738C72.0692 27.5002 71.9069 27.7273 71.763 27.969C71.026 29.1591 71.1654 30.6933 72.105 31.731C73.0212 32.7856 74.5187 33.118 75.795 32.55C77.1078 32.0448 77.8883 30.6901 77.667 29.301C77.4954 28.3352 77.1245 27.4156 76.578 26.601C74.6245 23.8669 71.1037 22.7459 67.929 23.847C64.578 25.0118 61.8664 27.5243 60.45 30.777C59.2377 33.2782 58.5312 35.9941 58.371 38.769C58.3121 38.8071 58.2652 38.8466 58.2246 38.8807C58.1599 38.9352 58.1113 38.976 58.056 38.976L56.589 39.3C51.4079 40.3509 46.9256 43.5717 44.277 48.147C40.8021 53.8909 40.1393 60.9069 42.477 67.2C45.033 74.643 50.1 79.296 57.894 80.853C58.1326 80.9256 58.362 81.0253 58.578 81.15C58.4884 83.6632 58.0554 86.1523 57.291 88.548C56.882 89.8344 56.2747 91.049 55.491 92.148C54.186 93.84 52.098 93.939 50.298 92.589C50.371 92.4907 50.4466 92.3933 50.5224 92.2957C50.6896 92.0804 50.8576 91.8641 51 91.635C51.713 90.4825 51.6262 89.0066 50.7831 87.9456C49.94 86.8846 48.5217 86.4667 47.238 86.901C45.8884 87.3055 45.0087 88.6025 45.132 90.006C45.2221 90.9629 45.53 91.8864 46.032 92.706C48.0382 95.8117 51.9819 97.0327 55.392 95.604C59.154 94.164 61.485 91.284 62.88 87.684C63.3925 86.3174 63.756 84.9054 64.1277 83.4619C64.3044 82.7758 64.4828 82.0827 64.68 81.384C64.608 81.42 64.698 81.339 64.788 81.339L65.967 81.141C70.4547 80.4949 74.5848 78.3282 77.667 75.003Z" fill="black"/>
</svg>
