<svg width="120" height="120" viewBox="0 0 120 120" fill="none" xmlns="http://www.w3.org/2000/svg">
<circle cx="60" cy="60" r="60" fill="#EDF0F4"/>
<path d="M87.6975 76.0344C82.1595 85.5799 71.8298 92 60.0001 92C42.327 92 28 77.6727 28 60C28 42.3265 42.327 28 60.0001 28C71.8413 28 82.1797 34.432 87.7137 43.9929L94.6376 39.983C87.7188 28.0367 74.7983 20 60.0001 20C37.9086 20 20 37.9085 20 60C20 82.0915 37.9086 100 60.0001 100C74.7908 100 87.7054 91.9712 94.6265 80.0352L87.6975 76.0344Z" fill="#202020"/>
<path d="M100 55.9998L66.921 55.9998C65.5371 53.6109 62.9593 51.9998 59.9999 51.9998C55.5815 51.9998 51.9999 55.5815 51.9999 59.9998C51.9999 64.4182 55.5815 67.9998 59.9999 67.9998C62.9593 67.9998 65.5371 66.3888 66.921 63.9998L100 63.9998V55.9998Z" fill="#202020"/>
</svg>
