<svg width="120" height="120" viewBox="0 0 120 120" fill="none" xmlns="http://www.w3.org/2000/svg">
<circle cx="60" cy="60" r="60" fill="#EDF0F4"/>
<path fill-rule="evenodd" clip-rule="evenodd" d="M31.9439 24.7448C39.3921 18.8099 47.8499 16.4015 57.0979 15.1903C60.9376 14.6874 65.1554 15.2579 68.924 16.0097C88.9016 19.9948 104.067 37.6871 104.958 57.9917C105.955 80.7006 89.0458 101.508 66.296 104.565C60.5631 105.335 54.6529 105.104 49.0261 103.701C44.3257 102.529 39.7614 100.645 35.6983 97.9994C15.7794 85.029 9.19539 58.9448 20.5366 38.1429C23.3617 32.961 27.3347 28.4176 31.9439 24.7448ZM64.2693 35.0465C62.7719 34.4699 61.0378 33.8022 59.7259 33.9146C58.4903 34.0204 57.1598 34.5025 55.8997 34.959C55.4092 35.1368 54.9293 35.3107 54.4698 35.457C51.2323 36.4878 47.97 37.4853 44.7086 38.438L44.7018 38.44C43.9192 38.6685 39.4954 39.9599 41.9207 41.3183C42.7648 41.7911 44.4893 41.12 45.7602 40.6254C46.1551 40.4717 46.5062 40.3351 46.7735 40.2551C49.7173 39.3741 52.6612 38.486 55.5961 37.5765C55.9572 37.4646 56.3439 37.3206 56.7443 37.1716L56.7443 37.1716C57.8455 36.7618 59.0493 36.3138 60.1013 36.3899C61.0949 36.4618 62.1241 36.8324 63.1185 37.1905L63.1185 37.1905C63.5609 37.3498 63.9964 37.5066 64.4188 37.6336C65.132 37.8479 65.8457 38.0606 66.5595 38.2733L66.5596 38.2733L66.5597 38.2734L66.5597 38.2734L66.5598 38.2734L66.5601 38.2735C68.6034 38.8825 70.647 39.4915 72.6783 40.1383C72.965 40.2296 73.329 40.3713 73.7339 40.529C75.0469 41.0403 76.7913 41.7197 77.7363 41.3929C78.9799 40.9629 78.5031 39.5816 77.5508 39.1838C75.2316 38.2154 72.7478 37.5486 70.2749 36.8848C68.7427 36.4735 67.2148 36.0633 65.7328 35.5832C65.2934 35.4408 64.796 35.2493 64.2693 35.0465ZM34.9577 41.6301C36.3414 41.1436 37.4455 43.787 38.1027 45.3606L38.1027 45.3606L38.1028 45.3608C38.2463 45.7044 38.3685 45.997 38.4676 46.1948C39.3 47.8556 40.1511 49.5067 41.0023 51.158L41.0024 51.1582L41.0025 51.1583L41.0025 51.1585C41.8531 52.8086 42.7038 54.4589 43.536 56.1192C43.7999 56.6459 44.0554 57.2039 44.3149 57.7708L44.3149 57.7708C44.9745 59.2117 45.6604 60.71 46.5794 61.8963C47.325 62.8587 49.6671 62.6821 51.3529 62.5549H51.353C51.8386 62.5183 52.2698 62.4858 52.5927 62.4858H67.4222C67.7805 62.4858 68.243 62.5223 68.7525 62.5625C70.2466 62.6805 72.146 62.8304 73.0137 62.1856C73.6036 61.7473 73.968 60.9121 74.2932 60.1665L74.2933 60.1664C74.3981 59.9261 74.4989 59.6951 74.6018 59.4897L77.6053 53.4976C78.4222 51.8678 79.2584 50.2469 80.0947 48.6258L80.0951 48.625L80.0954 48.6245C80.9301 47.0064 81.7649 45.3882 82.5809 43.7605C82.6182 43.6859 82.6584 43.603 82.7013 43.5142C83.1624 42.561 83.9507 40.9314 85.1766 41.7344C85.9415 42.2354 85.9747 43.719 85.9986 44.7862C86.0041 45.0345 86.0092 45.2602 86.0228 45.4458C86.2776 48.9139 86.1548 52.2859 85.8325 55.7447C84.7327 67.5437 78.7455 78.6275 69.4871 86.0047C69.3552 86.1098 69.2207 86.2173 69.0838 86.3267L69.0838 86.3267L69.0836 86.3269C66.5999 88.3112 63.3228 90.9295 60.289 91.6839C59.5295 91.8727 58.6795 91.3898 57.9587 90.9803C57.7888 90.8837 57.626 90.7913 57.4733 90.7126C55.0887 89.4846 52.8564 87.9419 50.7155 86.3367C41.1687 79.1797 35.3401 67.8581 34.0182 56.1192C33.6075 52.4722 33.6103 48.9146 33.8145 45.2585C33.8222 45.1207 33.8266 44.9625 33.8315 44.7907V44.7906C33.8626 43.6781 33.9097 41.9985 34.9577 41.6301ZM36.248 55.6561C35.8244 52.8109 35.3078 49.3411 36.0737 46.7565L38.9358 52.1869L44.0041 62.1113L57.0979 87.7649C54.4912 86.6431 52.0782 84.594 49.9647 82.7381C42.4093 76.1037 37.8029 66.7585 36.4247 56.8682C36.3708 56.4811 36.3104 56.0756 36.248 55.6565L36.248 55.6562L36.248 55.6561ZM73.6384 66.6658L73.6384 66.6659C71.7601 70.1398 69.8861 73.6057 68.1266 77.0915C67.5577 78.2186 66.8917 79.3646 66.2167 80.5263L66.2166 80.5264C64.8468 82.8839 63.4394 85.3059 62.7293 87.7649C74.0255 82.4977 81.2393 69.833 83.2054 57.9917C83.6567 55.2747 83.9412 52.5067 83.9412 49.7526C83.9412 49.5489 83.9515 49.3335 83.962 49.1128L83.962 49.1125C84.0013 48.286 84.044 47.3862 83.5658 46.7565C80.7324 53.5455 77.1777 60.1199 73.6384 66.6658ZM59.7259 87.9522L47.8998 64.7328H71.9274L60.1013 87.9522H59.7259Z" fill="#E1A94C"/>
</svg>
