<svg width="120" height="120" viewBox="0 0 120 120" fill="none" xmlns="http://www.w3.org/2000/svg">
<circle cx="60" cy="60" r="60" fill="black"/>
<path d="M60.111 16.4942C59.5601 15.2555 61.5521 14.3772 62.103 15.5558C75.051 37.7472 87.999 59.9499 100.947 82.1751C100.257 82.1751 99.5925 81.9498 98.9285 81.8447L64.3704 74.9906C63.2385 74.9343 62.9895 73.1138 64.095 72.8436L77.6541 69.1275C77.9813 69.045 78.2544 68.8215 78.3989 68.518C78.5434 68.2145 78.5443 67.8626 78.4011 67.5585L60.111 16.4642V16.4905V16.4942Z" fill="white"/>
<path d="M58.1232 16.6068C58.2477 16.787 58.3571 16.9822 58.4514 17.1849C62.5486 28.746 66.7514 40.3072 70.8184 51.8683C71.1806 52.8292 69.8224 53.6288 69.1584 52.9118C65.6724 49.2783 62.3524 45.536 58.923 41.9025C58.3684 41.407 57.5648 41.7373 57.2064 42.259L21.573 83.9092C21.158 84.3484 20.7996 85.009 20.1054 85.0916C19.6074 85.0916 19.2754 84.705 19 84.3221V83.684C32.0574 61.3349 45.0997 38.9784 58.1232 16.6068Z" fill="white"/>
<path d="M47.2203 56.2714C47.8843 56.0799 48.7671 56.5454 48.5483 57.3449C47.1637 62.1345 45.6999 66.8979 44.2587 71.6574C44.0399 72.2655 44.5907 72.8136 45.1717 72.8436C63.8203 76.5597 82.4689 80.4109 101.114 84.127C101.476 84.1833 101.725 84.4573 102 84.6787V85.4482L101.472 86H22.3203C30.6203 76.0905 38.8939 66.1246 47.2203 56.2714Z" fill="white"/>
</svg>
