<svg width="120" height="120" viewBox="0 0 120 120" fill="none" xmlns="http://www.w3.org/2000/svg">
<circle cx="60" cy="60" r="60" fill="#C1A05C"/>
<path fill-rule="evenodd" clip-rule="evenodd" d="M60.5383 97.9988C51.8143 97.9763 44.0044 95.3063 37.0297 90.1989C35.1751 88.8414 35.1186 88.0614 36.6987 86.3702L36.8416 86.2202L36.843 86.2188C37.808 85.1761 38.2875 84.6582 38.8127 84.6066C39.3312 84.5557 39.8943 84.9595 41.0134 85.7618L41.0513 85.789C46.3308 89.634 52.6591 91.7868 59.1953 91.9614C66.1399 92.2014 72.5202 90.5476 78.2873 86.8389C85.2056 82.3915 89.9231 76.1966 91.8982 68.288C94.3773 58.3582 92.5339 49.1633 86.0031 41.0822C81.4286 35.4198 75.4847 31.7711 68.303 30.0424C61.8926 28.4974 55.5951 28.8762 49.4066 30.9986C46.1299 32.1236 43.1016 33.7811 40.3666 35.911C39.0161 36.961 38.5044 36.9385 37.357 35.656C36.805 35.0583 36.2875 34.4298 35.8071 33.7736C35.0998 32.7761 35.1976 32.1836 36.1532 31.4261C40.6935 27.8363 45.9834 25.3068 51.6337 24.0237C56.7473 22.8155 62.0564 22.6751 67.2271 23.6112C74.2545 24.8787 80.5069 27.7587 85.8752 32.4236C89.8479 35.881 93.0606 39.9235 95.2952 44.6484C98.3725 51.1583 99.6253 57.9757 98.7036 65.168C97.8813 71.7309 95.2946 77.9501 91.2172 83.1678C87.0527 88.5752 81.722 92.5201 75.3492 95.1113C70.6541 97.0464 65.6188 98.028 60.5383 97.9988ZM57.9231 74.4194L57.9231 74.4195C57.7953 74.6309 57.6906 74.8041 57.5513 74.9479C56.2798 76.2791 54.7261 77.0779 52.8526 77.1378C52.1866 77.1571 51.5196 77.1378 50.8526 77.1186H50.8525C50.2198 77.1003 49.587 77.082 48.9552 77.0966C48.4532 77.0921 47.9584 77.216 47.5181 77.4566C41.5215 81.2065 35.066 81.754 28.2643 80.314C26.0259 79.8416 24.0208 78.9828 22.3129 77.5203C21.0263 76.4216 20.1196 75.1241 20.0105 73.3017C19.8224 70.1255 22.1812 67.958 24.6114 67.2493C29.0995 65.9368 33.3693 66.7355 37.4548 68.7117C38.8593 69.3892 40.1956 70.2068 41.531 71.0239C41.9698 71.2924 42.4085 71.5608 42.8495 71.8242C43.8728 72.4279 44.1775 72.4054 44.6891 71.3629C47.0027 66.653 45.5092 61.4594 39.8587 59.5394C34.9005 57.8519 30.0513 58.0207 25.2773 60.2144C25.1621 60.2675 25.045 60.3285 24.9261 60.3905C24.3233 60.7049 23.6745 61.0432 22.9863 60.4919C22.2926 59.9314 22.5397 59.2843 22.7739 58.6712C22.828 58.5295 22.8814 58.3897 22.9223 58.2532C24.4911 52.9883 26.0824 47.7346 27.6963 42.4847C28.0499 41.3334 28.9716 40.741 30.3184 40.8122C31.1663 40.8587 32.0122 40.9395 32.8578 41.0203L32.8579 41.0203C33.9893 41.1284 35.1202 41.2364 36.2548 41.2622C39.2267 41.3372 42.21 41.3634 45.1782 41.2172C47.3864 41.1047 49.3239 40.1372 51.028 38.7347C51.235 38.566 51.6525 38.371 51.788 38.461C51.9873 38.5922 52.1077 38.9597 52.1265 39.2372C52.2657 41.5097 51.2876 43.2609 49.4743 44.6221C47.33 46.2346 44.881 46.9846 42.2062 47.0484C39.4336 47.1121 36.6611 47.1496 33.8922 47.1609C33.2678 47.1684 32.9367 47.3933 32.79 47.9783C32.5417 48.9533 32.2784 49.9321 31.9962 50.9033C31.7818 51.627 32.0564 51.9158 32.79 51.8858C33.2996 51.8672 33.8092 51.8441 34.3187 51.821C35.5544 51.765 36.7896 51.7091 38.0229 51.717C42.0322 51.6937 45.9037 53.1742 48.8687 55.8645C51.7767 58.4444 52.9542 61.7744 53.131 65.4943C53.2702 68.4755 52.6984 71.3292 51.0544 73.8979C50.6067 74.5991 50.8098 74.9029 51.566 75.1016C53.5749 75.6304 55.4296 75.2704 57.2014 74.2841C57.2561 74.2542 57.3093 74.2227 57.3623 74.1914L57.3623 74.1913C57.4551 74.1365 57.5472 74.082 57.6454 74.0367C57.6767 74.0233 57.7174 74.0271 57.823 74.0372C57.8948 74.0441 57.9966 74.0538 58.1457 74.0629C58.0603 74.1925 57.9887 74.311 57.9231 74.4194ZM40.9008 74.5466L40.961 74.9104C40.681 75.0291 40.4034 75.1573 40.1254 75.2855C39.5257 75.5623 38.9248 75.8396 38.2975 76.0241C34.7161 77.0816 31.1498 77.0441 27.6361 75.6941C27.29 75.5591 26.9326 75.4016 26.6429 75.1804C25.7175 74.4754 24.9237 73.6692 25.2547 72.3754C25.5519 71.2017 26.5752 70.943 27.5985 70.7067C29.8707 70.178 32.0413 70.7217 34.1292 71.4829C35.5975 72.0156 37.0251 72.668 38.451 73.3196C39.0125 73.5762 39.5738 73.8327 40.1371 74.0817C40.321 74.162 40.4881 74.2743 40.6541 74.3859C40.7359 74.441 40.8175 74.4959 40.9008 74.5466Z" fill="white"/>
</svg>
