<svg width="120" height="120" viewBox="0 0 120 120" fill="none" xmlns="http://www.w3.org/2000/svg">
<circle cx="60" cy="60" r="60" fill="#5BC1D4"/>
<path fill-rule="evenodd" clip-rule="evenodd" d="M41.8512 45.6383C41.8661 45.4818 41.9093 45.3293 41.9788 45.1883L45.9088 36.5748C46.1813 35.9773 46.455 35.3802 46.7288 34.7832C47.2763 33.5891 47.8238 32.395 48.3612 31.1975C48.5487 30.785 48.8225 30.5788 49.2875 30.56C50.0678 30.5362 50.8482 30.5017 51.6285 30.4672C52.0744 30.4475 52.5203 30.4278 52.9663 30.4101L60.2038 30.1363C60.6722 30.1156 61.1418 30.0891 61.6119 30.0626L61.612 30.0626C61.9924 30.0412 62.3731 30.0198 62.7537 30.0013C63.3612 29.9751 63.7775 30.3426 63.7812 30.9388C63.8075 31.3025 63.575 31.5388 63.275 31.745L60.9575 33.3237L47.105 42.7471L42.68 45.762C42.5768 45.8401 42.4663 45.9079 42.35 45.9645C42.0875 46.077 41.8363 45.9195 41.8512 45.6383ZM43.865 46.7633C45.6125 45.567 47.36 44.3783 49.1112 43.1896L66.0238 31.67C66.5863 31.2875 66.9425 31.3663 67.2237 31.9738C68.0529 33.7494 68.8784 35.527 69.704 37.3051L69.7046 37.3064L69.7052 37.3076L69.7059 37.3092L69.7063 37.31L69.7066 37.3107L69.707 37.3114C70.0416 38.0321 70.3763 38.7528 70.7113 39.4735C70.7787 39.6186 70.8447 39.7644 70.9108 39.9106L70.9108 39.9106L70.9109 39.9107L70.9109 39.9107C70.9918 40.0895 71.0729 40.269 71.1575 40.4485C71.2812 40.711 71.1987 40.9247 71.0413 41.1609C70.8365 41.4505 70.663 41.761 70.5238 42.0872C70.4 42.3984 70.2125 42.5671 69.875 42.6271C68.6027 42.8532 67.3314 43.0832 66.0606 43.3132L66.0598 43.3133L66.0589 43.3135C64.8432 43.5334 63.6278 43.7533 62.4125 43.9696L53.585 45.5558L43.9475 47.2882C43.8576 47.3032 43.7661 47.2983 43.674 47.2933C43.6278 47.2908 43.5814 47.2882 43.535 47.2882L43.4525 47.1345C43.5005 47.0917 43.5467 47.0467 43.5928 47.0017L43.5928 47.0017C43.68 46.9166 43.7669 46.8319 43.865 46.7633ZM75.7062 45.7133C74.9825 44.5958 75.8 43.0509 77.0037 42.8521C78.8817 42.5392 80.7558 42.1993 82.6298 41.8596L82.6299 41.8595L82.63 41.8595L82.6301 41.8595L82.6302 41.8595L82.6302 41.8595L82.6303 41.8595L82.6304 41.8595L82.6305 41.8594L82.6306 41.8594L82.6306 41.8594L82.6307 41.8594L82.6307 41.8594L82.6308 41.8594L82.6308 41.8594L82.6309 41.8594L82.631 41.8593L82.631 41.8593L82.6311 41.8593C83.9674 41.617 85.3037 41.3747 86.6413 41.1422C87.35 41.0184 87.9125 41.3447 88.3025 41.9297C88.8327 42.7249 89.3559 43.5225 89.8795 44.3206L90.3087 44.9746L90.8862 45.8497C92.1043 47.6956 93.3229 49.5422 94.5275 51.3944C94.6539 51.5889 94.7376 51.8108 94.8213 52.0323L94.8214 52.0325C94.8618 52.1397 94.9023 52.2467 94.9475 52.3506L94.865 52.3881C94.842 52.9355 94.639 53.4601 94.2875 53.8805C93.3991 55.074 92.5062 56.2652 91.6131 57.4565L91.6113 57.4589C90.5296 58.9019 89.4477 60.3451 88.3737 61.7928C87.998 62.269 87.4114 62.5291 86.8062 62.4878C86.201 62.4466 85.6551 62.1093 85.3475 61.5865C83.2169 58.0496 81.0698 54.5209 78.923 50.9928L78.9229 50.9927L78.9221 50.9914L78.9213 50.9901L78.9206 50.9888L78.9198 50.9876L78.9173 50.9836L78.9149 50.9795L78.9125 50.9755L78.91 50.9715C78.1706 49.7563 77.4312 48.5411 76.6925 47.3257C76.611 47.1909 76.5301 47.0556 76.4491 46.9204L76.4487 46.9198C76.2054 46.5134 75.9622 46.107 75.7062 45.7133ZM52.1937 63.4802L46.0062 69.945C45.5277 70.4445 45.0533 70.9461 44.5791 71.4473C43.9499 72.1126 43.3211 72.7774 42.6838 73.4361C42.5567 73.5682 42.3936 73.6642 42.2304 73.7601C42.1527 73.8058 42.075 73.8515 42.0013 73.9011C41.5138 73.8224 41.1388 73.5186 41.075 73.0761C40.9715 72.4027 40.879 71.7276 40.7975 71.0512C40.685 70.1587 40.4112 69.9112 39.5075 69.7987C37.6905 69.5794 35.8771 69.3422 34.0602 69.1046L34.0601 69.1046L33.92 69.0863L29.6675 68.535C28.82 68.4225 28.5125 67.8151 28.955 67.0913C29.7351 65.8352 30.5195 64.5835 31.3033 63.3329L31.3034 63.3328L31.3034 63.3327L31.3035 63.3326L31.3035 63.3325L31.3036 63.3325L31.3036 63.3324L31.3037 63.3323L31.3037 63.3322L31.3038 63.3321L31.3109 63.3207C31.5495 62.9401 31.788 62.5595 32.0262 62.179L38.2887 52.1743C38.5363 51.7693 38.8137 51.4918 39.3462 51.5068C39.6838 51.5143 40.0362 51.4319 40.37 51.3456C40.7675 51.2481 41.0788 51.3681 41.3563 51.6306C41.5399 51.803 41.7246 51.975 41.9094 52.147C42.2189 52.435 42.5285 52.7232 42.8337 53.0143L48.4888 58.3804C49.098 58.9577 49.71 59.5331 50.322 60.1086L50.322 60.1086L50.3221 60.1087L50.3221 60.1087L50.3222 60.1087L50.3222 60.1088L50.3223 60.1088L50.3223 60.1089L50.3224 60.1089L50.3224 60.109L50.3225 60.109L50.3225 60.1091C50.9347 60.6847 51.5469 61.2603 52.1562 61.8378C52.7862 62.4302 52.7862 62.8577 52.1937 63.4802ZM93.7812 72.1762C93.8085 72.1987 93.8359 72.2212 93.8633 72.2437C94.191 72.5128 94.522 72.7846 94.5912 73.2449C94.685 73.8824 94.43 74.3436 93.89 74.6923C91.9775 75.9298 90.065 77.1713 88.1525 78.4128C86.8775 79.2405 85.6025 80.0681 84.3275 80.8946L78.1662 84.8882C77.9719 85.0113 77.7864 85.1479 77.6112 85.297C77.2964 85.5554 77.1225 85.9476 77.1425 86.3544C77.1517 86.5914 77.1624 86.8283 77.1731 87.0651L77.1731 87.0665L77.1732 87.0667C77.1971 87.5977 77.221 88.1282 77.2287 88.6569C77.24 89.5381 76.5912 90.0893 75.7062 89.9881C75.3874 89.946 75.0979 89.7803 74.9 89.5268C74.1588 88.6716 73.4188 87.8154 72.68 86.9582C72.3349 86.5586 71.9903 86.158 71.6457 85.7573L71.6451 85.7566C71.0649 85.0821 70.4846 84.4073 69.9012 83.737C69.5131 83.3493 69.3262 82.8038 69.395 82.2596L69.5225 77.7785C69.5375 77.2535 69.8487 76.916 70.2687 76.646L75.3612 73.3911C76.0888 72.9269 76.8168 72.4631 77.5449 71.9993C79.6691 70.646 81.7943 69.2922 83.9112 67.9238C84.5112 67.5376 85.07 67.4213 85.73 67.7588C86.2175 68.0063 86.7687 68.0513 87.2975 67.8863C88.0887 67.6351 88.6963 67.8563 89.3075 68.3963C90.3118 69.2821 91.3426 70.1396 92.3744 70.9979L92.3751 70.9985L92.3757 70.999L92.3764 70.9996L92.3771 71.0001L92.3777 71.0007L92.3784 71.0012L92.3791 71.0018L92.3797 71.0023L92.3804 71.0029L92.3811 71.0034L92.3817 71.004C92.8501 71.3936 93.3186 71.7834 93.785 72.1762H93.7812ZM66.89 76.721C66.81 76.4075 66.6452 76.1221 66.4137 75.896C65.4804 74.9557 64.5384 74.0255 63.5967 73.0955C63.0174 72.5235 62.4382 71.9515 61.8613 71.3774L55.1112 64.6689C54.8235 64.3916 54.4339 64.2456 54.0348 64.2655C53.6357 64.2854 53.2625 64.4694 53.0037 64.7739C51.3162 66.5513 49.625 68.3288 47.9338 70.0987C47.6439 70.4024 47.3543 70.7061 47.0649 71.0097C45.7887 72.348 44.5143 73.6845 43.2275 75.0111C42.5262 75.7273 42.5375 76.6235 43.2725 77.291C44.1731 78.112 45.0508 78.9558 45.9286 79.7997C46.3337 80.1891 46.7389 80.5786 47.1462 80.9659C47.2835 81.0964 47.4248 81.2228 47.5661 81.3493C47.6603 81.4336 47.7545 81.5178 47.8475 81.6033C48.0867 81.8393 48.4116 81.9679 48.7475 81.9596H49.4825C49.7643 81.9448 50.0526 81.9287 50.3458 81.9124C51.0904 81.871 51.8661 81.8279 52.6437 81.7983C53.446 81.7655 54.2483 81.7377 55.0506 81.7099L55.0517 81.7099C56.0828 81.6742 57.1139 81.6385 58.145 81.5921L58.1634 81.5912C58.6122 81.569 59.1029 81.5447 59.495 81.3671C61.2883 80.5373 63.0668 79.678 64.8445 78.8191L64.8526 78.8152L64.8606 78.8114L64.8685 78.8075C65.2761 78.6106 65.6836 78.4137 66.0912 78.2172C66.7513 77.8985 67.0287 77.4222 66.89 76.721ZM69.5 63.9639L70.0625 58.9578L70.6325 53.993L71.1162 49.7519L71.4912 46.452C71.4822 46.4366 71.4718 46.4115 71.4594 46.3817C71.4208 46.2883 71.3629 46.1486 71.2663 46.1145C71.1221 46.0688 70.922 46.1417 70.7523 46.2036L70.7188 46.2158C70.6566 46.2374 70.608 46.2961 70.5591 46.3552C70.5401 46.3781 70.5211 46.4011 70.5013 46.422L68.0413 49.0094L63.0275 54.2743L55.685 61.9615C55.1712 62.4977 55.175 62.6552 55.7075 63.1502C57.3125 64.6502 58.9137 66.1501 60.5112 67.6613C61.6194 68.7061 62.7234 69.7549 63.8282 70.8045L63.8346 70.8106L63.8375 70.8133C64.5617 71.5013 65.2862 72.1896 66.0125 72.8774L66.2036 73.0588L66.2037 73.0589L66.2038 73.0591L66.2039 73.0592L66.2041 73.0593L66.2042 73.0594L66.2043 73.0595L66.2044 73.0596L66.2046 73.0597C66.6501 73.4831 67.0956 73.9065 67.5612 74.3098C67.6813 74.4111 67.9212 74.4861 68.0563 74.4336C68.1912 74.3811 68.3112 74.1748 68.3488 74.0136C68.3963 73.7933 68.4138 73.5647 68.4313 73.3355L68.4313 73.3354L68.4313 73.3352L68.4314 73.335L68.4314 73.3347L68.4314 73.3345L68.4314 73.3343C68.4401 73.2205 68.4488 73.1067 68.4613 72.9936L69.0163 68.1188C69.095 67.425 69.1766 66.733 69.2582 66.041C69.3397 65.3493 69.4213 64.6576 69.5 63.9639ZM84.335 62.7827C84.575 63.169 84.6125 63.5364 84.35 63.9377C84.0638 64.3878 83.9419 64.923 84.005 65.4526C84.05 65.9251 83.855 66.2139 83.4538 66.4651C80.9429 68.0579 78.4417 69.6604 75.9404 71.2628C75.3149 71.6636 74.6894 72.0643 74.0638 72.4649C73.0813 73.0949 72.0988 73.7211 71.1125 74.3436C70.7225 74.5911 70.3213 74.5723 70.1075 74.2573C70.0188 74.1299 69.9875 73.9656 69.9636 73.84L69.9635 73.84C69.9551 73.7957 69.9476 73.7562 69.9388 73.7249L70.3512 70.695L71.27 64.0127L72.2825 56.7004L73.2688 49.5494L73.6438 46.887L73.6463 46.8617C73.6526 46.7969 73.6594 46.7271 73.6925 46.6808C73.7117 46.6565 73.7312 46.6298 73.7513 46.6026L73.7515 46.6023L73.7516 46.6021C73.8335 46.4907 73.9232 46.3688 74.0225 46.3508C74.1575 46.3283 74.3675 46.4333 74.4538 46.5495C74.6182 46.7706 74.7594 47.0091 74.901 47.2483C74.9564 47.3418 75.0118 47.4355 75.0688 47.5282L82.4 59.5878C82.5996 59.9174 82.7985 60.2474 82.9974 60.5772L82.9977 60.5779L82.998 60.5783L82.9981 60.5784L82.9982 60.5786L82.9983 60.5787L82.9984 60.5788L82.9984 60.579C83.4418 61.3144 83.8848 62.0494 84.335 62.779V62.7827ZM69.2537 44.4584L69.2537 44.4584C69.2092 44.4353 69.1685 44.4142 69.1362 44.3933L66.4175 44.8696L55.28 46.8233L45.8487 48.4732C44.8662 48.6419 43.8837 48.8144 42.905 48.9907C42.3687 49.0807 42.0987 49.3469 42.0612 49.8157C42.035 50.1606 42.2225 50.4044 42.4587 50.6294C44.2288 52.2906 45.9987 53.9518 47.7612 55.6167C48.966 56.7542 50.169 57.8966 51.3716 59.0385L51.3725 59.0394C51.9813 59.6176 52.59 60.1956 53.1987 60.7728C53.7837 61.3278 54.2337 61.3278 54.7962 60.7428C55.6567 59.8408 56.5148 58.9354 57.3731 58.0298L57.3736 58.0293L57.3741 58.0287L57.3746 58.0282L57.3751 58.0277L57.3756 58.0272L57.376 58.0267C58.0655 57.2993 58.7551 56.5716 59.4463 55.8455L66.8787 48.0682L69.4287 45.3871C69.62 45.1883 69.7812 44.9558 69.5975 44.7083C69.5108 44.5919 69.3694 44.5185 69.2537 44.4584ZM25.0475 50.4044C24.5188 51.3906 25.175 52.4631 26.2775 52.4856L26.2812 52.4893C26.3568 52.4704 26.4328 52.4554 26.5086 52.4405C26.6436 52.4138 26.7778 52.3873 26.9075 52.3393C27.8704 51.9967 28.8332 51.653 29.7962 51.3092L29.7964 51.3092L29.7965 51.3091L29.7966 51.3091L29.7967 51.309L29.7969 51.309C31.8378 50.5804 33.8793 49.8516 35.9225 49.1332C36.3846 48.999 36.7403 48.629 36.8562 48.162C37.0861 47.2144 37.8278 46.4757 38.7762 46.2495C39.2834 46.1282 39.7017 45.7713 39.9012 45.2896C40.8261 43.3765 41.7598 41.4694 42.6946 39.5603L43.04 38.8548C43.2192 38.4821 43.3995 38.1097 43.5799 37.7373C43.9658 36.9406 44.3519 36.1435 44.7275 35.3411C44.9763 34.8723 44.9264 34.301 44.6 33.8824C44.3048 33.4538 43.7831 33.2416 43.2725 33.3425C43.006 33.3988 42.7511 33.5003 42.5187 33.6424C40.9392 34.552 39.361 35.4629 37.783 36.3737L37.782 36.3743C35.704 37.5737 33.6263 38.7729 31.5463 39.9685C31.1566 40.1846 30.8327 40.5021 30.6088 40.8872C29.7581 42.3491 28.9017 43.8081 28.0449 45.2677L28.0444 45.2686L28.0443 45.2687L28.0435 45.27C27.5184 46.1647 26.993 47.0597 26.4688 47.9557C26.3509 48.1555 26.2321 48.3546 26.1134 48.5537L26.1133 48.5538L26.1133 48.5539L26.1132 48.554L26.1132 48.5541L26.1131 48.5542L26.1131 48.5542C25.7484 49.1657 25.3841 49.7765 25.0475 50.4044ZM35.5109 53.7913C35.9217 53.1372 36.3325 52.483 36.74 51.8256L36.7633 51.7888C36.8774 51.6092 36.995 51.4242 36.83 51.2031C36.6486 50.9589 36.4315 51.0295 36.2119 51.1009L36.1625 51.1169L35.1687 51.4244L27.6125 53.8243C26.2775 54.248 24.9425 54.6717 23.6075 55.103C23.1613 55.2492 23.0037 55.4517 23 55.928C23.0043 55.9446 23.0094 55.9648 23.0151 55.9878L23.0151 55.9878C23.0391 56.0836 23.0753 56.2283 23.1238 56.3704L25.6325 63.4277C25.6969 63.6076 25.7612 63.7877 25.8255 63.9679L25.8256 63.9683L25.8257 63.9686L25.8258 63.9689L25.8259 63.9691C26.0495 64.5959 26.2733 65.2234 26.5062 65.8464C26.6937 66.3451 27.2225 66.5438 27.62 66.2589C27.7728 66.13 27.9 65.9735 27.995 65.7976C29.7968 62.9248 31.5963 60.0474 33.3954 57.1707L34.895 54.773C35.1 54.4455 35.3054 54.1184 35.5109 53.7913ZM97.1825 61.609L97.94 65.9439C97.9569 66.0483 97.9696 66.1549 97.9845 66.2796L97.9845 66.2802L98 66.4089L97.9825 66.497L97.9825 66.4972C97.9495 66.6649 97.9121 66.8545 97.8613 67.0388L96.8675 70.6237C96.5825 71.6549 95.765 71.8987 94.94 71.2012C93.2487 69.7762 91.55 68.3513 89.8512 66.9338C89.465 66.6113 89.3037 66.2401 89.3938 65.7301C89.5039 65.2224 89.4432 64.6924 89.2213 64.2227C88.9888 63.7614 89.0638 63.3527 89.3675 62.9477C90.1483 61.9011 90.9255 60.8521 91.7025 59.8033L91.7058 59.7989C92.3085 58.9855 92.911 58.1722 93.515 57.3604L94.3587 56.2204C94.64 55.8342 95.0113 55.6467 95.4837 55.7517C95.9788 55.8642 96.2337 56.2017 96.3163 56.6854L97.1787 61.609H97.1825ZM68.7425 31.6625L68.8175 31.82L70.8612 36.2524C71.0679 36.6959 71.2756 37.1389 71.4834 37.582C71.8148 38.2889 72.1464 38.996 72.4737 39.706C72.6012 39.9872 72.7737 40.186 73.1112 40.201C73.9872 40.2362 74.8044 40.651 75.35 41.3372C75.4253 41.4233 75.5315 41.4804 75.6174 41.5266C75.6512 41.5448 75.6819 41.5613 75.7062 41.5772L76.0025 41.5172C76.9541 41.3462 77.9057 41.1749 78.8573 41.0035C80.9323 40.6299 83.0078 40.2562 85.085 39.886C85.3587 39.8372 85.595 39.7697 85.6475 39.4585C85.7 39.1435 85.5012 38.9973 85.25 38.8735L83.0112 37.7486L70.4037 31.4525C70.3147 31.4086 70.227 31.3618 70.1393 31.3152C69.9203 31.1986 69.7019 31.0823 69.4662 31.01C69.2563 30.9442 69.0295 30.9575 68.8287 31.0475C68.6 31.175 68.6412 31.4375 68.7425 31.6625Z" fill="white"/>
</svg>
