<svg width="120" height="120" viewBox="0 0 120 120" fill="none" xmlns="http://www.w3.org/2000/svg">
<circle cx="60" cy="60" r="60" fill="#EDF0F4"/>
<circle cx="60.5" cy="60.5" r="46.5" fill="#136485"/>
<path fill-rule="evenodd" clip-rule="evenodd" d="M60.1998 14.1427H60.5589L60.3417 14L60.1998 14.1427ZM28 93.991C32.633 98.5383 38.1612 102.059 44.2288 104.327C51.095 84.8551 56.215 70.3473 59.5917 60.8007L60.0376 60.8066C64.8932 75.5287 69.7217 90.2599 74.5231 105C81.0378 102.891 87.0066 99.3546 92 94.6464C89.6543 90.8884 87.9949 88.2024 87.019 86.6002C78.6585 72.8381 72.3453 58.1556 67.8567 42.6777C66.1731 36.8745 64.568 31.0469 62.9627 25.2189C62.2181 22.5156 61.4735 19.8123 60.7211 17.1113C60.5995 16.6772 60.4547 16.249 60.055 15.7887C59.9326 16.1765 59.8067 16.5634 59.6807 16.9504C59.4254 17.7348 59.1699 18.5197 58.943 19.3137C55.1609 32.5979 51.1906 45.8298 46.2299 58.7207C41.5529 70.8746 35.3412 82.2507 28.4257 93.2423L28 93.991Z" fill="white"/>
</svg>
