<svg width="120" height="120" viewBox="0 0 120 120" fill="none" xmlns="http://www.w3.org/2000/svg">
<circle cx="60" cy="60" r="60" fill="#002352"/>
<path fill-rule="evenodd" clip-rule="evenodd" d="M0 60C0 26.8629 26.8629 0 60 0C93.1371 0 120 26.8629 120 60C120 93.1371 93.1371 120 60 120C26.8629 120 0 93.1371 0 60ZM109.796 60C109.796 32.4986 87.5014 10.2043 60 10.2043C32.4986 10.2043 10.2043 32.4986 10.2043 60C10.2043 87.5014 32.4986 109.796 60 109.796C87.5014 109.796 109.796 87.5014 109.796 60Z" fill="#0066CC"/>
<path d="M26.1364 44.4365H68.4287C68.4287 44.4365 83.0264 44.2992 72.9308 63.2459C72.9308 63.2459 65.5637 78.0737 47.2826 77.7992L57.1326 52.482C57.3738 51.8727 57.3036 51.1832 56.9446 50.6358C56.5856 50.0884 55.9833 49.7524 55.3317 49.7361L42.3712 49.5164L26 89.6065C26 89.6065 31.4571 90.1557 34.4585 89.8811L32.8213 94H40.5431C40.9819 94.0034 41.3753 93.7284 41.5254 93.3135L42.9169 89.6065L46.1911 89.3319L44.2812 94H51.8119C52.3794 94.004 52.8901 93.6541 53.0943 93.1213L55.1953 87.6844C55.1953 87.6844 78.115 83.8401 88.4834 65.168C88.4834 65.168 102.399 43.4754 86.0277 35.7869C82.8371 34.3146 79.4254 33.3866 75.9322 33.041L77.8421 28.2906C77.9598 28.0044 77.9288 27.6781 77.7594 27.4195C77.5899 27.1609 77.3041 27.0038 76.9963 27H69.9294L67.7466 32.7664H64.7452L66.4369 28.2906C66.5424 27.9998 66.5024 27.6757 66.3293 27.4199C66.1562 27.164 65.8712 27.0077 65.5637 27H58.4696L56.2867 32.7664H34.2402C33.0329 32.7623 31.9214 33.4272 31.3479 34.4963L26.1364 44.4365Z" fill="white"/>
</svg>
