<svg width="120" height="120" viewBox="0 0 120 120" fill="none" xmlns="http://www.w3.org/2000/svg">
<circle cx="60" cy="60" r="60" fill="#EDF0F4"/>
<path d="M40.8047 22.4766L44.2969 18.2812L59.9766 37.1484L75.6328 18.2812L79.125 22.4766L47.7656 60.2344L59.9766 74.9297L72.1875 60.2344L62.9297 49.1016L66.4219 44.9062L77.3906 58.125C77.4609 58.2188 77.5312 58.2891 77.5781 58.3828L79.125 60.2578L63.4453 79.125L79.125 97.9922L75.6328 102.188L40.8047 60.2578L41.4375 59.4844C41.4844 59.4141 41.5078 59.3672 41.5547 59.2969L56.4609 41.3438L40.8047 22.4766Z" fill="black"/>
<path d="M40.8281 97.9922L53.9297 82.2188L57.4219 86.4141L44.2969 102.188L40.8281 97.9922Z" fill="black"/>
</svg>
