<svg width="120" height="120" viewBox="0 0 120 120" fill="none" xmlns="http://www.w3.org/2000/svg">
<path fill-rule="evenodd" clip-rule="evenodd" d="M60 0C93.3333 0 120 26.9691 120 59.9987C120 93.3314 93.0303 119.997 60 119.997C26.9697 120.3 0 93.3314 0 59.9987C0 26.9691 26.9697 0 60 0Z" fill="url(#paint0_linear)"/>
<path fill-rule="evenodd" clip-rule="evenodd" d="M27 29H62.6744C77.186 29 92 39.233 92 60C92 80.767 77.186 91 62.6744 91H36.3721V57.5922H51.7907V75.9515H62.0698C68.7209 75.9515 76.5814 68.4272 76.5814 60C76.5814 51.5728 69.0233 44.0485 62.0698 44.0485H45.1395C37.5814 44.0485 31.5349 38.932 27 29Z" fill="white"/>
<defs>
<linearGradient id="paint0_linear" x1="180.249" y1="60.0808" x2="60.0821" y2="-60.0833" gradientUnits="userSpaceOnUse">
<stop stop-color="#4B81EB"/>
<stop offset="1" stop-color="#6752F4"/>
</linearGradient>
</defs>
</svg>
