<svg width="120" height="120" viewBox="0 0 120 120" fill="none" xmlns="http://www.w3.org/2000/svg">
<path fill-rule="evenodd" clip-rule="evenodd" d="M60 120C27 120 0 93.0006 0 59.7012C0.3 26.7019 27 -0.297518 60.3 0.00247602C93.3 0.30247 120 27.0019 120 60.6012C119.7 93.3006 93 120 60 120Z" fill="#EDF0F4"/>
<path d="M95.5101 53.2592C95.0016 50.8104 94.1034 48.4591 92.8497 46.295C90.2675 41.9913 84.6335 35.7314 77.5911 30.8017C77.5911 30.8017 72.2701 27.3587 69.7662 26.185C60.611 21.9595 50.3603 21.0988 41.5964 28.8454C26.8856 41.9131 19.5301 60.1451 26.8856 78.299C27.0421 78.6902 31.111 89.8016 55.5248 97.2353C66.2449 97.5483 72.5049 96.9223 79.3908 92.9316C88.3895 87.7671 93.6322 78.3772 95.5101 68.8308C96.0579 65.9356 96.1361 56.1544 95.5101 53.2592Z" fill="#04FFCC"/>
<path d="M67.0352 27.5152V44.9648L46.8469 43.7128L38.5525 54.1982L37.5353 73.9953L44.4212 81.3507L54.7501 86.5151L68.2872 88.0019L82.9981 84.2459V47.86L80.1811 32.7579C80.1811 32.7579 72.2779 26.5762 67.1135 25.0895" fill="#7DF8FB"/>
<path fill-rule="evenodd" clip-rule="evenodd" d="M88.7571 66.4205C88.8503 68.9438 88.9147 70.6901 90.6587 70.787C92.4502 70.7009 94.16 70.0115 95.5101 68.8308C93.6322 78.3772 88.3895 87.7671 79.3908 92.9316C72.5049 96.9223 63.8975 98.2525 55.5248 97.2353C54.2728 93.6358 50.9863 89.8016 45.2741 86.9064C41.7879 85.1178 39.018 82.8241 36.7098 80.9128C33.0601 77.8905 30.5646 75.824 28.2158 78.2207C27.8588 78.5554 27.567 78.9534 27.3551 79.3944C27.1986 79.0814 27.0421 78.6902 26.8856 78.299C19.5301 60.1451 26.8856 41.9131 41.5964 28.8454C50.3603 21.0988 60.611 21.9595 69.7662 26.185C68.6531 27.0776 68.0172 28.4362 68.0447 29.8627V48.173C60.1819 43.615 50.1754 45.418 44.3981 52.4338C38.6208 59.4496 38.7707 69.6161 44.7523 76.4585C50.7339 83.301 60.7892 84.8083 68.5142 80.0204C69.4648 82.0399 71.6899 83.129 73.8679 82.6408C76.046 82.1526 77.5933 80.218 77.5911 77.986V30.8017C84.6335 35.7314 90.2675 41.9913 92.8497 46.295C94.1034 48.4591 95.0016 50.8104 95.5101 53.2592C94.4012 52.4449 93.1133 51.9082 91.7542 51.6942C88.859 51.5377 86.668 55.4502 88.1547 61.0841C88.6316 63.0215 88.6998 64.8681 88.7571 66.4205ZM64.14 37.2964C64.0618 36.1226 62.1056 33.6186 59.9928 33.6969C57.794 33.7751 56.2369 36.4356 56.3151 37.6094C56.3934 38.7831 58.0366 39.4873 60.3058 38.7048C61.0737 38.439 61.8193 38.3404 62.4458 38.2576C63.4792 38.1209 64.1887 38.0271 64.14 37.2964Z" fill="#2C398F"/>
<path d="M55.3682 71.1C59.9067 73.6823 65.3841 72.665 66.4014 66.8746C66.9491 63.5099 66.6361 58.2672 63.6627 56.6239C53.8033 50.99 45.5088 65.4661 55.3682 71.1Z" fill="#2C398F"/>
</svg>
