<svg width="120" height="120" viewBox="0 0 120 120" fill="none" xmlns="http://www.w3.org/2000/svg">
<circle cx="60" cy="60" r="60" fill="#EDF0F4"/>
<path d="M52.9928 43.4942C51.68 43.4519 50.4095 43.7907 49.2661 44.4683C47.4027 45.6117 45.1582 47.348 43.1255 49.889C37.7895 56.5801 37.8318 64.1606 37.9165 66.4475C38.0012 68.2262 38.7635 77.9665 47.0216 84.9964C53.4587 90.4595 60.5733 91.0524 62.9025 91.1371C64.5965 91.2218 73.4475 91.3912 80.901 84.573C88.6509 77.5006 89.032 68.1838 89.0743 66.5745C89.159 65.2194 89.2014 63.4407 88.8626 61.3656C88.5662 59.5022 88.058 57.9353 87.5921 56.7072C86.3216 56.0296 84.5006 54.9285 82.722 53.1075C80.8586 51.2018 79.7575 49.2537 79.1223 47.8985C78.9952 47.348 78.7835 46.5857 78.2753 45.7811C77.4283 44.4259 76.3272 43.7483 75.7343 43.4519C76.8354 43.2825 79.2493 43.1131 81.875 44.2989C83.2725 44.9341 84.2889 45.7811 84.9665 46.4163C85.0935 46.0775 85.3053 45.3576 85.1782 44.5106C85.0512 43.4942 84.5853 42.7743 84.3312 42.4778C85.1782 42.9013 88.1427 44.4683 89.6249 47.9832C90.5989 50.3548 90.5142 52.4723 90.3872 53.4886C91.4036 55.0556 92.674 57.3848 93.5634 60.3916C94.4103 63.1866 94.6221 65.6852 94.6221 67.5062C94.7068 69.5813 95.0032 80.8462 86.364 89.9937C75.9884 100.962 61.6321 99.3952 60.1075 99.1834C60.9968 99.6916 62.1403 100.2 63.4954 100.581C66.8834 101.513 69.8055 101.004 71.4571 100.581C67.8574 101.597 61.0392 102.91 53.3316 100.539C35.5873 95.0332 30.5901 75.2138 30.2513 73.901C30.5477 76.1455 31.0136 78.5594 31.6488 81.1003C32.6229 85.2082 33.8933 88.8079 35.1638 91.8994C33.131 89.6972 30.4207 86.1822 28.2609 81.3121C25.7199 75.5949 25.127 70.513 25 67.2945C25.0423 63.7795 25.5929 57.6389 28.8114 50.99C33.3851 41.5038 40.6692 36.5913 43.8454 34.6856C43.5913 34.6856 43.2525 34.6009 42.8714 34.4315C42.1091 34.0927 41.6856 33.5422 41.5162 33.2881C42.702 33.1187 44.1842 32.7799 45.8358 32.1446C47.4874 31.5094 48.8003 30.7471 49.7743 30.1119C47.1486 29.0531 44.1418 27.698 40.9657 25.8346C37.9165 24.0559 35.2909 22.1926 33.1734 20.4986L37.3236 22.7431L34.1474 19.9904C36.8578 21.8114 40.2881 23.7595 44.3959 25.4535C47.2333 26.6392 49.9013 27.4862 52.2729 28.1215C50.9601 27.4015 49.3931 26.3851 47.8262 24.9876C45.2006 22.7008 43.5066 20.2445 42.4902 18.4235C43.5913 19.3975 44.7347 20.3292 45.8358 21.3032L42.9561 18C45.3276 20.3292 48.6732 23.1243 53.0775 25.5382C55.5761 26.8933 57.9477 27.9097 60.0228 28.672C61.8438 28.9684 63.6225 29.2649 65.4435 29.5613C65.994 29.646 66.9681 29.9001 67.8997 30.6624C68.2809 30.9589 68.5773 31.2977 68.7891 31.5517C69.0432 31.8905 69.382 32.2717 69.7631 32.6528C70.3983 33.2881 70.9912 33.7963 71.5841 34.1774L80.1387 34.0503C80.6892 34.0503 81.0704 34.5585 80.9433 35.0667C80.5198 36.7607 79.6305 39.1746 77.4707 41.0803C76.9625 41.5462 76.4119 41.9273 75.9037 42.2237C76.2425 41.7579 76.7084 41.0803 77.0048 40.1486C77.2166 39.471 77.3436 38.8782 77.386 38.4123C77.0472 38.7511 76.666 39.1323 76.1155 39.471C75.3109 40.0216 74.5062 40.318 73.9557 40.4874C74.2521 40.1063 74.5486 39.5981 74.845 39.0476C75.1415 38.497 75.3532 37.9465 75.5226 37.4806C74.9297 37.523 74.0827 37.6077 73.0663 38.0312C71.9653 38.4547 71.203 39.0476 70.7371 39.471C70.7371 39.0899 70.8218 38.6241 70.9912 38.0735C71.1183 37.6924 71.2877 37.3536 71.4147 37.0995C71.1606 36.9301 70.9065 36.803 70.6101 36.6336C69.5514 36.1678 68.5773 36.1678 67.9421 36.2102C67.3069 36.2102 65.6129 36.3372 63.9613 37.523C63.3684 37.9465 62.9025 38.4123 62.5214 38.8782C61.7168 39.8945 61.7591 41.3768 62.6484 42.3508V42.3931C63.0296 42.7743 63.4531 43.0707 63.8342 43.2401C65.147 43.8754 66.6716 43.7483 67.9421 43.0707C67.9844 43.0284 68.0268 43.0284 68.0691 42.986C68.5773 42.6896 68.9585 42.3508 69.2126 42.0543C69.2549 42.3508 69.2973 42.9437 69.0855 43.6636C68.9161 44.2565 68.6197 44.68 68.4079 44.8917C68.9161 44.9764 69.509 45.0188 70.1866 45.0188C71.3724 44.9764 72.3041 44.68 72.9393 44.4259C72.5158 45.3576 71.5841 47.1786 69.5937 48.7032C68.0691 49.889 66.5446 50.4395 65.6129 50.6512C65.9517 50.143 66.3328 49.4231 66.5869 48.4914C66.6716 48.2373 66.714 47.9832 66.7563 47.7715C66.8834 47.1363 66.6293 46.501 66.1211 46.0775C65.5282 45.5693 64.893 45.527 64.6812 45.4846H61.1662C59.9381 45.4846 58.7523 45.654 57.5665 45.9928C56.9313 46.1622 56.2537 46.3316 55.5338 46.4587C53.7551 46.7975 52.1458 46.9669 50.7907 47.0092C51.7647 46.8398 53.4587 46.4163 55.0679 45.1458C55.6608 44.68 56.1267 44.1718 56.4655 43.7483L52.9928 43.4942Z" fill="#EFB13B"/>
</svg>
