<svg width="120" height="120" viewBox="0 0 120 120" fill="none" xmlns="http://www.w3.org/2000/svg">
<path d="M60 120C93.138 120 120 93.138 120 60C120 26.862 93.138 0 60 0C26.862 0 0 26.862 0 60C0 93.138 26.862 120 60 120Z" fill="#EDF0F4"/>
<path fill-rule="evenodd" clip-rule="evenodd" d="M42.6348 15.3438C41.337 15.9537 40.0567 17.0367 39.3155 18.1516C37.8588 20.3428 37.5728 21.7733 37.5728 26.8673C37.5728 29.662 37.5221 30.6808 37.3645 31.058C37.25 31.3321 36.7604 31.8909 36.2763 32.2998C34.3448 33.9316 31.407 36.9261 29.8858 38.8139C28.0275 41.1198 26.8117 43.0118 25.4275 45.7514C23.6223 49.3246 22.9864 51.4557 22.2343 56.4537C21.8481 59.0213 21.9108 60.2947 22.6367 64.6189C23.4585 69.5145 25.7388 74.8002 29.321 80.1132C32.1489 84.3074 35.6434 87.251 40.8971 89.8644C44.3433 91.5787 50.4259 93.5415 55.1349 94.4588C57.8183 94.9815 58.8898 95.0403 59.2459 94.6843C59.3765 94.5536 59.4998 94.4346 59.5199 94.4198C59.5398 94.4049 59.5909 80.6133 59.6332 63.7717C59.708 33.929 59.7172 33.1424 59.9978 32.8324C60.5255 32.2493 62.1117 32.4616 65.7195 33.5984C66.5316 33.8542 68.1295 34.5218 69.2705 35.0821C74.8996 37.8457 78.6939 41.4499 81.5314 46.729C82.8827 49.243 84.2442 53.5884 84.5747 56.4425C84.6628 57.2029 84.7991 58.28 84.8776 58.8362C84.9562 59.3924 85.0189 61.0924 85.0171 62.6139C85.0145 64.775 84.9505 65.6668 84.7241 66.6904C83.8191 70.7826 81.9288 74.484 79.3423 77.2278C77.7457 78.9217 76.8953 79.2615 76.5468 78.345C76.4658 78.1317 76.4073 72.9327 76.4073 65.937C76.4073 55.8078 76.3709 53.7041 76.1781 52.6872C75.5144 49.1865 74.5596 47.4632 71.7609 44.7163C70.124 43.1095 69.5572 42.8561 69.1917 43.2966C69.0667 43.4473 69.1635 51.603 69.1917 74.079V104.656V104.878C69.5597 105.085 70.0963 105.062 71.1799 104.548C72.5248 103.909 73.8964 102.688 74.4819 101.608C75.1832 100.314 75.3496 98.9727 75.3496 94.6108C75.3496 89.9966 75.3502 89.9945 76.7679 88.9165C78.3539 87.7107 81.4183 85.026 82.6196 83.7899C85.2716 81.0615 87.2116 78.2947 88.1268 75.9362C88.804 74.1911 88.9998 73.9178 89.5732 73.9178C90.1134 73.9178 91.3148 74.9466 94.1469 77.8342C95.3019 79.0117 96.3728 80.0426 96.5268 80.1251C96.8453 80.2955 97.3243 80.1042 97.4591 79.7529C97.5051 79.6332 97.6249 78.9984 97.7252 78.3423C97.8835 77.3089 97.8727 76.9914 97.6449 75.9669C96.9776 72.9679 96.1962 71.5951 94.0483 69.6478C93.2928 68.9628 92.3635 68.118 91.9833 67.7706L91.2918 67.1386L91.2917 61.7263C91.2914 55.9937 91.2136 54.9999 90.5194 51.8561C90.0461 49.7138 89.4281 47.7455 88.5642 45.6308C87.6113 43.2983 87.158 42.4562 85.6033 40.1294C83.1898 36.5175 79.8879 33.4159 75.9053 31.0195C71.8164 28.5591 66.917 26.8584 61.0699 25.8698C56.8994 25.1647 53.7388 25.0097 53.2879 25.4606C53.038 25.7105 53.3592 27.4335 53.2879 56.3789C53.2143 86.2543 53.2051 87.0405 52.9245 87.3504C52.5065 87.8122 51.6677 87.7607 49.5131 87.1404C41.7992 84.9202 35.3866 80.1316 31.8493 73.9502C29.6211 70.0565 28.4441 65.9367 28.1922 61.1492C27.9137 55.8568 28.5375 52.734 30.7164 48.5118C31.572 46.8538 33.4013 44.1102 34.6519 42.6091C36.2657 40.6719 36.855 40.321 37.3375 41.0101C37.5456 41.3068 37.5728 42.6951 37.5728 52.983C37.5728 62.8549 37.6095 64.8728 37.8145 66.2846C38.2778 69.4755 39.5715 71.9626 42.0005 74.3333C43.3509 75.6513 43.896 75.8859 44.2162 75.2877C44.32 75.0937 44.3736 71.118 44.3756 63.4635C44.3773 57.121 44.3005 51.4897 44.3756 50.9494C44.4507 50.4092 44.3486 42.1929 44.3756 32.691C44.4241 15.7343 44.7449 15.4109 44.4571 15.2003C44.0383 14.8943 43.5018 14.9364 42.6348 15.3438Z" fill="#F4657B"/>
</svg>
