<svg width="120" height="120" viewBox="0 0 120 120" fill="none" xmlns="http://www.w3.org/2000/svg">
<circle cx="60" cy="60" r="60" fill="#3C80F1"/>
<path d="M60 15C39.5772 15.0149 23.0224 31.546 23 51.9449C23.0187 53.9367 23.2427 55.921 23.6646 57.8681C23.7082 58.0552 23.8426 58.2081 24.0227 58.2755C24.2027 58.343 24.4046 58.316 24.5606 58.2037C25.9741 57.1926 27.6684 56.6476 29.4069 56.6446C29.577 56.6503 29.7407 56.5794 29.8528 56.4515C29.9649 56.3236 30.0137 56.1521 29.9856 55.9844C29.7397 54.6656 29.6123 53.3275 29.6047 51.986C29.6047 35.2177 43.2115 21.6244 59.9963 21.6244C76.781 21.6244 90.3878 35.2177 90.3878 51.986C90.3878 68.7333 68.942 90.1245 61.2657 97.6776C60.5628 98.3666 59.4372 98.3666 58.7343 97.6776C55.4845 94.5092 52.3307 91.244 49.2771 87.8865H49.1278C46.1909 87.5981 43.3078 86.9079 40.5591 85.835L40.0514 85.6299C39.8091 85.5183 39.5217 85.5904 39.361 85.8031C39.2002 86.0158 39.2094 86.3116 39.383 86.5139C44.1357 92.1877 49.1791 97.6121 54.4929 102.765C57.5513 105.745 62.4301 105.745 65.4884 102.765C79.004 89.427 97 69.6956 97 51.9449C96.9776 31.5422 80.4228 15.0149 60 15" fill="white"/>
<path fill-rule="evenodd" clip-rule="evenodd" d="M81.4861 49.9494C81.766 51.2639 81.9272 52.6009 81.9677 53.9442H81.9752C81.9762 54.0344 81.9786 54.1283 81.9811 54.2228C81.9875 54.4719 81.9941 54.725 81.9752 54.9252V55.8614C81.9528 56.4955 81.9192 57.096 81.8669 57.7599C81.6847 60.4084 81.0731 63.0097 80.0561 65.4622C78.9832 67.8706 77.5478 70.1007 75.7998 72.0754L75.7587 72.0418C72.5903 75.7765 68.5748 78.701 64.0464 80.5722C59.5001 82.506 54.5437 83.2802 49.6235 82.825C47.145 82.5811 44.7116 81.9988 42.3915 81.0943C40.08 80.1887 37.9001 78.9782 35.91 77.495C32.0512 74.5579 28.8533 70.8434 26.5237 66.5924C25.7524 65.1741 26.1221 63.4065 27.3975 62.4155C28.6728 61.4246 30.4788 61.5016 31.6649 62.5976C33.6645 64.4344 36.2083 65.5708 38.9118 65.8352C39.6697 65.9061 40.4276 65.8464 41.1632 65.6599C41.6557 65.5479 42.1032 65.2906 42.4475 64.9214C42.5884 64.7511 42.7018 64.5598 42.7835 64.3544C42.8881 64.0784 42.959 63.7949 42.9964 63.504C43.0561 63.0751 43.086 62.6424 43.086 62.2097V37.4803C43.2752 34.7332 44.8664 32.2768 47.2975 30.979C48.1674 30.5165 49.1157 30.2181 50.0902 30.1062C50.3329 30.054 50.5793 30.054 50.8182 30.054H58.278C58.6513 30.0913 58.9799 30.0913 59.3197 30.0913C62.0182 30.2976 64.6557 30.998 67.1005 32.1577C71.8851 34.4066 75.8863 38.0349 78.5888 42.5754C79.9521 44.8584 80.9309 47.3495 81.4861 49.9494ZM75.292 57.2228C75.3405 56.7155 75.3816 56.2045 75.3816 55.6823L75.3779 55.6861V54.1717C75.3517 53.2131 75.2397 52.2583 75.0419 51.3183C74.844 50.3784 74.5677 49.4459 74.2205 48.5507C73.8583 47.6481 73.4252 46.7753 72.9324 45.9398C70.9067 42.5415 67.9131 39.8236 64.3339 38.133C62.6164 37.3125 60.7608 36.8164 58.8642 36.6672H50.8631C50.2592 36.7474 49.7756 37.2065 49.6646 37.8048V37.9316C49.6628 37.9552 49.6628 37.9789 49.6646 38.0025V62.2097C49.6907 62.9259 49.672 63.6457 49.5974 64.3544C49.4779 65.2048 49.2576 66.0329 48.9328 66.8274C48.2374 68.567 46.9884 70.0297 45.3784 70.99C44.6337 71.4346 43.8325 71.7771 42.9964 72.0082C42.0704 72.2656 41.1183 72.4111 40.1588 72.4409C43.1298 74.5875 46.6171 75.9093 50.2657 76.2715C54.0944 76.609 57.947 75.9913 61.4777 74.4737C65.0429 72.9684 68.2305 70.6935 70.8117 67.8121L70.7744 67.7785C72.0774 66.3126 73.1527 64.6603 73.9591 62.8699C74.7075 61.0724 75.1577 59.165 75.292 57.2228Z" fill="white"/>
</svg>
