<svg width="120" height="120" viewBox="0 0 120 120" fill="none" xmlns="http://www.w3.org/2000/svg">
<circle cx="60" cy="60" r="60" fill="#EDF0F4"/>
<path fill-rule="evenodd" clip-rule="evenodd" d="M42.0145 27.2179C41.8989 27.4046 42.4799 27.6034 43.5214 27.7336C47.5233 28.2336 52.6886 30.2077 56.5775 32.7235C59.1238 34.3706 62.9479 37.9766 64.9225 40.5924C66.8992 43.2108 69.141 47.8429 70.0842 51.2588C71.0479 54.7468 71.4008 61.1991 70.8248 64.7939C68.7664 77.6411 59.0306 88.2125 46.5878 91.1108C41.1905 92.3683 41.4314 92.26 43.4338 92.528C45.7694 92.8405 50.8814 92.2703 54.1685 91.3304C65.3074 88.1459 73.9225 79.3962 76.959 68.1842C77.6638 65.5815 78.1819 64.7956 78.1934 59.8345C78.2049 54.7426 77.7049 54.1592 76.9431 51.4067C73.6938 39.6702 64.7858 30.9817 52.7762 27.8357C50.2039 27.162 42.3285 26.7099 42.0145 27.2179Z" fill="#372687"/>
</svg>
