<svg width="120" height="120" viewBox="0 0 120 120" fill="none" xmlns="http://www.w3.org/2000/svg">
<circle cx="60" cy="60" r="60" fill="#49158C"/>
<path d="M97 47L64.5 97.5H53L85 47H97Z" fill="white"/>
<path d="M46 22L56 97.5H44.5L34 22H46Z" fill="white"/>
<path d="M43.5 22H54.7751L97.0115 47.1407L95.9885 48.8593L54.225 24H43.5V22Z" fill="white"/>
<path d="M55.4897 22.8554L64.9897 87.8554L63.0107 88.1446L53.5107 23.1446L55.4897 22.8554Z" fill="white"/>
<path d="M44.5045 27.1367L76.7708 46H94.4998V48H76.229L43.4951 28.8633L44.5045 27.1367Z" fill="white"/>
<path d="M75.6582 46.4609L77.3427 47.539L53.3427 85.039L51.6582 83.9609L75.6582 46.4609Z" fill="white"/>
</svg>
