<svg width="120" height="120" viewBox="0 0 120 120" fill="none" xmlns="http://www.w3.org/2000/svg">
<circle cx="60" cy="60" r="60" fill="#AA15DD"/>
<path fill-rule="evenodd" clip-rule="evenodd" d="M58.3297 22.6706C58.321 23.5747 59.0637 24.3183 59.998 24.3409C60.6923 24.3505 61.3225 23.9495 61.5884 23.3289C61.8591 22.7065 61.7216 21.988 61.2384 21.5006C60.7598 21.0166 60.0228 20.8672 59.3836 21.1244C58.7497 21.3803 58.3297 21.9934 58.3297 22.6706ZM94.1362 43.0375C93.7455 43.2565 93.2804 43.3149 92.8448 43.1996C92.4093 43.0844 92.0396 42.8051 91.8185 42.4243C91.4706 41.8365 91.5164 41.105 91.9352 40.5621C92.3492 40.0232 93.0619 39.7844 93.7318 39.9602C94.4041 40.1441 94.8979 40.6989 94.986 41.3694C95.0742 42.04 94.7396 42.6967 94.1362 43.0375ZM25.852 43.0375C25.0349 42.5647 24.7584 41.5467 25.2298 40.7465C25.5702 40.1609 26.2453 39.8354 26.9335 39.925C27.6218 40.0145 28.184 40.501 28.3524 41.1528C28.5311 41.806 28.2911 42.4996 27.7418 42.9171C27.1975 43.3297 26.4475 43.3774 25.852 43.0375ZM59.9966 96.6595C60.9287 96.6646 61.6856 97.4127 61.6895 98.3297C61.6982 99.2424 60.9414 99.9897 59.998 100C59.5442 99.996 59.1106 99.8178 58.7926 99.5046C58.4747 99.1913 58.2984 98.7687 58.3025 98.3297C58.2984 97.8907 58.4747 97.4681 58.7926 97.1549C59.1103 96.8419 59.5433 96.6638 59.9966 96.6595ZM59.9966 96.6595L59.9941 96.6594H59.998L59.9966 96.6595ZM27.1433 77.8383C26.7078 77.723 26.2427 77.7815 25.852 78.0005C25.0382 78.4702 24.7617 79.483 25.2298 80.2802C25.4494 80.6626 25.819 80.9432 26.2552 81.0586C26.6914 81.174 27.1572 81.1145 27.5474 80.8934C28.3612 80.4236 28.6376 79.4108 28.1696 78.6137C27.9485 78.2328 27.5789 77.9535 27.1433 77.8383ZM90.3292 77.7371C89.4774 79.1907 89.8433 81.0276 91.1925 82.0708L63.3849 97.8708C63.1633 96.2239 61.7185 94.9884 60.0019 94.9779C58.2852 94.9884 56.8404 96.2239 56.6187 97.8708L28.8034 82.0708C30.1479 81.0259 30.5103 79.1918 29.6589 77.7409C28.8263 76.2947 27.0094 75.6765 25.4242 76.3001V44.7002C27.0073 45.3222 28.8213 44.706 29.655 43.2632C30.5068 41.8158 30.1496 39.9846 28.8112 38.937L56.6187 23.1371C56.8404 24.7839 58.2852 26.0194 60.0019 26.03C61.7198 26.0191 63.1651 24.7817 63.3849 23.1333L91.2003 38.9332C89.8579 39.9777 89.4957 41.8094 90.3448 43.2594C91.1774 44.7056 92.9943 45.3238 94.5795 44.7002V76.2813C92.9871 75.6571 91.1638 76.2822 90.3331 77.7371H90.3292ZM48.0016 69.1563C52.2718 74.8377 60.3023 76.4556 66.562 72.8956H66.5581C69.5633 71.1889 71.8276 68.4866 72.9315 65.289C74.5842 60.5265 82.0153 63.1824 79.2389 69.3669C79.2389 69.4081 79.2134 69.4475 79.1898 69.484L79.1896 69.4844C79.1844 69.4923 79.1793 69.5002 79.1747 69.5078C79.1696 69.5162 79.1649 69.5244 79.1611 69.5324L88.3071 74.7239C89.0766 75.1814 89.3315 76.1475 88.8826 76.9058C88.4354 77.6657 87.4555 77.9328 86.6778 77.5039L77.5901 72.3576C75.7707 75.168 73.2845 77.5178 70.3378 79.2118C67.7259 80.7198 64.8047 81.6571 61.7789 81.958V91.7389C61.7831 92.1739 61.6084 92.5927 61.2934 92.9031C60.9783 93.2135 60.5487 93.3902 60.0991 93.3941C59.1697 93.3941 58.4153 92.653 58.4153 91.7389V82.0407C51.6393 81.644 45.4325 78.2425 41.597 72.8241L33.3259 77.5114C32.9514 77.7238 32.5044 77.7817 32.0854 77.672C31.6664 77.5624 31.3105 77.2944 31.0977 76.9283C30.6439 76.1636 30.9068 75.1882 31.6888 74.7351L39.9288 70.0516C39.3922 68.9569 38.9527 67.8208 38.6028 66.6546L37.8212 62.351C37.5202 58.4554 38.3129 54.5535 40.1154 51.0578L31.6888 46.2652C30.9123 45.8138 30.6485 44.8464 31.0938 44.0833C31.3044 43.7171 31.6586 43.4484 32.0764 43.338C32.4943 43.2276 32.9405 43.2847 33.3142 43.4964L41.807 48.3154C43.6126 45.856 45.9374 43.7954 48.6276 42.27C51.6084 40.5707 54.9713 39.5973 58.427 39.4336V29.2614C58.4228 28.8258 58.598 28.4064 58.9139 28.0959C59.2298 27.7854 59.6604 27.6092 60.1107 27.6062C60.5604 27.6102 60.99 27.7868 61.3051 28.0972C61.6201 28.4076 61.7948 28.8264 61.7906 29.2614V39.5276C68.1622 40.2402 73.8889 43.6236 77.454 48.7819L86.7167 43.4964C87.0884 43.2755 87.5379 43.2128 87.959 43.3232C88.3801 43.4336 88.7354 43.7073 88.941 44.0795C89.3843 44.8469 89.1121 45.825 88.3343 46.2652L75.7352 53.4353L75.5641 53.5143L72.601 55.2072L66.3481 58.7584L48.0016 69.1563ZM94.1401 78.0005C94.9526 78.4729 95.2285 79.4854 94.7622 80.2839C94.542 80.6657 94.172 80.9456 93.7359 81.0602C93.2998 81.1749 92.8343 81.1148 92.4446 80.8934C91.6308 80.4236 91.3544 79.4108 91.8224 78.6137C92.042 78.2312 92.4117 77.9506 92.8478 77.8352C93.284 77.7198 93.7499 77.7794 94.1401 78.0005ZM52.2907 48.5712C46.1506 52.0622 45.3806 56.4373 45.5478 62.7084L68.3352 49.76C63.7713 46.1541 57.3689 45.6798 52.2907 48.5712Z" fill="white"/>
</svg>
