<svg width="120" height="120" viewBox="0 0 120 120" fill="none" xmlns="http://www.w3.org/2000/svg">
<circle cx="60" cy="60" r="60" fill="#2B1544"/>
<path fill-rule="evenodd" clip-rule="evenodd" d="M93.9947 72.3341V47.3632C93.9947 45.8701 93.6444 44.3807 93.0371 43.0301C92.0758 40.8879 90.5967 38.8808 88.581 37.6803C84.5421 35.2911 80.4989 32.9126 76.4555 30.5339L76.4554 30.5339L76.4544 30.5333C72.93 28.46 69.4053 26.3865 65.8831 24.3057C65.0224 23.7955 64.0462 23.5104 63.0887 23.2402C60.9368 22.8239 58.716 22.9502 56.6243 23.6079C55.7416 23.9131 54.9367 24.3979 54.1324 24.8823C53.8096 25.0767 53.4869 25.271 53.1593 25.4537C46.2143 29.543 39.2655 33.6323 32.3168 37.7065C31.4074 38.2676 30.6018 38.9836 29.936 39.8225C28.2929 41.8071 27.1379 44.2944 27 46.9206V73.8798C27 75.6843 27.5999 77.4176 28.4196 78.9933C29.4218 80.8091 30.7855 82.4973 32.6111 83.5215C36.5849 85.8532 40.5597 88.1892 44.535 90.5255L44.5415 90.5293L44.5535 90.5363C48.049 92.5906 51.5449 94.6452 55.0408 96.6972C56.1455 97.3207 57.3605 97.7209 58.6176 97.8752C61.0245 98.1754 63.5879 97.9765 65.7564 96.8098C68.4274 95.2406 71.0958 93.671 73.7638 92.1016C78.1891 89.4985 82.6132 86.8961 87.0459 84.2981C87.2439 84.1803 87.4436 84.0651 87.6433 83.9499L87.6441 83.9494C88.5 83.4557 89.3548 82.9626 90.0676 82.2722C91.9364 80.494 93.2362 78.1951 93.8009 75.6693C94.012 74.7461 94.0046 73.7934 93.9973 72.8498V72.8489C93.996 72.6769 93.9947 72.5052 93.9947 72.3341ZM54.7353 44.6771C56.8132 42.6838 58.6708 40.47 60.2756 38.0742C60.5153 38.1558 60.7082 38.3377 60.8047 38.5732C62.1535 41.1018 64.0499 43.2852 66.0246 45.3299C67.3063 46.5904 68.2527 48.2411 68.5731 50.0419C68.9941 52.0453 67.8242 54.2625 65.9427 54.9866C64.5604 55.523 62.962 55.4255 61.6393 54.7727C61.5891 54.7554 61.5319 54.7295 61.4714 54.7021C61.2312 54.5934 60.9387 54.461 60.8196 54.7427C61.0462 56.3159 61.7915 57.7129 62.5206 59.0796C62.5948 59.2187 62.6689 59.3574 62.7422 59.496C62.8991 59.7555 62.6936 59.9533 62.5109 60.129C62.4638 60.1744 62.4182 60.2183 62.3807 60.2614C62.0566 60.564 61.7518 60.8895 61.4465 61.2153C60.9798 61.7136 60.5122 62.2128 59.9738 62.6324C59.7722 62.5675 59.6211 62.4073 59.4762 62.2536L59.4761 62.2535C59.4282 62.2028 59.3811 62.1528 59.333 62.1072C58.9777 61.7302 58.6126 61.3597 58.2466 60.9881L58.2465 60.988L58.2463 60.9878C57.8256 60.5608 57.4035 60.1324 56.9932 59.6911L56.9559 59.436C57.1277 59.1257 57.3086 58.8168 57.4902 58.5067C58.2068 57.2833 58.9342 56.0413 59.1542 54.6227C58.8795 54.5823 58.5991 54.6213 58.3456 54.7352C56.9373 55.2904 55.3352 55.418 53.9193 54.8478C52.5259 54.3075 51.4528 52.9719 51.2851 51.4563C51.1436 50.3308 51.4789 49.2128 51.9782 48.2299C52.6004 46.838 53.6473 45.7163 54.7353 44.6771ZM46.7396 62.4973C44.5041 63.7204 43.01 66.1177 42.6412 68.665C42.1307 72.2403 44.206 75.9769 47.4214 77.4401C49.4557 78.3217 51.8179 78.303 53.8672 77.4964C54.9253 77.0687 55.8307 76.3709 56.6094 75.5493C56.671 75.4833 56.7384 75.4189 56.8066 75.3537C57.0643 75.1075 57.3322 74.8515 57.3322 74.4688C57.3047 74.1111 57.0614 73.8723 56.8236 73.6388C56.7396 73.5563 56.6562 73.4745 56.5833 73.3883C56.4479 73.2673 56.3227 73.1328 56.1975 72.9983L56.1975 72.9982C55.9851 72.7701 55.7728 72.542 55.5103 72.3791C54.9964 72.152 54.64 72.5329 54.307 72.8888L54.3069 72.8888C54.2054 72.9974 54.106 73.1036 54.005 73.1895C52.3098 74.9227 49.2583 74.9377 47.522 73.2458C46.3859 72.1694 45.8576 70.5934 46.1137 69.0439C46.3223 67.6071 47.1718 66.2452 48.4386 65.5624C49.2583 65.1497 50.1786 64.9246 51.0839 64.9659C52.3619 65.0484 53.5318 65.7312 54.3962 66.6691C55.9507 68.2265 57.4741 69.8139 58.9976 71.4015C60.3662 72.8276 61.7348 74.2538 63.1259 75.6581C64.6833 77.2075 66.8406 78.2017 69.0389 78.1154C70.7155 78.1529 72.3288 77.4776 73.6925 76.5247C75.7007 75.1178 76.9228 72.6755 77.0457 70.2069C77.314 66.2977 74.501 62.3548 70.7118 61.6007C68.2937 61.1055 65.5626 61.6157 63.6997 63.349C62.9709 64.0168 62.2781 64.73 61.5842 65.4443L61.5842 65.4443C61.0152 66.03 60.4455 66.6165 59.8546 67.1794C59.1439 66.5899 58.5114 65.9186 57.8792 65.2477C57.3083 64.6418 56.7378 64.0363 56.1101 63.4915C55.5453 62.952 54.8892 62.5188 54.1727 62.2122C54.1464 62.1953 54.1236 62.1802 54.1026 62.1662L54.1025 62.1661C54.0159 62.1086 53.9588 62.0707 53.815 62.0134C51.5148 61.0293 48.8864 61.2091 46.7396 62.4973ZM69.1953 65.0222C67.8354 64.9096 66.4717 65.4761 65.5067 66.4441C64.9907 66.9843 64.4691 67.5133 63.9475 68.0422C63.4258 68.5712 62.9042 69.1002 62.3882 69.6404C62.3962 69.6786 62.4041 69.7414 62.4121 69.8042C62.419 69.8588 62.426 69.9134 62.4329 69.9518C62.9567 70.4443 63.4531 70.965 63.9496 71.4858C64.6255 72.1949 65.3016 72.9041 66.047 73.5421C67.787 75.0353 70.559 74.8365 72.176 73.257C73.7483 71.7113 74.106 69.0139 72.8839 67.1381C72.1015 65.8588 70.6708 65.0634 69.1953 65.0222Z" fill="white"/>
</svg>
