<svg width="120" height="120" viewBox="0 0 120 120" fill="none" xmlns="http://www.w3.org/2000/svg">
<circle cx="60" cy="60" r="60" fill="#EDF0F4"/>
<path d="M20 59.8916H55.0739L33.0049 38.0197L20 59.8916Z" fill="url(#paint0_linear)"/>
<path d="M60.1964 26V45.9015L40.2949 26H60.1964Z" fill="url(#paint1_linear)"/>
<path d="M55.0739 59.8916L33.202 81.9606L20 59.8916H55.0739Z" fill="url(#paint2_linear)"/>
<path d="M60.1973 45.9015L80.0199 26H60.1973L60.1973 45.9015Z" fill="url(#paint3_linear)"/>
<path d="M99.9997 59.8916L86.7977 38.0197L64.9258 59.8916H99.9997Z" fill="url(#paint4_linear)"/>
<path d="M87.1918 81.9606L64.9258 59.8916H99.9997L87.1918 81.9606Z" fill="url(#paint5_linear)"/>
<path d="M60.1964 73.8818V94.1773H40.2949L60.1964 73.8818Z" fill="url(#paint6_linear)"/>
<path d="M80.0199 94.1773H60.1973V73.8818L80.0199 94.1773Z" fill="url(#paint7_linear)"/>
<defs>
<linearGradient id="paint0_linear" x1="51.915" y1="56.3339" x2="52.0171" y2="38.4676" gradientUnits="userSpaceOnUse">
<stop stop-color="#43C465"/>
<stop offset="1" stop-color="#14A53C"/>
</linearGradient>
<linearGradient id="paint1_linear" x1="59.5242" y1="26.7096" x2="41.1334" y2="25.9214" gradientUnits="userSpaceOnUse">
<stop stop-color="#33C2F7"/>
<stop offset="1" stop-color="#0F95B2"/>
</linearGradient>
<linearGradient id="paint2_linear" x1="54.7197" y1="81.8494" x2="54.6157" y2="60.5679" gradientUnits="userSpaceOnUse">
<stop stop-color="#43C465"/>
<stop offset="1" stop-color="#14A53C"/>
</linearGradient>
<linearGradient id="paint3_linear" x1="62.7862" y1="43.9554" x2="78.8125" y2="43.6948" gradientUnits="userSpaceOnUse">
<stop stop-color="#03B7F9"/>
<stop offset="1" stop-color="#0F95B2"/>
</linearGradient>
<linearGradient id="paint4_linear" x1="96.9123" y1="56.7775" x2="96.708" y2="38.6458" gradientUnits="userSpaceOnUse">
<stop stop-color="#43C465"/>
<stop offset="1" stop-color="#14A53C"/>
</linearGradient>
<linearGradient id="paint5_linear" x1="100.276" y1="83.017" x2="100.172" y2="60.9473" gradientUnits="userSpaceOnUse">
<stop stop-color="#43C465"/>
<stop offset="1" stop-color="#14A53C"/>
</linearGradient>
<linearGradient id="paint6_linear" x1="59.3008" y1="73.9993" x2="39.5958" y2="74.5045" gradientUnits="userSpaceOnUse">
<stop stop-color="#FFF58E"/>
<stop offset="1" stop-color="#FFCA20"/>
</linearGradient>
<linearGradient id="paint7_linear" x1="61.4275" y1="91.7809" x2="76.4046" y2="92.5328" gradientUnits="userSpaceOnUse">
<stop stop-color="#FEDA5A"/>
<stop offset="1" stop-color="#FFCA20"/>
</linearGradient>
</defs>
</svg>
