<svg width="120" height="120" viewBox="0 0 120 120" fill="none" xmlns="http://www.w3.org/2000/svg">
<circle cx="60" cy="60" r="60" fill="#030000"/>
<path fill-rule="evenodd" clip-rule="evenodd" d="M105.321 99.3209C94.7904 108.465 81.0416 114 66 114C32.8629 114 6 87.1371 6 54C6 38.9584 11.5349 25.2096 20.6791 14.6791C8.01063 25.68 0 41.9045 0 60C0 93.1371 26.8629 120 60 120C78.0955 120 94.32 111.989 105.321 99.3209Z" fill="#53710C"/>
<path d="M80.0325 91C78.07 91 76.2709 90.775 75.6168 90.6627C75.7257 89.6506 75.9766 87.3904 76.1074 86.4458C76.2709 85.2651 76.1074 83.241 75.1261 81.8916C74.3411 80.812 73.3817 78.1807 73 77L76.9251 77.6747C78.4952 77.9446 80.1961 78.012 80.8503 78.012C80.7413 79.4738 80.5886 82.7687 80.8503 84.253C81.1774 86.1084 82.8128 86.9518 82.9764 88.3012C83.1399 89.6506 82.4857 91 80.0325 91Z" fill="#96BD3F"/>
<path d="M56.4711 29L57 29.3793C56.5375 29.969 55.6336 30.8367 55.0401 31.0637L54.9155 31.1134L54.8181 31.1543L54.5179 31.2863L54.2117 31.4259L52.3238 32.3067L51.9372 32.484L51.6276 32.624L51.3338 32.7548L51.0554 32.8765L50.7916 32.9893L50.5417 33.0935L50.3052 33.1892C50.2668 33.2044 50.229 33.2193 50.1917 33.2339L50.0813 33.2765C49.3034 33.5741 48.27 34.039 47.3326 34.4923L46.908 34.7C46.7696 34.7685 46.6348 34.8362 46.5047 34.9022L46.3135 35L46 34.4433C46.4449 34.2143 46.9568 33.962 47.4812 33.7144L47.9326 33.504C48.5351 33.2267 49.1337 32.9658 49.6473 32.7628L49.9429 32.6481L50.1668 32.5591L50.4041 32.4615L50.6553 32.3554L51.0596 32.1795L51.3483 32.051L51.9052 31.7978L53.9297 30.854L54.3142 30.6794L54.5572 30.5733L54.7075 30.5109L54.7945 30.4767C55.0346 30.3849 55.3869 30.1166 55.7781 29.7411L55.899 29.6228L56.0182 29.502L56.1323 29.3828L56.238 29.269L56.332 29.1646L56.4108 29.0736C56.4225 29.0598 56.4334 29.0467 56.4434 29.0344L56.4711 29Z" fill="#96BD3F"/>
<path d="M48 34.5831C48.0274 34.5729 48.0576 34.5628 48.0903 34.5528C48.3959 34.4534 48.9528 34.2998 49.3061 34.2998C49.7959 34.2998 51.5918 33.733 53.0612 34.1581C54.2367 34.4981 55.5102 35.5277 56 36C55.7279 36 54.8245 35.9717 53.3878 35.8583C51.5918 35.7166 50.7755 35.5749 49.9592 34.8665C49.3531 34.3405 48.5126 34.4247 48.0903 34.5528C48.057 34.5637 48.0267 34.5738 48 34.5831Z" fill="#96BD3F"/>
<path d="M56.102 32.609C55.7102 31.7744 53.8708 31.5659 53 31.5659C53.1089 31.45 53.5224 31.1834 54.3061 31.0443C55.2857 30.8704 57.0816 31.2182 58.2245 31.9136C59.1388 32.47 60.4557 33.3045 61 33.6523C60.9455 33.7682 60.5429 34 59.3673 34C57.898 34 56.5918 33.6523 56.102 32.609Z" fill="#96BD3F"/>
<path d="M47.7451 32.7461C46.9607 33.2734 46.3333 32.9219 46.0195 32.2188C45.9673 31.8086 45.9882 30.7773 46.4901 29.9336C46.9921 29.0898 48.3725 28.293 49 28C48.8431 28.4687 48.5294 29.6523 48.5294 30.6367C48.5294 31.8672 48.5294 32.2188 47.7451 32.7461Z" fill="#96BD3F"/>
<path d="M53.4762 29.5483C52.5619 30.5805 51.4445 30.9462 51 31C51.0635 30.1398 51.3429 28.2257 51.9524 27.4516C52.5619 26.6774 54.2381 26.1613 55 26C54.873 26.7527 54.3905 28.516 53.4762 29.5483Z" fill="#96BD3F"/>
<path d="M58.8462 29.0488C58.1077 30.0562 57.3077 30.0682 57 29.9483C57 29.6485 57.0308 28.9049 57.1538 28.3293C57.3077 27.6098 57.7692 26.3505 58.6923 25.4511C59.4308 24.7315 60.5385 25.0314 61 25.2712C60.8462 25.3911 60.4769 25.7389 60.2308 26.1706C59.9231 26.7103 59.7692 27.7896 58.8462 29.0488Z" fill="#96BD3F"/>
<path d="M62.5946 31.8944C60.9081 31.5874 60.1622 30.743 60 30.3592C60.4324 29.8475 61.6541 28.8626 63.0811 29.0161C64.5081 29.1696 65.6215 30.743 66 31.5105C65.5677 31.7664 64.2811 32.2014 62.5946 31.8944Z" fill="#96BD3F"/>
<path d="M51.3086 30L52 30.2467L50.6914 33L50 32.7533L51.3086 30Z" fill="#96BD3F"/>
<path d="M56.03 30L60 30.4003L59.97 32L56 31.5997L56.03 30Z" fill="#96BD3F"/>
<path d="M47.3086 32L48 32.2467L46.6914 35L46 34.7533L47.3086 32Z" fill="#96BD3F"/>
<path d="M40.6824 59.1142C39.6941 59.839 38.2118 60.3824 34.4235 59.6578C31.3929 59.078 28.8784 57.7254 28 57.1216C28.6588 57.3028 30.2071 57.7375 31.1294 58.0273C32.2824 58.3896 34.7529 58.2085 36.0706 58.0273C37.3882 57.8462 39.8588 56.2159 40.6824 56.0347C41.5059 55.8536 42 56.397 42 57.3028C42 58.2085 41.6706 58.3896 40.6824 59.1142Z" fill="#96BD3F"/>
<path d="M34.1713 56.9927C32.1965 57.1033 29.2343 55.9322 28 55.3327C28.4702 55.425 29.6927 55.6372 30.8212 55.7477C32.2318 55.8859 34.7003 55.886 35.4056 55.7477C36.1109 55.6094 37.5215 54.7794 38.4031 55.0561C39.2847 55.3327 39.1084 56.0244 38.4031 56.301C37.6978 56.5777 36.6398 56.8544 34.1713 56.9927Z" fill="#96BD3F"/>
<path fill-rule="evenodd" clip-rule="evenodd" d="M49.5587 59.9667C49.9552 61.2639 51.4729 65.1572 53.1714 65.6436C55.2108 66.2277 57.2062 66.7353 61.115 66.0585C64.591 65.4564 65.3789 64.4529 66.1083 63.5243L66.1086 63.5239C66.1994 63.4085 66.2891 63.2941 66.3833 63.1818C66.9142 62.5472 67.4454 61.582 67.9763 60.6171C68.2951 60.0381 68.6136 59.459 68.9324 58.9513C69.7822 57.5976 70.5058 56.1674 70.8457 53.9676C71.1856 51.7678 70.6319 48.7982 68.9324 47.7829C67.233 46.7677 65.3636 47.1061 64.6838 47.2753C64.5904 47.2985 64.5003 47.3282 64.4095 47.358C63.8385 47.5456 63.2376 47.7431 61.6248 46.4292C59.7554 44.9063 55.5068 42.1988 51.0882 43.0449C46.7899 43.8679 44.2606 45.9721 43.1874 46.8649L43.1008 46.9369C42.0811 47.783 39.1921 49.6444 36.9828 48.7983C34.7735 47.9522 32.3943 45.5832 33.0741 42.7065C33.7539 39.8298 35.6233 38.8145 38.5123 38.9837C39.0522 39.0153 39.5801 39.0588 40.0907 39.1008C42.3125 39.2836 44.2046 39.4392 45.3101 38.476C46.6696 37.2915 46.8396 36.2762 46.8396 35.4301C46.8396 34.5841 46.4997 33.738 45.1401 34.0764C44.4534 34.2474 44.0702 34.7637 43.7058 35.2546C43.3488 35.7357 43.0098 36.1924 42.421 36.2762C41.6438 36.3867 40.0688 36.3528 38.3593 36.316C37.4521 36.2965 36.507 36.2762 35.6233 36.2762C33.0741 36.2762 30.355 38.3068 28.8255 40.845C27.296 43.3833 26.2763 47.2753 27.6359 49.3059C28.5186 50.6243 29.8312 51.8 30.8294 52.6942C31.3686 53.1771 31.816 53.578 32.0544 53.8747C32.5982 54.5516 32.9608 55.2849 33.0741 55.5669C33.6406 55.6797 35.0454 55.8038 36.1331 55.3977C36.4488 55.2798 36.7461 55.1528 37.0252 55.0336L37.0253 55.0336L37.0253 55.0336C37.9479 54.6395 38.6702 54.331 39.1921 54.7208C39.8719 55.2285 39.8719 55.9053 39.532 56.2438C39.4035 56.3717 39.5178 56.3062 39.7464 56.1753C40.1227 55.9597 40.8086 55.5669 41.2314 55.5669C41.9112 55.5669 42.591 56.0745 42.7609 56.5822C42.7701 56.6095 42.7797 56.6378 42.7896 56.667C42.9645 57.1804 43.2342 57.9723 42.591 58.6128C42.0472 59.1544 41.6846 59.2898 41.5713 59.2898C42.1945 59.6282 44.0185 60.2374 46.3298 59.9667C48.641 59.6959 51.1449 58.3872 52.1079 57.7667C51.8246 58.1616 51.1222 58.9851 50.5784 59.1206C50.0346 59.256 49.672 59.7409 49.5587 59.9667ZM68.2489 95.2822C68.376 95.2379 68.4909 95.1973 68.5926 95.1638C69.4083 94.893 69.7254 94.5996 69.7822 94.4869C69.1591 92.0048 68.0487 86.4999 68.5926 84.3339C69.1364 82.1679 70.6319 77.4522 71.3117 75.3654C72.6712 76.0985 75.9681 77.5991 78.2794 77.7344C80.5906 77.8698 83.5477 77.7906 84.7373 77.7344C85.1339 78.6367 86.2328 80.7127 87.4564 81.7957C88.9859 83.1494 90.3454 86.8722 89.6657 88.5643C88.9859 90.2565 88.4761 94.1485 88.8159 94.8254C89.1558 95.5022 92.2148 95.5022 94.0842 95.1638C95.9536 94.8254 97.1432 93.6408 97.3132 92.7948C97.4831 91.9487 97.1432 88.7336 95.6137 86.0261C94.0842 83.3186 94.0842 79.4266 94.2542 76.5499C94.3901 74.2486 94.764 69.2736 94.9339 67.0738C96.2367 67.976 99.4545 69.8828 101.902 70.2889C104.75 70.7614 105.83 69.6205 106.24 69.188L106.241 69.187C106.255 69.1721 106.268 69.1582 106.28 69.1453C106.294 69.1304 106.308 69.1166 106.32 69.1044C106.592 68.8336 106.887 68.3145 107 68.0891H104.111C103.762 68.0891 103.384 68.3172 102.978 68.5629C102.395 68.9155 101.753 69.3037 101.052 69.1044C99.8623 68.7659 95.9536 67.243 94.9339 64.5355C94.5998 63.6485 94.4482 62.5797 94.2817 61.407V61.4067C93.9401 58.9997 93.5363 56.1532 91.3651 53.5363C88.1362 49.6443 84.0575 47.9521 79.299 47.7829C75.4923 47.6475 72.0482 48.5162 70.8018 48.9674C71.3117 50.6032 71.8653 53.1215 71.3555 54.9829C70.9432 56.488 69.6122 59.459 68.4226 61.1512C68.2758 61.36 68.1221 61.5857 67.961 61.8223H67.9607L67.9604 61.823C66.8156 63.504 65.3048 65.7228 63.3681 66.1512C60.3091 66.8281 58.3958 66.9046 56.6964 66.7353C55.3368 66.6 54.0906 66.6788 53.6374 66.7353C54.2605 67.9199 55.3708 70.6273 54.827 71.9811C54.1472 73.6732 52.7877 76.0423 50.9183 76.8884C49.0489 77.7344 50.5784 83.3186 52.4478 85.3492C52.6526 85.5716 52.8555 85.7983 53.0572 86.0237C54.6958 87.8543 56.2587 89.6003 58.2259 88.3951C60.179 87.1984 60.2726 86.1337 60.3855 84.8507C60.4003 84.6822 60.4155 84.5102 60.4351 84.3339C60.5711 83.1155 60.4918 81.6826 60.4351 81.1188C59.8687 81.0623 58.5658 80.9496 57.886 80.9496H56.6964C56.9796 80.1597 57.818 78.3775 58.9056 77.5652C59.9933 76.753 61.8512 75.76 62.6445 75.3654C62.6445 77.6779 62.5765 82.7771 62.3046 84.6723C62.0327 86.5676 60.8317 92.0048 60.2652 94.4869L62.9844 95.6714C64.9738 96.4333 67.1008 95.6857 68.2489 95.2822ZM49.0928 52.9523C49.8436 52.9523 50.4523 52.4977 50.4523 51.937C50.4523 51.3762 49.8436 50.9217 49.0928 50.9217C48.3419 50.9217 47.7332 51.3762 47.7332 51.937C47.7332 52.4977 48.3419 52.9523 49.0928 52.9523Z" fill="#96BD3F"/>
<path fill-rule="evenodd" clip-rule="evenodd" d="M105.321 99.3209C94.7904 108.465 81.0416 114 66 114C32.8629 114 6 87.1371 6 54C6 38.9584 11.5349 25.2096 20.6791 14.6791C31.2096 5.53491 44.9584 0 60 0C93.1371 0 120 26.8629 120 60C120 75.0416 114.465 88.7904 105.321 99.3209ZM118 60.5C118 88.9427 94.9427 112 66.5 112C38.0573 112 15 88.9427 15 60.5C15 32.0573 38.0573 9 66.5 9C94.9427 9 118 32.0573 118 60.5Z" fill="#8AC014"/>
<path fill-rule="evenodd" clip-rule="evenodd" d="M120 60C120 68.0993 118.395 75.8238 115.486 82.8728C112.784 86.9579 109.516 90.6353 105.793 93.793C113.407 84.8153 118 73.194 118 60.5C118 32.0573 94.9427 9 66.5 9C53.806 9 42.1847 13.5927 33.207 21.207C42.6537 10.069 56.7513 3 72.5 3C75.2618 3 77.9729 3.21741 80.617 3.63603C103.598 12.0444 120 34.1068 120 60Z" fill="#53710C"/>
</svg>
