<svg width="120" height="120" viewBox="0 0 120 120" fill="none" xmlns="http://www.w3.org/2000/svg">
<circle cx="60" cy="60" r="60" fill="#EDF0F4"/>
<path fill-rule="evenodd" clip-rule="evenodd" d="M40.08 47.92L47.64 33H65.2L57.64 47.92H40.08ZM37.6 52.76L30.04 67.68H47.64L55.2 52.76H37.6ZM27.56 72.56L20 87.48H37.6L45.16 72.56H27.56Z" fill="#0175B0"/>
<path fill-rule="evenodd" clip-rule="evenodd" d="M57.6 47.88L65.16 33H82.76L75.2 47.88H57.6ZM55.12 52.76L47.56 67.68H65.16L72.72 52.76H55.12ZM45.12 72.52L37.52 87.48H55.12L62.68 72.52H45.12Z" fill="#00A2D0"/>
<path fill-rule="evenodd" clip-rule="evenodd" d="M74.84 47.88L82.4 33H100L92.44 47.88H74.84ZM72.4 52.76L64.84 67.68H82.44L89.96 52.76H72.4ZM62.36 72.52L54.8 87.48H72.36L79.96 72.52H62.36Z" fill="#00CCFF"/>
</svg>
