<svg width="120" height="120" viewBox="0 0 120 120" fill="none" xmlns="http://www.w3.org/2000/svg">
<circle cx="60" cy="60" r="60" fill="#EDF0F4"/>
<path d="M60.0156 60.7808L76.0228 51.5389L60.0156 42.2419V60.7808Z" fill="#2A3D58"/>
<path d="M60.0157 60.7808L44.0078 51.5389L60.0157 42.2419V60.7808Z" fill="#0F2631"/>
<path d="M76.0228 33L60.0156 42.2419L76.0228 51.5389V33Z" fill="#0F2631"/>
<path d="M76.0215 33L92.0293 42.2419L76.0215 51.5389V33Z" fill="#2A3D58"/>
<path d="M44.0072 33L28 42.2419L44.0072 51.5389V33Z" fill="#0F2631"/>
<path d="M44.0078 33L60.0157 42.2419L44.0078 51.5389V33Z" fill="#2A3D58"/>
<path d="M60.0156 86.2716L76.0228 77.0297L60.0156 67.7333V86.2716Z" fill="#2A3D58"/>
<path d="M60.0157 86.2716L44.0078 77.0297L60.0157 67.7333V86.2716Z" fill="#0F2631"/>
<path d="M76.0228 58.4915L60.0156 67.7333L76.0228 77.0297V58.4915Z" fill="#0F2631"/>
<path d="M76.0215 58.4915L92.0293 67.7333L76.0215 77.0297V58.4915Z" fill="#2A3D58"/>
<path d="M44.0072 58.4915L28 67.7333L44.0072 77.0297V58.4915Z" fill="#0F2631"/>
<path d="M44.0078 58.4915L60.0157 67.7333L44.0078 77.0297V58.4915Z" fill="#2A3D58"/>
</svg>
