<svg width="120" height="120" viewBox="0 0 120 120" fill="none" xmlns="http://www.w3.org/2000/svg">
<circle cx="60" cy="60" r="60" fill="#396A28"/>
<path fill-rule="evenodd" clip-rule="evenodd" d="M68.3209 49.9816L60.5 42.1645L52.6263 50.0345L44.4621 41.8703L60.5 19L76.6473 41.6552L68.3209 49.9816ZM49.8986 52.7659L42.1645 60.5L49.9816 68.3209L41.8476 76.4549L19 60.5L41.5986 44.4659L49.8986 52.7659ZM78.8355 60.5L70.9655 68.3737L79.1976 76.6058L102 60.5L79.4466 44.315L71.0485 52.7131L78.8355 60.5ZM52.7131 71.0523L60.5 78.8355L68.2341 71.1014L76.4662 79.3372L60.5 102L44.6395 79.1222L52.7131 71.0523ZM73.5989 60.5L60.5 47.3973L47.4011 60.5L60.5 73.5989L73.5989 60.5Z" fill="white"/>
</svg>
