<svg width="120" height="120" viewBox="0 0 120 120" fill="none" xmlns="http://www.w3.org/2000/svg">
<circle cx="60" cy="60" r="60" fill="#EDF0F4"/>
<path fill-rule="evenodd" clip-rule="evenodd" d="M80.8823 38.8749C80.6092 38.6018 80.4453 38.3287 80.4453 37.9463C80.4453 37.5639 80.6092 37.2908 80.8823 37.0176C81.4286 36.526 82.3026 36.526 82.9035 37.0176C83.1766 37.2908 83.3405 37.5639 83.3405 37.9463C83.3405 38.3287 83.1766 38.6018 82.9035 38.8749C82.6303 39.0934 82.248 39.2573 81.9202 39.2573C81.5378 39.3119 81.1554 39.2027 80.8823 38.8749Z" fill="#0D022B"/>
<path fill-rule="evenodd" clip-rule="evenodd" d="M77.3863 42.6441C77.1678 42.371 77.0039 42.0978 77.0039 41.7154C77.0039 41.3331 77.1678 41.0599 77.3863 40.7868C77.8779 40.2952 78.7519 40.2952 79.2436 40.7868C79.4621 41.0599 79.6259 41.3331 79.6259 41.7154C79.6259 42.0978 79.4621 42.371 79.2436 42.6441C78.9704 42.8626 78.6973 43.0265 78.3149 43.0265C77.9325 43.0265 77.6594 42.8626 77.3863 42.6441Z" fill="#0D022B"/>
<path fill-rule="evenodd" clip-rule="evenodd" d="M73.5621 46.2494C73.3436 46.0309 73.1797 45.7031 73.1797 45.3207C73.1797 44.9384 73.3436 44.6652 73.5621 44.3921C74.0537 43.9005 74.9277 43.9005 75.4193 44.3921C75.6378 44.6106 75.8017 44.9384 75.8017 45.3207C75.8017 45.7031 75.6378 45.9762 75.4193 46.2494C75.1462 46.5225 74.8731 46.6318 74.4907 46.6318C74.1083 46.6318 73.7806 46.4679 73.5621 46.2494Z" fill="#0D022B"/>
<path fill-rule="evenodd" clip-rule="evenodd" d="M69.9018 49.9093C69.6287 49.6908 69.4648 49.363 69.4648 48.9807C69.4648 48.5983 69.6287 48.3251 69.9018 48.052C70.4481 47.5604 71.3221 47.5604 71.923 48.052C72.1961 48.2705 72.36 48.5983 72.36 48.9807C72.36 49.363 72.1961 49.6908 71.923 49.9093C71.6499 50.1824 71.2675 50.2917 70.9397 50.2917C70.5574 50.2917 70.2296 50.237 69.9018 49.9093Z" fill="#0D022B"/>
<path fill-rule="evenodd" clip-rule="evenodd" d="M66.4058 53.5692C66.1327 53.3507 66.0234 53.023 66.0234 52.6406C66.0234 52.2582 66.1873 51.9851 66.4058 51.7119C66.8974 51.2203 67.7715 51.2203 68.2631 51.7119C68.5362 51.9304 68.6455 52.2582 68.6455 52.6406C68.6455 53.023 68.4816 53.3507 68.2631 53.5692C68.0446 53.8423 67.7168 53.9516 67.3345 53.9516C67.0067 54.0062 66.6243 53.897 66.4058 53.5692Z" fill="#0D022B"/>
<path fill-rule="evenodd" clip-rule="evenodd" d="M62.2002 56.3005C62.2002 55.9181 62.3641 55.645 62.5826 55.3719C63.0742 54.8802 63.9482 54.8802 64.4398 55.3719C64.713 55.645 64.8222 55.9181 64.8222 56.3005C64.8222 56.6829 64.6583 56.956 64.4398 57.2291C64.2213 57.4476 63.8936 57.6115 63.5112 57.6115C63.1288 57.6115 62.8557 57.4476 62.5826 57.2291C62.3094 57.0106 62.2002 56.6829 62.2002 56.3005Z" fill="#0D022B"/>
<path fill-rule="evenodd" clip-rule="evenodd" d="M55.3716 64.3851C55.1531 64.1666 54.9893 63.8388 54.9893 63.4565C54.9893 63.0741 55.1531 62.8009 55.3716 62.5278C55.8633 62.0362 56.7373 62.0362 57.2289 62.5278C57.502 62.8009 57.6113 63.0741 57.6113 63.4565C57.6113 63.8388 57.4474 64.112 57.2289 64.3851C57.0104 64.6582 56.6827 64.7675 56.3003 64.7675C55.9725 64.8221 55.6448 64.7128 55.3716 64.3851Z" fill="#0D022B"/>
<path fill-rule="evenodd" clip-rule="evenodd" d="M51.603 68.045C51.3299 67.8265 51.166 67.4988 51.166 67.1164C51.166 66.734 51.3299 66.4609 51.603 66.1877C52.1493 65.6961 53.0233 65.6961 53.6242 66.1877C53.8973 66.4609 54.0612 66.734 54.0612 67.1164C54.0612 67.4988 53.8973 67.7719 53.6242 68.045C53.351 68.3181 52.9687 68.4274 52.6409 68.4274C52.2039 68.482 51.8761 68.3181 51.603 68.045Z" fill="#0D022B"/>
<path fill-rule="evenodd" clip-rule="evenodd" d="M48.0523 71.7595C47.8338 71.541 47.6699 71.2133 47.6699 70.8309C47.6699 70.4485 47.8338 70.1208 48.0523 69.9023C48.5439 69.4106 49.4179 69.4106 49.9096 69.9023C50.1281 70.1208 50.292 70.4485 50.292 70.8309C50.292 71.2133 50.1281 71.4864 49.9096 71.7595C49.6364 72.0327 49.3633 72.1419 48.9809 72.1419C48.5986 72.1419 48.3801 71.9781 48.0523 71.7595Z" fill="#0D022B"/>
<path fill-rule="evenodd" clip-rule="evenodd" d="M44.3921 75.4195C44.119 75.201 44.0098 74.8732 44.0098 74.4908C44.0098 74.1085 44.1736 73.8353 44.3921 73.5622C44.8838 73.0706 45.7578 73.0706 46.2494 73.5622C46.4679 73.8353 46.6318 74.1085 46.6318 74.4908C46.6318 74.8732 46.4679 75.201 46.2494 75.4195C45.9763 75.6926 45.7032 75.8018 45.3208 75.8018C44.993 75.8018 44.6106 75.6926 44.3921 75.4195Z" fill="#0D022B"/>
<path fill-rule="evenodd" clip-rule="evenodd" d="M40.6226 79.0794C40.3494 78.8609 40.1855 78.5331 40.1855 78.1508C40.1855 77.7684 40.3494 77.4952 40.6226 77.2221C41.1688 76.7305 42.0428 76.7305 42.5344 77.2221C42.8076 77.4952 42.9715 77.7684 42.9715 78.1508C42.9715 78.5331 42.8076 78.8609 42.5344 79.0794C42.2613 79.2979 41.8789 79.4618 41.5512 79.4618C41.1688 79.4618 40.8411 79.3525 40.6226 79.0794Z" fill="#0D022B"/>
<path fill-rule="evenodd" clip-rule="evenodd" d="M37.0181 82.7393C36.745 82.4662 36.6357 82.193 36.6357 81.8107C36.6357 81.4283 36.7996 81.1552 37.0181 80.882C37.5098 80.3904 38.3838 80.3904 38.8754 80.882C39.1485 81.1552 39.2578 81.4283 39.2578 81.8107C39.2578 82.193 39.0939 82.4662 38.8754 82.7393C38.6569 82.9578 38.3291 83.1217 37.9468 83.1217C37.6736 83.1763 37.3459 83.0124 37.0181 82.7393Z" fill="#0D022B"/>
<path fill-rule="evenodd" clip-rule="evenodd" d="M38.8754 38.8749C39.0939 38.6018 39.2578 38.3287 39.2578 37.9463C39.2578 37.5639 39.0939 37.2908 38.8754 37.0176C38.3838 36.526 37.5098 36.526 37.0181 37.0176C36.745 37.2908 36.6357 37.5639 36.6357 37.9463C36.6357 38.3287 36.7996 38.6018 37.0181 38.8749C37.2366 39.0934 37.5644 39.2573 37.9468 39.2573C38.3291 39.3119 38.6569 39.2027 38.8754 38.8749Z" fill="#0D022B"/>
<path fill-rule="evenodd" clip-rule="evenodd" d="M42.5353 42.6441C42.8084 42.371 42.9723 42.0978 42.9723 41.7154C42.9723 41.3331 42.8084 41.0599 42.5353 40.7868C41.989 40.2952 41.115 40.2952 40.5142 40.7868C40.241 41.0599 40.0771 41.3331 40.0771 41.7154C40.0771 42.0978 40.241 42.371 40.5142 42.6441C40.7873 42.8626 41.1697 43.0265 41.4974 43.0265C41.8798 42.9718 42.2622 42.8626 42.5353 42.6441Z" fill="#0D022B"/>
<path fill-rule="evenodd" clip-rule="evenodd" d="M46.2494 46.2494C46.4679 46.0309 46.6318 45.7031 46.6318 45.3207C46.6318 44.9384 46.4679 44.6652 46.2494 44.3921C45.7578 43.9005 44.8838 43.9005 44.3921 44.3921C44.1736 44.6106 44.0098 44.9384 44.0098 45.3207C44.0098 45.7031 44.1736 45.9762 44.3921 46.2494C44.6653 46.5225 44.9384 46.6318 45.3208 46.6318C45.6485 46.6318 45.9763 46.4679 46.2494 46.2494Z" fill="#0D022B"/>
<path fill-rule="evenodd" clip-rule="evenodd" d="M49.9096 49.9093C50.1281 49.6908 50.292 49.363 50.292 48.9807C50.292 48.5983 50.1281 48.3251 49.9096 48.052C49.4179 47.5604 48.5439 47.5604 48.0523 48.052C47.8338 48.2705 47.6699 48.5983 47.6699 48.9807C47.6699 49.363 47.8338 49.6908 48.0523 49.9093C48.3254 50.1824 48.5986 50.2917 48.9809 50.2917C49.3087 50.2917 49.6364 50.237 49.9096 49.9093Z" fill="#0D022B"/>
<path fill-rule="evenodd" clip-rule="evenodd" d="M53.5149 53.5692C53.788 53.3507 53.9519 53.023 53.9519 52.6406C53.9519 52.2582 53.788 51.9851 53.5149 51.7119C53.0233 51.2203 52.0947 51.2203 51.603 51.7119C51.3299 51.9304 51.166 52.2582 51.166 52.6406C51.166 53.023 51.3299 53.3507 51.603 53.5692C51.8761 53.8423 52.2585 53.9516 52.5863 53.9516C52.914 54.0062 53.2964 53.897 53.5149 53.5692Z" fill="#0D022B"/>
<path fill-rule="evenodd" clip-rule="evenodd" d="M57.6113 56.3005C57.6113 55.9181 57.4474 55.645 57.2289 55.3719C56.7373 54.8802 55.8633 54.8802 55.3716 55.3719C55.0985 55.645 54.9893 55.9181 54.9893 56.3005C54.9893 56.6829 55.1531 56.956 55.3716 57.2291C55.5901 57.4476 55.9179 57.6115 56.3003 57.6115C56.6827 57.6115 56.9558 57.4476 57.2289 57.2291C57.502 57.0106 57.6113 56.6829 57.6113 56.3005Z" fill="#0D022B"/>
<path fill-rule="evenodd" clip-rule="evenodd" d="M60.8891 60.9437C61.1622 60.6705 61.2714 60.3974 61.2714 60.015C61.2714 59.6327 61.1076 59.3595 60.8891 59.0864C60.3974 58.5948 59.5234 58.5948 59.0318 59.0864C58.7587 59.3595 58.6494 59.6327 58.6494 60.015C58.6494 60.3974 58.8133 60.6705 59.0318 60.9437C59.2503 61.1622 59.578 61.3261 59.9604 61.3261C60.3428 61.3261 60.6706 61.1622 60.8891 60.9437Z" fill="#0D022B"/>
<path fill-rule="evenodd" clip-rule="evenodd" d="M64.5491 64.3851C64.8222 64.1666 64.9861 63.8388 64.9861 63.4565C64.9861 63.0741 64.8222 62.8009 64.5491 62.5278C64.0028 62.0362 63.1288 62.0362 62.6372 62.5278C62.3641 62.8009 62.2002 63.0741 62.2002 63.4565C62.2002 63.8388 62.3641 64.112 62.6372 64.3851C62.9103 64.6582 63.2927 64.7675 63.6205 64.7675C63.8936 64.8221 64.276 64.7128 64.5491 64.3851Z" fill="#0D022B"/>
<path fill-rule="evenodd" clip-rule="evenodd" d="M68.2631 68.045C68.4816 67.8265 68.6455 67.4988 68.6455 67.1164C68.6455 66.734 68.4816 66.4609 68.2631 66.1877C67.7715 65.6961 66.8974 65.6961 66.4058 66.1877C66.1873 66.4609 66.0234 66.734 66.0234 67.1164C66.0234 67.4988 66.1873 67.7719 66.4058 68.045C66.6789 68.3181 66.9521 68.4274 67.3345 68.4274C67.6076 68.482 67.99 68.3181 68.2631 68.045Z" fill="#0D022B"/>
<path fill-rule="evenodd" clip-rule="evenodd" d="M71.9232 71.7595C72.1417 71.541 72.3056 71.2133 72.3056 70.8309C72.3056 70.4485 72.1417 70.1208 71.9232 69.9023C71.4316 69.4106 70.5576 69.4106 70.066 69.9023C69.8475 70.1208 69.6836 70.4485 69.6836 70.8309C69.6836 71.2133 69.8475 71.4864 70.066 71.7595C70.3391 72.0327 70.6122 72.1419 70.9946 72.1419C71.377 72.1419 71.6501 71.9781 71.9232 71.7595Z" fill="#0D022B"/>
<path fill-rule="evenodd" clip-rule="evenodd" d="M75.3647 75.4195C75.6378 75.201 75.747 74.8732 75.747 74.4908C75.747 74.1085 75.5832 73.8353 75.3647 73.5622C74.873 73.0706 73.999 73.0706 73.5074 73.5622C73.2889 73.8353 73.125 74.1085 73.125 74.4908C73.125 74.8732 73.2889 75.201 73.5074 75.4195C73.7805 75.6926 74.0536 75.8018 74.436 75.8018C74.7638 75.8018 75.1461 75.6926 75.3647 75.4195Z" fill="#0D022B"/>
<path fill-rule="evenodd" clip-rule="evenodd" d="M79.2436 79.0794C79.5167 78.8609 79.6259 78.5331 79.6259 78.1508C79.6259 77.7684 79.4621 77.4952 79.2436 77.2221C78.7519 76.7305 77.8779 76.7305 77.3863 77.2221C77.1132 77.4952 77.0039 77.7684 77.0039 78.1508C77.0039 78.5331 77.1678 78.8609 77.3863 79.0794C77.6048 79.2979 77.9325 79.4618 78.3149 79.4618C78.6973 79.4618 79.0251 79.3525 79.2436 79.0794Z" fill="#0D022B"/>
<path fill-rule="evenodd" clip-rule="evenodd" d="M82.9036 82.7393C83.1767 82.4662 83.3406 82.193 83.3406 81.8107C83.3406 81.4283 83.1767 81.1552 82.9036 80.882C82.3573 80.3904 81.4833 80.3904 80.9917 80.882C80.7186 81.1552 80.5547 81.4283 80.5547 81.8107C80.5547 82.193 80.7186 82.4662 80.9917 82.7393C81.2648 82.9578 81.6472 83.1217 81.975 83.1217C82.2481 83.1763 82.5758 83.0124 82.9036 82.7393Z" fill="#0D022B"/>
<path fill-rule="evenodd" clip-rule="evenodd" d="M47.5605 39.9128C51.275 37.4546 55.372 36.3075 59.9059 36.2529C64.3306 36.2529 68.4275 37.4546 72.2513 39.9128L80.1174 32.0467C73.9447 27.3489 67.2803 25 59.9059 25C52.5314 25 45.7578 27.3489 39.749 32.0467L47.5605 39.9128Z" fill="#0D022B"/>
<path fill-rule="evenodd" clip-rule="evenodd" d="M39.6943 72.1966C37.1815 68.3728 35.9798 64.3305 35.9798 59.9604C35.9798 55.5357 37.1815 51.4388 39.6943 47.7243L31.8828 39.9128C27.2943 45.9216 25 52.5859 25 60.015C25 67.3349 27.2943 74.0538 31.9375 80.1719L39.6943 72.1966Z" fill="#0D022B"/>
<path fill-rule="evenodd" clip-rule="evenodd" d="M72.1966 80.008C68.482 82.5208 64.3851 83.8318 59.9604 83.8864C55.4265 83.8864 51.275 82.6847 47.5604 80.0627L39.6943 87.8741C45.7578 92.6265 52.5314 94.9755 59.9604 94.9208C67.3349 94.8662 73.9992 92.4627 80.0081 87.8741L72.1966 80.008Z" fill="#0D022B"/>
<path fill-rule="evenodd" clip-rule="evenodd" d="M79.8984 47.615C82.4112 51.4388 83.7222 55.5904 83.613 60.0697C83.5584 64.4397 82.302 68.4274 79.8984 72.0873L87.7645 79.8988C92.4077 73.8899 94.8112 67.2256 94.8112 59.9058C94.8659 52.4767 92.517 45.7031 87.7645 39.6397L79.8984 47.615Z" fill="#0D022B"/>
<path fill-rule="evenodd" clip-rule="evenodd" d="M88.0924 82.4662C91.0968 82.4662 93.6096 84.9243 93.6096 87.9834C93.6096 90.9878 91.1514 93.5006 88.0924 93.5006C85.088 93.5006 82.5752 91.0424 82.5752 87.9834C82.5752 84.9243 85.0333 82.4662 88.0924 82.4662Z" fill="#0D022B"/>
<path fill-rule="evenodd" clip-rule="evenodd" d="M31.8278 82.4662C34.8322 82.4662 37.2904 84.9243 37.2904 87.9834C37.2904 90.9878 34.8322 93.5006 31.8278 93.5006C28.8234 93.5006 26.3652 91.0424 26.3652 87.9834C26.3652 84.9243 28.8234 82.4662 31.8278 82.4662Z" fill="#0D022B"/>
<path fill-rule="evenodd" clip-rule="evenodd" d="M88.2018 26.2018C91.2062 26.2018 93.6644 28.6599 93.6644 31.719C93.6644 34.778 91.2062 37.2361 88.2018 37.2361C85.1974 37.2361 82.7393 34.778 82.7393 31.719C82.7393 28.6599 85.1974 26.2018 88.2018 26.2018Z" fill="#0D022B"/>
<path fill-rule="evenodd" clip-rule="evenodd" d="M31.7193 26.2018C34.7237 26.2018 37.2365 28.6599 37.2365 31.6643C37.2365 34.6687 34.7784 37.1269 31.7193 37.1269C28.7149 37.1269 26.2021 34.6687 26.2021 31.6643C26.2021 28.6599 28.6603 26.2018 31.7193 26.2018Z" fill="#0D022B"/>
</svg>
