<svg width="120" height="120" viewBox="0 0 120 120" fill="none" xmlns="http://www.w3.org/2000/svg">
<circle cx="60" cy="60" r="60" fill="#7866D5"/>
<path d="M84.288 30.8039C86.3191 31.0578 88.4347 31.2271 90.4658 31.5656C94.4432 32.3272 95.7972 34.3583 95.1202 38.4203C94.9509 39.9436 93.7662 41.1283 92.2429 41.3822C91.312 41.5515 90.2965 41.6361 89.3656 41.5515C76.1639 41.5515 63.0469 41.6361 49.8452 41.6361C47.8988 41.6361 45.8677 41.8054 43.9213 42.1439C37.4051 43.1594 34.8663 45.8674 34.3586 52.4683C34.1047 55.5148 34.1047 55.5148 37.2358 55.5148H89.7041C90.2119 55.5148 90.7196 55.5148 91.2274 55.5148C92.0736 55.5148 92.8353 55.7687 93.5969 56.1918C95.9665 57.7151 95.3741 60.1693 95.2894 62.3695C95.2048 64.1467 94.1047 65.1622 92.2429 65.5007C91.4813 65.67 90.7196 65.67 89.8734 65.67C71.9326 65.67 53.9918 65.67 36.0511 65.67C34.1047 65.67 34.1047 65.67 34.2739 67.6164C34.3586 69.3935 34.5278 71.1707 34.9509 72.9478C35.7972 76.1636 37.7436 78.1946 41.044 79.1255C44.5983 80.141 48.3219 80.3103 51.9608 80.3949C64.7394 80.3949 77.6026 80.3949 90.4658 80.3949C92.0736 80.3949 93.5969 80.5642 94.6124 82.0874C96.2203 84.6262 95.3741 87.9267 92.8353 89.5346C92.4968 89.7884 92.1583 89.9577 91.7351 90.0423C88.9425 90.9732 86.0652 91.1425 83.1033 91.2271C71.0017 91.481 58.9848 91.481 46.9679 91.2271C43.2443 91.1425 39.5208 90.7193 35.8818 89.9577C27.3346 88.1805 23.0186 83.78 21.58 75.1481C21.2415 73.2017 21.0722 71.1707 20.8184 69.1396V53.3992C20.9876 51.8759 21.1569 50.268 21.3261 48.7447C22.4263 39.0127 26.8268 34.189 36.3896 31.9887C39.7746 31.2271 43.3289 31.0578 46.714 30.7193L84.288 30.8039Z" fill="white"/>
<path fill-rule="evenodd" clip-rule="evenodd" d="M46.8831 92.7504C52.8915 92.835 58.9 92.9196 64.9931 92.9196C68.0503 92.9196 71.1075 92.8983 74.154 92.8771C77.1793 92.856 80.194 92.835 83.1877 92.835C85.8958 92.7504 89.1116 92.5811 92.2427 91.5656C92.7505 91.3963 93.2582 91.1425 93.6814 90.8886C95.2893 89.8731 96.3894 88.3498 96.8126 86.5726C97.2357 84.7955 96.9818 82.9337 95.9663 81.3258C94.443 78.8716 91.8196 78.8716 90.5502 78.8716H82.0876C72.1863 78.8716 62.0312 78.8716 52.0453 78.787C48.8295 78.787 45.1059 78.6178 41.467 77.6023C38.759 76.8406 37.1511 75.2327 36.474 72.6093C36.0509 70.9168 35.8817 69.2243 35.797 67.4471V67.3625V67.1086H36.1355H89.8732C90.7195 67.1086 91.5657 67.1086 92.4966 66.9394C95.12 66.4316 96.5587 64.8237 96.7279 62.4542C96.7279 62.3272 96.7491 62.1791 96.7702 62.031C96.7914 61.8829 96.8126 61.7348 96.8126 61.6079L96.816 61.566C96.9851 59.5386 97.2159 56.7714 94.3584 54.9224C93.4275 54.4147 92.3274 54.0762 91.2272 54.0762H37.2357H35.797C35.797 53.8742 35.8163 53.653 35.8365 53.4218C35.8585 53.1684 35.8817 52.903 35.8817 52.6375C36.3894 46.7137 38.3358 44.598 44.175 43.6671C46.0368 43.3286 47.9832 43.1594 49.845 43.1594C62.9621 43.1594 76.1637 43.0748 89.2808 42.9901C90.381 42.9901 91.3965 42.9055 92.412 42.7362C94.6969 42.3977 96.3894 40.6206 96.6433 38.5049C97.4896 33.5966 95.6278 30.8886 90.8041 29.9577C89.6717 29.706 88.586 29.5947 87.5123 29.4846C87.1418 29.4466 86.7727 29.4087 86.4035 29.3653C85.8111 29.3653 85.1341 29.2807 84.5417 29.1961H84.4571H46.7984H46.6292L44.0904 29.4499C41.467 29.7038 38.8436 29.9577 36.1355 30.5501C25.8958 32.835 20.9874 38.1664 19.8027 48.5755C19.7628 49.0539 19.7042 49.5323 19.6444 50.0196C19.5774 50.5666 19.5089 51.1248 19.4642 51.7066L19.2949 53.2299V69.1396V69.3089C19.3795 69.9859 19.4642 70.5783 19.5488 71.1707C19.6334 72.5247 19.8027 73.9633 20.0566 75.402C21.5798 84.5416 26.3189 89.4499 35.5432 91.3963C39.2667 92.2426 43.0749 92.6657 46.8831 92.7504ZM22.5107 70.8322C22.5107 70.2398 22.4261 69.6474 22.3415 69.055V53.5684L22.5107 52.1298C22.5555 51.5479 22.6239 50.9897 22.691 50.4427C22.7507 49.9555 22.8094 49.477 22.8492 48.9986C23.8647 39.859 27.7575 35.543 36.6433 33.3427C38.8209 32.8346 40.9362 32.6378 43.1495 32.4319C43.5166 32.3977 43.8864 32.3633 44.2597 32.3272L46.7984 32.0733H84.2032C84.7956 32.0733 85.4726 32.158 86.065 32.2426C87.419 32.3272 88.7731 32.4965 90.1271 32.7504C93.3429 33.4274 94.1891 34.5275 93.5968 37.9126C93.5121 38.7588 92.8351 39.4358 91.9889 39.5205C91.1426 39.6897 90.2963 39.6897 89.3654 39.6897C82.7646 39.6897 76.1849 39.7109 69.6052 39.732C63.0255 39.7532 56.4458 39.7743 49.845 39.7743C47.7293 39.859 45.6983 40.0282 43.6673 40.3667C36.474 41.4669 33.4275 44.7673 32.8351 52.0451C32.8262 52.2317 32.8164 52.4117 32.8069 52.5854C32.7262 54.0673 32.6701 55.0959 33.4275 55.8533C34.2738 56.6996 35.3739 56.6996 37.2357 56.6996H91.3965C91.9042 56.6996 92.4966 56.8688 92.9197 57.1227C94.1045 57.8843 94.1045 58.8999 93.9353 61.0155C93.9353 61.1848 93.9141 61.3329 93.893 61.481C93.8718 61.6291 93.8506 61.7772 93.8506 61.9464C93.766 62.7927 93.4275 63.385 92.0735 63.6389C91.3965 63.8082 90.6348 63.8082 89.9578 63.8082H36.1355C34.9508 63.8082 34.0199 63.8082 33.3429 64.5698C32.687 65.3076 32.7459 66.1249 32.8272 67.2523C32.8298 67.2887 32.8325 67.3254 32.8351 67.3625V67.4471C32.8351 69.3089 33.089 71.2553 33.5121 73.1171C34.443 76.9252 36.8126 79.3794 40.6207 80.3949C44.5982 81.5797 48.5756 81.7489 51.9606 81.7489C61.9465 81.8336 72.1863 81.8336 82.003 81.8336H90.4656C92.0735 81.8336 92.7505 82.0874 93.2583 82.8491C93.8506 83.78 94.0199 84.7955 93.766 85.811C93.5121 86.8265 92.8351 87.6728 91.9889 88.2652C91.8619 88.3075 91.735 88.3709 91.608 88.4344C91.4811 88.4979 91.3542 88.5614 91.2272 88.6037C88.5192 89.4499 85.5573 89.6192 83.1031 89.7038C71.0862 89.9577 58.9 89.9577 46.9677 89.7038C43.3288 89.6192 39.6898 89.1961 36.1355 88.4344C28.1807 86.7419 24.3725 82.8491 23.0185 74.8942L22.5107 70.8322Z" fill="white"/>
</svg>
