<svg width="120" height="120" viewBox="0 0 120 120" fill="none" xmlns="http://www.w3.org/2000/svg">
<circle cx="60" cy="60" r="60" fill="#EDF0F4"/>
<path fill-rule="evenodd" clip-rule="evenodd" d="M59.5768 99.8377C59.8418 99.9437 60.1246 99.998 60.41 99.9977C60.7142 99.9985 61.0153 99.936 61.294 99.8141L87.8716 88.4614C88.4188 88.2323 88.8505 87.7924 89.0692 87.241L99.8372 60.4178C100.06 59.8666 100.054 59.2489 99.8188 58.7026L88.468 32.1266C88.2367 31.5803 87.7966 31.149 87.2456 30.929L60.4248 20.161C59.8731 19.9397 59.2561 19.9468 58.7096 20.1806L32.1284 31.5318C31.5821 31.7631 31.1509 32.2032 30.9308 32.7542L20.1628 59.5766C19.9395 60.1273 19.9461 60.7444 20.1812 61.2902L31.5336 87.8714C31.7634 88.4182 32.2033 88.8497 32.7544 89.069L59.5768 99.8377ZM60.3852 95.3418L35.2844 85.2654L24.6588 60.3914L34.7348 35.2926L59.6148 24.6658L84.7156 34.7438L95.3392 59.6178L85.2592 84.7186L60.3852 95.3418Z" fill="black"/>
<path d="M65.7721 59.579L55.0221 71.4178H71.9641V76.519H48.0381V71.4178L58.6877 59.6282L48.0857 48.581V43.4798H71.9641V48.581H55.2685L65.7721 59.579Z" fill="black"/>
</svg>
