<svg width="120" height="120" viewBox="0 0 120 120" fill="none" xmlns="http://www.w3.org/2000/svg">
<circle cx="60" cy="60" r="60" fill="#06233A"/>
<path d="M83.0517 50.8444C77.9184 45.7111 69.3629 45.7111 64.2297 50.8444L62.2334 52.8407L64.0871 54.6944L66.0834 52.6981C70.2185 48.5629 77.0629 48.5629 81.198 52.6981C83.1943 54.6944 84.335 57.4036 84.335 60.2554C84.335 63.1072 83.1943 65.8164 81.198 67.8127C79.2017 69.809 76.4925 70.9497 73.6407 70.9497C70.7889 70.9497 68.0796 69.809 66.0834 67.8127L64.0871 65.8164L62.2334 67.6701L64.2297 69.6664C66.7963 72.233 70.2185 73.5164 73.6407 73.5164C77.0629 73.5164 80.485 72.233 83.0517 69.6664C85.6183 67.0998 86.9016 63.8202 86.9016 60.2554C86.9016 56.6906 85.6183 53.411 83.0517 50.8444Z" fill="#11DCBE"/>
<path fill-rule="evenodd" clip-rule="evenodd" d="M69.7903 56.4055L64.0867 62.1091L58.6682 67.5276L56.672 69.5238C54.1053 72.0905 50.6831 73.3738 47.261 73.3738C43.8388 73.3738 40.4166 72.0905 37.85 69.5238C35.4259 66.9572 34 63.6776 34 60.1128C34 56.5481 35.2833 53.2685 37.85 50.7018C42.9832 45.5685 51.5387 45.5685 56.672 50.7018L62.3756 56.4055L62.233 56.5481L60.5219 58.2591L58.6682 60.1128L56.5294 62.2517L52.822 65.9591C51.2535 67.5276 49.2572 68.3831 47.1184 68.3831C44.9795 68.3831 42.9832 67.5276 41.4147 65.9591C39.8462 64.3906 38.9907 62.3943 38.9907 60.2554C38.9907 58.1166 39.8462 56.1203 41.4147 54.5518C42.9832 52.9833 44.9795 52.1277 47.1184 52.1277C48.8295 52.1277 50.398 52.6981 51.8239 53.6962C52.2516 53.9814 52.5368 54.2666 52.822 54.5518L53.9627 55.5499L52.3942 57.1184L44.5517 64.9609C45.2647 65.3887 46.1202 65.6739 47.1184 65.6739C48.5443 65.6739 49.9702 65.1035 50.9683 64.1054L51.2535 63.8202L58.5256 56.5481L54.6757 52.6981C52.6794 50.7018 49.9702 49.5611 47.1184 49.5611C44.2665 49.5611 41.5573 50.7018 39.7036 52.6981C37.7074 54.6944 36.5666 57.4036 36.5666 60.2554C36.5666 63.1072 37.7074 65.8165 39.7036 67.8127C43.8388 71.9479 50.6831 71.9479 54.8183 67.8127L55.1035 67.5276L56.2442 66.3868L56.8145 65.8165L62.3756 60.2554L67.0811 55.4073L67.9366 54.5518C69.5051 52.9833 71.5014 52.1277 73.6403 52.1277C75.7791 52.1277 77.7754 52.9833 79.3439 54.5518C80.9124 56.1203 81.768 58.1166 81.768 60.2554C81.768 62.3943 80.9124 64.3906 79.3439 65.9591C77.7754 67.5276 75.7791 68.3831 73.6403 68.3831C71.5014 68.3831 69.5051 67.5276 67.9366 65.9591L65.9404 63.9628L67.7941 62.1091L69.7903 64.1054C70.7885 65.1035 72.2144 65.6739 73.6403 65.6739C75.0662 65.6739 76.4921 65.1035 77.4902 64.1054C78.4884 63.1072 79.0587 61.6813 79.0587 60.2554C79.0587 58.8295 78.4884 57.4036 77.4902 56.4055C76.4921 55.4073 75.0662 54.837 73.6403 54.837C72.2144 54.837 70.7885 55.4073 69.7903 56.4055ZM43.2684 56.4055C42.2703 57.4036 41.6999 58.8295 41.6999 60.2554C41.6999 61.2536 41.9851 62.2517 42.5555 63.1072L49.9702 55.6925C49.1146 55.1221 48.1165 54.837 47.1184 54.837C45.6925 54.837 44.2665 55.4073 43.2684 56.4055Z" fill="#11DCBE"/>
</svg>
