<svg width="120" height="120" viewBox="0 0 120 120" fill="none" xmlns="http://www.w3.org/2000/svg">
<circle cx="60" cy="60" r="60" fill="#4096D0"/>
<path fill-rule="evenodd" clip-rule="evenodd" d="M71.8887 37.0001H96.245C97.2066 36.9938 97.9917 37.7672 98 38.7288V62.2788C98 63.1675 97.2688 63.8875 96.3688 63.8875H72.4437L64.6662 82H53.555L60.7775 63.8875H41.8888V73.2213H53.555L50.2213 82H33.53C32.6225 82 31.8875 81.2725 31.8875 80.38V63.8913H23L26.3375 55.1088H31.8875V38.6013C31.8937 37.7122 32.6184 36.9959 33.5075 37.0001H68L64.6662 45.7863H41.8888V55.1125H64.6662L71.8887 37.0001ZM87.155 55.1125C87.9313 55.1125 88.5575 54.49 88.5575 53.725L88.5612 47.1701C88.551 46.399 87.9186 45.7817 87.1475 45.7901H79.6663L75.7775 55.1125H87.155Z" fill="white"/>
</svg>
