<svg width="120" height="120" viewBox="0 0 120 120" fill="none" xmlns="http://www.w3.org/2000/svg">
<circle cx="60" cy="60" r="60" fill="black"/>
<path fill-rule="evenodd" clip-rule="evenodd" d="M60 117C91.4804 117 117 91.4804 117 60C117 28.5198 91.4804 3 60 3C28.5198 3 3 28.5198 3 60C3 91.4804 28.5198 117 60 117ZM60 120C93.1372 120 120 93.1372 120 60C120 26.8629 93.1372 0 60 0C26.8629 0 0 26.8629 0 60C0 93.1372 26.8629 120 60 120Z" fill="#57D56C"/>
<path fill-rule="evenodd" clip-rule="evenodd" d="M41.956 54.6968H87.0004V64.248H41.956V87H32.405V64.248L32.4004 54.6968L32.405 32.4H41.956V54.6968ZM87.0004 41.9512H54.6972V32.4H87.0004V41.9512ZM54.6972 87H87.0004V77.4488H54.6972V87Z" fill="#57D56C"/>
</svg>
