<svg width="120" height="120" viewBox="0 0 120 120" fill="none" xmlns="http://www.w3.org/2000/svg">
<circle cx="60" cy="60" r="60" fill="#044AAC"/>
<path fill-rule="evenodd" clip-rule="evenodd" d="M27.2961 74.9495L37.1731 65.065V65.0612C39.2182 66.4048 41.8699 66.3899 43.8998 65.0235L48.1026 69.2263L52.4903 64.8424L46.5181 58.874C45.9961 55.9634 43.4652 53.844 40.5081 53.8411C37.5058 53.8442 34.9497 56.0262 34.4756 58.9909L25.089 68.3812C24.508 65.846 24.2024 63.2088 24.2024 60.5C24.2024 41.0327 40.0366 25.2024 59.5 25.2024C78.9635 25.2024 94.7977 41.0327 94.7977 60.5C94.7986 63.3181 94.4617 66.1262 93.7941 68.8641L79.1786 54.2486C78.8596 51.1327 76.2367 48.7623 73.1045 48.7593C69.9211 48.7626 67.2726 51.2076 67.0153 54.3806L35.2603 86.1357L30.8764 90.5234C32.3818 91.958 33.9922 93.2784 35.6941 94.4734C42.4398 99.212 50.6492 102 59.5 102C82.3816 102 101 83.3816 101 60.5C101 37.6184 82.3816 19 59.5 19C36.6185 19 18.0001 37.6184 18.0001 60.5C17.992 67.1454 19.5892 73.6944 22.6556 79.59L27.2961 74.9495ZM40.1573 90.0103L70.0297 60.1378C71.9551 61.2688 74.346 61.2514 76.2547 60.0925L91.5154 75.357C85.8978 87.4184 73.6591 95.7976 59.5 95.7976C52.6247 95.8051 45.8987 93.7927 40.1573 90.0103ZM73.2139 52.1547C72.209 52.1189 71.2649 52.635 70.7526 53.5002C70.2403 54.3655 70.2418 55.4415 70.7565 56.3053C71.2711 57.1691 72.2167 57.6827 73.2215 57.644C74.6977 57.5873 75.8645 56.373 75.8625 54.8958C75.8605 53.4185 74.6903 52.2074 73.2139 52.1547ZM37.7956 59.9077C37.7956 58.3908 39.0252 57.1611 40.5421 57.1611C42.059 57.1611 43.2886 58.3908 43.2886 59.9077C43.2886 61.4246 42.059 62.6542 40.5421 62.6542C39.0252 62.6542 37.7956 61.4246 37.7956 59.9077Z" fill="white"/>
</svg>
