<svg width="120" height="120" viewBox="0 0 120 120" fill="none" xmlns="http://www.w3.org/2000/svg">
<circle cx="60" cy="60" r="60" fill="#0D1E9D"/>
<path d="M54.0986 78.2857C53.7091 78.2855 53.3253 78.1937 52.9789 78.0175C52.6325 77.8413 52.3333 77.586 52.1061 77.2727L42.3572 63.8942H36V59.0244H43.6156C44.0048 59.024 44.3884 59.1153 44.7349 59.2909C45.0813 59.4665 45.3806 59.7212 45.608 60.0342L53.5742 70.9617L65.7283 43.4577C65.9197 43.024 66.2346 42.6551 66.6345 42.3962C67.0343 42.1372 67.5019 41.9996 67.9796 42H83.1878V46.8697H69.5885L56.353 76.8248C56.1785 77.2198 55.9012 77.5619 55.5494 77.8156C55.1976 78.0696 54.784 78.2261 54.3508 78.2695C54.2635 78.2742 54.176 78.2742 54.0887 78.2695" fill="#00C389"/>
</svg>
