<svg width="120" height="120" viewBox="0 0 120 120" fill="none" xmlns="http://www.w3.org/2000/svg">
<circle cx="60" cy="60" r="60" fill="#EDF0F4"/>
<path fill-rule="evenodd" clip-rule="evenodd" d="M60.1756 31.4411C59.4756 33.8711 56.1756 37.1811 51.8356 39.9611L51.6656 40.1311C51.4956 40.6511 52.3656 42.0411 53.4056 41.5211C58.4056 38.2211 62.2656 34.3911 62.9656 31.6111C63.4856 29.3511 62.0956 28.3111 59.1456 28.1311C58.2157 28.101 57.285 28.1579 56.3656 28.3011H55.6656C58.9656 28.1311 60.8756 29.1711 60.1856 31.4311L60.1756 31.4411Z" fill="#1D1D1D"/>
<path fill-rule="evenodd" clip-rule="evenodd" d="M72.8655 34.751C71.3055 40.661 59.6555 49.871 46.7955 55.431C44.5993 56.4175 42.329 57.23 40.0055 57.861C39.7969 57.914 39.6131 58.0377 39.4855 58.211C38.9655 58.911 39.1355 60.641 40.3555 60.471C42.6155 59.8044 45.0489 58.9344 47.6555 57.861C61.2155 52.131 73.7355 42.221 75.2955 35.991C75.9334 34.266 75.0884 32.3459 73.3855 31.651C72.5155 31.301 71.4755 30.781 70.6055 30.431C71.4961 30.6875 72.2423 31.2984 72.6696 32.1208C73.0968 32.9432 73.1677 33.9049 72.8655 34.781V34.751Z" fill="#1D1D1D"/>
<path fill-rule="evenodd" clip-rule="evenodd" d="M88.8555 48.311C88.8683 47.6573 88.7492 47.0077 88.5055 46.401L88.1555 45.701L86.9355 43.791C87.3112 44.4212 87.4921 45.1483 87.4555 45.881C87.7345 46.7834 88.2091 47.6131 88.8455 48.311H88.8555Z" fill="#1D1D1D"/>
<path fill-rule="evenodd" clip-rule="evenodd" d="M90.2455 53.341C88.5055 59.601 77.7355 68.991 64.6955 75.771C64.2005 75.9305 63.8497 76.3715 63.8057 76.8897C63.7617 77.4079 64.0331 77.9018 64.4941 78.1425C64.9551 78.3831 65.5156 78.3234 65.9155 77.991C78.7755 71.211 89.3755 62.171 90.9155 55.911C91.2219 55.0754 91.2809 54.1693 91.0855 53.301C90.9155 52.431 90.3855 51.211 90.2155 50.301C90.5811 51.2676 90.5811 52.3344 90.2155 53.301L90.2455 53.341Z" fill="#1D1D1D"/>
<path fill-rule="evenodd" clip-rule="evenodd" d="M79.2957 73.331C78.9886 73.6061 78.749 73.9483 78.5957 74.331C78.4257 75.031 78.9457 76.071 79.9857 75.331C86.4157 70.641 91.1057 65.601 91.9857 61.771C92.1191 61.2589 92.1764 60.7299 92.1557 60.201V59.201L92.0057 57.171C92.029 57.8719 91.972 58.5731 91.8357 59.261C90.8357 63.261 85.9257 68.471 79.3257 73.341L79.2957 73.331Z" fill="#1D1D1D"/>
<path fill-rule="evenodd" clip-rule="evenodd" d="M43.4955 41.531C45.0489 40.882 46.5558 40.1268 48.0055 39.271C48.1334 39.1627 48.2072 39.0036 48.2072 38.836C48.2072 38.6684 48.1334 38.5093 48.0055 38.401C47.7748 38.0774 47.4029 37.8841 47.0055 37.881C45.8255 38.5853 44.6069 39.2229 43.3555 39.791C39.3555 41.531 36.2255 41.701 35.5355 40.661C35.2963 40.3013 35.2337 39.8523 35.3655 39.441C35.6069 38.8128 35.9443 38.2258 36.3655 37.701L38.7955 35.271C41.126 33.6127 43.6309 32.2144 46.2655 31.101C46.6701 30.7263 47.1417 30.4311 47.6555 30.231C51.6555 29.011 54.2655 29.361 53.7355 31.231C53.533 32.0254 53.1101 32.7465 52.5155 33.311C53.2385 33.7689 54.1227 33.8963 54.9455 33.661C55.6775 32.9366 56.2142 32.0387 56.5055 31.051C57.2055 28.791 54.4155 28.051 50.2455 29.311C49.9043 29.4037 49.5701 29.5207 49.2455 29.661L48.2455 30.011C47.9311 30.1759 47.5942 30.2938 47.2455 30.361C46.896 30.5011 46.561 30.6753 46.2455 30.881C45.8955 31.051 45.7255 31.051 45.3755 31.231C45.0255 31.411 44.8555 31.401 44.5055 31.581C44.2321 31.7806 43.9409 31.9546 43.6355 32.101L42.9355 32.451C42.6894 32.5326 42.4568 32.6506 42.2455 32.801C41.9773 32.9168 41.7407 33.0951 41.5555 33.321C41.2924 33.4501 41.0552 33.6264 40.8555 33.841C40.5055 34.011 40.5055 34.191 40.1555 34.361C39.8925 34.4903 39.6553 34.6665 39.4555 34.881C39.1926 35.0105 38.9555 35.1867 38.7555 35.401C38.4055 35.751 38.2355 35.751 37.8855 36.101C37.5355 36.451 37.3655 36.451 37.0155 36.801C36.1465 37.3611 35.3818 38.0683 34.7555 38.891C34.3084 39.3285 33.9664 39.8619 33.7555 40.451C33.7555 40.621 33.5855 40.801 33.5855 40.971V41.321C33.5425 41.7354 33.6008 42.1541 33.7555 42.541C34.7555 43.931 38.7555 43.541 43.6655 41.541L43.4955 41.531Z" fill="#1D1D1D"/>
<path fill-rule="evenodd" clip-rule="evenodd" d="M29.7555 47.261V47.611C29.7724 47.7431 29.8321 47.866 29.9255 47.961C30.9255 49.181 33.4055 49.351 35.1355 48.961C41.2155 48.271 41.3955 47.221 41.3955 46.531C41.3955 46.531 41.3955 45.311 40.6955 45.311C35.8255 46.871 32.3555 46.871 31.3055 45.481C31.0484 44.8783 30.9889 44.2096 31.1355 43.571C31.3331 43.0373 31.5635 42.5163 31.8255 42.011C31.9955 41.661 32.3455 41.321 32.6955 40.791L32.1755 41.311C31.9347 41.6842 31.6418 42.0209 31.3055 42.311C31.0534 42.6308 30.8197 42.9647 30.6055 43.311C30.4355 43.661 30.0855 44.181 29.9055 44.531C29.7255 44.881 29.7355 45.051 29.5555 45.401C29.5795 45.5911 29.5171 45.7819 29.3855 45.921C29.4786 46.3341 29.5954 46.7414 29.7355 47.141L29.7555 47.261Z" fill="#1D1D1D"/>
<path fill-rule="evenodd" clip-rule="evenodd" d="M45.7555 51.9911C57.3955 47.0911 68.0055 38.7411 69.3855 33.3611C69.9055 31.4511 69.2155 30.0611 67.2955 29.5411C66.8959 29.4013 66.4885 29.2844 66.0755 29.1911C65.7275 29.0846 65.3686 29.0175 65.0055 28.9911C65.7356 29.1657 66.351 29.6542 66.6867 30.3255C67.0223 30.9969 67.0439 31.7823 66.7455 32.4711C65.3555 37.3411 55.7955 44.9911 45.1955 49.4711C36.8555 52.9511 30.4255 53.4711 28.6855 51.2111C28.2081 50.4954 28.0795 49.6024 28.3355 48.7811C28.5055 48.4311 28.5055 48.0811 28.6855 47.7811C28.3355 48.6511 27.8155 49.8711 27.4655 50.7811C27.4655 50.9511 27.2955 51.1311 27.2955 51.3011C27.2955 51.4711 27.1255 51.8211 27.1255 52.0011C26.9165 52.7407 27.1143 53.5357 27.6455 54.0911C29.4155 56.4711 36.5355 55.9911 45.7555 51.9911Z" fill="#1D1D1D"/>
<path fill-rule="evenodd" clip-rule="evenodd" d="M25.7656 64.9911C25.7416 65.1811 25.804 65.3719 25.9356 65.5111V65.8611C25.9356 65.9911 26.1056 65.9911 26.1056 66.2111L25.9356 65.9911C26.1056 66.1611 26.1056 66.5111 26.2856 66.6811C28.7156 69.9911 37.9256 69.3411 49.7456 64.2911C64.8656 57.8611 78.6056 47.0911 80.5156 39.9911C81.0542 38.4699 80.6644 36.7744 79.5156 35.6411L78.1256 34.4211L77.1256 33.7311C78.1835 34.4065 78.7832 35.6098 78.6856 36.8611C78.1656 47.8111 35.7556 73.8611 26.1956 63.8011C25.7571 63.1908 25.5131 62.4624 25.4956 61.7111C25.4655 62.641 25.5224 63.5717 25.6656 64.4911V64.6611C25.7638 64.7526 25.8244 64.8773 25.8356 65.0111L25.7656 64.9911Z" fill="#1D1D1D"/>
<path fill-rule="evenodd" clip-rule="evenodd" d="M52.5255 69.991C68.5255 63.211 83.1155 51.741 85.2055 44.261C85.6912 42.9222 85.4974 41.431 84.6855 40.261C84.0368 39.4647 83.3387 38.7099 82.5955 38.001C83.5955 39.001 83.8155 40.431 83.4655 42.171C81.5555 49.471 67.1255 60.771 51.4655 67.371C39.1455 72.641 29.7555 73.511 27.1555 69.991C26.8397 69.661 26.6549 69.2273 26.6355 68.771C26.843 69.7931 27.1339 70.7965 27.5055 71.771V72.291C27.6755 72.461 27.6755 72.641 27.8555 72.811C30.1155 76.291 39.8555 75.421 52.5355 70.031L52.5255 69.991Z" fill="#1D1D1D"/>
<path fill-rule="evenodd" clip-rule="evenodd" d="M30.2856 78.721C30.2856 78.551 30.1156 78.551 30.1156 78.371C30.0962 78.5113 30.1634 78.6495 30.2856 78.721Z" fill="#1D1D1D"/>
<path fill-rule="evenodd" clip-rule="evenodd" d="M55.6555 76.1111C65.2155 71.9411 74.4255 66.2011 80.6555 60.6411C81.0719 60.1679 81.2052 59.5089 81.0055 58.9111C80.8944 58.5662 80.6358 58.2885 80.2996 58.1532C79.9634 58.018 79.5845 58.0392 79.2655 58.2111C71.775 64.6196 63.343 69.8373 54.2655 73.6811C41.4055 78.9011 31.4955 79.7711 28.8955 76.1111C29.2002 76.596 29.4358 77.1211 29.5955 77.6711C29.6124 77.8032 29.6722 77.9261 29.7655 78.0211C29.7655 78.1911 29.9355 78.1911 29.9355 78.3711C29.9355 78.2011 29.7655 78.2011 29.7655 78.0211C29.7655 78.1911 29.9355 78.1911 29.9355 78.3711C32.3655 82.3711 42.4455 81.6711 55.6555 76.1111Z" fill="#1D1D1D"/>
<path fill-rule="evenodd" clip-rule="evenodd" d="M44.8857 85.6711C45.5857 85.5011 45.4057 84.9711 45.2357 84.6711C44.8118 84.0331 44.0914 83.6559 43.3257 83.6711C37.9357 84.5411 34.1157 84.0211 32.5457 82.1011V81.8511C32.921 82.2214 33.2562 82.6303 33.5457 83.0711C33.8957 83.4211 34.2457 83.9411 34.5457 84.2911C35.9357 86.0311 39.5457 86.5511 44.8057 85.6811L44.8857 85.6711Z" fill="#1D1D1D"/>
<path fill-rule="evenodd" clip-rule="evenodd" d="M60.0056 86.3711C60.5338 86.2249 60.846 85.6808 60.7056 85.1511C60.2533 84.4562 59.3408 84.2292 58.6156 84.6311C48.1856 88.8011 40.1956 89.4911 37.2356 87.0611C38.0878 87.6494 38.8996 88.2942 39.6656 88.9911C42.6656 91.0711 50.2656 90.2111 60.0056 86.3911V86.3711Z" fill="#1D1D1D"/>
<path fill-rule="evenodd" clip-rule="evenodd" d="M43.1455 91.061C44.1059 91.4537 45.0352 91.9183 45.9255 92.451C49.2255 93.841 56.1755 92.801 64.8755 89.151C78.0755 83.591 90.0755 73.991 91.6355 67.991C91.6115 67.801 91.6739 67.6102 91.8055 67.471C91.9755 66.771 91.9755 65.731 92.1555 64.861V64.301C90.4155 76.301 54.7855 95.931 43.1555 91.071L43.1455 91.061Z" fill="#1D1D1D"/>
<path fill-rule="evenodd" clip-rule="evenodd" d="M66.4356 90.5411C59.1356 93.6711 53.0556 94.7111 49.7456 93.8411C50.6156 94.0111 52.0056 94.3611 52.8756 94.5311C61.8756 95.9211 84.8756 84.6211 89.7256 74.3711C90.0756 73.5011 90.4256 72.2911 90.7256 71.3711C89.0056 76.9911 78.2556 85.5011 66.4356 90.5411Z" fill="#1D1D1D"/>
<path fill-rule="evenodd" clip-rule="evenodd" d="M82.2557 84.281C78.184 87.5016 73.68 90.134 68.8757 92.101C64.0057 94.191 59.8757 95.101 57.0557 94.881H60.5357C63.7796 94.4905 66.9455 93.6105 69.9257 92.271C74.1388 90.4331 78.1088 88.082 81.7457 85.271C82.2657 84.921 82.4357 84.401 82.6157 84.401C82.6157 84.231 82.7857 84.231 82.7857 84.051V83.941C82.4357 84.111 82.2657 84.111 82.2657 84.291L82.2557 84.281Z" fill="#1D1D1D"/>
<path fill-rule="evenodd" clip-rule="evenodd" d="M25.7657 58.381V59.251C25.7463 59.3913 25.8134 59.5295 25.9357 59.601V59.771C25.9357 59.991 26.1057 59.991 26.1057 60.121V60.291C26.432 60.7119 26.849 61.0537 27.3257 61.291C27.6841 61.1618 27.9016 60.7978 27.8457 60.421C27.9447 59.78 27.8864 59.1245 27.6757 58.511C27.166 58.3282 26.735 57.975 26.4557 57.511C26.0795 56.8811 25.8986 56.1538 25.9357 55.421C25.9751 55.1279 26.0319 54.8374 26.1057 54.551V54.901L25.9357 56.121L25.5857 57.861C25.7557 57.861 25.7557 58.211 25.7557 58.381H25.7657Z" fill="#1D1D1D"/>
<path fill-rule="evenodd" clip-rule="evenodd" d="M91.2855 81.681C90.5669 81.15 89.5562 81.2874 89.0055 81.991C85.9218 86.4711 81.8984 90.225 77.2155 92.991C71.7132 96.155 65.4826 97.8333 59.1355 97.861H59.0055C47.4077 97.8779 36.4902 92.3895 29.5855 83.071H29.4155C29.4155 82.9771 29.3394 82.901 29.2455 82.901L29.0755 82.731C28.9352 82.7504 28.797 82.6833 28.7255 82.561H27.7255C27.5852 82.5417 27.447 82.6088 27.3755 82.731H27.1555V82.891C27.0616 82.891 26.9855 82.9671 26.9855 83.061L26.8155 83.231C26.8349 83.3714 26.7678 83.5095 26.6455 83.581V90.711C26.6455 91.1725 26.8288 91.6151 27.1551 91.9414C27.4815 92.2677 27.924 92.451 28.3855 92.451C28.8554 92.4807 29.3155 92.3069 29.6484 91.9739C29.9814 91.641 30.1552 91.181 30.1255 90.711V88.801C37.7081 96.8336 48.2794 101.366 59.3255 101.321H59.4955C66.4053 101.305 73.1856 99.4445 79.1355 95.931C84.327 93.027 88.7417 88.9141 92.0055 83.941C92.3888 83.1198 92.0859 82.1418 91.3055 81.681H91.2855Z" fill="#407BA4"/>
<path fill-rule="evenodd" clip-rule="evenodd" d="M57.3956 23.281V22.931C57.415 22.7907 57.3479 22.6526 57.2256 22.581C57.2364 22.4289 57.1474 22.2873 57.0056 22.231L56.8356 22.061C56.8356 21.891 56.6656 21.891 56.4856 21.891L56.3156 21.721L50.2756 18.241C49.8902 17.9987 49.4187 17.9355 48.9831 18.0679C48.5475 18.2003 48.1909 18.5152 48.0056 18.931C47.7674 19.3169 47.7077 19.787 47.8419 20.2201C47.9761 20.6533 48.291 21.0073 48.7056 21.191L50.6156 22.191C46.4703 23.1134 42.4863 24.6504 38.7956 26.751C32.8984 30.2743 27.9946 35.2401 24.5456 41.181C17.6804 52.7562 17.157 67.0239 23.1556 79.071C23.4877 79.6138 24.0793 79.9437 24.7156 79.941C24.9584 79.9663 25.2023 79.9062 25.4056 79.771C25.8275 79.5954 26.1496 79.2415 26.2848 78.8049C26.42 78.3684 26.3543 77.8944 26.1056 77.511C17.5555 60.205 23.86 39.2336 40.5356 29.511C45.1945 26.7664 50.4381 25.1659 55.8356 24.841C56.0256 24.865 56.2164 24.8027 56.3556 24.671C56.5256 24.501 56.7056 24.501 56.8756 24.321L57.0056 24.151L57.2256 23.991V23.801C57.2062 23.6607 57.2733 23.5226 57.3956 23.451V23.281Z" fill="#D37D41"/>
<path fill-rule="evenodd" clip-rule="evenodd" d="M100.846 73.3311C100.385 72.5507 99.4068 72.2477 98.5856 72.6311L97.0056 73.5111C100.497 62.7899 99.2302 51.0869 93.5256 41.3611C86.8968 30.193 75.358 22.837 62.4356 21.5411C61.9928 21.5021 61.5537 21.6492 61.2236 21.947C60.8935 22.2448 60.7023 22.6665 60.6956 23.1111C60.6568 23.5522 60.8025 23.9898 61.0981 24.3195C61.3938 24.6492 61.8129 24.8417 62.2556 24.8511C74.1129 25.9362 84.7234 32.6613 90.7656 42.9211C96.6441 53.266 97.2239 65.7976 92.3256 76.6411V77.8611C92.3033 78.0018 92.3712 78.1416 92.4956 78.2111V78.3811L92.6656 78.5511V78.7211C92.8356 78.8911 93.0156 78.8911 93.1856 79.0711H94.4056C94.4995 79.0711 94.5756 78.995 94.5756 78.9011L100.316 75.6011C100.985 75.0551 101.199 74.1247 100.836 73.3411L100.846 73.3311Z" fill="#E9B520"/>
</svg>
