<svg width="120" height="120" viewBox="0 0 120 120" fill="none" xmlns="http://www.w3.org/2000/svg">
<circle cx="60" cy="60" r="60" fill="#EDF0F4"/>
<path fill-rule="evenodd" clip-rule="evenodd" d="M33 32V87.4878H87.6V32H33ZM52.0878 38.4366H57.1927V43.7634H52.0878V38.4366ZM44.5415 38.4366H39.2146V43.7634H44.5415V38.4366ZM44.3195 51.3098V56.6366H38.9927V51.3098H44.3195ZM40.7683 80.6073H42.7659V78.6098H40.7683V80.6073ZM44.5415 69.9537H39.2146V64.8488H44.5415V69.9537ZM53.8634 80.6073H55.861V78.6098H53.8634V80.6073ZM55.861 68.178H53.8634V66.1805H55.861V68.178ZM52.0878 56.8585H57.4146V51.5317H52.0878V56.8585ZM68.7341 80.6073H66.7366V78.6098H68.7341V80.6073ZM66.7366 68.178H68.7341V66.1805H66.7366V68.178ZM68.7341 55.0829H66.7366V53.0854H68.7341V55.0829ZM65.1829 43.7634H70.5098V38.4366H65.1829V43.7634ZM81.8293 80.6073H79.8317V78.6098H81.8293V80.6073ZM79.8317 68.178H81.8293V66.1805H79.8317V68.178ZM81.8293 55.0829H79.8317V53.0854H81.8293V55.0829ZM79.8317 42.2098H81.8293V40.2122H79.8317V42.2098Z" fill="#202944"/>
</svg>
