<svg width="120" height="120" viewBox="0 0 120 120" fill="none" xmlns="http://www.w3.org/2000/svg">
<path fill-rule="evenodd" clip-rule="evenodd" d="M60 120C27 120 0 93.0006 0 59.7012C0.3 26.7019 27 -0.297518 60.3 0.00247602C93.3 0.30247 120 27.0019 120 60.6012C119.7 93.3006 93 120 60 120Z" fill="#0090FF"/>
<path fill-rule="evenodd" clip-rule="evenodd" d="M65.2051 52.9647L63.4205 62.5772L80.3744 64.9803L79.1846 69.4861L62.5282 67.083C61.3385 70.9881 60.7436 75.1935 59.2564 78.7982C57.7692 83.0037 56.2821 87.2091 54.4974 91.1142C52.1179 96.2208 47.9538 99.8255 42.3026 100.727C39.0308 101.327 35.4615 101.027 32.7846 98.9243C31.8923 98.3235 31 97.122 31 96.2208C31 95.0193 31.5949 93.5173 32.4872 92.9165C33.0821 92.6161 34.5692 92.9165 35.4615 93.2169C36.3538 94.1181 37.2462 95.3196 37.841 96.5212C39.6256 98.9243 42.0051 99.2247 44.3846 97.4224C47.0615 95.0192 48.5487 91.715 49.441 88.4107C51.2256 81.2013 53.0103 74.2924 54.4974 67.083V65.8814L38.7333 63.4783L39.3282 58.9725L55.6872 61.3756L57.7692 52.0635L40.8154 49.36L41.4103 44.5538L58.959 46.9569C59.5538 45.1545 59.8513 43.6526 60.4462 42.1506C61.9333 36.7436 63.4205 31.3366 66.9897 26.5304C70.559 21.7241 74.7231 18.7202 80.9692 19.0206C83.6462 19.0206 86.3231 19.9218 88.1077 22.0245C88.4051 22.3249 89 22.9257 89 23.5265C89 24.728 89 26.23 88.1077 27.1312C86.9179 28.0323 85.4308 27.7319 84.241 26.5304C83.3487 25.6292 82.7538 24.728 81.8615 23.8269C80.0769 21.4237 77.4 21.1234 75.3179 23.2261C73.8308 24.728 72.3436 26.8308 71.4513 28.9335C69.3692 35.2417 67.882 41.8503 65.8 48.4588L82.159 50.8619L80.9692 55.3678L65.2051 52.9647Z" fill="white"/>
</svg>
