<svg width="120" height="120" viewBox="0 0 120 120" fill="none" xmlns="http://www.w3.org/2000/svg">
<circle cx="60" cy="60" r="60" fill="#EDF0F4"/>
<circle cx="60" cy="60" r="36" fill="#00AFEC"/>
<path fill-rule="evenodd" clip-rule="evenodd" d="M51.0742 49.5668L51.1755 49.5893V49.5915H51.1822C48.7498 54.4947 45.7844 59.1148 42.3398 63.3683L42.324 63.384C39.0415 62.8596 35.882 61.7419 33 60.0855V59.5455C33.1738 51.2819 37.1184 43.5518 43.7078 38.562V38.553C47.5841 35.6188 52.182 33.7879 57.0142 33.2543C55.9665 37.8519 54.4768 42.3375 52.566 46.6485H52.5548C52.0328 46.5203 51.5085 46.3965 50.9842 46.284L50.2755 49.3733H50.2868V49.3868L51.0742 49.5668ZM69.9025 50.1974C69.8335 50.3436 69.7636 50.4919 69.6885 50.613L69.2812 50.5095C66.471 45.0443 64.527 39.2438 63.1545 33.2543C66.8625 33.6615 70.2712 34.836 73.5 36.699C73.4963 41.3589 72.2904 45.939 69.999 49.9965C69.9668 50.061 69.9347 50.1289 69.9025 50.1972L69.9025 50.1973L69.9025 50.1974ZM68.0775 54.1455C68.6693 54.4605 68.8898 54.9105 69.171 55.7925C69.5602 57.1245 69.297 58.5263 69.0202 59.8425L72.285 60.6008L73.095 57.084C76.3913 62.1578 80.0475 67.398 84.4867 71.511C83.7196 73.2532 83.23 73.9157 82.1609 75.3626L81.996 75.5858C74.7285 73.3493 66.9885 72.1635 59.3835 72.2378L60.0338 69.639L57.8647 69.1328C57.5273 69.0473 57.183 68.8965 56.9805 68.5995C56.7262 68.262 56.7262 67.8165 56.8118 67.4183L58.1685 61.5188C58.3298 61.5575 58.4927 61.5932 58.656 61.629C59.2035 61.7489 59.7549 61.8696 60.261 62.1105C60.8845 62.3608 61.3515 62.8931 61.5187 63.5438C61.6456 64.1826 61.4884 64.8032 61.3323 65.4193C61.2696 65.6668 61.2071 65.9136 61.1632 66.1605L64.0837 66.8355L66.5182 56.2875L66.2708 56.2043L66.0795 56.1683C66.7545 55.4595 67.344 54.8295 67.9538 54.06L68.0798 54.1455H68.0775ZM42.4792 63.9645L42.4095 64.0613C40.2382 66.7365 37.9657 69.3398 35.4413 71.6798C36.0392 73.0626 36.4743 73.622 37.1601 74.5036C37.3825 74.7896 37.6314 75.1096 37.9208 75.5025C41.9311 74.291 46.0305 73.3965 50.181 72.8273C50.3339 72.162 50.4021 71.8459 50.5047 71.3708L50.5048 71.3704L50.5048 71.3703C50.5441 71.1883 50.5884 70.983 50.6445 70.7258L45.6585 69.5715C45.7254 69.2823 45.793 68.9924 45.8607 68.702L45.8607 68.7019L45.8608 68.7018C46.0322 67.9665 46.2044 67.2283 46.3672 66.4913C46.7725 66.5689 47.1752 66.6636 47.5767 66.758L47.5768 66.758L47.577 66.7581L47.5771 66.7581L47.5771 66.7581C47.9199 66.8387 48.2618 66.9191 48.6038 66.9885C48.968 67.0783 49.3531 67.0114 49.6658 66.804C49.9785 66.5745 50.1383 66.1965 50.2238 65.832L50.703 63.9915C50.5433 63.9983 50.3813 64.014 50.2238 64.0365C48.156 64.329 46.14 64.2885 44.0632 64.104C43.8435 64.081 43.6444 64.0735 43.451 64.0662H43.4509C43.1335 64.0542 42.8316 64.0428 42.4792 63.9645ZM53.9858 71.4953L55.986 71.9588L55.9185 72.3548L53.7832 72.5078L53.9858 71.4953ZM50.766 63.402C50.6094 63.4076 50.4532 63.4211 50.298 63.4425L50.2957 63.4448C48.228 63.735 46.1332 63.7868 44.052 63.5955C43.9005 63.5798 43.7963 63.5708 43.7139 63.5636C43.4895 63.5441 43.428 63.5388 43.0147 63.4515C46.4292 59.255 49.3663 54.6917 51.7717 49.8458C51.796 49.8502 51.8602 49.8351 51.925 49.82C51.9924 49.8042 52.0604 49.7883 52.0845 49.794C52.3021 49.8447 52.3282 49.8497 52.3538 49.8565C52.3793 49.8632 52.4044 49.8718 52.6177 49.929L52.701 49.956C53.0693 50.0802 53.3587 50.3689 53.484 50.7368C53.6089 51.1324 53.5124 51.5281 53.416 51.9238C53.3891 52.0343 53.3621 52.1449 53.34 52.2555L50.766 63.393V63.402Z" fill="white"/>
<path d="M56.0175 47.4382V47.4472C56.4135 45.7755 56.7848 44.097 57.1898 42.4275L60.5153 43.1925L59.3588 48.2145L61.35 48.678C61.548 47.8432 61.7438 47.0062 61.935 46.1692L62.2253 44.9137L62.5155 43.6582L65.8388 44.4165C65.7938 44.6415 65.7443 44.8665 65.6948 45.0915C65.373 46.5472 65.0153 47.9895 64.6935 49.4497L68.5208 50.3407C65.7105 44.8732 63.8498 39.1582 62.4795 33.1687C61.62 33.0675 61.2578 33.1012 60.387 33.0855H59.856C58.902 33.0855 58.5488 33.0607 57.6128 33.1687C56.5598 37.7655 55.3178 42.5872 53.4053 46.8982L56.0175 47.4382Z" fill="white"/>
<path fill-rule="evenodd" clip-rule="evenodd" d="M74.0895 37.1176C79.0238 39.9751 82.3425 43.8946 84.6712 49.1011V49.0988C86.1225 52.3646 86.9139 55.8851 87 59.4578V60.7246C86.9212 64.2436 86.1517 67.7108 84.7388 70.9328C80.3085 66.8153 76.6388 61.2308 73.3493 56.1593L74.3438 51.6886V51.6728C73.1591 51.4069 72.3164 51.2231 71.2907 50.9994C70.98 50.9317 70.6526 50.8603 70.2938 50.7818C70.4081 50.5157 70.535 50.2552 70.674 50.0011C72.9645 45.9398 74.085 41.7796 74.0895 37.1176ZM58.8953 58.4228L60.4388 51.7313L64.2098 52.6088C65.3057 52.8104 66.3676 53.1656 67.3643 53.6641C66.8522 54.3107 66.2283 54.9766 65.6407 55.6037L65.6391 55.6054C65.5301 55.7217 65.4223 55.8367 65.3167 55.9501L65.2762 55.9816L65.2701 55.988C65.2674 55.9829 65.2592 55.9778 65.2402 55.9748L63.6112 55.5608C63.5408 55.8173 63.4835 56.0772 63.4261 56.3377L63.4261 56.3377L63.4261 56.3377C63.3515 56.676 63.2767 57.0153 63.1725 57.3496C62.9818 57.9965 62.4816 58.506 61.8383 58.7086C61.0222 58.9377 60.1968 58.7364 59.3928 58.5403C59.226 58.4996 59.06 58.4592 58.8953 58.4228ZM65.2636 56.0029C65.2675 56.0013 65.2735 55.9947 65.2701 55.988C65.2582 56.0012 65.2598 56.0045 65.2636 56.0029ZM33 60.6751V61.0643C33.0518 64.6621 33.8212 67.6208 35.2613 70.9193C37.6502 68.7156 39.8697 66.3351 41.901 63.7981C38.6273 63.2761 35.8688 62.3401 33 60.6751ZM58.1595 77.7526L59.2913 72.8251C66.8991 72.7508 74.4728 73.8528 81.744 76.0921C76.7806 82.8137 68.9941 86.8701 60.6413 87.0856H59.5365C51.1189 86.9343 43.2522 82.8699 38.2583 76.0921C42.0945 74.9086 46.023 74.0423 50.0033 73.5023C49.8209 74.2339 49.6578 74.9591 49.4911 75.7009L49.479 75.7546L52.8225 76.5218H52.827L53.6145 73.0951L55.7407 72.9443L54.8115 76.9876L58.1528 77.7526H58.1595Z" fill="white"/>
</svg>
