<svg width="120" height="120" viewBox="0 0 120 120" fill="none" xmlns="http://www.w3.org/2000/svg">
<circle cx="60" cy="60" r="60" fill="#EDF0F4"/>
<path d="M49.282 45.1761L48.8938 45.5643L40 54.4582L37.3177 57.1404C37.1764 57.3488 36.9967 57.5285 36.7883 57.6698C35.9579 58.2151 34.8426 57.9845 34.2966 57.1545C34.0988 56.858 33.9955 56.5086 34.0002 56.1522V47.7172C34.1521 43.5981 37.5369 40.3381 41.6587 40.3409H49.282L47.0586 42.5997L44.4822 45.1761H49.282Z" fill="url(#paint0_linear)"/>
<path d="M85.7401 50.0465V50.6112C85.6117 55.4056 83.7569 59.9925 80.5167 63.5285L55.2822 88.763C53.8842 90.0125 52.075 90.7035 50.2 90.7041C49.6913 90.6942 49.1841 90.647 48.6824 90.5629L47.2001 90.1041C45.6148 89.5537 44.0699 88.8933 42.5767 88.1277L42.2591 87.9513C41.9823 87.744 41.8242 87.4146 41.8355 87.0689C41.832 86.8284 41.9062 86.5932 42.0473 86.3984L70.3523 58.0581C70.4898 57.9085 70.6084 57.7425 70.7052 57.564C70.8813 57.226 71.0232 56.8713 71.1288 56.5052C71.1815 56.2728 71.2169 56.0369 71.2346 55.7993C71.2658 55.6485 71.2776 55.4943 71.2699 55.3405C71.2699 52.7286 69.1526 50.6112 66.5407 50.6112H56.1998L63.1525 43.6585C63.3609 43.5172 63.5406 43.3375 63.6819 43.1291C63.8691 42.8337 63.9672 42.4906 63.9643 42.1409C63.9643 41.1468 63.1584 40.341 62.1643 40.341H47.4118C47.4118 40.341 48.8236 38.7881 49.3882 38.2234C50.6588 36.847 52.2117 35.0823 53.9058 33.847C57.3213 31.3348 61.4536 29.9862 65.6936 30.0001C68.2045 30.0032 70.6932 30.4699 73.0346 31.3765L73.9875 31.7648C75.6824 32.5447 77.2618 33.5541 78.6815 34.7647L78.9638 35.0117H78.9991C83.2837 38.8204 85.7366 44.2785 85.7401 50.0113V50.0465Z" fill="url(#paint1_linear)"/>
<path fill-rule="evenodd" clip-rule="evenodd" d="M47.517 40.3409H65.3047C66.2988 40.3409 67.1046 41.1468 67.1046 42.1409C67.1127 42.4966 67.0008 42.8447 66.787 43.1291L59.3402 50.6112H40.0702C39.6 50.616 39.173 50.3376 38.9878 49.9054C38.8025 49.4732 38.8954 48.972 39.2231 48.6348L47.517 40.3409ZM56.7285 44.3643C56.7476 44.9938 57.2634 45.494 57.8931 45.4937C58.5169 45.484 59.0146 44.9704 59.0049 44.3467C58.9951 43.723 58.4816 43.2252 57.8578 43.235C57.645 43.2346 57.4366 43.2959 57.2579 43.4114C57.1152 43.5011 56.9946 43.6217 56.9049 43.7644C56.7941 43.9452 56.7332 44.1523 56.7285 44.3643Z" fill="#E35CC7"/>
<path d="M49.8115 40.3409H47.3763L39.1883 48.4936C38.8274 48.8472 38.7181 49.3848 38.9124 49.8512C39.1068 50.3175 39.5655 50.6186 40.0706 50.6112H43.847L54.1173 40.3409H49.8115Z" fill="#8961D0"/>
<circle cx="57.8579" cy="44.3644" r="1.12938" fill="#8961D0"/>
<circle opacity="0.48" cx="57.8579" cy="44.3644" r="1.12938" fill="url(#paint2_linear)"/>
<path opacity="0.48" d="M58.9524 44.3644C58.9527 43.7542 58.4682 43.2541 57.8583 43.235C57.4551 43.2457 57.0841 43.4577 56.8701 43.7997C57.0854 43.6133 57.3618 43.5127 57.6466 43.5173C58.2508 43.5173 58.7406 44.0072 58.7406 44.6114V44.6467C58.7475 44.8333 58.6983 45.0177 58.5995 45.1761C58.8262 44.9673 58.9544 44.6726 58.9524 44.3644Z" fill="#480061"/>
<path opacity="0.75" fill-rule="evenodd" clip-rule="evenodd" d="M47.517 40.3409H65.3047C66.2988 40.3409 67.1047 41.1468 67.1047 42.1409C67.1127 42.4966 67.0008 42.8447 66.787 43.1291L59.3402 50.6112H40.0702C39.6064 50.602 39.1923 50.3184 39.0161 49.8893C38.8398 49.4601 38.935 48.9674 39.2585 48.6348L47.517 40.3409ZM57.0593 45.1629C57.2711 45.3747 57.5583 45.4937 57.8579 45.4937C58.4608 45.459 58.9364 44.968 58.952 44.3643C58.9523 43.7541 58.4678 43.254 57.8579 43.235C57.645 43.2346 57.4366 43.2959 57.2579 43.4114C57.1153 43.5011 56.9946 43.6217 56.905 43.7644C56.7941 43.9452 56.7333 44.1523 56.7285 44.3643C56.7285 44.6639 56.8475 44.9511 57.0593 45.1629Z" fill="url(#paint3_linear)"/>
<path d="M49.8115 40.3409H47.3763L39.1883 48.4936C38.8274 48.8472 38.7181 49.3848 38.9124 49.8512C39.1068 50.3175 39.5655 50.6186 40.0706 50.6112H43.847L54.1173 40.3409H49.8115Z" fill="url(#paint4_linear)"/>
<path opacity="0.43" d="M61.4584 50.6113L66.6465 43.3056L59.3408 50.6113H61.4584Z" fill="url(#paint5_linear)"/>
<defs>
<linearGradient id="paint0_linear" x1="34.0002" y1="57.9658" x2="49.282" y2="57.9658" gradientUnits="userSpaceOnUse">
<stop stop-color="#4750D9"/>
<stop offset="0.41" stop-color="#5C45DC"/>
<stop offset="1" stop-color="#8131E1"/>
</linearGradient>
<linearGradient id="paint1_linear" x1="41.8355" y1="90.7038" x2="85.7401" y2="90.7038" gradientUnits="userSpaceOnUse">
<stop stop-color="#E96161"/>
<stop offset="0.2" stop-color="#E65B76"/>
<stop offset="0.61" stop-color="#DF4AAC"/>
<stop offset="1" stop-color="#D739E6"/>
</linearGradient>
<linearGradient id="paint2_linear" x1="56.725" y1="45.4814" x2="58.959" y2="45.4814" gradientUnits="userSpaceOnUse">
<stop stop-color="#B100D3"/>
<stop offset="0.23" stop-color="#9C00C0"/>
<stop offset="0.69" stop-color="#67008E"/>
<stop offset="1" stop-color="#40006A"/>
</linearGradient>
<linearGradient id="paint3_linear" x1="38.9302" y1="50.6109" x2="67.1047" y2="50.6109" gradientUnits="userSpaceOnUse">
<stop stop-color="#D0D7D3"/>
<stop offset="0.52" stop-color="#D9C5E8"/>
<stop offset="1" stop-color="#E3B1FF"/>
</linearGradient>
<linearGradient id="paint4_linear" x1="38.8389" y1="50.6029" x2="54.1137" y2="50.6029" gradientUnits="userSpaceOnUse">
<stop stop-color="#B277EC"/>
<stop offset="0.77" stop-color="#9336E7"/>
<stop offset="1" stop-color="#8921E6"/>
</linearGradient>
<linearGradient id="paint5_linear" x1="59.3302" y1="50.6183" x2="66.65" y2="50.6183" gradientUnits="userSpaceOnUse">
<stop stop-opacity="0.5"/>
<stop offset="0.1" stop-color="#201322" stop-opacity="0.59"/>
<stop offset="0.25" stop-color="#4A2C4E" stop-opacity="0.72"/>
<stop offset="0.4" stop-color="#6D4173" stop-opacity="0.82"/>
<stop offset="0.55" stop-color="#885190" stop-opacity="0.9"/>
<stop offset="0.7" stop-color="#9B5DA4" stop-opacity="0.95"/>
<stop offset="0.85" stop-color="#A664B0" stop-opacity="0.99"/>
<stop offset="1" stop-color="#AA66B4"/>
</linearGradient>
</defs>
</svg>
