<svg width="120" height="120" viewBox="0 0 120 120" fill="none" xmlns="http://www.w3.org/2000/svg">
<circle cx="60" cy="60" r="60" fill="#00EF8B"/>
<rect x="69.3604" y="50.64" width="16.92" height="16.92" fill="white"/>
<path d="M52.4398 73.92C52.4398 77.4 49.5598 80.28 46.0798 80.28C42.5998 80.28 39.7198 77.4 39.7198 73.92C39.7198 70.44 42.5998 67.56 46.0798 67.56H52.4398V50.64H46.0798C33.2398 50.64 22.7998 61.08 22.7998 73.92C22.7998 86.76 33.2398 97.2 46.0798 97.2C58.9198 97.2 69.3598 86.76 69.3598 73.92V67.56H52.4398V73.92Z" fill="white"/>
<path d="M75.7204 42.12H94.8004V25.2H75.7204C62.8804 25.2 52.4404 35.64 52.4404 48.48V50.64H69.3604V48.48C69.3604 45 72.2404 42.12 75.7204 42.12Z" fill="white"/>
<path d="M69.3604 50.64H52.4404V67.56H69.3604V50.64Z" fill="#16FF99"/>
</svg>
