<svg width="122" height="122" viewBox="0 0 122 122" fill="none" xmlns="http://www.w3.org/2000/svg">
<circle cx="61" cy="61" r="60" fill="black" stroke="black" stroke-width="0.436504"/>
<path d="M34.4084 26.8073L30.3857 30.83L35.4752 35.9194L40.5758 41.0089L40.1535 42.2535C39.609 43.887 39.3867 45.2538 39.3867 47.0651C39.3867 52.9658 42.476 57.9885 47.9432 60.9778C50.1435 62.1779 53.9217 63.5336 58.111 64.6115C66.2897 66.7117 67.5454 67.0784 69.1567 67.8341C71.3569 68.8786 72.4459 70.0121 72.9015 71.7234C73.1016 72.4679 73.0904 74.1348 72.8904 74.9349C72.3792 76.8795 70.7235 78.8353 68.6677 79.9021C65.8896 81.3578 61.0558 81.7578 57.4109 80.8244C56.0552 80.491 54.1328 79.5465 53.166 78.7575C51.1991 77.1351 49.6656 74.3348 48.9878 71.1011C48.8767 70.5899 48.7878 70.1565 48.7767 70.1343C48.7433 70.0899 37.3643 71.2011 37.3087 71.2678C37.2643 71.3011 37.2976 71.7678 37.3754 72.3012C37.731 74.8682 38.6311 77.9241 39.6645 80.0465L40.2646 81.28L35.3196 86.225L30.3857 91.17L34.4195 95.2037L38.4422 99.2264L43.5427 94.1258L48.6322 89.0364L49.5101 89.4031C54.155 91.3589 61.1225 91.9701 67.8788 90.9922C69.5012 90.7588 71.8459 90.2032 73.0793 89.7476L73.8127 89.4809L78.6911 94.3592L83.5583 99.2264L87.5809 95.2037L91.6147 91.17L87.092 86.6472L82.5804 82.1356L83.1471 80.98C84.325 78.613 84.814 76.6017 84.914 73.8347C85.0918 68.5564 83.7249 64.5782 80.6135 61.3C77.3687 57.8885 73.7127 56.2661 63.3894 53.6658C56.1108 51.8434 52.9771 50.5877 51.7325 49.0098C50.4991 47.4541 50.3879 45.276 51.4658 43.687C52.0881 42.7646 53.6216 41.7756 55.2885 41.22C57.1665 40.5866 60.3224 40.2977 62.6671 40.5422C67.6121 41.0645 70.1012 43.1758 71.1902 47.7985C71.3236 48.3653 71.4458 48.8431 71.4569 48.8653C71.4792 48.8987 79.5245 48.6097 81.9359 48.4875L83.3138 48.4208L83.236 47.454C83.0804 45.4872 82.6915 43.7314 81.9803 41.8979L81.5914 40.8644L86.603 35.8417L91.6147 30.83L87.592 26.7962L83.5583 22.7736L78.491 27.8408L73.4127 32.9191L72.1792 32.4524C69.1456 31.3189 66.2119 30.8189 61.8892 30.6967C57.1665 30.5744 53.0216 31.1856 49.8434 32.4746L48.6655 32.9525L43.5539 27.863L38.4422 22.7736L34.4084 26.8073Z" fill="white"/>
</svg>
