<svg width="122" height="122" viewBox="0 0 122 122" fill="none" xmlns="http://www.w3.org/2000/svg">
<circle cx="61" cy="61" r="60" fill="black" stroke="black" stroke-width="1.2373"/>
<path fill-rule="evenodd" clip-rule="evenodd" d="M23.2627 32.5601C23.2837 32.5179 25.3709 30.2832 27.9007 27.6269L32.4756 22.7358L33.4032 23.6423C33.9092 24.1483 36.0385 26.1722 38.1256 28.1539C39.1279 29.1157 40.1351 30.0727 40.9627 30.859C41.8584 31.71 42.5437 32.3612 42.7848 32.6023L43.6492 33.4455L44.4081 32.9817C44.8298 32.7288 45.905 32.1384 46.8326 31.6957C50.0371 30.0935 53.1783 29.1448 57.0153 28.5966C58.6175 28.3647 63.8038 28.4069 65.5325 28.6599C68.8635 29.1448 71.7307 30.0091 74.8087 31.4217C75.8206 31.8855 77.6337 32.8763 78.3505 33.3612C78.6035 33.551 78.8776 33.6775 78.9197 33.6564C78.983 33.6353 81.3442 31.1897 84.1903 28.2172C87.0364 25.2235 89.4187 22.799 89.503 22.799C89.6295 22.799 99.1165 31.759 99.2008 31.9698C99.2219 32.033 96.7974 34.6262 93.8248 37.7252L88.4067 43.3964L88.8073 44.0921C89.6295 45.4835 91.042 48.5193 91.5058 49.8686C94.7103 59.0815 93.6773 69.0745 88.723 77.3176L88.1326 78.2874L89.4187 79.5102C93.2978 83.1574 99.6435 89.2502 99.6646 89.3134C99.6857 89.4399 90.4306 99.1167 90.3463 99.0745C90.262 99.0323 81.8291 91.0211 79.5733 88.8285L78.5402 87.8166L77.5705 88.4069C73.8389 90.6627 69.2851 92.2017 64.6892 92.7288C62.3069 93.0239 58.0483 92.9185 55.8136 92.5179C51.3653 91.7168 47.3386 90.1989 43.9021 88.0063L43.2275 87.5847L42.5107 88.3015C42.1312 88.702 39.6225 91.3373 36.945 94.1413L32.075 99.2221L31.7588 98.948C30.9366 98.2734 22.314 89.9459 22.335 89.8827C22.3421 89.8756 22.4184 89.7945 22.5551 89.6494C23.2339 88.9284 25.4017 86.6261 27.964 83.9585C31.042 80.733 33.5929 78.0344 33.6351 77.9501C33.6773 77.8658 33.4875 77.402 33.0659 76.6852C32.2015 75.2305 31.1896 73.0169 30.5993 71.2881C27.458 62.1384 28.491 52.1876 33.4875 43.9234L34.0568 42.9747L33.7405 42.6796C33.6097 42.5651 32.1098 41.1323 30.1354 39.2461C29.5636 38.6999 28.952 38.1156 28.3224 37.5144C25.5185 34.8581 23.2416 32.6233 23.2627 32.5601ZM72.4053 44.851C69.6435 42.9115 66.6499 41.773 63.2978 41.3725C55.2022 40.4027 47.3386 44.6613 43.7124 51.9557C42.8059 53.811 42.321 55.1392 41.9626 56.9944C41.5831 58.8707 41.5831 62.4125 41.9626 64.3099C43.1643 70.2762 46.9169 75.2516 52.2296 77.9712C59.5873 81.7238 68.3364 80.4589 74.387 74.8089C81.4707 68.168 82.5459 57.3317 76.9169 49.3626C75.926 47.9501 73.8178 45.8419 72.4053 44.851Z" fill="white"/>
</svg>
