<svg width="120" height="120" viewBox="0 0 120 120" fill="none" xmlns="http://www.w3.org/2000/svg">
<path d="M119.986 60.0024C119.986 93.1333 93.1237 119.995 59.9784 120C26.8571 120 -0.00479762 93.1333 2.57257e-06 59.9976C-0.00959781 26.8619 26.8523 0 59.988 0C93.1237 0 119.986 26.8667 119.986 60.0024Z" fill="#02A6C2"/>
<path d="M46.6701 33.0034C61.6126 32.9989 76.5561 32.9989 91.5006 33.0034C91.5051 37.8334 91.5051 42.6626 91.5006 47.491C76.5576 47.4956 61.6141 47.4956 46.6701 47.491C46.6653 42.661 46.6653 37.8318 46.6701 33.0034Z" fill="white"/>
<path d="M29.0188 52.9415C33.8396 52.9165 38.6613 52.9165 43.4838 52.9415C43.5088 57.7624 43.5088 62.584 43.4838 67.4066C38.6615 67.4313 33.8398 67.4318 29.0188 67.4078C28.9937 62.5861 28.9937 57.764 29.0188 52.9415Z" fill="white"/>
<path d="M46.6809 52.9415C57.4662 52.9186 68.2508 52.9186 79.0346 52.9415C79.0575 57.7624 79.0575 62.584 79.0346 67.4066C68.2495 67.4291 57.465 67.4291 46.6809 67.4066C46.6584 62.5855 46.6584 57.7638 46.6809 52.9415Z" fill="white"/>
<path d="M46.6943 72.884C51.507 72.8317 56.3189 72.8317 61.13 72.884C61.18 77.6936 61.1807 82.5055 61.1322 87.3196C56.3195 87.3671 51.5077 87.3663 46.6968 87.3171C46.6468 82.508 46.646 77.6969 46.6943 72.884Z" fill="white"/>
</svg>
