<svg width="120" height="120" viewBox="0 0 120 120" fill="none" xmlns="http://www.w3.org/2000/svg">
<circle cx="60" cy="60" r="60" fill="#EDF0F4"/>
<path fill-rule="evenodd" clip-rule="evenodd" d="M60 0C93.1371 0 120 26.8629 120 60C120 93.1371 93.1371 120 60 120C26.8629 120 0 93.1371 0 60C0 26.8629 26.8629 0 60 0Z" fill="#1E9ADA"/>
<path fill-rule="evenodd" clip-rule="evenodd" d="M20.4619 94.3261C24.7513 80.8943 33.4281 53.7236 46.6068 33.5104L46.5904 33.4884C78.9141 31.9942 94.8013 43.3767 94.8013 43.3767C86.9071 21.6719 59.4836 22.007 55.2481 22.1718C63.9443 12.6296 74.1403 6.76805 85.8469 8.72373C85.8469 8.72373 66.5647 -13.7117 40.8716 23.8473L40.7617 24.0726C7.9326 29.3738 2.24683 46.8431 2.24683 46.8431C12.7779 35.9605 31.7854 34.6201 35.3507 34.4553C27.5993 50.8094 17.0134 78.4747 19.0185 98.8006C19.4265 97.5684 19.9076 96.062 20.4619 94.3261ZM54.1239 67.0425C55.9776 62.5803 60.3374 59.6748 65.1694 59.6814C68.3362 59.6785 71.3739 60.9364 73.6117 63.1772C75.8494 65.418 77.1031 68.4575 77.0957 71.6243C77.0957 76.4562 74.1842 80.8121 69.7194 82.6596C65.2546 84.5072 60.1165 83.4824 56.7022 80.0633C53.2878 76.6443 52.2701 71.5047 54.1239 67.0425Z" fill="#FEFEFE"/>
</svg>
