<svg width="120" height="120" viewBox="0 0 120 120" fill="none" xmlns="http://www.w3.org/2000/svg">
<circle cx="60" cy="60" r="60" fill="#EDF0F4"/>
<path d="M44.0816 71.1125C44.0816 75.5872 45.8953 79.6383 48.8271 82.5699C51.7589 85.5017 55.8099 87.3154 60.2845 87.3154C64.7592 87.3153 68.81 85.5019 71.7417 82.5699C74.6739 79.6383 76.4873 75.5871 76.4873 71.1125L76.511 70.7691C76.5131 70.7497 77.3717 63.9958 71.4583 59.5779L75.0822 54.7224C83.0471 60.6732 82.6801 69.6501 82.5501 71.2171C82.5221 77.3233 80.0354 82.8502 76.0287 86.857C71.9992 90.8864 66.4326 93.3791 60.2845 93.3791C54.1366 93.3791 48.5698 90.8864 44.5403 86.857C40.5106 82.8274 38.0181 77.2607 38.0181 71.1125H44.0816Z" fill="#FDB813"/>
<path d="M68.2816 35.465C68.2816 33.145 67.3412 31.0442 65.821 29.524C64.3012 28.0038 62.2006 27.0636 59.8802 27.0636C57.5601 27.0636 55.4594 28.0038 53.9391 29.524C52.419 31.0438 51.4786 33.1448 51.4786 35.465H45.4152C45.4152 31.471 47.0345 27.8548 49.6523 25.237C52.27 22.6193 55.8864 21 59.8802 21C63.8741 20.9999 67.4903 22.6194 70.108 25.237C72.7258 27.8548 74.3451 31.4712 74.3451 35.465H68.2816Z" fill="#FDB813"/>
<path d="M39.1424 64.3983C37.9551 67.6818 38.0689 71.2362 38.0689 71.2362L44.0816 71.2297C44.0816 71.2297 44.1448 67.2626 45.0291 64.392L39.1424 64.3983V64.3983Z" fill="#FDB813"/>
<path d="M75.7337 55.1062C73.6945 53.1424 71.2843 51.5646 68.6208 50.4907C66.063 49.4595 63.2557 48.8916 60.3013 48.8916C48.0199 48.8915 38.0634 58.8482 38.0634 71.1297C38.0634 83.411 48.0199 93.3677 60.3013 93.3677C72.583 93.3675 82.5394 83.411 82.5394 71.1297C82.5396 70.4398 82.5058 69.0847 82.44 67.7717C82.3947 66.8734 82.3395 66.0704 82.2788 65.6774L88.271 64.7772C88.3754 65.4549 88.4519 66.4587 88.5034 67.4875C88.5692 68.8003 88.6031 70.2969 88.6031 71.1297C88.6031 86.7598 75.9318 99.4311 60.3013 99.4311C44.6711 99.4309 32 86.7598 32 71.1297C32 55.4992 44.6712 42.8281 60.3013 42.8281C64.025 42.8281 67.5934 43.5558 70.8708 44.8773C74.2673 46.2466 77.3355 48.2538 79.9257 50.7486L75.7334 55.1063H75.7337V55.1062Z" fill="#A80532"/>
<path d="M73.6072 64.729L88.092 64.746V70.8097L73.6072 70.7925V64.729Z" fill="#A80532"/>
<path d="M50.0234 65.624H50.2053C51.4331 65.624 51.761 64.986 51.7883 64.5031H52.8364V70.9611H51.5605V66.5083H50.0235V65.624H50.0234Z" fill="#363636"/>
<path fill-rule="evenodd" clip-rule="evenodd" d="M56.8556 71.1334C55.7523 71.1334 54.9594 70.4938 54.8502 69.4678V69.4677H56.1169V69.4768C56.1899 69.9199 56.4726 70.1097 56.8647 70.1099C57.3935 70.1099 57.9224 69.6668 57.9315 68.3138L57.9132 68.2955C57.6215 68.7343 57.1201 68.8437 56.6822 68.8437C55.4425 68.8437 54.7224 67.9026 54.7224 66.8194C54.7224 65.2372 55.6611 64.5031 56.9286 64.5031C59.1684 64.5031 59.2049 66.9102 59.2048 67.8204C59.2048 70.3201 58.0224 71.1334 56.8556 71.1334ZM56.9194 65.5451C56.5912 65.5451 55.9984 65.7091 55.9984 66.6372C55.9984 67.6111 56.4727 67.8204 56.9558 67.8204C57.4026 67.8204 57.8951 67.5016 57.8951 66.7373C57.8951 66.0001 57.5761 65.5451 56.9194 65.5451Z" fill="#363636"/>
<path fill-rule="evenodd" clip-rule="evenodd" d="M62.0357 71.1331C60.5124 71.1331 59.7943 70.0735 59.7943 67.814C59.7942 65.5551 60.5123 64.5043 62.0357 64.5043C63.559 64.5043 64.2774 65.5549 64.2774 67.8142C64.2774 70.0735 63.559 71.1331 62.0357 71.1331ZM62.0356 65.5277C61.3045 65.5277 61.1036 66.1537 61.1036 67.814C61.1036 69.4747 61.3047 70.1097 62.0356 70.1099C62.7665 70.1099 62.9677 69.4745 62.9676 67.8142C62.9676 66.1538 62.7667 65.5277 62.0356 65.5277Z" fill="#363636"/>
<path d="M66.1444 67.0869C66.3808 66.9225 66.672 66.7305 67.2998 66.7305C68.1641 66.7305 69.2555 67.3337 69.2555 68.8141C69.2556 69.6929 68.81 71.1331 66.9087 71.1331C65.8983 71.1331 64.8685 70.5302 64.8047 69.2307H66.0807C66.1353 69.7564 66.4174 70.1097 66.9814 70.1097C67.5911 70.1095 67.9459 69.5935 67.9459 68.9047C67.9459 68.3338 67.673 67.754 66.9997 67.754C66.8268 67.7538 66.3899 67.7633 66.1444 68.2162L65.0051 68.1617L65.4518 64.6134H69.0009V65.6866H66.3717L66.1444 67.0869Z" fill="#363636"/>
<path d="M51.4483 35.4016L45.3955 35.4231C44.9743 42.1599 51.038 45.9497 51.038 45.9497L71.5334 59.6554L75.2282 54.8235L55.838 42.4968C55.838 42.4968 51.4483 39.8651 51.4483 35.4016Z" fill="#FDB813"/>
</svg>
