<svg width="120" height="120" viewBox="0 0 120 120" fill="none" xmlns="http://www.w3.org/2000/svg">
<path fill-rule="evenodd" clip-rule="evenodd" d="M60 120C27 120 0 93.0006 0 59.7012C0.3 26.7019 27 -0.297518 60.3 0.00247602C93.3 0.30247 120 27.0019 120 60.6012C119.7 93.3006 93 120 60 120Z" fill="#EDF0F4"/>
<path fill-rule="evenodd" clip-rule="evenodd" d="M33 39.4247L61.4388 29L87.1952 38.2117L87.3394 81.7765L63.7172 73.0258L63.7172 90.2773L33 79.2523V39.4247ZM61.4691 36.5618L40.1104 44.3911V74.2499L56.6068 80.1707L56.6068 46.989L73.2766 40.7852L61.4691 36.5618ZM63.7172 51.9293L80.1099 45.8289L80.1947 71.5469L63.7172 65.443V51.9293Z" fill="#01E397"/>
</svg>
