<svg width="120" height="120" viewBox="0 0 120 120" fill="none" xmlns="http://www.w3.org/2000/svg">
<circle cx="60" cy="60" r="60" fill="#7F27FF"/>
<path fill-rule="evenodd" clip-rule="evenodd" d="M58.2887 38.1259H61.2769C64.2387 33.0435 66.9511 29.5876 69.5011 27.7203C72.6442 25.4125 75.8629 25.3937 78.3864 27.8633C80.7438 30.1673 81.1858 33.0586 79.6331 35.8445C79.1949 36.62 78.6131 37.3804 77.884 38.1259H88.8698C91.4349 38.1259 94 40.2265 94 43.1442C94 45.6552 91.8504 48.1662 88.8698 48.1662H61.9191V41.4727H57.6427V48.1662H31.1302C28.5689 48.1662 26 46.0656 26 43.1442C26 40.6369 28.1496 38.1259 31.1302 38.1259H42.2369C41.5419 37.4805 40.9234 36.758 40.3933 35.9725C38.5536 33.1715 38.7764 30.2125 41.1753 27.8633C43.6989 25.3937 46.9176 25.4163 50.0644 27.7203C52.6107 29.5876 55.3231 33.0473 58.2887 38.1259ZM57.6427 52.3526H29.8533V79.5411C29.8231 82.3232 30.9413 84.9998 32.9511 86.965C34.9609 88.9302 37.6998 90.0257 40.5444 89.9993H57.6464L57.6427 52.3526ZM47.4993 31.0671C49.1691 32.2906 51.126 34.6511 53.3171 38.1259H49.4638C46.7589 36.5974 44.8813 35.0652 43.9898 33.7061C43.2078 32.5165 43.2644 31.7334 44.1976 30.8186C45.108 29.9302 45.9542 29.9377 47.4993 31.0671ZM66.2484 38.1259H70.8536C73.4338 36.6501 75.1376 35.1593 75.878 33.8341C76.5202 32.6897 76.3842 31.82 75.3642 30.8224C74.4538 29.9302 73.6076 29.9339 72.0662 31.0671C70.3927 32.2906 68.432 34.6511 66.2484 38.1259ZM89.7122 52.3488H61.9191V89.9993H79.0211C81.8558 90.0311 84.5871 88.9397 86.6144 86.965C88.6177 85.0135 89.7363 82.3327 89.7122 79.5411V52.3488Z" fill="white"/>
</svg>
