<svg width="120" height="120" viewBox="0 0 120 120" fill="none" xmlns="http://www.w3.org/2000/svg">
<circle cx="60" cy="60" r="60" fill="#008DDE"/>
<path fill-rule="evenodd" clip-rule="evenodd" d="M92.8237 63.9897C92.3125 64.8487 91.372 65.3603 90.3718 65.3232V65.327H84.1331V71.4909H102.165C103.165 71.4538 104.106 71.9654 104.617 72.8245C105.128 73.6835 105.128 74.7527 104.617 75.6118C104.106 76.4708 103.165 76.9824 102.165 76.9453H84.0729C83.5282 82.9511 78.9965 87.8357 73.0396 88.8378V95.3996C73.0767 96.3981 72.5642 97.337 71.7037 97.8472C70.8431 98.3575 69.772 98.3575 68.9114 97.8472C68.0509 97.337 67.5384 96.3981 67.5756 95.3996V89.018H61.4008V101.372C61.3463 102.839 60.1392 104 58.6688 104C57.1983 104 55.9913 102.839 55.9368 101.372V89.018H49.762V93.0759C49.7991 94.0744 49.2867 95.0133 48.4261 95.5236C47.5655 96.0338 46.4944 96.0338 45.6339 95.5236C44.7733 95.0133 44.2609 94.0744 44.298 93.0759V88.834C38.3411 87.8319 33.8093 82.9474 33.2646 76.9416H21.3213C20.321 76.9786 19.3805 76.4671 18.8693 75.608C18.3582 74.749 18.3582 73.6798 18.8693 72.8207C19.3805 71.9616 20.321 71.4501 21.3213 71.4871H33.2158V65.3232H26.9733C25.9731 65.3603 25.0325 64.8487 24.5214 63.9897C24.0103 63.1306 24.0103 62.0614 24.5214 61.2023C25.0325 60.3433 25.9731 59.8317 26.9733 59.8688H33.2158V53.7048H17.8353C16.835 53.7419 15.8945 53.2303 15.3834 52.3713C14.8722 51.5122 14.8722 50.443 15.3834 49.5839C15.8945 48.7249 16.835 48.2133 17.8353 48.2504H33.2646C33.8093 42.2446 38.3411 37.3601 44.298 36.358V29.7886C44.3525 28.3218 45.5596 27.1607 47.03 27.1607C48.5004 27.1607 49.7075 28.3218 49.762 29.7886V36.1703H55.9405V21.8303C55.9034 20.8318 56.4159 19.8929 57.2764 19.3827C58.137 18.8724 59.2081 18.8724 60.0687 19.3827C60.9292 19.8929 61.4417 20.8318 61.4046 21.8303V36.174H67.5793V29.7924C67.5422 28.7939 68.0546 27.855 68.9152 27.3447C69.7758 26.8345 70.8469 26.8345 71.7074 27.3447C72.568 27.855 73.0804 28.7939 73.0433 29.7924V36.358C79.0003 37.3601 83.532 42.2446 84.0767 48.2504H97.1821C98.1823 48.2133 99.1228 48.7249 99.634 49.5839C100.145 50.443 100.145 51.5122 99.634 52.3713C99.1228 53.2303 98.1823 53.7419 97.1821 53.7048H84.1293V59.8688H90.3718C91.372 59.8317 92.3125 60.3433 92.8237 61.2023C93.3348 62.0614 93.3348 63.1306 92.8237 63.9897ZM70.8547 84.6634C75.7752 84.6593 79.763 80.6785 79.7671 75.7666V75.7629V49.4216C79.763 44.5098 75.7752 40.529 70.8547 40.5248H46.4866C41.5661 40.529 37.5783 44.5098 37.5742 49.4216V75.7666C37.5783 80.6785 41.5661 84.6593 46.4866 84.6634H70.8547Z" fill="white"/>
<path fill-rule="evenodd" clip-rule="evenodd" d="M49.1225 47.0716C50.1742 46.9822 51.2297 46.9459 52.2851 46.9628L52.2813 46.959C52.563 46.961 52.8449 46.9641 53.1268 46.9671C53.9028 46.9756 54.6791 46.984 55.4514 46.9703H67.0188C68.7035 46.8614 70.6101 47.7361 70.9899 49.5117C71.2312 50.6885 71.2117 51.8911 71.1922 53.0915C71.1828 53.6679 71.1734 54.2437 71.1929 54.816C71.1887 57.3136 71.1903 59.8107 71.192 62.3075C71.1947 66.3928 71.1975 70.4772 71.1741 74.5616C71.1779 76.1795 70.1062 77.8087 68.4365 78.0752C67.1982 78.2564 65.9451 78.239 64.6924 78.2217C64.0506 78.2128 63.4089 78.2038 62.7694 78.2216H46.6218L48.7088 71.9714H64.9355V69.8879C63.3321 69.8868 61.7288 69.8882 60.1254 69.8897C56.6897 69.8928 53.2539 69.896 49.8182 69.8729C48.1974 69.8767 46.5654 68.8031 46.2984 67.1363C46.1138 65.8992 46.131 64.644 46.1482 63.3892C46.1569 62.7516 46.1657 62.1141 46.1479 61.4792C46.1564 60.0941 46.1522 58.7079 46.1479 57.3215C46.1409 55.0105 46.1338 52.6988 46.1855 50.3901C46.2382 48.7609 47.4604 47.2593 49.1225 47.0716ZM64.9317 53.2205H52.4092V63.6377H64.9317V53.2205Z" fill="white"/>
</svg>
