<svg width="120" height="120" viewBox="0 0 120 120" fill="none" xmlns="http://www.w3.org/2000/svg">
<circle cx="60" cy="60" r="60" fill="#1AE3AE"/>
<path fill-rule="evenodd" clip-rule="evenodd" d="M78.8487 52.6672C81.2104 55.9775 82.4924 59.9973 82.4588 64.0508C82.4588 68.0367 81.1768 72.0226 78.8487 75.2652L83.7744 79.0145C86.9118 74.6908 88.6325 69.4215 88.6325 64.0844C88.6664 58.4434 86.8107 52.9038 83.4033 48.445L80.5785 50.9914L78.8487 52.6672Z" fill="#0E0333"/>
<path fill-rule="evenodd" clip-rule="evenodd" d="M88.1602 82.3356L71.5953 69.7363C72.7762 68.1823 73.4508 66.2909 73.552 64.3315C73.6195 62.3725 73.1136 60.4472 72.0676 58.792L79.9959 51.631L88.2953 43.8619C88.8352 43.3551 88.8688 42.4769 88.329 41.9364L87.1821 40.7879C81.2779 34.8091 73.316 31.3299 64.949 31.0597L64.983 26.4996C65.0166 26.1956 64.983 25.8916 64.9154 25.5876C64.8142 25.2836 64.6791 25.0133 64.4768 24.7769C64.2744 24.5405 64.0381 24.3716 63.7346 24.2364C63.4647 24.1013 63.1611 24.0338 62.8573 24.0338C62.5537 24.0338 62.2502 24.1013 61.9803 24.2364C61.7104 24.3716 61.4405 24.5405 61.2381 24.7769C61.0354 25.0133 60.8667 25.2836 60.7995 25.5538C60.6983 25.8578 60.6644 26.1618 60.7319 26.4658L60.6983 31.1611C58.7077 31.3637 56.7172 31.7353 54.7942 32.3095L54.8278 26.4658C54.8617 26.1618 54.8278 25.8578 54.7605 25.5538C54.6594 25.2498 54.5242 24.9796 54.3219 24.7431C54.1195 24.5067 53.8832 24.3378 53.5797 24.2027C53.3098 24.0676 53.0059 24 52.7024 24C52.3989 24 52.095 24.0676 51.8254 24.2027C51.5555 24.3378 51.2856 24.5067 51.0829 24.7431C50.8806 24.9796 50.7118 25.2498 50.6446 25.52C50.5431 25.824 50.5095 26.128 50.5771 26.4321L50.4759 33.8971C43.6609 36.9372 38.0605 42.2404 34.653 48.8949C31.2456 55.5493 30.166 63.1833 31.6504 70.5131C33.1348 77.8432 37.0821 84.4637 42.8174 89.2603C48.5529 94.0566 55.7726 96.7592 63.2284 96.8943L87.3505 96.9955C88.093 96.9955 88.7001 96.3874 88.7001 95.6442V83.4502C88.7001 83.0112 88.4977 82.6059 88.1602 82.3356ZM63.701 91.0166C57.7632 90.983 51.9938 88.9901 47.3045 85.3756C42.615 81.7275 39.2413 76.627 37.7231 70.8845C36.205 65.1423 36.6435 59.0283 38.9039 53.5564C41.1981 48.0841 45.2128 43.4902 50.3747 40.5177L50.3408 49.4014C50.3071 49.7056 50.3408 50.0095 50.4083 50.3133C50.5095 50.6175 50.6446 50.8878 50.847 51.1241C51.0493 51.3607 51.2856 51.5295 51.5891 51.6646C51.8591 51.7997 52.1626 51.8673 52.4664 51.8673C52.77 51.8673 53.0735 51.7997 53.3434 51.6646C53.6133 51.5295 53.8832 51.3607 54.0856 51.1241C54.2879 50.8878 54.4567 50.6175 54.5242 50.3473C54.6254 50.0434 54.6594 49.7392 54.5918 49.4354L54.6254 38.5248C57.5945 37.4439 60.7319 36.9372 63.9033 36.9372C69.7399 36.9372 75.4077 38.8626 80.0295 42.3755C80.367 42.6458 80.4006 43.1187 80.0971 43.4227L67.4794 55.0088C66.3322 54.5359 65.0841 54.2656 63.8358 54.2656C62.4526 54.2656 61.0694 54.5359 59.7874 55.11C58.5054 55.6845 57.3918 56.5288 56.4809 57.5759C55.5703 58.6229 54.8953 59.8727 54.4906 61.1904C54.0856 62.5413 53.9844 63.9262 54.1868 65.311C54.3895 66.6963 54.8617 68.0136 55.6039 69.1957C56.3461 70.3779 57.3582 71.3574 58.5054 72.1346C59.6862 72.8774 61.0018 73.3843 62.385 73.587C63.7682 73.7897 65.1853 73.6882 66.5009 73.2828L82.6275 85.5447C82.7962 85.6798 82.8974 85.8822 82.8974 86.0849L82.8635 90.4086C82.8635 90.7803 82.5599 91.0842 82.1889 91.0842L63.701 91.0166ZM67.6482 63.9937C67.6482 64.7369 67.4118 65.4801 67.0071 66.1218C66.5685 66.7638 65.9951 67.2364 65.2865 67.5406C64.5779 67.8445 63.8021 67.912 63.0936 67.7433C62.385 67.5742 61.6764 67.2364 61.1366 66.6962C60.5971 66.1557 60.2257 65.4801 60.0909 64.7369C59.9561 63.9937 60.0233 63.2169 60.3272 62.5413C60.6307 61.832 61.103 61.2579 61.744 60.8186C62.385 60.4132 63.1272 60.1769 63.8694 60.1769C64.8815 60.1769 65.8599 60.5823 66.5685 61.3255C67.2431 62.0008 67.6482 62.9467 67.6482 63.9937Z" fill="#0E0333"/>
</svg>
