<svg width="120" height="120" viewBox="0 0 120 120" fill="none" xmlns="http://www.w3.org/2000/svg">
<circle cx="60" cy="60" r="60" fill="#EDF0F4"/>
<path fill-rule="evenodd" clip-rule="evenodd" d="M69.3783 34.8304C69.3783 36.7012 69.1657 38.5295 68.8517 40.1027C68.6915 40.9007 68.4953 41.7053 68.2892 42.4379L67.5893 44.6358C67.0496 46.2645 66.0848 48.0111 65.0742 49.3651C64.25 50.4673 63.4225 51.5597 62.4086 52.4984L60.8158 53.8033C59.5632 54.742 58.2255 55.6218 56.7995 56.2825C55.9295 56.6848 55.0366 56.9235 54.0947 57.231C52.4725 57.7608 50.8993 57.9341 49.2182 58.1533C47.4095 58.3888 45.3752 58.3037 43.5208 58.3135L40.2076 58.1467C38.3499 57.9407 38.3892 58.1009 36.2175 57.558C35.076 57.2735 33.8037 56.8483 32.8356 56.361C32.5544 56.2203 32.3908 56.1189 32.1226 55.975C31.6647 55.7265 30.6672 54.8663 30.4056 54.7878C30.2584 54.742 30.0164 54.6864 30.0164 54.8369C30.0164 56.1876 31.8577 59.1901 32.901 60.3577L34.435 61.9537C34.5625 62.078 34.592 62.0878 34.7195 62.1892L36.1782 63.3405C37.0024 63.9586 37.9116 64.4263 38.7947 64.9562C39.0269 65.0935 39.2395 65.1851 39.4848 65.3094L39.995 65.5547C42.6737 66.791 45.2477 67.5956 48.1487 68.1843C48.6818 68.2922 49.421 68.4721 49.9606 68.5179C49.9835 69.5677 49.8461 70.6013 49.6695 71.6479C49.421 73.1524 49.0187 74.4443 48.6 75.8572C48.0506 77.7051 46.6573 80.2398 45.5028 81.6887C44.9402 82.3919 44.43 82.9315 43.7366 83.517C43.5698 83.6576 43.4259 83.7688 43.2493 83.8996C41.1169 85.4957 40.3646 85.7377 37.6663 85.7377C36.3058 85.7377 34.8732 85.4434 33.5813 85.0672C33.0057 84.9004 32.4268 84.5963 31.9591 84.315C31.6059 84.1024 30.8013 83.4941 30.4775 83.4188L30 83.8637C30.0981 84.786 31.0401 86.7189 31.5012 87.5496C33.7449 91.5823 38.1896 92.4 42.5919 92.4C42.8732 92.4 43.1708 92.4229 43.4455 92.3836C44.1912 92.2822 45.0972 92.2855 45.8494 92.1776C46.932 92.0206 47.802 91.88 48.7832 91.6347C51.5174 90.9478 53.7153 89.7573 56.1192 88.5341L57.2345 87.9094C57.6204 87.6805 57.9606 87.5071 58.3432 87.2782L60.5313 85.9896C60.9172 85.7573 61.241 85.5644 61.6171 85.3387L66.4642 82.3003C66.6539 82.1793 66.7945 82.0713 66.9842 81.9536L72.3415 78.5554C73.6007 77.7607 74.9449 77.028 76.3153 76.4393C76.5475 76.3412 76.6947 76.2758 76.9269 76.1842C78.3104 75.6348 79.4846 75.1245 81.1428 75.1245C83.4911 75.1245 84.7895 75.8997 85.931 77.7574C86.6407 78.9152 87.0397 80.544 87.3308 81.9209C87.5074 82.7549 87.4322 82.6568 88.0405 83.0656L88.397 82.3199C88.4886 82.0452 88.6063 81.7672 88.7012 81.463C88.8876 80.8678 89.0609 80.3445 89.2343 79.7361C90.0585 76.8645 90.258 73.5089 89.0446 70.6994C88.6096 69.6888 88.0111 68.7501 87.1738 68.0502L87.0789 67.9717C87.0332 67.9324 87.0266 67.9259 86.9874 67.8899C86.137 67.1148 85.1198 66.5817 83.8934 66.1728C83.7004 66.1074 83.6448 66.1074 83.4322 66.0551C79.3276 65.0379 75.4551 65.6986 71.5795 67.2391C71.1935 67.3928 69.5255 68.145 69.2606 68.1679C69.3064 67.9946 69.7512 67.2293 69.8755 67.0428C70.1175 66.6765 70.3235 66.3266 70.5329 65.9635C71.4584 64.3544 72.1093 62.8564 72.7732 61.1295C73.1101 60.2465 73.3848 59.4255 73.689 58.5098C74.2777 56.7404 74.7814 54.8794 75.0921 52.8385C75.9425 47.2654 76.1714 39.1444 73.1363 34.1469C72.348 32.8484 71.6743 32.0733 70.7258 30.9907C70.402 30.6212 69.9932 30.3301 69.6531 29.9736C69.4895 29.8002 69.5026 29.7348 69.2017 29.7283C69.0742 30.2712 69.0382 30.2908 69.1199 30.8534C69.3096 32.1943 69.3783 33.4797 69.3783 34.8304Z" fill="#367EC7"/>
<path fill-rule="evenodd" clip-rule="evenodd" d="M46.5952 32.855C46.4251 32.6915 46.1733 32.2434 46.0686 31.9883C45.8953 31.5664 46.3139 31.4945 46.6704 31.308C47.2558 31.0006 47.9165 30.7128 48.5903 30.5002C51.8871 29.4699 55.6352 30.1731 58.2255 32.3023C59.089 33.012 59.5567 33.2214 59.1642 33.7152C58.3727 34.7062 58.533 34.402 57.3817 33.4372C57.0416 33.1527 56.6164 32.8518 56.1945 32.5967C53.8952 31.2066 50.4087 31.0726 47.9492 32.2402C47.6287 32.3906 46.847 32.8452 46.5952 32.855ZM38.9419 40.1649C38.9419 42.8828 40.0245 46.0651 41.6925 48.1975C41.9444 48.5213 42.1668 48.7339 42.4121 49.0414C42.991 49.7576 43.1316 49.9571 42.049 50.8075L39.3082 52.6489C38.762 52.9727 37.3949 53.7641 36.9567 54.1239C36.7833 54.2678 36.6459 54.3365 36.623 54.6014C37.2837 54.9514 38.5822 54.8336 39.4652 54.8336C40.8912 54.8336 42.121 54.778 43.5241 54.778L47.4652 54.5458C48.551 54.4935 50.1275 54.3038 51.1577 54.1239C53.5289 53.7085 56.1029 53.0152 58.1699 51.8018C58.9647 51.3373 60.201 50.4804 60.8191 49.8132C60.9238 49.702 60.9663 49.6497 61.071 49.545C61.2443 49.3717 61.4373 49.2049 61.591 49.0217C62.0685 48.4527 62.5297 47.8672 62.9189 47.2164C64.9696 43.792 65.6041 40.4363 64.5509 36.4724C64.1813 35.0791 63.3637 33.5026 62.5035 32.3154L60.5215 30.1241C60.0047 29.6629 58.6474 28.7733 58.0129 28.4561C55.053 26.9777 52.1847 26.618 48.9141 27.4095C47.6876 27.7071 46.5167 28.1813 45.4374 28.8027C44.2828 29.4667 42.7097 30.7226 41.9215 31.779C40.0866 34.2385 38.9419 37.0185 38.9419 40.1649Z" fill="#F72222"/>
<path fill-rule="evenodd" clip-rule="evenodd" d="M46.595 32.8551C46.8468 32.8452 47.6285 32.3906 47.949 32.2369C50.4052 31.0693 53.8917 31.2034 56.1942 32.5934C56.6194 32.8485 57.0413 33.1494 57.3815 33.434C58.5327 34.3988 58.3725 34.703 59.164 33.712C59.5564 33.2214 59.0887 33.0088 58.2253 32.299C55.6317 30.1731 51.8836 29.47 48.5868 30.5002C47.913 30.7095 47.2523 31.0006 46.6669 31.3081C46.3137 31.4945 45.8918 31.5632 46.0651 31.9883C46.173 32.2434 46.4249 32.6915 46.595 32.8551Z" fill="white"/>
</svg>
