<svg width="120" height="120" viewBox="0 0 120 120" fill="none" xmlns="http://www.w3.org/2000/svg">
<circle cx="60" cy="60" r="60" fill="#00A6C4"/>
<path d="M70.5578 52.7873L69.559 53.786C70.3913 55.0663 70.5761 56.6624 70.0584 58.0989C69.1379 60.6516 66.3277 61.9806 63.7706 61.0726C63.4185 60.9476 63.0831 60.7799 62.7718 60.5732L59.5712 63.7738L56.7792 60.9591C55.4462 61.8474 53.7733 62.0575 52.262 61.5266C51.0017 61.0778 49.9721 60.1453 49.4013 58.9354C48.8304 57.7255 48.7653 56.338 49.2203 55.0799C49.3587 54.6854 49.5496 54.3113 49.7877 53.9676L48.5847 52.7646L48.3577 53.1504C45.8799 57.2035 45.7821 62.2783 48.1019 66.4239C50.4217 70.5694 54.798 73.1405 59.5485 73.1487H59.5712C64.3172 73.1513 68.6956 70.5936 71.0244 66.4582C73.3532 62.3228 73.2703 57.2529 70.8075 53.1958L70.5578 52.7873Z" fill="white"/>
<path d="M51.2635 55.4431C50.9099 55.9146 50.7188 56.4881 50.7188 57.0775C50.7212 58.5558 51.919 59.7535 53.3973 59.756C53.9909 59.759 54.5677 59.5588 55.0317 59.1885L51.2635 55.4431Z" fill="white"/>
<path d="M64.4062 58.9615C64.8471 59.2633 65.3702 59.4219 65.9044 59.4155C67.3827 59.413 68.5805 58.2152 68.583 56.737C68.586 56.2032 68.4278 55.6811 68.129 55.2388L64.4062 58.9615Z" fill="white"/>
<path fill-rule="evenodd" clip-rule="evenodd" d="M48.7666 50.8805L59.617 61.7763L70.3311 51.1075L69.9225 50.6535C67.256 47.6964 63.4626 46.0058 59.4808 46.0001H59.4581C55.5721 45.9886 51.8559 47.5918 49.1979 50.4265L48.7666 50.8805ZM59.617 59.983L50.5372 50.8805C52.9285 48.5493 56.1412 47.2528 59.4808 47.2713H59.5035C62.9126 47.283 66.1779 48.6462 68.5833 51.0621L59.617 59.983Z" fill="white"/>
<path d="M47.6541 68.7904L46.3829 68.6996C40.9804 68.3591 33.535 67.0198 28.7227 62.6842C25.7491 60.0284 25.1816 57.5088 25.1589 57.3953L25 56.6235H44.6578L44.5443 57.3499C44.4537 58.0119 44.4082 58.6792 44.4081 59.3474C44.3976 62.3277 45.2747 65.2436 46.9277 67.7235L47.6541 68.7904Z" fill="white"/>
<path d="M71.4434 68.7904L72.147 67.7235C73.7966 65.2589 74.6738 62.3585 74.6667 59.3928C74.6673 58.7095 74.6218 58.027 74.5305 57.3499L74.4397 56.6235H94.0974L93.9385 57.3953C93.9158 57.5088 93.3484 60.0284 90.3974 62.6842C85.5851 67.0198 78.117 68.3591 72.7145 68.6996L71.4434 68.7904Z" fill="white"/>
</svg>
