<svg width="120" height="120" viewBox="0 0 120 120" fill="none" xmlns="http://www.w3.org/2000/svg">
<circle cx="60" cy="60" r="60" fill="#EDF0F4"/>
<circle cx="60" cy="60" r="45" fill="#377E96"/>
<path fill-rule="evenodd" clip-rule="evenodd" d="M46.3116 17.1206C50.7472 15.7528 55.3585 15.0385 60 15C55.3551 14.9957 50.7375 15.7111 46.3116 17.1206ZM81.4453 99.5696L81.4609 99.5581C83.3938 98.5091 85.2345 97.3233 86.9803 96.0147C86.761 96.175 86.5416 96.3297 86.3222 96.4844C85.3913 93.0729 83.2678 90.7386 80.2697 89.1552C77.941 87.9206 75.39 87.465 72.8053 87.3103C70.5136 87.1728 68.2194 87.0824 65.925 86.992C63.9479 86.9141 61.9705 86.8361 59.9944 86.7281C57.9017 86.613 55.8116 86.4398 53.7215 86.2666L53.7213 86.2666L53.7182 86.2663L53.715 86.2661L53.7119 86.2658L53.7087 86.2655L53.7056 86.2653L53.7025 86.265L53.6994 86.2648C52.7828 86.1888 51.8663 86.1128 50.9494 86.0419L50.8622 86.0306C47.791 85.3838 46.8544 83.5219 48.466 80.8445C49.1811 79.6561 50.202 78.6395 51.2017 77.644L51.2023 77.6435C51.2954 77.5507 51.3884 77.4581 51.481 77.3655C51.7201 77.1265 52.4119 77.2165 52.8591 77.3233C57.9075 78.5299 62.9532 78.5918 67.8694 76.8537C73.891 74.7275 78.031 70.6382 79.5413 64.3103C80.565 60.0213 80.0278 55.8167 78.0028 51.8512L77.5782 51.0075H81.3188C81.5942 51.0075 81.8697 51.0093 82.1451 51.011H82.1454C82.9105 51.016 83.6756 51.0209 84.4406 50.9878C84.7163 50.9766 85.1494 50.8162 85.2225 50.6194C85.945 48.6621 86.6279 46.6889 87.311 44.7149L87.3111 44.7146L87.3112 44.7144L87.3117 44.713C87.442 44.3362 87.5724 43.9594 87.7031 43.5827L87.5063 43.3099C87.3966 43.3559 87.273 43.3921 87.1495 43.4284C86.8803 43.5073 86.6115 43.5862 86.4881 43.7655C85.5403 45.1239 84.1763 45.6329 82.6406 45.6611C80.5065 45.706 78.3709 45.6961 76.2349 45.6862H76.2347L76.2333 45.6862C75.4254 45.6825 74.6174 45.6787 73.8094 45.6779C73.7809 45.6779 73.7523 45.6553 73.7151 45.6258C73.6937 45.6088 73.6694 45.5896 73.6407 45.5711C74.1928 44.9786 74.7448 44.387 75.2963 43.7959L75.2986 43.7935L75.3027 43.7892L75.3062 43.7854C76.6756 42.3177 78.0424 40.8529 79.4035 39.3837C81.4931 37.1282 83.4281 34.7601 84.7556 31.9618C86.3194 28.6543 86.6372 25.406 84.1538 22.3433C84.1367 22.3227 84.1352 22.2908 84.1316 22.2139V22.2138C84.1292 22.1643 84.126 22.096 84.1172 22.0001C80.424 19.6512 76.4062 17.8565 72.1922 16.6734C74.4361 17.3139 76.6285 18.1224 78.751 19.0921C78.9671 19.1912 79.1801 19.2971 79.3894 19.4099C79.4188 19.4227 79.4385 19.4547 79.4644 19.4965C79.4781 19.5188 79.4936 19.5438 79.5132 19.5702C79.1581 19.5702 78.8037 19.5577 78.4509 19.5453C77.6802 19.5182 76.9175 19.4913 76.1747 19.5955C72.8447 20.0624 70.8591 22.1548 69.7903 25.2204C69.5794 25.8279 69.4557 26.4803 69.36 27.1216C69.3352 27.28 69.3998 27.4514 69.465 27.6244L69.465 27.6244L69.465 27.6244L69.465 27.6245L69.465 27.6245L69.465 27.6245L69.4651 27.6246L69.4651 27.6246C69.4959 27.7064 69.5268 27.7885 69.5485 27.8697C69.6394 27.8251 69.7412 27.7881 69.8426 27.7513C70.061 27.6719 70.2781 27.593 70.3838 27.4394C70.5865 27.1442 70.749 26.8221 70.9112 26.5006C71.0844 26.1575 71.2571 25.8151 71.4778 25.5072C73.6519 22.467 77.9156 22.107 80.3935 24.776C82.081 26.5928 82.306 28.7809 81.7772 31.1096C81.0994 34.0964 79.4625 36.5713 77.5275 38.8494C76.1901 40.4258 74.7594 41.9193 73.3298 43.4117L73.3291 43.4124L73.3285 43.4131L73.3278 43.4137L73.3272 43.4144L73.3266 43.4151L73.3259 43.4157L73.3253 43.4164C73.0909 43.6611 72.8565 43.9058 72.6225 44.1508C72.4425 44.3392 71.9475 44.4714 71.7507 44.3589C68.2379 42.3537 64.4663 41.4621 60.4304 41.3693C54.9769 41.2456 50.0072 42.5027 45.7885 46.0829C41.4601 49.7588 39.0132 54.4133 39.0807 60.1619C39.1566 66.8752 42.0844 72.0191 47.9569 75.4053L48.4913 75.7146C48.5023 75.7225 48.5098 75.7373 48.5264 75.7704L48.5265 75.7704C48.5397 75.7966 48.5587 75.8343 48.5897 75.889C48.5146 75.9581 48.4361 76.0283 48.3559 76.1L48.3557 76.1001L48.3545 76.1012L48.353 76.1025L48.3519 76.1035L48.3517 76.1037L48.3513 76.104C48.2109 76.2295 48.0654 76.3596 47.9232 76.4965C47.3878 77.0187 46.845 77.5343 46.3021 78.05L46.302 78.0501L46.3018 78.0503C44.9909 79.2955 43.6797 80.5411 42.4726 81.8795C41.0298 83.4826 40.0482 85.3922 39.9076 87.6337C39.8148 89.0933 40.2591 90.3674 41.3223 91.3292C42.1087 92.0399 42.9487 92.6929 43.8147 93.3661L43.8154 93.3667L43.8173 93.3681L43.8181 93.3688L43.8201 93.3703C44.2066 93.6708 44.5982 93.9753 44.9926 94.2907C44.653 94.6475 44.3138 95.0052 43.9744 95.363L43.9737 95.3636L43.9734 95.364C42.6011 96.8106 41.226 98.2602 39.8148 99.6737C39.6713 99.8171 39.2888 99.8621 38.9963 99.8059C40.5985 100.652 42.2506 101.401 43.9435 102.047L43.6482 101.879C43.7678 101.639 43.8798 101.392 43.9922 101.144L43.9922 101.144C44.242 100.594 44.4937 100.039 44.8351 99.5443C45.8476 98.0819 46.936 96.6644 48.061 95.2863C48.2747 95.0191 48.8119 94.8785 49.186 94.9066C51.1058 95.0323 53.0239 95.1744 54.9416 95.3164L54.9422 95.3164L54.9429 95.3164L54.9435 95.3165L54.9442 95.3165L54.9448 95.3166L54.9454 95.3166L54.9461 95.3167C57.3168 95.4922 59.687 95.6677 62.0588 95.8122C63.7579 95.9152 65.4586 95.9852 67.1593 96.0553L67.1597 96.0553L67.16 96.0554L67.1603 96.0554L67.1606 96.0554L67.1609 96.0554L67.1613 96.0555L67.1616 96.0555L67.162 96.0555L67.1624 96.0555L67.1629 96.0555L67.1633 96.0556L67.1638 96.0556L67.1642 96.0556L67.1646 96.0556C69.3189 96.1444 71.4731 96.2332 73.6238 96.3888C75.3563 96.5097 77.0832 96.8838 78.7819 97.2887C79.9716 97.5728 81.0291 98.2 81.6816 99.3953L81.4609 99.5581L81.4397 99.5696H81.4453ZM67.8047 104.323C65.0749 104.8 62.3071 105.026 59.536 104.998C62.3048 104.97 65.0681 104.745 67.8047 104.323ZM105 59.9988V60.1394V60.1422C104.979 56.3058 104.504 52.4852 103.585 48.7604C104.508 52.3518 105 56.1177 105 59.9988ZM94.5375 31.1574C94.4949 31.1064 94.4521 31.0554 94.4092 31.0046C94.453 31.0554 94.4967 31.1064 94.5403 31.1574H94.5375ZM85.5685 22.9676C88.9328 25.4003 91.8868 28.0775 94.4092 31.0046C91.8307 27.9468 88.8579 25.2443 85.5685 22.9676ZM32.0438 95.2582C34.0277 96.8328 36.1408 98.2374 38.3607 99.4571C37.8382 99.1194 37.3117 98.7857 36.785 98.452C35.1714 97.4293 33.5557 96.4053 32.0438 95.2582ZM15.0001 60.086C15.0056 57.6887 15.1908 55.2952 15.5542 52.9256C15.1805 55.293 14.9953 57.6864 15.0001 60.0832V60.086ZM29.1357 27.2538C26.9529 29.3467 24.9665 31.6353 23.2013 34.0908V34.0879C24.946 31.6173 26.9341 29.3277 29.1357 27.2538ZM69.8607 61.8016L70.0294 61.8438H70.0322C69.9278 62.5088 69.8412 63.1783 69.7546 63.8475C69.5636 65.3234 69.3728 66.7982 68.9916 68.2223C68.0269 71.8476 65.6588 74.2859 61.89 74.9103C57.9216 75.574 54.7294 74.1059 52.4401 70.7451C50.6597 68.1267 49.7766 65.1821 49.4026 62.0884C49.0144 58.8373 48.9526 55.5721 49.7176 52.349C50.5219 48.9432 52.3079 46.2714 55.6744 44.972C59.775 43.3858 64.05 44.9833 66.6094 48.9432C68.3391 51.615 69.2307 54.5793 69.5625 57.7179C69.661 58.6308 69.7174 59.5488 69.7738 60.4667C69.8012 60.9119 69.8285 61.357 69.8607 61.8016Z" fill="white"/>
</svg>
