<svg width="122" height="120" viewBox="0 0 122 120" fill="none" xmlns="http://www.w3.org/2000/svg">
<circle cx="62" cy="60" r="60" fill="#6747ED"/>
<path fill-rule="evenodd" clip-rule="evenodd" d="M58.9465 67.948C50.0913 67.948 42.9822 60.8322 42.9822 51.9688C42.9822 43.1053 50.0913 35.9896 58.9465 35.9896C67.8018 35.9896 74.9109 43.1053 74.9109 51.9688C74.9109 60.8322 67.8018 67.948 58.9465 67.948ZM58.9465 28C72.167 28 82.8931 38.736 82.8931 51.9688C82.8931 65.2016 72.167 75.9376 58.9465 75.9376C45.7261 75.9376 35 65.2016 35 51.9688C35 38.736 45.7261 28 58.9465 28ZM81.7706 77.186C83.392 78.8088 83.392 81.3056 81.7706 82.8036L65.8062 98.7828C64.1849 100.406 61.6904 100.406 60.1938 98.7828C58.5724 97.16 58.5724 94.6632 60.1938 93.1652L76.1581 77.186C77.6548 75.5631 80.2739 75.5631 81.7706 77.186ZM91 31.9948C91 34.2419 89.2539 35.9896 87.0089 35.9896C84.7639 35.9896 83.0178 34.2419 83.0178 31.9948C83.0178 29.7477 84.7639 28 87.0089 28C89.1292 28 91 29.7477 91 31.9948Z" fill="white"/>
</svg>
