<svg width="120" height="120" viewBox="0 0 120 120" fill="none" xmlns="http://www.w3.org/2000/svg">
<circle cx="60" cy="60" r="60" fill="#EDF0F4"/>
<path fill-rule="evenodd" clip-rule="evenodd" d="M68.0281 44.6133C68.0281 33.1461 62.5004 23.2667 58.2664 20.0324C58.2664 20.0324 57.9723 19.856 57.9723 20.3264C57.6195 42.4962 46.3876 48.5533 40.1542 56.6097C25.8643 75.3099 39.1545 95.7744 52.6798 99.5379C60.2658 101.655 50.9156 95.7744 49.7395 83.4251C48.3282 68.4296 68.0281 57.0213 68.0281 44.6133Z" fill="#282E5B"/>
<path fill-rule="evenodd" clip-rule="evenodd" d="M75.4377 52.1992C75.3789 52.1404 75.2613 52.1404 75.1437 52.1992L75.0849 52.258C74.8497 55.0219 71.7918 61.0201 67.9694 66.4891C54.9733 85.0717 62.3828 94.0102 66.558 98.8323C68.9691 101.655 66.558 98.8323 72.615 95.9508C73.0855 95.7156 84.3762 89.7174 85.6111 76.1332C86.8461 62.9019 78.4368 54.6103 75.4377 52.1992Z" fill="#059BDC"/>
</svg>
