<svg width="120" height="120" viewBox="0 0 120 120" fill="none" xmlns="http://www.w3.org/2000/svg">
<path fill-rule="evenodd" clip-rule="evenodd" d="M60 120C27 120 0 93.0006 0 59.7012C0.3 26.7019 27 -0.297518 60.3 0.00247602C93.3 0.30247 120 27.0019 120 60.6012C119.7 93.3006 93 120 60 120Z" fill="#EDF0F4"/>
<path fill-rule="evenodd" clip-rule="evenodd" d="M51.2766 21C51.183 21 50.8872 21 50.6587 21.4119C50.3629 21.9362 27.5237 62.915 23.1161 70.8351H33.2082L39.3346 59.3537C39.5818 58.8969 40.0573 58.6048 40.5779 58.601L40.5872 58.5991C40.6017 58.5961 40.6141 58.5935 40.6265 58.5935H77.6247L77.5207 58.4123C77.0132 57.528 76.3818 56.4275 75.6325 55.1109L75.5306 54.9324C74.5089 53.1416 73.3381 51.0896 72.7003 49.9844L47.8389 50.0181H47.8314H47.1948H47.1911H47.1873C47.075 50.0181 46.9664 50.0031 46.8615 49.9769C46.8466 49.9731 46.8325 49.9685 46.8185 49.9638C46.8044 49.9591 46.7904 49.9544 46.7754 49.9507C46.6968 49.9282 46.6181 49.8945 46.5432 49.857C46.5344 49.8517 46.5255 49.8489 46.517 49.8462C46.5076 49.8433 46.4987 49.8405 46.4908 49.8346L46.4459 49.8009C46.4047 49.7747 46.3635 49.7447 46.3223 49.7147L46.3135 49.7078L46.2904 49.69C46.2652 49.6707 46.2413 49.6525 46.2175 49.6286C46.1838 49.5949 46.1538 49.5612 46.1239 49.5276L46.1238 49.5275C46.0901 49.4938 46.0602 49.4564 46.034 49.4189C46.0096 49.3884 45.9901 49.3554 45.9716 49.324L45.9591 49.3028C45.9366 49.2654 45.9141 49.2279 45.8954 49.183C45.8767 49.1381 45.8617 49.0969 45.8467 49.0519L45.8467 49.0518L45.8467 49.0518C45.8317 49.0069 45.8168 48.962 45.8055 48.9171C45.7943 48.8722 45.7868 48.831 45.7831 48.786L45.7831 48.786C45.7756 48.7336 45.7681 48.6812 45.7681 48.6288L45.7665 48.6208L45.7664 48.6208C45.7633 48.6056 45.7606 48.5923 45.7606 48.5763C45.7606 48.5627 45.7626 48.5501 45.7646 48.538L45.7646 48.538C45.7664 48.5268 45.7681 48.516 45.7681 48.5052C45.7681 48.449 45.7756 48.3966 45.7831 48.3442L45.7831 48.3442C45.788 48.3142 45.7947 48.2876 45.8019 48.2588L45.8019 48.2587C45.8055 48.2443 45.8093 48.2293 45.813 48.2131C45.8242 48.1644 45.8392 48.1195 45.8542 48.0746L45.8542 48.0745C45.8729 48.0259 45.8917 47.9809 45.9141 47.936C45.9184 47.9261 45.9221 47.9168 45.9256 47.9078L45.9256 47.9077L45.9257 47.9077C45.9316 47.8928 45.9371 47.8788 45.9441 47.8648L60.9493 21H51.2766ZM82.7962 37.8813L87.6569 46.5167H97.8988C97.424 45.7373 96.7257 44.5868 95.9985 43.3886L95.988 43.3713L95.9853 43.3668L95.9646 43.3327L95.9378 43.2885C95.5315 42.6191 95.1179 41.9377 94.7307 41.3003C93.9099 39.9523 93.2139 38.8035 92.966 38.3943L92.9636 38.3902L92.8958 38.2783C92.761 38.0536 92.4651 37.8851 92.2142 37.8851L82.7962 37.8813ZM69.6147 99.2241C69.712 99.2241 70.0079 99.2241 70.2363 98.8159L97.7827 49.3927H87.6718L81.5492 60.7131C81.3956 60.9902 81.156 61.2074 80.8676 61.331C80.8517 61.3369 80.8346 61.344 80.8177 61.351L80.7953 61.3601L80.774 61.3684C80.7178 61.3909 80.6542 61.4096 80.5943 61.4246C80.5119 61.4433 80.4295 61.4545 80.3471 61.4583L80.3411 61.4585C80.3367 61.4589 80.3322 61.4595 80.3276 61.4603L80.3198 61.4618C80.3096 61.4637 80.2989 61.4658 80.2872 61.4658H80.276H80.2647H43.1168L48.1909 70.2472L73.6927 70.2135C73.9361 70.2135 74.1758 70.2772 74.3892 70.397C75.082 70.7827 75.3329 71.6627 74.9434 72.3555L59.9794 99.2203C60.611 99.2203 61.4354 99.2211 62.337 99.2219L62.3508 99.222H62.358H62.3674L62.3796 99.222C63.4658 99.223 64.6611 99.2241 65.765 99.2241H69.6147ZM57.4929 97.7936L57.1205 97.1812L57.106 97.1574C56.8576 96.7489 56.5781 96.2893 56.2833 95.8051C54.7368 93.2512 52.7558 89.982 52.5311 89.6225C52.4562 89.5027 52.4225 89.2069 52.5798 88.9223C52.7875 88.55 55.1365 84.3181 57.4012 80.2381L57.4041 80.2329L57.4153 80.2126C59.0643 77.2417 60.6662 74.3559 61.3612 73.1045L71.2511 73.0932L57.4929 97.7936ZM35.7134 72.2507L40.6303 80.9834C41.6826 79.0099 44.0942 74.475 45.637 71.5654L40.6677 62.9637L35.7134 72.2507ZM34.032 82.3428H28.677C28.4336 82.3428 28.1378 82.1705 28.003 81.9496L26.404 79.3133C25.696 78.1479 24.8671 76.7826 24.1475 75.5973L24.1437 75.591L23 73.7074H33.2381L38.0988 82.3428H34.032ZM63.4208 22.4642L64.3196 23.9434C65.8961 26.546 68.1242 30.2196 68.3602 30.6015C68.4351 30.7214 68.4688 31.0172 68.3115 31.3018L59.5338 47.1121L49.6476 47.1234L63.4208 22.4642ZM85.1778 47.9697L80.261 39.2332C79.7167 40.2252 78.8255 41.8565 77.9171 43.5194C76.8503 45.472 75.7598 47.4682 75.1794 48.5239C75.7448 49.505 76.7484 51.2613 78.1265 53.6729C78.2809 53.9437 78.4376 54.2185 78.5945 54.4935C79.1449 55.4589 79.6973 56.4278 80.1636 57.2379L85.1778 47.9697Z" fill="black"/>
</svg>
