<svg width="120" height="120" viewBox="0 0 120 120" fill="none" xmlns="http://www.w3.org/2000/svg">
<circle cx="60" cy="60" r="60" fill="white"/>
<path fill-rule="evenodd" clip-rule="evenodd" d="M60 0C93.1399 0 120 26.8601 120 60C120 93.1399 93.1399 120 60 120C26.8601 120 0 93.1399 0 60C0 26.8601 26.8601 0 60 0ZM88.6632 31.2124C85.1813 27.7306 79.4611 27.7306 75.9793 31.2124C73.9275 33.2642 72.9948 36.1865 73.4301 38.9845C73.5544 39.9171 73.4922 40.9119 73.057 41.7824C72.4974 42.9016 71.5648 43.7098 70.4456 44.1451C69.3264 44.5803 68.0207 44.5803 66.9016 44.0207C60.4352 41.0363 52.6632 42.4041 47.5648 47.5026C42.4663 52.5389 41.0984 60.3109 44.0829 66.8394C44.6425 68.0207 44.6425 69.3264 44.2073 70.4456C43.8342 71.5026 43.0259 72.4352 41.8446 72.9948C41.2228 73.3057 40.601 73.4301 39.9171 73.4301C39.6062 73.4301 39.2953 73.3679 38.9845 73.3057H38.8601C36.0622 72.9326 33.3264 73.8031 31.2746 75.8549C29.5959 77.5337 28.6632 79.8342 28.6632 82.1969C28.6632 84.6218 29.5959 86.8601 31.2746 88.5389C34.7565 92.0207 40.4767 92.0207 43.9585 88.5389C45.9482 86.487 46.943 83.5648 46.4456 80.7047V80.2694C46.3834 79.4611 46.5699 78.715 46.8808 77.9689C47.3782 76.8497 48.3109 76.0415 49.4301 75.6062C50.5492 75.171 51.7927 75.171 52.9741 75.7306C59.4404 78.715 67.2124 77.3471 72.3109 72.2487C77.4093 67.2124 78.7772 59.3782 75.7927 52.9119C75.2953 51.7927 75.2332 50.5492 75.6684 49.4301C76.1036 48.3109 76.9119 47.3782 78.0933 46.8187C78.9637 46.4456 79.8342 46.3212 80.6425 46.4456H81.0777C83.8756 46.8187 86.6114 45.9482 88.6632 43.8964C92.1451 40.4145 92.1451 34.6943 88.6632 31.2124ZM67.0881 52.9741C70.943 56.8912 70.943 63.171 67.0881 67.0259C63.2332 70.8808 56.9534 70.8808 53.0363 67.0259C49.1813 63.1088 49.1813 56.829 53.0363 52.9741C56.9534 49.1192 63.2332 49.1192 67.0881 52.9741ZM91.9585 28.0415C97.2435 33.3886 97.2435 41.9689 91.9585 47.2539C89.9689 49.1813 87.544 50.4249 85.057 51.0466C88.601 60.6218 86.3005 71.5648 78.9637 78.9016C73.9275 83.9378 67.1503 86.6114 60.2487 86.6114C57.1399 86.6114 54.0311 86.0518 51.0466 84.9326C50.5492 87.4819 49.3057 89.9689 47.3161 91.9585C41.9689 97.2435 33.3886 97.2435 28.1036 91.9585C22.8187 86.6114 22.8187 78.0311 28.1036 72.7461C30.0933 70.7565 32.5181 69.513 35.0674 69.0155C31.399 59.3782 33.6995 48.3109 41.0363 40.9741C48.3731 33.6373 59.3782 31.3368 69.0155 34.943C69.5751 32.456 70.7565 30.0311 72.7461 28.0415C78.0933 22.7565 86.6736 22.7565 91.9585 28.0415Z" fill="#38A2FF"/>
</svg>
