<svg width="120" height="120" viewBox="0 0 120 120" fill="none" xmlns="http://www.w3.org/2000/svg">
<circle cx="60" cy="60" r="60" fill="#007F88"/>
<path d="M22.0935 31.0635C20.8821 31.1588 19.9497 31.3494 20.0021 31.4923C20.4853 32.6425 23.473 39.4142 23.5139 39.455C23.5547 39.4959 24.2489 39.5435 25.0656 39.5775C28.6863 39.7137 31.5515 40.4215 34.6481 41.9528C36.8736 43.0485 38.5206 44.2259 40.2356 45.9341C42.7606 48.4523 44.4076 51.2494 45.374 54.6727C45.4829 55.0675 45.5714 55.4214 45.5714 55.4758C45.5714 55.5507 45.0201 55.5643 42.5836 55.5643C40.9366 55.5643 39.521 55.5915 39.4326 55.6255C39.3032 55.6732 38.963 56.4082 37.5474 59.6545C36.5946 61.8392 35.8051 63.6767 35.7915 63.738C35.7438 63.9149 36.3155 64.0715 37.7447 64.2825C38.0374 64.3301 39.7933 64.3777 41.869 64.405L45.4829 64.4458L45.2651 65.1944C42.8286 73.4566 35.2674 79.2347 26.0048 79.9289C25.4807 79.9629 24.7934 79.997 24.4735 79.997H23.895L22.1119 84.1008C20.5806 87.6058 20.3424 88.2047 20.4445 88.2387C20.9073 88.4089 21.9417 88.4701 24.3374 88.4701C27.4 88.4701 28.8904 88.334 31.4154 87.8168C41.7261 85.7002 50.2945 79.1394 54.1738 70.3736C54.9225 68.6858 55.8004 65.909 55.9569 64.7453L56.0046 64.4118H63.7427L63.77 64.5615C64.328 67.2974 64.9337 69.1418 65.9818 71.3196C69.1329 77.8804 75.0403 83.2365 82.3565 86.1766C86.7992 87.9559 91.5581 88.8104 96.3423 88.6879C98.3432 88.6267 99.9358 88.4021 99.8541 88.1911C99.786 88.0142 96.3968 80.2352 96.3764 80.2147C96.3559 80.1943 95.655 80.1671 94.8042 80.1331C92.4154 80.0378 90.6187 79.7588 88.5906 79.1803C85.4667 78.2819 82.3769 76.6553 80.0085 74.6681C77.0276 72.1567 74.8702 69.0329 73.7268 65.5688C73.5975 65.174 73.4682 64.7589 73.4478 64.6364L73.4001 64.4186L76.313 64.3982C77.9123 64.3845 79.2735 64.3505 79.3279 64.3233C79.4164 64.2757 82.901 56.3742 82.901 56.2176C82.901 56.1155 82.023 55.8569 81.2267 55.7276C80.6414 55.6323 79.8996 55.6051 76.9391 55.5847L73.3525 55.5507L73.4886 55.0675C75.4759 48.0303 81.5738 42.4428 89.4345 40.4623C91.17 40.0267 92.8578 39.8021 95.0492 39.7137C96.3559 39.6592 96.5193 39.6388 96.601 39.5299C96.6554 39.455 97.4585 37.6515 98.3841 35.5213C99.5206 32.9147 100.045 31.6284 99.997 31.5944C99.8473 31.5127 98.8945 31.3426 98.1459 31.2677C97.0569 31.152 93.8786 31.1724 92.4767 31.2949C84.4595 32.0095 77.2318 35.2423 71.8144 40.5235C68.5068 43.7495 66.186 47.3701 64.7568 51.5489C64.3893 52.6038 63.9469 54.2644 63.8108 55.0675L63.7291 55.5643H56.1223L56.0951 55.4077C56.0747 55.3261 55.9998 54.9382 55.9182 54.5434C54.7952 48.9627 51.6237 43.5385 47.1455 39.5435C42.048 34.9905 35.6914 32.1389 28.6951 31.2725C26.5921 31.0159 23.8814 30.9274 22.0935 31.0635Z" fill="white"/>
</svg>
