<svg width="120" height="120" viewBox="0 0 120 120" fill="none" xmlns="http://www.w3.org/2000/svg">
<circle cx="60" cy="60" r="60" fill="#EDF0F4"/>
<path d="M79.9064 59.9418C75.9089 59.0969 62.3911 56.7736 48.0284 64.1114C35.8952 70.3149 29.9185 79.9526 27.8064 83.7936C15.8374 67.3735 17.887 44.5856 32.2028 30.9191C45.8458 17.8863 67.3273 16.2826 83.1529 27.391C79.7656 29.597 76.3705 31.7953 72.9832 34.0013C70.8319 32.9061 67.3273 31.4432 62.8135 30.9895C53.8329 30.0821 47.0896 33.7666 44.9383 35.0574C43.1078 36.1604 34.3071 41.7302 31.5613 53.089C29.7073 60.7632 31.577 67.0997 32.5 69.6969C33.5796 68.367 34.9329 66.8885 36.607 65.41C37.8039 64.3539 38.9774 63.4621 40.0569 62.7189C39.7909 60.6302 39.4858 55.8348 42.0439 50.8438C45.2513 44.5934 52.0649 39.7589 60.1068 39.8293C68.9388 39.9075 75.8151 45.8842 78.4905 52.3458C79.7499 55.3733 79.9377 58.1582 79.9064 59.9418Z" fill="#041742"/>
<path fill-rule="evenodd" clip-rule="evenodd" d="M79.594 94.8942C71.7555 99.3298 64.1126 100.073 59.2937 99.9947C47.7785 99.8148 39.6271 94.7221 36.5293 92.5474C38.2503 91.4248 39.9713 90.3042 41.6923 89.1836C43.4134 88.0629 45.1344 86.9423 46.8554 85.8197C58.0421 91.5069 71.7086 89.3322 80.5718 80.4611C89.4273 71.5978 91.5942 57.9626 85.9305 46.7838C87.0296 45.098 88.1267 43.4102 89.2239 41.7225C90.321 40.0347 91.4182 38.3469 92.5173 36.6611C94.5591 39.5399 100.145 48.1997 99.9646 60.5129C99.7612 74.3671 92.3843 83.5824 90.233 86.0935C88.16 88.5264 84.7101 91.9998 79.594 94.8942ZM57.1112 64.1896C51.1345 65.9263 46.5582 68.7816 43.4134 71.238C44.4147 72.74 46.7616 75.8065 50.9624 77.9265C54.7017 79.8118 58.1281 80.0387 59.9117 80.0387C61.6015 80.0465 67.1713 79.8509 72.3579 75.7752C78.0842 71.2771 79.3906 65.1518 79.6722 63.6107C77.1376 63.0788 73.6565 62.5468 69.5025 62.5546C67.0696 62.5624 62.5715 62.6016 57.1112 64.1896Z" fill="url(#paint0_linear)"/>
<defs>
<linearGradient id="paint0_linear" x1="74.8665" y1="125.907" x2="127.345" y2="70.2059" gradientUnits="userSpaceOnUse">
<stop stop-color="#0E9DE5"/>
<stop offset="0.1857" stop-color="#10A3DC"/>
<stop offset="0.4884" stop-color="#17B4C4"/>
<stop offset="0.8684" stop-color="#22D09C"/>
<stop offset="1" stop-color="#26DB8D"/>
</linearGradient>
</defs>
</svg>
