<svg width="120" height="120" viewBox="0 0 120 120" fill="none" xmlns="http://www.w3.org/2000/svg">
<circle cx="60" cy="60" r="60" fill="#1591CA"/>
<path fill-rule="evenodd" clip-rule="evenodd" d="M61.6822 57.7647C61.6822 57.7647 66.6631 46.6831 56.8965 35.9772C56.8965 35.9772 51.3413 28.8399 39.8555 29.4034L42.1489 28.5018C42.5318 28.3516 42.9334 28.2464 43.3388 28.1938L45.5984 27.9008L61.4908 25.4591C61.4908 25.4591 67.1098 24.3547 71.3701 25.5718C72.5824 25.9211 73.686 26.5785 74.5605 27.4725C76.9103 29.8541 81.6284 36.1537 78.5393 46.1196C78.5393 46.1196 75.4727 57.2012 63.9831 59.8307C63.9831 59.8307 61.1079 60.582 61.6822 57.7647ZM60.9728 63.9403C60.9728 63.9403 68.1533 73.7935 82.5255 71.0175C82.5255 71.0175 91.6165 69.9694 96.9803 59.9848L96.5975 62.3851C96.5336 62.7833 96.421 63.174 96.2596 63.5459L95.3663 65.6007L89.4057 80.2509C89.4057 80.2509 87.5102 85.5513 84.2709 88.5264C83.3409 89.3741 82.2086 89.9678 80.9828 90.2506C77.6985 91.0132 69.7673 91.7832 62.5981 84.0975C62.5981 84.0975 54.4417 75.8633 57.9925 64.8268C57.9925 64.8193 58.7958 62.0208 60.9728 63.9403ZM38.9021 75.3149C43.5002 61.6752 55.7742 60.3829 55.7742 60.3829H55.7779C58.5555 59.4701 56.4611 57.4041 56.4536 57.4041C48.4023 48.9407 37.0779 51.8595 37.0779 51.8595C26.7295 54.196 23.5127 61.3446 22.5781 64.5263C22.2252 65.7209 22.1952 66.9906 22.4955 68.2001C23.5352 72.4187 27.315 76.6522 27.315 76.6522L37.3895 88.9471L38.7783 90.7202C39.029 91.0419 39.319 91.3309 39.6416 91.5804L41.5821 93.083C35.3588 83.5941 38.9021 75.3149 38.9021 75.3149Z" fill="white"/>
<path opacity="0.5" fill-rule="evenodd" clip-rule="evenodd" d="M63.6866 61.0967C63.6866 61.0967 75.9231 59.5039 80.1645 45.7515C80.1645 45.7515 83.4939 37.3859 77.0228 28.0548L79.0047 29.5086C79.3312 29.7527 79.6315 30.0345 79.8905 30.3463L81.3206 32.0817L91.7179 44.125C91.7179 44.125 95.599 48.2571 96.7551 52.4568C97.0816 53.6589 97.0816 54.921 96.7551 56.1231C95.903 59.3274 92.8739 66.5586 82.5855 69.1505C82.5855 69.1505 71.34 72.3435 63.0748 64.0943C63.0751 64.0943 63.0714 64.0906 63.0643 64.0834C62.9067 63.9231 61.0536 62.0386 63.6866 61.0967ZM57.5383 63.3656C57.5383 63.3656 52.2796 74.3194 61.7685 85.262C61.7685 85.262 67.1323 92.5308 78.6406 92.249L76.3209 93.0942C75.9344 93.2339 75.5323 93.326 75.1236 93.3685L72.8602 93.6089L56.9077 95.6599C56.9077 95.6599 51.2662 96.6253 47.036 95.303C45.8363 94.924 44.7543 94.2423 43.8943 93.3234C41.6046 90.8817 37.0516 84.4732 40.396 74.5899C40.396 74.5899 43.7366 63.5835 55.2937 61.2394C55.2937 61.2401 55.3044 61.2382 55.3245 61.2347C55.6335 61.18 58.1552 60.7337 57.5383 63.3656ZM36.2934 50.8303C50.6206 47.8401 57.9475 57.5919 57.9475 57.5919C60.0897 59.429 60.8729 56.8167 60.9147 56.6773C60.9159 56.6733 60.9165 56.6714 60.9165 56.6716C64.3059 45.5862 56.0294 37.4685 56.0294 37.4685C48.7551 29.8842 40.8352 30.7595 37.5621 31.5746C36.3378 31.8703 35.2104 32.4771 34.289 33.3364C31.0948 36.3566 29.2743 41.6833 29.2743 41.6833L23.5314 56.4236L22.6681 58.4897C22.5128 58.863 22.4043 59.2541 22.3453 59.6542L22 62.0621C27.2174 52.0023 36.2934 50.8303 36.2934 50.8303Z" fill="white"/>
</svg>
