<svg width="120" height="120" viewBox="0 0 120 120" fill="none" xmlns="http://www.w3.org/2000/svg">
<circle cx="60" cy="60" r="60" fill="#CFA967"/>
<path fill-rule="evenodd" clip-rule="evenodd" d="M32.1804 91.3838L26 24H94L87.8196 91.3838L59.9244 99L32.1804 91.3838ZM60.0756 63.1688V93.1425L82.542 87.135L87.8196 29.4225H60.0756V53.9175L55.1002 69.3187H58.0771L60.0756 63.165V53.9175L61.224 50.3663H64.2311L60.0756 63.1688ZM51.6851 63.1313V65.91L38.3647 60.54V58.32L51.6889 52.9463V55.7288L42.3578 59.4412L51.6851 63.1313ZM81.6542 60.54L68.33 65.91V63.1313L77.6611 59.43L68.33 55.7288V52.9463L81.6542 58.32V60.54Z" fill="white"/>
</svg>
