<svg width="120" height="120" viewBox="0 0 120 120" fill="none" xmlns="http://www.w3.org/2000/svg">
<circle cx="60" cy="60" r="60" fill="#EDF0F4"/>
<circle opacity="0.98" cx="60" cy="60" r="45" fill="black"/>
<path fill-rule="evenodd" clip-rule="evenodd" d="M57.5405 23.5576C54.1665 23.7787 50.5357 24.5562 47.3615 25.7332C41.0201 28.0871 35.3992 32.1887 31.2406 37.51C22.9376 48.117 21.1543 62.3904 26.5827 74.7308C28.9651 80.1591 32.8028 85.0809 37.5106 88.7616C48.1176 97.0646 62.391 98.8479 74.7314 93.4196C80.1454 91.0442 85.0388 87.2352 88.7266 82.5415C97.051 71.9346 98.8557 57.6326 93.4202 45.2709C91.0377 39.8425 87.2001 34.9207 82.4922 31.24C75.4019 25.6904 66.5568 22.9655 57.5405 23.5576ZM54.0096 44.2651L54.0453 55.0932L54.4019 54.5368C56.0996 51.8548 58.6533 49.993 61.6777 49.2298C62.8832 48.923 63.8248 48.8018 65.28 48.7518C69.7239 48.6163 73.2263 49.9217 76.1152 52.8035C78.355 55.0433 79.639 57.8751 80.1668 61.7413C80.2738 62.5117 80.2881 63.9312 80.3095 74.5667L80.338 86.5361H76.5146H72.6984V75.815C72.6984 69.0171 72.6699 64.7872 72.6199 64.245C72.4345 62.0552 71.7782 60.1221 70.7724 58.781C70.3231 58.1747 69.3601 57.2617 68.7752 56.8765C67.7551 56.206 66.6923 55.8065 65.3156 55.564C64.5737 55.4427 64.267 55.4213 63.033 55.457C61.9701 55.4855 61.4423 55.5283 60.9644 55.6425C59.1383 56.049 57.7973 56.7838 56.5989 58.0249C55.6288 59.0307 55.0581 59.9937 54.623 61.3561C54.1665 62.7685 54.0096 63.8955 54.0096 65.7929V67.0626H56.9341H59.8587V70.3082V73.5538H49.8724H39.886V70.3082V67.0626H43.0959H46.3058V50.2284V33.3942L50.1434 33.4085L53.9739 33.4299L54.0096 44.2651ZM59.8588 86.5361V83.2905V80.0449H49.8724H39.886V83.2905V86.5361H49.8724H59.8588Z" fill="white"/>
</svg>
