<svg width="120" height="120" viewBox="0 0 120 120" fill="none" xmlns="http://www.w3.org/2000/svg">
<circle cx="60" cy="60" r="60" fill="#1E1E1E"/>
<path fill-rule="evenodd" clip-rule="evenodd" d="M92.5781 29.1166C89.3075 32.9106 86.5841 36.0733 86.5263 36.1449C86.2431 36.4953 85.1885 37.7211 75.6329 48.8073C69.9889 55.3552 65.2467 60.8582 65.0946 61.0361L64.8181 61.3597L69.4493 69.4789C71.9965 73.9444 74.0804 77.6066 74.0804 77.6166C74.0804 77.6266 72.1919 77.6345 69.8837 77.6334L65.6868 77.6329L62.7175 72.4474L59.7481 67.2621L59.6326 67.3832C59.2495 67.7849 45.1317 84.2252 45.1522 84.2458C45.166 84.2594 48.1187 81.7697 51.7137 78.7122C55.3087 75.6552 58.263 73.1666 58.2787 73.1824C58.2945 73.1982 59.3913 75.1242 60.7161 77.4618L63.1248 81.7129L72.0759 81.7266C76.999 81.734 81.0269 81.7297 81.0269 81.7176C81.0269 81.7055 78.4209 77.1308 75.2361 71.5517C72.0512 65.9726 69.4522 61.3812 69.4606 61.3487C69.4767 61.2861 97.5117 23.6711 97.6428 23.5361C97.7417 23.4343 98.8737 21.6789 85.3411 42.6127C78.8493 52.6562 73.5025 60.9328 73.4602 61.0052C73.3857 61.1328 73.5511 61.4286 78.9472 70.8198C82.0079 76.1452 84.5302 80.5231 84.5533 80.5473C84.6002 80.5978 84.637 80.4773 85.0517 78.9122L85.3475 77.795L80.1055 69.4757L74.864 61.1564L86.7089 41.7319C93.2239 31.0485 98.5474 22.2875 98.539 22.263C98.5311 22.2385 95.8483 25.3227 92.5781 29.1166ZM33.8223 85.0909C32.9106 86.1503 32.142 87.0733 32.1144 87.1428C32.0682 87.2585 32.1374 87.3422 32.9564 88.1653C34.842 90.0598 36.5536 91.4738 38.7165 92.9236C40.2922 93.9798 41.6619 94.7687 43.5061 95.6833C48.3782 98.0988 53.5705 99.5339 58.7403 99.8949C59.7566 99.9659 62.5642 99.9654 63.5818 99.8949C72.0252 99.306 79.7518 96.0348 86.0405 90.3855C86.7546 89.7435 88.8349 87.6353 88.7944 87.5948C88.7791 87.5796 88.6855 87.6353 88.5855 87.719C88.4855 87.8022 88.0619 88.159 87.644 88.5121C85.0806 90.675 81.9847 92.6095 78.9093 93.9682C75.1071 95.648 71.2947 96.6326 67.0288 97.0363C65.6517 97.1668 62.2025 97.1668 61.0032 97.0363C57.4529 96.6505 54.2708 95.8206 50.953 94.414C49.9406 93.9851 47.864 92.9499 46.847 92.3674C44.3878 90.9591 41.9069 89.1836 39.6823 87.2401C38.7658 86.4392 36.8544 84.5678 36.1079 83.74C35.8205 83.4216 35.5616 83.1617 35.5326 83.1627C35.5037 83.1638 34.7341 84.0316 33.8223 85.0909Z" fill="#EA39C4"/>
<path fill-rule="evenodd" clip-rule="evenodd" d="M58.1378 20.0198C53.341 20.3501 49.0516 21.4281 44.8236 23.366C41.4185 24.9267 38.274 27.008 35.3677 29.6247C34.5565 30.3551 32.64 32.3176 32.7139 32.3422C32.7433 32.3521 32.9876 32.165 33.2568 31.9265C33.5259 31.688 34.1112 31.2012 34.5575 30.8447C39.5389 26.8653 45.4981 24.2407 51.8491 23.229C53.8879 22.9042 55.2228 22.8054 57.5589 22.8061C60.1018 22.8069 61.4412 22.9365 63.7687 23.4073C68.0493 24.273 72.327 26.0447 76.4058 28.6411C78.2008 29.7841 80.2201 31.3022 81.8714 32.7507C82.734 33.5071 84.7427 35.4839 85.4384 36.2612C85.7178 36.5727 85.963 36.8213 85.9846 36.8137C86.063 36.7855 89.4495 32.8182 89.4495 32.7543C89.4495 32.6656 87.2523 30.4996 86.5551 29.9015C82.4703 26.395 77.7367 23.7369 72.4518 21.9819C69.5616 21.0222 66.8243 20.4365 63.716 20.1128C62.9419 20.0322 58.9293 19.9653 58.1378 20.0198ZM68.3805 43.4636C65.0849 46.5016 62.3667 48.9801 62.3401 48.9712C62.3134 48.9623 61.2049 47.0371 59.8767 44.693L57.4617 40.431L48.4832 40.4176L39.5047 40.4043L39.5674 40.5229C39.6019 40.5881 42.1368 45.004 45.2005 50.336L50.771 60.0306L36.3977 79.3064C28.4924 89.9077 21.9904 98.6171 21.9486 98.6608C21.9069 98.704 27.3365 90.2855 34.0144 79.9526C40.6922 69.6195 46.1658 61.1274 46.1779 61.0811C46.1948 61.0169 41.3716 52.4003 35.7722 42.4911C35.6459 42.2677 35.5866 42.2037 35.5563 42.2579C35.5333 42.2991 35.3016 42.9413 35.0414 43.6851L34.5685 45.0374L39.6491 53.0153C44.0396 59.9096 44.7228 61.0085 44.6783 61.1056C44.65 61.1673 39.3623 69.8497 32.9278 80.3999C19.6002 102.252 21.001 99.9449 21.0764 99.918C21.1087 99.9065 23.5974 97.0321 26.6069 93.5299C29.6164 90.0277 32.1966 87.0317 32.3406 86.8728C32.4846 86.7134 33.2233 85.8608 33.9822 84.9783C34.7411 84.0953 35.4193 83.3075 35.4893 83.2275C35.5593 83.1475 40.0942 77.8829 45.5668 71.5283C52.3453 63.6575 55.5094 59.9463 55.4931 59.8858C55.48 59.8369 53.5097 56.4005 51.1148 52.2492C48.7198 48.0979 46.7483 44.67 46.7336 44.6317C46.7116 44.5742 47.4441 44.5621 50.9094 44.5625L55.1118 44.563L57.847 49.2992C59.3514 51.9041 60.5985 54.0293 60.6185 54.0218C60.6657 54.0041 74.4513 37.9968 74.4513 37.9596C74.4513 37.944 74.4339 37.9332 74.4118 37.9356C74.3903 37.9379 71.6762 40.4255 68.3805 43.4636Z" fill="#75FA4C"/>
</svg>
