<svg width="120" height="120" viewBox="0 0 120 120" fill="none" xmlns="http://www.w3.org/2000/svg">
<circle cx="60" cy="60" r="60" fill="#EDF0F4"/>
<circle cx="60" cy="60" r="41.25" fill="white"/>
<path fill-rule="evenodd" clip-rule="evenodd" d="M19.3505 40.6985C27.1796 24.2104 44.1935 14.0846 62.4203 15.0654C86.9903 16.4427 105.921 37.2592 104.965 61.8479C104.215 80.0848 92.5232 96.0622 75.3669 102.294C58.2106 108.526 38.9891 103.778 26.7086 90.274C14.428 76.7704 11.5214 57.1865 19.3505 40.6985ZM38.0044 60.8245C34.3493 74.8593 45.4608 89.4788 59.9349 89.4788V89.5373C72.2595 89.2395 82.2376 79.4282 82.7425 67.1109C82.8887 61.5555 80.8419 56.5849 78.2102 51.7604C73.6076 43.9836 68.1121 36.7712 61.8355 30.2697C60.5197 28.9539 59.4962 28.9539 58.1804 30.4159C52.8368 36.0778 47.994 42.1922 43.7063 48.6903C41.1665 52.4027 39.2412 56.4999 38.0044 60.8245Z" fill="#168DFF"/>
</svg>
