<svg width="120" height="120" viewBox="0 0 120 120" fill="none" xmlns="http://www.w3.org/2000/svg">
<circle cx="60" cy="60" r="60" fill="#EDF0F4"/>
<path fill-rule="evenodd" clip-rule="evenodd" d="M57.148 33H43.2935C45.0544 35.5827 45.9084 38.5552 45.8874 41.665C42.3762 41.6965 38.8653 41.6965 35.3541 41.6965C33.903 44.2755 32.4234 46.8412 30.9436 49.4074C28.9394 52.8827 26.9348 56.3587 25 59.8696V59.8801C27.0861 63.6839 29.2538 67.4428 31.4218 71.2024C32.7385 73.4857 34.0553 75.7692 35.3541 78.0631H44.7691V70.748H41.6891C39.6024 67.129 37.5257 63.5064 35.4591 59.8801C37.5297 56.2611 39.6034 52.6385 41.68 49.0122H66.7111V56.1908H54.7228V49.9292H45.6858C45.6734 53.9362 45.6822 57.9435 45.6909 61.9504C45.7044 68.1143 45.7179 74.277 45.6543 80.4354C45.8798 82.4957 44.4612 83.7564 43.0513 85.0094C42.4196 85.5709 41.7896 86.1307 41.3101 86.7603H59.1196C56.3675 84.557 53.9952 81.9218 54.4908 78.0953C60.9408 78.0568 67.387 78.0614 73.8316 78.066C77.9323 78.069 82.0325 78.0719 86.1327 78.0638C86.7121 77.0753 87.2665 76.0658 87.8215 75.0551C89.8114 71.4314 91.8095 67.7927 95 65.056C92.1046 64.671 89.1882 64.6654 86.2729 64.6597C85.0375 64.6573 83.8023 64.655 82.569 64.6237C81.8525 66.7335 80.9562 68.7663 79.944 70.7585C78.5634 70.748 77.1824 70.748 75.8123 70.748H75.8108C75.8246 66.1284 75.8161 61.5066 75.8076 56.8846C75.7967 50.9918 75.7858 45.0985 75.8213 39.2087C75.7055 37.4875 76.5508 36.0318 77.3885 34.5894C77.6948 34.0619 78.0001 33.5363 78.257 33H64.3076C66.1109 35.5617 66.9544 38.5447 66.9015 41.665C62.7788 41.707 58.6457 41.707 54.523 41.665C54.4593 38.5237 55.482 35.625 57.148 33ZM54.7232 70.748V63.5695H66.7115V70.748H54.7232Z" fill="#56428E"/>
<path d="M76.728 41.6965H86.1105C88.6833 45.8077 90.4547 50.5516 94.1661 53.8416C94.24 54.0841 94.3761 54.5794 94.4507 54.8216C90.4862 55.3382 86.4706 54.9374 82.4729 55.1366C81.9668 52.9442 80.9651 50.9306 79.858 49.0018C79.0674 49.0018 77.5067 49.0123 76.7266 49.0123L76.728 41.6965Z" fill="#56428E"/>
<path d="M67.0378 78.9808C69.8109 78.9913 72.5945 78.9808 75.3679 78.9703C75.3045 82.491 77.7829 84.6733 80.2182 86.7603H62.2827C64.5812 84.5903 67.2699 82.5334 67.0378 78.9808Z" fill="#56428E"/>
</svg>
