<svg width="120" height="120" viewBox="0 0 120 120" fill="none" xmlns="http://www.w3.org/2000/svg">
<circle cx="60" cy="60" r="60" fill="#EDF0F4"/>
<circle cx="84.9138" cy="36.0862" r="5.08621" fill="#18A0B1"/>
<path d="M45.811 69.2279C41.871 62.5395 42.9531 54.0329 48.4421 48.5439C53.9312 43.0548 62.4377 41.9728 69.1262 45.9128L73.1952 41.8438L72.9917 41.681C63.9671 35.7325 51.9978 36.9845 44.3995 44.6718C36.8012 52.3591 35.6888 64.3423 41.742 73.2969L45.811 69.2279Z" fill="#18A0B1"/>
<path d="M75.1889 51.9959C79.129 58.6843 78.0469 67.1909 72.5578 72.6799C67.0688 78.169 58.5622 79.2511 51.8738 75.311L47.8048 79.38C56.7945 85.4832 68.8521 84.3405 76.5352 76.6573C84.2184 68.9742 85.3611 56.9166 79.2579 47.9269L75.1889 51.9959Z" fill="#18A0B1"/>
<circle cx="36.0862" cy="84.9138" r="5.08621" fill="#18A0B1"/>
</svg>
