<svg width="120" height="120" viewBox="0 0 120 120" fill="none" xmlns="http://www.w3.org/2000/svg">
<circle cx="60" cy="60" r="60" fill="#EDF0F4"/>
<circle cx="60" cy="60.0001" r="43.771" fill="white"/>
<path fill-rule="evenodd" clip-rule="evenodd" d="M105 60.0001C105 35.1474 84.8525 15.0003 59.9998 15.0003C35.2961 14.9368 15.2423 34.9848 15 59.5213V60.0001C15 84.8528 35.1471 105 59.9998 105C84.8525 105 105 84.8528 105 60.0001ZM18.2942 59.7405C18.3923 36.9269 37.0556 18.2773 60.9462 18.2657C71.498 18.4157 81.3979 22.5003 89.5381 30.5772C96.5383 37.374 100.809 46.4978 101.544 56.227C102.594 69.1039 98.5669 80.3481 89.3766 89.5154C81.2997 97.5749 71.4286 101.619 59.9998 101.66C36.923 101.74 18.1904 82.7827 18.2942 59.7405ZM60.9462 18.2657C60.95 18.2657 60.9537 18.2657 60.9575 18.2657H60.9459C60.946 18.2657 60.9461 18.2657 60.9462 18.2657Z" fill="#333333"/>
<path fill-rule="evenodd" clip-rule="evenodd" d="M88.8921 31.379C95.4809 37.8268 99.5693 46.4024 100.43 55.5808C101.729 68.4865 97.7824 79.6615 88.6382 88.8115C80.6767 96.7845 70.8979 100.731 59.6249 100.65C37.5373 100.055 19.962 81.9401 20.0356 59.8446C20.1093 37.7491 37.805 19.7515 59.8961 19.3041C71.2152 19.3214 80.9248 23.3829 88.8921 31.379ZM78.784 29.6077C78.7968 28.9229 78.252 28.3573 77.5671 28.3444C76.8833 28.3347 76.3194 28.878 76.3037 29.5617C76.291 30.2466 76.836 30.812 77.5208 30.8247C78.2057 30.8375 78.7712 30.2926 78.784 29.6077ZM71.9998 25.754C72.7018 25.7572 73.2691 26.3271 73.2691 27.029C73.26 27.3565 73.1212 27.667 72.8831 27.8921C72.6451 28.1171 72.3273 28.2383 71.9998 28.229C71.6816 28.2337 71.3745 28.1116 71.1462 27.8898C70.9179 27.668 70.7871 27.3646 70.7825 27.0464V26.9887C70.7886 26.316 71.3274 25.7696 71.9998 25.754ZM67.4018 25.3848C67.3184 24.7319 66.7937 24.2239 66.1383 24.1617C65.4462 24.1517 64.8714 24.6933 64.8403 25.3848C64.8367 26.0577 65.3679 26.6118 66.0403 26.6367C66.7558 26.6506 67.3557 26.099 67.4018 25.3848ZM59.9999 23.6541C60.681 23.6509 61.236 24.1999 61.2402 24.881C61.2444 25.5621 60.6963 26.1179 60.0152 26.1232C59.3341 26.1285 58.7774 25.5813 58.7711 24.9002C58.771 24.2187 59.3184 23.6635 59.9999 23.6541ZM55.1538 25.3848C55.1192 24.7274 54.5939 24.202 53.9365 24.1675L53.9134 24.1617C53.2369 24.1733 52.6861 24.7089 52.6557 25.3848C52.6526 25.7092 52.7785 26.0215 53.0058 26.2531C53.233 26.4846 53.5429 26.6164 53.8672 26.6194H53.9134C54.2418 26.621 54.5573 26.4916 54.7901 26.2599C55.0229 26.0282 55.1538 25.7133 55.1538 25.3848ZM48.0057 25.754C48.6863 25.7635 49.232 26.3196 49.2288 27.0002C49.2451 27.6565 48.7309 28.204 48.075 28.229H48.0173C47.6863 28.2415 47.3641 28.121 47.1224 27.8946C46.8808 27.6681 46.7397 27.3544 46.7307 27.0233C46.7279 27.0061 46.7279 26.9885 46.7307 26.9714C46.7645 26.2911 47.3247 25.7563 48.0057 25.754ZM43.5476 28.8882C43.2998 28.5208 42.8748 28.3135 42.4327 28.3444C41.782 28.3889 41.2768 28.9297 41.2768 29.5819C41.2768 30.2341 41.782 30.775 42.4327 30.8194H42.6057C43.0479 30.7885 43.4399 30.5241 43.6342 30.1257C43.8285 29.7274 43.7955 29.2556 43.5476 28.8882ZM37.4538 31.8463C38.1337 31.8618 38.6793 32.4125 38.6885 33.0925C38.6853 33.773 38.1344 34.3239 37.4538 34.3271C37.1361 34.3396 36.8265 34.2248 36.5937 34.0082C36.3608 33.7916 36.224 33.4911 36.2135 33.1732C36.2103 33.1522 36.2103 33.1308 36.2135 33.1098C36.1907 32.4321 36.7187 31.8629 37.3962 31.8348L37.4538 31.8463ZM34.35 37.4425C34.3663 36.7607 33.8315 36.1925 33.15 36.1675H33.1443C32.4526 36.17 31.8855 36.7167 31.8577 37.4078C31.8757 38.0862 32.4198 38.6328 33.0981 38.654C33.7778 38.6636 34.3374 38.1221 34.35 37.4425ZM29.6135 41.1982C30.2675 41.1852 30.8115 41.6984 30.8366 42.3521C30.8423 42.3689 30.8423 42.3871 30.8366 42.404C30.8462 43.0868 30.3021 43.649 29.6193 43.6617C28.9213 43.6493 28.3593 43.0847 28.35 42.3867C28.3749 41.7102 28.9308 41.1747 29.6077 41.1751L29.6135 41.1982ZM28.2693 47.9943C28.2725 47.3042 27.719 46.7404 27.0289 46.7309C26.3522 46.7365 25.7989 47.272 25.7712 47.9482C25.7917 48.6097 26.3234 49.141 26.985 49.1609C27.6465 49.1807 28.2092 48.6823 28.2693 48.0232V47.9943ZM25.4135 52.6328C26.1119 52.6359 26.6791 53.1979 26.6885 53.8962C26.6697 54.5754 26.1102 55.1143 25.4308 55.1078C25.1141 55.1093 24.8097 54.9849 24.5847 54.7621C24.3596 54.5392 24.2324 54.236 24.2308 53.9193C24.224 53.2496 24.7501 52.6954 25.4193 52.6674L25.4135 52.6328ZM24.8885 58.7424C24.2106 58.7724 23.6714 59.3217 23.6539 60C23.6735 60.6614 24.1936 61.199 24.8539 61.2404H24.9808C25.6512 61.2062 26.1674 60.6359 26.1347 59.9654C26.1316 59.638 25.9986 59.3252 25.7649 59.0958C25.5312 58.8664 25.216 58.7393 24.8885 58.7424ZM24.2308 66.0866C24.2307 65.4072 24.7747 64.853 25.4539 64.8404C26.1509 64.8529 26.7112 65.4183 26.7174 66.1154C26.7083 66.4429 26.5695 66.7533 26.3314 66.9784C26.0934 67.2035 25.7756 67.3247 25.4481 67.3154C24.7939 67.3316 24.2497 66.8157 24.2308 66.1616V66.0923V66.0866ZM25.7885 72.0231C25.8105 72.7045 26.376 73.2418 27.0577 73.2288L27.0347 73.2173C27.7152 73.2141 28.2661 72.6632 28.2693 71.9827C28.2518 71.3139 27.7203 70.7724 27.052 70.7423C26.354 70.7579 25.7946 71.325 25.7885 72.0231ZM29.6366 78.7846C28.9589 78.7759 28.4064 78.2387 28.3789 77.5615C28.3789 76.8746 28.9324 76.3159 29.6193 76.3096H29.6481C30.3022 76.2965 30.8462 76.8097 30.8712 77.4634C30.874 77.4845 30.874 77.5058 30.8712 77.5269C30.8727 77.8523 30.7445 78.1648 30.515 78.3955C30.2855 78.6261 29.9735 78.7557 29.6481 78.7557H29.6135L29.6366 78.7846ZM29.6368 69.0915L29.6366 69.0923L29.6135 69.0808L29.6368 69.0915ZM29.6368 69.0915L29.7 68.8673H42.8538C44.5539 68.8673 45.4077 68.8673 45.8365 68.4404C46.2692 68.0097 46.2692 67.1443 46.2692 65.4058V56.752C46.2692 55.8116 46.3961 55.3731 47.5211 55.4193C49.9961 55.5231 52.4826 55.4885 54.9576 55.4193C55.823 55.4193 56.1115 55.6847 56.1115 56.5328C56.0884 61.3712 56.0884 66.2154 56.1115 71.0654C56.1115 71.9885 55.823 72.4558 54.848 72.3635C54.5641 72.3346 54.278 72.3346 53.9942 72.3635C52.8807 72.4846 52.4999 72.0519 52.4999 70.9615C52.5345 68.6277 52.523 66.2963 52.5115 63.9641V63.9641V63.964V63.9639V63.9639V63.9638V63.9637V63.9637V63.9636V63.9635V63.9635V63.9634V63.9633V63.9633V63.9632V63.9631V63.9631V63.963V63.9629V63.9628V63.9628V63.9627V63.9626C52.5057 62.796 52.4999 61.6291 52.4999 60.4616C52.4999 59.4981 52.1999 59.0539 51.1672 59.0539C50.1346 59.0539 49.7942 59.377 49.8115 60.4039C49.8353 62.2113 49.8345 64.0188 49.8338 65.8254V65.8255V65.8256V65.8257V65.8257V65.8258V65.8259V65.8259V65.826V65.8261V65.8261V65.8262V65.8263V65.8263V65.8264V65.8265V65.8265V65.8266V65.8267V65.8268V65.8268V65.8269V65.827C49.833 67.5202 49.8323 69.2127 49.8519 70.9039C49.8519 72.0577 49.4999 72.3808 48.3865 72.3635C47.0882 72.3423 45.7885 72.3584 44.4894 72.3744C42.2439 72.4021 40.0006 72.4298 37.7712 72.2654C36.5482 72.1762 35.3534 71.6464 34.166 71.1198C33.7402 70.9309 33.3153 70.7425 32.8904 70.575C32.1355 70.2794 31.3834 69.9203 30.6263 69.5587L30.6263 69.5587C30.2976 69.4018 29.968 69.2444 29.6368 69.0915ZM33.2769 83.8153C32.9417 83.8542 32.6048 83.7581 32.3407 83.548C32.0765 83.338 31.9069 83.0315 31.8693 82.6961C31.8637 82.6308 31.8637 82.5652 31.8693 82.5C31.9108 81.8046 32.4768 81.2562 33.1731 81.2365C33.868 81.3279 34.3977 81.9037 34.4308 82.6038C34.335 83.2069 33.8752 83.6873 33.2769 83.8096V83.8153ZM36.2365 86.9076C36.2365 87.5672 36.7712 88.1019 37.4308 88.1019L37.4538 88.0961H37.5C37.8259 88.0976 38.1391 87.9696 38.3706 87.7402C38.6022 87.5109 38.7331 87.1989 38.7346 86.873C38.7226 86.1933 38.1795 85.6425 37.5 85.6211C37.1695 85.6165 36.8507 85.7433 36.6137 85.9738C36.3768 86.2043 36.2411 86.5194 36.2365 86.8499V86.9076ZM42.4961 91.6153C42.1778 91.6278 41.8676 91.5132 41.6338 91.2967C41.4001 91.0803 41.262 90.7798 41.25 90.4615C41.2472 90.4462 41.2472 90.4306 41.25 90.4153C41.2305 89.7281 41.7688 89.1538 42.4557 89.1288H42.4904C43.1702 89.1442 43.7158 89.695 43.725 90.3749C43.7296 90.7013 43.6036 91.016 43.375 91.2489C43.1463 91.4819 42.8341 91.6138 42.5077 91.6153H42.4961ZM46.7365 93.0403C46.7828 93.7189 47.367 94.2337 48.0461 94.1941L48.075 94.1884C48.73 94.1664 49.245 93.6205 49.2288 92.9653C49.2225 92.2838 48.6699 91.7338 47.9884 91.7307C47.3114 91.7541 46.7662 92.2943 46.7365 92.9711V93.0403ZM41.1376 74.4391L41.1375 74.439L41.1374 74.439L41.1372 74.4389L41.1371 74.4388L41.137 74.4388L41.1368 74.4387L41.1367 74.4386L41.1365 74.4386L41.1364 74.4385L41.1363 74.4384L41.1361 74.4383L41.136 74.4383L41.1359 74.4382L41.1357 74.4381L41.1356 74.4381L41.1354 74.438L41.1353 74.4379L41.1352 74.4379C40.8012 74.2755 40.4671 74.1131 40.1308 73.9558L40.2635 73.6038H57.1153C57.3345 73.6038 57.5328 73.6055 57.7124 73.607H57.7127H57.7131H57.7133H57.7136C58.5961 73.6142 59.0238 73.6177 59.2303 73.4058C59.4245 73.2065 59.4232 72.8168 59.4206 72.0605V72.0604V72.0602V72.0601V72.0599V72.0597V72.0596V72.0594V72.0592V72.059V72.0588V72.0586V72.0584V72.0582V72.058V72.0577V72.0575C59.4199 71.8364 59.419 71.5841 59.423 71.2962V48.7039C59.423 47.4636 59.7634 47.0886 61.0037 47.1347C63.4037 47.227 65.8037 47.1924 68.2095 47.1347C69.0749 47.1347 69.4614 47.3597 69.4614 48.2886V76.2519C69.4614 77.2557 69.0345 77.5673 68.1114 77.4057C67.7984 77.3227 67.4773 77.2743 67.1537 77.2615L67.1217 77.2626C65.6248 77.3135 65.6191 77.3137 65.6191 75.7211V52.6443C65.6191 52.5458 65.625 52.4428 65.6309 52.3384C65.6631 51.771 65.6975 51.1645 64.8056 51.0232C63.571 50.827 63.2018 51.1155 63.2018 52.4078V75.8538C63.2018 77.4461 63.2018 77.4519 61.5634 77.4519C60.2055 77.4519 58.8482 77.4455 57.4912 77.4391H57.4905H57.4905H57.4904H57.4904H57.4904H57.4903H57.4903H57.4903H57.4902H57.4902H57.4902H57.4901H57.4901H57.4901H57.49H57.49H57.49C54.7769 77.4263 52.0647 77.4134 49.3499 77.4519C47.6855 77.5185 46.3212 76.8497 44.9583 76.1817C44.4316 75.9235 43.9051 75.6655 43.3615 75.45H43.35C42.5982 75.1493 41.8682 74.7943 41.1376 74.4391ZM52.6615 94.5807C52.6865 95.2604 53.2566 95.7918 53.9365 95.7691C54.627 95.7563 55.1767 95.1868 55.165 94.4963C55.1533 93.8057 54.5847 93.2551 53.8941 93.2656C53.2036 93.2762 52.652 93.8439 52.6615 94.5345C52.6586 94.5498 52.6586 94.5654 52.6615 94.5807ZM59.9999 96.346C59.3012 96.3334 58.7441 95.7583 58.7538 95.0595C58.7728 94.3722 59.3426 93.8288 60.03 93.8425C60.7175 93.8561 61.2653 94.4217 61.257 95.1092C61.2487 95.7968 60.6875 96.349 59.9999 96.346ZM64.846 94.5057C64.8321 95.1671 65.3398 95.7231 65.9999 95.7691L66.0633 95.7518C66.7348 95.7815 67.3066 95.2686 67.3499 94.598C67.3664 94.1507 67.143 93.7286 66.7639 93.4907C66.3848 93.2528 65.9076 93.2352 65.512 93.4445C65.1164 93.6539 64.8625 94.0584 64.846 94.5057ZM71.9941 94.1884C71.3412 94.1983 70.799 93.6868 70.771 93.0345V92.9768C70.774 92.2988 71.3162 91.7463 71.9941 91.7307C72.6911 91.7432 73.2514 92.3085 73.2575 93.0057C73.2264 93.6771 72.6661 94.2016 71.9941 94.1884ZM76.688 91.266C76.9228 91.49 77.237 91.6115 77.5614 91.6038L77.5787 91.6268H77.6306C78.2875 91.5987 78.8008 91.0495 78.7844 90.3922C78.7941 89.7094 78.2499 89.1472 77.5671 89.1345C76.8684 89.1409 76.3062 89.7108 76.3094 90.4095C76.317 90.7339 76.4532 91.042 76.688 91.266ZM78.5921 57.0892V57.089C78.559 51.8223 78.5286 46.9707 78.5306 44.2674C78.5306 44.2209 78.5309 44.1745 78.5312 44.1285C78.5358 43.4277 78.5399 42.8089 77.4517 42.8251C76.5171 42.8251 76.2979 43.1655 76.2979 44.0482C76.3325 48.0866 76.2344 78.4788 76.2344 78.4788V82.298C76.0991 82.3125 75.9717 82.3286 75.8492 82.3441L75.8488 82.3442L75.8484 82.3442L75.8482 82.3442L75.8477 82.3443L75.8471 82.3444L75.8468 82.3444L75.8465 82.3445H75.8464H75.8464H75.8464C75.5782 82.3784 75.3335 82.4095 75.0806 82.4134C73.5951 82.4134 72.1092 82.4216 70.6233 82.4298H70.6231H70.6228H70.6226H70.6224H70.6222H70.622H70.6218H70.6216H70.6214H70.6212H70.621H70.6209H70.6208H70.6207H70.6206H70.6205H70.6204H70.6203H70.6202H70.6201H70.62H70.6199C66.8205 82.4508 63.0207 82.4718 59.2268 82.3557C58.2481 82.3259 57.2724 81.8598 56.3092 81.3996L56.3092 81.3996L56.3091 81.3996L56.309 81.3996L56.309 81.3995L56.3089 81.3995L56.3088 81.3995L56.3088 81.3994L56.3087 81.3994L56.3086 81.3993L56.3085 81.3993L56.3085 81.3993L56.3084 81.3992C55.9661 81.2357 55.6253 81.0729 55.2865 80.9307C53.7861 80.3311 52.3484 79.5852 50.9942 78.7038C51.1672 78.7038 51.3403 78.6879 51.5134 78.6721C51.6865 78.6562 51.8596 78.6404 52.0326 78.6404L69.7326 78.7153H69.7326C71.099 78.7153 71.7666 78.7153 72.0926 78.3816C72.4041 78.0629 72.404 77.4396 72.4037 76.2208L72.4037 76.1077V40.4482C72.4037 39.4501 72.6287 38.9886 73.7595 39.0232C76.321 39.104 78.8883 39.0751 81.4498 39.0232C82.3094 39.0232 82.6036 39.3174 82.6036 40.1771V80.7692C82.6036 81.5828 82.6036 81.9938 82.3982 82.2021C82.1884 82.4148 81.7644 82.4163 80.9075 82.4192C78.3235 82.4192 78.3281 82.3743 78.589 79.8192L78.5998 79.7134L78.6056 79.7019C78.7264 78.5018 78.6546 67.0543 78.5921 57.0914V57.0908V57.0905V57.0903V57.0896V57.0892ZM81.3113 86.873C81.324 87.5513 81.8791 88.0936 82.5575 88.0903L82.5517 88.0961H82.6383C82.9567 88.0966 83.2611 87.9656 83.4796 87.734C83.6981 87.5024 83.8112 87.1908 83.7921 86.873C83.7998 86.5455 83.6771 86.2284 83.451 85.9915C83.2248 85.7545 82.9138 85.6171 82.5863 85.6096C81.8892 85.6157 81.3238 86.176 81.3113 86.873ZM82.5979 34.3213C81.926 34.328 81.3709 33.7985 81.346 33.1271C81.3432 33.1138 81.3432 33.1 81.346 33.0867C81.361 32.4092 81.9033 31.8619 82.5806 31.8406C82.9075 31.8375 83.2221 31.9648 83.4549 32.1943C83.6877 32.4239 83.8194 32.7367 83.8209 33.0636C83.8604 33.7215 83.3595 34.2869 82.7017 34.3271H82.6325L82.5979 34.3213ZM85.7113 82.5375C85.7113 83.1897 86.2164 83.7305 86.8671 83.7749C87.3294 83.8065 87.7707 83.5778 88.0115 83.1819C88.2522 82.786 88.2522 82.2889 88.0115 81.893C87.7707 81.4971 87.3294 81.2684 86.8671 81.3C86.2164 81.3444 85.7113 81.8852 85.7113 82.5375ZM86.8671 38.6713C86.1757 38.6713 85.6152 38.1108 85.6152 37.4194C85.6152 36.728 86.1757 36.1675 86.8671 36.1675C87.5585 36.1675 88.119 36.728 88.119 37.4194C88.1095 38.104 87.5518 38.6541 86.8671 38.654V38.6713ZM94.6151 55.1193C95.2693 55.1004 95.7851 54.5562 95.769 53.902C95.786 53.2383 95.2774 52.6789 94.6151 52.6328C94.2724 52.625 93.9406 52.7538 93.6928 52.9908C93.445 53.2277 93.3016 53.5535 93.294 53.8962C93.3066 54.5777 93.8643 55.1226 94.5459 55.1193H94.6151ZM90.3805 41.2097C91.0608 41.2128 91.6142 41.7584 91.6267 42.4386C91.6111 43.1356 91.0431 43.6933 90.3459 43.6963C89.6667 43.6712 89.1329 43.1066 89.1459 42.427C89.1328 41.772 89.6452 41.2263 90.2998 41.1982H90.3863L90.3805 41.2097ZM89.1517 77.5557C89.1517 78.2344 89.7019 78.7846 90.3805 78.7846L90.3978 78.7788C91.0713 78.77 91.6194 78.2346 91.644 77.5615V77.5327C91.638 77.2016 91.4998 76.8867 91.2604 76.6581C91.0209 76.4295 90.7 76.3061 90.369 76.3154H90.3055C89.6449 76.3404 89.129 76.895 89.1517 77.5557ZM92.9651 46.7309C93.4661 46.7309 93.9173 47.0336 94.1073 47.4971C94.2974 47.9606 94.1885 48.4929 93.8318 48.8446C93.4751 49.1963 92.9413 49.2976 92.4806 49.1011C92.0198 48.9045 91.7235 48.449 91.7305 47.9482C91.7548 47.2795 92.2962 46.7457 92.9651 46.7309ZM91.7305 72.0231C91.7587 72.7023 92.3259 73.2336 93.0055 73.2173C93.6847 73.2047 94.2287 72.6505 94.2286 71.9711C94.2344 71.9175 94.2344 71.8633 94.2286 71.8096C94.1697 71.1198 93.5627 70.6084 92.8728 70.6673C92.183 70.7263 91.6716 71.3333 91.7305 72.0231ZM94.5344 67.3039C93.8577 67.2884 93.3147 66.7402 93.3055 66.0635C93.3336 65.3643 93.9155 64.8158 94.6151 64.8289C95.282 64.8751 95.7923 65.4415 95.769 66.1096C95.7705 66.4258 95.646 66.7296 95.4229 66.9537C95.1999 67.1779 94.8967 67.3039 94.5805 67.3039H94.5344ZM94.2511 60.8927C94.4839 61.1093 94.7935 61.224 95.1113 61.2116H95.1171H95.1921C95.5133 61.2131 95.8218 61.0858 96.0484 60.8581C96.2751 60.6304 96.4009 60.3213 96.3978 60V59.9481C96.3727 59.5984 96.2097 59.2731 95.9445 59.0437C95.6794 58.8143 95.334 58.6997 94.9844 58.7251H94.9036C94.5991 58.7557 94.3192 58.906 94.1256 59.1429C93.9319 59.3798 93.8403 59.684 93.8709 59.9885C93.8681 60.0115 93.8681 60.0348 93.8709 60.0577C93.8814 60.3756 94.0183 60.6761 94.2511 60.8927Z" fill="#004B6A"/>
</svg>
