<svg width="120" height="120" viewBox="0 0 120 120" fill="none" xmlns="http://www.w3.org/2000/svg">
<path d="M118.191 74.5143C110.178 106.657 77.6222 126.219 45.4752 118.204C13.3417 110.19 -6.22004 77.6324 1.79691 45.4918C9.80683 13.3451 42.3626 -6.21803 74.4997 1.79541C106.644 9.80884 126.205 42.3702 118.191 74.5149L118.191 74.5143H118.191Z" fill="black"/>
<mask id="mask0" style="mask-type:alpha" maskUnits="userSpaceOnUse" x="28" y="47" width="75" height="56">
<path fill-rule="evenodd" clip-rule="evenodd" d="M89.3598 48.22C82.9287 48.9227 78.1761 54.5414 78.5498 61C78.6599 62.6987 77.8106 64.3162 76.3498 65.19C75.6198 65.6383 74.7763 65.8674 73.9198 65.85C73.0701 65.8392 72.2373 65.6121 71.4998 65.19C69.549 64.0731 67.3474 63.4676 65.0998 63.43H63.7798C57.3896 64.1685 52.7184 69.8146 53.1898 76.23C53.3043 77.927 52.4585 79.5452 50.9998 80.42C50.2735 80.8685 49.4332 81.0977 48.5798 81.08C47.7921 81.0976 47.0188 80.8667 46.3698 80.42C44.4283 79.3067 42.2374 78.7014 39.9998 78.66H38.6298C32.3483 79.4686 27.7601 84.9949 28.1204 91.3179C28.4808 97.641 33.6671 102.61 39.9998 102.7H41.0998C46.8135 102.137 51.3281 97.6058 51.8698 91.89V89.89C51.7619 88.1918 52.6107 86.5754 54.0698 85.7C54.7998 85.2517 55.6433 85.0226 56.4998 85.04C57.3494 85.0508 58.1823 85.2779 58.9198 85.7C60.868 86.8245 63.0707 87.4337 65.3198 87.47H66.6398C72.2799 86.8279 76.6986 82.3216 77.2298 76.67V74.67C77.1201 72.9662 77.9735 71.3445 79.4398 70.47C80.166 70.0214 81.0064 69.7923 81.8598 69.81C82.6475 69.7924 83.4207 70.0233 84.0698 70.47C86.0145 71.5941 88.2139 72.2033 90.4598 72.24H91.7898C97.7398 71.14 102.37 66.24 102.37 60.11C102.399 56.9239 101.16 53.857 98.9259 51.5853C96.6918 49.3137 93.6459 48.0238 90.4598 48C90.0787 47.9426 89.6895 48.0204 89.3598 48.22Z" fill="white"/>
</mask>
<g mask="url(#mask0)">
<path d="M83.9997 47.77L32.4997 78.87C26.0378 82.7729 23.9309 91.1557 27.7797 97.65C29.6508 100.82 32.7149 103.107 36.286 104C39.857 104.893 43.637 104.316 46.7797 102.4L98.4097 71C104.692 67.0856 106.726 58.8862 103 52.49C101.135 49.3123 98.0685 47.0204 94.4929 46.1321C90.9173 45.2439 87.1346 45.8343 83.9997 47.77Z" fill="url(#paint0_linear)"/>
</g>
<mask id="mask1" style="mask-type:alpha" maskUnits="userSpaceOnUse" x="28" y="32" width="49" height="40">
<path fill-rule="evenodd" clip-rule="evenodd" d="M63.9996 33C57.5644 33.7028 52.8103 39.3277 53.1896 45.79C53.3142 47.4945 52.4668 49.1236 50.9996 50C50.2734 50.4486 49.433 50.6777 48.5796 50.66C47.7851 50.6819 47.0042 50.4508 46.3496 50C44.4159 48.883 42.2321 48.2708 39.9996 48.22H38.6296C32.7355 48.9714 28.3071 53.9683 28.2696 59.91C28.2472 66.5263 33.5637 71.9232 40.1796 72H41.2796C46.9954 71.4583 51.5267 66.9438 52.0896 61.23V59.23C51.9771 57.5308 52.827 55.9121 54.2896 55.04C55.0167 54.5839 55.8615 54.351 56.7196 54.37C57.5059 54.3512 58.2773 54.5861 58.9196 55.04C60.8704 56.1569 63.072 56.7624 65.3196 56.8H66.6396C72.8048 55.8828 77.2577 50.4222 76.9154 44.1985C76.5731 37.9749 71.5482 33.0355 65.3196 32.8C64.8695 32.7394 64.4115 32.8088 63.9996 33Z" fill="white"/>
</mask>
<g mask="url(#mask1)">
<path d="M74.7898 35.55C70.6364 31.3908 64.1953 30.5681 59.1298 33.55L33.6298 48.91C30.1823 50.948 27.8665 54.4613 27.3527 58.4331C26.8388 62.4049 28.1844 66.3918 30.9998 69.24C35.1907 73.4223 41.6781 74.2445 46.7798 71.24L72.2998 55.69C75.6979 53.6504 77.9677 50.1601 78.454 46.2269C78.9403 42.2938 77.5888 38.3557 74.7898 35.55Z" fill="url(#paint1_linear)"/>
</g>
<mask id="mask2" style="mask-type:alpha" maskUnits="userSpaceOnUse" x="27" y="17" width="25" height="25">
<circle cx="39.7401" cy="29.69" r="11.91" fill="white"/>
</mask>
<g mask="url(#mask2)">
<rect x="21.8369" y="29.6906" width="25.3001" height="25.3001" rx="12.38" transform="rotate(-45 21.8369 29.6906)" fill="url(#paint2_linear)"/>
</g>
<defs>
<linearGradient id="paint0_linear" x1="27.4597" y1="20.8171" x2="70.0497" y2="20.8171" gradientUnits="userSpaceOnUse">
<stop stop-color="#F4C503"/>
<stop offset="1" stop-color="#FFE800"/>
</linearGradient>
<linearGradient id="paint1_linear" x1="10.9698" y1="21.2528" x2="51.3798" y2="21.2528" gradientUnits="userSpaceOnUse">
<stop stop-color="#F4C503"/>
<stop offset="1" stop-color="#FFE800"/>
</linearGradient>
<linearGradient id="paint2_linear" x1="-6.11221" y1="36.2351" x2="31.057" y2="36.2351" gradientUnits="userSpaceOnUse">
<stop stop-color="#F4C503"/>
<stop offset="1" stop-color="#FFE800"/>
</linearGradient>
</defs>
</svg>
