<svg width="120" height="120" viewBox="0 0 120 120" fill="none" xmlns="http://www.w3.org/2000/svg">
<circle cx="60" cy="60" r="60" fill="#EDF0F4"/>
<path d="M33.5531 28.0723C41.0067 21.8576 50.7152 18.3615 60.4282 18.5684C72.2825 18.5366 83.9391 24.0921 91.5745 33.1277C106.416 50.5671 104.304 76.7375 86.8669 91.5788C75.2481 101.462 59.141 104.169 44.9301 98.6254C41.3931 97.2329 38.059 95.372 35.017 93.0927C35.7398 87.6508 38.4267 82.5158 42.3501 78.6924C46.6634 74.4712 52.35 71.9405 58.3733 71.5617C59.9645 71.4139 61.5557 71.5435 63.1582 71.4685C69.318 71.3144 75.4114 72.7701 80.8363 75.6919C81.566 76.0761 82.5298 76.4852 82.5752 77.4468C82.698 78.6788 81.3955 79.2084 80.6385 79.9108C82.6161 79.8381 84.4596 78.9311 86.1327 77.94C87.7238 77.0308 88.1967 74.6008 86.9101 73.2369C84.7233 70.8002 82.3638 68.5316 80.143 66.1221C79.5315 65.4401 78.6836 64.8446 78.5109 63.874C76.5585 56.5518 71.8842 50.2513 65.4427 46.2595C61.517 43.7387 56.9435 42.2907 52.3086 41.8588C42.3614 40.6427 32.262 41.0064 22.3853 42.6476C24.8675 36.9988 28.8296 32.048 33.5531 28.0723Z" fill="white"/>
<path d="M64.2241 53.3472C64.8937 53.8299 65.5095 54.3832 66.0608 54.9975C68.0702 57.0023 70.0888 58.9981 72.0823 61.0212C72.5093 61.4142 72.8906 61.8542 73.2189 62.3328C71.6504 62.3874 70.082 62.3692 68.5158 62.3328C67.5702 60.287 66.495 58.2958 65.513 56.2636C65.0606 55.3021 64.4878 54.386 64.2241 53.3472Z" fill="white"/>
<path fill-rule="evenodd" clip-rule="evenodd" d="M57.7937 15.0541C71.4146 14.3859 84.603 19.9342 93.6499 30.1385C110.144 48.7031 108.464 77.124 89.897 93.6177C87.1768 96.0346 84.1732 98.1123 80.9522 99.8052C69.7116 105.813 55.8888 106.625 44.0004 102.051C28.9063 96.2965 18.0485 82.901 15.5432 66.9427C13.8179 56.0908 16.2387 44.632 22.2921 35.4577C27.8501 26.9342 36.1258 20.5394 45.7757 17.3113C49.6627 16.0247 53.7047 15.2655 57.7937 15.0541ZM33.5531 28.0723C28.8296 32.048 24.8675 36.9988 22.3853 42.6612C32.262 41.02 42.3614 40.6563 52.3086 41.8724C56.9435 42.3043 61.517 43.7523 65.4427 46.2732C71.8842 50.2649 76.5585 56.5654 78.5109 63.8876C78.6412 64.6199 79.1559 65.1322 79.6634 65.6374C79.8285 65.8018 79.9929 65.9655 80.143 66.1357C81.1518 67.2325 82.1912 68.3 83.2306 69.3675L83.2307 69.3676L83.2309 69.3678C84.4749 70.6455 85.7188 71.9231 86.9101 73.2506C88.1967 74.6144 87.7329 77.0421 86.1327 77.9537C84.4597 78.9447 82.6161 79.8517 80.6385 79.9244C80.8255 79.7509 81.0458 79.588 81.2697 79.4223C81.952 78.9175 82.6677 78.3881 82.5752 77.4604C82.5341 76.5915 81.7432 76.1792 81.0527 75.8194C80.9791 75.781 80.9066 75.7432 80.8363 75.7055C75.4118 72.7796 69.3174 71.3206 63.156 71.473C62.4805 71.5048 61.805 71.4998 61.1295 71.4948C60.2138 71.488 59.2981 71.4812 58.3824 71.5662C52.3591 71.9451 46.6725 74.4758 42.3592 78.697C38.4358 82.5158 35.7489 87.6553 35.0261 93.0972C38.0681 95.3766 41.4022 97.2374 44.9392 98.63C66.2792 106.943 90.3198 96.3796 98.6303 75.0372C104.163 60.8341 101.457 44.7404 91.5836 33.1277C83.9482 24.0898 72.2894 18.5365 60.4419 18.5797C50.7288 18.3729 41.0203 21.8689 33.5667 28.0836L33.5531 28.0723ZM65.1365 55.5C64.7802 54.8085 64.4235 54.1162 64.2311 53.3585L64.2243 53.3471C64.8987 53.8316 65.5184 54.388 66.0724 55.0065C66.591 55.5239 67.1101 56.0407 67.6294 56.5575C69.122 58.0433 70.6148 59.5293 72.0939 61.0303C72.5209 61.4233 72.9022 61.8633 73.2304 62.3419C71.662 62.3987 70.0935 62.3805 68.5273 62.3419C67.9817 61.1729 67.4014 60.0246 66.8213 58.8768C66.3839 58.0113 65.9467 57.1462 65.5246 56.2726C65.4009 56.013 65.2688 55.7566 65.1365 55.5Z" fill="#333333"/>
</svg>
