<svg width="120" height="120" viewBox="0 0 120 120" fill="none" xmlns="http://www.w3.org/2000/svg">
<path d="M60 120C93.138 120 120 93.138 120 60C120 26.862 93.138 0 60 0C26.862 0 0 26.862 0 60C0 93.138 26.862 120 60 120Z" fill="#EDF0F4"/>
<path d="M69.3796 93.0442C69.2042 92.8688 69.0288 92.6934 68.8534 92.6934C64.8191 91.8164 60.7848 90.4131 57.2767 88.3083C49.9097 83.9232 44.9984 77.4332 44.823 69.8908C44.823 67.0844 45.3492 64.2779 46.577 61.6468C47.2786 59.8928 51.4883 53.9291 52.0146 52.8766C54.821 48.4915 53.944 48.8423 49.9097 43.4048L44.2968 35.1608L40.6133 29.5479C38.5084 30.9511 36.4036 32.7051 34.4741 34.4592C30.6152 38.3181 27.6334 43.2294 25.8793 48.4915C24.1253 53.7536 23.5991 59.3666 24.3007 64.8041C25.0023 70.2416 27.1072 75.5038 30.2644 80.0643C33.4217 84.6248 37.6314 88.4837 42.3673 91.1147C29.9136 81.9937 24.1253 68.1368 28.8612 54.2799C30.089 50.5964 32.0185 47.0883 34.4741 43.931L38.5084 49.8948C38.6838 50.2456 38.8592 50.5964 38.8592 51.1226C38.8592 51.4734 38.6838 51.9996 38.5084 52.3504C36.579 54.8061 35.0003 57.4371 33.9479 60.419C28.6858 75.6792 42.8935 91.4655 57.8029 94.0966C60.6094 94.6228 65.8715 95.149 68.678 94.4474C68.8534 94.4474 69.0288 94.272 69.0288 94.272C69.2042 94.0966 69.2042 94.0966 69.2042 93.9212C69.2042 93.7458 69.2042 93.5704 69.2042 93.395C69.555 93.395 69.555 93.2196 69.3796 93.0442Z" fill="url(#paint0_linear)"/>
<path d="M50.4361 26.7414C50.6116 26.9168 50.787 27.0922 50.9624 27.0922C54.9967 27.9692 59.031 29.3725 62.539 31.4773C69.906 35.8624 74.8173 42.3524 74.9927 49.8948C74.9927 52.7012 74.4665 55.5077 73.2387 58.1387C72.5371 59.8928 68.3274 65.8565 67.8012 66.909C64.9947 71.2941 65.8717 70.9433 69.906 76.3808L75.5189 84.6248L79.3778 90.2377C81.4827 88.8345 83.5875 87.0804 85.517 85.3264C89.3759 81.4675 92.3577 76.5562 94.1118 71.2941C95.8658 66.0319 96.392 60.419 95.6904 54.9815C94.9888 49.5439 92.884 44.2818 89.7267 39.7213C86.5694 35.1608 82.3597 31.3019 77.6238 28.6708C90.0775 37.7919 95.8658 51.6488 90.9545 65.5057C89.7267 69.1892 87.7972 72.6973 85.3416 75.8546L81.3073 69.8908C81.1319 69.54 80.9565 69.1892 80.9565 68.663C80.9565 68.3122 81.1319 67.786 81.3073 67.4352C83.2367 64.9795 84.8154 62.3485 85.8678 59.3666C91.1299 44.1064 76.9222 28.32 62.0128 25.689C59.2064 25.1628 53.9442 24.6365 51.1378 25.3382C50.9624 25.3382 50.787 25.5136 50.787 25.5136C50.4361 25.5136 50.2607 25.689 50.2607 25.8644C50.2607 26.0398 50.2607 26.2152 50.2607 26.3906C50.2607 26.3906 50.2607 26.566 50.4361 26.7414Z" fill="url(#paint1_linear)"/>
<defs>
<linearGradient id="paint0_linear" x1="53.2637" y1="107.198" x2="91.0566" y2="75.3614" gradientUnits="userSpaceOnUse">
<stop stop-color="#174E5B"/>
<stop offset="0.07" stop-color="#195A6C"/>
<stop offset="0.21" stop-color="#1E779A"/>
<stop offset="0.4" stop-color="#27A7E3"/>
<stop offset="0.47" stop-color="#2ABAFF"/>
<stop offset="0.7" stop-color="#1DDAF0"/>
<stop offset="1" stop-color="#0EFFE0"/>
</linearGradient>
<linearGradient id="paint1_linear" x1="66.4759" y1="12.6844" x2="28.7759" y2="44.7676" gradientUnits="userSpaceOnUse">
<stop stop-color="#174E5B"/>
<stop offset="0.07" stop-color="#195A6C"/>
<stop offset="0.21" stop-color="#1E779A"/>
<stop offset="0.4" stop-color="#27A7E3"/>
<stop offset="0.47" stop-color="#2ABAFF"/>
<stop offset="0.7" stop-color="#1DDAF0"/>
<stop offset="1" stop-color="#0EFFE0"/>
</linearGradient>
</defs>
</svg>
