<svg width="120" height="120" viewBox="0 0 120 120" fill="none" xmlns="http://www.w3.org/2000/svg">
<circle cx="60" cy="60" r="60" fill="#DF1A14"/>
<path fill-rule="evenodd" clip-rule="evenodd" d="M59.1609 44.5301C58.6846 43.3892 57.3758 42.7356 56.2246 43.1021V43.1058C55.2059 43.3801 54.7098 44.3436 54.2409 45.2545L54.2408 45.2546L54.2408 45.2548C54.1608 45.4101 54.0816 45.5639 54.0008 45.7125C50.9902 51.5015 47.9487 57.2719 44.916 63.0255L44.9158 63.0258L44.9156 63.0261C43.2264 66.2309 41.5399 69.4304 39.8631 72.6252C39.2546 73.6454 39.4023 74.95 40.2231 75.806C40.9132 76.5786 41.9002 76.5558 42.8566 76.5337C43.163 76.5267 43.4663 76.5197 43.7556 76.5389C43.9028 76.5389 44.0552 76.5419 44.2107 76.5448C45.3542 76.5668 46.6659 76.5919 47.3294 75.4812C48.1339 74.0409 48.8847 72.5567 49.6377 71.0685L49.6377 71.0684C50.3343 69.6915 51.0327 68.3111 51.777 66.9586C52.6883 65.2472 55.4258 65.5306 56.0633 67.325C56.5575 68.5835 57.0095 69.8685 57.4622 71.1555L57.4623 71.1558L57.4623 71.156L57.4624 71.1561L57.4624 71.1563C57.9922 72.6622 58.5229 74.171 59.1234 75.6436C59.8771 77.438 62.6147 77.438 63.4509 75.7267C65.9951 70.935 68.549 66.1541 71.1028 61.3734L71.1045 61.3702L71.1047 61.3699C73.5716 56.7518 76.0384 52.1339 78.4961 47.5069C79.5312 45.9165 78.1811 43.5932 76.3549 43.7141C75.8645 43.7596 75.3305 43.7282 74.7879 43.6962C73.3965 43.6143 71.9481 43.529 71.0335 44.7303C70.3246 45.9633 69.6737 47.2216 69.0239 48.4781C68.2541 49.9665 67.4856 51.4522 66.6235 52.8902C65.6747 54.356 63.2484 54.152 62.5359 52.5615C61.8662 51.0745 61.2474 49.5612 60.6297 48.0504C60.1473 46.8708 59.6656 45.6928 59.1609 44.5301ZM44.0331 43.7972C42.6443 43.7156 41.2519 43.7156 39.8631 43.7972H39.8668C38.9518 43.8387 38.2768 44.6132 37.8793 45.3876C37.0037 47.0451 36.1283 48.7027 35.253 50.3602L35.2459 50.3737L35.2237 50.4158C31.2648 57.912 27.3076 65.4052 23.3478 72.8707C22.3165 74.3781 23.7453 76.622 25.4516 76.5427C25.8245 76.5427 26.2001 76.5514 26.5769 76.5601H26.5769H26.577C27.6059 76.5839 28.6436 76.6079 29.6592 76.4558C30.6296 76.1945 31.0984 75.2827 31.5405 74.4228L31.5405 74.4227C31.6417 74.226 31.7414 74.032 31.8454 73.8492C33.8738 70.0001 35.9101 66.1517 37.948 62.3003C40.5744 57.3366 43.2035 52.3679 45.8219 47.386C46.5757 45.958 45.5819 43.9596 44.0331 43.7972ZM89.1388 43.8765C90.0913 43.5925 91.0767 43.6191 92.0638 43.6458C92.639 43.6613 93.2149 43.6768 93.7851 43.6309C93.9983 43.6384 94.2219 43.6366 94.4503 43.6348C95.4955 43.6265 96.6419 43.6173 97.3589 44.4885C98.4314 45.5916 98.1089 47.6694 96.7589 48.3645C95.6322 49.0859 94.5118 49.8278 93.39 50.5707L93.3898 50.5709C91.786 51.633 90.1791 52.697 88.5463 53.7062C86.795 54.9264 84.215 52.8487 84.9687 50.8087C85.365 49.8506 85.857 48.9367 86.3489 48.0228L86.349 48.0227C86.695 47.38 87.041 46.7372 87.3538 46.0789C87.4179 45.9587 87.4811 45.8332 87.5455 45.7056C87.918 44.9671 88.3266 44.1567 89.1388 43.8765ZM78.5374 68.345C77.7836 67.937 76.7899 67.7708 75.9949 68.2619C75.2787 68.592 74.9186 69.388 74.5938 70.1061C74.558 70.1851 74.5227 70.2632 74.4873 70.3396C74.3057 70.7287 74.1066 71.1061 73.9077 71.4832C73.5852 72.0947 73.2632 72.7052 73.0173 73.3618C72.4623 74.8276 73.6548 76.622 75.1623 76.622C77.1735 76.6472 79.2013 76.6388 81.2347 76.6305C82.2534 76.6263 83.2736 76.622 84.2937 76.622C85.7225 76.7429 86.9563 75.3187 86.795 73.8492C86.7575 72.7498 85.805 71.9754 84.89 71.5674C83.5451 70.9279 82.2164 70.2394 80.8938 69.554C80.1069 69.1462 79.3222 68.7396 78.5374 68.345Z" fill="white"/>
</svg>
