<svg width="120" height="120" viewBox="0 0 120 120" fill="none" xmlns="http://www.w3.org/2000/svg">
<circle cx="60" cy="60" r="60" fill="#EDF0F4"/>
<path fill-rule="evenodd" clip-rule="evenodd" d="M28 41.4533L59.963 23L91.9261 41.4533V78.36L59.963 96.8133L28 78.36V41.4533ZM36.0831 68.7853L60.6165 82.778L84.1555 69.1546L70.3475 61.1852L73.1318 59.5657L67.5774 56.3836L64.8214 57.9889L60.9432 55.7444L64.3384 53.784L58.784 50.6019L55.4172 52.5623L48.8257 48.7551L60.6023 41.9647L76.8822 51.298L82.8486 47.8317L60.6023 35.146L37.0207 48.7551L49.536 55.9859L47.1778 57.3496L52.7323 60.5317L55.0763 59.168L58.9544 61.4125L55.9854 63.1314L61.5257 66.3135L64.4805 64.6088L72.3789 69.1688L60.6023 75.9592L36.1825 61.9807L36.0831 68.7853Z" fill="black"/>
</svg>
