<svg width="120" height="120" viewBox="0 0 120 120" fill="none" xmlns="http://www.w3.org/2000/svg">
<circle cx="60" cy="60" r="60" fill="#102044"/>
<path fill-rule="evenodd" clip-rule="evenodd" d="M93.5419 77.1116C93.5269 75.3154 92.4087 73.7104 90.7201 73.0616V48.0234C92.4458 48.0047 93.9954 46.963 94.663 45.3725C95.3307 43.7821 94.9886 41.9473 93.7927 40.7038C92.5968 39.4603 90.7758 39.0461 89.1592 39.6498C88.0747 39.646 87.0353 40.0435 86.2361 40.7635L64.3676 28.2462C64.6381 26.9622 64.3142 25.6248 63.4861 24.6065C62.658 23.5882 61.4142 22.9979 60.1012 23.0001C58.8262 22.9956 57.6133 23.5501 56.7829 24.517C55.9525 25.484 55.5882 26.7662 55.786 28.025L33.3847 40.8497C32.0681 39.6049 30.1214 39.2965 28.4841 40.0735C26.8444 40.8497 25.865 42.5484 26.0151 44.3409C26.1727 46.1391 27.428 47.6519 29.167 48.1396V72.9492C27.0793 73.5329 25.7452 75.5696 26.0451 77.7153C26.3576 79.8619 28.2048 81.4504 30.3753 81.439C31.257 81.4412 32.1184 81.1743 32.8443 80.674L44.469 87.3151V87.4464H44.7204L55.7522 93.7575C55.8116 96.1588 57.8072 98.0574 60.21 97.9987C61.4215 97.9789 62.5697 97.455 63.3782 96.5531C64.1866 95.6512 64.582 94.4531 64.4689 93.2475L87.0954 80.9103C88.4476 81.6423 90.0846 81.6139 91.4106 80.8353C92.7322 80.0603 93.5434 78.6429 93.5419 77.1116ZM75.2681 84.6039V63.2931H75.2531L75.2343 63.1918L75.2193 62.9593L74.6977 62.7118L71.4219 60.7619L74.8478 58.7144L75.3844 58.4632L75.4219 57.1657H75.4369V37.351L84.9416 42.7959C84.8327 43.1822 84.7765 43.5797 84.7765 43.9772C84.7853 46.0473 86.2528 47.8243 88.2849 48.2258V72.8629C86.9444 73.1352 85.81 74.0215 85.222 75.2557C84.634 76.49 84.6607 77.9287 85.2943 79.1403L75.2681 84.6039ZM60.1087 31.6586C58.8629 31.6586 57.6772 31.1337 56.8479 30.2074L46.9043 35.9036V56.9482L50.9868 59.3781L56.1425 56.3482C55.9271 55.2196 56.2282 54.054 56.9633 53.1706C57.6983 52.2872 58.7902 51.7788 59.9398 51.7845C61.061 51.782 62.1274 52.2685 62.86 53.1166C63.5926 53.9648 63.9185 55.0902 63.7522 56.1982L69.0767 59.3631L73.0242 57.0007V35.9673L63.2156 30.3537C62.3974 31.1876 61.2774 31.6567 60.1087 31.6549V31.6586ZM66.724 60.7956L62.6603 63.2406C61.1823 61.7887 58.824 61.7524 57.302 63.1581L53.3057 60.7769L57.3207 58.4482C58.8385 59.8291 61.1694 59.7913 62.6415 58.3619L66.724 60.7956ZM34.4128 78.7915L44.469 84.5514V63.9568L44.4878 63.2931L44.6566 63.1243L45.4972 62.6256L48.6191 60.7956L45.7973 59.1306L44.4878 58.4632V57.6644H44.4728V37.2835L34.6117 42.9309C35.1933 45.1809 33.8612 47.4834 31.6098 48.1246V72.9642C32.7993 73.3091 33.7862 74.1454 34.3227 75.2554C34.8593 76.3691 34.8931 77.6553 34.4128 78.7915ZM63.5833 90.9976C62.7653 89.9026 61.4783 89.2651 60.1087 89.2651C58.574 89.2614 57.1519 90.0563 56.3639 91.3613L46.8893 85.9352V64.5081L50.9193 62.1606L56.1462 65.258C55.9487 66.3773 56.257 67.5266 56.9883 68.397C57.7196 69.2675 58.7988 69.7698 59.9361 69.7692C62.0749 69.7692 63.801 68.0555 63.801 65.9368C63.801 65.7493 63.786 65.5618 63.7484 65.3743L69.0767 62.1756L72.8516 64.4256V85.9352L63.5833 90.9976Z" fill="white"/>
</svg>
