<svg width="120" height="120" viewBox="0 0 120 120" fill="none" xmlns="http://www.w3.org/2000/svg">
<circle cx="60" cy="60" r="60" fill="#55DDFF"/>
<path fill-rule="evenodd" clip-rule="evenodd" d="M51.7648 18.7483C46.9745 23.99 44.3067 30.8327 44.2826 37.9397C44.2648 42.6061 45.5057 47.1906 47.874 51.2087C49.2582 53.8325 49.5949 54.957 49.0338 54.957C48.0289 55.4534 47.0656 56.03 46.1531 56.6813C38.8286 61.2591 34.1081 69.0489 33.4333 77.6718C32.5206 84.5984 34.6961 91.5764 39.3817 96.7507C39.8712 97.1854 40.2769 97.7063 40.5789 98.2876C40.5789 99.637 35.4161 96.6383 30.8146 92.89C22.1956 85.7742 16.6261 75.6197 15.2516 64.5152C14.7615 59.5109 14.9882 54.462 15.925 49.522C17.0548 44.1584 19.2149 39.0661 22.2848 34.5287C28.6435 24.9601 38.3914 18.1676 49.5575 15.5248C50.5044 15.2831 51.467 15.1078 52.4382 15C53.2238 15 53.2238 15.075 53.2238 16.1245C53.2238 17.174 53.0742 17.4364 51.7648 18.7483ZM79.5612 19.0482C91.296 25.3585 99.6287 36.5633 102.307 49.6344C102.9 52.5938 103.114 55.6168 102.943 58.6304C103.199 63.3696 102.499 68.1118 100.886 72.5741C96.4688 85.5518 86.4294 95.831 73.5754 100.537C68.5998 102.298 60.4067 103.648 60.4067 102.673C60.4067 102.373 60.9679 102.111 62.2773 101.773C68.9984 99.7049 74.6994 95.1835 78.2518 89.1042C78.813 88.1671 78.8878 87.9422 78.5885 87.5674C78.2892 87.1925 77.9899 87.38 76.4561 89.0292C73.0752 92.6595 68.4538 94.881 63.5119 95.2514C59.7747 95.9717 55.9142 94.9357 53.0368 92.4402C50.4995 89.8949 49.1427 86.4011 49.2956 82.807C49.1101 79.0356 49.722 75.2674 51.0914 71.7495C53.1924 65.6267 57.6707 60.6126 63.5119 57.8432C63.9639 57.7212 64.3848 57.504 64.7464 57.206C64.4359 56.8312 64.073 56.5013 63.6615 56.2315C61.6044 54.5175 59.825 52.4943 58.3865 50.2342C56.3247 46.3019 55.2342 41.9316 55.2066 37.4899C55.3423 34.5892 55.8451 31.7175 56.703 28.9437C57.5053 25.0462 60.2018 21.8098 63.886 20.3226C66.4717 19.5512 69.2709 20.2885 71.1437 22.2342C73.1889 24.2688 74.2065 27.1207 73.9121 29.9933C74.0726 33.521 73.0882 37.006 71.1063 39.9263C70.171 41.3132 70.171 42.0628 71.6675 43.1498C73.298 44.6271 75.8081 44.5272 77.3165 42.9249C80.1729 39.7407 81.5343 35.4848 81.0577 31.2302C80.9362 27.1958 79.6354 23.2858 77.3165 19.9853C76.9207 19.4941 76.6165 18.9354 76.4187 18.336C76.4187 17.6238 77.4662 17.8862 79.5612 19.0482Z" fill="white"/>
</svg>
