<svg width="120" height="120" viewBox="0 0 120 120" fill="none" xmlns="http://www.w3.org/2000/svg">
<circle cx="60" cy="60" r="60" fill="#EDF0F4"/>
<path fill-rule="evenodd" clip-rule="evenodd" d="M44.2799 77.976L25.9279 80.04L36.7039 55.176L25.6719 40.136L52.4959 37.08L59.7839 20.32L75.7519 42.024L94.1039 39.96L83.3759 64.704L94.3279 79.64L67.6399 82.68L60.2399 99.68L44.2799 77.976ZM51.9039 76.328C51.1999 76.672 50.4479 76.96 49.6719 77.176L48.9679 77.368L59.3119 91.432L62.9839 82.984L62.3199 82.896C58.7039 82.44 55.4159 80.488 53.2959 77.56L52.2639 76.136L51.9039 76.328ZM56.6479 75.12L48.3039 63.576L59.0879 62.224L69.8879 76.52L76.0959 62.496L76.6079 62.92C77.1599 63.384 77.6559 63.912 78.0879 64.496L86.7599 76.328L64.9839 78.808C64.6559 78.848 64.3199 78.864 63.9839 78.864C61.0879 78.864 58.3439 77.464 56.6479 75.12ZM48.6639 49.52C45.4319 49.864 42.6159 51.936 41.3199 54.928L32.5759 75.112L47.1039 73.48C47.8239 73.4 48.5279 73.232 49.2079 72.984L49.8319 72.752L40.8399 60.336L58.5679 58.088L62.7839 48.016L48.6639 49.52ZM68.9519 68.4L62.3839 59.704L69.3119 43.152L54.1199 44.76L54.2319 44.104C54.3599 43.384 54.5679 42.688 54.8559 42.024L60.7119 28.568L73.7279 46.28C75.6639 48.904 76.0399 52.384 74.7199 55.368L72.9599 59.352L68.9519 68.4ZM78.3439 45.912L78.5999 46.528C80.0079 49.896 79.9759 53.736 78.5039 57.056L77.7919 58.656L78.1359 58.888C78.7919 59.328 79.4079 59.84 79.9759 60.408L80.4959 60.92L87.4479 44.88L78.3439 45.912ZM38.7759 51L33.2399 43.448L50.6399 41.464L50.4399 42.184C50.2079 43.032 50.0559 43.904 49.9999 44.776L49.9679 45.2L48.2319 45.384C44.6879 45.76 41.3839 47.616 39.1839 50.472L38.7759 51Z" fill="url(#paint0_linear)"/>
<path d="M56.1285 100C44.6085 98.888 34.2565 92.896 27.4805 83.4L32.1205 82.88C32.8885 83.824 33.7045 84.728 34.5445 85.576C39.5765 90.632 45.8725 94.04 52.7765 95.448L56.1285 100Z" fill="url(#paint1_linear)"/>
<path d="M65.7917 95.704C73.2637 94.496 80.0557 91 85.4557 85.576C85.9357 85.088 86.4237 84.568 86.9117 84.024L92.5357 83.384C85.7837 92.872 75.4477 98.872 63.9277 100L65.7917 95.704Z" fill="url(#paint2_linear)"/>
<path d="M93.6797 72.824C95.2157 68.736 95.9997 64.424 95.9997 60C95.9997 56.096 95.3837 52.256 94.1757 48.592L96.4317 43.392C98.7997 48.616 99.9997 54.2 99.9997 60C99.9997 65.792 98.7997 71.368 96.4397 76.592L93.6797 72.824Z" fill="url(#paint3_linear)"/>
<path d="M23.584 76.648C21.208 71.408 20 65.816 20 60C20 54.152 21.216 48.528 23.624 43.272L26.376 47.032C24.8 51.16 24 55.52 24 60C24 63.92 24.616 67.768 25.832 71.448L23.584 76.648Z" fill="url(#paint4_linear)"/>
<path d="M27.6484 36.368C34.4164 27.024 44.6884 21.104 56.1044 20L54.2404 24.288C46.7604 25.488 39.9524 28.992 34.5444 34.424C34.1364 34.832 33.7284 35.272 33.3204 35.72L27.6484 36.368Z" fill="url(#paint5_linear)"/>
<path d="M87.8883 37.12C87.1203 36.176 86.3043 35.272 85.4563 34.424C80.4323 29.376 74.1443 25.968 67.2563 24.56L63.9043 20C75.4163 21.12 85.7523 27.112 92.5203 36.6L87.8883 37.12Z" fill="url(#paint6_linear)"/>
<defs>
<linearGradient id="paint0_linear" x1="54.6787" y1="128.264" x2="124.607" y2="75.9266" gradientUnits="userSpaceOnUse">
<stop stop-color="#009DDE"/>
<stop offset="0.5" stop-color="#694D9F"/>
<stop offset="1" stop-color="#ED3554"/>
</linearGradient>
<linearGradient id="paint1_linear" x1="86.7039" y1="117.653" x2="113.525" y2="42.549" gradientUnits="userSpaceOnUse">
<stop stop-color="#009DDE"/>
<stop offset="0.5" stop-color="#694D9F"/>
<stop offset="1" stop-color="#ED3554"/>
</linearGradient>
<linearGradient id="paint2_linear" x1="106.014" y1="134.932" x2="131.289" y2="60.0096" gradientUnits="userSpaceOnUse">
<stop stop-color="#009DDE"/>
<stop offset="0.5" stop-color="#694D9F"/>
<stop offset="1" stop-color="#ED3554"/>
</linearGradient>
<linearGradient id="paint3_linear" x1="51.8966" y1="274.365" x2="116.471" y2="272.025" gradientUnits="userSpaceOnUse">
<stop stop-color="#009DDE"/>
<stop offset="0.5" stop-color="#694D9F"/>
<stop offset="1" stop-color="#ED3554"/>
</linearGradient>
<linearGradient id="paint4_linear" x1="15.4859" y1="237.354" x2="80.0755" y2="234.997" gradientUnits="userSpaceOnUse">
<stop stop-color="#009DDE"/>
<stop offset="0.5" stop-color="#694D9F"/>
<stop offset="1" stop-color="#ED3554"/>
</linearGradient>
<linearGradient id="paint5_linear" x1="57.4393" y1="85.6569" x2="82.2041" y2="10.8071" gradientUnits="userSpaceOnUse">
<stop stop-color="#009DDE"/>
<stop offset="0.5" stop-color="#694D9F"/>
<stop offset="1" stop-color="#ED3554"/>
</linearGradient>
<linearGradient id="paint6_linear" x1="73.1494" y1="104.178" x2="100.033" y2="29.0677" gradientUnits="userSpaceOnUse">
<stop stop-color="#009DDE"/>
<stop offset="0.5" stop-color="#694D9F"/>
<stop offset="1" stop-color="#ED3554"/>
</linearGradient>
</defs>
</svg>
