<svg width="120" height="120" viewBox="0 0 120 120" fill="none" xmlns="http://www.w3.org/2000/svg">
<path fill-rule="evenodd" clip-rule="evenodd" d="M60 0C93.132 0 120 26.868 120 60C120 93.132 93.132 120 60 120C26.868 120 0 93.132 0 60C0 26.868 26.868 0 60 0Z" fill="#B41514"/>
<path d="M59.5205 99C55.0801 99 51.4805 95.4004 51.4805 90.96C51.4805 86.5196 55.0801 82.92 59.5205 82.92C63.9608 82.92 67.5605 86.5196 67.5605 90.96C67.5605 95.4004 63.9608 99 59.5205 99Z" fill="white"/>
<path d="M59.5205 43.56C55.0801 43.56 51.4805 39.9604 51.4805 35.52C51.4805 31.0796 55.0801 27.48 59.5205 27.48C63.9608 27.48 67.5605 31.0796 67.5605 35.52C67.5605 39.9604 63.9608 43.56 59.5205 43.56Z" fill="white"/>
<path d="M26.6396 77.52V66.36H92.3997V77.52H26.6396Z" fill="white"/>
<path d="M59.5203 60.84C40.7643 60.84 25.5003 45.96 24.8643 27.36H36.7563C37.3803 39.396 47.3403 48.96 59.5203 48.96C71.7003 48.96 81.6603 39.396 82.2843 27.36H94.1763C93.5403 45.96 78.2763 60.84 59.5203 60.84Z" fill="white"/>
</svg>
