<svg width="120" height="120" viewBox="0 0 120 120" fill="none" xmlns="http://www.w3.org/2000/svg">
<circle cx="60" cy="60" r="60" fill="#00AEEF"/>
<path d="M59.3707 54.6478C60.2592 54.494 61.0432 54.1603 61.7301 53.654C62.4171 53.1478 63.0667 52.2928 63.6752 51.1228L77.2085 24.9217C77.7387 24.0442 78.3883 23.3467 79.1349 22.7992C79.902 22.2662 80.8156 21.987 81.7483 22.0005H90.3312L73.4789 52.8178C72.7323 54.0853 71.8848 55.1165 70.9403 55.9153C69.9965 56.7035 68.9208 57.3168 67.7632 57.7265C69.5701 58.1952 71.0821 58.9565 72.3179 60.0252C73.5349 61.0752 74.696 62.5602 75.7749 64.469L92 97H82.5547C80.6469 97 79.1125 95.9688 77.9552 93.925L64.6571 66.3589C63.9701 65.1289 63.2235 64.2552 62.4171 63.7265C61.6144 63.2015 60.5915 62.8902 59.3744 62.8115V76.7989H51.9488V62.7515H46.4907V97H36V22.0005H46.4907V54.7678H51.9488V38.5604H59.3744V54.6478H59.3707Z" fill="white"/>
</svg>
