<svg width="120" height="120" viewBox="0 0 120 120" fill="none" xmlns="http://www.w3.org/2000/svg">
<circle cx="60" cy="60" r="60" fill="#EDF0F4"/>
<path d="M60.7283 35.1552C60.7283 35.1552 67.2805 37.7761 72.9591 50.735C73.6508 53.0096 74.0903 55.3534 74.2696 57.7241C74.2696 57.7241 74.5608 66.3148 68.2998 68.9357C66.6513 69.4109 65.5988 71.0207 65.8245 72.7214C66.1157 75.7791 66.6981 80.5841 66.6981 81.6033C66.5144 83.3221 65.0776 84.634 63.3492 84.661C61.1761 84.9715 58.97 84.9715 56.797 84.661C54.6129 84.0786 54.3217 82.9138 54.3217 82.9138C54.3217 82.9138 53.3024 81.4577 54.0305 75.0511C54.0305 75.0511 55.4865 70.5373 51.264 68.7901C47.0414 67.0428 45.5853 59.3257 45.5853 59.3257C45.5853 59.3257 44.2749 51.7542 52.4288 41.1251C52.4288 41.1251 57.525 34.7184 60.5827 35.0096" fill="url(#paint0_linear)"/>
<path d="M53.1564 39.3633L52.7196 39.8001L53.1564 39.3633Z" fill="url(#paint1_linear)"/>
<path d="M49.6621 43.8915C47.4255 42.3076 44.9041 41.1705 42.2363 40.5426C39.5556 39.9719 36.8232 39.6791 34.0824 39.669H32.1895C30.9102 39.6216 29.6785 40.1571 28.8406 41.125C28.096 42.0131 27.8249 43.2056 28.1126 44.3283C28.9882 50.3443 31.6224 55.9672 35.684 60.4905C37.7245 62.656 40.0228 64.5631 42.5275 66.1691C45.1117 67.6597 47.9115 68.7403 50.827 69.3724C46.4588 67.4796 45.0028 59.6169 45.0028 59.6169C40.7802 56.996 38.0137 53.0647 35.9752 47.2404H36.1209C39.8201 47.3223 43.4142 48.4866 46.4588 50.5894C47.1633 48.2005 48.2447 45.9394 49.6621 43.8915Z" fill="url(#paint2_linear)"/>
<path d="M73.3958 50.5894C76.4314 48.4686 80.0312 47.3024 83.7338 47.2405H83.8794C81.8409 53.0647 78.9288 56.996 74.7062 59.6169V58.7433C74.5606 61.073 73.687 67.334 68.5908 69.5181C71.6592 68.8624 74.6067 67.7325 77.3271 66.1692C79.9503 64.7312 82.2734 62.8035 84.1706 60.4906C88.1212 55.8945 90.7394 50.3055 91.7421 44.3284C92.0297 43.2057 91.7587 42.0132 91.014 41.1251C90.1365 40.2125 88.9309 39.6884 87.6651 39.669H85.7722C83.0307 39.6641 80.2967 39.957 77.6183 40.5426C74.8774 41.1635 72.2977 42.3542 70.0469 44.0372C71.3788 46.1041 72.5007 48.2991 73.3958 50.5894Z" fill="url(#paint3_linear)"/>
<defs>
<linearGradient id="paint0_linear" x1="45.4397" y1="84.8928" x2="74.1968" y2="84.8928" gradientUnits="userSpaceOnUse">
<stop stop-color="#29DCE8"/>
<stop offset="1" stop-color="#29DC93"/>
</linearGradient>
<linearGradient id="paint1_linear" x1="52.7341" y1="84.8358" x2="53.1127" y2="84.8358" gradientUnits="userSpaceOnUse">
<stop stop-color="#29DCE8"/>
<stop offset="1" stop-color="#29DC93"/>
</linearGradient>
<linearGradient id="paint2_linear" x1="28.1999" y1="84.4734" x2="50.8707" y2="84.4734" gradientUnits="userSpaceOnUse">
<stop stop-color="#29DCE8"/>
<stop offset="1" stop-color="#29DC93"/>
</linearGradient>
<linearGradient id="paint3_linear" x1="68.6345" y1="84.4734" x2="91.7421" y2="84.4734" gradientUnits="userSpaceOnUse">
<stop stop-color="#29DCE8"/>
<stop offset="1" stop-color="#29DC93"/>
</linearGradient>
</defs>
</svg>
