<svg width="120" height="120" viewBox="0 0 120 120" fill="none" xmlns="http://www.w3.org/2000/svg">
<circle cx="60" cy="60" r="60" fill="#EDF0F4"/>
<path opacity="0.2" d="M38.389 79.99L41.7311 90L64.6722 60L41.7311 30L38.2261 39.7928L53.465 59.9946L38.389 79.99Z" fill="#FF564F"/>
<path d="M87.2905 89.9946H76.4036L53.457 59.9946L76.4036 30H87.2905L64.667 59.9946L87.2905 89.9946Z" fill="#F08179"/>
<path d="M33 30H41.7258V89.9946H33V30Z" fill="#FF564F"/>
<path d="M87.2988 89.9946H76.4119L53.4653 59.9946L76.4119 30H87.2988L64.6753 59.9946L87.2988 89.9946Z" fill="#FF564F"/>
<path d="M87.2988 89.9946H76.4119L53.4653 59.9946L76.4119 30H87.2988L64.6753 59.9946L87.2988 89.9946Z" fill="#FF564F"/>
<path d="M87.2988 89.9946H76.4119L53.4653 59.9946L76.4119 30H87.2988L64.6753 59.9946L87.2988 89.9946Z" fill="#FF564F"/>
<path d="M87.2988 89.9946H76.4119L53.4653 59.9946L76.4119 30H87.2988L64.6753 59.9946L87.2988 89.9946Z" fill="#FF564F"/>
</svg>
