<svg width="120" height="120" viewBox="0 0 120 120" fill="none" xmlns="http://www.w3.org/2000/svg">
<path d="M118.191 74.5143C110.178 106.657 77.6222 126.219 45.4752 118.204C13.3417 110.19 -6.22004 77.6324 1.79691 45.4918C9.80683 13.3451 42.3626 -6.21803 74.4997 1.79541C106.644 9.80884 126.205 42.3702 118.191 74.5149L118.191 74.5143H118.191Z" fill="#4F473B"/>
<path d="M62.123 59.8228L86.3413 83.8638C99.0689 70.3635 99.0689 49.282 86.3413 35.7818" fill="white"/>
<path d="M60.354 61.4142L36.4902 85.1008L60.354 95L84.2178 85.1008" fill="white"/>
<path d="M59.4717 58.9403L84.2215 34.3676L61.4139 25L38.7871 79.6248L59.4717 58.9403Z" fill="white"/>
<path d="M25.0001 59.8228C24.9823 68.7651 28.3991 77.3706 34.5449 83.8638L58.2315 26.7651" fill="white"/>
</svg>
