<svg width="120" height="120" viewBox="0 0 120 120" fill="none" xmlns="http://www.w3.org/2000/svg">
<circle cx="60" cy="60" r="60" fill="#EDF0F4"/>
<path d="M56.0005 59.5213L81.0005 73.8413C81.4096 74.0872 81.9195 74.0931 82.3342 73.8567C82.7488 73.6203 83.0036 73.1785 83.0005 72.7013V46.3213C83.0065 45.843 82.7514 45.3995 82.335 45.1642C81.9186 44.9289 81.407 44.9393 81.0005 45.1913L56.0005 59.5213Z" fill="#31CB9E"/>
<path d="M80.4705 38.8513L63.3805 26.2813C63.0211 26.0054 62.548 25.9265 62.1186 26.071C61.6893 26.2155 61.36 26.5643 61.2405 27.0013L55.0005 55.0013L80.3205 41.0013C80.7123 40.7997 80.9704 40.4081 81.0011 39.9685C81.0317 39.5289 80.8305 39.1053 80.4705 38.8513Z" fill="#31CB9E"/>
<path d="M63.3605 92.7513L80.4705 80.1813C80.8353 79.9248 81.0404 79.497 81.0118 79.052C80.9833 78.607 80.7251 78.2089 80.3305 78.0013L55.0005 64.0013L61.2405 92.0013C61.3456 92.4432 61.666 92.8026 62.093 92.9577C62.5199 93.1127 62.9962 93.0427 63.3605 92.7713" fill="#31CB9E"/>
<path d="M49.5004 59.0012L56.0004 28.6012C56.1019 28.0859 55.8809 27.5605 55.4416 27.2727C55.0022 26.9849 54.4322 26.9923 54.0004 27.2912L37.3504 40.0612C36.4958 40.7169 35.9964 41.7341 36.0004 42.8112V75.2112C35.9838 76.3024 36.4845 77.3371 37.3504 78.0012L53.9204 90.7312C54.3522 91.0302 54.9222 91.0376 55.3616 90.7498C55.8009 90.462 56.0219 89.9366 55.9204 89.4212L49.5004 59.0012Z" fill="#31CB9E"/>
</svg>
