<svg width="120" height="120" viewBox="0 0 120 120" fill="none" xmlns="http://www.w3.org/2000/svg">
<circle cx="60" cy="60" r="60" fill="black"/>
<path d="M94.3383 39.0747C93.1664 38.1508 91.7692 36.8888 89.2228 36.5733C86.834 36.2578 84.4002 37.8578 82.7552 38.917C81.1101 39.9761 78.0003 43.086 76.7157 44.0325C75.4312 44.9789 72.1411 45.8578 66.8453 49.0353C61.5496 52.2127 40.7721 65.5535 40.7721 65.5535L46.1806 65.6212L22.0679 78.038H24.4792L21.0088 80.6747C21.0088 80.6747 24.0736 81.4859 26.6426 79.8634V80.607C26.6426 80.607 55.3524 69.2944 60.8961 72.224L57.5158 73.2155C57.8087 73.2155 63.2622 73.5761 63.2622 73.5761C63.5302 75.8624 64.8022 77.9108 66.7327 79.1648C70.0228 81.3282 70.0904 82.5225 70.0904 82.5225C70.0904 82.5225 68.3777 83.2211 68.3777 84.1C68.3777 84.1 70.9017 83.3338 73.2453 83.4014C74.7328 83.4578 76.2081 83.6924 77.6397 84.1C77.6397 84.1 77.4594 83.1535 75.1834 82.5225C72.9073 81.8916 70.6538 79.4127 69.5496 78.0606C68.1735 76.3096 67.8224 73.963 68.6256 71.8859C69.4143 69.8352 72.1636 68.7085 77.8425 65.7789C84.5355 62.3085 86.0678 59.7395 87.0143 57.7338C87.9608 55.7282 89.358 51.7395 90.1467 49.8691C91.1383 47.4578 92.3552 46.1733 93.3692 45.4071C94.3833 44.6409 98.8904 42.9508 98.8904 42.9508C98.8904 42.9508 95.4425 39.9536 94.3383 39.0747Z" fill="white"/>
</svg>
