<svg width="120" height="120" viewBox="0 0 120 120" fill="none" xmlns="http://www.w3.org/2000/svg">
<circle cx="60" cy="60" r="60" fill="#EDF0F4"/>
<path d="M32.3601 51.8727L25 59.2314H39.719L32.3601 51.8727Z" fill="#A02870"/>
<path d="M39.7175 60.7686H25.0029L32.3599 68.1267L39.7175 60.7686Z" fill="#80286C"/>
<path d="M49.7003 50.7861L42.3408 43.4271V58.1442L49.7003 50.7861Z" fill="#C42C79"/>
<path d="M40.8043 58.1442V43.4271L33.4453 50.7861L40.8043 58.1442Z" fill="#A02870"/>
<path d="M50.7878 49.6987L58.1462 42.3412H43.4277L50.7878 49.6987Z" fill="#C42C79"/>
<path d="M50.7877 33.4453L43.4268 40.8048H58.1452L50.7877 33.4453Z" fill="#E4327F"/>
<path d="M68.1267 32.359L60.7686 25V39.7171L68.1267 32.359Z" fill="#0A8B4B"/>
<path d="M59.2317 39.7176V25L51.873 32.359L59.2317 39.7176Z" fill="#E4327F"/>
<path d="M49.7003 69.2121L42.3408 61.8545V76.5716L49.7003 69.2121Z" fill="#632A69"/>
<path d="M33.4463 69.2121L40.805 76.5702V61.8545L33.4463 69.2121Z" fill="#80286C"/>
<path d="M69.2139 49.6987L76.5725 42.3412H61.8555L69.2139 49.6987Z" fill="#167B55"/>
<path d="M61.8545 40.8043H76.5721L69.2135 33.4453L61.8545 40.8043Z" fill="#0A8B4B"/>
<path d="M58.1458 79.1937H43.4268L50.7857 86.5532L58.1458 79.1937Z" fill="#402863"/>
<path d="M50.7882 70.2998L43.4287 77.6574H58.1444L50.7882 70.2998Z" fill="#632A69"/>
<path d="M86.554 50.7861L79.1953 43.428V58.1437L86.554 50.7861Z" fill="#21695E"/>
<path d="M70.2998 50.7861L77.6593 58.145V43.4271L70.2998 50.7861Z" fill="#167B55"/>
<path d="M51.873 87.64L59.2312 94.9981V80.281L51.873 87.64Z" fill="#402863"/>
<path fill-rule="evenodd" clip-rule="evenodd" d="M76.5729 79.194L69.2134 86.5535L61.8538 79.194H76.5729ZM60.7686 94.9974V80.2815L68.1272 87.6399L60.7686 94.9974Z" fill="#223160"/>
<path d="M69.213 70.2998L61.8555 77.6574H76.5703L69.213 70.2998Z" fill="#1E4561"/>
<path d="M79.1953 61.8545V76.5707L86.5534 69.2121L79.1953 61.8545Z" fill="#245661"/>
<path d="M70.2998 69.212L77.6593 76.571V61.8539L70.2998 69.212Z" fill="#1E4561"/>
<path d="M87.6403 68.1268L94.9999 60.7678H80.2822L87.6403 68.1268Z" fill="#245661"/>
<path d="M87.6404 51.8727L80.2803 59.2314H94.9999L87.6404 51.8727Z" fill="#21695E"/>
</svg>
