<svg width="120" height="120" viewBox="0 0 120 120" fill="none" xmlns="http://www.w3.org/2000/svg">
<circle cx="60" cy="60" r="60" fill="#EDF0F4"/>
<path fill-rule="evenodd" clip-rule="evenodd" d="M19 60C19 82.6161 37.3839 101 60 101C82.6161 101 101 82.6161 101 60C101 37.3839 82.6161 19 60 19C37.3839 19 19 37.3839 19 60ZM22.4387 60C22.4387 39.2355 39.2355 22.4387 60 22.4387C80.7645 22.4387 97.5613 39.2355 97.5613 60C97.5613 80.7645 80.7645 97.5613 60 97.5613C39.2355 97.5613 22.4387 80.7645 22.4387 60Z" fill="url(#paint0_linear)"/>
<path d="M64.7616 35.4C68.4649 36.9871 70.3165 41.2193 68.7294 45.0548L56.9584 73.8871C55.3713 77.7226 51.1391 74.1516 47.4358 72.5645C43.7326 70.9774 41.881 72.0355 43.4681 68.2L55.2391 39.3677C56.6939 35.6645 60.9262 33.8129 64.7616 35.4Z" fill="url(#paint1_linear)"/>
<path d="M69.7872 78.6484H49.8162C45.8484 78.6484 42.542 75.4742 42.542 71.3742C42.542 70.4484 42.6743 69.5225 43.071 68.5967L48.3613 56.0322C48.3613 56.0322 47.9646 63.9677 56.4291 64.1H69.7872C73.7549 64.1 77.0613 67.2742 77.0613 71.3742C77.0613 75.4742 73.7549 78.6484 69.7872 78.6484Z" fill="url(#paint2_linear)"/>
<defs>
<linearGradient id="paint0_linear" x1="2.0379" y1="60" x2="60" y2="117.962" gradientUnits="userSpaceOnUse">
<stop stop-color="#324BCD"/>
<stop offset="1" stop-color="#3DBA8A"/>
</linearGradient>
<linearGradient id="paint1_linear" x1="38.9068" y1="54.3933" x2="63.2836" y2="72.098" gradientUnits="userSpaceOnUse">
<stop stop-color="#3DFFEF"/>
<stop offset="1" stop-color="#A80DE9"/>
</linearGradient>
<linearGradient id="paint2_linear" x1="28.5855" y1="65.7481" x2="40.7396" y2="94.0629" gradientUnits="userSpaceOnUse">
<stop stop-color="#50D3EE"/>
<stop offset="1" stop-color="#324BCD"/>
</linearGradient>
</defs>
</svg>
