<svg width="120" height="120" viewBox="0 0 120 120" fill="none" xmlns="http://www.w3.org/2000/svg">
<path fill-rule="evenodd" clip-rule="evenodd" d="M60 120C27 120 0 93.0006 0 59.7012C0.3 26.7019 27 -0.297518 60.3 0.00247602C93.3 0.30247 120 27.0019 120 60.6012C119.7 93.3006 93 120 60 120Z" fill="black"/>
<path d="M40.5977 54.2754H40.6337L41.2457 54.4914L41.8218 54.7075L42.4338 54.8875L43.0099 55.1395L43.622 55.3555L44.198 55.5716L44.8101 55.7876L45.3861 56.0036L45.9622 56.2196L46.5383 56.4356L47.1503 56.6517L47.7264 56.9037L48.3384 57.0837L48.9145 57.2997L49.5266 57.5158L50.1026 57.7678L50.7147 57.9838L51.2907 58.1638L51.8668 58.3798L52.4788 58.6319L53.0909 58.8479V57.9118V57.7678V57.0117V56.4716V56.0756V55.1395V54.2394V53.3033V52.4032V51.4311V50.5311V50.423H52.3708H51.6868H51.6148H50.8587H50.2826H50.0666H49.3105H48.9145H48.5185H47.7264H47.5104H46.9703H46.2142H46.1782H46.1422H45.4221H44.7741H44.6661H43.874H43.3699H42.0018H40.6337H40.5977H39.8056L39.2295 50.7111L37.8614 51.4311L36.4572 52.1872L35.0531 52.8713L33.721 53.5914L32.3168 54.3474L30.9127 55.0315L29.5446 55.7876L28.1404 56.5077L26.7723 57.1917L25.4041 57.9478L24.144 58.5959L24 79.2259L25.4041 80.198L26.7723 81.1701L28.1404 82.1062L29.5446 83.1143L30.9127 84.0864L32.3168 85.0585L32.9289 85.5266L33.721 84.5185L35.0531 82.7183L35.1971 82.5383L35.0531 82.4302L33.721 81.4581L32.3168 80.486L30.9127 79.514L29.5446 78.5419L28.1404 77.5338L27.7804 77.3177L27.8884 60.6121L28.1404 60.468L29.5446 59.784L30.9127 59.0999L32.3168 58.4158L33.721 57.7318L35.0531 57.0117L36.4572 56.3276L37.8614 55.6796L39.2295 54.9595L40.5977 54.2754Z" fill="url(#paint0_linear)"/>
<path d="M64.4319 93.6274L63.2798 94.0954L61.9837 94.6355L60.6876 95.1395L59.3914 95.6796L58.8154 95.8956L58.1313 95.5716L56.8352 94.8875L55.539 94.2754L54.2789 93.5914L52.9828 92.9433L51.6867 92.3312L50.3905 91.6472L49.0944 90.9991L47.7983 90.351L46.5021 89.703L45.206 89.0189L43.9819 88.4068L42.6858 87.7588L42.5417 87.6868V70.8371H41.3896H40.0935H38.7974V89.991L40.0935 90.6031L41.3896 91.2511L42.6858 91.9352L43.9819 92.5473L45.206 93.2313L46.5021 93.8794L47.7983 94.5275L49.0944 95.1755L50.3905 95.8236L51.6867 96.4716L52.9828 97.1197L54.2789 97.8038L55.539 98.4158L56.8352 99.0999L58.1313 99.712L58.6353 100L59.3914 99.64L60.6876 99.1719L61.9837 98.6319L63.2798 98.0918L64.5399 97.5878L65.8361 97.0837L64.5399 93.8434L64.4319 93.6274Z" fill="url(#paint1_linear)"/>
<path d="M87.4382 70.225L87.5102 78.1458L87.1862 78.4338L84.99 79.946L82.7938 81.5302L80.5975 83.1143L78.4013 84.6625L76.2051 86.2106L74.0449 87.7948L71.8487 89.3429L70.5525 90.279L69.6525 89.595L67.4922 87.9028L65.296 86.2466L63.0998 84.5545L60.9396 82.8983L60.5435 82.6103V74.0774L60.9396 73.7174L63.0998 71.4131L65.296 69.1449L67.4922 66.8407L69.6525 64.5725L71.7767 62.3402H69.6525H67.4922H65.296H63.0998H60.9396H58.7074H56.5111H54.3509H52.1547H49.9585H47.7983H45.6021L47.7983 64.6445L49.9585 66.9127L52.1547 69.1809L54.3509 71.4851L56.5111 73.7534L56.8352 74.0774V84.4104L58.7074 85.8866L60.9396 87.5788L63.0998 89.2349L65.296 90.9271L67.4922 92.5833L69.6525 94.2754L70.4445 94.8875L71.8487 93.8794L74.0449 92.3672L76.2051 90.7831L78.4013 89.1989L80.5975 87.6868L82.7938 86.1026L84.99 84.5184L87.1862 83.0063L89.3824 81.4221L91.1826 80.09L91.5426 70.369L89.3824 70.297L87.4382 70.225Z" fill="url(#paint2_linear)"/>
<path d="M27.5641 51.7912H27.8162L27.8522 41.2061L29.2563 40.306L31.0205 39.2619L32.7486 38.2178L34.4768 37.1377L36.205 36.0936L37.9692 35.0135L39.6613 33.9694L41.4255 32.9253L43.1537 31.8452L44.9179 30.7651H44.9539L46.61 31.7372L48.3742 32.7093L50.1024 33.7174L51.8306 34.6895L53.5587 35.6616L55.2869 36.6337L57.0151 37.6418L58.7072 38.6139L58.7792 38.4698L60.5074 35.3375L58.7792 34.3294L57.0151 33.3573L55.2869 32.3852L53.5587 31.4131L51.8306 30.405L50.1024 29.4329L48.3742 28.4608L46.61 27.4527L44.9179 26.4806L44.8459 26.4446L43.1537 27.4527L41.4255 28.5329L39.6613 29.613L37.9692 30.6931L36.205 31.7372L34.4768 32.7813L32.7486 33.8614L31.0205 34.9055L29.2563 35.9856L27.5641 37.0297L25.8 38.0738L24.1438 39.1179L24.0718 51.7552H25.8L27.5641 51.7912Z" fill="url(#paint3_linear)"/>
<path d="M95.2513 42.1062L94.3513 41.3861L93.4512 40.6661L92.5511 39.91L91.651 39.1899L90.7509 38.4698L89.8148 37.7498L88.9147 37.0297L88.0146 36.3096L87.0785 35.5536L86.3945 35.0495L86.1424 35.3375L85.2423 36.4536L84.3423 37.6058L84.0902 37.8938L84.3423 38.1458L85.2423 38.9019L86.1424 39.658L87.0785 40.414L88.0146 41.1701L88.9147 41.9622L89.8148 42.7183L90.7509 43.4743L91.1829 43.8344L91.2189 60.8641L90.7509 61.1881L89.8148 61.7642L88.9147 62.3402L88.0146 62.9163L87.0785 63.4924L86.1424 64.0684L85.2423 64.6445L84.3423 65.2205L83.4422 65.7966L82.5421 66.3726L81.642 66.9487L80.7059 67.5248L79.8058 68.1008L78.9057 68.6769L78.0056 69.2529L77.0695 69.829L76.1694 70.405L77.0695 71.8452L78.0056 73.2853L78.1496 73.5374L78.9057 73.0693L79.8058 72.5293L80.7059 71.9532L81.642 71.4131L82.5421 70.8011L83.4422 70.261L84.3423 69.685L85.2423 69.1449L86.1424 68.5689L87.0785 68.0288L88.0146 67.4167L88.9147 66.8767L89.8148 66.3006L90.7509 65.7606L91.651 65.1845L92.5511 64.6445L93.4512 64.0324L94.3513 63.4924L95.2513 62.9163V42.1062Z" fill="url(#paint4_linear)"/>
<path d="M65.5481 52.2592V53.1953V54.1314V55.0675V56.0396V57.0117V57.9478V58.8839V59.604L65.8361 59.4959L67.0602 59.0279L68.2843 58.5239L69.4724 58.0558L70.6966 57.5518L71.9207 57.0477L73.1088 56.5797L74.3329 56.0756L75.5571 55.6076L76.7452 55.1035L77.9693 54.6355L79.1574 54.1314V53.1953V52.8353V50.351V31.8452L77.7893 30.9811L76.3851 30.189L74.981 29.3969L73.6129 28.5329L72.2087 27.7408L70.8046 26.9487L69.4364 26.1206L68.0323 25.2925L66.6642 24.4644L65.26 23.6724L63.8559 22.8443L62.4877 22.0162L61.1196 21.2241L59.7155 20.432L58.9594 20L58.3113 20.36L56.9072 21.1161L55.5031 21.8362L54.1709 22.6283L52.7668 23.3843L51.3626 24.1044L49.9585 24.8965L51.3626 25.6886L52.7668 26.4806L53.6309 27.0207L54.1709 26.7327L55.5031 26.0126L56.9072 25.2565L58.3113 24.5365L58.8514 24.2484L59.7155 24.7525L61.1196 25.5446L62.4877 26.3366L63.8559 27.1647L65.26 27.9928L66.6642 28.7849L68.0323 29.613L69.4364 30.441L70.8046 31.2331L72.2087 32.0252L73.6129 32.8893L74.981 33.6814L75.449 33.9334V50.351H75.125H74.981H74.3329H73.6129H73.5409H72.7128H72.2087H71.9207H71.1286H70.8046H70.3365H69.5445H69.4364H68.7524H68.0323H67.9603H67.1322H66.6642H66.3401H65.7281H65.6201" fill="url(#paint5_linear)"/>
<path d="M65.5483 59.604L79.1577 54.1314L65.5483 50.351" fill="url(#paint6_linear)"/>
<path d="M53.091 59.604V50.495L40.6338 54.2034L53.091 59.568" fill="url(#paint7_linear)"/>
<defs>
<linearGradient id="paint0_linear" x1="24.0014" y1="50.4338" x2="24.0014" y2="85.5122" gradientUnits="userSpaceOnUse">
<stop stop-color="#F6E93D"/>
<stop offset="0.13" stop-color="#F8E330"/>
<stop offset="0.35" stop-color="#F7C730"/>
<stop offset="0.64" stop-color="#F59C2E"/>
<stop offset="0.98" stop-color="#EB5E2C"/>
<stop offset="1" stop-color="#EB5C2C"/>
</linearGradient>
<linearGradient id="paint1_linear" x1="38.8111" y1="70.8515" x2="38.8111" y2="99.9964" gradientUnits="userSpaceOnUse">
<stop stop-color="#F6E93D"/>
<stop offset="0.13" stop-color="#F8E330"/>
<stop offset="0.35" stop-color="#F7C730"/>
<stop offset="0.64" stop-color="#F59C2E"/>
<stop offset="0.98" stop-color="#EB5E2C"/>
<stop offset="1" stop-color="#EB5C2C"/>
</linearGradient>
<linearGradient id="paint2_linear" x1="45.5901" y1="62.3366" x2="45.5901" y2="94.8983" gradientUnits="userSpaceOnUse">
<stop stop-color="#F6E93D"/>
<stop offset="0.13" stop-color="#F8E330"/>
<stop offset="0.35" stop-color="#F7C730"/>
<stop offset="0.64" stop-color="#F59C2E"/>
<stop offset="0.98" stop-color="#EB5E2C"/>
<stop offset="1" stop-color="#EB5C2C"/>
</linearGradient>
<linearGradient id="paint3_linear" x1="24.0752" y1="26.4554" x2="24.0752" y2="51.7948" gradientUnits="userSpaceOnUse">
<stop stop-color="#F6E93D"/>
<stop offset="0.13" stop-color="#F8E330"/>
<stop offset="0.35" stop-color="#F7C730"/>
<stop offset="0.64" stop-color="#F59C2E"/>
<stop offset="0.98" stop-color="#EB5E2C"/>
<stop offset="1" stop-color="#EB5C2C"/>
</linearGradient>
<linearGradient id="paint4_linear" x1="76.1812" y1="35.0423" x2="76.1812" y2="73.541" gradientUnits="userSpaceOnUse">
<stop stop-color="#F6E93D"/>
<stop offset="0.13" stop-color="#F8E330"/>
<stop offset="0.35" stop-color="#F7C730"/>
<stop offset="0.64" stop-color="#F59C2E"/>
<stop offset="0.98" stop-color="#EB5E2C"/>
<stop offset="1" stop-color="#EB5C2C"/>
</linearGradient>
<linearGradient id="paint5_linear" x1="49.9509" y1="20" x2="49.9509" y2="59.6148" gradientUnits="userSpaceOnUse">
<stop stop-color="#F6E93D"/>
<stop offset="0.13" stop-color="#F8E330"/>
<stop offset="0.35" stop-color="#F7C730"/>
<stop offset="0.64" stop-color="#F59C2E"/>
<stop offset="0.98" stop-color="#EB5E2C"/>
<stop offset="1" stop-color="#EB5C2C"/>
</linearGradient>
<linearGradient id="paint6_linear" x1="65.5366" y1="50.3762" x2="65.5366" y2="59.6256" gradientUnits="userSpaceOnUse">
<stop stop-color="#F6E93D"/>
<stop offset="0.13" stop-color="#F8E330"/>
<stop offset="0.35" stop-color="#F7C730"/>
<stop offset="0.64" stop-color="#F59C2E"/>
<stop offset="0.98" stop-color="#EB5E2C"/>
<stop offset="1" stop-color="#EB5C2C"/>
</linearGradient>
<linearGradient id="paint7_linear" x1="52.2318" y1="58.3909" x2="53.8525" y2="50.0626" gradientUnits="userSpaceOnUse">
<stop stop-color="#F6E93D"/>
<stop offset="0.13" stop-color="#F8E330"/>
<stop offset="0.35" stop-color="#F7C730"/>
<stop offset="0.64" stop-color="#F59C2E"/>
<stop offset="0.98" stop-color="#EB5E2C"/>
<stop offset="1" stop-color="#EB5C2C"/>
</linearGradient>
</defs>
</svg>
