<svg width="120" height="120" viewBox="0 0 120 120" fill="none" xmlns="http://www.w3.org/2000/svg">
<path fill-rule="evenodd" clip-rule="evenodd" d="M60 120C27 120 0 93.0006 0 59.7012C0.3 26.7019 27 -0.297518 60.3 0.00247602C93.3 0.30247 120 27.0019 120 60.6012C119.7 93.3006 93 120 60 120Z" fill="#EDF0F4"/>
<path d="M74.626 48.1343V94.9778L35.0401 71.9916C23.4171 65.3011 24.2883 60.9357 24 51.6253L64.7232 75.1944V53.6622L74.6165 48.1343H74.626Z" fill="#99BEE7"/>
<path d="M64.7232 75.1944L24 51.6253L63.5701 28.9274C75.1994 22.24 78.4084 25.1513 86.8445 29.8207L46.1118 53.3708L64.7232 64.1385V75.1944Z" fill="#5592D7"/>
<path d="M46.1118 53.3708L86.8603 29.8176V75.2166C86.8603 88.8923 82.7738 90.0549 74.6386 95V48.1343L56.0907 59.1554L46.1118 53.3708Z" fill="#29578A"/>
</svg>
