<svg width="120" height="120" viewBox="0 0 120 120" fill="none" xmlns="http://www.w3.org/2000/svg">
<circle cx="60" cy="60" r="60" fill="#47B95C"/>
<path fill-rule="evenodd" clip-rule="evenodd" d="M22 60.5C22 39.8 38.8059 23 59.5131 23C80.2203 23 97.0262 39.8 96.9999 60.5C96.9999 60.8375 96.9776 61.1646 96.955 61.4954C96.9443 61.6535 96.9334 61.8125 96.9249 61.9738H79.32L70.8158 47.3487L59.5131 63.575L48.1841 47.3487L39.6799 61.9738H22.075C22.0665 61.8125 22.0557 61.6535 22.0449 61.4954C22.0223 61.1646 22 60.8375 22 60.5ZM59.5131 34.475C72.8415 34.475 83.8478 44.525 85.3709 57.4513H89.925C88.3719 42.0238 75.3436 29.9488 59.5131 29.9488C43.6826 29.9488 30.628 42.0238 29.1012 57.4513H33.6553C35.1784 44.5513 46.1847 34.475 59.5131 34.475Z" fill="white"/>
<path fill-rule="evenodd" clip-rule="evenodd" d="M59.5133 71.4988L70.4934 55.7488L76.7431 66.4738H96.5012C93.624 84.35 78.1948 98 59.5133 98C40.8318 98 25.4026 84.35 22.5254 66.5H42.2835L48.5332 55.7488L59.5133 71.4988ZM88.1733 71H83.3229C79.2715 80.1238 70.1408 86.525 59.5133 86.525C48.8858 86.525 39.7552 80.1238 35.7037 71H30.8533C35.1561 82.6738 46.3575 91.0513 59.5133 91.0513C72.6692 91.0513 83.8706 82.6738 88.1733 71Z" fill="white"/>
</svg>
