<svg width="120" height="120" viewBox="0 0 120 120" fill="none" xmlns="http://www.w3.org/2000/svg">
<circle cx="60" cy="60" r="60" fill="#0FD297"/>
<path d="M63.8195 67.321C64.8191 68.6813 65.7878 70.0215 66.9001 71.2946C68.904 73.5888 71.1955 75.47 74.1735 76.3697C75.8086 76.8638 77.49 77.0851 79.1829 77.2413C79.3163 77.2533 79.4162 77.2674 79.4926 77.4136C80.3769 79.1024 80.8663 80.8723 80.6363 82.7964C80.6182 82.9466 80.5941 83.0954 80.5659 83.2811C80.5599 83.3193 80.513 83.3347 80.4855 83.3079C80.0839 82.9124 79.7011 82.557 79.2834 82.2426C77.8869 81.1907 76.3503 80.4754 74.5791 80.4043C72.2219 80.3098 70.1985 81.7103 69.3699 83.9649C68.6955 85.8005 68.7236 87.663 69.1735 89.5388C69.1956 89.63 69.2184 89.7212 69.2351 89.8137C69.2432 89.8566 69.2372 89.9116 69.2023 89.9022C68.5071 89.699 67.8842 89.3484 67.2949 88.9421C66.2082 88.1933 65.3675 87.2138 64.6669 86.1022C64.5516 85.9185 64.6247 85.7938 64.6917 85.6477C65.2669 84.3927 65.7764 83.1142 66.1639 81.7861C66.947 79.1017 66.8283 76.426 66.1271 73.7497C65.578 71.6547 64.7272 69.6729 63.8584 67.6972C63.8108 67.5899 63.7692 67.4799 63.7249 67.3713C63.6948 67.2942 63.7826 67.26 63.8195 67.321Z" fill="white"/>
<path d="M59.7911 91.9423C59.7496 92.0596 59.5833 92.0609 59.5411 91.9443C58.6266 89.4242 57.3816 87.1582 56.3472 84.7989C55.6647 83.2436 55.0238 81.6721 54.7864 79.9719C54.7864 79.9712 54.7864 79.9712 54.7864 79.9706C54.7724 79.8673 54.8776 79.7902 54.9735 79.8325C58.0956 81.2108 61.1963 81.2102 64.3145 79.8164C64.4097 79.7735 64.5142 79.8539 64.5002 79.9578C64.3285 81.2149 63.9504 82.3351 63.5187 83.4407C62.7075 85.5176 61.6743 87.494 60.7666 89.5274C60.4213 90.2991 60.0982 91.0808 59.7911 91.9423Z" fill="white"/>
<path d="M59.4623 63.1651C59.5193 63.027 59.7157 63.029 59.77 63.1678C59.8967 63.4916 60.0194 63.8087 60.1541 64.1205C61.0505 66.1954 61.9603 68.265 62.8486 70.344C63.1167 70.9708 63.3219 71.6245 63.5753 72.2587C63.6651 72.4846 63.6242 72.5785 63.395 72.6663C60.8856 73.6217 58.3789 73.627 55.8661 72.6784C55.6288 72.5886 55.6161 72.49 55.6911 72.2681C56.4601 70.0001 57.4906 67.8413 58.4318 65.6443C58.7845 64.8217 59.1183 63.9911 59.4623 63.1651Z" fill="white"/>
<path d="M81.8998 77.484C81.8736 77.4176 81.9252 77.3465 81.9963 77.3512C83.673 77.4638 85.2988 77.6301 86.9078 77.9512C87.1244 77.9942 87.1183 78.1316 87.1425 78.2777C87.5226 80.6229 87.4562 82.9566 86.948 85.2749C86.338 88.0572 85.1822 90.5813 83.246 92.6945C80.2881 95.9226 76.5592 97.3123 72.2323 97.0857C68.2755 96.8786 64.7859 95.411 61.7053 92.9392C61.5531 92.8172 61.5196 92.7166 61.5833 92.5262C62.1042 90.9782 62.782 89.4986 63.496 88.0344C63.496 88.0337 63.4967 88.0337 63.4967 88.033C63.5269 87.9714 63.614 87.968 63.6569 88.0223C67.2564 92.5973 73.2118 93.8282 77.886 90.9018C82.1559 88.2268 84.021 82.8695 81.8998 77.484Z" fill="white"/>
<path d="M55.5109 67.4102C54.8324 68.9562 54.1566 70.4653 53.6102 72.0649C52.6254 74.9478 52.142 77.8721 52.852 80.9018C53.2415 82.5651 53.8904 84.1312 54.6018 85.6758C54.6581 85.7972 54.6956 85.8911 54.6071 86.0305C53.5867 87.6409 52.2989 88.9495 50.5176 89.7125C50.3788 89.7721 50.2373 89.8258 50.0623 89.8941C50.0261 89.9082 49.9893 89.8754 49.9993 89.8378C50.1408 89.2921 50.2574 88.7832 50.3211 88.2643C50.5336 86.5293 50.3848 84.8405 49.5609 83.271C48.4641 81.1827 46.2396 80.1301 43.8723 80.5404C41.9455 80.8743 40.3466 81.8296 38.9468 83.1571C38.8784 83.2214 38.8107 83.2871 38.7396 83.3481C38.7061 83.3763 38.6558 83.3991 38.6464 83.3642C38.4748 82.6603 38.4667 81.9463 38.5244 81.2323C38.6296 79.9169 39.0574 78.6988 39.6695 77.5363C39.7707 77.3445 39.9155 77.3459 40.0757 77.3304C41.4501 77.2017 42.8124 77.0033 44.1559 76.6748C46.8718 76.0104 49.1305 74.5696 51.0968 72.6247C52.6368 71.1016 53.928 69.3739 55.2038 67.6341C55.2735 67.5396 55.3473 67.4484 55.4197 67.3559C55.472 67.2889 55.5457 67.3485 55.5109 67.4102Z" fill="white"/>
<path d="M32.1736 76.233C32.0509 76.2558 31.9671 76.1123 32.0469 76.0171C33.7726 73.9649 35.1121 71.7539 36.638 69.6782C37.6436 68.3092 38.6841 66.9684 40.0384 65.9125C40.039 65.9125 40.039 65.9118 40.0397 65.9118C40.1222 65.8481 40.2415 65.9011 40.2529 66.0043C40.6203 69.3973 42.171 72.0824 44.9378 74.0856C45.0223 74.1466 45.0048 74.2773 44.9083 74.3169C43.7337 74.7969 42.5746 75.0296 41.4013 75.2086C39.197 75.5451 36.9685 75.6383 34.7541 75.8689C33.912 75.9567 33.0733 76.068 32.1736 76.233Z" fill="white"/>
<path d="M56.9326 61.5601C57.0807 61.5407 57.1773 61.7116 57.0841 61.8283C56.8669 62.0998 56.6537 62.3646 56.4512 62.6375C55.1023 64.4516 53.7648 66.2738 52.4092 68.0826C52.0003 68.6284 51.537 69.1332 51.1146 69.6695C50.9645 69.8606 50.8619 69.872 50.6715 69.7171C48.5892 68.021 47.3315 65.8535 46.897 63.2026C46.8561 62.9526 46.9352 62.8922 47.1652 62.846C49.5137 62.378 51.899 62.191 54.2717 61.9074C55.1593 61.8008 56.0449 61.6748 56.9326 61.5601Z" fill="white"/>
<path d="M55.7516 88.151C55.7958 88.0954 55.883 88.1041 55.9145 88.1685C56.6553 89.6769 57.3244 91.1679 57.8507 92.722C57.9217 92.9312 57.7997 92.9948 57.6851 93.088C55.8448 94.5898 53.7899 95.6993 51.5279 96.418C48.8134 97.2808 46.0499 97.5416 43.2516 96.9215C38.9769 95.9742 35.9091 93.4393 33.9421 89.579C32.1433 86.0493 31.6694 82.2929 32.27 78.389C32.2995 78.196 32.3699 78.1168 32.567 78.0773C34.168 77.7541 35.7884 77.602 37.4135 77.488C37.4142 77.488 37.4142 77.488 37.4149 77.488C37.4832 77.4833 37.5302 77.557 37.504 77.6207C35.3419 83.0257 37.254 88.7987 42.1246 91.3831C46.5755 93.7444 52.148 92.6818 55.7516 88.151Z" fill="white"/>
<path d="M55.4417 52.9412C54.4421 51.5809 53.4734 50.2407 52.3612 48.9676C50.3573 46.6734 48.0658 44.7922 45.0878 43.8925C43.4526 43.3984 41.7712 43.1772 40.0784 43.0209C39.945 43.0089 39.8451 42.9948 39.7686 42.8486C38.8843 41.1599 38.3949 39.3899 38.6249 37.4658C38.643 37.3157 38.6671 37.1668 38.6953 36.9811C38.7013 36.9429 38.7483 36.9275 38.7757 36.9543C39.1773 37.3499 39.5601 37.7052 39.9778 38.0196C41.3743 39.0715 42.9109 39.7868 44.6822 39.8579C47.0394 39.9524 49.0627 38.5519 49.8913 36.2973C50.5658 34.4617 50.5376 32.5992 50.0878 30.7234C50.0656 30.6322 50.0428 30.5411 50.0261 30.4485C50.018 30.4056 50.0241 30.3507 50.0589 30.36C50.7542 30.5632 51.377 30.9138 51.9663 31.3201C53.053 32.0689 53.8937 33.0484 54.5943 34.16C54.7096 34.3437 54.6366 34.4684 54.5695 34.6145C53.9943 35.8696 53.4848 37.1481 53.0973 38.4762C52.3142 41.1605 52.4329 43.8362 53.1342 46.5125C53.6832 48.6076 54.534 50.5893 55.4029 52.5651C55.4505 52.6723 55.492 52.7823 55.5363 52.8909C55.5664 52.968 55.478 53.0022 55.4417 52.9412Z" fill="white"/>
<path d="M59.4701 28.3193C59.5117 28.2019 59.6779 28.2006 59.7202 28.3173C60.6346 30.8374 61.8796 33.1034 62.914 35.4626C63.5965 37.018 64.2375 38.5895 64.4748 40.2897C64.4748 40.2903 64.4748 40.2903 64.4748 40.291C64.4889 40.3942 64.3836 40.4713 64.2877 40.4291C61.1656 39.0507 58.0649 39.0514 54.9468 40.4452C54.8516 40.4881 54.747 40.4076 54.761 40.3037C54.9327 39.0467 55.3108 37.9264 55.7425 36.8209C56.5538 34.7439 57.5869 32.7675 58.4946 30.7341C58.8406 29.9631 59.163 29.1814 59.4701 28.3193Z" fill="white"/>
<path d="M59.7979 57.0964C59.7409 57.2346 59.5444 57.2325 59.4901 57.0938C59.3634 56.7699 59.2407 56.4528 59.106 56.1411C58.2096 54.0661 57.2999 51.9965 56.4116 49.9176C56.1434 49.2907 55.9382 48.6371 55.6848 48.0028C55.595 47.7769 55.6359 47.6831 55.8652 47.5952C58.3745 46.6399 60.8813 46.6345 63.394 47.5832C63.6313 47.673 63.6441 47.7716 63.569 47.9935C62.8 50.2615 61.7696 52.4203 60.8283 54.6172C60.4757 55.4405 60.1425 56.2712 59.7979 57.0964Z" fill="white"/>
<path d="M37.3608 42.7783C37.3869 42.8446 37.3353 42.9157 37.2642 42.911C35.5875 42.7984 33.9617 42.6321 32.3527 42.311C32.1362 42.2681 32.1422 42.1306 32.1181 41.9845C31.738 39.6393 31.8043 37.3056 32.3125 34.9873C32.9226 32.205 34.0784 29.6809 36.0146 27.5677C38.9725 24.3397 42.7014 22.9499 47.0283 23.1765C50.9851 23.3836 54.4746 24.8512 57.5552 27.323C57.7074 27.445 57.7409 27.5456 57.6772 27.736C57.1563 29.284 56.4785 30.7636 55.7645 32.2278C55.7645 32.2285 55.7638 32.2285 55.7638 32.2292C55.7337 32.2909 55.6465 32.2942 55.6036 32.2399C52.0041 27.6649 46.0488 26.434 41.3746 29.3604C37.104 32.0354 35.2389 37.3928 37.3608 42.7783Z" fill="white"/>
<path d="M63.749 52.852C64.4275 51.306 65.1033 49.7969 65.6497 48.1973C66.6345 45.3145 67.1179 42.3901 66.4079 39.3604C66.0184 37.6971 65.3694 36.131 64.6581 34.5864C64.6018 34.465 64.5643 34.3712 64.6527 34.2317C65.6731 32.6214 66.961 31.3127 68.7423 30.5498C68.8811 30.4901 69.0226 30.4365 69.1975 30.3681C69.2337 30.354 69.2706 30.3869 69.2606 30.4244C69.1191 30.9701 69.0024 31.479 68.9388 31.9979C68.7262 33.7329 68.8751 35.4217 69.699 36.9912C70.7958 39.0795 73.0203 40.1321 75.3875 39.7218C77.3143 39.3879 78.9133 38.4326 80.3131 37.1051C80.3815 37.0408 80.4492 36.9751 80.5203 36.9141C80.5538 36.8859 80.6041 36.8631 80.6135 36.898C80.7851 37.6019 80.7931 38.3159 80.7355 39.0299C80.6302 40.3453 80.2025 41.5635 79.5904 42.726C79.4892 42.9177 79.3444 42.9164 79.1841 42.9318C77.8098 43.0605 76.4475 43.2589 75.1039 43.5875C72.3881 44.2518 70.1294 45.6926 68.1631 47.6375C66.6231 49.1607 65.3319 50.8883 64.0561 52.6281C63.9863 52.7226 63.9126 52.8138 63.8402 52.9063C63.7879 52.9734 63.7148 52.9137 63.749 52.852Z" fill="white"/>
<path d="M87.086 44.0286C87.2087 44.0058 87.2925 44.1493 87.2127 44.2445C85.487 46.2966 84.1475 48.5077 82.6217 50.5833C81.616 51.9523 80.5755 53.2931 79.2213 54.3491C79.2206 54.3491 79.2206 54.3497 79.2199 54.3497C79.1375 54.4134 79.0181 54.3605 79.0067 54.2572C78.6394 50.8642 77.0887 48.1792 74.3218 46.176C74.2374 46.1149 74.2548 45.9842 74.3513 45.9447C75.5259 45.4646 76.6851 45.232 77.8583 45.053C80.0627 44.7164 82.2911 44.6233 84.5055 44.3926C85.3476 44.3055 86.1863 44.1942 87.086 44.0286Z" fill="white"/>
<path d="M62.3289 58.7021C62.1807 58.7215 62.0841 58.5506 62.1773 58.4339C62.3946 58.1624 62.6077 57.8976 62.8102 57.6247C64.1591 55.8106 65.4966 53.9884 66.8522 52.1796C67.2611 51.6339 67.7244 51.129 68.1468 50.5927C68.2969 50.4016 68.3995 50.3902 68.5899 50.5451C70.6722 52.2413 71.93 54.4087 72.3644 57.0596C72.4053 57.3096 72.3262 57.37 72.0962 57.4162C69.7477 57.8842 67.3624 58.0712 64.9898 58.3548C64.1021 58.4608 63.2158 58.5875 62.3289 58.7021Z" fill="white"/>
<path d="M63.5089 32.1112C63.4646 32.1668 63.3774 32.1581 63.3459 32.0937C62.6051 30.5853 61.936 29.0943 61.4098 27.5402C61.3387 27.3311 61.4607 27.2674 61.5754 27.1742C63.4157 25.6724 65.4705 24.5629 67.7325 23.8442C70.447 22.9814 73.2105 22.7206 76.0089 23.3407C80.2835 24.288 83.3513 26.8229 85.3183 30.6832C87.1171 34.2129 87.5911 37.9693 86.9904 41.8732C86.9609 42.0663 86.8905 42.1454 86.6934 42.1849C85.0924 42.5081 83.472 42.6603 81.8469 42.7742C81.8462 42.7742 81.8462 42.7742 81.8456 42.7742C81.7772 42.7789 81.7302 42.7052 81.7564 42.6415C83.9185 37.2366 82.0065 31.4636 77.1358 28.8791C72.6849 26.5172 67.1124 27.5805 63.5089 32.1112Z" fill="white"/>
<path d="M68.0125 60.0416C69.6905 59.8559 71.3351 59.687 72.9937 59.3605C75.9824 58.7718 78.7573 57.728 81.026 55.5987C82.2717 54.4295 83.3034 53.0846 84.2856 51.6962C84.3627 51.5869 84.4251 51.5071 84.59 51.5138C86.4947 51.5923 88.2719 52.0535 89.8233 53.2147C89.944 53.3052 90.0613 53.4011 90.2081 53.5177C90.2383 53.5419 90.2282 53.5908 90.1907 53.6009C89.6476 53.751 89.1482 53.9046 88.6668 54.109C87.0578 54.7929 85.67 55.7657 84.7227 57.2641C83.4623 59.2579 83.6635 61.711 85.2021 63.556C86.4544 65.0577 88.0815 65.9648 89.9312 66.5132C90.0211 66.54 90.1116 66.5655 90.2001 66.597C90.2416 66.6117 90.2859 66.6439 90.2604 66.6694C89.7368 67.1695 89.122 67.5342 88.4751 67.8413C87.2831 68.4078 86.0146 68.6465 84.7019 68.6974C84.4854 68.7061 84.4137 68.5801 84.3205 68.4487C83.5213 67.3231 82.6686 66.2423 81.7125 65.2427C79.779 63.2228 77.4024 61.9872 74.7348 61.2564C72.6458 60.6839 70.5044 60.4298 68.3591 60.1951C68.2424 60.1824 68.1264 60.1636 68.0098 60.1475C67.9267 60.1361 67.9414 60.043 68.0125 60.0416Z" fill="white"/>
<path d="M87.3197 75.8401C87.4002 75.9346 87.3191 76.0794 87.1964 76.058C84.5563 75.59 81.9718 75.535 79.4114 75.2515C77.7233 75.0644 76.0419 74.8345 74.4503 74.1895C74.4496 74.1895 74.4496 74.1888 74.449 74.1888C74.3524 74.1493 74.3384 74.0192 74.4228 73.9582C77.1776 71.9436 78.7269 69.2579 79.0789 65.8602C79.0896 65.7563 79.211 65.706 79.2941 65.7704C80.2971 66.548 81.0781 67.435 81.8196 68.3615C83.2127 70.1026 84.4081 71.9858 85.7154 73.7886C86.2115 74.4731 86.7271 75.1435 87.3197 75.8401Z" fill="white"/>
<path d="M62.2341 61.7364C62.1429 61.6178 62.2428 61.4488 62.3903 61.4709C62.7336 61.5232 63.0701 61.5755 63.4074 61.6144C65.6526 61.8752 67.8999 62.1226 70.1444 62.3921C70.8216 62.4732 71.49 62.6227 72.1657 62.7199C72.4064 62.7548 72.4674 62.8379 72.4286 63.08C72.0008 65.7308 70.7525 67.9043 68.6742 69.6058C68.4778 69.7667 68.3859 69.7279 68.2317 69.5522C66.6522 67.7521 65.2979 65.7804 63.8659 63.867C63.3296 63.1517 62.7772 62.4478 62.2341 61.7364Z" fill="white"/>
<path d="M85.8529 49.4637C85.7825 49.453 85.7463 49.3732 85.7859 49.3142C86.7218 47.9184 87.6791 46.5936 88.7612 45.3607C88.9067 45.1951 89.0226 45.2682 89.1614 45.3212C91.3825 46.1646 93.3703 47.3887 95.1242 48.9884C97.2286 50.9078 98.8363 53.1705 99.6984 55.9038C101.015 60.0792 100.354 64.0038 97.9942 67.6368C95.8368 70.9594 92.8206 73.2482 89.1393 74.6803C88.9576 74.7507 88.8537 74.7299 88.721 74.579C87.6409 73.3542 86.6983 72.0274 85.7872 70.6765C85.7872 70.6758 85.7865 70.6758 85.7865 70.6752C85.7483 70.6182 85.7892 70.5411 85.8569 70.531C91.6185 69.701 95.6625 65.1589 95.4654 59.6481C95.2851 54.6132 91.5783 50.3192 85.8529 49.4637Z" fill="white"/>
<path d="M51.355 60.171C49.677 60.3567 48.0324 60.5257 46.3738 60.8522C43.3851 61.4408 40.6102 62.4846 38.3415 64.6139C37.0959 65.7831 36.0641 67.128 35.0819 68.5164C35.0048 68.6257 34.9425 68.7055 34.7775 68.6988C32.8729 68.6203 31.0956 68.1591 29.5442 66.9979C29.4235 66.9074 29.3062 66.8115 29.1594 66.6949C29.1292 66.6707 29.1393 66.6218 29.1768 66.6117C29.7199 66.4616 30.2193 66.308 30.7007 66.1036C32.3097 65.4197 33.6975 64.447 34.6448 62.9486C35.9052 60.9547 35.7041 58.5017 34.1654 56.6567C32.9131 55.1549 31.286 54.2478 29.4363 53.6994C29.3465 53.6726 29.2559 53.6471 29.1674 53.6156C29.1259 53.6009 29.0816 53.5687 29.1071 53.5432C29.6307 53.0431 30.2455 52.6784 30.8924 52.3713C32.0845 51.8048 33.3529 51.5661 34.6656 51.5152C34.8821 51.5065 34.9539 51.6325 35.047 51.7639C35.8462 52.8896 36.699 53.9703 37.655 54.9699C39.5885 56.9899 41.9651 58.2254 44.6327 58.9562C46.7218 59.5287 48.8631 59.7828 51.0084 60.0175C51.1251 60.0302 51.2411 60.049 51.3577 60.0651C51.4409 60.0765 51.4261 60.1697 51.355 60.171Z" fill="white"/>
<path d="M32.0459 44.3725C31.9654 44.278 32.0466 44.1332 32.1692 44.1546C34.8094 44.6226 37.3938 44.6776 39.9542 44.9611C41.6423 45.1482 43.3237 45.3782 44.9153 46.0231C44.916 46.0231 44.916 46.0238 44.9166 46.0238C45.0132 46.0633 45.0273 46.1934 44.9428 46.2544C42.188 48.269 40.638 50.9547 40.2867 54.3524C40.276 54.4563 40.1546 54.5066 40.0715 54.4422C39.0686 53.6646 38.2875 52.7776 37.546 51.8511C36.1529 50.11 34.9575 48.2268 33.6502 46.424C33.1541 45.7395 32.6385 45.0691 32.0459 44.3725Z" fill="white"/>
<path d="M57.133 58.4762C57.2242 58.5948 57.1243 58.7638 56.9768 58.7417C56.6335 58.6894 56.297 58.6371 55.9598 58.5982C53.7145 58.3374 51.4673 58.09 49.2227 57.8205C48.5456 57.7394 47.8771 57.5899 47.2014 57.4927C46.9607 57.4578 46.8997 57.3747 46.9386 57.1327C47.3663 54.4818 48.6146 52.3083 50.6929 50.6068C50.8894 50.4459 50.9812 50.4848 51.1354 50.6604C52.7149 52.4605 54.0692 54.4322 55.5012 56.3456C56.0375 57.0609 56.5899 57.7655 57.133 58.4762Z" fill="white"/>
<path d="M33.5137 70.7489C33.5841 70.7596 33.6203 70.8394 33.5807 70.8984C32.6448 72.2942 31.6874 73.619 30.6054 74.8519C30.4599 75.0175 30.3439 74.9444 30.2051 74.8914C27.984 74.0481 25.9962 72.8239 24.2424 71.2242C22.138 69.3048 20.5303 67.0422 19.6681 64.3088C18.3514 60.1335 19.0125 56.2088 21.3723 52.5758C23.5298 49.2532 26.546 46.9644 30.2273 45.5323C30.409 45.462 30.5129 45.4827 30.6456 45.6336C31.7257 46.8584 32.6683 48.1852 33.5794 49.5361C33.5794 49.5368 33.58 49.5368 33.58 49.5374C33.6183 49.5944 33.5774 49.6715 33.5097 49.6816C27.748 50.5116 23.7041 55.0537 23.9012 60.5645C24.0815 65.5994 27.7883 69.8935 33.5137 70.7489Z" fill="white"/>
</svg>
