<svg width="120" height="120" viewBox="0 0 120 120" fill="none" xmlns="http://www.w3.org/2000/svg">
<circle cx="60" cy="60" r="60" fill="black"/>
<path fill-rule="evenodd" clip-rule="evenodd" d="M59.7638 22.7009L45.0791 44.9085L40.674 42.6045L57.8754 16.8381C60.1826 14.9523 61.6522 16.8381 61.6522 16.8381L78.4348 41.9734L74.8673 45.1176L59.7638 22.7009ZM58.5036 99.1635L32.4922 82.8224L35.8502 79.6819L59.9732 94.5555L83.2586 79.6819L87.2448 82.8224L61.6522 99.1635H58.5036Z" fill="white" fill-opacity="0.703"/>
<path d="M60.1822 89.7382C61.0199 86.8031 62.0706 84.0808 62.912 81.1494C66.6888 69.4164 70.4619 57.4742 74.2387 45.7449C74.4481 45.1176 74.6575 44.2774 74.8669 43.6538C75.2858 42.3916 75.914 41.7642 77.1742 41.7642C78.3051 41.7345 79.287 42.537 79.4814 43.65C80.5284 47.8399 81.3698 52.2388 82.4168 56.4286C84.3052 64.3901 85.9842 72.5606 87.8727 80.5183C88.2915 82.4041 87.6632 83.6626 86.1937 84.0808C84.7241 84.499 83.677 83.4535 83.2582 81.5677C81.1604 72.5606 79.0626 63.5499 77.1742 54.3337C77.1742 53.9155 76.9648 53.7064 76.7554 53.0753C76.5813 53.6485 76.3702 54.2098 76.1234 54.7557C72.1409 66.9032 68.3641 79.0545 64.3779 91.202C63.7496 93.5061 62.9083 95.601 62.28 97.905C61.8612 99.3726 61.0199 99.9999 59.7634 99.9999C58.5032 99.9999 57.6656 99.3726 57.2468 97.9088C52.6323 83.4535 48.0141 68.9982 43.6091 54.5429C43.3997 54.1246 43.3997 53.9155 43.1903 53.0753C42.8161 54.9707 42.3972 56.857 41.9338 58.7327C40.2511 66.2759 38.5758 74.0245 36.8968 81.5677C36.478 83.6588 34.8028 84.7082 33.12 83.6588C32.073 83.0315 31.8636 81.9859 32.073 80.7274C34.3802 70.2529 36.8968 59.7783 39.2041 49.3074C39.6229 47.627 40.0454 45.9541 40.2511 44.2774C40.6736 42.6044 41.5113 41.7642 42.7715 41.7642C44.0317 41.7642 44.8655 42.6044 45.2881 44.2774C50.112 59.3638 54.9358 74.6556 59.554 89.7382H60.1822Z" fill="white"/>
</svg>
