<svg width="120" height="120" viewBox="0 0 120 120" fill="none" xmlns="http://www.w3.org/2000/svg">
<circle cx="60" cy="60" r="60" fill="#EDF0F4"/>
<path fill-rule="evenodd" clip-rule="evenodd" d="M35.9071 52.3474V44.5597C35.9074 44.146 35.7432 43.7491 35.4506 43.4565C35.158 43.1639 34.7611 42.9997 34.3474 43H26.5597C26.146 42.9997 25.7491 43.1639 25.4565 43.4565C25.1639 43.7491 24.9997 44.146 25 44.5597V52.3474C24.9997 52.7611 25.1639 53.158 25.4565 53.4506C25.7491 53.7432 26.146 53.9074 26.5597 53.9071H34.3474C34.7611 53.9074 35.158 53.7432 35.4506 53.4506C35.7432 53.158 35.9074 52.7611 35.9071 52.3474ZM38.9497 55.0055H46.7374C47.1511 55.0052 47.548 55.1695 47.8406 55.462C48.1331 55.7546 48.2974 56.1515 48.2971 56.5653V75.304C48.2974 75.7177 48.1331 76.1146 47.8406 76.4072C47.548 76.6998 47.1511 76.864 46.7374 76.8637H38.9497C38.5359 76.864 38.139 76.6998 37.8465 76.4072C37.5539 76.1146 37.3897 75.7177 37.39 75.304V56.5653C37.3897 56.1515 37.5539 55.7546 37.8465 55.462C38.139 55.1695 38.5359 55.0052 38.9497 55.0055ZM69.9356 55.0055H64.0591C62.9491 55.0058 61.8845 54.565 61.0996 53.7801C60.3148 52.9952 59.8739 51.9306 59.8742 50.8206V44.5597C59.8745 44.146 59.7103 43.7491 59.4177 43.4565C59.1251 43.1639 58.7283 42.9997 58.3145 43H50.5268C50.1131 42.9997 49.7162 43.1639 49.4236 43.4565C49.1311 43.7491 48.9668 44.146 48.9671 44.5597V52.3474C48.9668 52.7611 49.1311 53.158 49.4236 53.4506C49.7162 53.7432 50.1131 53.9074 50.5268 53.9071H53.3827C53.5392 53.8852 53.697 53.8742 53.855 53.8742H56.4033C57.5133 53.8739 58.5779 54.3147 59.3628 55.0996C60.1477 55.8845 60.5885 56.9491 60.5882 58.0591V75.293C60.5879 75.7067 60.7521 76.1036 61.0447 76.3962C61.3373 76.6888 61.7342 76.853 62.1479 76.8527H69.9356C70.3493 76.853 70.7462 76.6888 71.0388 76.3962C71.3314 76.1036 71.4956 75.7067 71.4953 75.293V56.5653C71.4956 56.1515 71.3314 55.7546 71.0388 55.462C70.7462 55.1695 70.3493 55.0052 69.9356 55.0055ZM86.6093 55.0055H92.4857C92.8993 55.0025 93.2967 55.1662 93.5881 55.4597C93.8795 55.7532 94.0404 56.1517 94.0345 56.5653V75.293C94.0348 75.7067 93.8706 76.1036 93.578 76.3962C93.2854 76.6888 92.8885 76.853 92.4748 76.8527H84.6871C84.2733 76.853 83.8765 76.6888 83.5839 76.3962C83.2913 76.1036 83.1271 75.7067 83.1274 75.293V58.0591C83.1277 56.9491 82.6869 55.8845 81.902 55.0996C81.1171 54.3147 80.0525 53.8739 78.9425 53.8742H76.3942C76.2362 53.8742 76.0784 53.8852 75.9219 53.9071H73.066C72.6523 53.9074 72.2554 53.7432 71.9628 53.4506C71.6702 53.158 71.506 52.7611 71.5063 52.3474V44.5597C71.506 44.146 71.6702 43.7491 71.9628 43.4565C72.2554 43.1639 72.6523 42.9997 73.066 43H80.8647C81.2784 42.9997 81.6753 43.1639 81.9679 43.4565C82.2605 43.7491 82.4247 44.146 82.4244 44.5597V50.8206C82.4241 51.9306 82.8649 52.9952 83.6498 53.7801C84.4347 54.565 85.4993 55.0058 86.6093 55.0055Z" fill="#231F20"/>
</svg>
