<svg width="120" height="120" viewBox="0 0 120 120" fill="none" xmlns="http://www.w3.org/2000/svg">
<circle cx="60" cy="60" r="60" fill="url(#paint0_linear)"/>
<path fill-rule="evenodd" clip-rule="evenodd" d="M72.108 28.7504C74.7964 29.1587 77.1189 30.8908 78.2985 33.3669C78.4595 33.7047 78.6608 34.2236 78.7462 34.52C79.0929 35.7216 79.0779 35.0932 79.0785 48.2974V60.4507H70.9062H62.734V48.2974C62.7346 37.913 62.7472 36.0653 62.8223 35.6016C63.3961 32.0657 66.1429 29.309 69.6443 28.7554C70.3311 28.6468 71.4116 28.6446 72.108 28.7504ZM95.7234 38.7899C96.2588 38.917 97.1193 39.3492 97.5694 39.7174C98.0904 40.1427 98.5092 40.6771 98.8199 41.312C99.3337 42.363 99.2928 41.5118 99.3132 51.5423L99.3318 60.4507H94.613H89.8947V51.7128C89.8947 42.2541 89.8845 42.5691 90.2198 41.6804C90.632 40.5875 91.4685 39.6805 92.5687 39.134C93.5289 38.6571 94.649 38.5349 95.7234 38.7899ZM41.3294 39.3931C42.3359 39.5978 43.1993 40.075 43.9857 40.8613C44.8893 41.7648 45.3942 42.7759 45.5448 43.9844C45.5865 44.3189 45.6083 47.2312 45.6083 52.4721V60.4507H40.2588H34.9094L34.9258 52.0831L34.9423 43.7156L35.1081 43.187C35.7264 41.2155 37.231 39.8045 39.1486 39.3979C39.7124 39.2784 40.7538 39.2761 41.3294 39.3931ZM16.5586 50.1783C18.3958 50.5037 19.8855 51.7139 20.5754 53.4416C20.9129 54.2867 20.9246 54.4145 20.9548 57.5814L20.9828 60.5108H15.7492H10.5156V57.654C10.5156 55.2811 10.5318 54.7187 10.6109 54.334C11.0371 52.2618 12.6272 50.6568 14.6919 50.215C15.1931 50.1077 16.0636 50.0907 16.5586 50.1783ZM34.8518 64.7321C34.8514 69.3699 34.8344 69.6523 34.4945 70.6672C34.1449 71.7104 33.68 72.4861 32.935 73.2697C30.4273 75.9071 26.4495 76.1829 23.5984 73.9175C22.4933 73.039 21.6162 71.6893 21.2255 70.2658L21.0632 69.6745L21.0452 65.0926L21.0271 60.5108H27.9396H34.8521L34.8518 64.7321ZM62.6582 72.9945L62.6396 85.4782L62.5026 86.0791C62.1385 87.6763 61.5346 88.8919 60.5322 90.0445C59.2951 91.4674 57.5247 92.4721 55.6433 92.8194C54.7981 92.9751 53.3469 92.9594 52.5254 92.7858C50.7446 92.4084 49.3004 91.6116 48.0567 90.3203C46.8983 89.1179 46.2265 87.859 45.8096 86.1092C45.7085 85.6849 45.7011 84.9152 45.6843 73.0846L45.6664 60.5108H54.1716H62.6769L62.6582 72.9945ZM89.8208 70.4407L89.8046 80.3706L89.6387 80.8981C88.8882 83.2921 86.8926 84.8052 84.4866 84.8052C82.0415 84.8052 80.0189 83.2369 79.3086 80.7894L79.1698 80.3105L79.1524 70.4106L79.1356 60.5108H84.4866H89.837L89.8208 70.4407ZM109.587 63.4402C109.556 66.6394 109.547 66.7331 109.184 67.6399C108.825 68.5364 108.091 69.4552 107.294 70.0032C105.99 70.9003 104.2 71.1485 102.704 70.639C100.931 70.0363 99.6275 68.5472 99.2441 66.6874C99.1648 66.3022 99.1486 65.7428 99.1486 63.3674V60.5108H104.382H109.616L109.587 63.4402Z" fill="white"/>
<defs>
<linearGradient id="paint0_linear" x1="39.0886" y1="-27.4011" x2="-24.8473" y2="83.6455" gradientUnits="userSpaceOnUse">
<stop stop-color="#6B6EEC"/>
<stop offset="1" stop-color="#7CEECA"/>
</linearGradient>
</defs>
</svg>
