<svg width="120" height="120" viewBox="0 0 120 120" fill="none" xmlns="http://www.w3.org/2000/svg">
<circle cx="60" cy="60" r="60" fill="black"/>
<path d="M106.518 66.432C103.472 70.5199 97.6898 71.3659 93.6004 68.322C89.5125 65.276 88.6664 59.4935 91.7104 55.404C94.7564 51.3161 100.539 50.4701 104.628 53.514C105.347 54.049 105.983 54.6857 106.518 55.404L109.116 53.544C105.044 48.007 97.2558 46.8172 91.7164 50.886C86.1794 54.958 84.9896 62.7466 89.0584 68.286C93.1304 73.823 100.919 75.0128 106.458 70.944C107.474 70.1976 108.37 69.3014 109.116 68.286L106.518 66.432Z" fill="white"/>
<path fill-rule="evenodd" clip-rule="evenodd" d="M73.5724 50.322L75.3724 46.578L77.1184 50.322L87.7984 73.356H84.3004L81.8284 68.022H68.8444L66.3784 73.356H62.8984L73.5724 50.322ZM75.3724 54.054L70.3624 64.854H80.3704L75.3724 54.054Z" fill="white"/>
<path d="M23.5442 60.942L14.5502 51.948L14.3042 51.702L11.1182 48.51V48.516V53.034V73.35H14.3042V56.22L21.2882 63.204L23.5442 65.46L25.7942 63.204L32.7782 56.22V73.35H35.9642V53.034V48.516L32.7782 51.702L23.5442 60.942Z" fill="white"/>
<path fill-rule="evenodd" clip-rule="evenodd" d="M39.1201 60.966C39.1201 54.09 44.6942 48.516 51.5701 48.516C58.4461 48.516 64.0201 54.09 64.0201 60.966C64.0201 67.8419 58.4461 73.416 51.5701 73.416C48.2682 73.416 45.1015 72.1043 42.7666 69.7695C40.4318 67.4346 39.1201 64.2679 39.1201 60.966ZM45.0308 67.476C46.7661 69.2079 49.1185 70.1792 51.5701 70.176V70.2C54.0249 70.1968 56.3775 69.217 58.1088 67.4767C59.8401 65.7364 60.8077 63.3787 60.7981 60.924C60.7965 58.4734 59.8215 56.1238 58.0875 54.3921C56.3536 52.6604 54.0027 51.6884 51.5521 51.69C49.1005 51.6916 46.75 52.6674 45.0181 54.4027C43.2862 56.1379 42.3149 58.4904 42.3181 60.942C42.3197 63.3936 43.2956 65.7441 45.0308 67.476Z" fill="white"/>
<circle cx="56.8318" cy="55.662" r="0.864" fill="white"/>
<circle cx="56.8318" cy="66.18" r="0.864" fill="white"/>
<circle cx="46.3083" cy="55.662" r="0.864" fill="white"/>
<circle cx="44.1177" cy="60.924" r="0.438" fill="white"/>
<circle cx="51.5698" cy="68.388" r="0.438" fill="white"/>
<circle cx="59.0161" cy="60.924" r="0.438" fill="white"/>
<circle cx="51.5698" cy="53.49" r="0.438" fill="white"/>
<circle cx="51.5698" cy="55.662" r="0.438" fill="white"/>
<circle cx="46.3083" cy="66.18" r="0.864" fill="white"/>
<circle cx="51.5701" cy="66.18" r="0.864" fill="white"/>
<rect x="56.6699" y="55.662" width="0.318" height="10.524" fill="white"/>
<rect x="46.3076" y="55.608" width="10.524" height="0.108" fill="white"/>
<path d="M51.5367 55.6871L51.6334 55.6389L56.8862 66.1606L56.7895 66.2088L51.5367 55.6871Z" fill="white"/>
<path d="M46.2671 66.1593L51.5299 55.636L51.6265 55.6843L46.3637 66.2076L46.2671 66.1593Z" fill="white"/>
<rect x="46.1465" y="55.662" width="0.318" height="10.524" fill="white"/>
<rect x="46.3076" y="66.126" width="10.524" height="0.108" fill="white"/>
<path d="M46.1732 55.7374L46.4576 55.5951L51.7204 66.1185L51.436 66.2607L46.1732 55.7374Z" fill="white"/>
<path d="M51.431 66.1141L56.6938 55.5907L56.9782 55.7329L51.7154 66.2563L51.431 66.1141Z" fill="white"/>
<path d="M44.0732 60.9139L46.2536 55.6474L46.3534 55.6887L44.173 60.9552L44.0732 60.9139Z" fill="white"/>
<path d="M46.2602 66.21L44.0762 60.954L44.1722 60.906L46.3622 66.162L46.2602 66.21Z" fill="white"/>
<rect x="51.5156" y="66.1801" width="0.108" height="2.196" fill="white"/>
<rect x="51.5156" y="53.472" width="0.108" height="2.196" fill="white"/>
<path d="M46.2946 55.6117L51.5556 53.4336L51.5969 53.5334L46.3359 55.7115L46.2946 55.6117Z" fill="white"/>
<path d="M51.5437 53.5374L51.585 53.4376L56.8515 55.618L56.8101 55.7178L51.5437 53.5374Z" fill="white"/>
<path d="M56.7831 55.6817L56.8829 55.6403L59.0651 60.9061L58.9653 60.9474L56.7831 55.6817Z" fill="white"/>
<path d="M56.7763 66.1848L58.9613 60.9072L59.0611 60.9485L56.8761 66.2261L56.7763 66.1848Z" fill="white"/>
<path d="M51.5415 68.3425L56.8204 66.1451L56.8619 66.2448L51.583 68.4422L51.5415 68.3425Z" fill="white"/>
<path d="M51.5465 68.4299L46.2725 66.2339L46.3085 66.1379L51.5885 68.3339L51.5465 68.4299Z" fill="white"/>
</svg>
