<svg width="120" height="120" viewBox="0 0 120 120" fill="none" xmlns="http://www.w3.org/2000/svg">
<circle cx="60" cy="60" r="60" fill="#EDF0F4"/>
<path fill-rule="evenodd" clip-rule="evenodd" d="M58.0749 24.4404C54.9551 22.2025 50.3173 22.6191 47.6338 25.3645L47.6345 25.3658C44.7316 28.1109 44.3718 33.0223 46.8433 36.1643C48.4447 38.3316 51.1282 39.5293 53.8042 39.4799C54.0979 41.0262 54.4087 42.5695 54.7195 44.113C55.0532 45.7699 55.387 47.4271 55.6995 49.0882C51.425 50.5149 48.2307 54.7759 48.3427 59.3182C48.2023 63.1106 50.3735 66.7363 53.5648 68.7045C52.674 71.2345 51.7744 73.7605 50.8748 76.2862L50.8742 76.2878L50.8741 76.2881L50.874 76.2884L50.8739 76.2887L50.8738 76.2891C49.8748 79.094 48.8759 81.8986 47.8894 84.708C46.6804 84.336 45.4053 83.9737 44.1314 84.2299C42.9141 84.4025 41.81 84.9965 40.8465 85.7357C40.5004 85.4969 40.1573 85.2538 39.8143 85.0107L39.8141 85.0106L39.8139 85.0105L39.8137 85.0103L39.8135 85.0102C39.4095 84.7239 39.0055 84.4376 38.5967 84.1585C38.9219 83.2261 39.2226 82.2549 39.1436 81.2547C39.0771 79.0145 37.4703 76.9495 35.3463 76.2668C33.45 75.6179 31.2208 76.0968 29.7718 77.4893C28.2069 78.9283 27.581 81.304 28.2908 83.3148C28.9987 85.5227 31.2066 87.1689 33.5394 87.1157C34.6855 87.1795 35.7696 86.7336 36.7579 86.1964C37.2007 86.5127 37.6419 86.8307 38.0834 87.1489C38.4502 87.4133 38.8172 87.6777 39.1852 87.9413C38.8057 89.1167 38.4753 90.3686 38.7293 91.6105C39.089 94.0501 40.9669 96.1796 43.35 96.8249C45.213 97.3941 47.3076 96.9901 48.8796 95.8589C50.6245 94.6318 51.6496 92.4904 51.5805 90.3661C51.5386 88.9467 50.9152 87.6406 50.1563 86.4723C51.1692 83.7103 52.1496 80.9372 53.1299 78.1644L53.1299 78.1642L53.13 78.1639L53.1302 78.1636L53.1303 78.1633L53.1304 78.163C54.1152 75.3775 55.0999 72.5922 56.1173 69.8186C59.8411 70.9546 64.0426 69.8434 66.8249 67.1548C69.5995 69.7377 72.3615 72.3356 75.1235 74.9335C76.4065 76.1402 77.6895 77.3469 78.9737 78.5521C78.3284 80.0776 78.0338 81.7929 78.4575 83.419C79.0611 86.0535 81.2965 88.2146 83.948 88.737C85.54 89.028 87.2452 88.856 88.682 88.0817C91.0031 86.8914 92.5583 84.3618 92.5312 81.7483C92.5658 78.8077 90.5695 76.0009 87.7947 75.0372C85.3822 74.1576 82.6164 74.7539 80.6483 76.3629C76.6224 72.564 72.5876 68.7732 68.5436 64.9904C70.6851 61.3728 70.5596 56.545 68.0803 53.1249C65.9314 50.0526 62.1487 48.2699 58.4104 48.5361C58.1132 47.016 57.8081 45.497 57.5029 43.9774C57.162 42.2799 56.8209 40.5819 56.4906 38.8811C58.563 37.9692 60.315 36.2886 61.101 34.1423C62.4491 30.7118 61.1652 26.4757 58.0749 24.4404ZM48.5921 32.1993C47.9749 29.5896 49.934 26.7309 52.593 26.376L52.5943 26.3764C53.7513 26.215 54.9822 26.3809 55.9776 27.0217C57.8655 28.1209 58.7944 30.5776 58.1217 32.6552C57.5276 34.7276 55.424 36.2531 53.2622 36.1124C51.0317 36.1324 49.0135 34.363 48.5921 32.1993ZM57.5699 53.3365C54.4795 54.0761 52.3726 57.4323 53.0283 60.5375C53.5038 63.423 56.239 65.7099 59.1693 65.6457C62.0325 65.7248 64.7286 63.5562 65.3052 60.7566C65.8943 58.2799 64.778 55.4954 62.6168 54.1422C61.1481 53.1742 59.2651 52.8803 57.5699 53.3356V53.3365ZM81.6756 82.6537C81.1581 80.8052 82.3532 78.7377 84.1523 78.1414C86.4118 77.256 89.1473 79.0974 89.1966 81.5151C89.3912 83.5013 87.7524 85.3962 85.781 85.5663C83.9377 85.7905 82.0821 84.4573 81.6756 82.6537ZM32.6534 78.8916C30.6207 79.4927 30.0906 82.473 31.7958 83.7388C33.3703 85.1752 36.2094 84.0417 36.3891 81.9248C36.7417 79.946 34.5238 78.1101 32.6534 78.8919V78.8916ZM42.2026 89.3945C42.5746 88.5295 43.3409 87.8371 44.2479 87.5809V87.5806C46.1725 86.9695 48.3566 88.5934 48.2598 90.6219C48.3411 92.4785 46.4829 94.062 44.6593 93.7368C42.6805 93.5297 41.3818 91.2014 42.2026 89.3945Z" fill="#6EA8F2"/>
</svg>
