<svg width="120" height="120" viewBox="0 0 120 120" fill="none" xmlns="http://www.w3.org/2000/svg">
<circle cx="60" cy="60" r="60" fill="#DEC799"/>
<path fill-rule="evenodd" clip-rule="evenodd" d="M87.7572 49.877L82.4119 26L71.92 42.4317C63.7634 40.4772 55.2553 40.4772 47.0988 42.4317L36.6369 26L31.2728 49.877C25.5148 54.4484 22 60.4232 22 66.9825C22 81.3519 38.79 93 59.5 93C80.21 93 97 81.3482 97 66.9825C96.9962 60.4232 93.5115 54.4484 87.7535 49.877H87.7572ZM38.6625 60.8066H36.1642L42.2673 53.823H46.7087L38.6625 60.8066ZM48.9331 59.7345L59.3087 77.8712L70.0932 59.7606L67.5574 58.2641L65.1417 62.3218H53.8095L51.4951 58.2827L48.9331 59.7345ZM80.3638 60.8066L72.3138 53.823H76.7852L82.8808 60.8066H80.3638ZM55.4825 65.2552L59.3575 72.0304L63.3899 65.2552H55.4825Z" fill="white"/>
</svg>
