<svg width="120" height="120" viewBox="0 0 120 120" fill="none" xmlns="http://www.w3.org/2000/svg">
<circle cx="60" cy="60" r="60" fill="black"/>
<path fill-rule="evenodd" clip-rule="evenodd" d="M66.048 92.688H53.664C56.688 96.912 63.024 96.912 66.048 92.688ZM68.304 88.8H51.36L46.896 80.976H72.72L68.304 88.8ZM44.688 77.04H74.976L79.44 69.216H40.272L44.688 77.04ZM38.016 65.28L33.6 57.456H86.064L81.6 65.28H38.016ZM31.392 53.52H88.32L93.552 44.256H26.112L31.392 53.52ZM23.952 40.368C21.936 35.424 25.536 29.76 31.056 29.76H88.56C94.128 29.76 97.728 35.424 95.664 40.368H23.952Z" fill="url(#paint0_linear)"/>
<defs>
<linearGradient id="paint0_linear" x1="96.1303" y1="95.845" x2="96.1303" y2="29.9986" gradientUnits="userSpaceOnUse">
<stop stop-color="#FFE600"/>
<stop offset="0.3073" stop-color="#FAAD14"/>
<stop offset="0.6719" stop-color="#F7169C"/>
<stop offset="1" stop-color="#3435F5"/>
</linearGradient>
</defs>
</svg>
