<svg width="120" height="120" viewBox="0 0 120 120" fill="none" xmlns="http://www.w3.org/2000/svg">
<circle cx="60" cy="60" r="60" fill="#EDF0F4"/>
<path d="M90.3398 69.0998L75.8249 44.3189C73.1983 39.8937 66.7703 39.8937 64.1438 44.3189L49.6287 69.0998C47.0022 73.5249 50.2509 79.0393 55.5039 79.0393H84.5339C89.7178 79.0393 92.8973 73.5249 90.3398 69.0998Z" fill="#00B897"/>
<path d="M70.9863 69.5781L70.1568 68.1484C69.3966 66.7869 67.6686 63.9275 67.6686 63.9275L56.1257 44.3207C53.4992 39.8955 47.0711 39.8955 44.4445 44.3207L29.9295 69.1015C27.303 73.5268 30.5516 79.0412 35.8046 79.0412H64.5581H76.5157H84.5337C77.3452 79.0412 74.3039 75.2288 70.9863 69.5781Z" fill="#76FCB2"/>
<path d="M70.9866 69.5767L70.1571 68.1469C69.3968 66.7855 67.6688 63.926 67.6688 63.926L60.1348 51.1271L49.6287 69.1C47.0022 73.5253 50.2509 79.0397 55.5039 79.0397H64.5585H76.5161H84.5339C77.3456 79.0397 74.3043 75.2273 70.9866 69.5767Z" fill="url(#paint0_linear)"/>
<defs>
<linearGradient id="paint0_linear" x1="37.7558" y1="73.9599" x2="67.6009" y2="92.1373" gradientUnits="userSpaceOnUse">
<stop stop-color="#53E57A" stop-opacity="0.01"/>
<stop offset="1" stop-color="#00A977"/>
</linearGradient>
</defs>
</svg>
