<svg width="120" height="120" viewBox="0 0 120 120" fill="none" xmlns="http://www.w3.org/2000/svg">
<path d="M60 120C93.138 120 120 93.138 120 60C120 26.862 93.138 0 60 0C26.862 0 0 26.862 0 60C0 93.138 26.862 120 60 120Z" fill="#EDF0F4"/>
<circle cx="60.741" cy="60.13" r="37.741" fill="#09006E"/>
<path d="M60.8502 69.0978C57.9227 67.4076 56.9197 63.6643 58.6099 60.7368L83.6878 17.3006C85.378 14.3732 89.1213 13.3701 92.0488 15.0603C94.9762 16.7505 95.9792 20.4938 94.2891 23.4212L69.2111 66.8575C67.521 69.7849 63.7776 70.788 60.8502 69.0978Z" fill="url(#paint0_linear)"/>
<path d="M72.8427 80.4987L72.7219 61.3886L63.6169 76.7246H57.3859L48.2809 62.0472V80.4987H35.3999V38.5648H47.0222L60.6807 60.9093L73.9806 38.5648H85.6029L85.7218 80.4987H72.8427Z" fill="#00FFD9"/>
<path d="M60.0239 58.2863L77.7773 27.5387C78.5882 26.1324 79.9247 25.1061 81.4926 24.6856C83.0605 24.2651 84.7312 24.4851 86.1369 25.2969C87.5428 26.1081 88.5689 27.4446 88.9893 29.0124C89.4097 30.5802 89.1901 32.2507 88.3787 33.6565L70.6254 64.406C68.9354 67.3339 65.1919 68.3375 62.2639 66.6478C59.3376 64.9565 58.335 61.214 60.0239 58.2863Z" fill="url(#paint1_linear)"/>
<defs>
<linearGradient id="paint0_linear" x1="82.59" y1="36.6709" x2="93.7933" y2="17.2662" gradientUnits="userSpaceOnUse">
<stop stop-color="#00FFD9"/>
<stop offset="0.85" stop-color="#09006E"/>
</linearGradient>
<linearGradient id="paint1_linear" x1="76.9298" y1="84.0295" x2="110.995" y2="55.3089" gradientUnits="userSpaceOnUse">
<stop offset="0.08" stop-color="#00FFD9"/>
<stop offset="0.68" stop-color="#064E8F"/>
<stop offset="1" stop-color="#09006E"/>
</linearGradient>
</defs>
</svg>
