<svg width="120" height="120" viewBox="0 0 120 120" fill="none" xmlns="http://www.w3.org/2000/svg">
<path d="M118.191 74.5143C110.178 106.657 77.6222 126.219 45.4752 118.204C13.3417 110.19 -6.22004 77.6324 1.79691 45.4918C9.80683 13.3451 42.3626 -6.21803 74.4997 1.79541C106.644 9.80884 126.205 42.3702 118.191 74.5149L118.191 74.5143H118.191Z" fill="#4A90E2"/>
<circle cx="30.0376" cy="69.9775" r="5.03757" fill="white"/>
<path fill-rule="evenodd" clip-rule="evenodd" d="M60.0526 55.0751H60.4734C62.9902 55.2855 64.985 57.3855 65.0902 59.9023C65.0902 62.7347 62.885 64.9399 60.0526 64.9399C57.2202 64.9399 55.015 62.6295 55.015 59.9023C55.015 56.3335 53.8618 54.9699 49.9775 54.9699C46.0931 54.9699 44.9399 56.3335 44.9399 60.0075V60.3231C44.8347 62.8399 42.6295 64.9399 40.0075 64.9399C37.1751 64.9399 34.9699 62.6295 34.9699 59.9023C34.9699 57.2803 36.9647 55.1803 39.4815 54.9699H39.9023C44.3087 54.9699 44.9399 54.0272 44.9399 50.0376C44.9399 47.2052 47.2503 45 49.9775 45C52.8098 45 55.015 47.3104 55.015 50.0376C55.015 54.0272 55.6462 55.0751 60.0526 55.0751ZM85.0301 50.0376C85.0301 47.2052 87.3405 45 90.0676 45C92.7948 45 95 47.2052 95 49.8272C95 52.6595 92.6896 54.8647 89.9624 54.8647C86.078 54.8647 84.9249 56.2283 84.9249 59.9023V60.2179C84.8196 62.8399 82.6144 64.9399 79.9925 64.9399H79.8873C76.1081 65.0451 74.9549 66.4087 74.9549 69.9775V70.3983C74.8497 72.915 72.6445 75.015 70.0225 75.015C67.1902 75.015 64.985 72.7046 64.985 69.9775C64.985 67.4607 66.9798 65.3607 69.4965 65.0451C69.6017 64.9399 69.8121 64.9399 70.0225 64.9399C74.3237 64.9399 75.0601 63.9971 75.0601 60.1127V60.0075C75.0601 57.3855 77.0549 55.2855 79.5717 55.0751H79.9925C84.3988 55.0751 85.0301 54.0272 85.0301 50.0376Z" fill="white"/>
</svg>
