<svg width="120" height="120" viewBox="0 0 120 120" fill="none" xmlns="http://www.w3.org/2000/svg">
<circle cx="60" cy="60" r="60" fill="#222222"/>
<path fill-rule="evenodd" clip-rule="evenodd" d="M24.2023 57.9299C22.4985 58.7749 20.7708 59.6319 19 60.5075C19.1938 60.5819 19.3538 60.6449 19.4936 60.7C19.7156 60.7875 19.8865 60.8548 20.0601 60.915C21.7544 61.4908 23.4485 62.0674 25.1426 62.644C31.1403 64.6853 37.1383 66.7266 43.1455 68.7359C43.9146 68.9662 44.542 69.5258 44.8583 70.2638C49.0314 78.7884 53.2294 87.3005 57.4269 95.8114C57.8477 96.6645 58.2684 97.5176 58.6891 98.3706C59.0469 99.0958 59.4093 99.8195 59.7962 100.592C60.0212 101.042 60.2545 101.508 60.5 102C60.5584 101.849 60.607 101.726 60.6486 101.621C60.7277 101.421 60.7812 101.286 60.8282 101.147C61.4273 99.3874 62.0274 97.6278 62.6275 95.8682C64.6386 89.971 66.6497 84.0742 68.6227 78.1639C68.8938 77.2116 69.5758 76.4299 70.4826 76.0323C78.4809 72.1183 86.4669 68.1748 94.4526 64.2316C96.3811 63.2794 98.3095 62.3271 100.238 61.3753C100.552 61.2207 100.864 61.0608 101.214 60.8814C101.454 60.7587 101.712 60.6267 102 60.4811C101.816 60.4158 101.661 60.3605 101.525 60.3119C101.269 60.2203 101.081 60.1529 100.891 60.0888C99.3525 59.5659 97.814 59.0435 96.2755 58.5212C90.1207 56.4313 83.9658 54.3415 77.8206 52.2226C77.2585 52.0302 76.602 51.6152 76.353 51.1172C71.807 41.985 67.2997 32.8348 62.7914 23.6827C62.2264 22.5356 61.6613 21.3884 61.0961 20.2412C60.9861 20.019 60.8706 19.7982 60.7377 19.5442C60.6517 19.3798 60.5585 19.2016 60.4547 19C60.3928 19.1611 60.3385 19.2998 60.2897 19.424C60.1959 19.6633 60.1232 19.8488 60.0586 20.0375C59.6103 21.358 59.1617 22.6784 58.7132 23.9988C56.5346 30.4118 54.3562 36.8244 52.2038 43.2473C51.9995 43.9454 51.4967 44.5172 50.8305 44.8092C44.8874 47.715 38.9534 50.6418 33.0204 53.5682C32.3208 53.9132 31.6213 54.2582 30.9218 54.6032C28.6945 55.7018 26.4696 56.8053 24.2023 57.9299ZM66.4696 37.6423L66.4636 37.6301C64.634 33.921 62.7975 30.1979 60.9414 26.4323L47.8123 65.1669L73.731 52.3698C71.3031 47.4411 68.8925 42.554 66.4696 37.6423ZM26.4587 60.0699L44.432 66.1704L50.5362 48.1745L26.4587 60.0699ZM48.1632 70.5166L60.0322 94.5941L66.1289 76.5869L48.167 70.5166H48.1632ZM49.4866 67.8608L49.4865 67.8608L49.4863 67.8607C49.4141 67.8183 49.3267 67.7671 49.212 67.7059C49.7285 67.4489 50.2304 67.1986 50.7227 66.953L50.7366 66.9461L50.7407 66.9441L50.7413 66.9437L50.7419 66.9434C51.7675 66.4319 52.7517 65.941 53.7393 65.4536C55.111 64.7766 56.4825 64.099 57.8542 63.4213L57.8751 63.411C63.5361 60.6142 69.1984 57.8168 74.8779 55.056C75.4457 54.8076 76.083 54.7676 76.6775 54.9428C81.5282 56.5391 86.3648 58.183 91.1996 59.8263L91.2 59.8264L91.2305 59.8368C91.9959 60.0969 92.7612 60.3571 93.5265 60.617C93.6881 60.6717 93.8449 60.733 94.0627 60.8181L94.0638 60.8185C94.1761 60.8624 94.3046 60.9127 94.4583 60.9716C93.9073 61.2466 93.369 61.5156 92.8399 61.7801L92.8191 61.7905C91.3814 62.5091 90.0112 63.194 88.637 63.8728L85.8904 65.2292L85.8893 65.2297C80.18 68.0495 74.4687 70.8703 68.7434 73.663C68.2794 73.8894 67.6078 74.0177 67.1362 73.8668C62.4726 72.3254 57.8237 70.7426 53.1736 69.1596C52.0305 68.7704 50.8874 68.3812 49.744 67.9926C49.6655 67.9657 49.5924 67.9229 49.4866 67.8608Z" fill="white"/>
</svg>
