<svg width="120" height="120" viewBox="0 0 120 120" fill="none" xmlns="http://www.w3.org/2000/svg">
<circle cx="60" cy="60" r="60" fill="#50479E"/>
<path fill-rule="evenodd" clip-rule="evenodd" d="M59.2503 40.1236L59.3453 40.176L60.7055 39.426L62.1704 40.1197L78.3658 31.1877L62.1704 40.1235L78.3658 49.0555L79.883 49.8917V50.0267L94.5837 41.9159C93.5762 40.1886 92.119 38.7692 90.3686 37.8099L78.3658 31.1877L66.1314 24.4381C64.4661 23.5238 62.6036 23.0309 60.7055 23.002C58.9401 22.9696 57.1901 23.3375 55.5861 24.0782L42.8733 31.094L42.901 31.1093L29.9438 38.2261V38.2223C28.5537 39.1148 27.3804 40.3147 26.5134 41.7396C25.5232 43.3558 25 45.2232 25 47.1243L25.0267 56.771L25 56.75V73.8716C25.0039 75.8351 25.5637 77.7572 26.6143 79.4137C27.6129 80.9936 28.9952 82.293 30.6314 83.1898V83.186L54.8686 96.5652C56.6567 97.5446 58.6688 98.0384 60.7055 97.9977V97.9939C62.6033 97.9659 64.4656 97.4742 66.1314 96.5615L78.1715 89.9169L78.3658 89.8081L90.3686 83.1898C92.1137 82.2261 93.5225 80.8574 94.494 79.245C95.4768 77.6288 96 75.7689 96 73.8678V47.1318C96 45.2757 95.4955 43.4945 94.5837 41.9196L79.883 50.0304V71.3254L78.3658 72.1616L78.3658 72.1579L62.1704 81.0899L60.8102 81.8398L60.7055 81.7836L59.3453 81.0336L42.8434 71.9292L41.5579 71.168L41.5318 70.4255V69.7055V51.5116L36.0334 54.5416L41.5318 51.5078V50.0117L59.3042 40.176L59.2503 40.1236ZM27.9048 59.0265L36.0334 54.5416L27.9007 59.0232L25.0267 56.771L25.0374 60.6011L27.9007 59.0232L27.9048 59.0265ZM25.0408 60.6067L27.9048 59.0265L41.5318 69.7055L25.0408 60.6067ZM25.0408 60.6067L25.0374 60.6086V60.6048L25.0408 60.6067ZM59.2503 40.1236L42.901 31.1093L47.4211 28.6266L59.2503 40.1236ZM76.7926 69.6643V51.7253L76.7889 51.7328L60.6981 60.6086V78.54L76.7926 69.6643Z" fill="white"/>
</svg>
