<svg width="120" height="120" viewBox="0 0 120 120" fill="none" xmlns="http://www.w3.org/2000/svg">
<circle cx="60" cy="60" r="60" fill="#EDF0F4"/>
<path d="M60.0211 99.8404L59.5627 99.6112C41.6926 89.1516 28.1754 71.8963 22.677 51.2802C21.8002 48.037 21.1494 44.7158 20.6914 41.3562C20.271 37.9865 20.0414 34.5958 20.0038 31.2002C20.0038 30.6274 19.9274 30.7038 20.4622 30.4366C29.6279 25.2178 39.7386 21.8705 50.2079 20.589C54.0977 20.1309 58.0143 19.9396 61.9303 20.0166C64.1451 20.0566 66.3215 20.2074 68.4979 20.4366C79.4579 21.62 89.7422 24.9031 99.3508 30.2858C99.5036 30.3622 99.618 30.4386 99.7708 30.515C99.9236 30.5914 100 30.7058 100 30.8966V31.4694C99.96 33.4546 99.8856 35.4014 99.7328 37.3866C99.5038 40.2053 99.1213 43.0095 98.5872 45.7866C97.4416 51.7802 95.6472 57.5447 93.1652 63.0799C89.2321 71.8983 83.8609 79.7497 77.0515 86.6339C72.1741 91.595 66.6666 95.8946 60.6703 99.4224C60.4411 99.5752 60.2503 99.6896 60.0211 99.8424V99.8404Z" fill="black"/>
<path d="M23.6702 33.1486C28.5205 30.337 33.6856 28.1075 39.0583 26.5062C46.3895 24.3302 53.8355 23.2994 61.4727 23.4522C65.024 23.5286 70.9424 24.101 71.9352 24.483C71.9752 24.5594 71.8952 24.5974 71.8208 24.5974C71.4772 24.7502 71.0952 24.8646 70.7516 25.0174C64.4511 27.6514 59.9835 33.187 58.6851 39.9054C58.4952 41.003 58.3804 42.1122 58.3415 43.2254C58.3015 44.9054 58.1507 46.5854 57.6543 48.2254C55.9743 54.1427 51.1247 58.7619 45.1299 60.1359C37.2639 61.9327 29.3207 58.0403 25.8846 50.7474C25.6938 50.3274 25.541 49.9074 25.4646 49.4878C24.8992 47.0185 24.4658 44.5209 24.1662 42.0054C23.8226 39.2186 23.6318 36.4318 23.6318 33.6454C23.6641 33.482 23.6775 33.3154 23.6718 33.149L23.6702 33.1486Z" fill="#F7A800"/>
<path d="M79.9918 78.8823C80.0682 78.1571 80.1446 77.5079 80.1826 76.8207C80.3734 73.0415 79.5718 69.4531 77.777 66.1319C76.057 62.9635 73.653 60.4439 70.5602 58.5351C70.293 58.3443 69.9874 58.1915 69.7202 58.0007C65.4801 55.3283 62.8849 51.549 61.9685 46.6246C60.3285 37.7682 65.9013 29.217 74.6458 27.1174C77.7386 26.3922 80.7554 26.4686 83.7718 27.4226C86.2518 28.1862 88.6214 29.217 90.9886 30.3238C92.6286 31.0874 94.1962 31.927 95.7618 32.8038C95.9526 32.9182 96.1054 32.9946 96.3346 33.1474C96.3346 33.3002 96.3746 33.4146 96.3746 33.5674C96.3746 35.5906 96.2602 37.6522 96.1074 39.6754C95.836 42.6512 95.3897 45.6084 94.771 48.5318C92.8998 57.1595 89.5778 65.1379 84.7666 72.5439C83.4302 74.6055 81.979 76.5903 80.4518 78.4991C80.2974 78.6151 80.221 78.7679 79.9918 78.8823Z" fill="#67B2E8"/>
<path d="M60.0213 95.9464C59.4485 95.7172 57.6921 94.6484 55.8213 93.3888C51.6581 90.5999 47.7937 87.3889 44.2897 83.8067C40.7767 80.2282 37.6535 76.2869 34.9724 72.0491C32.4589 68.1361 30.348 63.9786 28.672 59.6403C28.6232 59.5165 28.585 59.3889 28.5576 59.2587C28.7484 59.3731 28.8248 59.4115 28.9396 59.4879C30.276 60.5187 31.6888 61.3967 33.2164 62.0455C35.164 62.8855 37.1876 63.4579 39.326 63.6487C43.6409 64.0687 47.6885 63.1907 51.5069 61.0527C53.4793 59.9458 55.6427 59.2206 57.8837 58.9151C65.8641 57.9227 73.8065 62.6563 76.2886 70.9019C77.5486 75.1395 77.1686 79.2619 75.2193 83.2707C74.9521 83.8051 74.7229 84.3015 74.4557 84.7975C74.3029 85.1031 74.1121 85.4083 73.8449 85.6375C69.7973 89.4552 65.3681 92.8144 60.5569 95.6376C60.3661 95.752 60.1749 95.8668 60.0225 95.9432L60.0213 95.9464Z" fill="#00C4B3"/>
</svg>
