<svg width="120" height="120" viewBox="0 0 120 120" fill="none" xmlns="http://www.w3.org/2000/svg">
<circle cx="60" cy="60" r="60" fill="#B3BA00"/>
<path fill-rule="evenodd" clip-rule="evenodd" d="M48.75 40.2863L49.2375 39.99L60.015 33.75L71.25 40.2562V75L48.75 40.2863ZM60.51 86.25L48.75 79.3688V45L71.25 79.98L60.51 86.25ZM37.5 46.335V73.665L45 78.75V41.25L37.5 46.335ZM82.5 73.5488L75 78.75V41.25L82.5 46.4513V73.5488Z" fill="white"/>
<path fill-rule="evenodd" clip-rule="evenodd" d="M15 60C15 35.1562 35.1562 15 60 15C84.8438 15 105 35.1562 105 60C105 84.8438 84.8438 105 60 105C35.1562 105 15 84.8438 15 60ZM35.5275 74.175L59.8125 88.575L59.8162 88.5713L84.1012 74.1787V45.42L59.8162 31.0575L35.5275 45.42V74.175Z" fill="white"/>
</svg>
