<svg width="40" height="40" viewBox="0 0 165 165" fill="none" xmlns="http://www.w3.org/2000/svg">
<path d="M161.177 82.49C161.177 39.1324 126.029 3.98416 82.671 3.98416C39.3134 3.98416 4.16516 39.1324 4.16516 82.49C4.16516 125.848 39.3134 160.996 82.671 160.996C126.029 160.996 161.177 125.848 161.177 82.49Z" stroke="url(#paint0_linear_10:45)" stroke-width="3.97"/>
<path fill-rule="evenodd" clip-rule="evenodd" d="M9.33661 50.7475C6.88173 51.975 0.945755 76.725 5.49332 97.1286L9.33661 110.449C14.2665 131.215 27.064 139.767 29.2976 139.264C57.4971 132.28 83.5608 118.505 105.218 99.1408H105.016C102.697 98.376 100.323 97.7907 97.9134 97.3902L93.1043 101.696L92.0177 96.5854H90.5488H89.9854L86.7256 101.415L84.2707 96.3841C80.1372 96.3325 76.0342 97.0984 72.1976 98.6378C71.84 98.7979 71.4335 98.8094 71.0675 98.6698C70.7014 98.5301 70.4058 98.2508 70.2457 97.8933C70.0856 97.5357 70.0741 97.1292 70.2138 96.7632C70.3534 96.3971 70.6327 96.1016 70.9903 95.9415C76.8055 93.3457 84.1903 93.064 90.911 93.7079C96.5995 94.2462 102.213 95.3999 107.652 97.1488C114.88 90.4536 121.555 83.1861 127.613 75.4171C135.662 64.9939 128.217 51.5524 114.997 51.0695C86.2025 49.8421 41.0488 48.7555 9.33661 50.7475ZM101.616 71.2518C100.307 71.3362 99.0015 71.0308 97.8656 70.3741C96.7297 69.7175 95.8138 68.739 95.2335 67.5623C94.6531 66.3855 94.4344 65.0632 94.605 63.7623C94.7755 62.4614 95.3276 61.2401 96.1916 60.2527C97.0556 59.2653 98.1928 58.5559 99.4595 58.2142C100.726 57.8725 102.066 57.9137 103.309 58.3327C104.553 58.7517 105.644 59.5296 106.446 60.5683C107.247 61.607 107.723 62.8599 107.813 64.1689C107.874 65.0413 107.761 65.917 107.481 66.7457C107.202 67.5744 106.762 68.3398 106.186 68.9979C105.61 69.6561 104.91 70.194 104.126 70.5807C103.342 70.9675 102.489 71.1956 101.616 71.2518V71.2518Z" fill="#7749F8"/>
<path d="M110.892 59.1585L90.77 67.7506L87.9127 64.8732L105.077 53.4238L110.892 59.1585Z" fill="#7749F8"/>
<g opacity="0.5">
<path opacity="0.5" d="M117.794 62.539C117.789 65.4456 117.073 68.3068 115.709 70.8734C114.344 73.44 112.373 75.6341 109.967 77.2646C107.561 78.8952 104.793 79.9127 101.903 80.2286C99.014 80.5444 96.0912 80.1491 93.3896 79.0769C90.688 78.0047 88.2895 76.2882 86.403 74.077C84.5166 71.8658 83.1994 69.2268 82.5662 66.3901C81.9329 63.5533 82.0029 60.6047 82.77 57.8012C83.537 54.9976 84.978 52.4241 86.9672 50.3049L88.3355 50.5866H96.5855L100.389 50.9488H110.449L112.462 51.4518H113.629L113.91 51.3311C116.456 54.5087 117.828 58.4674 117.794 62.539V62.539Z" fill="url(#paint1_linear_10:45)"/>
<path opacity="0.5" d="M117.794 62.539C117.763 65.176 117.148 67.7735 115.993 70.144C114.837 72.5146 113.17 74.5992 111.111 76.2478C109.053 77.8963 106.654 79.0676 104.089 79.6772C101.523 80.2869 98.8538 80.3197 96.2738 79.7734C93.6938 79.227 91.2671 78.1151 89.1687 76.5177C87.0703 74.9204 85.3524 72.8773 84.1388 70.5359C82.9253 68.1945 82.2463 65.613 82.1508 62.9775C82.0554 60.342 82.5458 57.7182 83.5867 55.2951C84.0879 54.1615 84.7157 53.0882 85.4581 52.0957C85.7657 51.5817 86.1452 51.1142 86.5849 50.7073C87.2691 50.2244 88.7581 50.5463 89.5428 50.5664H93.0038L100.107 50.7677C104.131 50.9085 108.035 51.0494 111.999 51.2305C112.784 51.2305 113.709 51.1299 114.313 51.6128C114.751 52.0317 115.094 52.5394 115.319 53.1018C115.847 54.1524 116.311 55.2343 116.707 56.3414C117.439 58.3252 117.807 60.4246 117.794 62.539V62.539Z" stroke="white" stroke-width="0.53"/>
</g>
<path fill-rule="evenodd" clip-rule="evenodd" d="M119.645 51.6933C119.445 51.5553 119.219 51.4595 118.981 51.4116L118.136 51.2104C117.529 51.0363 116.893 50.9816 116.265 51.0494C116.395 51.3163 116.557 51.5663 116.748 51.7939C116.923 52.0531 117.085 52.3218 117.231 52.5988C117.553 53.1421 117.854 53.7055 118.116 54.2689C118.642 55.4284 119.06 56.6342 119.364 57.8707C119.742 59.3979 119.931 60.9658 119.927 62.539C119.926 65.48 119.274 68.3843 118.02 71.0443C116.765 73.7043 114.939 76.0542 112.67 77.926C110.402 79.7978 107.748 81.1452 104.898 81.8719C102.048 82.5985 99.0731 82.6865 96.1854 82.1295C93.2977 81.5725 90.5687 80.3842 88.1936 78.6497C85.8186 76.9153 83.8562 74.6774 82.4467 72.0962C81.0372 69.515 80.2156 66.6542 80.0404 63.7184C79.8653 60.7827 80.3411 57.8445 81.4337 55.114C81.8113 54.1911 82.2552 53.2967 82.7617 52.4378C83.0233 51.9951 83.2849 51.5726 83.5666 51.1701C83.7097 50.967 83.8642 50.7722 84.0294 50.5866C84.1501 50.4457 84.452 50.1842 84.4117 49.9829C83.8087 49.9428 83.2037 49.9428 82.6007 49.9829H81.6953C81.3934 49.9829 81.2526 49.9829 81.0916 50.2043L80.83 50.6067C80.4879 51.15 80.166 51.6933 79.8843 52.2567C79.3171 53.3612 78.8458 54.5124 78.4757 55.6976C77.3632 59.1403 77.092 62.7995 77.685 66.3686C78.278 69.9377 79.7178 73.3127 81.8837 76.2107C84.0497 79.1087 86.8788 81.4454 90.1339 83.0248C93.3889 84.6043 96.9751 85.3805 100.592 85.2885C104.209 85.1964 107.751 84.2388 110.921 82.4958C114.092 80.7529 116.799 78.2754 118.814 75.2709C120.83 72.2665 122.096 68.8226 122.507 65.228C122.918 61.6334 122.461 57.9927 121.175 54.611C120.953 54.0677 120.732 53.5445 120.47 53.0213C120.343 52.6707 120.196 52.328 120.028 51.9951C119.917 51.8745 119.788 51.7725 119.645 51.6933V51.6933Z" fill="white"/>
<path opacity="0.52" fill-rule="evenodd" clip-rule="evenodd" d="M31.9133 106.264C26.8426 111.697 21.6712 115.319 16.017 115.762L16.2383 118.418C22.8786 117.874 28.6536 113.649 33.8651 108.075C38.6067 102.699 42.9829 97.0122 46.9645 91.0518L48.7956 88.5366C53.0141 82.0803 57.9707 76.1378 63.5652 70.8293C68.656 66.4628 73.8877 64.3097 79.6627 65.6579L79.9645 62.5994C73.0024 60.9695 67.2273 64.1488 61.8548 68.8171C56.0939 74.2385 50.9883 80.3166 46.6426 86.9268L44.8115 89.5226C40.8812 95.3779 36.5726 100.97 31.9133 106.264V106.264Z" fill="white"/>
<path d="M26.7823 30.6055L42.739 51.8945C42.739 51.8945 40.0829 54.5506 29.4384 54.5506C18.7939 54.5506 13.4817 51.8945 13.4817 51.8945L26.7823 30.6055Z" fill="#8559FF"/>
<path d="M50.7274 150.371L29.4384 137.051C32.5852 134.866 36.0182 133.126 39.6402 131.879C44.9197 130.688 50.3275 130.16 55.7377 130.31L50.7274 150.371Z" fill="#9169FF"/>
<path d="M32.1951 74.4512L29.539 78.7171V95.7403L24.1464 99.8049" stroke="white" stroke-opacity="0.22" stroke-width="1.06"/>
<path d="M26.7823 71.8555L24.1463 76.1214V93.1445L20.1219 94.5732" stroke="white" stroke-opacity="0.22" stroke-width="1.06"/>
<path d="M21.4499 69.1994L18.7938 72.922V87.8323L14.8097 90.5488" stroke="white" stroke-opacity="0.22" stroke-width="1.06"/>
<defs>
<linearGradient id="paint0_linear_10:45" x1="-30.5653" y1="112.643" x2="151.257" y2="64.2494" gradientUnits="userSpaceOnUse">
<stop stop-color="#7749F8"/>
<stop offset="1" stop-color="#8153FF"/>
</linearGradient>
<linearGradient id="paint1_linear_10:45" x1="77.5099" y1="37.8091" x2="122.382" y2="87.289" gradientUnits="userSpaceOnUse">
<stop stop-color="white"/>
<stop offset="1" stop-color="white" stop-opacity="0"/>
</linearGradient>
</defs>
</svg>
