<svg width="120" height="120" viewBox="0 0 120 120" fill="none" xmlns="http://www.w3.org/2000/svg">
<path d="M60 120C93.138 120 120 93.138 120 60C120 26.862 93.138 0 60 0C26.862 0 0 26.862 0 60C0 93.138 26.862 120 60 120Z" fill="#EDF0F4"/>
<path fill-rule="evenodd" clip-rule="evenodd" d="M94.1208 62.6898C95.1674 63.3875 94.8186 63.969 93.0743 64.4341C92.3765 64.6667 92.3765 64.783 92.3765 65.1318C92.3765 66.0621 92.2603 66.411 90.2834 66.7598C89.7862 66.7189 89.3184 66.9996 89.1205 67.4576C89.2368 68.2716 88.3065 68.7367 86.2134 68.9693C85.6561 68.9757 85.1196 69.182 84.7016 69.5507C84.3528 70.3647 83.1899 70.7136 80.9805 70.7136C80.364 70.6755 79.7518 70.8387 79.2362 71.1787C78.5384 71.8765 77.0267 72.2253 74.8173 72.109C74.14 72.0674 73.4625 72.1869 72.8404 72.4579C71.3552 73.16 69.683 73.3639 68.0726 73.0393C67.3348 72.9551 66.5881 72.9944 65.8632 73.1556C64.2521 73.705 62.518 73.7857 60.8629 73.3882C60.131 73.2718 59.3853 73.2718 58.6534 73.3882C57.0088 73.8201 55.2758 73.7798 53.6531 73.2719C52.9373 73.0527 52.1785 73.0128 51.4436 73.1556C49.8366 73.5479 48.1416 73.3412 46.6759 72.5742C46.0502 72.3154 45.3755 72.1963 44.699 72.2253C42.4896 72.3416 41.0941 72.109 40.2801 71.295C39.7165 71.1171 39.1263 71.0384 38.5358 71.0624C36.3264 71.0624 35.0472 70.5973 34.8147 69.8996C34.3967 69.5309 33.8602 69.3246 33.3029 69.3181C31.2098 69.0856 30.1632 68.6204 30.2795 67.9227C30.2795 67.5738 29.9306 67.3413 29.1166 67.225C27.1397 66.8761 26.442 66.2947 27.0235 65.597C27.256 65.3644 27.0235 65.0155 26.3257 64.8993C24.5814 64.4341 24.2326 63.8527 25.2792 63.155C25.628 62.9224 25.5117 62.5735 25.0466 62.341C23.6511 61.7595 23.6511 61.1781 25.0466 60.5967C25.5117 60.3641 25.628 60.0152 25.2792 59.7826C24.2326 59.0849 24.5814 58.5035 26.3257 58.0383C27.0235 57.8058 27.256 57.5732 27.0235 57.3406C26.442 56.6429 27.1397 56.0615 29.1166 55.7126C29.6138 55.7535 30.0816 55.4728 30.2795 55.0149C30.1632 54.2009 31.0935 53.7357 33.1866 53.5032C33.7439 53.4967 34.2804 53.2904 34.6984 52.9217C35.0472 52.1077 36.2101 51.7589 38.4195 51.6426C39.036 51.6807 39.6482 51.5175 40.1638 51.1774C40.8616 50.4797 42.3733 50.1309 44.5827 50.2471C45.26 50.2888 45.9375 50.1692 46.5596 49.8983C48.0448 49.1962 49.717 48.9922 51.3274 49.3168C52.0652 49.401 52.8119 49.3617 53.5368 49.2006C55.1479 48.6511 56.882 48.5705 58.5371 48.968C59.269 49.0844 60.0147 49.0844 60.7466 48.968C62.3912 48.5361 64.1242 48.5764 65.7469 49.0843C66.4627 49.3034 67.2215 49.3433 67.9564 49.2006C69.5634 48.8082 71.2584 49.0149 72.7241 49.782C73.3498 50.0408 74.0245 50.1598 74.701 50.1309C76.9104 50.0146 78.3059 50.2471 79.1199 51.0611C79.6355 51.4012 80.2477 51.5644 80.8642 51.5263C83.0736 51.5263 84.3528 51.9914 84.5853 52.6892C84.9879 53.0826 85.5346 53.2929 86.0971 53.2706C87.7251 53.3869 88.6554 53.852 89.1205 54.666C89.3184 55.1239 89.7862 55.4047 90.2834 55.3638C91.7951 55.3638 92.958 56.294 92.3765 56.9918C92.144 57.2243 92.3765 57.6895 93.0743 57.6895C94.4697 57.6895 95.1674 58.7361 94.1208 59.4338C93.772 59.6664 93.772 60.0152 94.3534 60.2478C95.7489 60.8292 95.7489 61.4107 94.3534 61.9921C93.9464 62.1084 93.8301 62.4572 94.1208 62.6898Z" stroke="black" stroke-width="1.5"/>
<path d="M57.3157 35.3624C58.7812 34.8471 59.7294 33.4248 59.6414 31.8738C59.5251 30.1295 57.7808 29.5481 55.5714 30.3621C51.1525 31.8738 49.9896 36.8742 49.2919 41.8745C49.0593 43.2699 48.943 44.7817 48.8267 46.0608C47.426 56.6217 46.8041 67.2713 46.9662 77.9234C47.0824 79.7839 47.6639 81.8771 46.1521 83.854C43.5938 84.0866 44.2916 82.5748 41.9658 83.3888C38.3028 84.6564 39.175 89.552 41.7914 89.3078C42.6688 89.2884 43.5199 89.0047 44.2334 88.4938C48.7686 86.1681 49.35 80.1212 50.164 74.0743C51.5547 63.1608 52.2152 52.1666 52.1409 41.1651V41.0605C52.1409 39.0836 51.7921 35.8276 53.0712 35.1299C54.3504 34.4322 55.2807 36.1765 57.2575 35.3624" fill="black"/>
<path d="M74.3519 30.6296C69.933 32.1413 68.7701 37.1416 68.0724 42.142C67.8398 43.5374 67.7235 45.0491 67.6072 46.3283C66.2065 56.8891 65.5847 67.5387 65.7467 78.1908C65.8629 80.0514 66.4444 82.1446 64.9327 84.1214C62.3743 84.4703 63.0721 82.8423 60.7463 83.6563C57.1414 84.9354 57.9555 89.8195 60.63 89.5869C61.5074 89.5675 62.3585 89.2838 63.0721 88.7729C67.6072 86.4472 68.1887 80.4003 69.0027 74.3534C70.3934 63.4399 71.0538 52.4457 70.9796 41.4442V41.3279C70.9796 39.3511 70.6307 36.095 71.9099 35.3973C73.189 34.6996 74.1193 36.3276 76.0962 35.5136C77.5617 34.9983 78.5099 33.576 78.4219 32.025C78.3056 30.397 76.5613 29.8156 74.3519 30.6296Z" fill="black"/>
</svg>
