<svg width="120" height="120" viewBox="0 0 120 120" fill="none" xmlns="http://www.w3.org/2000/svg">
<circle cx="60" cy="60" r="60" fill="#EDF0F4"/>
<path d="M60 21L30 51L60 79.7435L90 51L60 21Z" fill="url(#paint0_linear)"/>
<path d="M44.9023 76.5284C45.563 75.6439 46.189 74.8042 46.9386 73.988C37.9221 76.1608 31.7129 80.7113 31.7129 85.9779C31.7129 86.1743 31.7235 86.3695 31.7403 86.5631C32.6248 86.2274 33.5579 85.8257 34.5493 85.3385C40.5051 82.4126 42.8413 79.2864 44.9023 76.5284Z" fill="black"/>
<path d="M54.2937 86.2084C56.0968 83.7955 57.6537 81.7121 62.0548 79.551C66.456 77.3899 69.0574 77.4302 72.0688 77.4766C74.0862 77.5085 76.2618 77.5415 78.9158 76.9731C75.6795 75.2344 71.5183 73.9191 66.8151 73.2137L60 79.7412L55.2364 75.1773C51.8417 77.4632 50.1024 79.7877 48.5231 81.8973C46.72 84.3102 45.1631 86.3941 40.762 88.5547C37.675 90.0707 35.4741 90.5032 33.3953 90.61C35.035 92.7846 37.7958 94.694 41.3315 96.1619C42.155 95.8425 43.021 95.4643 43.9357 95.0151C49.8948 92.0926 52.2311 88.9664 54.2937 86.2084Z" fill="black"/>
<path d="M69.7583 98.2028C76.8727 96.671 82.3938 93.6842 84.7636 90.0087C82.7289 90.3801 80.414 91.0934 77.6587 92.4478C73.8182 94.3359 71.4853 96.3046 69.7583 98.2028Z" fill="black"/>
<path opacity="0.5" d="M60 51H30L60 21V51Z" fill="url(#paint1_linear)"/>
<path fill-rule="evenodd" clip-rule="evenodd" d="M48.7983 97.6218C48.7983 97.6218 51.7152 98.2358 55.0049 98.6087C58.2946 98.9815 60.2464 98.499 60.2464 98.499C60.2464 98.499 65.1371 90.7573 70.0716 88.6957C70.0716 88.6957 74.8746 86.1736 79.2389 86.5026L84.4147 86.7219C84.4147 86.7219 84.6033 84.8143 83.7362 82.4087C82.8691 80.0031 81.4978 79.5723 81.4978 79.5723C81.4978 79.5723 71.8261 79.1776 66.0582 82.6208C66.0582 82.6208 59.1718 87.2263 56.2111 92.0732C56.2111 92.0732 54.1934 94.5952 52.6582 95.4944" fill="black"/>
<defs>
<linearGradient id="paint0_linear" x1="60.239" y1="22.9097" x2="32.9954" y2="51.3313" gradientUnits="userSpaceOnUse">
<stop offset="0.09" stop-color="#FF6D41"/>
<stop offset="0.5" stop-color="#FA297F"/>
<stop offset="1" stop-color="#FA297F"/>
</linearGradient>
<linearGradient id="paint1_linear" x1="52.7667" y1="15.2741" x2="24.807" y2="43.2333" gradientUnits="userSpaceOnUse">
<stop stop-color="#652CB4"/>
<stop offset="0.07" stop-color="#652CB4" stop-opacity="0.82"/>
<stop offset="0.19" stop-color="#652CB4" stop-opacity="0.53"/>
<stop offset="0.3" stop-color="#652CB4" stop-opacity="0.3"/>
<stop offset="0.4" stop-color="#652CB4" stop-opacity="0.14"/>
<stop offset="0.49" stop-color="#652CB4" stop-opacity="0.04"/>
<stop offset="0.55" stop-color="#652CB4" stop-opacity="0.01"/>
</linearGradient>
</defs>
</svg>
