<svg width="120" height="120" viewBox="0 0 120 120" fill="none" xmlns="http://www.w3.org/2000/svg">
<circle cx="60" cy="60" r="60" fill="#F80000"/>
<path fill-rule="evenodd" clip-rule="evenodd" d="M59.2925 35.375L49.5125 43.4525L75.4138 40.4225L62.7275 35.12C62.7275 35.12 64.0475 25.5238 55.325 23L54.53 26.03C54.53 26.03 59.8175 27.2937 59.2925 35.375ZM51.89 98L77 63.6575L67.22 64.16L75.9425 41.9412L49.3775 45.6012L47 70.0963H52.8162L51.89 98ZM56.3825 81.4625V88.025C56.3825 88.5125 55.9738 88.91 55.46 88.91C54.9462 88.91 54.5338 88.5125 54.5338 88.025V81.4587C54.5338 80.9712 54.95 80.5775 55.46 80.5775C55.97 80.5775 56.3825 80.975 56.3825 81.4625ZM49.5125 68.2025H54.8L54.5562 78.3012C54.5525 78.5675 54.6575 78.8262 54.8525 79.0137C55.0475 79.2012 55.3138 79.3138 55.5913 79.3138H55.6363C56.1856 79.3245 56.6432 78.8951 56.6675 78.3463L56.9113 66.4325H51.6237L53.3975 46.8612C53.4163 46.6362 53.3375 46.4113 53.1762 46.2425C53.015 46.0737 52.79 45.98 52.55 45.98H52.4C51.9694 45.9713 51.6026 46.291 51.5525 46.7188L49.5125 68.2025Z" fill="white"/>
</svg>
