<svg width="120" height="120" viewBox="0 0 120 120" fill="none" xmlns="http://www.w3.org/2000/svg">
<circle cx="60" cy="60" r="60" fill="#2AB0FD"/>
<path d="M96.1799 55.0186C96.7986 55.0111 97.1924 55.0936 97.4399 55.3186C97.7024 55.5586 97.8074 55.9486 97.8636 56.5598C99.6111 76.7303 84.3562 94.9621 64.1214 96.8332C43.2566 98.7644 25.1443 83.7087 23.1643 62.7846C21.2368 42.4641 36.4955 24.0298 56.8615 22.1774C68.3964 21.1274 78.3563 24.7498 86.7412 32.737C86.8275 32.8195 86.8087 33.1645 86.7112 33.262C84.8284 35.1802 82.9283 37.0815 81.0113 38.9655C80.9025 39.0705 80.5125 39.0555 80.3925 38.9467C71.7414 31.0196 61.7177 28.6721 50.7566 32.6657C39.6717 36.7043 33.3305 45.0665 32.0742 56.841C30.3868 72.7742 42.4129 86.8174 58.4552 88.0286C72.9976 89.1235 86.175 78.8302 88.5862 64.4608C88.6087 64.3183 88.2862 63.962 88.1212 63.962C79.14 63.9358 70.1589 63.9433 61.1815 63.9095C60.949 63.9095 60.5177 63.4783 60.5102 63.242C60.4631 60.7324 60.4631 58.222 60.5102 55.7123C60.514 55.4874 60.9152 55.0824 61.1365 55.0786C67.1214 55.0449 90.4837 55.0974 96.1761 55.0149L96.1799 55.0186Z" fill="white"/>
</svg>
