<svg width="120" height="120" viewBox="0 0 120 120" fill="none" xmlns="http://www.w3.org/2000/svg">
<circle cx="60" cy="60" r="60" fill="#186C9D"/>
<path fill-rule="evenodd" clip-rule="evenodd" d="M72.3231 87.9925L72.3193 88L68.466 87.9515H68.4547L45.108 55.8523L36.4758 87.8395L26 87.7947L39.1769 38.8917C39.8456 35.8117 42.6449 32.9557 45.9504 32.1867C46.5188 32.0563 47.1011 31.9948 47.6844 32.0037V32L51.5416 32.0261L51.5302 32.0635L51.5453 32.0485L74.892 64.144L83.528 32.1568L94 32.2091L80.8269 81.1008C80.162 84.1845 77.3627 87.0405 74.0533 87.8059C73.4871 87.9411 72.9056 88.0038 72.3231 87.9925ZM49.2371 40.5717L47.4124 47.3291L47.4162 47.3253L70.7629 79.432L72.5876 72.6747L49.2371 40.5717Z" fill="white"/>
</svg>
