<svg width="120" height="120" viewBox="0 0 120 120" fill="none" xmlns="http://www.w3.org/2000/svg">
<circle cx="60" cy="60" r="60" fill="#EDF0F4"/>
<path fill-rule="evenodd" clip-rule="evenodd" d="M78.0881 68.5521C80.724 71.2768 83.8542 72.3502 87.4785 72.4327C94.3978 72.3502 100.081 66.7357 99.9991 59.7176C99.9991 52.6169 94.3978 47.0025 87.3962 47.0025C83.2776 47.0025 80.065 48.7364 77.2644 51.6262C74.6285 54.4334 70.757 54.4334 68.1211 52.039C65.5675 49.6446 65.3204 46.0117 67.5445 43.0393C67.874 42.6678 68.2035 42.2755 68.533 41.8833C68.8625 41.4912 69.1919 41.099 69.5214 40.7275C73.3929 36.1038 73.4753 29.5811 69.8509 24.8749C66.3089 20.1686 59.8015 18.6824 54.2826 21.242C48.9284 23.7189 46.2101 29.5811 47.4457 35.4433C48.0308 38.3027 49.7202 40.3157 51.4756 42.4074C51.697 42.6712 51.9195 42.9363 52.1409 43.2044C54.4473 46.0943 54.2826 49.8097 51.8114 52.2041C49.2579 54.6811 45.3864 54.6811 42.5857 52.1216C42.3386 51.9151 42.0915 51.6674 41.8444 51.4197C41.5972 51.172 41.3501 50.9243 41.103 50.7179C36.9844 47.2502 31.3007 46.6722 26.5231 49.2317C22.1574 51.6262 19.4391 56.9104 20.0981 61.8643C20.8395 67.1485 24.5462 71.2768 29.7356 72.5153C34.678 73.6712 38.9613 72.2676 42.421 68.5521C45.2216 65.6623 48.9284 65.3321 51.729 67.7265C54.6944 70.2034 54.7768 73.9189 52.1409 77.2215C51.8609 77.5957 51.5574 77.9581 51.2526 78.3221C50.7504 78.9219 50.2446 79.5259 49.8345 80.1939C46.9514 84.8176 46.7867 89.5238 49.6697 94.1475C52.388 98.6061 57.6598 100.753 62.9316 99.762C67.7092 98.9363 71.5807 95.0557 72.7339 90.1844C73.9695 84.9827 71.5807 81.0196 68.4506 77.2215C65.5675 73.7538 65.7323 69.9557 68.6153 67.4788C71.3336 65.0844 75.0403 65.4972 78.0881 68.5521ZM60.0486 40.2321C64.1672 40.1495 67.4621 36.8469 67.4621 32.7186C67.4621 28.5903 63.8377 25.1226 59.7191 25.2051C55.4358 25.3702 52.0585 28.7554 52.2233 32.8837C52.3056 37.0946 55.7653 40.3146 60.0486 40.2321ZM33.0305 67.809C37.1491 67.809 40.444 64.5064 40.444 60.3781C40.444 56.1673 37.0668 52.7821 32.8658 52.8646C28.5001 52.9472 25.2052 56.2498 25.2876 60.3781C25.2876 64.6715 28.6648 67.809 33.0305 67.809ZM94.892 60.1304C94.7273 64.2587 91.2677 67.3962 87.1491 67.2311C82.7833 67.1485 79.6532 63.8459 79.7356 59.5525C79.8179 55.3416 83.2776 52.2041 87.6433 52.2867C91.7619 52.3692 95.0568 55.9196 94.892 60.1304ZM60.4605 94.8906C64.5791 94.8906 67.874 91.588 67.9563 87.5423C68.0387 83.4965 64.6615 80.0288 60.6252 79.9462C56.2595 79.8636 52.7175 83.2488 52.7175 87.4597C52.7175 91.5054 56.2595 94.808 60.4605 94.8906Z" fill="#191F27"/>
<path fill-rule="evenodd" clip-rule="evenodd" d="M52.7998 87.4597C52.7998 91.5879 56.2594 94.8906 60.5428 94.8906C64.579 94.8906 67.9563 91.5879 68.0387 87.5422C68.0387 83.4139 64.7438 80.0287 60.7075 79.9462C56.3418 79.8636 52.7998 83.2488 52.7998 87.4597ZM65.4851 87.4597C65.4027 90.2669 63.2611 92.4136 60.4604 92.4136C57.7421 92.4962 55.1886 90.0192 55.1886 87.2945C55.271 84.8176 57.7421 82.4232 60.378 82.3406C63.1787 82.258 65.4851 84.6524 65.4851 87.4597Z" fill="white"/>
<path fill-rule="evenodd" clip-rule="evenodd" d="M79.7355 59.5525C79.6531 63.8459 82.7832 67.066 87.149 67.2311C91.2676 67.3962 94.7272 64.2587 94.892 60.1304C95.1391 56.0021 91.8442 52.3693 87.6432 52.2867C83.2775 52.2041 79.8178 55.3416 79.7355 59.5525ZM92.5032 59.8827C92.4208 62.69 90.1967 64.8367 87.3961 64.7541C84.4307 64.7541 82.2066 62.5248 82.2066 59.635C82.2066 56.9929 84.6778 54.5985 87.4785 54.5985C90.2791 54.6811 92.5855 57.0755 92.5032 59.8827Z" fill="white"/>
<path fill-rule="evenodd" clip-rule="evenodd" d="M52.2232 32.8837C52.3055 37.0946 55.7652 40.3147 60.0485 40.2321C64.1671 40.1495 67.462 36.8469 67.462 32.7186C67.462 28.5903 63.8376 25.04 59.719 25.2051C55.518 25.3703 52.1408 28.7555 52.2232 32.8837ZM59.9661 27.7647C62.7668 27.7647 64.9908 29.9939 64.9908 32.8012C64.9908 35.5258 62.7668 37.8377 60.0485 37.9202C57.4126 38.0028 54.6943 35.4433 54.6943 32.8012C54.6943 30.0765 57.0831 27.7647 59.9661 27.7647Z" fill="white"/>
<path fill-rule="evenodd" clip-rule="evenodd" d="M25.2876 60.4607C25.2876 64.6715 28.6649 67.809 33.0306 67.809C37.1492 67.809 40.4441 64.5064 40.4441 60.4607C40.4441 56.1673 37.0668 52.8646 32.8658 52.9472C28.5825 53.0298 25.2052 56.3324 25.2876 60.4607ZM27.6764 60.2955C27.6764 57.5709 30.1476 55.259 32.9482 55.259C35.8312 55.259 38.0553 57.5709 37.9729 60.4607C37.9729 63.1028 35.8312 65.4146 33.2777 65.4146C30.4771 65.4146 27.6764 62.8551 27.6764 60.2955Z" fill="white"/>
<path d="M60.4605 92.4137C57.7423 92.4137 55.1887 89.9367 55.1887 87.2946C55.1887 84.735 57.6599 82.3406 60.3782 82.3406C63.1788 82.2581 65.5676 84.6525 65.4852 87.4597C65.4852 90.3495 63.3436 92.4137 60.4605 92.4137Z" fill="#378241"/>
<path d="M87.3962 64.7541C84.5132 64.6715 82.2068 62.5248 82.2068 59.7176C82.2068 57.0755 84.678 54.6811 87.4786 54.6811C90.2793 54.6811 92.5857 57.1581 92.5033 59.9653C92.4209 62.69 90.1969 64.8367 87.3962 64.7541Z" fill="#378241"/>
<path d="M64.9909 32.8012C64.9909 35.6084 62.7668 37.8377 60.0485 37.9202C57.4126 38.0028 54.6943 35.4433 54.6943 32.8012C54.6943 30.0765 57.0831 27.7646 59.9662 27.7646C62.7668 27.7646 64.9909 29.9939 64.9909 32.8012Z" fill="#378241"/>
<path d="M32.9481 55.259C35.8311 55.259 38.0552 57.4883 37.9728 60.4607C37.9728 63.1853 35.8311 65.4146 33.2776 65.4146C30.4769 65.4146 27.6763 62.8551 27.6763 60.2955C27.6763 57.6534 30.1474 55.259 32.9481 55.259Z" fill="#378241"/>
</svg>
