<svg width="120" height="120" viewBox="0 0 120 120" fill="none" xmlns="http://www.w3.org/2000/svg">
<circle cx="60" cy="60" r="60" fill="black"/>
<path fill-rule="evenodd" clip-rule="evenodd" d="M63.2874 49.123C63.3813 51.0106 62.6601 52.8047 61.92 54.4938C61.0923 56.4764 60.2607 58.457 59.4292 60.4373L59.4282 60.4396C58.2525 63.2397 57.0771 66.0391 55.9133 68.8424C55.7881 69.1356 55.6657 69.4311 55.5432 69.727L55.5428 69.7279L55.5428 69.7279C54.9595 71.1364 54.3722 72.5547 53.4565 73.7863C52.6677 74.8949 51.5708 75.7489 50.3011 76.2358C48.7005 76.7348 47.0057 76.8566 45.3499 76.5916C43.0379 76.3034 40.775 75.7451 38.5136 75.187C37.9826 75.056 37.4517 74.925 36.9203 74.7975C35.1162 74.347 33.3063 73.9032 31.496 73.4594L31.4951 73.4591C29.4984 72.9696 27.5014 72.4799 25.5117 71.981C22.991 71.378 20.4478 70.7301 18.1038 69.584C17.0923 69.095 16.2329 68.3417 15.6169 67.4042C15.1412 66.6304 14.9316 65.7231 15.0197 64.8199C15.2187 63.1607 15.8348 61.5838 16.5035 60.0632L22.6266 45.4001C22.7433 45.1316 22.8565 44.8611 22.9699 44.5903L22.9699 44.5902L22.9699 44.5902C23.331 43.7274 23.6931 42.8622 24.1706 42.0554C24.7073 41.0751 25.4204 40.2016 26.2742 39.4786C27.281 38.7146 28.4643 38.2239 29.7152 38.0479C30.4784 37.9796 31.2417 37.9988 32.0049 38.018C32.162 38.022 32.3191 38.026 32.4763 38.0292C35.3224 38.4486 38.1411 39.0364 40.9172 39.7895C42.8808 40.2619 44.8416 40.7468 46.8018 41.2315L46.8019 41.2315C48.7268 41.7074 50.6512 42.1833 52.5775 42.6472C54.3656 43.0854 56.1462 43.5349 57.893 44.1304L57.9131 44.1377C59.0749 44.5623 60.2617 44.9961 61.2814 45.7334C62.4459 46.4862 63.1897 47.7409 63.2874 49.123ZM105 55.4864V55.7261C101.837 57.6997 98.6599 59.6596 95.4808 61.6207L95.4801 61.6211C93.4229 62.8902 91.3647 64.1598 89.3089 65.4341C89.2097 65.5056 89.1318 65.6027 89.0835 65.715C89.4038 65.8008 89.7266 65.8817 90.05 65.9628L90.0502 65.9629C91.1377 66.2354 92.2312 66.5095 93.2533 66.9772C94.4779 67.5203 95.7326 68.2281 96.4238 69.4154C97.085 70.6214 97.2503 72.0372 96.8821 73.3593C96.7147 74.1906 96.3933 74.9796 96.072 75.7684L96.0717 75.769C96.0109 75.9183 95.9501 76.0675 95.8904 76.217C95.4336 77.3089 94.9761 78.3998 94.5186 79.4906L94.5179 79.4924C93.4032 82.1504 92.2886 84.8083 91.1835 87.4794C91.1077 87.6659 91.0066 87.841 90.8829 88C90.5173 87.992 90.163 87.8952 89.808 87.7981L89.8079 87.7981C89.6633 87.7586 89.5185 87.719 89.3728 87.6854C88.3581 87.4355 87.341 87.1873 86.3234 86.9391C84.7943 86.566 83.2642 86.1927 81.7395 85.8127C81.3938 85.7156 81.0441 85.6355 80.6946 85.5554C80.2087 85.4441 79.7231 85.3328 79.2489 85.176C79.2647 84.8167 79.4131 84.4941 79.56 84.1748L79.56 84.1748C79.6229 84.0381 79.6855 83.902 79.7373 83.764L83.2234 75.4455C83.4863 74.8687 83.6403 74.1496 83.2647 73.5878C82.7951 72.7863 81.8522 72.4829 81.0183 72.2544C79.0673 71.7538 77.1072 71.2775 75.1477 70.8013C74.0284 70.5293 72.9093 70.2574 71.7922 69.981C71.6659 69.9541 71.5406 69.9185 71.4151 69.8829L71.4151 69.8829C71.1038 69.7946 70.7917 69.7061 70.4624 69.7488C70.2829 70.062 70.153 70.4016 70.0222 70.7436L70.0222 70.7437C69.956 70.9169 69.8895 71.0906 69.8163 71.2619C69.1194 72.8912 68.4374 74.5258 67.7556 76.1601L67.7554 76.1605L67.7552 76.161C67.1582 77.592 66.5613 79.0227 65.9545 80.4493C65.8972 80.5797 65.8469 80.7142 65.7965 80.8489C65.6818 81.1553 65.5669 81.4625 65.3685 81.7227C65.0071 81.7227 64.6607 81.6234 64.3146 81.5241C64.1716 81.4831 64.0286 81.4421 63.8847 81.4081C62.907 81.1683 61.9293 80.9263 60.951 80.6842C59.3019 80.2761 57.6511 79.8677 55.996 79.468C55.7173 79.3933 55.4339 79.3292 55.1496 79.2649L55.1495 79.2648C54.6789 79.1584 54.2062 79.0514 53.7496 78.895C53.7585 78.6876 53.8043 78.4834 53.8848 78.292L67.1566 46.5686C67.2025 46.4623 67.2749 46.3695 67.367 46.299C67.6704 46.3186 67.9641 46.4061 68.2577 46.4936C68.4112 46.5393 68.5646 46.5851 68.7194 46.6211C70.0009 46.926 71.2836 47.2445 72.5669 47.5631L72.5672 47.5631C73.522 47.8002 74.4772 48.0373 75.4323 48.269C75.8741 48.3831 76.3202 48.4873 76.767 48.5917L76.767 48.5918C77.4941 48.7617 78.2228 48.932 78.9371 49.1454C78.9918 49.3429 78.9099 49.5434 78.8324 49.733L78.8094 49.7896C78.279 50.9927 77.7746 52.2062 77.271 53.4178L77.2709 53.4179C76.9185 54.2657 76.5665 55.1127 76.2061 55.9545L73.4977 62.4415C73.3978 62.691 73.2879 62.9373 73.1778 63.1839L73.1777 63.1841C72.9522 63.6889 72.7262 64.1953 72.5848 64.7337C72.9715 64.6003 73.303 64.3751 73.6412 64.1453L73.6517 64.1382L91.33 53.0893C91.4201 53.0329 91.5079 52.9712 91.5956 52.9096C91.8224 52.7503 92.0487 52.5913 92.3142 52.5238C92.7131 52.4934 93.0957 52.5974 93.4755 52.7007L93.4755 52.7008C93.6107 52.7375 93.7456 52.7742 93.8806 52.8047C94.8952 53.0217 95.9002 53.2791 96.9037 53.5361L96.9038 53.5361C97.6838 53.7359 98.463 53.9354 99.245 54.1156C100.145 54.3156 101.038 54.5376 101.927 54.7588C102.953 55.0137 103.974 55.2678 105 55.4864ZM48.9074 51.1979C49.3694 51.4376 49.7639 51.9095 49.6887 52.4601L49.6925 52.4638C49.6093 53.1212 49.3313 53.7223 49.057 54.3154C48.9844 54.4725 48.912 54.6291 48.8435 54.786L44.6925 64.715C44.3808 65.4753 43.9487 66.3405 43.1035 66.6139C42.1204 66.826 41.1123 66.5917 40.149 66.3679C40.1258 66.3625 40.1026 66.3571 40.0795 66.3517L31.6085 64.2768L31.5813 64.2696C30.8798 64.0846 30.1574 63.8941 29.4936 63.5539C29.0466 63.3367 28.6822 62.8797 28.6822 62.3554C28.7197 61.8985 28.8888 61.4715 29.0578 61.0445C29.9325 58.987 30.7928 56.9235 31.6537 54.8588C32.316 53.2702 32.9786 51.6809 33.6483 50.093C33.9601 49.2803 34.4222 48.3514 35.3425 48.0892C36.1377 47.962 36.9513 48.0132 37.7242 48.2391C40.4514 48.8982 43.1636 49.5649 45.8759 50.2391C46.0769 50.2907 46.2798 50.3394 46.4833 50.3882C47.3138 50.5874 48.153 50.7888 48.9074 51.1979Z" fill="white"/>
</svg>
