<svg width="120" height="120" viewBox="0 0 120 120" fill="none" xmlns="http://www.w3.org/2000/svg">
<circle cx="60" cy="60" r="60" fill="#EDF0F4"/>
<circle cx="60" cy="60" r="40" fill="white"/>
<path fill-rule="evenodd" clip-rule="evenodd" d="M18.4258 60C18.4258 37.0388 37.0395 18.425 60.0007 18.425C82.9619 18.425 101.576 37.0388 101.576 60C101.576 82.9612 82.9619 101.575 60.0007 101.575C37.0395 101.575 18.4258 82.9612 18.4258 60ZM97.1221 60C97.1221 39.4984 80.5023 22.8786 60.0007 22.8786C39.4992 22.8786 22.8794 39.4984 22.8794 60C22.8794 80.5016 39.4992 97.1213 60.0007 97.1213C80.5023 97.1213 97.1221 80.5016 97.1221 60Z" fill="#EB1A6B"/>
<path d="M69.8379 67.3679C70.8848 68.1185 71.4182 68.5728 72.0108 68.9481C75.6058 71.3383 79.5169 71.5753 82.0651 69.1654C84.7713 66.5383 84.9885 63.2395 83.7243 59.8617C82.3811 56.0296 79.2206 53.7185 75.4083 54.3111C73.6898 54.6074 71.6552 55.8914 70.6873 57.3136C68.2972 60.7704 67.4676 65.1951 63.4972 67.5062C62.9639 67.8025 63.1219 69.521 63.1219 70.5877C63.2009 78.0938 57.7293 83.8617 49.8478 84.6123C43.6256 85.2049 34.3219 80.1877 34.4009 73.2148C37.6997 74.7161 40.8404 76.8099 44.3762 77.5605C47.2997 78.2321 50.8157 77.9358 53.7589 76.9679C57.591 75.684 59.3885 72.0099 58.9342 68.7111C58.4799 65.8667 57.354 65.1161 51.5861 64.1284C51.2108 62.4691 50.8355 60.6716 50.4601 58.6568C51.0527 58.5778 51.5071 58.4395 51.9614 58.4395C54.5885 58.2222 57.433 58.1432 57.6503 54.4691C57.8676 51.5457 55.1021 48.0889 51.8824 48.4049C48.7416 48.7012 45.8182 50.3605 42.2034 51.6247C41.5318 50.5778 40.4058 48.8593 39.3589 47.121C43.9416 41.7284 51.4281 40.6815 56.8997 44.6519C61.9169 48.2469 62.3713 54.0346 57.9466 60.7704C59.2305 61.9753 60.4947 63.1605 62.2922 64.8988C62.8848 63.1012 63.2009 61.8173 63.6355 60.6321C64.2281 58.9136 64.6824 57.037 65.6503 55.4568C68.0404 51.3284 71.3589 48.484 76.5145 49.0765C81.5318 49.6691 84.0997 52.6519 86.0157 57.3136C88.1095 62.7654 87.2602 66.8741 86.0157 69.9951C84.7713 73.1161 80.1885 76.2963 76.8898 75.763C72.5441 75.0914 70.075 72.3259 69.8379 67.3679Z" fill="black"/>
<path d="M55.377 38.6469C62.2708 43.4469 68.3547 42.7753 74.4979 38.5679C75.6239 40.3654 76.5918 41.8666 77.5794 43.3679C70.2905 49.0765 58.4387 46.1531 55.377 38.6469Z" fill="black"/>
<path d="M60.8496 35.8815C62.1928 34.2222 63.2397 33.0371 64.5237 31.5358C66.0249 33.1161 66.9928 34.163 68.1978 35.5062C67.0718 36.7901 66.0249 37.8963 64.6817 39.3383C63.3978 38.2124 62.2718 37.1457 60.8496 35.8815Z" fill="#F01871"/>
</svg>
