<svg width="120" height="120" viewBox="0 0 120 120" fill="none" xmlns="http://www.w3.org/2000/svg">
<circle cx="60" cy="60" r="60" fill="#EDF0F4"/>
<path fill-rule="evenodd" clip-rule="evenodd" d="M60.0015 94.9782C79.3201 94.9705 94.9819 79.3171 95 59.9985C94.9578 40.3637 79.0111 25.0211 60.0437 25C40.9076 24.979 25.1272 40.4246 25.0007 59.7714C24.8766 79.2399 40.6571 94.9782 60.0015 94.9782ZM60.0624 34.2754C74.2289 34.3397 85.6844 45.8319 85.7036 59.9985C85.6826 66.8552 82.9314 73.4212 78.0582 78.2447C73.1849 83.0683 66.5912 85.7521 59.7346 85.7029C45.893 85.5554 34.2831 74.2428 34.3041 59.9587C34.3041 45.7214 45.9516 34.2356 60.0624 34.2754Z" fill="#1C347A"/>
<path fill-rule="evenodd" clip-rule="evenodd" d="M39.5404 27.8967C34.8709 30.8955 30.8862 34.8451 27.8461 39.4879V27.9177C28.0943 27.8358 38.7255 27.81 39.5404 27.8967ZM92.0966 27.8451C88.2188 27.8451 84.341 27.8451 80.4632 27.885C85.1063 30.9134 89.0681 34.8753 92.0966 39.5183V27.8451ZM92.0966 92.2057V80.4623C89.0844 85.1485 85.1209 89.1495 80.4632 92.2057H92.0966ZM27.9187 92.1378H39.4889C34.852 89.0983 30.9035 85.121 27.8976 80.4623C27.8157 80.9423 27.8368 91.8662 27.9187 92.1378Z" fill="#1C347A"/>
</svg>
