<svg width="120" height="120" viewBox="0 0 120 120" fill="none" xmlns="http://www.w3.org/2000/svg">
<path d="M60 120C93.138 120 120 93.138 120 60C120 26.862 93.138 0 60 0C26.862 0 0 26.862 0 60C0 93.138 26.862 120 60 120Z" fill="#EDF0F4"/>
<path fill-rule="evenodd" clip-rule="evenodd" d="M37.684 28.3468C36.66 27.4625 34.8681 28.3934 35.0077 29.7432V54.2024C35.1939 58.8336 36.6833 63.3949 39.2665 67.2581C42.2221 71.7032 46.6439 75.1707 51.694 76.9627C55.6735 78.359 60.0254 78.7081 64.1679 77.9634C68.6362 77.242 72.8252 75.1009 76.2695 72.1919C77.1868 73.0452 78.0504 73.9523 78.9139 74.8594C79.9345 75.9314 80.955 77.0034 82.0643 77.9867C83.0185 78.8245 84.7406 78.0798 84.7639 76.7998C84.7905 72.1853 84.7867 67.5708 84.7829 62.9563C84.7801 59.4953 84.7772 56.0343 84.7872 52.5733C84.6708 46.1734 82.0178 39.8666 77.4797 35.3518C73.1976 30.9999 67.2631 28.3701 61.1891 28.0443C56.0692 27.765 50.8794 29.1614 46.574 31.9075C45.8651 32.3449 45.2148 32.8508 44.5662 33.3554C44.214 33.6293 43.8624 33.9029 43.5021 34.1649C42.5779 33.2945 41.6984 32.3793 40.82 31.4654L40.82 31.4654L40.82 31.4654L40.82 31.4654L40.8199 31.4653C39.7961 30.4001 38.7738 29.3364 37.684 28.3468ZM45.9922 36.6783C48.6453 34.1184 52.1827 32.5824 55.7666 31.8144C57.6882 31.3675 59.6741 31.4141 61.6213 31.4597L61.864 31.4653C66.6813 31.954 71.3591 34.0951 74.8034 37.5161C78.5735 41.1466 80.924 46.1967 81.3196 51.3864C81.3351 56.0409 81.33 60.6954 81.3248 65.3498C81.3222 67.677 81.3196 70.0043 81.3196 72.3315C79.9234 70.9976 78.5805 69.6169 77.2375 68.236C76.0733 67.0391 74.909 65.8419 73.7096 64.6749C69.0784 60.0204 64.4646 55.3485 59.8509 50.6766L59.8505 50.6762L59.8501 50.6758C55.2366 46.0042 50.6232 41.3325 45.9922 36.6783ZM38.4753 33.9787C38.4487 37.5692 38.4525 41.152 38.4563 44.736V44.736V44.7361V44.7361C38.4591 47.4242 38.462 50.113 38.452 52.806C38.196 59.5783 41.5007 66.2807 46.83 70.4232C50.5536 73.3322 55.2779 74.9846 60.0254 74.8915C65.0523 74.938 70.0325 73.0064 73.8259 69.725C71.5241 67.3153 69.1667 64.955 66.8078 62.5932L66.8076 62.5929L66.8071 62.5925C64.5872 60.3698 62.3659 58.1458 60.1884 55.878C52.9507 48.5705 45.713 41.263 38.4753 33.9787ZM37.8935 72.3548C37.4513 71.8428 36.7299 71.8893 36.1248 71.9824C35.4964 72.1686 35.0077 72.8202 35.031 73.5184C35.0193 74.9147 35.0193 76.3169 35.0193 77.7191C35.0193 79.1212 35.0193 80.5234 35.0077 81.9197C35.0118 82.0064 35.0138 82.0946 35.0157 82.1834C35.0247 82.5947 35.034 83.018 35.2637 83.3626C35.799 84.2237 37.1255 84.3866 37.8469 83.7117C38.3589 83.2695 38.452 82.5481 38.452 81.9197C38.452 81.0672 38.4494 80.2148 38.4468 79.3615C38.4417 77.6523 38.4365 75.9396 38.452 74.2166C38.452 73.5649 38.4055 72.8202 37.8935 72.3548ZM82.6927 80.1277C83.6468 79.7787 84.857 80.3837 84.9501 81.431C85.0033 82.4018 84.9957 83.3726 84.9881 84.3433C84.9824 85.0714 84.9767 85.7995 84.9966 86.5276C84.9908 86.6904 84.9937 86.8561 84.9966 87.0222C85.0054 87.5208 85.0142 88.0228 84.7872 88.4592C84.2287 89.553 82.3901 89.553 81.8083 88.4592C81.5396 87.9397 81.5467 87.3512 81.5536 86.7787V86.7786C81.5557 86.6074 81.5577 86.4377 81.5523 86.2716C81.5738 85.5513 81.5655 84.8311 81.5573 84.1131C81.5476 83.2768 81.538 82.4436 81.5756 81.6172C81.5989 80.9888 82.0411 80.3372 82.6927 80.1277ZM61.3054 81.2914C60.84 80.6397 59.9091 80.6863 59.2109 80.8725C58.6058 81.1983 58.2335 81.8964 58.28 82.5481C58.28 83.51 58.2774 84.4719 58.2748 85.4338C58.2697 87.3577 58.2645 89.2815 58.28 91.2054C58.2567 92.113 59.0713 92.9973 60.0022 92.9275C60.9331 92.9973 61.6778 92.0897 61.7011 91.2054C61.7276 89.703 61.7239 88.1931 61.7201 86.68C61.7172 85.5444 61.7143 84.4069 61.7243 83.2695C61.7243 83.2375 61.7244 83.2053 61.7244 83.173C61.7255 82.5244 61.7266 81.8234 61.3054 81.2914Z" fill="#169BB3"/>
</svg>
