<svg width="120" height="120" viewBox="0 0 120 120" fill="none" xmlns="http://www.w3.org/2000/svg">
<circle cx="60" cy="60" r="60" fill="#EDF0F4"/>
<path d="M45.1219 69.5066C45.0967 69.8344 44.871 70.1122 44.5554 70.2041C44.2397 70.2959 43.9002 70.1825 43.7031 69.9194L32.3526 59.348C32.0631 59.1611 31.9147 58.8181 31.9769 58.4792C32.039 58.1402 32.2994 57.8722 32.6364 57.8002L48.5271 51.4645C49.2648 51.1705 49.7085 51.5574 49.5125 52.3313L45.1219 69.5066Z" fill="#404A72"/>
<path d="M35.7331 79.5518C35.1294 80.0677 34.5206 79.8562 34.3813 79.072L31.2857 61.8915C31.1413 61.1073 31.5024 60.9112 32.0854 61.453L42.8684 71.5136C43.1463 71.7609 43.3022 72.1173 43.2952 72.4893C43.2883 72.8612 43.1192 73.2116 42.8323 73.4484L35.7331 79.5518Z" fill="#556195"/>
<path d="M48.7333 48.0439C48.9855 48.2838 49.0898 48.6405 49.0067 48.9784C48.9235 49.3164 48.6656 49.5839 48.3309 49.6794L32.5383 55.9996C31.7953 56.2937 31.4187 55.9273 31.6973 55.1792L38.1877 37.7356C38.2435 37.4109 38.4964 37.1557 38.8205 37.0969C39.1447 37.0381 39.4711 37.1881 39.6375 37.4725L48.7333 48.0439Z" fill="#556195"/>
<path d="M32.1829 76.6316C32.3273 77.4159 32.0849 77.5087 31.667 76.8432L25.5171 67.3758C25.0861 66.6328 25.1182 65.7088 25.5996 64.9974L28.334 61.3291C28.8139 60.6894 29.3195 60.8132 29.4588 61.5923L32.1829 76.6316Z" fill="#556195"/>
<path d="M30.2543 54.1061C29.9757 54.8542 29.5423 54.8491 29.2895 54.1061L27.2 47.8066C26.9703 46.9706 27.2044 46.0756 27.814 45.4591L35.2795 38.6953C35.8676 38.1793 36.1256 38.3341 35.847 39.0822L30.2543 54.1061Z" fill="#556195"/>
<path d="M28.2825 56.531C28.5164 57.3914 28.3678 58.3109 27.875 59.0539L25.7338 61.9379C25.254 62.5777 24.9341 62.4539 25.0115 61.6593L26.0331 51.6864C26.1105 50.8919 26.3891 50.8609 26.6367 51.6193L28.2825 56.531Z" fill="#556195"/>
<path d="M36.7084 34.0725C36.9767 34.3769 36.7084 35.0683 36.1151 35.6203L32.7409 38.6488C32.1476 39.1648 32.0547 39.0977 32.5294 38.4579L35.3206 34.6762C35.8365 34.0364 36.4453 33.7733 36.7084 34.0725Z" fill="#556195"/>
<path d="M57.8974 87.1514C57.7701 87.4595 57.4748 87.665 57.1417 87.6773C56.8086 87.6895 56.499 87.5062 56.3496 87.2082L47.5787 74.4338C47.3481 74.1997 47.2865 73.8472 47.4242 73.5489C47.5619 73.2505 47.8701 73.0687 48.1979 73.0923L65.8375 71.2711C66.6269 71.1886 66.9468 71.6838 66.5443 72.3752L57.8974 87.1514Z" fill="#556195"/>
<path d="M54.2182 87.1618C54.6723 87.8222 54.4246 88.1472 53.6662 87.8944L37.1564 82.2708C36.4032 82.0128 36.2793 81.3782 36.883 80.8571L43.9461 74.7588C44.2223 74.5096 44.5937 74.3936 44.9627 74.4412C45.3316 74.4889 45.6614 74.6953 45.8653 75.0065L54.2182 87.1618Z" fill="#556195"/>
<path d="M66.1931 68.3045C66.7091 68.9082 66.4872 69.4654 65.6772 69.5479L47.7744 71.3949C47.4378 71.4655 47.0894 71.3473 46.8651 71.0865C46.6408 70.8257 46.5761 70.4636 46.6961 70.1412L51.1744 52.7131C51.3756 51.9444 51.9638 51.8051 52.4797 52.4087L66.1931 68.3045Z" fill="#6ECCE0"/>
<path d="M79.0556 83.2355C79.3148 83.4415 79.4168 83.7881 79.3104 84.1017C79.2039 84.4153 78.912 84.6282 78.5809 84.6337L60.3686 88.4619C59.5895 88.627 59.2799 88.1988 59.6824 87.5074L68.2726 72.8189C68.4192 72.5048 68.7215 72.2922 69.0666 72.2603C69.4117 72.2285 69.7478 72.3822 69.9494 72.6641L79.0556 83.2355Z" fill="#556195"/>
<path d="M49.7658 93.0382C48.9906 93.4063 48.0734 93.3002 47.4028 92.7648L38.9312 85.2993C38.3379 84.7833 38.4669 84.5512 39.2201 84.7833L53.6662 89.7001C54.4246 89.9581 54.4659 90.4792 53.7642 90.8558L49.7658 93.0382Z" fill="#556195"/>
<path d="M69.4023 93.7502C68.7032 94.2611 67.7843 94.3595 66.9929 94.0082L61.1165 91.0106C60.4045 90.6443 60.4612 90.2161 61.2403 90.051L76.9297 86.749C77.7088 86.5839 77.8429 86.8625 77.229 87.3681L69.4023 93.7502Z" fill="#556195"/>
<path d="M52.9702 94.1372C52.1705 94.101 52.0982 93.7605 52.7999 93.3839L55.9574 91.671C56.7718 91.2858 57.7136 91.2745 58.5371 91.6401L63.1495 93.9875C63.8615 94.3487 63.7892 94.6118 62.9947 94.5757L52.9702 94.1372Z" fill="#556195"/>
<path d="M81.9851 86.6407C82.2482 86.9451 81.8922 87.5074 81.1906 87.8841L77.0322 90.1026C76.3254 90.4792 76.2531 90.3709 76.8722 89.8652L80.3806 86.9967C80.9997 86.4911 81.722 86.3311 81.9851 86.6407Z" fill="#556195"/>
<path d="M71.4753 68.1188C70.7324 68.4128 70.2887 68.0259 70.4899 67.252L74.9011 50.0818C74.9275 49.7537 75.1535 49.4758 75.4693 49.3831C75.7852 49.2904 76.1255 49.4021 76.3251 49.6639L87.6755 60.2405C87.97 60.4243 88.1224 60.7694 88.0597 61.1109C87.9971 61.4523 87.7323 61.7209 87.3918 61.7883L71.4753 68.1188Z" fill="#404A72"/>
<path d="M88.7292 57.6918C88.8685 58.476 88.5125 58.6772 87.9295 58.1304L77.1414 48.0697C76.8642 47.8216 76.7092 47.4648 76.7171 47.0928C76.725 46.7209 76.8951 46.371 77.1827 46.135L84.2664 40.0315C84.87 39.5156 85.484 39.7271 85.6233 40.5113L88.7292 57.6918Z" fill="#556195"/>
<path d="M81.8147 81.8528C81.7544 82.176 81.5002 82.428 81.1765 82.4854C80.8528 82.5428 80.5275 82.3935 80.3598 82.1108L71.2588 71.5394C70.9982 71.3011 70.8877 70.94 70.9703 70.5967C71.0529 70.2534 71.3156 69.9821 71.656 69.8884L87.4641 63.5683C88.2019 63.2742 88.5837 63.6405 88.3051 64.3886L81.8147 81.8528Z" fill="#556195"/>
<path d="M94.476 52.2075C94.906 52.9502 94.876 53.8728 94.3986 54.5859L91.6591 58.2542C91.1844 58.894 90.6788 58.7701 90.5343 57.9911L87.8154 42.9517C87.6761 42.1675 87.9134 42.0746 88.3313 42.7402L94.476 52.2075Z" fill="#556195"/>
<path d="M92.8052 71.7767C93.0349 72.6127 92.8008 73.5077 92.1912 74.1242L84.7257 80.888C84.1324 81.404 83.8796 81.2492 84.1582 80.5063L89.7509 65.4772C90.0243 64.7291 90.4577 64.7343 90.7105 65.4772L92.8052 71.7767Z" fill="#556195"/>
<path d="M93.9601 67.8969C93.8776 68.6914 93.6041 68.7172 93.3513 67.964L91.7158 63.0523C91.4789 62.1887 91.6275 61.2648 92.1234 60.5191L94.2697 57.6454C94.7443 57.0056 95.0694 57.1294 94.9868 57.924L93.9601 67.8969Z" fill="#556195"/>
<path d="M84.6434 84.9072C84.1636 85.5521 83.56 85.8204 83.2917 85.5108C83.0234 85.2012 83.2917 84.515 83.885 83.963L87.2437 80.919C87.8319 80.4031 87.9299 80.4702 87.4552 81.1099L84.6434 84.9072Z" fill="#556195"/>
<path d="M72.4357 45.1496C72.6664 45.3836 72.7279 45.7361 72.5902 46.0344C72.4525 46.3328 72.1444 46.5147 71.8166 46.491L54.1769 48.3122C53.3824 48.3948 53.0625 47.8995 53.465 47.2133L62.1068 32.4319C62.234 32.1238 62.5293 31.9183 62.8624 31.906C63.1955 31.8938 63.5051 32.0772 63.6546 32.3751L72.4357 45.1496Z" fill="#404A72"/>
<path d="M76.0776 44.8245C75.8013 45.0737 75.43 45.1897 75.061 45.1421C74.692 45.0945 74.3623 44.888 74.1583 44.5769L65.759 32.4216C65.3101 31.7612 65.5577 31.4361 66.311 31.6941L82.8208 37.3074C83.574 37.5654 83.6979 38.2 83.0942 38.7211L76.0776 44.8245Z" fill="#556195"/>
<path d="M68.8028 66.8702C68.6068 67.6441 68.0186 67.7783 67.4975 67.1746L53.8099 51.284C53.294 50.6803 53.5107 50.118 54.3258 50.0354L72.2235 48.1884C72.5609 48.1156 72.9112 48.2327 73.137 48.4939C73.3627 48.7552 73.4279 49.1187 73.3069 49.4421L68.8028 66.8702Z" fill="#556195"/>
<path d="M51.7268 46.7644C51.5825 47.081 51.2797 47.2961 50.9333 47.3281C50.5868 47.3601 50.2498 47.2041 50.05 46.9192L40.949 36.3529C40.6903 36.1476 40.5881 35.8022 40.6932 35.4891C40.7983 35.1761 41.0883 34.9624 41.4185 34.9548L59.6308 31.1214C60.415 30.9563 60.7246 31.3845 60.3222 32.0759L51.7268 46.7644Z" fill="#556195"/>
<path d="M66.3061 29.8625C65.5528 29.6046 65.5115 29.0886 66.2132 28.7069L70.2478 26.5503C71.0229 26.1822 71.9401 26.2883 72.6107 26.8237L81.0617 34.2892C81.6602 34.8052 81.5312 35.0373 80.7779 34.8052L66.3061 29.8625Z" fill="#556195"/>
<path d="M43.0957 32.8343C42.3167 32.9994 42.1825 32.7414 42.8016 32.2255L50.5973 25.8331C51.2985 25.3223 52.2187 25.224 53.0119 25.5752L58.9141 28.5779C59.6261 28.939 59.5694 29.3673 58.7903 29.5323L43.0957 32.8343Z" fill="#556195"/>
<path d="M64.046 27.9123C63.2316 28.2975 62.2898 28.3088 61.4664 27.9433L56.823 25.5958C56.1523 25.2346 56.2194 24.9715 57.0191 25.0025L67.0333 25.4668C67.8227 25.5184 67.9052 25.8434 67.2035 26.2201L64.046 27.9123Z" fill="#556195"/>
<path d="M39.6229 32.5866C39.0038 33.1026 38.2815 33.2522 38.0183 32.9478C37.7552 32.6434 38.1112 32.0759 38.8129 31.7044L42.9713 29.4807C43.6729 29.1041 43.7452 29.2125 43.1312 29.7181L39.6229 32.5866Z" fill="#556195"/>
<path d="M34.2877 83.0859C34.5921 82.8176 35.2834 83.0859 35.8355 83.6741L38.8795 87.0328C39.3954 87.6261 39.3283 87.719 38.6886 87.2443L34.9017 84.4325C34.2413 83.9578 33.973 83.349 34.2877 83.0859Z" fill="#556195"/>
<path d="M86.8455 37.8079C87.1551 37.5396 87.7175 37.9007 88.0889 38.6024L90.3126 42.7608C90.6841 43.4676 90.5809 43.5347 90.0753 42.9207L87.2067 39.4124C86.7011 38.7933 86.5411 38.071 86.8455 37.8079Z" fill="#556195"/>
<path d="M85.1166 35.1508C85.7564 35.6255 86.0298 36.2343 85.7203 36.4974C85.4107 36.7605 84.7245 36.4974 84.1725 35.9092L81.1285 32.5505C80.6126 31.9572 80.6796 31.8643 81.3194 32.339L85.1166 35.1508Z" fill="#556195"/>
<path d="M32.7975 80.1709C33.3134 80.79 33.463 81.5123 33.1535 81.7754C32.8439 82.0386 32.2867 81.6826 31.9101 80.9809L29.6916 76.8225C29.315 76.1157 29.4233 76.0486 29.9289 76.6626L32.7975 80.1709Z" fill="#556195"/>
</svg>
