<svg width="120" height="120" viewBox="0 0 120 120" fill="none" xmlns="http://www.w3.org/2000/svg">
<circle cx="60" cy="60" r="60" fill="#EDF0F4"/>
<path d="M41.3873 31.8363C40.1113 33.9842 37.3354 34.6922 35.1875 33.4162C33.0395 32.1403 32.3316 29.3644 33.6075 27.2164C34.8835 25.0685 37.6594 24.3605 39.8073 25.6365C41.9553 26.9124 42.6632 29.6884 41.3873 31.8363Z" fill="#5F45BA"/>
<path d="M25.9434 29.8284C25.0434 31.3443 23.0795 31.8443 21.5636 30.9443C20.0476 30.0443 19.5476 28.0844 20.4476 26.5645C21.3476 25.0445 23.3115 24.5485 24.8274 25.4485C26.3474 26.3525 26.8474 28.3124 25.9434 29.8284Z" fill="#5F45BA"/>
<path d="M68.9338 95.3062C85.5093 93.3583 98.8408 79.8067 99.9288 62.5593C101.153 43.1519 86.4093 26.4285 67.0019 25.2085C64.726 25.0645 62.442 25.1445 60.1821 25.4405C55.5183 25.8205 51.5784 27.6004 51.5784 27.6004C48.3865 29.1604 46.3266 31.7683 46.3266 35.2562C46.3266 39.792 50.0024 43.4719 54.5383 43.4719C55.2983 43.4719 57.9222 42.6399 58.5462 42.4239C60.9301 41.592 63.458 41.248 65.9779 41.412C72.6817 41.836 78.3495 45.6918 81.3854 51.1597C83.1454 54.3275 83.9573 57.9314 83.7253 61.5473C83.0654 72.007 74.0537 79.9547 63.59 79.2947C57.4102 78.9027 52.1104 75.5948 48.9385 70.799V70.803V70.799C45.1466 65.8392 46.0226 57.9074 46.0186 57.8074C45.8626 53.3956 42.2507 49.8677 37.8028 49.8677C34.003 49.8677 30.8151 52.4476 29.8671 55.9475C29.6831 56.6355 29.5871 58.6514 29.6151 58.9194C28.8311 77.9908 43.4267 94.2822 62.57 95.4862C64.694 95.6182 66.8219 95.5582 68.9338 95.3062Z" fill="#5F45BA"/>
<path d="M36.6751 44.3959C35.0192 47.1838 31.4193 48.0998 28.6354 46.4438C25.8515 44.7879 24.9315 41.188 26.5874 38.4041C28.2434 35.6202 31.8433 34.7002 34.6272 36.3561C37.4111 38.0121 38.3271 41.612 36.6751 44.3959Z" fill="#5F45BA"/>
</svg>
