<svg width="120" height="120" viewBox="0 0 120 120" fill="none" xmlns="http://www.w3.org/2000/svg">
<path d="M60 120C93.138 120 120 93.138 120 60C120 26.862 93.138 0 60 0C26.862 0 0 26.862 0 60C0 93.138 26.862 120 60 120Z" fill="#EDF0F4"/>
<path d="M38.2462 74.1846V82.5538H46.6154V80.4205H58.2667V98.9641C38.9026 97.8154 22.9846 81.8974 22 62.5333H40.5436V74.0205L38.2462 74.1846Z" fill="#005CC7"/>
<path d="M74.0204 80.4205V82.5539H82.3897V74.1846H80.2563V62.6974H98.7999C97.8153 82.0616 81.7332 97.8154 62.3691 98.9641V80.4205H74.0204Z" fill="#005CC7"/>
<path d="M58.2667 40.8718H74.1846V38.4103H82.7179V47.7641H74.3487V45.1385H58.4308V62.5333L76.4821 62.6974V74.1846H74.3487V76.1538H46.6154V74.0205H44.6462V46.7795H46.7795V38.4103H38.4103V46.7795H40.5436V58.2667H22C22.9846 38.7385 39.0667 22.9846 58.2667 22V40.8718Z" fill="#005CC7"/>
</svg>
