<svg width="120" height="120" viewBox="0 0 120 120" fill="none" xmlns="http://www.w3.org/2000/svg">
<circle cx="60" cy="60" r="60" fill="#EDF0F4"/>
<path d="M44.8372 38.5256V43.8745C44.8372 47.2698 42.093 49.9908 38.7209 49.9908H26.8837C23.093 49.9675 20 53.0838 20 56.8745V66.9675C20 70.7582 23.093 73.8512 26.8837 73.8512H38.7209C42.1163 73.8512 44.8372 76.6187 44.8372 79.9675V91.8047C44.8372 95.5954 47.9302 98.6884 51.7209 98.6884H61.814C65.6047 98.6884 68.6977 95.5954 68.6977 91.8047V79.9675C68.6977 76.5721 71.4419 73.8512 74.814 73.8512H80.1628C60.7209 73.8512 44.8372 57.9675 44.8372 38.5256Z" fill="black"/>
<path d="M93.5356 66.9675V56.8745C93.5356 53.0838 90.4425 49.9908 86.6518 49.9908H74.8146C71.4193 49.9908 68.6984 47.2466 68.6984 43.8745V32.0373C68.6984 28.2466 65.6053 25.1536 61.8146 25.1536H51.7216C47.9309 25.1536 44.8379 28.2466 44.8379 32.0373V38.5257C44.8379 57.9675 60.7449 73.8512 80.1635 73.8512H86.6518C90.4425 73.8512 93.5356 70.7582 93.5356 66.9675Z" fill="#42B34F"/>
<path d="M75.8828 41.0838C75.8828 41.0838 73.5804 17.0606 99.999 22.921C99.5107 29.9908 100.162 47.3862 75.8828 41.0838Z" fill="#42B34F"/>
</svg>
