<svg width="120" height="120" viewBox="0 0 120 120" fill="none" xmlns="http://www.w3.org/2000/svg">
<circle cx="60" cy="60" r="60" fill="#EDF0F4"/>
<path d="M38.1816 88.0211C39.6362 89.711 42.1816 92.235 46.0105 94.2671C50.4597 96.62 54.5667 97.1762 56.9196 97.3259C58.31 97.2618 60.5774 97.0051 63.1228 95.8714C65.6683 94.7377 67.3795 93.2404 68.3635 92.235C69.433 91.2725 70.9945 89.9035 72.9196 88.2778C77.1763 84.6414 79.3581 82.8019 81.8608 81.112C83.1442 80.235 84.8768 79.1655 87.0159 78.0532C88.1496 77.4757 89.3046 76.9623 90.4811 76.4917C92.064 75.85 94.7164 74.4596 96.8982 71.6361C99.5292 68.1922 99.9143 64.62 99.9998 63.2938C99.8929 61.604 99.572 59.3152 98.6522 56.7698C97.925 54.7377 97.048 53.0906 96.2351 51.85C93.0907 57.4757 86.2672 67.85 73.6683 76.235C59.0586 85.9676 44.7057 87.6575 38.1816 88.0211Z" fill="#0293D6"/>
<path d="M46.374 27.2938C47.2082 26.4382 48.2778 25.4971 49.6681 24.6414C53.2617 22.4168 56.8553 22.0746 58.7804 22.0318C59.6788 21.9676 60.9409 21.9676 62.4168 22.3527C64.5772 22.9088 66.0532 23.9997 66.866 24.6628C68.7697 25.989 71.251 27.465 74.3526 28.7056C78.7163 30.4596 82.6307 31.0586 85.4756 31.2725C86.0532 31.2938 86.8874 31.3366 87.8713 31.5077C89.6254 31.8286 93.5398 32.5131 96.0639 35.7003C98.0318 38.1815 98.2457 41.0479 98.2671 42.3954C98.2029 43.7858 98.0104 45.4115 97.6254 47.2083C97.2403 49.0051 96.7484 50.5666 96.235 51.8714C79.6147 43.6789 62.9943 35.4864 46.374 27.2938H46.374Z" fill="#EBE638"/>
<path d="M38.1818 88.0211C36.3422 87.7858 33.7112 87.2725 30.7807 86.0104C27.7647 84.7056 23.9572 83.0799 21.7112 79.1227C20.2781 76.5987 20 74.0532 20 72.342C20.0214 70.7591 20.1497 68.8767 20.5775 66.7805C21.1979 63.6361 22.246 61.0693 23.1872 59.1869C23.9786 57.3045 24.7487 55.1655 25.4332 52.834C26.4171 49.4757 26.9947 46.3955 27.3583 43.6789C27.615 41.8607 27.9572 40.3848 28.2567 39.3366C28.877 37.0906 29.4545 35.0586 30.9733 32.9623C31.8289 31.7644 32.7273 30.9088 33.3262 30.3955C34.7594 29.4757 37.0909 28.2136 40.2353 27.5719C42.738 27.0586 44.8984 27.1227 46.3957 27.2938C42.9947 32.1281 36.984 42.0318 34.9519 56.0639C32.8128 70.7377 36.1711 82.4168 38.1818 88.0211Z" fill="#BAD147"/>
<path d="M46.3745 27.2938C46.0322 27.2725 57.8611 28.0425 65.1124 30.5666C67.2728 31.3152 69.2408 32.1709 71.0376 33.0479C68.706 32.8981 53.8183 32.235 42.4386 43.6789C28.1712 58.0318 32.813 78.0318 33.0696 79.1441C31.6793 77.3687 29.583 74.1602 28.7488 69.6682C28.3638 67.6361 28.3424 65.8393 28.4279 64.3634C28.5777 60.2992 29.2835 54.866 31.4654 48.834C35.5081 37.7323 42.4386 30.7163 46.3745 27.2938Z" fill="#78B650"/>
<path d="M74.9516 80.2136C76.8982 76.727 80.5987 68.9195 80.342 58.481C79.9998 45.1548 73.4329 36.0425 71.0586 33.0479C72.4062 33.2618 74.3527 33.6896 76.5987 34.5238C81.5185 36.3848 84.6415 39.1227 87.465 41.6468C89.8821 43.8072 93.1335 47.1227 96.2351 51.8714C94.8019 55.6361 92.6629 60.1709 89.4329 64.9195C84.5559 72.1281 79.08 77.0692 74.9516 80.2136Z" fill="#2F8260"/>
<path fill-rule="evenodd" clip-rule="evenodd" d="M71.4011 33.0479C73.4973 34.0746 78.3102 36.7912 81.8823 42.4596C85.7968 48.6842 85.8823 54.7805 85.7968 57.0692C85.3048 70.9516 75.8075 79.7644 74.9091 80.5345C68.4769 86.0508 61.1752 87.453 57.9241 88.0773L57.8823 88.0853C55.0588 88.62 52.6631 88.7698 50.9305 88.7912C48.8556 88.9195 46.4813 88.9409 43.8717 88.727C41.9251 88.5773 40.1497 88.3206 38.5241 88.0211C36.9626 86.0318 35.1444 83.2725 33.6684 79.743C31.3369 74.1602 30.9091 69.112 30.8877 65.9035C30.9519 63.4222 31.4866 51.2938 41.3048 41.8821C53.5615 30.1388 69.6898 32.7484 71.4011 33.0479ZM58.3957 80.4703C59.7005 80.4703 68.2353 80.4061 74.1818 73.4757C78.9151 67.9783 78.9726 61.6174 78.9941 59.2416L78.9946 59.1869L78.9945 59.1821C78.972 58.3249 78.6336 45.444 68.7914 40.0853C64.2353 37.604 59.7219 37.8607 58.4171 37.9463C53.1551 38.3099 49.5615 40.7056 48.0428 41.7323C46.246 42.973 38.139 48.8767 37.8396 59.2083C37.6043 66.8874 41.8396 72.1281 42.6096 73.0479C48.5989 80.235 57.1765 80.4489 58.3957 80.4703Z" fill="#085229"/>
</svg>
