<svg width="120" height="120" viewBox="0 0 120 120" fill="none" xmlns="http://www.w3.org/2000/svg">
<circle cx="60" cy="60" r="60" fill="#663300"/>
<path d="M44.2617 37.5315L48.9341 26L80.9379 26.1167C85.6103 26.4706 91.2172 26.4706 94.3719 30.4725C98.1098 34.8246 97.2912 41.059 95.4223 45.9984C91.7592 56.8082 82.7763 64.92 71.7091 67.4124C64.0015 68.5907 56.1744 68.2368 48.3472 68.2368C49.9059 64.4081 51.4646 60.5643 53.0196 56.7054C59.445 56.7054 65.9864 57.0593 72.5277 56.0014C78.4859 54.4729 83.9768 48.4719 83.0424 41.8835C82.4555 39.06 79.3045 37.7649 76.6132 37.7649C65.8705 37.2943 55.1203 37.7649 44.3776 37.5277H44.2617L44.2617 37.5315Z" fill="white"/>
<path fill-rule="evenodd" clip-rule="evenodd" d="M68.4378 40.7052H30.4758V40.709V40.8219L25.3324 53.7652H63.4179L68.4378 40.7052ZM49.7484 56.7054H36.6657L23 92H35.9705L49.7484 56.7054Z" fill="white"/>
</svg>
