<svg width="120" height="120" viewBox="0 0 120 120" fill="none" xmlns="http://www.w3.org/2000/svg">
<circle cx="60" cy="60" r="60" fill="#EDF0F4"/>
<path d="M57.4167 17.25V19.1648C58.087 18.8941 58.7178 18.5348 59.2923 18.0964C58.6532 18.0964 58.0141 17.25 57.375 17.25H57.4167Z" fill="black"/>
<path fill-rule="evenodd" clip-rule="evenodd" d="M59.6807 17.3888C58.9999 17.3888 58.2913 17.2778 57.6383 17.2639H57.4299C39.3094 18.2379 23.8117 30.6051 18.8624 48.0407C13.9132 65.4764 20.6066 84.126 35.5196 94.4519C32.7742 91.9688 31.2136 88.4383 31.2265 84.7392C31.272 77.5089 37.1299 71.6587 44.3699 71.6133L46.9958 71.53V70.9611C46.9924 65.3237 50.62 60.3236 55.985 58.5705C57.2975 58.1341 58.6725 57.9138 60.0558 57.9184C65.1983 57.9134 69.8649 60.9226 71.9766 65.6053C81.1535 59.3183 85.4276 47.9809 82.6811 37.2108C79.9346 26.4407 70.7509 18.5261 59.6807 17.3888Z" fill="#B4E1FF"/>
<path fill-rule="evenodd" clip-rule="evenodd" d="M61.0697 17.25C84.0221 20.025 91.1217 36.8557 91.1356 52.0491C91.1356 67.5894 78.0617 78.9255 66.6272 81.9225C62.3638 82.9686 58.0391 83.7471 53.6783 84.2536L51.9416 84.4617C51.5278 84.5177 51.119 84.6058 50.7189 84.7253C48.2335 85.4543 46.2144 87.2717 45.2309 89.6649C44.8061 90.6898 44.5889 91.7886 44.5918 92.8978C44.5891 96.5273 46.8854 99.7613 50.316 100.959C50.9134 101.098 51.5248 101.209 52.15 101.334C54.6406 101.774 57.1649 101.997 59.6942 102C82.8106 101.924 101.615 83.388 101.994 60.3053C102.372 37.2225 84.1851 18.0817 61.0836 17.25L61.0697 17.25Z" fill="#90D595"/>
<path fill-rule="evenodd" clip-rule="evenodd" d="M61.0696 17.25C60.6111 17.25 60.1665 17.25 59.6802 17.25C58.9994 17.25 58.2908 17.25 57.6378 17.25C58.3325 17.25 59.0272 17.3194 59.6802 17.3888C70.7759 18.4976 79.9921 26.4191 82.7426 37.2113C85.4932 48.0035 81.1907 59.3614 71.9761 65.633C69.4768 59.9754 63.343 56.8482 57.2888 58.1447C51.2346 59.4413 46.9241 64.8053 46.9675 70.9888V71.5438L44.3277 71.641C38.9092 71.6521 34.0542 74.9862 32.1045 80.0351C30.1549 85.084 31.5111 90.8103 35.5191 94.4519C36.3527 95.0346 37.2002 95.5619 38.0755 96.0891C41.8706 98.3487 46.0028 99.9882 50.3159 100.945C46.8875 99.7527 44.5906 96.5235 44.5917 92.8978C44.5873 91.784 44.8045 90.6803 45.2308 89.651C46.2227 87.2637 48.2384 85.4494 50.7188 84.7114C51.1208 84.6032 51.5291 84.5198 51.9414 84.4617L53.6781 84.2674C58.038 83.7485 62.3623 82.9654 66.627 81.9225C78.0615 78.9116 91.1493 67.5894 91.1355 52.0491C91.1355 36.7863 84.0219 19.9695 61.0696 17.25Z" fill="white"/>
<path d="M73.4775 67.1592L71.9492 65.6329L73.4775 67.1592Z" fill="black"/>
<path fill-rule="evenodd" clip-rule="evenodd" d="M59.5964 15.0071C58.8736 15.0071 58.2063 15.0071 57.4417 15.0071H57.3583C38.3039 15.9657 21.9697 28.9435 16.7227 47.2927C11.4756 65.6419 18.4781 85.2976 34.1432 96.1915C34.9601 96.9205 35.8498 97.5636 36.7983 98.1105C37.0367 98.2352 37.2958 98.3153 37.5629 98.3469C41.3443 100.507 45.4245 102.096 49.6709 103.061C50.3597 103.302 51.073 103.465 51.7978 103.548C54.3769 104.005 56.9909 104.238 59.6103 104.243C75.7329 104.525 90.7527 96.0817 98.8951 82.1585C107.037 68.2353 107.035 51.0002 98.8881 37.0795C90.7414 23.1588 75.7189 14.7199 59.5964 15.0071ZM42.9149 96.3444C40.6909 95.3422 38.5642 94.1365 36.562 92.7427C33.3365 89.6106 32.3353 84.833 34.0316 80.6686C35.7279 76.5043 39.782 73.7874 44.2772 73.8025C45.1391 73.8025 46.1261 73.8025 46.9462 73.7191C48.0851 73.6672 48.9835 72.7318 48.9897 71.5914V71.0352C48.9862 65.8654 52.5951 61.3964 57.6482 60.313C62.7014 59.2295 67.8242 61.8264 69.939 66.5435C70.4137 67.6044 71.6558 68.0828 72.7192 67.6142C72.8265 67.5528 72.9287 67.4831 73.0251 67.4056C85.0475 59.23 89.0198 43.3291 82.2555 30.4569C87.9272 37.8133 88.8725 46.894 88.8725 52.0254C88.8725 66.2097 77.0564 76.9731 65.9354 79.8378C61.1748 80.9776 56.3457 81.8091 51.4781 82.327C46.2171 83.0795 42.3048 87.5794 42.2893 92.8957C42.311 94.0362 42.508 95.1665 42.8732 96.2471L42.9149 96.3444ZM19.2827 59.6321C19.2654 37.9746 36.3514 20.1704 57.9839 19.3041C68.0508 19.7335 76.8168 26.3131 80.0437 35.8619C83.2707 45.4106 80.2938 55.9614 72.5524 62.4133C68.9604 57.1197 62.4391 54.643 56.2402 56.2182C50.0414 57.7933 45.4922 63.0831 44.8611 69.4498H44.1938C35.7486 69.4498 28.9024 76.2985 28.9024 84.7467C28.9024 85.1221 28.9024 85.4837 28.9858 85.8592C22.7037 78.5666 19.2503 69.2588 19.2549 59.6321H19.2827ZM59.5964 99.96C56.6117 99.9502 53.6372 99.6098 50.7274 98.9449C48.001 97.9115 46.3155 95.1673 46.626 92.2673C46.9365 89.3673 49.1647 87.0424 52.048 86.6101C57.1083 86.0643 62.1279 85.191 67.0753 83.9957C79.7255 80.6721 93.1819 68.3234 93.168 52.0115C93.3568 44.4305 91.3795 36.953 87.4685 30.4569C99.4055 41.8295 103.218 59.3265 97.0963 74.6373C90.9741 89.9482 76.1504 99.9878 59.6659 99.9878L59.5964 99.96Z" fill="#41474E"/>
</svg>
