<svg width="120" height="120" viewBox="0 0 120 120" fill="none" xmlns="http://www.w3.org/2000/svg">
<circle cx="60" cy="60" r="60" fill="#EDF0F4"/>
<path d="M73.8856 68.2399C76.2424 65.8804 80.0657 65.8783 82.4251 68.2351C84.7609 70.5684 84.7863 74.3389 82.4998 76.7034L82.4298 76.7746L64.2689 94.9556C61.9121 97.315 58.0889 97.3172 55.7294 94.9603C53.3936 92.6271 53.3682 88.8566 55.6547 86.4921L55.7247 86.4209L73.8856 68.2399Z" fill="#2E5B70"/>
<path fill-rule="evenodd" clip-rule="evenodd" d="M48.0677 42.4117L63.8714 26.628C66.2299 24.2724 70.0511 24.2737 72.4082 26.6307L98.2315 52.4539C100.591 54.8131 100.589 58.6385 98.2287 60.9961L82.4248 76.7797C80.0663 79.1353 76.2451 79.134 73.8881 76.777L48.065 50.9539C45.7058 48.5947 45.707 44.7693 48.0677 42.4117ZM85.4195 56.7209L68.1357 39.4372L60.8769 46.6868L78.1606 63.9705L85.4195 56.7209Z" fill="#2E5B70"/>
<path d="M37.5747 68.2341C39.9105 65.9009 43.6811 65.8796 46.043 68.1688L46.1142 68.2389L64.2751 86.4201C66.6318 88.7795 66.6297 92.6028 64.2703 94.9596C61.9344 97.2928 58.1639 97.314 55.8019 95.0249L55.7308 94.9548L37.5699 76.7736C35.2131 74.4141 35.2153 70.5909 37.5747 68.2341Z" fill="#74E1AC"/>
<path fill-rule="evenodd" clip-rule="evenodd" d="M21.7686 52.4531L48.4529 25.7686C50.81 23.4115 54.6311 23.4103 56.9897 25.7658L72.7936 41.5493C75.1543 43.907 75.1556 47.7324 72.7964 50.0916L46.112 76.776C43.7549 79.133 39.9338 79.1342 37.5753 76.7787L21.7714 60.9954C19.4106 58.6377 19.4094 54.8123 21.7686 52.4531ZM59.9844 45.8246L52.7255 38.5751L34.5806 56.72L41.8394 63.9695L59.9844 45.8246Z" fill="#74E1AC"/>
<path fill-rule="evenodd" clip-rule="evenodd" d="M59.5379 45.3486L63.8076 49.6183L82.4262 68.2369L73.8868 76.7765L55.2682 58.1579L50.9985 53.8882L59.5379 45.3486Z" fill="#2E5B70"/>
<path d="M73.8867 76.7765C76.2449 79.1345 80.0682 79.1345 82.4261 76.7765C84.7843 74.4184 84.7843 70.5951 82.4261 68.2369L73.8867 76.7765Z" fill="#2E5B70"/>
<path d="M73.8856 68.2399C76.2424 65.8804 80.0657 65.8783 82.4251 68.2351C84.7609 70.5684 84.7863 74.3389 82.4998 76.7034L82.4298 76.7746L64.2689 94.9556C61.9121 97.315 58.0889 97.3172 55.7294 94.9603C53.3936 92.6271 53.3682 88.8566 55.6547 86.4921L55.7247 86.4209L73.8856 68.2399Z" fill="#2E5B70"/>
</svg>
