<svg width="120" height="120" viewBox="0 0 120 120" fill="none" xmlns="http://www.w3.org/2000/svg">
<circle cx="60" cy="60" r="60" fill="#EDF0F4"/>
<path d="M81.0366 30H37.958C31.9311 30 27 35.0681 27 41.3689V79.174C27 82.4613 30.9038 84.0366 33.0269 81.571C35.6294 78.5576 40.1496 78.626 42.6836 81.6395L46.0395 85.5433C47.4092 87.1185 49.8063 87.1185 51.1761 85.5433L54.6689 81.571C57.2714 78.626 61.7231 78.626 64.3256 81.571L67.8185 85.6118C69.1882 87.187 71.5853 87.187 72.955 85.6118L76.4479 81.571C79.0504 78.626 83.5021 78.626 86.1046 81.571L86.1731 81.6395C88.2962 84.105 92.2 82.5298 92.2 79.2424V41.3689C91.9945 35.0681 87.1319 30 81.0366 30Z" fill="#88C6DE"/>
<path d="M81.0366 32.2601H37.958C31.9311 32.2601 27 37.3282 27 43.629V81.4341C27 84.7215 30.9038 86.2967 33.0269 83.8311C35.6294 80.8177 40.1496 80.8862 42.6836 83.8996L46.0395 87.8034C47.4092 89.3786 49.8063 89.3786 51.1761 87.8034L54.6689 83.8311C57.2714 80.8862 61.7231 80.8862 64.3256 83.8311L67.8185 87.8719C69.1882 89.4471 71.5853 89.4471 72.955 87.8719L76.4479 83.8311C79.0504 80.8862 83.5021 80.8862 86.1046 83.8311L86.1731 83.8996C88.2962 86.3652 92.2 84.79 92.2 81.5026V43.629C91.9945 37.3282 87.1319 32.2601 81.0366 32.2601Z" fill="#6CA2CB"/>
<circle cx="47.1355" cy="51.2995" r="6.64328" fill="white"/>
<circle cx="71.9284" cy="51.2995" r="6.64328" fill="white"/>
<circle opacity="0.5" cx="71.9278" cy="51.2995" r="5.27353" fill="url(#paint0_linear)"/>
<circle opacity="0.5" cx="71.9277" cy="51.2996" r="4.17773" fill="url(#paint1_linear)"/>
<circle opacity="0.5" cx="71.9287" cy="51.2995" r="2.60252" fill="url(#paint2_linear)"/>
<circle opacity="0.5" cx="47.1349" cy="51.2995" r="5.27353" fill="url(#paint3_linear)"/>
<circle opacity="0.5" cx="47.1348" cy="51.2996" r="4.17773" fill="url(#paint4_linear)"/>
<circle opacity="0.5" cx="47.1357" cy="51.2995" r="2.60252" fill="url(#paint5_linear)"/>
<circle opacity="0.5" cx="50.4227" cy="47.8068" r="1.50672" fill="white"/>
<circle opacity="0.5" cx="75.2157" cy="47.8068" r="1.50672" fill="white"/>
<defs>
<linearGradient id="paint0_linear" x1="66.6285" y1="56.5677" x2="77.1649" y2="56.5677" gradientUnits="userSpaceOnUse">
<stop stop-color="#1EAACC"/>
<stop offset="1" stop-color="#0584B9"/>
</linearGradient>
<linearGradient id="paint1_linear" x1="67.7118" y1="55.4844" x2="76.0815" y2="55.4844" gradientUnits="userSpaceOnUse">
<stop stop-color="#1EAACC"/>
<stop offset="1" stop-color="#0584B9"/>
</linearGradient>
<linearGradient id="paint2_linear" x1="69.2695" y1="53.9276" x2="74.5257" y2="53.9276" gradientUnits="userSpaceOnUse">
<stop stop-color="#1EAACC"/>
<stop offset="1" stop-color="#0584B9"/>
</linearGradient>
<linearGradient id="paint3_linear" x1="41.8497" y1="56.5677" x2="52.386" y2="56.5677" gradientUnits="userSpaceOnUse">
<stop stop-color="#1EAACC"/>
<stop offset="1" stop-color="#0584B9"/>
</linearGradient>
<linearGradient id="paint4_linear" x1="42.9329" y1="55.4844" x2="51.3026" y2="55.4844" gradientUnits="userSpaceOnUse">
<stop stop-color="#1EAACC"/>
<stop offset="1" stop-color="#0584B9"/>
</linearGradient>
<linearGradient id="paint5_linear" x1="44.4906" y1="53.9276" x2="49.7468" y2="53.9276" gradientUnits="userSpaceOnUse">
<stop stop-color="#1EAACC"/>
<stop offset="1" stop-color="#0584B9"/>
</linearGradient>
</defs>
</svg>
