<svg width="120" height="120" viewBox="0 0 120 120" fill="none" xmlns="http://www.w3.org/2000/svg">
<circle cx="60" cy="60" r="60" fill="url(#paint0_linear)"/>
<path fill-rule="evenodd" clip-rule="evenodd" d="M67.625 37.25L59.9375 35.625L52.3125 37.25L60 28.125L67.625 37.25Z" fill="url(#paint1_linear)"/>
<path fill-rule="evenodd" clip-rule="evenodd" d="M67.9375 37.25L60.5625 51.25L60 52.375L52.25 37.25L60 35.625L67.9375 37.25Z" fill="url(#paint2_linear)"/>
<path fill-rule="evenodd" clip-rule="evenodd" d="M76.3125 47.5L60 52.375L67.6875 37.3125L76.3125 47.5Z" fill="url(#paint3_linear)"/>
<path fill-rule="evenodd" clip-rule="evenodd" d="M78.625 44.25L76.3125 47.4375L60 28.1875L78.625 44.25Z" fill="url(#paint4_linear)"/>
<path fill-rule="evenodd" clip-rule="evenodd" d="M76.3125 47.5L60 52.3125L65.0625 62.75L76.3125 47.5Z" fill="url(#paint5_linear)"/>
<path fill-rule="evenodd" clip-rule="evenodd" d="M87.5 62.625L76.3125 47.5L78.6875 44.1875L87.5 62.625Z" fill="url(#paint6_linear)"/>
<path fill-rule="evenodd" clip-rule="evenodd" d="M76.3125 76.25V47.5L87.5625 62.6875L76.3125 76.25Z" fill="url(#paint7_linear)"/>
<path fill-rule="evenodd" clip-rule="evenodd" d="M76.3125 76.25V47.4375L65.0625 62.6875L76.3125 76.25Z" fill="url(#paint8_linear)"/>
<path fill-rule="evenodd" clip-rule="evenodd" d="M87.625 89.125V62.625L76.3125 76.25L87.625 89.9375V89.125Z" fill="url(#paint9_linear)"/>
<path fill-rule="evenodd" clip-rule="evenodd" d="M43.6875 47.5L60 52.375L52.3125 37.25L43.6875 47.5Z" fill="url(#paint10_linear)"/>
<path fill-rule="evenodd" clip-rule="evenodd" d="M41.375 44.25L43.6875 47.4375L60 28.1875L41.375 44.25Z" fill="url(#paint11_linear)"/>
<path fill-rule="evenodd" clip-rule="evenodd" d="M43.6875 47.5L60 52.3125L54.9375 62.75L43.6875 47.5Z" fill="url(#paint12_linear)"/>
<path fill-rule="evenodd" clip-rule="evenodd" d="M32.5 62.625L43.6875 47.5L41.3125 44.1875L32.5 62.625Z" fill="url(#paint13_linear)"/>
<path fill-rule="evenodd" clip-rule="evenodd" d="M43.6875 76.25V47.5L32.4375 62.6875L43.6875 76.25Z" fill="url(#paint14_linear)"/>
<path fill-rule="evenodd" clip-rule="evenodd" d="M43.6875 76.25V47.4375L54.9375 62.6875L43.6875 76.25Z" fill="url(#paint15_linear)"/>
<path fill-rule="evenodd" clip-rule="evenodd" d="M32.375 89.125V62.625L43.6875 76.25L32.375 89.9375C32.375 89.9375 32.375 89.125 32.375 89.125Z" fill="url(#paint16_linear)"/>
<defs>
<linearGradient id="paint0_linear" x1="-186.924" y1="-7.43893" x2="1.29432" y2="252.089" gradientUnits="userSpaceOnUse">
<stop/>
<stop offset="1" stop-color="#050606"/>
</linearGradient>
<linearGradient id="paint1_linear" x1="70.9015" y1="37.1783" x2="68.7273" y2="24.4793" gradientUnits="userSpaceOnUse">
<stop stop-color="#46EFFA"/>
<stop offset="0.9369" stop-color="#2000E3"/>
</linearGradient>
<linearGradient id="paint2_linear" x1="75.2035" y1="42.1684" x2="60.7752" y2="27.4934" gradientUnits="userSpaceOnUse">
<stop stop-color="#46EFFA"/>
<stop offset="0.9369" stop-color="#2000E3"/>
</linearGradient>
<linearGradient id="paint3_linear" x1="79.4568" y1="48.2209" x2="68.9424" y2="31.6691" gradientUnits="userSpaceOnUse">
<stop stop-color="#46EFFA"/>
<stop offset="0.9369" stop-color="#2000E3"/>
</linearGradient>
<linearGradient id="paint4_linear" x1="85.915" y1="37.4152" x2="69.8923" y2="19.4601" gradientUnits="userSpaceOnUse">
<stop stop-color="#46EFFA"/>
<stop offset="0.9369" stop-color="#2000E3"/>
</linearGradient>
<linearGradient id="paint5_linear" x1="83.5182" y1="55.3416" x2="72.6265" y2="38.8517" gradientUnits="userSpaceOnUse">
<stop stop-color="#46EFFA"/>
<stop offset="0.9369" stop-color="#2000E3"/>
</linearGradient>
<linearGradient id="paint6_linear" x1="92.0443" y1="45.7874" x2="75.861" y2="41.299" gradientUnits="userSpaceOnUse">
<stop stop-color="#46EFFA"/>
<stop offset="0.9369" stop-color="#2000E3"/>
</linearGradient>
<linearGradient id="paint7_linear" x1="90.752" y1="44.604" x2="71.8662" y2="43.2034" gradientUnits="userSpaceOnUse">
<stop stop-color="#46EFFA"/>
<stop offset="0.9369" stop-color="#2000E3"/>
</linearGradient>
<linearGradient id="paint8_linear" x1="81.6643" y1="40.0871" x2="62.7594" y2="38.6959" gradientUnits="userSpaceOnUse">
<stop stop-color="#46EFFA"/>
<stop offset="0.9369" stop-color="#2000E3"/>
</linearGradient>
<linearGradient id="paint9_linear" x1="93.0616" y1="56.3128" x2="74.3544" y2="54.6661" gradientUnits="userSpaceOnUse">
<stop stop-color="#46EFFA"/>
<stop offset="0.9369" stop-color="#2000E3"/>
</linearGradient>
<linearGradient id="paint10_linear" x1="64.2684" y1="47.3517" x2="53.6894" y2="30.835" gradientUnits="userSpaceOnUse">
<stop stop-color="#46EFFA"/>
<stop offset="0.9369" stop-color="#2000E3"/>
</linearGradient>
<linearGradient id="paint11_linear" x1="67.1836" y1="37.4973" x2="51.1608" y2="19.5421" gradientUnits="userSpaceOnUse">
<stop stop-color="#46EFFA"/>
<stop offset="0.9369" stop-color="#2000E3"/>
</linearGradient>
<linearGradient id="paint12_linear" x1="68.0178" y1="54.7289" x2="57.1262" y2="38.239" gradientUnits="userSpaceOnUse">
<stop stop-color="#46EFFA"/>
<stop offset="0.9369" stop-color="#2000E3"/>
</linearGradient>
<linearGradient id="paint13_linear" x1="47.3793" y1="46.934" x2="31.1956" y2="42.4455" gradientUnits="userSpaceOnUse">
<stop stop-color="#46EFFA"/>
<stop offset="0.9369" stop-color="#2000E3"/>
</linearGradient>
<linearGradient id="paint14_linear" x1="49.0182" y1="40.1922" x2="30.1323" y2="38.7916" gradientUnits="userSpaceOnUse">
<stop stop-color="#46EFFA"/>
<stop offset="0.9369" stop-color="#2000E3"/>
</linearGradient>
<linearGradient id="paint15_linear" x1="58.1158" y1="44.4685" x2="39.2112" y2="43.0774" gradientUnits="userSpaceOnUse">
<stop stop-color="#46EFFA"/>
<stop offset="0.9369" stop-color="#2000E3"/>
</linearGradient>
<linearGradient id="paint16_linear" x1="46.8002" y1="60.9248" x2="28.093" y2="59.2782" gradientUnits="userSpaceOnUse">
<stop stop-color="#46EFFA"/>
<stop offset="0.9369" stop-color="#2000E3"/>
</linearGradient>
</defs>
</svg>
