<svg width="120" height="120" viewBox="0 0 120 120" fill="none" xmlns="http://www.w3.org/2000/svg">
<circle cx="60" cy="60" r="60" fill="#EDF0F4"/>
<mask id="mask0" style="mask-type:alpha" maskUnits="userSpaceOnUse" x="36" y="27" width="48" height="61">
<path fill-rule="evenodd" clip-rule="evenodd" d="M59.9974 27L50.2993 36.6908L63.1288 49.5202L63.1727 49.5544L63.4408 49.8095L65.9758 47.2753L55.3994 36.6908L55.4465 36.6453L59.9982 32.083L64.5986 36.6924L64.5531 36.7379L61.1755 40.1301L63.7105 42.6651L64.0282 42.3621L64.0331 42.3661L69.6987 36.6908L59.999 27H59.9974ZM61.1658 54.4286L63.7122 56.966L74.2975 46.3823L78.8995 50.9933L78.8548 51.0388L75.4699 54.4172L78.0228 56.9693L83.9972 50.9884L74.2975 41.2977L61.1658 54.4286ZM36 50.9884L49.1301 64.1112L51.6667 61.5754L51.3694 61.2626L51.3726 61.2593L41.1009 50.9884L41.1472 50.9429L45.7005 46.3823L49.1399 49.8127L51.6781 47.2753L45.7086 41.2977L36 50.9884ZM46.8778 54.431L49.4145 56.975L58.4341 47.9562L58.8184 47.5556L56.281 45.0173L46.8778 54.431ZM68.3296 54.7122L78.8971 65.2886L78.8508 65.3341L74.2975 69.8946L70.8655 66.4642L68.3378 69.0106L68.6481 69.321L68.6408 69.33L74.2975 74.9874L83.9972 65.2877L70.8663 52.1649L68.3296 54.7122ZM54.0303 54.7122L63.4392 64.1112L65.975 61.5738L56.5759 52.1658L54.0303 54.7122ZM70.2675 59.627L60.8278 69.0659V84.2663H59.1743V69.0635L56.5678 66.4577L54.0157 69.0106L55.5627 70.5666V83.0792L55.5432 83.0971L54.3756 84.2663H45.7005V87.86H74.2975V84.2663H65.6175L65.5988 84.2476L64.4296 83.0784V70.5633L64.4491 70.5447L73.1291 61.8565L70.5803 59.3077L70.2675 59.627ZM45.7013 69.902L45.6566 69.8556L41.1017 65.2877L41.148 65.2414L44.1348 62.2547L44.5199 61.8533L41.9825 59.315L36.0089 65.2877L45.7005 74.9874L58.8184 61.8533L56.281 59.315L45.7013 69.902Z" fill="white"/>
</mask>
<g mask="url(#mask0)">
<path fill-rule="evenodd" clip-rule="evenodd" d="M50.2993 36.6908L59.9974 27H59.999L69.6987 36.6908L64.0331 42.3661L64.0282 42.3621L63.7105 42.6651L61.1755 40.1301L64.5531 36.7379L64.5986 36.6924L59.9982 32.083L55.4465 36.6453L55.3994 36.6908L65.9758 47.2753L63.4408 49.8095L63.1727 49.5544L63.1288 49.5202L50.2993 36.6908ZM63.7122 56.966L61.1658 54.4286L74.2975 41.2977L83.9972 50.9884L78.0228 56.9693L75.4699 54.4172L78.8548 51.0388L78.8995 50.9933L74.2975 46.3823L63.7122 56.966ZM36 50.9884L49.1301 64.1112L51.6667 61.5754L51.3694 61.2626L51.3726 61.2593L41.1009 50.9884L41.1472 50.9429L45.7005 46.3823L49.1399 49.8127L51.6781 47.2753L45.7086 41.2977L36 50.9884ZM49.4145 56.975L46.8778 54.431L56.281 45.0173L58.8184 47.5556L58.4341 47.9562L49.4145 56.975ZM68.3296 54.7122L78.8971 65.2886L78.8508 65.3341L74.2975 69.8946L70.8655 66.4642L68.3378 69.0106L68.6481 69.321L68.6408 69.33L74.2975 74.9874L83.9972 65.2877L70.8663 52.1649L68.3296 54.7122ZM63.4392 64.1112L54.0303 54.7122L56.5759 52.1658L65.975 61.5738L63.4392 64.1112ZM70.2675 59.627L60.8278 69.0659V84.2663H59.1743V69.0635L56.5678 66.4577L54.0157 69.0106L55.5627 70.5666V83.0792L55.5432 83.0971L54.3756 84.2663H45.7005V87.86H74.2975V84.2663H65.6175L65.5988 84.2476L64.4296 83.0784V70.5633L64.4491 70.5447L73.1291 61.8565L70.5803 59.3077L70.2675 59.627ZM45.6566 69.8556L45.7013 69.902L56.281 59.315L58.8184 61.8533L45.7005 74.9874L36.0089 65.2877L41.9825 59.315L44.5199 61.8533L44.1348 62.2547L41.148 65.2414L41.1017 65.2877L45.6566 69.8556Z" fill="url(#paint0_linear)"/>
</g>
<defs>
<linearGradient id="paint0_linear" x1="90.4957" y1="57.2542" x2="47.4847" y2="30.5027" gradientUnits="userSpaceOnUse">
<stop stop-color="#24B1C6"/>
<stop offset="1" stop-color="#D852D8"/>
</linearGradient>
</defs>
</svg>
