<svg width="120" height="120" viewBox="0 0 120 120" fill="none" xmlns="http://www.w3.org/2000/svg">
<circle cx="60" cy="60" r="60" fill="#EDF0F4"/>
<path d="M105 60C105 84.8562 84.8562 105 60 105C35.1438 105 15 84.8562 15 60C15 35.1438 35.1438 15 60 15C84.8562 15 105 35.1438 105 60Z" fill="#393534"/>
<path d="M99.7655 60.3863C99.7655 82.1331 82.1325 99.7661 60.3857 99.7661C38.6389 99.7661 21.0059 82.1331 21.0059 60.3863C21.0059 38.6395 38.6389 21.0065 60.3857 21.0065C82.1325 21.0065 99.7655 38.6395 99.7655 60.3863Z" fill="#F2F2F2"/>
<path d="M75.2853 49.0462L47.0106 77.9582L46.3926 66.3123L63.4462 49.0462L70.5149 41.7071L75.0921 40.2007L78.414 41.0698L81.5235 43.6578L77.7767 47.9646L75.2853 49.0462Z" fill="white"/>
<path d="M77.8522 49.855L72.1934 55.6876H80.7685L81.7341 54.7026C82.4101 54.0074 82.9509 53.1576 83.3178 52.2499C83.6848 51.3228 83.8586 50.3378 83.8586 49.3529C83.8586 47.3829 83.1247 45.5095 81.8114 44.0803L77.9101 48.1361C78.1225 48.3679 78.2191 48.6962 78.2191 49.0052C78.1998 49.3142 78.0646 49.6232 77.8522 49.855Z" fill="#E1DED9"/>
<path d="M54.6003 74.4011L49.9844 79.1908H58.5595L63.214 74.4011H54.6003Z" fill="#E1DED9"/>
<path d="M56.9199 71.972H65.495L70.6131 66.6609H62.0379L56.9199 71.972Z" fill="#E1DED9"/>
<path d="M78.4312 58.5493H69.8561L64.3711 64.2081H72.9462L78.4312 58.5493Z" fill="#E1DED9"/>
<path fill-rule="evenodd" clip-rule="evenodd" d="M78.1544 39.8175C79.3132 40.3197 80.3754 41.0536 81.2638 41.9806C82.1522 42.9077 82.8668 43.9892 83.311 45.2446C83.7938 46.442 84.0449 47.736 84.0256 49.0493C84.0449 51.6759 83.0406 54.206 81.2445 56.0794L81.2059 56.118L59.1308 78.9849C59.0342 79.1008 58.899 79.2167 58.7638 79.2746C58.6093 79.3519 58.4548 79.3712 58.3003 79.3712H46.9441L42.4054 84.0643H39.0449L45.1672 77.6716V65.8519C45.1479 65.5236 45.2831 65.1952 45.4956 64.9442L67.7059 42C68.5943 41.0729 69.6565 40.3197 70.8153 39.8175C71.9741 39.3154 73.2295 39.0643 74.4848 39.0643C75.7402 39.0643 76.9956 39.3154 78.1544 39.8175ZM69.3282 43.6609L68.3625 44.6459V53.6652L74.0599 47.7553C74.2724 47.5429 74.5814 47.4077 74.8904 47.4077C75.1994 47.4077 75.5084 47.5236 75.7209 47.7553C75.7209 47.7939 75.7209 47.7939 75.7595 47.8326C75.972 48.0643 76.0685 48.3733 76.0685 48.6824C76.0685 48.9914 75.9333 49.3004 75.7209 49.5128L70.1007 55.3454H78.6758L79.6415 54.3605C80.9934 52.9506 81.7466 51.0579 81.766 49.0686C81.766 47.0794 81.032 45.1673 79.7187 43.7382C79.6949 43.7382 79.6857 43.7234 79.6731 43.703C79.6654 43.6904 79.6562 43.6757 79.6415 43.6609C78.2702 42.251 76.4162 41.4592 74.4848 41.4592C72.5535 41.4592 70.6994 42.251 69.3282 43.6609ZM49.281 76.9184L53.8969 72.1287H62.472L57.8561 76.9184H49.281ZM68.2273 57.2575L62.7423 62.9549H71.3175L76.8024 57.2575H68.2273ZM69.4441 64.8862L64.326 70.1974H55.7509L60.869 64.8862H69.4441ZM66.4891 46.5579L61.0041 52.2553V61.2746L66.4891 55.5772V46.5579ZM54.0127 59.4978L59.1308 54.1866V63.206L54.0127 68.5171V59.4978ZM52.178 61.4485L47.4848 66.2768V75.2961L52.178 70.4678V61.4485Z" fill="#393534"/>
</svg>
