<svg width="120" height="120" viewBox="0 0 120 120" fill="none" xmlns="http://www.w3.org/2000/svg">
<circle cx="60" cy="60" r="60" fill="#2C3E50"/>
<path fill-rule="evenodd" clip-rule="evenodd" d="M95.7456 85.4935V81.7468C95.7456 81.005 95.2461 80.5104 94.4875 80.5104H91.99V76.7488C91.99 76.0032 91.4905 75.4974 90.7469 75.4974H88.2456V47.9782H90.7318C91.4792 47.9782 91.99 47.4837 91.99 46.7268V42.9802H94.4875C95.0962 43.0057 95.629 42.5754 95.7306 41.9761C95.8583 41.3541 95.6067 40.8596 95.1109 40.5973L60.1159 23.0929C59.7532 22.969 59.3595 22.969 58.9967 23.0929L22.7474 40.5973C22.2585 40.8628 22.0044 41.4187 22.1239 41.9611C22.1239 42.598 22.6234 42.9802 23.2431 42.9802H26.9987V46.7268C26.9987 47.4687 27.4982 47.9632 28.2419 47.9632H30.7431V75.4974H28.2569C27.5058 75.4974 26.9987 75.992 26.9987 76.7338V80.4954H24.5013C23.7501 80.4954 23.2544 80.99 23.2544 81.7356V85.4935C22.5108 85.4935 22 85.9918 22 86.7486C22 87.5054 22.4957 88 23.2431 88H95.7456C96.4892 88 97 87.5054 97 86.7636C97 86.0143 96.5043 85.4935 95.7606 85.4935H95.7456ZM29.485 45.4717V42.9802H89.4775V45.4717H29.485ZM80.7231 75.4974V47.982V47.9782H75.7356V75.4974H80.7231ZM68.2243 47.982V75.4974H63.2256V47.9782H68.2206L68.2243 47.982ZM55.7256 75.4974V47.982V47.9782H50.7381V75.4974H55.7256ZM43.2268 47.982V75.4974H38.2431V47.9782H43.2268V47.982ZM29.5 80.4954H89.4775H89.4887V77.9889H29.5V80.4954Z" fill="white"/>
</svg>
