<svg width="120" height="120" viewBox="0 0 120 120" fill="none" xmlns="http://www.w3.org/2000/svg">
<circle cx="60" cy="60" r="60" fill="#EDF0F4"/>
<path d="M60.2581 20C43.575 20.067 30.067 33.575 30 50.2581C30 53.5992 30.5393 56.918 31.5956 60.0867C32.3838 62.2439 34.7228 63.4055 36.9183 62.7386C39.0404 61.9248 40.1669 59.6049 39.4904 57.4349C38.5937 54.965 38.1948 52.3451 38.3128 49.722C38.6766 37.6724 48.7382 28.198 60.7878 28.5618C72.8375 28.9255 82.3119 38.9871 81.9481 51.0367C81.6066 62.3173 72.7226 71.479 61.4548 72.1651C61.4548 72.1651 57.2074 72.4236 55.0949 72.6821C54.3163 72.7937 53.544 72.9469 52.7813 73.1416C52.6728 73.2533 52.4973 73.2533 52.3856 73.1448L52.3825 73.1416C52.3059 73.0427 52.3059 72.9022 52.3825 72.8033L53.0398 69.2165L57.0287 51.2761C57.5074 49.0359 56.081 46.8309 53.8408 46.3522C51.6006 45.8735 49.3956 47.3 48.9169 49.5401C48.9169 49.5401 39.4297 93.453 39.4297 93.8519C38.8872 95.9867 40.1765 98.1567 42.3113 98.6992C42.3336 98.7056 42.3592 98.7119 42.3815 98.7151H42.6017C44.7334 99.2672 46.9097 97.9844 47.4586 95.8527C47.4681 95.8176 47.4777 95.7825 47.4841 95.7442C47.4777 95.6772 47.4777 95.6102 47.4841 95.5464C47.6022 95.0294 48.7988 89.1865 48.7988 89.1865C49.7051 84.7764 53.26 81.397 57.7084 80.7141C58.6243 80.5737 62.4727 80.3152 62.4727 80.3152C79.0921 78.659 91.2215 63.8427 89.5621 47.2234C88.0495 32.0656 75.4925 20.3957 60.2581 20Z" fill="#1E1E1E"/>
<path d="M62.093 89.7673C59.3646 89.1992 56.6969 90.9512 56.1289 93.6764C56.1225 93.7019 56.1193 93.7274 56.1129 93.753C55.5226 96.4622 57.2394 99.1396 59.9518 99.7299C59.955 99.7299 59.9582 99.7299 59.9614 99.7331H60.1018C62.7568 100.375 65.4278 98.7407 66.066 96.0889C66.0724 96.0697 66.0756 96.0474 66.0819 96.0282V95.7506C66.551 93.0126 64.8023 90.3863 62.093 89.7673Z" fill="#E6007A"/>
</svg>
