<svg width="120" height="120" viewBox="0 0 120 120" fill="none" xmlns="http://www.w3.org/2000/svg">
<path d="M60 0C93.132 0 120 26.868 120 60C120 93.132 93.132 120 60 120C26.868 120 0 93.132 0 60C0 26.868 26.868 0 60 0Z" fill="#FFCCD5"/>
<path fill-rule="evenodd" clip-rule="evenodd" d="M70.896 30.156C77.208 30.156 82.44 32.232 86.544 36.384C90.672 40.536 92.748 45.792 92.748 52.152C92.748 58.536 90.672 63.78 86.568 67.932C82.464 72.084 77.232 74.16 70.92 74.16H59.076V91.032H45V81.804C50.652 80.016 54.744 74.724 54.744 68.484C54.744 62.244 50.652 56.952 45 55.164V46.464V30.156H70.896ZM68.712 62.712C71.568 62.712 73.896 61.716 75.72 59.748C77.544 57.78 78.468 55.26 78.456 52.188C78.456 49.116 77.544 46.596 75.72 44.628C73.884 42.66 71.544 41.664 68.712 41.664H59.052V62.712H68.712Z" fill="black"/>
<path d="M37.728 78.792C43.368 78.792 47.928 74.22 47.928 68.592C47.928 62.952 43.356 58.392 37.728 58.392C32.1 58.392 27.528 62.964 27.528 68.592C27.528 74.232 32.1 78.792 37.728 78.792Z" fill="#FF3465"/>
</svg>
