<svg width="120" height="120" viewBox="0 0 120 120" fill="none" xmlns="http://www.w3.org/2000/svg">
<circle cx="60" cy="60" r="60" fill="#EDF0F4"/>
<path d="M36.5355 46.3137H66.5421C71.0328 46.3137 74.6862 49.9671 74.6862 54.4577C74.6862 58.9484 71.0328 62.6018 66.5421 62.6018H50.3058C49.0252 62.6018 47.9871 63.6399 47.9871 64.9205C47.9871 66.2011 49.0252 67.2392 50.3058 67.2392H66.5415C73.5891 67.2392 79.323 61.5062 79.323 54.4577C79.323 47.4093 73.5891 41.6763 66.5415 41.6763H36.5355C35.2549 41.6763 34.2168 42.7144 34.2168 43.995C34.2168 45.2756 35.2549 46.3137 36.5355 46.3137Z" fill="#8500FF"/>
<path d="M66.5429 31H54.9043C53.6237 31 52.5856 32.0381 52.5856 33.3187C52.5856 34.5993 53.6237 35.6374 54.9043 35.6374H66.5429C76.9206 35.6374 85.3626 44.0801 85.3626 54.4577C85.3626 64.8354 76.92 73.2783 66.5423 73.2783H36.9796C36.1451 73.2688 35.3698 73.7086 34.9498 74.4298C34.5298 75.151 34.5298 76.0422 34.9498 76.7634C35.3698 77.4846 36.1451 77.9244 36.9796 77.9149H66.5423C79.4769 77.9149 90.0001 67.392 90.0001 54.4571C90.0001 41.5223 79.4778 31 66.5429 31Z" fill="#8500FF"/>
<path fill-rule="evenodd" clip-rule="evenodd" d="M50.7811 52.139C52.0611 52.1405 53.0983 53.1778 53.0998 54.4577C53.0998 55.8228 51.9636 56.7765 50.336 56.7765H44.6857C43.837 56.7765 42.8115 55.7422 42.8115 54.4577C42.813 53.1778 43.8502 52.1405 45.1302 52.139H50.7811ZM32.3451 83.9552H45.7602C46.5949 83.9457 47.3702 84.3856 47.7903 85.1068C48.2104 85.8281 48.2104 86.7195 47.7903 87.4408C47.3702 88.162 46.5949 88.6019 45.7602 88.5924H32.3451C31.5105 88.6019 30.7351 88.162 30.3151 87.4408C29.895 86.7195 29.895 85.8281 30.3151 85.1068C30.7351 84.3856 31.5105 83.9457 32.3451 83.9552Z" fill="#8500FF"/>
</svg>
