<svg width="120" height="120" viewBox="0 0 120 120" fill="none" xmlns="http://www.w3.org/2000/svg">
<circle cx="60" cy="60" r="60" fill="#105B2F"/>
<path fill-rule="evenodd" clip-rule="evenodd" d="M43.6614 75.6262L45.1239 68.175V68.1788H46.144C47.4143 68.1797 48.6846 68.1811 49.9549 68.1825C53.7659 68.1867 57.5769 68.191 61.3879 68.1825C65.2955 68.175 69.173 67.8488 72.9531 66.8025C77.7194 65.4826 81.9869 63.3113 85.0995 59.4414C89.3145 54.184 90.7058 48.1503 89.6745 41.5841C89.0108 37.3579 86.622 34.3055 82.6544 32.543C81.2744 31.928 79.7631 31.5305 78.2744 31.223C73.9506 30.3343 69.5443 30.1093 65.1492 30.0531C60.3084 29.9904 55.466 29.9974 50.6241 30.0045C47.9342 30.0084 45.2444 30.0123 42.5552 30.0043C41.8652 30.0043 41.7489 30.368 41.6439 30.8968C41.3084 32.5973 40.9674 34.2966 40.6264 35.9962C40.0755 38.7416 39.5245 41.4875 38.9964 44.2391C38.8539 44.9591 38.5726 45.1691 37.8414 45.1466C36.9172 45.1149 35.9903 45.1228 35.0623 45.1308C34.4539 45.136 33.8451 45.1413 33.2363 45.1353C32.7113 45.1316 32.46 45.2741 32.3625 45.8366C32.1205 47.2393 31.8459 48.6366 31.5715 50.0335C31.4505 50.6495 31.3295 51.2653 31.2113 51.8815C31.1913 51.9862 31.1879 52.0943 31.1835 52.2366C31.1813 52.3082 31.1788 52.3886 31.1738 52.4815H37.4626L30 89.756C30.0734 89.7835 30.1312 89.8078 30.1788 89.8278C30.2672 89.865 30.32 89.8872 30.3713 89.8872C31.4736 89.8997 32.576 89.911 33.6784 89.9222C35.8836 89.9447 38.0887 89.9672 40.2939 89.9997C40.8189 90.0072 40.9239 89.7297 40.9989 89.3172L43.6614 75.6262ZM48.2665 57.9077H47.2052L48.2927 52.4477H63.6792L65.0892 45.1803H49.7515L50.6665 40.5004C50.7528 40.4931 50.832 40.485 50.9064 40.4774C51.0616 40.4616 51.1959 40.4479 51.3303 40.4479C52.8936 40.4521 54.4567 40.4519 56.0195 40.4516C59.9787 40.451 63.9365 40.4503 67.8942 40.5229C69.8694 40.5773 71.8371 40.7905 73.7781 41.1604C76.4293 41.6404 77.9894 43.3466 78.4319 45.9603C78.7811 47.7981 78.4774 49.7002 77.5731 51.3378C75.4656 55.1139 72.1693 57.1952 67.8305 57.7127C66.6942 57.8514 65.5355 57.9002 64.3917 57.9002C60.4807 57.9138 56.5716 57.9116 52.6631 57.9093C51.1975 57.9085 49.732 57.9077 48.2665 57.9077Z" fill="white"/>
</svg>
