<svg width="120" height="120" viewBox="0 0 120 120" fill="none" xmlns="http://www.w3.org/2000/svg">
<circle cx="60" cy="60" r="60" fill="#152743"/>
<path fill-rule="evenodd" clip-rule="evenodd" d="M60.6811 31.2462C55.8169 31.2462 51.873 28.5061 51.873 25.1231C51.873 21.7401 55.8169 19 60.6811 19C65.5454 19 69.4856 21.7401 69.4856 25.1231C69.4856 28.5061 65.5454 31.2462 60.6811 31.2462ZM56.1237 99.5945V34.1918H75.7581C76.4862 34.1918 77 34.7413 77 35.4778V71.7677C77 72.5004 76.4825 73.1284 75.7581 73.1284H64.9355V99.5945C64.9355 100.331 64.381 101 63.6529 101H57.4876C56.7381 100.971 56.1407 100.357 56.1237 99.5982V99.5945ZM45.3824 73.1246H52.8118V34.1918H45.3787C44.6542 34.1918 44 34.7413 44 35.4778V71.764C44.0276 72.5181 44.6363 73.1172 45.3824 73.1246Z" fill="white"/>
</svg>
