<svg width="120" height="120" viewBox="0 0 120 120" fill="none" xmlns="http://www.w3.org/2000/svg">
<circle cx="60" cy="60" r="60" fill="#EDF0F4"/>
<path fill-rule="evenodd" clip-rule="evenodd" d="M88.6079 54.9187V78.7087C88.6696 80.7008 88.1855 82.6719 87.2079 84.4087C86.3387 85.711 85.1278 86.7489 83.7079 87.4087C82.1583 88.2076 80.4503 88.6517 78.7079 88.7087H42.0079C40.2742 88.5945 38.5777 88.1534 37.0079 87.4087C35.6166 86.7459 34.4388 85.7066 33.6079 84.4087C32.4851 82.6885 31.9259 80.6613 32.0079 78.6087V54.8087C32.0278 50.7835 34.053 47.0331 37.4079 44.8087L54.2079 33.8087C57.9533 31.3971 62.7625 31.3971 66.5079 33.8087L70.7079 36.6087V34.1087C70.694 33.5476 70.9108 33.0054 71.3077 32.6085C71.7046 32.2116 72.2468 31.9949 72.8079 32.0087H76.1079C77.2693 32.0142 78.2079 32.9573 78.2079 34.1187V41.6187L83.2079 44.9187C86.5271 47.1755 88.5413 50.9055 88.6079 54.9187ZM70.5079 50.4187C70.5464 52.514 69.6702 54.522 68.1079 55.9187C67.2653 56.6493 66.3224 57.2555 65.3079 57.7187L53.0079 61.8187C45.7079 64.2187 42.1079 68.4187 40.4079 71.5187C40.0998 72.0994 39.8325 72.7009 39.6079 73.3187C39.6079 73.3687 39.5829 73.3937 39.5579 73.4187C39.5329 73.4437 39.5079 73.4687 39.5079 73.5187V54.9187C39.5578 53.4401 40.2982 52.0704 41.5079 51.2187L58.3079 40.2187C59.5017 39.4756 61.0141 39.4756 62.2079 40.2187L70.5079 45.7187V50.4187ZM81.0079 79.1187C80.9595 80.2416 80.0318 81.1251 78.9079 81.1187H48.1079C46.9465 81.1132 46.0079 80.1701 46.0079 79.0087V78.3087C46.1209 77.1853 46.4611 76.0966 47.0079 75.1087C48.5079 72.3087 51.3079 70.3087 55.3079 68.9087L67.6079 64.8087C69.5143 64.0982 71.2762 63.0479 72.8079 61.7087C76.1275 58.9302 78.0642 54.8375 78.1079 50.5087L79.0079 51.1087C80.2311 51.9484 80.9754 53.3254 81.0079 54.8087V79.1087V79.1187Z" fill="#38A6FA"/>
</svg>
