<svg width="120" height="120" viewBox="0 0 120 120" fill="none" xmlns="http://www.w3.org/2000/svg">
<circle cx="60" cy="60" r="60" fill="#EDF0F4"/>
<path fill-rule="evenodd" clip-rule="evenodd" d="M56.0856 100H63.6628C56.8543 89.0734 50.1007 78.092 43.2922 67.1654C42.2489 65.5182 41.9744 63.9808 42.7431 62.0041C43.1274 61.0707 43.8961 60.1922 44.6099 59.5333C44.3903 59.2588 44.1707 58.9293 43.9511 58.5999C42.8529 56.8977 42.0842 55.0309 41.59 53.0542C34.7266 56.4036 33.1892 63.1572 37.1425 69.8559L56.0856 100ZM53.1755 75.9506C57.623 76.4448 61.741 76.4448 66.1336 75.9506C71.5145 75.3466 76.3464 74.0837 79.3114 72.1071C82.4411 70.0755 84.5276 66.836 84.5276 63.0474C84.5276 58.6548 81.8371 55.2505 78.1583 53.2739C77.8289 54.9211 77.2798 56.4585 76.566 57.8312C76.1817 58.5999 75.7424 59.3137 75.1933 59.9726C76.0169 60.8511 76.7856 61.9492 76.7856 62.9925C76.7856 64.7495 74.809 66.6713 73.3265 67.4949C71.6244 68.4283 69.1535 69.0323 67.2318 69.2519C64.706 69.5264 62.1803 69.6362 59.6546 69.6912C58.3368 69.6912 56.9092 69.6362 55.5914 69.5264C53.3402 69.4166 50.9243 69.2519 48.728 68.6479L53.1755 75.9506Z" fill="#020202"/>
<path fill-rule="evenodd" clip-rule="evenodd" d="M59.9292 20C66.7377 31.1462 64.3767 37.79 63.4433 41.9629C62.0157 48.442 70.1969 50.5834 70.8008 43.0611C70.9656 41.3041 70.8557 39.2725 70.7459 37.3507C79.1468 50.8579 73.656 63.0474 59.9292 63.0474C48.3986 63.0474 41.9196 52.5051 46.4769 42.0178C45.9827 47.5635 49.8811 49.3754 49.2223 46.7948C49.0575 46.1359 48.7281 45.0378 48.4536 42.7865C47.4103 32.0247 60.643 29.2793 59.9292 20Z" fill="#EA7437"/>
</svg>
