<svg width="120" height="120" viewBox="0 0 120 120" fill="none" xmlns="http://www.w3.org/2000/svg">
<path d="M60 0C93.12 0 120 26.88 120 60C120 93.12 93.12 120 60 120C26.88 120 0 93.12 0 60C0 26.88 26.88 0 60 0Z" fill="#071630"/>
<path opacity="0.9" d="M98.7586 86.8694C98.7586 88.5551 97.3103 89.7592 95.1379 89.7592C93.2069 89.7592 91.7586 88.5551 91.7586 86.8694V42.8C91.7586 42.5592 91.7586 42.5592 91.5172 42.5592C91.2759 42.5592 91.2759 42.5592 91.0345 42.5592L63.2759 77.9592C62.069 79.1633 59.8966 79.6449 58.4483 78.6816C57.9655 78.4408 57.7241 78.2 57.4828 77.9592L29.7241 42.5592C29.4828 42.5592 29.4828 42.5592 29.2414 42.5592L29 42.8V87.1102C29 88.7959 27.3103 90 25.3793 90C23.4483 90 22 88.7959 22 87.1102V34.1306C22 33.1673 22.7241 32.2041 23.4483 31.7224C25.1379 30.7592 27.069 31.2408 28.2759 32.4449L58.931 71.2163C59.6552 71.9388 60.6207 71.9388 61.3448 71.4571C61.3448 71.4571 61.5862 71.4571 61.5862 71.2163L92.2414 32.4449C92.9655 31.4816 94.1724 31 95.3793 31C97.3103 31 99 32.2041 99 33.8898L98.7586 86.8694Z" fill="url(#paint0_linear)"/>
<path d="M99 86.0452C99 87.4749 97.5615 88.9047 95.4038 88.9047C94.205 88.9047 93.0063 88.4281 92.2871 87.4749L62.0789 49.1101C61.3596 48.3952 60.4006 48.3952 59.6814 48.8718C59.6814 48.8718 59.4416 49.1101 59.2019 49.5867L29.2334 87.7132C28.0347 89.143 26.1167 89.3813 24.4385 88.4281C23.4795 87.9515 23 86.9984 23 86.0452V33.8595C23 32.1915 24.4385 31 26.3565 31C28.2744 31 29.9527 32.1915 29.9527 33.8595V77.705C29.9527 77.9433 29.9527 77.9433 30.1924 77.9433C30.4322 77.9433 30.4322 77.9433 30.6719 77.9433L57.5237 43.8677C57.7634 43.3911 58.7224 42.438 59.2019 42.1997C60.8801 41.2465 62.7981 41.4848 63.9968 42.9145L91.3281 77.9433C91.3281 77.9433 91.5678 77.9433 91.8076 77.9433C92.0473 77.9433 92.0473 77.705 92.0473 77.705V33.8595C92.0473 32.1915 93.4858 31 95.4038 31C97.3218 31 99 32.1915 99 33.8595V86.0452Z" fill="url(#paint1_linear)"/>
<defs>
<linearGradient id="paint0_linear" x1="98.7027" y1="89.8081" x2="98.7027" y2="31.2637" gradientUnits="userSpaceOnUse">
<stop stop-color="#3F5CAA"/>
<stop offset="0.2" stop-color="#3F5FAC"/>
<stop offset="0.33" stop-color="#4168B2"/>
<stop offset="0.46" stop-color="#4378BD"/>
<stop offset="0.57" stop-color="#468ECC"/>
<stop offset="0.64" stop-color="#48A0D9"/>
<stop offset="0.8" stop-color="#3ABBEC"/>
<stop offset="0.9" stop-color="#35C6F4"/>
</linearGradient>
<linearGradient id="paint1_linear" x1="99.0002" y1="89.0002" x2="99.0002" y2="31" gradientUnits="userSpaceOnUse">
<stop stop-color="#4068B1"/>
<stop offset="0.13" stop-color="#3D7FC1"/>
<stop offset="0.39" stop-color="#39A5DD"/>
<stop offset="0.59" stop-color="#36BDEE"/>
<stop offset="0.72" stop-color="#35C6F4"/>
</linearGradient>
</defs>
</svg>
