<svg width="120" height="120" viewBox="0 0 120 120" fill="none" xmlns="http://www.w3.org/2000/svg">
<circle cx="60" cy="60" r="60" fill="#610089"/>
<path fill-rule="evenodd" clip-rule="evenodd" d="M100.212 52.0643C96.3673 33.3085 80.703 20.0393 61.3489 19.0106C61.1413 19.0106 60.9336 19.0079 60.7259 19.0053C60.2809 18.9996 59.8359 18.994 59.3909 19.0143C57.497 19.1075 56.1388 20.4418 56.086 22.2347C56.0332 24.0461 57.2782 25.4737 59.157 25.6824C60.0188 25.7788 60.887 25.8424 61.7549 25.9059C63.3719 26.0244 64.9879 26.1428 66.5591 26.4726C82.6988 29.8831 93.8773 43.3685 94.2433 59.7201C94.2923 61.9416 95.6015 63.3729 97.601 63.3729C99.642 63.3766 101.117 61.8671 100.993 59.6307L100.987 59.5225C100.849 57.0269 100.71 54.5039 100.212 52.0643ZM18.9323 68.5278C22.456 86.5381 39.1616 100.448 57.7347 101C58.0355 100.98 58.34 100.974 58.6447 100.967H58.6449H58.645H58.6451H58.6453C59.3225 100.952 60.0009 100.937 60.6434 100.78C62.0884 100.426 63.0391 98.7599 62.8316 97.269C62.6128 95.6923 61.2999 94.5928 59.6625 94.425C58.9335 94.3483 58.2006 94.284 57.4673 94.2198L57.4659 94.2197L57.4657 94.2196C55.3153 94.0312 53.1611 93.8424 51.0909 93.3367C35.6982 89.587 24.9724 76.1016 24.697 60.4321C24.6819 59.6978 24.5197 58.8927 24.1801 58.2553C23.501 56.9992 21.9467 56.4364 20.6111 56.7793C19.0002 57.1893 17.8948 58.4193 18.008 60.1339C18.1928 62.9405 18.3965 65.7696 18.9323 68.5278ZM59.4399 45.0793C67.6532 45.0532 74.5497 51.7064 74.6063 59.709C74.6251 62.4672 72.0672 64.2041 69.7017 63.0151C68.419 62.374 67.8682 61.3005 67.8154 59.873C67.7339 55.8851 64.7622 52.5324 60.7717 51.9264C56.4255 51.1958 52.2001 54.1106 51.355 58.423C50.4911 62.8287 53.2829 67.1188 57.629 68.0469C58.2251 68.1737 58.8363 68.2445 59.4399 68.278C61.4621 68.3824 62.8807 69.7578 62.8656 71.6326C62.8505 73.5335 61.3301 74.9424 59.2702 74.9611C52.7962 75.017 46.6919 70.3504 44.9263 63.9991C42.2892 54.5131 49.5026 45.1091 59.4399 45.0793ZM87.8931 59.6838C87.907 59.4736 87.9204 59.2711 87.9428 59.0828C87.9055 58.735 87.8719 58.4018 87.8393 58.0784L87.8392 58.0781C87.7729 57.4207 87.7106 56.8037 87.6297 56.1867C85.8754 42.5559 73.7763 31.9704 59.9304 31.9443C57.629 31.9368 56.1124 33.2451 56.0935 35.2504C56.0785 37.2557 57.5838 38.5677 59.8512 38.6795C69.1245 39.1119 75.6626 43.5809 79.4844 51.9114C80.6389 54.4348 81.0954 57.1334 81.1218 59.914C81.1406 61.7403 82.3139 63.0747 83.9626 63.3431C85.5472 63.5965 87.1694 62.7243 87.6599 61.2185C87.8243 60.7208 87.8601 60.1808 87.8931 59.6838ZM31.1219 60.8011C30.9295 59.284 31.3219 57.7894 33.0762 56.9918C35.3851 55.9369 37.8034 57.5695 37.8487 60.2494C37.894 62.8175 38.3391 65.2887 39.2748 67.6817C42.3885 75.7793 50.1576 81.2059 58.9231 81.4056C61.8507 81.4801 63.5522 83.5749 62.6204 85.9529C62.0997 87.2947 60.9528 88.0737 59.3834 88.0588C51.0758 87.9843 44.0699 84.9092 38.4674 78.8822C33.8527 73.9535 31.2376 67.5179 31.1219 60.8048V60.8011ZM72.652 74.6182C73.9196 74.033 74.4969 72.9782 74.6365 71.312V71.3083C74.5906 71.2002 74.5476 71.0614 74.4998 70.9068C74.3743 70.5014 74.2151 69.9872 73.8819 69.631C72.1351 67.7711 70.3431 65.9447 68.4492 64.2376C67.1702 63.0784 65.0802 63.3356 63.9106 64.5768C62.7637 65.7956 62.6505 67.745 63.8201 68.9825C65.5173 70.781 67.2803 72.5179 69.1057 74.1895C70.113 75.1102 71.3919 75.1996 72.652 74.6182Z" fill="white"/>
</svg>
