<svg width="120" height="120" viewBox="0 0 120 120" fill="none" xmlns="http://www.w3.org/2000/svg">
<circle cx="60" cy="60" r="60" fill="#252525"/>
<path fill-rule="evenodd" clip-rule="evenodd" d="M96.6067 79.4088C97.387 79.4262 98.0082 80.0681 97.9998 80.8488V88H74.4536L74.3636 81.775C74.3663 81.3642 74.5486 80.9751 74.8624 80.71C74.9554 80.5903 75.061 80.4809 75.1774 80.3838C85.5536 73.1463 89.5398 59.365 84.7099 47.4438C79.8761 35.5225 67.5649 28.7762 55.2837 31.3187C43.0062 33.8575 34.1675 44.9837 34.1637 57.9062C34.1562 66.7375 38.3637 75.0063 45.4174 80.0125C45.571 80.0985 45.6962 80.2276 45.7774 80.3838C46.3005 80.628 46.6352 81.1527 46.6362 81.73L46.5462 87.955H23V80.8C23 80.005 23.6262 79.36 24.395 79.36C25.1637 79.36 25.79 80.005 25.79 80.8V85.12H43.7975L43.8425 82.4275H43.7975C33.4437 74.92 29 61.36 32.81 48.91C36.6312 36.46 47.8249 28 60.4812 28C73.1374 28 84.3311 36.46 88.1449 48.91C91.9586 61.36 87.5149 74.92 77.1574 82.4275L77.2061 85.165H95.2136V80.8488C95.2052 80.0681 95.8265 79.4262 96.6067 79.4088ZM96.6067 79.4088L96.6048 79.4087H96.6086L96.6067 79.4088ZM78.0124 59.9988C81.1174 63.9475 82.0624 67.4762 80.7124 69.7975C79.6774 71.6087 77.4724 72.5837 74.2736 72.5837C72.265 72.5348 70.27 72.2388 68.3336 71.7025C66.5787 77.8338 63.7399 81.7825 60.4999 81.7825C57.2599 81.7825 54.4249 77.8338 52.7112 71.7025C50.7748 72.2388 48.7799 72.5348 46.7712 72.5837C43.5725 72.5837 41.3675 71.6087 40.3325 69.7975C38.6675 66.9175 40.5575 62.4137 44.8775 57.8162C44.2242 57.1377 43.6083 56.4241 43.0325 55.6788C39.9275 51.73 38.9825 48.2463 40.3325 45.8312C41.3675 44.02 43.5725 43.045 46.7712 43.045C48.78 43.0952 50.775 43.3924 52.7112 43.93C54.4662 37.7987 57.3049 33.85 60.5449 33.85C63.7849 33.85 66.6199 37.7987 68.3336 43.975C70.27 43.4387 72.265 43.1427 74.2736 43.0938C77.4724 43.0938 79.6774 44.0688 80.7124 45.88C82.0624 48.295 81.1174 51.7788 78.0124 55.7275C77.436 56.4724 76.8201 57.186 76.1674 57.865C76.8199 58.54 77.4349 59.2525 78.0124 59.9988ZM68.7836 45.5988C70.5942 45.1341 72.4503 44.87 74.3186 44.8113C76.0774 44.8113 78.3724 45.1375 79.2274 46.7163C80.1724 48.4338 79.2274 51.265 76.6624 54.565C76.1224 55.2138 75.5374 55.9113 74.9074 56.5638C73.2949 55.03 71.5961 53.6012 69.8186 52.2887C69.6086 50.0387 69.2674 47.8038 68.7836 45.5988ZM64.4187 64.8288C65.7237 64.0413 66.9837 63.205 68.1536 62.3688C68.2887 60.88 68.3336 59.395 68.3336 57.8162C68.3336 56.2375 68.2436 54.7038 68.1536 53.2638C66.9384 52.4118 65.6912 51.6062 64.4149 50.8488C63.1294 50.1165 61.8239 49.42 60.4999 48.76C59.1574 49.3825 57.8524 50.08 56.5849 50.8488C55.2349 51.6362 54.0162 52.4275 52.8462 53.2638C52.7112 54.7038 52.6662 56.2375 52.6662 57.8162C52.6662 59.3913 52.7562 60.9287 52.8462 62.3688C55.2787 64.0764 57.8373 65.597 60.4999 66.9175C61.8424 66.295 63.1474 65.5975 64.4149 64.8288H64.4187ZM66.5652 65.5763L66.5654 65.5762L66.5656 65.5761L66.5658 65.5759L66.566 65.5758L66.5662 65.5757L66.5664 65.5756L66.5666 65.5754L66.5667 65.5753L66.5669 65.5752L66.5671 65.5751C67.0323 65.2794 67.4966 64.9841 67.9737 64.69C67.7487 66.4525 67.4787 68.08 67.1637 69.6137C65.6149 69.1337 64.0962 68.56 62.6187 67.8925C63.5187 67.4312 64.4187 66.9175 65.3187 66.3625C65.741 66.1003 66.1534 65.8381 66.5652 65.5763ZM58.4749 67.8925L55.7749 66.3625C54.8749 65.8037 53.9749 65.245 53.1162 64.69C53.2774 66.3475 53.5474 67.99 53.9262 69.6137C55.4712 69.1262 56.9899 68.5525 58.4749 67.8925ZM51.0012 57.8162C51.0074 58.8843 51.0374 59.9521 51.0912 61.0187C49.7899 60.025 48.5412 58.9525 47.3562 57.8162C48.5337 56.6688 49.7824 55.6 51.0912 54.61L51.0861 54.73V54.73V54.73V54.73V54.73V54.73C51.0429 55.7557 51.0012 56.7443 51.0012 57.8162ZM53.1162 51.0362C53.9621 50.4421 54.8329 49.8841 55.7262 49.3637C56.6749 48.805 57.5749 48.295 58.4749 47.83C56.9937 47.1625 55.4749 46.5925 53.9262 46.1125C53.6112 47.6425 53.3412 49.27 53.1162 51.0362ZM65.2699 49.3637C64.3699 48.805 63.4699 48.295 62.5699 47.83C64.0549 47.17 65.5737 46.6 67.1187 46.1125C67.4985 47.7338 67.7691 49.3787 67.9286 51.0362C67.0699 50.4775 66.1699 49.9187 65.2699 49.3637ZM69.9986 54.655L69.9988 54.6589L69.9986 54.6588V54.655ZM69.9988 54.6589C71.2987 55.643 72.5314 56.7128 73.6886 57.8612C72.5636 58.93 71.3036 59.9988 69.9986 61.0675C70.0436 60.0438 70.0886 58.975 70.0886 57.8612C70.0886 56.7956 70.0474 55.8158 70.0045 54.7937V54.7936V54.7936V54.7936V54.7935V54.7934V54.7934L69.9988 54.6589ZM54.3762 44.3913C55.9099 38.8675 58.2499 35.6163 60.5449 35.6163C62.7949 35.6163 65.1799 38.8675 66.7137 44.395C64.6058 45.0583 62.5449 45.8626 60.5449 46.8025C58.5424 45.8612 56.4837 45.055 54.3762 44.3913ZM41.8625 46.7163C40.8725 48.4338 41.8175 51.3138 44.4275 54.5163C44.9675 55.21 45.5525 55.8588 46.1824 56.5563C47.7874 55.0188 49.4824 53.5938 51.2712 52.2887C51.4774 50.0387 51.8224 47.8038 52.3062 45.6025C50.4987 45.115 48.6387 44.8525 46.7712 44.8113C45.0125 44.8113 42.7625 45.1375 41.8625 46.7163ZM52.3062 70.0263C50.5024 70.5475 48.6424 70.8288 46.7712 70.8662C45.0125 70.8662 42.7175 70.54 41.8625 68.9613C40.7375 66.9175 42.2675 63.205 46.1374 59.0688C47.7462 60.625 49.4599 62.0537 51.2712 63.3438C51.4779 65.5905 51.8236 67.8223 52.3062 70.0263ZM60.5449 80.0612C62.7949 80.0612 65.1799 76.81 66.7137 71.2863C64.6056 70.6205 62.5447 69.8137 60.5449 68.8713C58.5444 69.8119 56.4836 70.6186 54.3762 71.2863C55.9099 76.81 58.2949 80.0612 60.5449 80.0612ZM76.6624 61.1125C79.2274 64.4125 80.1724 67.2887 79.2274 68.9613C78.3274 70.54 76.0774 70.8662 74.3186 70.8662C72.4511 70.8288 70.5911 70.5625 68.7836 70.0788C69.2669 67.8736 69.6126 65.6406 69.8186 63.3925C71.6074 62.08 73.3024 60.655 74.9074 59.1175C75.5175 59.7599 76.103 60.4254 76.6624 61.1125ZM60.5449 51.0362C64.1824 51.0362 67.1374 54.0625 67.1637 57.8162C67.1637 61.555 64.2274 64.5887 60.6049 64.5962C56.9824 64.6037 54.0349 61.585 54.0162 57.8462C54.0012 54.1075 56.9224 51.0587 60.5449 51.0362ZM65.4087 57.8612C65.3862 60.625 63.2224 62.8563 60.5449 62.8787C57.8599 62.8787 55.6812 60.6325 55.6812 57.8612C55.6812 55.09 57.8562 52.8475 60.5449 52.8475C63.2337 52.8475 65.4087 55.09 65.4087 57.8612Z" fill="white"/>
</svg>
