<svg width="120" height="120" viewBox="0 0 120 120" fill="none" xmlns="http://www.w3.org/2000/svg">
<circle cx="60" cy="60" r="60" fill="#2A2A2A"/>
<path fill-rule="evenodd" clip-rule="evenodd" d="M67.5713 23.0224H37C37.1991 23.1322 37.4088 23.2207 37.6186 23.3092C37.7385 23.3598 37.8583 23.4104 37.9762 23.4649C43.8183 26.0224 49.4268 29.1874 54.4095 33.1962C58.9852 36.875 63.0106 41.3037 65.894 46.4375C68.5889 51.23 70.3001 56.6412 70.4622 62.1575C70.4836 62.9384 70.4559 63.72 70.3792 64.4975H85.9645C86.1907 58.6475 85.3313 52.76 83.5146 47.195C81.7758 41.9281 79.2717 36.9428 76.0819 32.3974C73.8369 29.1472 71.252 26.1429 68.3703 23.4349C68.3116 23.3893 68.256 23.3348 68.2002 23.2801C68.0267 23.1098 67.8508 22.9373 67.5713 23.0224ZM63.9755 78.7475C58.7639 69.3265 53.5437 59.9102 48.3149 50.4987H48.3073V98C51.3337 96.0691 54.3568 94.1308 57.3801 92.1924C60.833 89.9786 64.2861 87.7646 67.7446 85.5612C66.9622 84.1293 66.1693 82.7018 65.3763 81.2741C64.9087 80.4323 64.4411 79.5904 63.9755 78.7475Z" fill="white"/>
</svg>
