<svg width="120" height="120" viewBox="0 0 120 120" fill="none" xmlns="http://www.w3.org/2000/svg">
<g clip-path="url(#clip0)">
<path d="M118.191 74.5143C110.178 106.657 77.6222 126.219 45.4752 118.204C13.3417 110.19 -6.22004 77.6324 1.79691 45.4918C9.80683 13.3451 42.3626 -6.21803 74.4997 1.79541C106.644 9.80884 126.205 42.3702 118.191 74.5149L118.191 74.5143H118.191Z" fill="#B2B8C0"/>
<path fill-rule="evenodd" clip-rule="evenodd" d="M86.4506 51.4515C87.6448 43.4668 81.5658 39.1747 73.2532 36.3115L75.9499 25.4955L69.3659 23.8549L66.7408 34.3861C65.0099 33.9544 63.2323 33.5477 61.4656 33.1444L64.1098 22.5437L57.5299 20.9031L54.8318 31.7156C53.3994 31.3894 51.9926 31.0671 50.6277 30.7275L50.6353 30.6935L41.5558 28.4262L39.8044 35.4583C39.8044 35.4583 44.6892 36.5781 44.5862 36.647C47.2524 37.3124 47.7345 39.0773 47.6545 40.4763L44.5827 52.7982C44.7663 52.8448 45.0044 52.9123 45.2672 53.0179L45.0762 52.9702L45.076 52.9701C44.9135 52.9295 44.7447 52.8872 44.5713 52.8457L40.2657 70.107C39.9399 70.917 39.1128 72.1326 37.2488 71.671C37.3148 71.7666 32.4634 70.4768 32.4634 70.4768L29.1946 78.0134L37.7626 80.1493C38.7008 80.3846 39.6279 80.6262 40.5457 80.8655L40.5475 80.866C41.1883 81.033 41.8245 81.1989 42.4567 81.3605L39.7322 92.3005L46.3086 93.9411L49.0067 83.1172C50.8033 83.6049 52.5469 84.0548 54.2537 84.4789L51.5647 95.2517L58.149 96.8923L60.8732 85.9728C72.1003 88.0976 80.5423 87.2409 84.0956 77.086C86.9588 68.9101 83.953 64.1943 78.0465 61.119C82.3485 60.1268 85.5889 57.2973 86.4529 51.4524L86.4509 51.4509L86.4506 51.4515ZM71.4076 72.5455C69.5408 80.0467 57.7995 76.9455 52.4274 75.5266C51.9442 75.399 51.5125 75.285 51.1441 75.1935L54.7596 60.6999C55.2085 60.812 55.757 60.9351 56.3785 61.0745L56.3786 61.0745C61.9353 62.3216 73.3203 64.8766 71.4079 72.5455H71.4076ZM57.4932 54.3478C61.9719 55.5431 71.7423 58.1506 73.4438 51.333H73.4444C75.1819 44.3603 65.6868 42.2581 61.0494 41.2314C60.5277 41.1159 60.0674 41.014 59.6916 40.9203L56.4137 54.0651C56.7232 54.1423 57.0863 54.2392 57.4932 54.3478Z" fill="white"/>
</g>
<defs>
<clipPath id="clip0">
<rect width="119.986" height="120" fill="white"/>
</clipPath>
</defs>
</svg>
