<svg width="120" height="120" viewBox="0 0 120 120" fill="none" xmlns="http://www.w3.org/2000/svg">
<circle cx="60" cy="60" r="60" fill="#0E0E21"/>
<path d="M93.7351 73.5497L86.6388 61.4664C86.3898 60.9682 85.7673 60.8436 85.3938 61.2173L80.7874 64.207C80.4139 64.4561 80.2894 65.079 80.5384 65.4527L84.6468 72.304C84.7713 72.5532 84.6468 72.8023 84.5223 72.9269L60.6189 88.3735C60.4944 88.4981 60.2455 88.4981 60.121 88.3735L36.4666 72.9269C36.2176 72.8023 36.2176 72.5532 36.3421 72.304L40.4505 65.4527C40.6995 65.079 40.575 64.4561 40.2015 64.207L35.5951 61.2173C35.0971 60.9682 34.5991 61.0927 34.3501 61.4664L27.2538 73.5497C26.7558 74.4217 27.0048 75.5428 27.8763 76.0411L59.623 96.7197C60.2455 97.0934 60.9924 97.0934 61.6149 96.7197L93.3616 76.0411C93.9841 75.4183 94.2331 74.2971 93.7351 73.5497Z" fill="white"/>
<path d="M38.3778 54.7679L42.975 57.781C43.472 58.0321 43.969 57.9065 44.2175 57.5299L59.1273 31.9182C59.2515 31.6671 59.7485 31.6671 59.8727 31.9182L74.7825 57.5299C75.031 58.0321 75.6523 58.1576 76.025 57.781L80.6222 54.7679C80.995 54.5168 81.1192 53.889 80.8707 53.5124L63.3517 22.8788C62.979 22.2511 62.482 22 61.7365 22H57.512C56.8908 22 56.2695 22.3766 55.8968 22.8788L38.1293 53.5124C37.8808 53.889 38.005 54.5168 38.3778 54.7679Z" fill="#2AE7A8"/>
</svg>
