<svg width="120" height="120" viewBox="0 0 120 120" fill="none" xmlns="http://www.w3.org/2000/svg">
<circle cx="60" cy="60" r="60" fill="#EDF0F4"/>
<path d="M70.7043 63.8312L87.1529 47.4336C88.3873 46.2039 89.0794 44.5322 89.0755 42.7898L89.1033 29.5362C89.1018 28.8562 88.8391 28.2029 88.3696 27.7111L56.8145 59.1966C55.5758 60.4244 54.8789 62.0963 54.8789 63.8404C54.8789 65.5846 55.5758 67.2565 56.8145 68.4843L79.0633 90.6634C80.7224 92.3142 83.1361 92.9545 85.3953 92.3431C87.6545 91.7317 89.4159 89.9615 90.016 87.6992C90.6161 85.437 89.9637 83.0265 88.3046 81.3757L70.7043 63.8312Z" fill="#008C62"/>
<path d="M86.5304 27.0006H36.9663C32.9587 27.0006 30.0005 30.0284 30.0005 34.1615V85.871C29.9778 87.646 30.6733 89.355 31.929 90.6098C33.1847 91.8646 34.8941 92.5589 36.6691 92.5349C38.4457 92.5654 40.1585 91.8731 41.4149 90.6167C42.6713 89.3603 43.3636 87.6475 43.3331 85.871V39.7573H76.3046L88.3786 27.7436C87.89 27.2537 87.2221 26.9852 86.5304 27.0006Z" fill="#00E6A0"/>
</svg>
