<svg width="120" height="120" viewBox="0 0 120 120" fill="none" xmlns="http://www.w3.org/2000/svg">
<path d="M60 0C93.1371 0 120 26.8629 120 60C120 93.1371 93.1371 120 60 120C26.8629 120 0 93.1371 0 60C0 26.8629 26.8629 0 60 0Z" fill="black"/>
<path d="M31.1829 48.9806C31.1829 49.4298 31.632 49.8789 32.0811 49.8789H42.9943V55.4263H32.0811C31.632 55.4263 31.1829 55.8755 31.1829 56.3246V65.472C31.1829 65.9212 31.632 66.3703 32.0811 66.3703H42.9943V88.2652C42.9943 88.7143 43.2926 89.016 43.7417 89.016H54.2091C54.6583 89.016 54.9566 88.7178 54.9566 88.2652V67.5772C54.9566 67.128 55.2549 66.8263 55.704 66.8263H64.08C64.3783 66.8263 64.6766 66.9772 64.8274 67.2755L74.0983 88.7212C74.2491 89.0195 74.5474 89.1703 74.8457 89.1703H86.0606C86.6572 89.1703 86.9589 88.5703 86.808 88.1212L77.5371 67.1246C77.3863 66.6755 77.5371 66.2263 77.9863 66.0755C82.4709 64.4263 85.3131 60.3772 85.3131 54.9772V41.4789C85.3131 34.5806 79.632 28.8823 72.7509 28.8823H43.7417C43.2926 28.8823 42.9943 29.184 42.9943 29.6332V38.9315H32.0811C31.632 38.9315 31.1829 39.3806 31.1829 39.8298V48.9806Z" fill="white"/>
<path d="M54.9565 41.0298C54.9565 40.5806 55.2548 40.2789 55.704 40.2789H69.7611C71.7051 40.2789 73.3508 41.9281 73.3508 43.8789V51.9772C73.3508 53.9281 71.7051 55.5772 69.7611 55.5772H55.704C55.2548 55.5772 54.9565 55.2755 54.9565 54.8264V41.0298Z" fill="black"/>
</svg>
