<svg width="120" height="120" viewBox="0 0 120 120" fill="none" xmlns="http://www.w3.org/2000/svg">
<path d="M60 120C93.138 120 120 93.138 120 60C120 26.862 93.138 0 60 0C26.862 0 0 26.862 0 60C0 93.138 26.862 120 60 120Z" fill="#EDF0F4"/>
<path d="M52.6945 51.2637V24.6277C52.6945 24.6277 44.0625 28.9191 44.0625 38.0444C44.0625 47.1696 52.6945 51.2637 52.6945 51.2637Z" fill="#006E3C"/>
<path d="M52.6946 24.6277C52.6946 24.6277 61.3266 28.9191 61.3266 38.0444C61.3266 47.1696 52.6946 51.2637 52.6946 51.2637V24.6277Z" fill="#00B43C"/>
<path d="M72.77 63.7431L84.6082 57.0348C84.6082 57.0348 80.5142 54.2726 76.4695 56.5909C72.4248 58.9092 72.77 63.7431 72.77 63.7431Z" fill="#006E3C"/>
<path d="M84.6082 57.0348C84.6082 57.0348 84.8548 61.9674 80.8101 64.2364C76.7654 66.5547 72.77 63.7431 72.77 63.7431L84.6082 57.0348Z" fill="#00B43C"/>
<path fill-rule="evenodd" clip-rule="evenodd" d="M85.1792 55.9389L85.2002 55.9496L85.8907 56.3936V57.1335C85.8907 57.3308 85.6441 63.0032 81.4514 65.4202C80.169 66.1601 78.8372 66.4067 77.604 66.4067C75.5816 66.4067 73.7566 65.7161 72.8687 65.2722L71.2903 66.1601C71.3396 66.456 71.389 66.8013 71.389 67.1466C71.389 69.1196 70.0572 70.7474 68.2814 71.29V79.8727C70.0572 80.3659 71.389 82.043 71.389 84.016C71.389 86.433 69.4159 88.3567 67.0483 88.3567C65.7658 88.3567 64.6313 87.8141 63.8421 86.9262L56.8872 90.9216C56.9858 91.2669 57.0352 91.6122 57.0352 91.9575C57.0352 94.3251 55.0621 96.2488 52.6945 96.2488C50.2775 96.2488 48.3538 94.3251 48.3538 91.9575C48.3538 91.6122 48.4031 91.2669 48.5018 90.9216L41.5468 86.9262C40.7576 87.8141 39.6231 88.3567 38.3407 88.3567C35.9237 88.3567 34 86.3837 34 84.016C34 82.043 35.3318 80.4152 37.1075 79.8727V71.29C35.3318 70.7967 34 69.1196 34 67.1466C34 64.7296 35.973 62.8059 38.3407 62.8059C39.5245 62.8059 40.5603 63.2992 41.3495 64.0391L48.5018 59.8957C48.4031 59.5504 48.3538 59.2051 48.3538 58.8599C48.3538 56.8868 49.6363 55.2098 51.4613 54.7165V52.1515C49.3897 50.7704 42.78 45.9365 42.78 38.1923C42.78 29.2151 51.6586 23.6412 52.0532 23.3946L52.6945 23L53.3357 23.3946C53.7303 23.6412 62.609 29.2151 62.609 38.1923C62.609 45.9365 55.9993 50.8198 53.9276 52.1515V54.7165C55.7034 55.2098 57.0352 56.8868 57.0352 58.8599C57.0352 59.2051 56.9858 59.5504 56.8872 59.8957L63.9901 64.0391C64.7793 63.2499 65.8151 62.8059 66.999 62.8059C68.1828 62.8059 69.2186 63.2992 70.0078 64.0391L71.5863 63.1512C71.7342 61.5235 72.3755 57.6267 75.779 55.6537C79.924 53.2437 84.7756 55.7319 85.1792 55.9389ZM67.0483 69.021C67.4922 69.021 67.8868 68.873 68.2321 68.6264C68.5774 68.3304 68.824 67.9358 68.8733 67.3439C68.9227 67.2452 68.9227 67.1466 68.9227 67.0479C68.9227 66.2587 68.4294 65.5682 67.7388 65.2722C67.5415 65.1736 67.2456 65.1242 66.999 65.1242C66.7523 65.1242 66.5057 65.1736 66.3084 65.2722C65.6672 65.5188 65.2232 66.1107 65.1246 66.8013V67.0479V67.3439C65.2232 67.8372 65.4699 68.2811 65.8645 68.577C66.0124 68.725 66.1604 68.8237 66.3577 68.873C66.6044 68.9716 66.8017 69.021 67.0483 69.021ZM68.9227 84.016C68.9227 85.1012 68.0348 85.9397 66.999 85.9397C66.6537 85.9397 66.2591 85.8411 66.0124 85.6438C65.4699 85.2985 65.0753 84.7066 65.0753 84.016V83.9667C65.0753 83.7694 65.1246 83.5721 65.1739 83.3748C65.2726 83.0295 65.5192 82.7335 65.8151 82.4869C66.0618 82.2896 66.3577 82.1416 66.6537 82.0923C66.698 82.0923 66.7424 82.0823 66.7912 82.0714C66.851 82.0579 66.9175 82.043 66.999 82.043C67.4429 82.043 67.8868 82.191 68.1828 82.4376C68.676 82.8322 68.9227 83.3748 68.9227 84.016ZM64.2367 80.7112C64.6806 80.3166 65.2232 80.0206 65.8151 79.8727V71.29C65.1246 71.0927 64.5327 70.7474 64.0394 70.2541L56.8378 74.4468C56.9858 74.7921 57.0352 75.236 57.0352 75.6306C57.0352 75.889 56.9976 76.1098 56.9552 76.3585L56.9552 76.3586L56.9365 76.4692L64.2367 80.7112ZM52.6945 93.8812C51.708 93.8812 50.9188 93.1906 50.7708 92.2534V91.9575C50.7708 91.1683 51.264 90.4777 51.9546 90.1817C52.2012 90.0831 52.4478 90.0338 52.6945 90.0338C52.9411 90.0338 53.1877 90.0831 53.4344 90.1817C54.1249 90.4777 54.6182 91.1683 54.6182 91.9575V92.2534C54.4702 93.1413 53.6317 93.8812 52.6945 93.8812ZM41.1522 80.7112L48.4525 76.4692C48.4031 76.2225 48.3538 75.9266 48.3538 75.6306C48.3538 75.1867 48.4525 74.7921 48.5511 74.3975L41.3495 70.2541C40.8563 70.7474 40.2644 71.0927 39.5738 71.29V79.8727C40.1657 80.0206 40.7083 80.3166 41.1522 80.7112ZM40.3137 84.016C40.3137 84.7066 39.9684 85.2985 39.3765 85.6438C39.0806 85.8411 38.7353 85.9397 38.39 85.9397C37.3048 85.9397 36.4663 85.0519 36.4663 84.016C36.4663 83.4241 36.7622 82.8322 37.2062 82.4869C37.5515 82.2403 37.9461 82.0923 38.39 82.0923C38.4886 82.0923 38.6366 82.0923 38.7353 82.1416C39.0806 82.191 39.3272 82.3389 39.5738 82.5362C39.8698 82.7335 40.0671 83.0788 40.2151 83.4241C40.2644 83.6214 40.3137 83.8187 40.3137 84.016ZM38.3407 65.2229C37.3048 65.2229 36.417 66.0614 36.417 67.1466C36.417 67.7385 36.7129 68.2811 37.1075 68.7743C37.4035 69.021 37.8474 69.1689 38.2913 69.1689C38.538 69.1689 38.7846 69.1196 38.9819 69.021C39.1792 68.9223 39.3272 68.8237 39.4752 68.725C39.8698 68.4291 40.1657 67.9851 40.2151 67.4919V67.1959V66.9C40.1164 66.2094 39.6725 65.6175 39.0312 65.3709C38.8339 65.2722 38.5873 65.2229 38.3407 65.2229ZM51.5107 57.3308C51.8559 57.0841 52.2505 56.9362 52.6945 56.9362C53.1384 56.9362 53.5823 57.0841 53.8783 57.3308C54.2729 57.6267 54.5195 58.0706 54.5689 58.5639V58.8599C54.5689 59.4518 54.2729 60.0437 53.829 60.389C53.681 60.4876 53.533 60.5863 53.3357 60.6849C53.1384 60.7836 52.8918 60.8329 52.6452 60.8329C52.3985 60.8329 52.1519 60.7836 51.9546 60.6849C51.7573 60.6356 51.6093 60.5369 51.4613 60.389C51.0174 60.0437 50.7214 59.5011 50.7214 58.8599V58.5639C50.8694 58.0706 51.1161 57.6267 51.5107 57.3308ZM53.8783 77.1104C54.3222 76.7651 54.6182 76.2719 54.6182 75.68C54.6182 75.68 54.6182 75.6306 54.5195 75.5813C54.5195 75.384 54.5195 75.1867 54.4702 75.0387C54.3716 74.6441 54.1249 74.2988 53.829 74.0522C53.6317 73.9042 53.385 73.7563 53.1384 73.7069C52.9904 73.6576 52.8425 73.6576 52.6452 73.6576C52.4478 73.6576 52.2999 73.6576 52.1519 73.7069C51.8559 73.7563 51.6093 73.9042 51.412 74.0522C51.1161 74.3482 50.8694 74.6934 50.7708 75.088C50.7214 75.236 50.7214 75.384 50.7214 75.5813V75.6306C50.7214 76.2225 51.0174 76.7651 51.4613 77.1104C51.56 77.2091 51.6586 77.2584 51.7573 77.3077C52.0039 77.4557 52.2999 77.5543 52.6452 77.5543C52.9904 77.5543 53.2864 77.4557 53.5823 77.3077C53.6317 77.283 53.681 77.2461 53.7303 77.2091C53.7797 77.1721 53.829 77.1351 53.8783 77.1104ZM62.8063 66.1108C62.7076 66.456 62.6583 66.8013 62.6583 67.1466C62.6583 67.4919 62.7076 67.8865 62.8063 68.2318L55.5554 72.4245C55.0621 71.9805 54.5195 71.6846 53.8783 71.4873V63.0032C54.5689 62.8059 55.1608 62.4606 55.654 61.9674L62.8063 66.1108ZM52.6945 25.9102C50.7708 27.2913 45.197 31.8786 45.197 38.2417C45.197 43.5689 49.0937 47.4163 51.5107 49.2413V39.1789C51.5107 38.5376 52.0039 37.995 52.6945 37.995C53.3357 37.995 53.8783 38.5376 53.8783 39.1789V49.2413C56.2459 47.4163 60.192 43.5689 60.192 38.2417C60.192 31.8786 54.6182 27.2913 52.6945 25.9102ZM49.6856 61.9674C50.1789 62.4606 50.8201 62.8059 51.4613 63.0032V71.4873C50.8201 71.6846 50.2775 71.9805 49.7843 72.3751L42.484 68.1824C42.5827 67.8372 42.632 67.4919 42.632 67.1466C42.632 66.8013 42.5827 66.456 42.484 66.1108L49.6856 61.9674ZM42.6813 84.016C42.6813 84.2626 42.6813 84.5093 42.632 84.7559L49.6856 88.8499C50.2282 88.3567 50.8201 88.0114 51.5107 87.8141V79.774C50.7708 79.5274 50.0802 79.1328 49.587 78.5902L42.484 82.6842C42.632 83.1282 42.6813 83.5721 42.6813 84.016ZM55.7034 88.8499C55.2101 88.3567 54.5689 88.0114 53.8783 87.8141V79.774C54.6182 79.5767 55.3087 79.1328 55.802 78.5902L62.9049 82.6842C62.7569 83.0788 62.7076 83.5228 62.7076 84.016C62.7076 84.2626 62.7076 84.5093 62.7569 84.7559L55.7034 88.8499ZM75.4337 63.6938C76.8148 64.0391 78.5905 64.187 80.169 63.2992C82.4873 61.9674 83.1285 59.1065 83.3258 57.7747C82.0433 57.2321 79.2318 56.3936 76.9628 57.7254C75.3843 58.6626 74.5951 60.2903 74.2499 61.6221L76.6175 60.241C77.2094 59.8957 77.9 60.093 78.2452 60.6849C78.5905 61.2768 78.3932 61.9674 77.8013 62.3127L75.4337 63.6938Z" fill="black"/>
</svg>
