<svg width="120" height="120" viewBox="0 0 120 120" fill="none" xmlns="http://www.w3.org/2000/svg">
<path d="M60 120C93.048 120 120 93.048 120 60C120 26.958 93.048 0 60 0C26.958 0 1.00136e-06 26.958 1.00136e-06 60C-0.005999 93.048 26.952 120 60 120Z" fill="black"/>
<path fill-rule="evenodd" clip-rule="evenodd" d="M44.6099 28.902H53.2499C53.5799 28.902 53.8439 29.172 53.8439 29.502V42.126C53.8439 42.462 54.1139 42.726 54.4439 42.726H65.5379C65.8679 42.726 66.1379 42.462 66.1379 42.126V29.502C66.1379 29.172 66.4019 28.902 66.7379 28.902H75.3719C75.7019 28.902 75.9719 29.172 75.9719 29.502V42.126C75.9719 42.462 76.2359 42.726 76.5719 42.726H87.1319C87.4679 42.726 87.7319 42.996 87.7319 43.326V51.942C87.7319 52.278 87.4679 52.542 87.1319 52.542H76.5719C76.2359 52.542 75.9719 52.812 75.9719 53.142V66.552C75.9719 66.882 76.2359 67.152 76.5719 67.152H87.1319C87.4679 67.152 87.7319 67.416 87.7319 67.752V76.368C87.7319 76.698 87.4679 76.968 87.1319 76.968H76.5719C76.2359 76.968 75.9719 77.238 75.9719 77.568V90.192C75.9719 90.522 75.7019 90.792 75.3719 90.792H66.7379C66.4019 90.792 66.1379 90.522 66.1379 90.192V77.568C66.1379 77.232 65.8679 76.968 65.5379 76.968H54.4499C54.1199 76.968 53.8499 77.238 53.8499 77.568V90.192C53.8499 90.522 53.5859 90.792 53.2559 90.792H44.6159C44.2859 90.792 44.0159 90.522 44.0159 90.192V77.568C44.0159 77.232 43.7519 76.968 43.4159 76.968H32.8559C32.5199 76.968 32.2559 76.698 32.2559 76.368V67.752C32.2559 67.416 32.5199 67.152 32.8559 67.152H43.4159C43.7519 67.152 44.0159 66.882 44.0159 66.552V53.142C44.0159 52.812 43.7519 52.542 43.4159 52.542H32.8559C32.5199 52.542 32.2559 52.278 32.2559 51.942V43.326C32.2559 42.996 32.5199 42.726 32.8559 42.726H43.4159C43.7519 42.726 44.0159 42.462 44.0159 42.126V29.502C44.0039 29.172 44.2799 28.902 44.6099 28.902ZM66.1439 66.558V53.142C66.1439 52.812 65.8739 52.542 65.5439 52.542H54.4499C54.1199 52.542 53.8499 52.812 53.8499 53.142V66.552C53.8499 66.882 54.1199 67.152 54.4499 67.152H65.5439C65.8739 67.158 66.1439 66.882 66.1439 66.558Z" fill="white"/>
</svg>
