<svg width="120" height="120" viewBox="0 0 120 120" fill="none" xmlns="http://www.w3.org/2000/svg">
<circle cx="60" cy="60" r="60" fill="#EDF0F4"/>
<path d="M60.7973 68.8595C61.3453 72.79 60.8792 77.1173 64.3058 80.6446C66.3088 82.7043 65.5214 85.8789 63.4176 87.6804C61.2842 89.5704 58.0868 89.6079 55.9095 87.7685C53.6545 85.8789 52.7601 82.6287 54.8261 80.4934C58.2148 76.9535 57.9062 72.6892 58.3093 68.469C58.4101 67.436 58.9392 66.0629 57.2322 65.6408C55.6764 65.2566 54.4985 63.2788 52.4703 64.9669C49.1571 67.7195 44.9936 69.376 43.5953 74.2324C42.7387 77.1866 39.2554 78.1251 36.4903 77.0165C33.9229 76.0824 32.387 73.4501 32.8369 70.7555C33.3912 67.732 36.1438 65.1936 39.1798 65.9684C43.7087 67.1211 47.0848 64.8598 50.7822 63.241C51.5696 62.8946 53.1317 62.6111 52.6215 61.5403C51.7649 59.783 53.3207 57.2193 51.0027 56.1611C47.3683 54.5046 44.0362 52.0039 39.4633 53.2952C36.3139 54.177 33.5676 51.878 32.9377 48.8293C32.3073 45.8088 34.082 42.8055 37.032 41.9007C39.9672 41.0755 43.3308 42.4927 44.074 45.6107C45.233 50.2844 49.4973 51.437 52.5081 54.0133C52.716 54.1896 53.2325 54.3408 53.3459 54.2337C54.719 52.9173 56.4449 52.1236 57.944 51.0339C58.9203 50.3222 58.177 48.6656 58.0637 47.4436C57.7928 44.3446 57.522 41.3653 55.0654 38.8142C52.8545 36.5215 53.434 33.202 55.6953 31.2179C57.9172 29.2211 61.3024 29.2733 63.4617 31.3376C65.6474 33.3784 66.0694 36.6286 63.89 38.978C61.9437 41.0755 61.3201 43.3872 61.0115 46.0516C60.4257 50.8827 60.9422 51.9032 65.3514 53.9188C65.7671 54.114 66.1261 54.2778 66.4852 53.9818C69.4645 51.5063 73.628 50.404 74.8563 45.9256C75.579 42.8866 78.624 41.005 81.6653 41.718C81.8571 41.7621 82.0463 41.8168 82.2322 41.8818C84.9847 42.7888 86.6413 45.9634 85.9548 49.0057C85.3564 51.9881 82.4572 53.9237 79.4733 53.333C79.2969 53.2952 79.1206 53.2511 78.9505 53.2007C74.3209 51.8024 71.0203 54.599 67.556 56.4068C65.8238 57.3012 66.8631 60.0412 66.1765 61.8868C65.7923 62.9261 67.5874 63.1465 68.463 63.5496C72.1226 65.2818 75.5806 67.2344 80.0843 66.0692C82.9754 65.3133 85.6272 67.9588 86.0303 70.8751C86.5018 73.5833 84.9218 76.229 82.314 77.0984C79.4985 78.0936 76.1979 77.0165 75.3476 73.949C73.9492 68.9099 69.5905 67.2722 66.0505 64.6834C64.1672 63.3418 60.6903 66.0566 60.7973 68.8595Z" fill="#09CBCD"/>
<path d="M63.342 16L95.4659 34.5059C90.0048 38.7198 88.9403 38.7954 83.4981 35.646C78.2449 32.6015 72.9959 29.5697 67.7511 26.5505C62.8318 23.716 62.1641 22.1602 63.342 16Z" fill="#09CBCD"/>
<path d="M23.5337 84.5373C27.5838 80.9155 31.2623 80.3486 35.6967 83.3783C40.5342 86.6789 45.7748 89.337 50.8831 92.2911C56.1615 95.3523 56.6402 96.4168 55.6009 103.062L23.5337 84.5373Z" fill="#09CBCD"/>
<path d="M23.647 34.4807L55.6449 16C56.8354 22.2295 56.2244 23.653 51.2357 26.5316C46.0707 29.5298 40.7104 32.2446 35.7785 35.5893C31.4008 38.5686 27.7034 38.1718 23.647 34.4807Z" fill="#09CBCD"/>
<path d="M95.3779 84.3609L63.4618 103.012C62.158 97.0592 62.8824 95.3649 67.7639 92.5367C73.0234 89.4944 78.4719 86.7103 83.5109 83.3278C87.75 80.4556 91.3592 80.739 95.3779 84.3609Z" fill="#09CBCD"/>
<path d="M20 40.8866C25.2343 42.3857 27.2814 45.4658 26.9287 50.7505C26.5004 56.6903 26.8342 62.7182 26.8279 68.658C26.8279 74.4025 25.9587 75.5867 20.0189 77.6401L20 40.8866Z" fill="#08CBCD"/>
<path d="M98.9807 77.7283C92.7827 75.2088 92.2473 74.4593 92.2473 68.2423V48.124C92.2431 44.7545 94.6468 41.8632 97.9603 41.252C99.7618 40.8929 99.2201 42.2535 99.2201 42.9967C99.2705 48.231 99.2201 53.4653 99.2201 58.6996V76.9347C99.1682 77.2069 99.088 77.4729 98.9807 77.7283Z" fill="#08CBCD"/>
</svg>
