<svg width="120" height="120" viewBox="0 0 120 120" fill="none" xmlns="http://www.w3.org/2000/svg">
<circle cx="60" cy="60" r="60" fill="#030000"/>
<path d="M57.2397 67.967L57.8158 70.8007L58.8797 69.3839L59.9229 74.7034L60.9608 69.3839L62.0247 70.8007L62.6008 67.967H57.2397Z" fill="url(#paint0_linear)"/>
<path d="M62.7461 63.4623V55.4804C62.7461 53.9235 59.9436 49.9844 59.9436 49.9844C59.9436 49.9844 57.1152 53.9235 57.1152 55.4804V63.4623C55.2773 64.059 53.6763 65.2239 52.543 66.789H67.2976C66.1696 65.2274 64.5764 64.0629 62.7461 63.4623Z" fill="white"/>
<path fill-rule="evenodd" clip-rule="evenodd" d="M89.7434 67.3858C92.0536 67.3858 93.9264 69.2586 93.9264 71.5687C93.9235 73.8778 92.0524 75.7489 89.7434 75.7517C87.4332 75.7517 85.5604 73.8789 85.5604 71.5687C85.5604 69.2586 87.4332 67.3858 89.7434 67.3858ZM88.8024 69.3019C87.8872 69.6827 87.2917 70.5775 87.2938 71.5687C87.2995 72.9184 88.3937 74.0103 89.7434 74.0131C90.7346 74.0131 91.6282 73.4158 92.007 72.4998C92.3859 71.5838 92.1753 70.5298 91.4737 69.8296C90.772 69.1294 89.7176 68.9211 88.8024 69.3019Z" fill="url(#paint1_linear)"/>
<path fill-rule="evenodd" clip-rule="evenodd" d="M15 59.9177C15.0315 35.1213 35.1265 15.0286 59.9229 15C84.5433 15.2632 104.364 35.2958 104.365 59.9177C104.367 84.5396 84.5485 104.574 59.928 104.841C46.0972 104.841 36.439 101.291 29.5314 93.6669C29.5314 93.6669 41.3745 101.332 59.8398 99.0643C82.9292 96.2462 99.0747 80.2098 99.0747 59.9177C99.0651 57.6323 98.8549 55.3521 98.4467 53.1035H98.0678C94.6497 53.1052 91.5942 50.972 90.4181 47.7625C89.2419 44.553 90.1955 40.9506 92.8054 38.7433C87.1278 29.9059 78.1317 23.7261 67.8455 21.5976C57.5594 19.4691 46.8495 21.5711 38.1309 27.4296L38.1888 27.5238L38.1889 27.5239C38.3095 27.7198 38.4291 27.914 38.5409 28.1198C40.4119 31.6372 40.3036 35.8776 38.2556 39.2949C36.2075 42.7123 32.519 44.807 28.535 44.8154C27.0543 44.8119 25.5883 44.5229 24.2171 43.9642C21.962 48.9803 20.798 54.418 20.8022 59.9177V60.774C22.5116 61.3416 23.7567 62.822 24.0231 64.6033C24.2895 66.3847 23.5319 68.1646 22.0633 69.2074C24.7724 78.6995 31.571 85.5137 39.9525 86.2092C53.363 87.325 66.8512 77.0907 66.9862 76.9869L67.5467 76.5561C72.041 72.5963 77.1789 65.5849 77.5889 54.1674L60.1149 42.1738L42.6357 54.1674C43.1443 68.294 50.8096 75.7206 56.098 79.1562C54.0273 80.0748 51.9098 80.8637 49.782 81.6318C49.1385 81.1024 48.5157 80.5523 47.9241 79.9918C42.8588 75.1912 36.8231 66.5554 36.8231 52.6623V51.1365L60.1149 35.1623L83.4015 51.1365V52.6675C83.4015 66.5606 77.3658 75.1964 72.3005 79.997C71.9113 80.3655 71.5065 80.7287 71.0705 81.1076L70.4893 81.5902C67.8161 83.8355 64.8121 85.6543 61.5836 86.9824C56.1758 89.65 47.9656 92.6757 39.4751 91.975C25.5197 90.8177 15 77.044 15 59.9177ZM21.5755 67.3235C21.9186 66.9372 22.1564 66.4688 22.2657 65.9638C22.5347 64.7095 21.9862 63.4215 20.8956 62.7461C21.0196 64.2854 21.2468 65.8146 21.5755 67.3235ZM37.0047 28.9346C38.9023 32.4996 38.3718 36.8701 35.6764 39.8775C32.9809 42.885 28.6943 43.8891 24.9436 42.3917C27.719 36.8832 31.7489 32.1031 36.7089 28.4364C36.752 28.5149 36.8024 28.5946 36.8537 28.6756C36.9074 28.7606 36.9621 28.8469 37.0099 28.9346H37.0047ZM92.0905 47.2882C93.0505 49.7513 95.4243 51.3723 98.0678 51.3701L98.1042 51.3649C97.226 47.4532 95.7504 43.7002 93.7292 40.238C91.7813 42.0252 91.1305 44.825 92.0905 47.2882Z" fill="url(#paint2_linear)"/>
<defs>
<linearGradient id="paint0_linear" x1="62.6034" y1="74.7034" x2="62.6034" y2="67.967" gradientUnits="userSpaceOnUse">
<stop stop-color="#B5E0DA"/>
<stop offset="0.63" stop-color="#3CBAB2"/>
<stop offset="0.97" stop-color="#00A89E"/>
<stop offset="1" stop-color="#00A69C"/>
</linearGradient>
<linearGradient id="paint1_linear" x1="93.9264" y1="75.7673" x2="93.9264" y2="67.4013" gradientUnits="userSpaceOnUse">
<stop stop-color="#B5E0DA"/>
<stop offset="0.63" stop-color="#3CBAB2"/>
<stop offset="0.97" stop-color="#00A89E"/>
<stop offset="1" stop-color="#00A69C"/>
</linearGradient>
<linearGradient id="paint2_linear" x1="104.606" y1="104.841" x2="104.606" y2="15" gradientUnits="userSpaceOnUse">
<stop stop-color="#B5E0DA"/>
<stop offset="0.63" stop-color="#3CBAB2"/>
<stop offset="0.97" stop-color="#00A89E"/>
<stop offset="1" stop-color="#00A69C"/>
</linearGradient>
</defs>
</svg>
