<svg width="120" height="120" viewBox="0 0 120 120" fill="none" xmlns="http://www.w3.org/2000/svg">
<circle cx="60" cy="60" r="60" fill="#2B77B3"/>
<path fill-rule="evenodd" clip-rule="evenodd" d="M100.999 60.1471C100.822 82.9137 82.1471 101.17 59.2096 100.999C36.2533 100.831 17.8165 82.2987 18.0014 59.5805C18.19 37.0785 36.9173 18.8518 59.6888 19.0009C82.6263 19.1537 101.165 37.6227 100.999 60.1508V60.1471ZM21.0044 60.0166C21.0459 80.9643 38.2 97.8753 59.4435 97.9237C80.7098 97.961 98.06 80.9345 97.9883 59.9644C97.9091 38.1222 79.5969 21.6473 58.5193 22.0051C38.1396 22.3481 20.9629 39.464 21.0044 60.0166ZM69.6135 42.218L69.6145 42.2148V42.2185L69.6135 42.218ZM55.7124 40.4294C60.4467 39.3188 65.0377 39.8218 69.6135 42.218L68.0791 47.0678C67.2311 46.9297 66.4018 46.7837 65.5846 46.6398L65.5845 46.6398L65.5843 46.6397C63.6457 46.2984 61.7756 45.9692 59.8887 45.7856C58.2967 45.6328 56.6443 46.0428 56.0293 47.8133C55.3955 49.6285 55.3201 51.563 56.8404 52.9645C57.9135 53.9504 59.1148 54.7956 60.317 55.6414L60.3172 55.6415L60.3173 55.6416L60.3174 55.6417C60.8649 56.0269 61.4126 56.4122 61.9486 56.8111C62.4255 57.1659 62.9169 57.507 63.4086 57.8482L63.4088 57.8484C64.5388 58.6326 65.6697 59.4175 66.6266 60.3707C70.3502 64.0832 71.0104 68.5858 69.4825 73.4388C68.577 76.3163 66.4191 78.1353 63.6576 79.2386C59.4322 80.9308 52.2379 80.0958 48.1974 77.4122L49.9705 72.3281C50.7592 72.5337 51.5274 72.752 52.2832 72.9668C53.9931 73.4526 55.64 73.9206 57.3196 74.1843C59.6284 74.5458 62.0466 74.1955 63.2313 71.8659C64.4234 69.5176 64.0461 67.0464 62.1787 65.1604C61.0813 64.0534 59.7717 63.1475 58.4648 62.2434L58.4647 62.2433L58.4646 62.2433C58.0553 61.9601 57.6463 61.6772 57.2441 61.3883C56.7379 61.0258 56.205 60.6981 55.6722 60.3704L55.6721 60.3704L55.672 60.3703L55.672 60.3703C55.0214 59.9702 54.3709 59.5702 53.7695 59.1072C49.4019 55.8077 47.9093 49.9709 50.1667 45.0178C51.1474 42.6864 53.2172 40.9739 55.7124 40.4294ZM39.1318 59.3233C39.1319 61.9189 37.0166 64.0305 34.3896 64.0571C31.7488 64.0683 29.4928 61.7946 29.5531 59.1966C29.6564 56.6067 31.8115 54.5598 34.4349 54.5598C37.0757 54.5971 39.1507 56.703 39.1356 59.3233H39.1318ZM89.383 59.2227C89.3491 56.6061 87.3873 54.6865 84.754 54.6903C81.8453 54.6903 79.8458 56.5651 79.8458 59.2935C79.8352 61.8911 81.9404 64.0142 84.5692 64.0571C85.8623 64.0655 87.1038 63.5563 88.0107 62.6455C88.9176 61.7347 89.4126 60.5 89.383 59.2227Z" fill="white"/>
</svg>
