<svg width="120" height="120" viewBox="0 0 120 120" fill="none" xmlns="http://www.w3.org/2000/svg">
<path d="M60 120C93.138 120 120 93.138 120 60C120 26.862 93.138 0 60 0C26.862 0 0 26.862 0 60C0 93.138 26.862 120 60 120Z" fill="#EDF0F4"/>
<path d="M82.9721 32.024C82.7187 32.024 82.4884 32.024 82.2351 32.0479H75.6717V33.4866C77.9977 33.4866 80.3007 33.5106 82.6266 33.4866C83.2024 33.5106 83.8242 33.4626 84.3538 33.6544C84.8144 33.8702 85.2059 34.3258 85.5744 34.6854C89.3051 38.7136 93.128 42.6219 96.8588 46.6501C84.5841 59.5498 72.2864 72.4496 60.0118 85.3493C47.6911 72.4256 35.4164 59.5259 23.1187 46.6021C26.8034 42.7658 30.419 38.9054 34.1037 35.0691C34.7716 34.4217 35.3703 33.5106 36.4067 33.5345C39.3774 33.4866 42.3713 33.5585 45.3651 33.5106C45.4111 33.5106 45.4802 33.5106 45.5263 33.5106H50.7079L51.4679 32.024H41.0586H37.7884C36.9363 32.024 36.0842 31.976 35.2552 32.1199C34.7255 32.2398 34.288 32.6714 33.9195 33.031C30.373 36.7475 26.8495 40.464 23.326 44.2044C22.589 44.9957 21.8521 45.8828 21 46.5302V46.6261C22.9575 48.5203 24.7768 50.5584 26.6652 52.5245C37.7884 64.2014 48.9116 75.8544 60.0348 87.5073C72.3555 74.5836 84.6532 61.6838 96.9509 48.7601C97.6418 48.0408 98.2636 47.3214 99.0235 46.6741V46.5542C98.3327 45.9308 97.7109 45.2114 97.066 44.5401C93.3813 40.6558 89.6736 36.7954 86.0119 32.8871C85.6665 32.5515 85.275 32.1439 84.7684 32.0719C84.1696 32.0479 83.5708 32.024 82.9721 32.024Z" fill="#6666FF"/>
<path fill-rule="evenodd" clip-rule="evenodd" d="M75.6722 34.6855V36.1481H80.209C80.4777 36.1549 80.7446 36.1578 81.0102 36.1608C81.6776 36.1681 82.3366 36.1754 82.9955 36.244C83.376 36.2648 83.6346 36.5213 83.8924 36.777C83.9311 36.8154 83.9698 36.8538 84.0088 36.8914C85.3093 38.2556 86.6055 39.6286 87.9029 41.0028L87.9037 41.0037C89.6388 42.8416 91.3761 44.6818 93.1285 46.5062L61.8315 79.451C61.4486 79.8656 61.0554 80.2697 60.6588 80.6773L60.6586 80.6776C60.4591 80.8826 60.2587 81.0886 60.0583 81.2972C49.0502 69.6922 38.0422 58.1112 27.0111 46.5302C29.9588 43.3653 32.9296 40.2483 35.9003 37.1313L35.9004 37.1312L35.9005 37.1311C36.1998 36.7955 36.5453 36.5077 36.9138 36.2919C37.3743 36.196 37.8349 36.1481 38.2955 36.172C42.1184 36.196 45.9413 36.196 49.7641 36.196C49.7641 36.1483 49.7654 36.1009 49.7679 36.0539C49.7733 35.9863 49.779 35.9188 49.7857 35.8517C49.8207 35.5706 49.8958 35.3018 49.9944 35.0451V35.0211C49.9944 35.0142 49.9944 35.0093 49.9956 35.0046C49.9983 34.9932 50.0078 34.9833 50.0405 34.9492C50.052 34.9132 50.0693 34.8833 50.0866 34.8533C50.1038 34.8233 50.1211 34.7934 50.1326 34.7574H41.4045H37.6046H37.5816C37.5227 34.7595 37.4642 34.7612 37.406 34.763C36.8046 34.7809 36.2432 34.7976 35.7393 35.213C35.2229 35.6292 34.7788 36.1332 34.3373 36.6343C34.1684 36.826 33.9999 37.0173 33.8278 37.2031C30.857 40.2722 27.8632 43.3892 24.9385 46.5302C36.6374 58.8545 48.3363 71.1548 60.0583 83.4552L60.3966 83.0993C71.3835 71.5415 82.3483 60.0069 93.3357 48.4724C93.5077 48.2861 93.69 48.102 93.8739 47.9162L93.874 47.9162C94.3058 47.4801 94.7468 47.0346 95.086 46.5302C94.9017 46.2425 94.6945 45.9548 94.4411 45.715C93.3141 44.532 92.1945 43.3489 91.0764 42.1675L91.076 42.1671C89.4068 40.4033 87.7409 38.643 86.0585 36.8914C85.8925 36.7186 85.7301 36.5403 85.5674 36.3616C85.1427 35.8955 84.7155 35.4264 84.2161 35.0451C83.7155 34.6825 82.9886 34.6841 82.3854 34.6853L82.2816 34.6855H75.6722ZM49.8521 35.4329C49.867 35.3763 49.8837 35.3191 49.9023 35.2609C49.8827 35.3172 49.8661 35.3746 49.8521 35.4329ZM49.8521 35.4329C49.7935 35.6563 49.7641 35.8706 49.7641 36.1001C49.7654 36.0847 49.7666 36.0693 49.7679 36.0539C49.7714 35.9858 49.7774 35.9184 49.7857 35.8517C49.8001 35.7094 49.8193 35.5688 49.8521 35.4329Z" fill="#6666FF"/>
<path d="M39.8843 37.4668C39.5619 37.4908 39.2395 37.4908 38.9171 37.4908C38.848 37.4908 38.802 37.4908 38.7329 37.4908C38.3183 37.4908 37.9038 37.5387 37.4893 37.6346C37.0287 37.8025 36.6372 38.2101 36.3148 38.5218C33.7816 41.1833 31.2944 43.8447 28.7842 46.5062C39.1704 57.4878 49.6258 68.3974 60.012 79.379C61.0944 78.3 62.1538 77.1491 63.2131 76.0462C72.54 66.1915 81.8899 56.3609 91.2629 46.5302C88.983 44.0126 86.5879 41.5909 84.262 39.0972C83.8244 38.5937 83.3638 38.1621 82.8341 37.7785C82.3966 37.5148 81.8208 37.5148 81.3142 37.5148H75.672V39.0013C77.3301 39.0013 78.9652 39.0013 80.6233 38.9774C81.2221 39.0013 81.913 38.9294 82.3736 39.361C82.9723 39.9125 83.548 40.4879 84.1008 41.1113C85.7589 42.9096 87.5321 44.636 89.1212 46.4822C88.6606 47.1536 88.0157 47.753 87.44 48.3525C78.2743 57.9434 69.1777 67.6062 59.989 77.1731C50.9615 67.6781 41.934 58.1831 32.9064 48.6881C32.2386 47.9688 31.4786 47.2975 30.9029 46.5062C31.3174 45.8588 31.9392 45.3074 32.4459 44.7559C33.9197 43.1974 35.4397 41.6149 36.9136 40.0563C37.236 39.6967 37.6044 39.361 38.042 39.1212C38.4795 39.0013 38.9171 38.9534 39.3547 38.9774C42.8782 39.0013 46.3786 39.0013 49.9021 39.0013V38.9774H51.3299C51.3069 38.9774 51.2839 38.9774 51.2609 38.9534C50.6851 38.6177 50.2245 38.0902 49.9712 37.4668H39.8843Z" fill="#6666FF"/>
<path d="M41.2198 40.2482C40.1144 40.2482 39.009 40.3681 38.0418 40.9435C37.1667 41.447 36.5218 42.3821 35.854 43.1254C34.8177 44.2763 33.7353 45.3793 32.6299 46.4823C34.288 48.3285 36.0382 50.0788 37.7424 51.9011C45.1579 59.7177 52.5733 67.5103 60.0118 75.3029C69.1315 65.712 78.2511 56.1211 87.3707 46.5542C85.989 45.0196 84.5151 43.605 83.1563 42.0944C82.7418 41.5909 82.2812 41.1113 81.7516 40.7277C81.2219 40.3681 80.508 40.392 79.9092 40.3681H75.6488V41.8067C77.1457 41.8307 78.6426 41.8546 80.1395 41.8546C80.9225 41.8307 81.337 42.3821 81.8437 42.8857C82.9721 44.1085 84.1236 45.3313 85.275 46.5302C76.8924 55.4497 68.3945 64.2734 60.0118 73.1689C52.1358 64.9207 44.3058 56.6726 36.4528 48.4004C35.877 47.801 35.2322 47.2016 34.7716 46.5062C35.3934 45.667 36.1994 44.9717 36.8903 44.1804C37.5812 43.4851 38.18 42.6938 38.9399 42.0944C39.2623 41.8307 39.6538 41.8546 40.0453 41.8307C43.3155 41.7348 46.6087 41.7827 49.9019 41.7827V41.7587H52.9188C52.5733 41.3511 52.343 40.8716 52.2049 40.3441V40.3201H46.862C46.7699 40.3201 46.6778 40.3201 46.6087 40.3201C44.8124 40.2721 43.0161 40.2482 41.2198 40.2482Z" fill="#6666FF"/>
<path d="M41.1738 43.1015C40.6902 43.1254 40.1145 43.0775 39.6539 43.2933C39.1012 43.605 38.6636 44.1565 38.2261 44.612C37.6734 45.2115 37.0285 45.7869 36.5449 46.4583C36.8443 47.0577 37.42 47.5373 37.8806 48.0408C45.25 55.7615 52.5734 63.5301 59.9428 71.2268C67.7497 62.9786 75.5797 54.7544 83.4097 46.5302C82.4885 45.5471 81.5904 44.4922 80.5771 43.605C80.0935 43.1015 79.5408 43.1734 78.896 43.1494H75.6258V44.5881H77.5142C78.2972 44.612 79.1493 44.5881 79.8402 45.0436C80.4159 45.4273 80.8765 46.0507 81.3371 46.5782C74.198 54.083 67.0589 61.5639 59.9428 69.0928C52.7806 61.5879 45.6646 54.0351 38.5024 46.5542C39.0321 45.9787 39.4927 45.4033 40.2066 45.0436C41.1278 44.5641 42.2101 44.5401 43.2234 44.5641C45.4343 44.636 47.6451 44.5881 49.8559 44.5881H54.7612C54.5769 44.1325 54.5309 43.629 54.6 43.1494H48.9578C46.3785 43.1015 43.7761 43.1254 41.1738 43.1015Z" fill="#6666FF"/>
<path fill-rule="evenodd" clip-rule="evenodd" d="M72.972 38.3837C72.9823 39.2313 72.9927 40.0809 73.0004 40.9195C73.0088 41.6694 73.0172 42.4319 73.0255 43.1944C73.0402 44.5288 73.0549 45.8632 73.0695 47.1296C73.0925 47.6811 72.9083 48.2086 72.5398 48.5922C72.1714 48.9519 71.6877 49.1437 71.2041 49.1197H71.0429C69.6381 49.0478 68.5327 47.9209 68.4176 46.4823C68.3715 45.9787 68.3715 45.4752 68.3715 45.0196V44.636C68.3485 44.1565 68.3024 43.6769 68.2103 43.1974C68.1873 42.9576 68.003 42.7898 67.7958 42.7658H67.7267C67.7037 42.7658 67.6346 42.7658 67.5425 42.9336C66.8976 44.1325 66.2528 45.3793 65.5389 46.8179C65.2678 47.3824 64.9702 47.9653 64.6516 48.5894C64.4559 48.9726 64.2523 49.3715 64.042 49.7911C63.8117 50.2227 63.5123 50.7982 63.1899 51.4455C62.6833 52.5005 62.0154 53.7713 61.3476 55.0421C60.933 55.8574 60.104 56.3609 59.2289 56.3609C58.4228 56.3609 57.6398 55.9533 57.1562 55.2819C56.5574 54.4667 56.5114 53.3637 56.995 52.5005C57.3394 51.8252 57.6837 51.1527 58.0271 50.4821C58.6712 49.2243 59.3119 47.9732 59.9428 46.722L60.15 46.3144H59.9658C59.5052 46.3144 59.0676 46.1945 58.6761 45.9548C57.4095 45.2115 56.9259 43.7488 57.5247 42.502L57.5477 42.4541H57.3635C56.6035 42.4301 55.8896 42.0704 55.429 41.447C54.8533 40.7517 54.7151 39.7926 55.0605 38.9534H54.8993C54.5999 38.9534 54.3236 38.9054 54.0703 38.8095C52.7806 38.33 52.1128 36.8434 52.5734 35.5007C52.7115 35.141 52.8727 34.7574 53.08 34.3498C53.103 34.2898 53.1491 34.1939 53.2038 34.08C53.2585 33.9661 53.3218 33.8343 53.3794 33.7024C53.46 33.5226 53.5464 33.3427 53.6212 33.1869C53.696 33.031 53.7594 32.8991 53.7939 32.8152L54.1854 32H72.9313V33.4866C72.9313 35.0461 72.9516 36.7111 72.972 38.3837ZM69.8684 46.3384C69.8915 47.0577 70.4442 47.6092 71.135 47.6332C71.4805 47.6332 71.6417 47.5373 71.6877 47.0817C71.6776 45.1746 71.6497 43.1472 71.6216 41.1051C71.5858 38.5002 71.5496 35.8714 71.5496 33.4386H55.1066C55.0375 33.5825 54.8936 33.8882 54.7496 34.1939C54.6057 34.4996 54.4618 34.8053 54.3927 34.9492C54.2315 35.2849 54.0703 35.6206 53.9321 35.9802C53.7709 36.4837 54.0012 37.0352 54.4618 37.275C54.4618 37.275 54.4848 37.299 54.5078 37.299C54.9454 37.5387 55.452 37.3469 55.6593 36.9153C55.7284 36.7954 55.7917 36.6696 55.855 36.5437C55.9184 36.4178 55.9817 36.2919 56.0508 36.172C56.3502 35.5966 56.8568 35.4287 57.3174 35.7165C57.778 36.0042 57.8932 36.5317 57.6168 37.0832L56.4423 39.385C56.2581 39.7207 56.3041 40.1283 56.5574 40.416C57.0871 41.0634 57.8241 41.0154 58.2156 40.3201C58.3192 40.1283 58.4171 39.9305 58.5149 39.7327C58.6128 39.5348 58.7107 39.337 58.8143 39.1452C58.9525 38.8575 59.2519 38.6896 59.5743 38.7136C59.7125 38.7136 59.8506 38.7616 59.9658 38.8335C60.4034 39.0733 60.5646 39.6487 60.3112 40.1043C60.0694 40.6078 59.8161 41.1054 59.5628 41.6029C59.3095 42.1004 59.0561 42.5979 58.8143 43.1015C58.561 43.6529 58.7913 44.2284 59.3901 44.588C59.9197 44.9237 60.4494 44.8038 60.7488 44.2524C60.8985 43.9766 61.0424 43.6949 61.1864 43.4132C61.3303 43.1314 61.4742 42.8497 61.6239 42.574C61.9233 41.9985 62.3839 41.8546 62.8675 42.1424C63.3511 42.4301 63.4663 42.9576 63.1899 43.5091C63.0287 43.8208 62.8733 44.1265 62.7178 44.4322C62.5624 44.7379 62.4069 45.0436 62.2457 45.3553C61.9091 46.0194 61.5724 46.6851 61.2354 47.3516C60.2582 49.2838 59.2778 51.2225 58.2846 53.1479C58.0544 53.5076 58.0544 54.0111 58.3307 54.3468C58.7452 54.8983 59.7125 55.0661 60.127 54.2749C60.7706 53.0512 61.3972 51.8099 61.9242 50.7659C62.2646 50.0915 62.5634 49.4995 62.7984 49.0478C63.3321 48.006 63.7993 47.0742 64.2296 46.2161C64.9878 44.7041 65.6314 43.4206 66.3219 42.1663C66.6443 41.495 67.3582 41.1353 68.0721 41.2792C68.8551 41.4231 69.4769 42.0465 69.6381 42.8617C69.7533 43.4371 69.8224 44.0126 69.8224 44.588C69.8224 45.1875 69.8224 45.7629 69.8684 46.3384Z" fill="#6666FF"/>
<path d="M65.1934 50.942L64.3182 52.6684C64.4564 53.1719 64.5255 53.7234 64.5255 54.2509C64.5255 57.3919 62.0614 59.9575 59.0445 59.9575C56.0277 59.9575 53.5635 57.3919 53.5635 54.2509C53.5635 51.8771 54.9683 49.7671 57.11 48.9279L58.0082 47.1536C54.2314 47.7531 51.629 51.3976 52.2048 55.3299C52.7805 59.2621 56.281 61.9716 60.0578 61.3721C63.8346 60.7727 66.4369 57.1282 65.8612 53.1959C65.7691 52.4046 65.5388 51.6374 65.1934 50.942Z" fill="#6666FF"/>
</svg>
