<svg width="120" height="120" viewBox="0 0 120 120" fill="none" xmlns="http://www.w3.org/2000/svg">
<path d="M60 120C93.138 120 120 93.138 120 60C120 26.862 93.138 0 60 0C26.862 0 0 26.862 0 60C0 93.138 26.862 120 60 120Z" fill="#EDF0F4"/>
<circle cx="60" cy="60" r="45" fill="#1B1B1B" stroke="white" stroke-width="4"/>
<path fill-rule="evenodd" clip-rule="evenodd" d="M73.6227 47.1281C74.2372 47.7377 75.2358 47.6615 75.6968 46.9757C76.1577 46.4423 76.0808 45.604 75.5431 45.1468C70.4731 40.3462 65.9409 37.9078 58.4127 38.2888C50.5005 38.6698 43.5101 42.7846 43.971 51.4715C44.3551 59.1678 51.8832 61.9872 58.4896 64.5019C63.5595 66.4069 68.015 68.0833 68.2454 71.6648C68.4759 75.6272 64.4045 77.9894 60.8709 78.218C54.1878 78.599 50.2701 76.2368 45.8914 72.0458C45.3537 71.5124 44.5087 71.5124 43.971 71.9696C43.3564 72.503 43.3564 73.4174 43.8942 74.027C48.8105 78.9038 53.8805 81.3423 61.255 80.9613C68.6295 80.4279 77.694 76.313 77.2331 67.6261C76.849 60.0822 69.6281 57.2628 63.0986 54.8244C57.7214 52.7669 52.7282 50.8619 52.4978 46.5185C52.3441 43.3942 56.1082 41.1082 58.7968 40.9558C65.3263 40.651 69.3977 42.937 73.6227 47.1281ZM74.4677 67.7785C74.4677 71.1313 72.624 74.027 69.8586 75.7034L69.705 75.6272C70.7036 74.2556 70.8572 72.503 70.8572 70.8265C70.8572 65.8735 65.4032 63.9685 59.6418 61.911C53.2659 59.625 46.5828 57.2628 46.5828 50.5571C46.5828 47.5091 47.9655 44.2324 50.6541 42.7084L50.731 42.8608C50.0396 44.3086 49.7323 45.9088 49.7323 47.5091C49.7323 52.9955 55.8009 55.2054 61.9464 57.4914C68.2454 59.7774 74.4677 62.0634 74.4677 67.7785Z" fill="white"/>
<path fill-rule="evenodd" clip-rule="evenodd" d="M59.625 96C79.6887 96 96 79.6887 96 59.625C96 39.5613 79.6887 23.25 59.625 23.25C39.5613 23.25 23.25 39.5613 23.25 59.625C23.25 79.6887 39.5613 96 59.625 96Z" stroke="white" stroke-width="2" stroke-linecap="round"/>
</svg>
