<svg width="120" height="120" viewBox="0 0 120 120" fill="none" xmlns="http://www.w3.org/2000/svg">
<circle cx="60" cy="60" r="60" fill="#EDF0F4"/>
<circle cx="60.0126" cy="59.8155" r="9.78311" fill="black"/>
<path d="M25.8264 75.1906C28.0071 73.73 29.0056 71.0358 28.3035 68.5068C23.5534 51.1359 33.649 33.1735 50.9572 28.2003C54.0876 27.1996 55.8516 23.8879 54.9353 20.7317C54.019 17.5756 50.7558 15.7233 47.5762 16.5545C23.9031 23.3855 10.1071 47.9651 16.6068 71.7313C17.1198 73.613 18.506 75.1336 20.3324 75.8181C22.1588 76.5026 24.2029 76.2677 25.8264 75.1867V75.1906Z" fill="black"/>
<path d="M63.5225 22.0722C63.5153 24.8392 65.3887 27.2575 68.0697 27.9421C85.3838 32.3249 96.0303 49.7309 92.0461 67.1411C91.4243 69.9456 92.8565 72.8015 95.4761 73.9806C98.0956 75.1597 101.183 74.3381 102.87 72.0131C103.352 71.3484 103.695 70.5939 103.88 69.7943C109.26 46.0147 94.7546 22.2678 71.1416 16.1985C69.5775 15.7891 67.9147 16.0185 66.52 16.8363C65.1252 17.6541 64.113 18.993 63.7064 20.5578C63.583 21.0531 63.5212 21.5618 63.5225 22.0722Z" fill="black"/>
<path d="M91.7568 81.5771C89.3222 79.8333 85.9714 80.1683 83.9303 82.3597C77.9463 88.7004 69.6884 92.404 60.9735 92.6557C52.2586 92.9074 43.8006 89.6866 37.4606 83.702C37.2962 83.5454 37.1319 83.3889 36.9714 83.2285C34.9795 81.2889 31.9001 81.0129 29.595 82.5671L29.3367 82.7393C28.0304 83.6033 27.1211 84.9511 26.8092 86.4859C26.4972 88.0207 26.8082 89.6165 27.6735 90.9219C27.8886 91.2535 28.1392 91.5605 28.421 91.8376C46.1085 109.298 74.6015 109.114 92.0621 91.4267C92.3242 91.1606 92.5825 90.8906 92.8447 90.6167C95.0856 88.2341 94.9736 84.4867 92.5943 82.2423C92.4082 82.0665 92.2108 81.9031 92.0034 81.7532L91.7568 81.5771Z" fill="black"/>
</svg>
