<svg width="120" height="120" viewBox="0 0 120 120" fill="none" xmlns="http://www.w3.org/2000/svg">
<circle cx="60" cy="60" r="60" fill="#EDF0F4"/>
<path fill-rule="evenodd" clip-rule="evenodd" d="M86 64.7258V68.8387C86 80.3548 69.2194 86.9355 64.1194 88.5806L62.3097 89.2387V82.1645L63.2968 81.8355C71.3581 78.8742 79.4194 73.7742 79.4194 68.8387V64.7258H86ZM60.5 31L67.4097 33.1387V40.3774L60.5 38.2387L60.0065 38.4032V54.6903H67.2452V61.4355H60.0065V89.0742L58.0323 88.4161C57.2097 88.0871 55.729 87.5936 53.9194 86.771L53.0968 86.4419V33.1387L60.5 31ZM51.1226 33.9613V41.2L41.7452 43.9968V54.6903H51.1226V85.7839L48.9839 84.7968C42.5677 81.5065 35 76.0774 35 68.3452V64.7258H41.7452V68.3452C41.7452 69.9903 42.5677 71.6355 44.2129 73.2806V61.4355H35V38.7323L51.1226 33.9613ZM69.3839 33.7968L85.8355 38.8968V61.6H76.129V71.471C76.129 71.471 73.9903 74.2677 69.3839 76.571C69.3839 75.2548 69.3839 55.3484 69.3839 43.1742V33.7968ZM76.2935 43.0097V54.6903H79.2548V43.9968L76.2935 43.0097Z" fill="#050101"/>
</svg>
