<svg width="120" height="120" viewBox="0 0 120 120" fill="none" xmlns="http://www.w3.org/2000/svg">
<circle cx="60" cy="60" r="60" fill="#EDF0F4"/>
<path d="M76.7824 57.207L69.6304 50.0502V49.2265C69.6304 43.7688 65.2054 39.2894 59.6999 39.2894C54.1944 39.2894 49.7694 43.7173 49.7694 49.2265V57.9793C49.7694 58.5456 49.9752 59.0605 50.3869 59.4209L57.5389 66.5261V70.4392C57.5389 71.5719 58.465 72.4986 59.597 72.4986C60.729 72.4986 61.6551 71.5719 61.6551 70.4392V65.7023C61.6551 65.136 61.4493 64.6211 61.0377 64.2607L53.8857 57.104V49.2265C53.8857 46.0342 56.5098 43.4084 59.6999 43.4084C62.89 43.4084 65.5141 46.0342 65.5141 49.2265V50.7711C65.5141 50.977 65.5141 51.183 65.5656 51.3889C65.5656 51.3889 65.5656 51.3889 65.5656 51.4404C65.5656 51.5434 65.617 51.6463 65.6685 51.7493C65.7714 52.0582 66.0287 52.3672 66.2859 52.5731L73.335 59.6269V70.4906C73.335 77.9563 67.2635 84.0833 59.7514 84.0833C52.5479 83.9803 46.6308 78.4197 46.1677 71.3144C46.1163 70.1817 45.0872 69.3064 43.9552 69.4094C42.8232 69.4609 41.9485 70.4907 42.0514 71.6234C42.6689 80.8911 50.4383 88.1507 59.6999 88.1507C69.476 88.1507 77.3998 80.2217 77.3998 70.4392V58.7001C77.3998 58.1337 77.1426 57.6189 76.7824 57.207Z" fill="#80225F"/>
<path d="M49.7694 68.7916V70.4392C49.7694 75.8968 54.1944 80.3762 59.6999 80.3762C65.2054 80.3762 69.6304 75.9483 69.6304 70.4392V61.8408C69.6304 61.2745 69.4246 60.7596 69.013 60.3992L61.7066 53.088V49.175C61.7066 48.0422 60.7804 47.1155 59.6485 47.1155C58.5165 47.1155 57.5903 48.0422 57.5903 49.175V53.9633C57.5903 54.5296 57.7961 55.0445 58.2078 55.4049L65.5141 62.6646V70.3877C65.5141 73.5799 62.89 76.2057 59.6999 76.2057C56.5098 76.2057 53.8857 73.5799 53.8857 70.3877V68.4827C54.0401 67.8133 53.8857 67.0925 53.3712 66.5261H53.3197L53.2683 66.4747L46.1163 59.3179V48.7116C46.1163 41.1945 52.1877 35.119 59.6999 35.119C66.5947 35.119 72.5118 40.4736 73.1807 47.3214V47.5274C73.2836 48.6601 74.2612 49.4839 75.3932 49.4324C76.5251 49.3294 77.3484 48.3512 77.2969 47.2185L77.2455 46.9095C76.3708 37.8478 68.8071 31 59.6999 31C49.9238 31 42 38.929 42 48.7116V60.1932C42 60.7596 42.2058 61.2745 42.6174 61.6349L49.7694 68.7916Z" fill="#80225F"/>
</svg>
