<svg width="120" height="120" viewBox="0 0 120 120" fill="none" xmlns="http://www.w3.org/2000/svg">
<circle cx="60" cy="60" r="60" fill="#FDA616"/>
<path fill-rule="evenodd" clip-rule="evenodd" d="M45.1583 83C45.5944 84.365 50.9918 89.99 56.609 89.99C64.9361 89.99 69.8004 84.935 69.8004 77.6225C69.8004 70.85 66.4308 66.98 57.9174 63.215C47.6259 59.0225 41.2631 52.8913 41.2631 42.6763C41.2631 31.3888 49.4039 23 61.6597 23C68.1156 23 74.6573 27.0875 76.8267 29.8175L71.6194 35.2738C71.1714 34.9928 70.7037 34.6193 70.1872 34.2067C68.332 32.7248 65.8471 30.74 61.3801 30.74C52.7735 30.74 49.4971 36.6538 49.4971 41.6C49.4971 48.3763 53.3363 51.71 62.0324 55.58C72.7004 60.3125 78.1275 66.2262 78.1275 76.8688C78.1275 88.055 70.8814 98 56.0052 98C49.922 98 43.4251 93.9125 39.5187 88.91L45.1583 83ZM52.0988 44.3638C50.7979 41.6375 51.6664 38.9113 51.6664 38.9113C84.6319 33.455 78.5599 65.7238 78.5599 65.7238C75.9582 60.7288 73.3564 59.8175 73.3564 59.8175C73.7888 41.18 52.0988 44.3638 52.0988 44.3638ZM66.647 80.405C66.647 80.405 68.1529 77.0938 66.8483 73.91C66.8483 73.91 42.9964 78.9087 43.7046 57.2863C43.7046 57.2863 41.2296 56.045 39.2391 50.7425C39.2393 50.7425 39.2365 50.7528 39.2309 50.773C38.9143 51.9236 29.76 85.1884 66.647 80.405Z" fill="white"/>
</svg>
