<svg width="120" height="120" viewBox="0 0 120 120" fill="none" xmlns="http://www.w3.org/2000/svg">
<circle cx="60" cy="60" r="60" fill="#8E9495"/>
<path d="M28.3536 77.3345C27.4883 75.4647 26.8466 73.4989 26.442 71.4781C26.2089 70.4139 26.0611 69.3328 26 68.2451H29.3773C29.4545 69.1197 29.5806 69.9892 29.7551 70.8496C30.1216 72.6251 30.6731 74.3893 31.4287 75.9982C33.4536 80.2987 36.5287 82.7519 40.994 82.7519C44.4847 82.7519 47.1896 81.3512 49.0936 78.8829C50.7104 76.797 51.6247 74.0296 51.6247 71.7052C51.6247 68.7259 50.4989 66.5302 48.2511 64.6714C46.4227 63.1571 44.3184 62.0971 39.974 60.2876L39.2071 59.9696C34.6889 58.0956 32.6036 57.0659 30.5749 55.4608C27.7718 53.2424 26.2833 50.4902 26.2833 46.9657C26.2833 42.7446 27.7982 39.1672 30.5107 36.6383C33.0829 34.2789 36.4492 32.9795 39.9362 33.0003C44.7718 33.0003 48.4627 35.018 50.9182 38.5539V33.7461H61.8284V82.0023H65.0698V68.4609C65.0643 68.3499 65.0643 68.2387 65.0698 68.1277L68.4471 68.2413V68.4117C68.5136 69.2327 68.6272 70.0492 68.7871 70.8572C69.1384 72.6176 69.6824 74.3855 70.438 75.9944C72.4516 80.2912 75.5304 82.7481 79.992 82.7481C83.4827 82.7481 86.1876 81.3474 88.0916 78.8791C89.7084 76.7932 90.6227 74.0258 90.6227 71.7014C90.6227 68.7221 89.4969 66.5264 87.2491 64.6676C85.4207 63.1533 83.3164 62.0933 78.972 60.2838L78.2051 59.9658C73.6869 58.0919 71.6016 57.0621 69.5729 55.457C66.7698 53.2386 65.2813 50.4864 65.2813 46.9619C65.2813 42.7409 66.7962 39.1634 69.5087 36.6345C72.0814 34.2765 75.4477 32.9785 78.9342 33.0003C83.7698 33.0003 87.4607 35.018 89.9162 38.5539V33.9505H93.2973V50.6908H89.9162C89.9162 47.1928 89.1153 43.6494 87.54 41.0335C85.6813 37.9406 82.8858 36.2522 78.9342 36.2522C76.3182 36.2332 73.7914 37.2038 71.8584 38.9703C69.8184 40.8783 68.6587 43.6078 68.6587 46.9619C68.6587 49.4605 69.6636 51.3155 71.7187 52.9433C73.4187 54.2872 75.3227 55.2261 79.5424 56.9789L80.3093 57.2969C84.9673 59.2313 87.2756 60.4011 89.4516 62.1993C92.4247 64.66 94 67.7416 94 71.7014C94 74.7148 92.8591 78.1598 90.804 80.825C88.2767 84.092 84.5858 86 79.992 86C76.8073 86 74.076 85.0309 71.832 83.2364C70.489 82.1481 69.3438 80.8354 68.4471 79.3561V85.2542H58.4511V36.998H54.2956V50.6908H50.9182C50.9182 47.1928 50.1173 43.6494 48.542 41.0335C46.6833 37.9406 43.8878 36.2522 39.9362 36.2522C37.3202 36.2332 34.7934 37.2038 32.8604 38.9703C30.8204 40.8783 29.6607 43.6078 29.6607 46.9619C29.6607 49.4605 30.6656 51.3155 32.7207 52.9433C34.4207 54.2872 36.3247 55.2261 40.5444 56.9789L41.3113 57.2969C45.9693 59.2313 48.2776 60.4011 50.4536 62.1993C53.4267 64.66 55.002 67.7416 55.002 71.7014C55.002 74.7148 53.8611 78.1598 51.806 80.825C49.2787 84.092 45.5878 86 40.994 86C37.8093 86 35.078 85.0309 32.834 83.2364C31.4573 82.1212 30.2873 80.7718 29.3773 79.2501V85.0498H26V68.2413H29.3773V79.2501C29.0018 78.6306 28.6601 77.9911 28.3536 77.3345Z" fill="white"/>
</svg>
