<svg width="120" height="120" viewBox="0 0 120 120" fill="none" xmlns="http://www.w3.org/2000/svg">
<circle cx="60" cy="60" r="60" fill="#FEC60D"/>
<path fill-rule="evenodd" clip-rule="evenodd" d="M86.9406 30.5827L99.7585 37.9921C99.9292 38.0964 100.098 38.1919 100.264 38.286C100.514 38.4282 100.76 38.5674 101 38.7297V86.335C100.819 86.375 100.66 86.472 100.502 86.5677C100.438 86.6065 100.375 86.645 100.31 86.6795C100.094 86.7993 99.889 86.9228 99.6839 87.0464L85.6171 95.2308C84.5496 95.8748 83.4649 96.4871 82.3805 97.0993C81.3212 97.6973 80.2621 98.2953 79.2193 98.9224L72.1542 103.03L72.0951 103.066C71.9047 103.184 71.7243 103.295 71.5316 103.4L70.2752 104.123C69.8278 104.374 69.4139 104.613 68.9889 104.86L61.2863 109.323C61.043 109.457 60.8513 109.586 60.6895 109.695C60.2659 109.981 60.0467 110.129 59.6421 109.855L56.1263 107.811C54.5279 106.847 52.9076 105.924 51.2868 105.001C49.9097 104.216 48.5322 103.432 47.1672 102.622L42.6672 100.001C42.0439 99.6237 41.4077 99.265 40.771 98.9061C40.1242 98.5415 39.4769 98.1766 38.842 97.7917C38.8096 97.7725 38.7781 97.7537 38.7473 97.7352C38.5684 97.6284 38.4101 97.5339 38.2193 97.4286L34.9906 95.5603C34.8648 95.4839 34.7388 95.4065 34.6124 95.3289C34.1137 95.0228 33.6098 94.7134 33.0892 94.4446C32.9431 94.3723 32.8276 94.3026 32.7077 94.2303C32.6226 94.1789 32.5352 94.1261 32.433 94.0702C32.3365 94.0169 32.2455 93.9628 32.1559 93.9096C32.0378 93.8395 31.9221 93.7708 31.7992 93.707L29.264 92.2393C29.1205 92.1559 28.9765 92.0737 28.8323 91.9914C28.5494 91.8299 28.2654 91.6679 27.9814 91.4943L22.8513 88.514L22.7938 88.4797C22.2436 88.1515 19.2286 86.3528 19 86.3313V38.7297C19.1869 38.6798 20.4608 37.9228 21.5126 37.2977C22.1183 36.9378 22.6503 36.6216 22.8588 36.5095C23.6927 36.0546 24.5205 35.5689 25.345 35.085C25.8034 34.816 26.2607 34.5477 26.7176 34.2855L29.264 32.7767C29.459 32.6645 29.6496 32.5591 29.8407 32.4534C30.077 32.3226 30.3141 32.1915 30.5614 32.0466L33.7827 30.1746C33.8638 30.1282 33.9407 30.0819 34.0169 30.036C34.144 29.9594 34.2692 29.8839 34.409 29.8114L36.9853 28.3325C37.1619 28.23 37.3355 28.1319 37.509 28.0338C37.7602 27.8919 38.0113 27.7499 38.2715 27.5949L39.5242 26.8686C39.7447 26.7431 39.9635 26.6145 40.1804 26.4829L41.4555 25.7341C41.6615 25.6072 41.8704 25.4849 42.0818 25.3672C42.2258 25.2883 42.343 25.2184 42.464 25.1463C42.5498 25.0951 42.6375 25.0428 42.738 24.9853L59.3736 15.3632C59.3841 15.3565 59.3985 15.3474 59.416 15.3362C59.5662 15.2404 59.9432 15 60 15C60.1566 15 63.8178 17.1603 64.5261 17.5909L76.7027 24.6521C78.4973 25.7318 80.3106 26.7629 82.1266 27.7956C82.8799 28.2239 83.6336 28.6526 84.3867 29.085C84.5895 29.2027 84.7882 29.3228 84.9859 29.4423C85.2098 29.5776 85.4324 29.7121 85.6581 29.8413C85.7766 29.9095 85.8928 29.9759 86.0082 30.0419C86.3175 30.2187 86.6202 30.3917 86.9406 30.5827ZM62.4569 84.5828H74.4434V75.6758C74.4434 75.6084 74.2565 75.6166 74.1019 75.6234C74.0588 75.6253 74.0182 75.6271 73.9848 75.6271H57.9532L59.0418 74.4215C59.0533 74.41 59.0643 74.3998 59.0751 74.3898C59.0958 74.3707 59.1154 74.3525 59.135 74.3279L59.5004 73.9235C59.5268 73.888 59.5555 73.8543 59.5862 73.8225C59.6812 73.7289 59.7698 73.6259 59.8583 73.5229C59.9469 73.42 60.0354 73.317 60.1305 73.2234C60.1637 73.1931 60.1948 73.1606 60.2237 73.1261C60.2497 73.0914 60.2784 73.0589 60.3094 73.0287L60.7494 72.542L60.7568 72.5308L60.7904 72.4933L60.8128 72.4671L61.7709 71.4225L61.8082 71.3776C61.9535 71.2034 62.1077 71.038 62.2611 70.8734C62.3714 70.755 62.4814 70.6371 62.5874 70.5165C62.6123 70.4859 62.6351 70.4636 62.6605 70.4389C62.6693 70.4303 62.6785 70.4213 62.6881 70.4116C62.7808 70.3122 62.8694 70.2106 62.9579 70.109C63.076 69.9737 63.1941 69.8383 63.3219 69.7078L63.7693 69.221C63.8819 69.0867 64.0004 68.9607 64.1188 68.8348C64.2512 68.694 64.3835 68.5533 64.5075 68.4011L65.5999 67.203C65.6647 67.1202 65.8091 66.9678 65.9536 66.8153C66.0835 66.6783 66.2135 66.5411 66.2859 66.4542L67.0539 65.5968C67.151 65.5035 67.2629 65.3758 67.3687 65.2549C67.4541 65.1575 67.5354 65.0646 67.602 64.9978C67.6393 64.9622 67.6672 64.9295 67.6952 64.8967C67.7232 64.8639 67.7511 64.8312 67.7884 64.7956L68.8882 63.5863C68.9189 63.5545 68.9476 63.5207 68.974 63.4852L69.4326 62.9872C69.4632 62.9553 69.4918 62.9216 69.5183 62.8861C69.5322 62.8709 69.5444 62.8591 69.5558 62.8481C69.5779 62.8267 69.5968 62.8084 69.619 62.7738C69.5631 62.6896 69.4946 62.618 69.426 62.5464C69.4032 62.5225 69.3804 62.4986 69.358 62.4743L67.1658 60.0669C67.0838 59.9845 67.0092 59.8965 66.9346 59.8086C66.8601 59.7206 66.7855 59.6326 66.7035 59.5502L66.6103 59.4604L65.3911 58.1125L65.3687 58.0826L61.9648 54.3273C61.859 54.2163 61.758 54.1007 61.6567 53.9848C61.5189 53.8271 61.3808 53.6691 61.2303 53.5223L59.8956 52.0509C59.816 51.9535 59.7304 51.8631 59.6445 51.7725C59.5654 51.689 59.486 51.6053 59.4109 51.5155C59.3848 51.4847 59.3593 51.4577 59.3345 51.4313C59.299 51.3937 59.2649 51.3574 59.232 51.3133L58.3148 50.3025C58.2727 50.2534 58.2262 50.2058 58.1794 50.1579C58.0976 50.0743 58.0148 49.9896 57.9532 49.8944H74.4434V40.8675H62.4905C62.4495 40.8675 62.4383 40.8525 62.4383 40.8113V37.2545C61.4652 37.2545 60.4977 37.2452 59.5302 37.2358C58.5627 37.2264 57.5953 37.2171 56.6222 37.2171V40.9312H45.5566V49.8756C45.5566 49.909 45.6447 50.0013 45.696 50.0551C45.708 50.0677 45.718 50.0782 45.7244 50.0853C45.7372 50.0997 45.7499 50.1121 45.7627 50.1245C45.7798 50.141 45.7968 50.1575 45.8139 50.1789C45.959 50.3205 46.095 50.4703 46.2307 50.6198C46.339 50.739 46.447 50.858 46.5595 50.9726C46.5841 50.9973 46.5974 51.0153 46.6113 51.0338C46.6226 51.0491 46.6343 51.0647 46.6527 51.085C46.7199 51.1606 46.7904 51.2329 46.8612 51.3055C46.9201 51.3658 46.9792 51.4264 47.0367 51.4893L47.3126 51.7926L47.3201 51.8001L47.4021 51.8899C47.5438 52.0322 47.6809 52.1824 47.8179 52.3324C47.9296 52.4548 48.0413 52.5771 48.1552 52.6949L48.5281 53.1067C48.5395 53.1183 48.5506 53.1285 48.5613 53.1384C48.582 53.1576 48.6016 53.1757 48.6213 53.2003L50.0268 54.7204L50.0343 54.7279L50.6681 55.4131C50.7015 55.4485 50.7326 55.486 50.7613 55.5254L55.0488 60.1455C55.0813 60.1767 55.1112 60.2105 55.1383 60.2466L55.6043 60.752C55.7503 60.9005 55.8897 61.0527 56.0286 61.2044C56.1665 61.355 56.3039 61.5051 56.4469 61.6506C56.4758 61.6796 56.4907 61.6993 56.5077 61.7217C56.517 61.7339 56.5269 61.747 56.5401 61.7629L56.6371 61.8565L57.0025 62.2609C57.1703 62.4235 57.3284 62.5961 57.4759 62.7776C57.4478 62.818 57.4142 62.8497 57.3798 62.8821C57.3505 62.9097 57.3207 62.9378 57.2933 62.9723C57.2293 63.0578 57.0166 63.2838 56.8279 63.4843C56.7193 63.5996 56.6187 63.7065 56.5588 63.7735C56.5305 63.8069 56.5008 63.8358 56.4716 63.8642C56.4352 63.8995 56.3996 63.9341 56.3686 63.9757L56.089 64.2789C56.0641 64.3095 56.0413 64.3318 56.016 64.3565C56.0071 64.3652 55.998 64.3741 55.9884 64.3838L55.6193 64.7844C55.591 64.8177 55.5613 64.8466 55.5321 64.8751C55.4957 64.9104 55.4601 64.945 55.4291 64.9865C55.3909 65.0377 55.3474 65.0784 55.3011 65.1218C55.2797 65.1419 55.2576 65.1625 55.2352 65.185L54.8699 65.5893L54.7767 65.6829L53.9378 66.589C53.8073 66.72 53.6861 66.8567 53.565 66.9933C53.4438 67.13 53.3226 67.2667 53.1921 67.3977L52.823 67.7983C52.7933 67.8337 52.7608 67.8645 52.7279 67.8958C52.6947 67.9272 52.661 67.9592 52.6292 67.9967L52.6068 68.0267C52.5145 68.1386 52.3921 68.2636 52.2689 68.3894C52.1283 68.533 51.9866 68.6778 51.8872 68.8055L51.7418 68.9552L51.7195 68.9814L51.712 68.9889L50.7613 70.0073C50.735 70.044 50.7063 70.079 50.6755 70.1121L50.5823 70.2057L50.0156 70.8123C49.9766 70.863 49.9418 70.8981 49.9052 70.9351C49.8823 70.9581 49.8587 70.9819 49.833 71.0107L49.3632 71.5124L49.3408 71.5423L49.3334 71.5498C49.2199 71.6847 49.1017 71.8052 48.9825 71.9267C48.9529 71.9569 48.9232 71.9872 48.8934 72.0178L48.1962 72.7741L48.1739 72.8003L47.9651 73.0212L47.8793 73.1261L47.6855 73.3245L47.678 73.3357L47.0256 74.0321C46.9944 74.0635 46.9657 74.0973 46.9398 74.1332C46.9108 74.1676 46.8797 74.2001 46.8466 74.2306L45.7244 75.4474C45.7151 75.4561 45.7042 75.4656 45.6925 75.4757C45.6343 75.5264 45.5566 75.594 45.5566 75.672V84.5828H56.6259V87.784H62.4047C62.442 87.784 62.4569 87.7727 62.4569 87.7353V84.5828Z" fill="white"/>
</svg>
