<svg width="120" height="120" viewBox="0 0 120 120" fill="none" xmlns="http://www.w3.org/2000/svg">
<circle cx="60" cy="60" r="60" fill="#B30D23"/>
<path fill-rule="evenodd" clip-rule="evenodd" d="M60 86L63.4798 79.4415H63.4761C84.4969 77.7905 101 61.9307 101 61.9307C101 61.9307 84.9637 46.4864 64.3759 44.4992L62.8003 41.7224L60 37L58.3497 39.7768L55.6241 44.4992C35.0326 46.5242 19 61.8929 19 61.9307C19 61.9307 35.4993 77.7905 56.5202 79.4415L60 86ZM54.2949 75.2404C38.3332 72.917 22.4425 61.9307 22.4798 61.9307C22.4798 61.9307 37.6163 51.4733 53.1822 48.8099L50.7105 53.1205L52.6446 56.9438L57.883 48.247L57.883 48.247C58.5999 48.2092 59.3167 48.1714 60 48.1714C60.6938 48.1779 61.3872 48.2031 62.0797 48.247L67.2098 56.9438L69.1812 52.9354L66.814 48.7721C82.3837 51.3978 97.5164 61.6285 97.5164 61.8929C97.5164 62.1951 81.6295 72.917 65.6678 75.2026L73.4489 60.4308L71.3356 56.7209L67.2808 64.3675L61.7212 75.5804C61.1126 75.6182 60.5377 75.6182 59.9291 75.6182C59.3167 75.6182 58.7081 75.6182 58.0995 75.5804L50.5313 60.5064L50.5686 60.4686L48.6271 56.7965L46.5138 60.5064L54.2949 75.2404Z" fill="white"/>
</svg>
