<svg width="120" height="120" viewBox="0 0 120 120" fill="none" xmlns="http://www.w3.org/2000/svg">
<path fill-rule="evenodd" clip-rule="evenodd" d="M60 120C93 120 120 93 120 60C120 27 93 0 60 0C27 0 0 27 0 60C0 93 27 120 60 120Z" fill="url(#paint0_linear)"/>
<path fill-rule="evenodd" clip-rule="evenodd" d="M88.7004 76.5L95.7009 80.5C97.201 81.5 97.201 83 95.2008 84.5C94.7008 86 93.2007 86 91.7006 85.5L84.7002 81.5L86.2003 87C86.7003 89 85.2002 90.5 83.7001 90.5C82.7 90.5 81.7 89.5 81.1999 88.5L79.6998 82C79.1998 79.5 77.1997 77 74.6995 75.5C72.1993 74 69.1992 74 66.699 75.5L66.199 76C63.6988 77.5 62.1987 80 62.1987 83C62.1987 86 63.6988 89 65.6989 91L70.1992 95.5C71.6993 97 70.6993 100 68.1991 100C67.199 100 66.699 99.5 66.199 99L62.1987 95V103.5C62.1987 105 61.1986 106 59.6985 106C58.1984 106 57.1984 105 57.1984 103.5V95L53.1981 99C52.198 100 50.698 100 49.6979 99C48.6978 97.5 48.6978 96 49.6979 95L53.6981 91C56.1983 89 57.1984 86 57.1984 83C57.1984 80 55.6983 77.5 53.1981 76L52.6981 75.5C50.1979 74 47.1977 74 44.6976 75.5C42.1974 77 40.1973 79 39.6972 82L38.1971 88.5C38.1971 90 36.697 91 35.1969 90.5C33.6968 90 32.6968 88.5 33.1968 87L34.6969 81.5C27.8361 85.359 27.2265 85.9087 26.5613 85.987C26.4508 86 26.3388 86 26.1964 86C23.1962 86 22.1961 82.5 24.6963 81L31.6967 77L26.1964 75.5C24.6963 75 23.6962 73.5 24.1962 72C24.1962 70.5 25.6963 69.5 27.1964 70L33.1968 71C36.197 72 39.1972 71.5 41.6974 70C44.1975 68.5 45.6976 66 45.6976 63V62C45.6976 59 44.1975 56.5 41.6974 55C39.1972 53.5 36.197 53 33.1968 54C27.0066 55.7685 26.6811 55.9732 26.343 55.9969C26.2987 56 26.2542 56 26.1964 56C25.1963 56 24.1962 55 23.6962 54C23.1962 52.5 24.1962 51 25.6963 50.5L31.1967 49L24.1962 45C23.1962 44.5 22.6961 42.5 23.1962 41.5C24.1962 40 25.6963 39.5 27.1964 40.5L34.1969 44.5L32.6968 39C32.1968 37.5 33.1968 36 34.1969 35.5C35.697 35 37.1971 36 37.6971 37.5L40.1973 44C40.6973 46.5 42.6974 49 45.1976 50.5C47.6978 52 50.698 52 53.1981 50.5L53.6981 50C56.1983 48.5 57.6984 46 57.6984 43C57.6984 40 56.1983 37 54.1982 35L51.698 31C50.698 29.5 50.698 28 51.698 27C52.6981 26 54.1982 26 55.1982 27L59.1985 31V22.5C59.1985 21 60.1986 20 61.6987 20C63.1988 20 64.1988 21 64.1988 22.5V30.5L68.1991 26.5C69.1992 25.5 70.6993 25.5 71.6993 26.5C72.6994 28 72.6994 29.5 71.6993 30.5L67.199 35C64.6989 37 63.6988 40 63.6988 43C63.6988 46 65.1989 48.5 67.6991 50L68.1991 50.5C70.6993 52 73.6994 52 76.1996 50.5C78.6998 49 80.6999 47 81.1999 44L82.7 37.5C82.7 36 84.2001 35 85.7002 35.5C87.2003 36 88.2004 37.5 87.7004 39L86.2003 44.5L93.2007 40.5C94.2008 40 96.2009 40 96.7009 41.5C97.201 42.5 97.201 44.5 95.7009 45L89.2005 49L94.7008 50.5C96.2009 51 97.201 52.5 96.7009 54C96.2009 55 95.2009 56 94.2008 56C94.1429 56 94.0984 56 94.0542 55.9969C93.716 55.9732 93.3906 55.7685 87.2003 54C84.2001 53 81.1999 53.5 78.6998 55C76.1996 56.5 74.6995 59 74.6995 62V63C74.6995 66 76.1996 68.5 78.6998 70C81.1999 71.5 84.2001 72 87.2003 71L93.2007 69.5C94.2008 69 95.7009 70 96.2009 71.5C96.7009 73 95.7009 74.5 94.2008 75L88.7004 76.5ZM64.1988 70.5C67.199 69 68.6991 66 68.6991 63C68.6991 59.5 67.199 56.5 64.1988 55.5C61.1986 54 58.1984 54 55.1982 55.5C52.198 57 50.698 60 50.698 63C50.698 66 52.6981 69 55.1982 70.5C58.1984 72 61.1986 72 64.1988 70.5Z" fill="white"/>
<defs>
<linearGradient id="paint0_linear" x1="117.254" y1="-11.7347" x2="-12.554" y2="2.08525" gradientUnits="userSpaceOnUse">
<stop stop-color="#1ADBC5"/>
<stop offset="1" stop-color="#04D3DD"/>
</linearGradient>
</defs>
</svg>
