<svg width="120" height="120" viewBox="0 0 120 120" fill="none" xmlns="http://www.w3.org/2000/svg">
<circle cx="60" cy="60" r="60" fill="url(#paint0_linear)"/>
<path fill-rule="evenodd" clip-rule="evenodd" d="M80.9532 32.4972C76.6368 32.4972 72.9323 34.2337 69.8397 37.6902L51.8298 59.7023L40.2366 73.8589C39.7405 74.4377 39.0128 74.785 38.252 74.785H22.2267C22.1109 74.7685 21.9951 74.8181 21.9125 74.9173C21.8463 75 21.8132 75.0992 21.8132 75.215V86.0143C21.7967 86.1301 21.8298 86.2624 21.9125 86.3616C21.9786 86.4443 22.1109 86.5105 22.2267 86.4939H39.1285C43.445 86.4939 47.1495 84.7409 50.2421 81.2514L60.0657 69.2613L69.8893 81.2514C72.9654 84.7409 76.6368 86.4939 80.9532 86.4939H97.822C97.9378 86.5105 98.0536 86.4609 98.1363 86.3616C98.2024 86.2789 98.2355 86.1797 98.2355 86.0639V75.2646C98.252 75.1488 98.2024 75.0165 98.1363 74.9173C98.0701 74.8346 97.9378 74.7685 97.822 74.785H81.7967C81.069 74.8015 80.3579 74.4708 79.8783 73.925L68.0205 59.4542L79.8287 45.0827C80.3248 44.4873 81.0525 44.14 81.8132 44.1566H97.8386C97.9543 44.1731 98.0701 44.1235 98.1528 44.0243C98.2189 43.9416 98.252 43.8423 98.252 43.7266V32.9272C98.2686 32.7949 98.2355 32.6792 98.1528 32.5965C98.0701 32.5303 97.9543 32.4807 97.8386 32.4972H80.9532ZM38.252 44.1566C39.0293 44.1566 39.757 44.4873 40.2366 45.0827L46.3226 52.5413L54.3435 42.7674L50.2256 37.7398C47.1164 34.2503 43.4284 32.4972 39.1616 32.4972H22.2267C22.0944 32.4807 21.9786 32.5303 21.8794 32.6295C21.7967 32.7122 21.7471 32.8115 21.7471 32.9272V43.7266C21.7471 43.8423 21.7967 43.9416 21.8794 44.0243C21.9786 44.1069 22.0944 44.1566 22.2267 44.1566H38.252Z" fill="#00D1FF"/>
<defs>
<linearGradient id="paint0_linear" x1="44.1317" y1="-0.000347299" x2="44.1317" y2="31.7527" gradientUnits="userSpaceOnUse">
<stop stop-color="#090220"/>
<stop offset="1" stop-color="#170659"/>
</linearGradient>
</defs>
</svg>
