<svg width="120" height="120" viewBox="0 0 120 120" fill="none" xmlns="http://www.w3.org/2000/svg">
<circle cx="60" cy="60" r="60" fill="#0B1C26"/>
<path fill-rule="evenodd" clip-rule="evenodd" d="M60.5 102C37.6071 101.932 19 83.3514 19 60.5C19 37.6486 37.6071 19.0679 60.5 19C83.3929 19.0679 102 37.6486 102 60.5C102 83.3514 83.3929 101.955 60.5 102ZM97.3029 67.1023C96.3917 69.2036 93.9667 70.1897 91.8476 69.3206C93.3152 70.8524 94.2319 72.9085 94.2319 75.1684C94.2319 75.8324 94.1414 76.4511 94.0056 77.0698C95.56 73.9158 96.6729 70.5619 97.3029 67.106V67.1023ZM95.5411 65.4385C95.539 66.5887 94.6049 67.5194 93.4548 67.5173H93.451C92.3008 67.5141 91.371 66.5792 91.3741 65.4291C91.3772 64.2789 92.3122 63.3491 93.4623 63.3522C94.6125 63.3543 95.5432 64.2883 95.5411 65.4385ZM94.3904 44.779C96.4819 50.6318 95.2942 57.1558 91.2741 61.8959C91.9253 61.5006 92.6704 61.2869 93.4321 61.2772C95.609 61.2772 97.3935 62.9447 97.5784 65.0952C97.7632 63.5861 97.8764 62.077 97.8764 60.5226C97.902 55.0806 96.7109 49.7016 94.3904 44.779ZM77.8244 36.2074C85.7839 36.2032 92.2439 42.6446 92.2626 50.6041C92.2356 58.5602 85.7805 64.9968 77.8244 65.0009C69.8648 65.005 63.4049 58.5637 63.3861 50.6041C63.4049 42.6446 69.8648 36.2032 77.8244 36.2074ZM77.2509 75.1759C77.2509 72.0445 78.9864 69.166 81.7669 67.7059C78.2445 68.5242 74.5555 68.2356 71.2032 66.8797C74.0537 69.0651 76.1647 72.0729 77.2509 75.4966C77.2664 75.401 77.2607 75.3285 77.2555 75.2631V75.2631C77.2532 75.233 77.2509 75.2045 77.2509 75.1759ZM77.5716 84.8643C77.903 83.5185 78.0727 82.138 78.0771 80.752C78.0734 79.9861 78.013 79.224 77.8923 78.4695C78.6753 80.2935 80.0694 81.7876 81.8348 82.695C81.6242 82.6486 81.4091 82.6258 81.1934 82.627C79.6579 82.627 78.2582 83.4948 77.5716 84.8643ZM85.7282 80.4992C88.6767 80.5034 91.0744 78.1243 91.093 75.1759C91.093 72.2294 88.686 69.8526 85.7282 69.8526C82.7704 69.8526 80.3898 72.252 80.3898 75.1721C80.3898 78.1224 82.7968 80.4992 85.732 80.4992H85.7282ZM89.7839 63.4503C89.4444 64.069 89.2633 64.7594 89.2557 65.4649L89.2595 65.4611C89.257 66.3419 89.5374 67.2002 90.0593 67.9096C88.75 67.1284 87.2529 66.7176 85.7282 66.7212C85.371 66.7212 85.0329 66.7595 84.6934 66.7979L84.604 66.808C86.5094 65.9921 88.2612 64.8565 89.7839 63.4503ZM60.4962 63.2013C62.7599 63.2013 65.0009 63.6351 67.0985 64.4802C63.576 61.7821 61.2149 57.8424 60.4962 53.4639C59.7745 57.8403 57.4156 61.7786 53.8977 64.4802C55.9988 63.643 58.2383 63.2079 60.5 63.1975L60.4962 63.2013ZM55.984 38.6106C57.3341 39.464 58.8991 39.9154 60.4962 39.9122L60.5 39.9085C62.0984 39.9124 63.6648 39.4609 65.016 38.6069C62.6493 41.1276 61.0785 44.2902 60.5 47.6991C59.9354 44.2868 58.3627 41.1216 55.984 38.6106ZM69.0679 31.367C69.0679 33.2798 68.4227 35.1397 67.2343 36.6488C69.0158 35.3007 71.0393 34.3069 73.1952 33.7212C73.1442 33.7212 73.1009 33.7278 73.0612 33.7339C73.0274 33.739 72.9963 33.7438 72.9651 33.7438C71.1995 33.7438 69.6828 32.6497 69.0679 31.0916C69.0553 31.1521 69.0595 31.2143 69.0637 31.2759C69.0658 31.3065 69.0679 31.337 69.0679 31.367ZM77.134 29.541C77.134 28.2356 76.519 27.0963 75.5758 26.3191L75.5796 26.3153C81.8749 29.1233 87.2845 33.5962 91.2251 39.252C87.1461 34.4639 80.8224 32.216 74.6364 33.3552C76.153 32.6912 77.134 31.1935 77.134 29.541ZM72.9425 27.4849C72.1984 27.4828 71.5098 27.8779 71.1361 28.5212C70.7623 29.1646 70.7602 29.9584 71.1304 30.6038C71.5007 31.2491 72.1871 31.6479 72.9311 31.65C74.0823 31.6531 75.0181 30.7224 75.0212 29.5712C75.0243 28.42 74.0937 27.4842 72.9425 27.4811V27.4849ZM68.7736 29.2203C68.0404 26.3713 65.8921 24.1003 63.0881 23.2104C66.5874 23.4632 70.0347 24.2009 73.331 25.4023C73.1967 25.3762 73.0604 25.3611 72.9236 25.357C70.7427 25.361 68.9335 27.0453 68.7736 29.2203ZM55.0899 31.367C55.1673 34.2982 57.5658 36.6342 60.4981 36.6342C63.4304 36.6342 65.8289 34.2982 65.9063 31.367C65.7977 28.4597 63.4093 26.1589 60.5 26.1589C57.5907 26.1589 55.2023 28.4597 55.0937 31.367H55.0899ZM48.0575 25.357C47.9195 25.3609 47.7819 25.376 47.6463 25.4023C50.872 24.2139 54.3127 23.482 57.8893 23.2104C55.0867 24.1014 52.94 26.3722 52.2075 29.2203C52.0566 27.041 50.2421 25.3518 48.0575 25.357ZM51.9284 31.367C51.9244 31.2746 51.932 31.1821 51.951 31.0916C51.3189 32.6897 49.7761 33.7406 48.0575 33.7438C48.0065 33.7438 47.9632 33.7372 47.9235 33.7311L47.9235 33.7311C47.8897 33.726 47.8586 33.7212 47.8274 33.7212C49.9779 34.3097 52.0038 35.3057 53.7883 36.645C52.5842 35.1495 51.9279 33.287 51.9284 31.367ZM47.0141 31.3625C46.3695 30.991 45.9719 30.3039 45.9712 29.5599C45.9702 28.4097 46.9017 27.4765 48.0519 27.4754C49.202 27.4744 50.1353 28.4059 50.1363 29.5561C50.137 30.3001 49.7407 30.988 49.0967 31.3606C48.4527 31.7332 47.6588 31.7339 47.0141 31.3625ZM29.7711 39.2746C33.8413 34.4739 40.1727 32.2233 46.3598 33.3779C45.0283 32.7972 44.0973 31.5626 43.9052 30.1228C43.7131 28.6829 44.2878 27.2474 45.4204 26.338C39.1145 29.1304 33.6999 33.6065 29.7711 39.2746ZM43.1756 65.0046C35.2161 65.0088 28.7561 58.5674 28.7374 50.6079C28.7374 42.6776 35.2227 36.2338 43.1756 36.2112C51.1352 36.207 57.5951 42.6484 57.6139 50.6079C57.5951 58.5674 51.1352 65.0088 43.1756 65.0046ZM43.7491 75.1759C43.7491 75.2212 43.7434 75.2731 43.7378 75.3249C43.7321 75.3768 43.7265 75.4287 43.7265 75.474C44.8188 72.0533 46.9286 69.0472 49.7741 66.857C46.4215 68.2117 42.7325 68.4989 39.2105 67.6795C41.9965 69.1432 43.7436 72.0288 43.7491 75.1759ZM30.9143 67.9059C31.4538 67.2079 31.7443 66.3477 31.7405 65.4611C31.7405 64.7556 31.5519 64.0577 31.1897 63.454C32.7005 64.8755 34.4552 66.013 36.3696 66.8118C35.9999 66.7476 35.6226 66.7175 35.2454 66.7212C33.7211 66.7172 32.2243 67.1266 30.9143 67.9059ZM29.907 75.1759C29.907 78.1242 32.297 80.5143 35.2454 80.5143C38.1937 80.5143 40.5838 78.1242 40.5838 75.1759C40.5838 72.2256 38.1805 69.8488 35.2454 69.8488C33.83 69.8438 32.4709 70.4031 31.469 71.4029C30.4671 72.4026 29.9049 73.7605 29.907 75.1759ZM39.3532 82.6659C39.2825 82.6767 39.2126 82.6873 39.1426 82.695C40.912 81.782 42.2966 80.2766 43.0625 78.4431C42.9606 79.2052 42.9078 79.9786 42.9002 80.752C42.9046 82.138 43.0744 83.5185 43.4058 84.8643C42.7191 83.491 41.3195 82.627 39.784 82.6233C39.6339 82.6233 39.4922 82.6448 39.3533 82.6659L39.3532 82.6659ZM23.399 65.0763C23.5864 62.9217 25.3863 61.2658 27.549 61.2583C28.3073 61.2621 29.0543 61.4771 29.6995 61.877C25.6794 57.1369 24.4917 50.613 26.5832 44.7602C23.6207 51.0931 22.5165 58.1369 23.399 65.0725V65.0763ZM25.7436 64.4204C26.1168 63.7767 26.805 63.381 27.549 63.3824C28.6992 63.3844 29.6299 64.3185 29.6278 65.4687C29.6257 66.6188 28.6916 67.5495 27.5415 67.5475C26.7974 67.5461 26.1106 67.1479 25.7398 66.5029C25.369 65.8579 25.3704 65.064 25.7436 64.4204ZM26.7718 75.1759C26.7718 72.9877 27.6245 70.8901 29.1524 69.3282C27.0333 70.195 24.6098 69.2096 23.697 67.1098C24.3384 70.626 25.4438 73.9649 26.9982 77.0698C26.852 76.449 26.7761 75.8137 26.7718 75.1759ZM29.4957 81.367C31.6423 83.3616 34.6673 84.105 37.4939 83.3325V83.3363C36.3772 84.0909 35.7056 85.3472 35.7056 86.694C35.7128 87.6298 36.0449 88.534 36.645 89.252C33.9023 86.9732 31.4953 84.321 29.4957 81.367ZM37.8146 86.6903C37.8146 87.7779 38.6963 88.6596 39.784 88.6596C40.8716 88.6596 41.7533 87.7779 41.7533 86.6903C41.7533 85.6026 40.8716 84.7209 39.784 84.7209C38.6963 84.7209 37.8146 85.6026 37.8146 86.6903ZM43.8434 86.3281C45.6701 91.7204 49.9878 95.899 55.437 97.5482C49.121 96.672 43.1339 94.1954 38.0447 90.3536C39.3055 90.9637 40.7913 90.8828 41.9784 90.1394C43.1655 89.3961 43.8871 88.0947 43.8887 86.694C43.8887 86.6206 43.8761 86.5545 43.8643 86.4918C43.8536 86.4353 43.8434 86.3817 43.8434 86.3281ZM74.9156 80.752C74.9156 72.7915 68.4624 66.3383 60.5019 66.3383C52.5414 66.3383 46.0882 72.7915 46.0882 80.752C46.1048 88.7015 52.5505 95.1387 60.5 95.145C68.4475 95.1304 74.889 88.6957 74.9118 80.7482L74.9156 80.752ZM82.9711 90.355L82.9817 90.3498H82.9779L82.9711 90.355ZM82.9711 90.355C81.7112 90.964 80.2265 90.884 79.0392 90.1423C77.8514 89.3994 77.1321 88.0951 77.1377 86.694C77.1415 86.5709 77.1566 86.4484 77.183 86.3281C75.3556 91.7213 71.0363 95.9001 65.5856 97.5482C71.8967 96.6621 77.879 94.1869 82.9711 90.355ZM83.1892 86.6903C83.1892 85.6031 82.3082 84.7216 81.2211 84.7209C80.1339 84.7202 79.2518 85.6006 79.2505 86.6878C79.2491 87.7749 80.1289 88.6575 81.216 88.6596C82.2988 88.6514 83.1751 87.7768 83.1854 86.694L83.1892 86.6903ZM91.4974 81.3771C91.4997 81.375 91.502 81.3729 91.5043 81.3707V81.367C91.502 81.3703 91.4997 81.3737 91.4974 81.3771ZM91.4974 81.3771C89.3512 83.3669 86.329 84.1067 83.5061 83.3325C84.6228 84.0871 85.2944 85.3472 85.2944 86.6903C85.2944 87.675 84.9284 88.5427 84.3549 89.252C87.0954 86.9771 89.5 84.3259 91.4974 81.3771Z" fill="white"/>
</svg>
