<svg width="120" height="120" viewBox="0 0 120 120" fill="none" xmlns="http://www.w3.org/2000/svg">
<circle cx="60" cy="60" r="60" fill="#EDF0F4"/>
<path fill-rule="evenodd" clip-rule="evenodd" d="M38.3574 63.9012C38.3574 76.0469 48.2205 85.9099 60.3661 85.9099C72.5118 85.9099 82.3748 76.0469 82.3748 63.873C82.3748 52.0656 62.1133 31.2122 61.2397 30.3387L60.1689 29.2678L59.1262 30.3668C58.2808 31.2404 38.3574 52.0937 38.3574 63.9012ZM51.1512 44.2878C54.7865 39.4972 58.4499 35.4111 60.197 33.523C61.9724 35.4111 65.7204 39.5254 69.412 44.2878C75.9779 52.7982 79.4441 59.5615 79.4441 63.873C79.4441 74.3842 70.8773 82.951 60.3661 82.951C49.8549 82.951 41.2882 74.3842 41.2882 63.873C41.2882 59.5615 44.698 52.7982 51.1512 44.2878Z" fill="url(#paint0_linear)"/>
<path d="M60.3662 92.955C44.3317 92.955 31.3125 79.9075 31.3125 63.9012C31.3125 48.2331 53.1803 26.3653 54.1102 25.4635C54.6738 24.8999 55.632 24.8999 56.1956 25.4635C56.7592 26.0271 56.7592 26.9852 56.1956 27.5488C55.9701 27.7743 34.2714 49.473 34.2714 63.9012C34.2714 78.3013 45.9944 90.0242 60.3944 90.0242C74.7945 90.0242 86.5174 78.3013 86.5174 63.9012C86.5174 57.9834 82.6849 49.8111 75.4144 40.2017C69.8348 32.8467 64.2269 27.267 64.1706 27.2107C63.5788 26.6471 63.5788 25.7171 64.1706 25.1253C64.7342 24.5335 65.6641 24.5335 66.2559 25.1253C67.214 26.0553 89.4763 48.2049 89.4763 63.9012C89.42 79.9075 76.4007 92.955 60.3662 92.955Z" fill="url(#paint1_linear)"/>
<path d="M60.3661 100C40.8654 100 25 84.1346 25 64.6339C25 56.5744 29.0579 46.655 37.0329 35.1856C42.9226 26.7316 48.6995 20.701 48.9531 20.4474C49.5167 19.8556 50.4467 19.8556 51.0385 20.4192C51.6302 20.9828 51.6302 21.9128 51.0666 22.5046C51.0103 22.5609 45.177 28.6478 39.4282 36.9046C31.9041 47.6976 27.9307 57.2789 27.9307 64.6339C27.9307 82.5001 42.4717 97.0693 60.3661 97.0693C78.2605 97.0693 92.8015 82.5283 92.8015 64.6339C92.8015 57.2789 88.7999 47.6976 81.2194 36.9046C75.4143 28.6478 69.5246 22.5609 69.4683 22.5046C68.9047 21.9128 68.9047 20.9828 69.4965 20.4192C70.0882 19.8556 71.0182 19.8556 71.5818 20.4474C72.5681 21.4619 95.7322 45.5278 95.7322 64.6339C95.7322 84.1346 79.8668 100 60.3661 100Z" fill="url(#paint2_linear)"/>
<defs>
<linearGradient id="paint0_linear" x1="82.3748" y1="85.9065" x2="82.3748" y2="29.2643" gradientUnits="userSpaceOnUse">
<stop stop-color="#05AAC5"/>
<stop offset="1" stop-color="#71E0EC"/>
</linearGradient>
<linearGradient id="paint1_linear" x1="89.4763" y1="92.9515" x2="89.4763" y2="24.678" gradientUnits="userSpaceOnUse">
<stop stop-color="#05AAC5"/>
<stop offset="1" stop-color="#71E0EC"/>
</linearGradient>
<linearGradient id="paint2_linear" x1="95.7322" y1="99.9966" x2="95.7322" y2="19.9965" gradientUnits="userSpaceOnUse">
<stop stop-color="#05AAC5"/>
<stop offset="1" stop-color="#71E0EC"/>
</linearGradient>
</defs>
</svg>
