<svg width="120" height="120" viewBox="0 0 120 120" fill="none" xmlns="http://www.w3.org/2000/svg">
<circle cx="60" cy="60" r="60" fill="#1C1C1C"/>
<path fill-rule="evenodd" clip-rule="evenodd" d="M69.6572 42.1534C70.5312 41.4822 70.777 39.9555 70.9958 38.5961L71.0251 38.4146C71.0251 38.1784 71.0251 37.0084 72.1656 37.0084C72.7392 36.8915 73.6012 38.0159 74.5487 39.2519C75.4854 40.4738 76.5058 41.8048 77.4137 42.1534C78.0958 45.1946 77.6373 48.2359 75.36 48.4721C72.1656 48.9371 70.5704 44.7296 69.6572 42.1534ZM49.3582 38.4146C49.3582 39.8171 49.5893 41.4521 50.7261 42.1534C49.8167 44.9621 47.9903 48.7046 45.0233 48.4721C42.9733 48.2359 42.5186 44.7296 42.9733 42.1534C44.0276 41.7927 45.0227 40.4424 45.9267 39.2156C46.7806 38.0569 47.5532 37.0084 48.2176 37.0084C49.3582 37.0084 49.3582 38.1784 49.3582 38.4146ZM38.6384 42.1534C37.9563 41.4521 38.1837 40.0496 38.6384 38.6471C38.6384 38.6471 39.0969 37.4771 38.4148 37.2446C37.7769 37.2446 36.5031 38.6256 35.2636 39.9694C34.2797 41.0361 33.3174 42.0793 32.712 42.3896C32.4809 42.8546 30.6583 48.2359 32.9357 48.7046C34.9894 48.9408 37.2705 44.9621 38.6384 42.1534ZM26.9902 41.24C26.5509 41.7261 26.224 42.0879 26.096 42.1534C23.8149 45.6634 23.8149 48.7009 24.7281 48.7009C25.741 48.7009 28.3708 44.0928 29.4271 42.242C29.5602 42.0087 29.6683 41.8193 29.7451 41.6884C29.6338 41.116 30.1773 40.2637 30.6546 39.5151C31.1531 38.7333 31.5795 38.0646 31.113 37.9459C29.9666 37.9459 28.112 39.9985 26.9902 41.24ZM37.9563 54.3183C39.779 54.3183 41.1507 52.2146 42.5149 48.4721H42.5186C41.8328 47.5346 40.9196 45.8959 41.378 42.3896H39.779L39.77 42.408C38.6313 44.7443 37.2695 47.5383 35.4479 48.9371C35.4479 49.4058 35.6752 54.3183 37.9563 54.3183ZM40.4648 54.7871C41.378 54.3183 43.2007 51.7458 44.1139 49.4058C45.0271 49.8746 45.9403 49.8746 47.0771 49.6383C47.5355 52.2146 48.2176 53.8496 49.8167 54.7871C49.1308 58.9946 47.7629 63.2058 44.7997 63.2058C42.0601 63.2058 40.6922 57.5921 40.4648 54.7871ZM28.8319 54.7871C30.365 54.1985 31.4148 51.3005 31.8469 50.1076L31.8469 50.1076C31.9296 49.8794 31.9897 49.7136 32.0262 49.6383C32.5458 50.1071 33.3329 50.1071 33.8526 49.6383C33.8526 52.6796 34.762 54.0858 35.4479 54.5508C34.762 58.5258 33.8488 63.2058 31.7951 63.2058C29.9724 63.2058 29.0592 58.9946 28.8319 54.7871ZM58.9374 49.8746L58.9408 49.876C58.0274 53.3812 55.9741 54.7871 55.2884 55.2558C55.2884 56.4221 56.8874 63.2058 60.078 63.2058C62.3591 63.2058 64.4128 61.1021 65.0949 55.2521C63.9581 54.3183 62.8175 52.2146 62.1317 49.8746C61.2194 50.1069 60.0802 50.3429 58.9408 49.876L58.9411 49.8746H58.9374ZM55.5157 70.4583C56.8874 69.2883 57.7968 67.417 58.9374 64.3758C59.8506 64.8446 61.2185 64.6083 62.1317 64.3758C62.8175 67.6495 63.4996 69.757 65.0949 70.6908C64.6402 74.4333 62.3591 77.0058 60.3053 77.0058C57.3421 77.0058 55.9742 72.3295 55.5157 70.4583ZM37.729 71.1595C38.1837 74.6695 38.1837 76.537 37.2705 77.707H37.2742C38.4111 79.5783 40.6922 82.6195 43.2007 81.4495C43.8865 81.217 44.1139 79.3458 43.8865 77.707C42.0601 76.537 40.9196 74.4333 39.5554 71.1595C39.0969 71.392 38.4111 71.392 37.729 71.1595ZM27.6913 71.392C28.1498 71.392 28.3771 71.392 28.8319 71.6283C30.4309 75.8358 33.1667 78.1758 33.1667 78.1758C34.0799 80.047 34.5347 81.9183 33.8488 81.9183C31.7988 82.1508 30.1998 80.7483 28.6045 77.707C28.7684 77.2017 28.6961 76.8171 28.3011 74.7162L28.3011 74.7162C28.148 73.9017 27.9464 72.8293 27.6913 71.392ZM27.9224 80.2795C28.1498 80.7483 23.8149 81.217 21.5338 71.392C21.5338 71.1333 21.7514 71.5749 22.1291 72.3411C22.775 73.6517 23.8891 75.9121 25.1828 77.242C26.096 77.9433 27.0092 78.6445 27.9224 80.2795ZM49.3582 77.707C50.9572 76.537 51.1846 73.9645 51.412 70.6945C52.3251 70.9233 53.462 70.9233 54.1478 70.6945C54.6063 72.7945 55.2884 75.8358 57.3421 77.242C57.1147 79.8145 56.4289 81.217 54.8336 81.4495C53.6931 81.9183 50.4988 81.9183 49.3582 77.707ZM29.746 70.457L29.7451 70.4583V70.4545L29.746 70.457ZM35.4479 77.242C33.3986 77.242 30.6602 72.7977 29.746 70.457C30.6584 69.287 30.8857 67.4161 31.113 64.8446C31.7988 65.0771 32.712 65.0771 33.163 64.8446C33.8488 67.882 34.9894 69.757 36.3611 70.6945C36.8158 75.6033 36.3611 77.242 35.4479 77.242ZM22.6744 70.4583C22.6744 69.9895 22.9017 66.9483 23.1328 64.8446H24.0423C25.1828 69.2883 26.7819 70.6945 26.7819 70.6945C27.9224 76.072 27.9224 77.4745 27.0055 77.0058C24.9555 76.3045 23.3602 72.3295 22.6744 70.4583ZM43.2007 64.8446C42.7459 67.8858 42.0601 69.5208 40.9196 70.4583C41.1507 71.392 43.428 76.072 46.1676 76.7695C49.3582 77.4745 49.5893 73.2633 49.5893 70.6945C47.994 69.757 46.8497 67.882 46.1676 64.8446C45.4818 65.0771 44.3412 65.3096 43.2007 64.8446ZM38.8695 69.757C36.13 69.757 34.5347 65.3096 34.5347 63.9071C35.9026 62.5046 36.5847 59.9321 37.2705 55.4883C37.729 55.7208 38.4111 55.7208 39.0969 55.4883C39.3243 60.4008 40.6922 62.5046 41.8328 63.6746C41.378 67.6495 40.2375 69.757 38.8695 69.757ZM26.0665 58.075C25.1744 62.8133 25.121 63.097 24.7281 63.9071C25.8687 68.587 27.0092 69.757 27.9187 69.757C29.5336 69.757 29.5975 67.5867 29.6616 65.4085C29.679 64.8167 29.6965 64.2242 29.7451 63.6746C29.0592 62.7371 27.6913 60.4008 27.6913 55.4883H26.5545C26.368 56.4736 26.2069 57.3293 26.0666 58.0747L26.0665 58.075ZM20.1659 55.7208C20.4926 55.8334 20.5596 57.2721 20.639 58.9756C20.7262 60.8478 20.8283 63.0399 21.3064 64.1433C21.3064 64.1433 21.3064 69.9895 20.8517 69.5208C17.43 65.3096 19.7111 55.4883 20.1659 55.7208ZM51.412 55.4883C50.044 60.1646 49.1308 62.7371 47.5355 63.9071C47.548 63.9454 47.5639 63.9971 47.5833 64.0606L47.5834 64.0608C47.9196 65.1569 49.3307 69.757 52.7799 69.757C55.061 69.757 56.8874 67.1808 57.3421 63.4383C55.5157 61.5708 54.6063 58.9946 54.1478 55.4883C53.462 55.7208 52.3251 55.7208 51.412 55.4883ZM21.5338 54.7871C21.0791 57.3596 21.5338 63.4383 23.1291 63.4383H23.1328C24.2734 63.4383 25.4102 54.7871 25.4102 54.7871C24.9555 54.0858 24.5007 52.6796 24.7281 49.6383C24.5695 49.8032 24.2984 49.738 24.0718 49.6835C23.9735 49.6599 23.8837 49.6383 23.8149 49.6383C22.9017 52.6796 21.5338 54.7871 21.5338 54.7871ZM31.3404 42.6221C30.1998 45.8959 30.6583 47.5346 31.1167 48.7046C29.2903 53.3808 28.3771 54.5546 27.0092 54.5546C25.6413 54.3183 25.6413 51.5096 26.096 49.1733C27.464 48.2359 30.4309 42.8584 30.4309 42.6221H31.3404ZM24.3274 44.1493C24.7331 43.3311 25.0172 42.7582 24.7281 42.8584C21.3064 45.1946 19.4838 53.6171 20.3932 53.8496C20.6206 54.0858 23.3565 50.1071 23.1328 47.7709C22.9997 46.8267 23.7759 45.2615 24.3274 44.1493ZM57.1147 48.4721C56.4289 51.0446 55.5157 54.3183 51.6393 54.3183C49.5893 54.0858 48.4487 51.2808 47.9903 48.9371C50.2714 47.3021 51.412 44.4934 52.0978 42.3896C52.7799 42.6221 53.9242 42.6221 54.6063 42.3896C55.061 45.8959 56.2016 47.5346 57.1147 48.4721ZM82.2033 71.1595C81.9722 74.6658 81.9722 76.537 82.658 77.707C81.7448 79.582 79.2364 82.387 76.7316 81.4495C75.8147 81.217 75.8147 79.3458 76.0421 77.707C78.0958 76.537 79.4637 74.2008 80.3769 71.1595C80.8317 71.392 81.5175 71.392 82.2033 71.1595ZM92.4646 70.9233C92.0099 71.392 91.5514 71.392 91.324 71.1595C89.7288 75.3708 86.9929 77.707 86.9929 77.707C85.8523 79.8145 85.3939 81.4495 86.3071 81.4495C88.3608 81.4495 89.9561 80.2795 91.5514 77.242C91.3877 76.7345 91.4597 76.3513 91.8536 74.2555L91.8536 74.2553L91.8537 74.2552L91.8537 74.2551L91.8538 74.2546L91.8539 74.2539L91.8546 74.2503L91.8551 74.2474L91.8555 74.2453C92.0085 73.4311 92.2099 72.3594 92.4646 70.9233ZM94.2906 77.8836L94.2905 77.8837C93.617 78.4849 92.9781 79.0553 92.4646 80.2795C92.2372 80.7483 96.5721 81.217 98.8495 71.392C98.6327 71.0577 98.2073 71.8931 97.5994 73.0873C96.9324 74.3975 96.0456 76.1395 94.9731 77.242H94.9768C94.7465 77.4766 94.5167 77.6818 94.2907 77.8835L94.2907 77.8835L94.2906 77.8836L94.2906 77.8836ZM70.7977 78.1758C69.4298 76.537 68.744 73.9645 68.744 71.1595C67.8345 71.392 66.9213 71.392 66.0081 71.1595C65.5534 73.2633 64.6402 76.072 62.8175 77.707C63.2723 80.047 63.727 81.4495 65.326 81.9183C66.4666 82.1508 69.6572 82.1508 70.7977 78.1758ZM89.2703 64.6083C89.2703 67.417 89.5014 69.2883 90.6419 70.222C89.7288 72.562 86.7655 77.0095 84.9392 77.0095C84.026 77.0095 83.5712 75.3708 84.026 70.4583C85.3939 69.5208 86.5344 67.1808 87.2203 64.6083C87.8569 64.9677 88.6336 64.9677 89.2703 64.6083ZM97.94 70.6908C97.4816 69.9895 97.4816 66.952 97.4816 65.0771H96.5721C95.4315 69.2883 93.8325 70.9233 93.8325 70.9233C92.692 76.072 92.4646 77.4745 93.6052 77.242C95.1695 76.6414 96.5643 73.6391 97.5061 71.6118L97.5066 71.6108L97.5078 71.6082C97.6649 71.2699 97.8095 70.9589 97.94 70.6908ZM77.1826 64.6083C77.6411 67.8858 78.0958 69.5208 79.4637 70.222C79.2401 71.392 76.7279 76.072 74.2194 76.537C71.0251 77.242 70.7977 72.7945 70.7977 70.4583C72.393 69.5208 73.5336 67.417 74.2194 64.6083C74.9052 64.8446 76.0458 65.0771 77.1826 64.6083ZM81.5175 69.757C83.7986 69.757 85.6213 65.3096 85.8523 63.9071C84.7118 62.5046 84.026 59.6996 83.1165 55.4883C82.53 55.7226 81.8766 55.7226 81.2901 55.4883C81.0628 60.4008 79.6948 62.7371 78.5543 63.6746C79.009 67.417 80.1496 69.757 81.5175 69.757ZM93.8325 55.4883C94.9242 62.4261 95.1793 62.9401 95.6011 63.7901L95.6184 63.825L95.6589 63.9071C94.5184 68.3508 93.3778 69.757 92.4646 69.757C90.8609 69.757 90.79 67.4666 90.7246 65.3491C90.7063 64.7598 90.6885 64.184 90.6382 63.6746C91.5514 62.7371 92.692 60.4008 92.692 55.4883C92.9882 55.6386 93.188 55.5947 93.4149 55.5448C93.5392 55.5174 93.6716 55.4883 93.8325 55.4883ZM99.4971 58.0134V58.0134C99.42 60.0578 99.318 62.7655 98.6221 63.9071C98.6221 63.9071 98.6221 69.757 99.0806 69.2883C102.499 65.5458 100.449 55.2521 99.7627 55.4883C99.5854 55.6711 99.5463 56.7068 99.4971 58.0134ZM69.4298 55.4883C70.1156 60.1646 71.2562 62.7371 73.3062 63.9071C73.0788 64.6083 71.2562 69.757 68.0619 69.757C65.5534 69.9895 64.1855 66.9483 63.4996 63.4383C65.0949 61.5708 66.2355 58.9946 66.6939 55.4883C67.1487 55.7208 68.2892 55.7208 69.4298 55.4883ZM91.324 55.2521C89.7288 54.0858 88.3608 50.1071 88.3608 49.6383H88.3571C87.7564 50.058 86.9866 50.1467 86.3071 49.8746C86.3071 52.6796 85.3939 54.3183 84.7081 55.0196C85.3939 59.2308 86.3071 63.6746 88.3608 63.6746C90.1835 63.6746 91.324 59.2271 91.324 55.2521ZM98.6221 54.7871C98.8495 57.3596 98.3948 63.4383 97.2542 63.2058C96.1136 63.2058 94.9731 54.5508 94.9731 54.5508C95.4315 53.8496 95.8863 52.2146 95.6589 49.6383C95.9184 49.8736 96.3126 49.8736 96.5721 49.6383C97.4816 52.6796 98.6221 54.7871 98.6221 54.7871ZM80.1496 55.0196C78.7816 54.3183 77.1826 51.7458 76.2731 49.6383C75.3562 50.1071 74.2194 50.1071 73.3062 49.8746C73.0788 52.2146 72.1656 54.0821 70.7977 55.0196C71.4835 59.4633 72.393 63.6746 75.8147 63.4383C78.3232 63.4383 79.9222 57.8283 80.1496 55.0196ZM81.9759 54.0858C80.3769 54.3183 79.009 52.2108 77.4137 48.4721C78.3232 47.5346 79.009 45.6634 78.5543 42.3896C79.2364 42.6221 79.6948 42.6221 80.1496 42.3896C81.5175 44.9621 82.8854 47.5346 84.4807 48.7046C84.4807 49.4058 84.2571 54.0858 81.9722 54.0858H81.9759ZM89.2708 48.4699L89.2703 48.4721V48.4683L89.2708 48.4699ZM92.9193 54.3183C91.7826 54.3183 90.8695 53.1486 89.2708 48.4699L89.2854 48.4109C89.52 47.4636 89.9268 45.8208 88.5882 42.3896H89.5014C89.5014 42.6221 92.692 48.2396 93.8325 48.9371C94.291 51.5096 94.291 54.0858 92.9193 54.3183ZM97.0231 47.7671C97.2017 46.5037 95.8802 44.1208 95.3752 43.2101L95.3752 43.21L95.3749 43.2096C95.2266 42.9421 95.1488 42.8018 95.2005 42.8546C98.8532 45.1946 100.221 53.6171 99.5353 53.8496C99.308 54.0858 96.7995 49.8746 97.0268 47.7671H97.0231ZM63.0449 48.4721C63.727 51.0446 64.6402 54.3183 68.0619 54.0858H68.0581C70.343 53.8496 71.4835 51.5096 71.7109 48.7046C69.8883 47.3021 68.744 44.4934 68.0619 42.3896C67.3798 42.6221 66.2355 42.6221 65.5534 42.3896C65.326 45.6634 64.1855 47.7671 63.0449 48.4721ZM93.8671 41.9409L93.8671 41.9409L93.8673 41.9412L93.8694 41.9435L93.871 41.9453C93.9689 42.0544 94.0344 42.1273 94.0599 42.1534C96.5721 45.8959 96.5721 48.7046 95.6589 48.7046C94.496 48.7046 92.1776 44.4769 91.0896 42.493L91.0891 42.4921L91.0874 42.4891L91.0872 42.4886L91.0866 42.4876L91.0864 42.4872C90.896 42.1401 90.7436 41.8622 90.642 41.6884C90.7548 41.0982 90.1735 40.1513 89.6862 39.3577C89.2075 38.5778 88.8195 37.9459 89.2703 37.9459C90.2814 37.9459 93.0852 41.0698 93.8671 41.9409ZM81.7486 38.6471C82.2033 40.0534 82.2033 41.4521 81.7486 42.1534H81.7448C81.8313 42.3162 81.9205 42.4855 82.0123 42.6598L82.0127 42.6606C83.3736 45.2444 85.3109 48.9224 87.4476 48.7046C89.725 48.2396 87.9024 42.8584 87.675 42.3896C87.0692 42.079 86.1051 41.0344 85.1199 39.9668C83.8805 38.6239 82.6076 37.2446 81.9722 37.2446C81.4391 37.2446 81.6027 37.9594 81.6996 38.3827C81.7267 38.5009 81.7486 38.5964 81.7486 38.6471ZM62.4762 39.7702C61.9113 38.3868 61.3484 37.0084 60.078 37.0084C58.8015 37.0084 58.4117 38.1022 57.9743 39.3297C57.5534 40.5109 57.0884 41.8159 55.7468 42.3896C55.9742 44.4934 56.6563 48.7046 59.8506 48.7046C63.4996 48.7046 64.1855 43.5596 64.1855 42.3896C63.3763 41.9743 62.9256 40.8706 62.4762 39.7702Z" fill="white"/>
</svg>
