<svg width="120" height="120" viewBox="0 0 120 120" fill="none" xmlns="http://www.w3.org/2000/svg">
<circle cx="60" cy="60" r="60" fill="#F2941B"/>
<path fill-rule="evenodd" clip-rule="evenodd" d="M62.3651 19H62.3236C62.7906 22.7858 63.0773 26.6103 63.3629 30.4205C63.4942 32.172 63.6253 33.9204 63.7735 35.6606C64.0439 37.333 64.1862 39.0235 64.1991 40.7174L78.6116 55.0392C75.6726 59.2344 72.697 63.4207 69.7187 67.6105C66.3008 72.4189 62.8795 77.232 59.5067 82.0686C59.7206 84.4824 59.9253 86.8966 60.13 89.3111C60.5379 94.1215 60.9459 98.9331 61.4273 103.745L105 42.204H85.6427C83.1797 39.7476 80.7209 37.2878 78.2622 34.8281C72.9763 29.5402 67.6909 24.2526 62.3651 19ZM42.1527 42.6144C33.1307 55.3532 24.1107 68.0893 15.0414 80.7922H15V80.9649C18.5258 80.8955 22.0517 80.9016 25.5769 80.9077C28.5319 80.9128 31.4864 80.918 34.4401 80.8786L57.5898 104H57.6801C57.2057 99.2563 56.8051 94.4933 56.4061 89.7488C56.1937 87.2242 55.9818 84.7048 55.7595 82.1963C52.5887 79.0923 49.457 75.9526 46.3376 72.8253C44.7147 71.1982 43.0951 69.5744 41.475 67.9608C44.2457 64.0315 47.0243 60.1179 49.8039 56.203C53.398 51.1409 56.9937 46.0765 60.5762 40.9727L58.7422 19.214C53.2038 27.0105 47.6779 34.8129 42.1527 42.6144Z" fill="white"/>
</svg>
