<svg width="120" height="120" viewBox="0 0 120 120" fill="none" xmlns="http://www.w3.org/2000/svg">
<circle cx="60" cy="60" r="60" fill="#EDF0F4"/>
<path fill-rule="evenodd" clip-rule="evenodd" d="M70.0196 21.391V23.6972C70.0196 24.3458 69.7079 24.8791 68.7313 25.0035C55.9395 25.6644 45.7121 35.8785 45.0347 48.6695C44.9973 49.409 44.3878 49.9901 43.6473 49.992H41.305C40.842 49.992 40.0546 49.7379 40.0204 48.7632C40.6581 33.2282 53.0482 20.7491 68.5782 20H68.634C69.4005 20.002 70.0206 20.6244 70.0196 21.391ZM51.1714 50.0028H48.9391L48.9337 49.9902H48.8418C48.0737 49.9382 47.493 49.2737 47.5445 48.5055C48.2894 37.2392 57.2615 28.2655 68.5277 27.5187C68.5583 27.5169 68.589 27.5169 68.6196 27.5187C69.3891 27.5177 70.014 28.1402 70.016 28.9097V31.2015C70.052 31.8904 69.5278 32.4804 68.8394 32.5258C60.1369 33.1119 53.1912 40.0108 52.5462 48.7091C52.4971 49.4337 51.8976 49.9979 51.1714 50.0028ZM70.0142 36.4374V38.7382C70.0142 39.6751 69.1998 40.0139 68.8034 40.0607C64.2454 40.6177 60.6503 44.2032 60.0811 48.7596C59.9984 49.4623 59.4049 49.9932 58.6974 49.9974H56.465C55.6995 50.0004 55.0762 49.3828 55.0722 48.6173C55.0695 48.5729 55.0695 48.5283 55.0722 48.4839C55.7913 41.3874 61.4025 35.7755 68.4989 35.0555C68.8645 35.0214 69.2286 35.134 69.5111 35.3685C69.7936 35.6031 69.9714 35.9403 70.0052 36.3059C70.0079 36.3509 70.0079 36.396 70.0052 36.441L70.0142 36.4374ZM94.9901 68.6618C95.1162 69.6365 95.6495 69.95 96.2982 69.95L98.6098 69.9392H98.6657C99.4317 69.9089 100.028 69.2639 99.999 68.4978C99.2462 52.968 86.7654 40.5802 71.2304 39.9436C70.2574 39.9778 70.0034 40.7652 70.0034 41.2283V43.5705C70.0034 44.3111 70.5844 44.9214 71.324 44.9579C84.1166 45.6381 94.3303 55.8682 94.9901 68.6618ZM69.9926 48.8695C69.9926 48.5 70.1396 48.1456 70.4012 47.8847C70.6629 47.6237 71.0176 47.4776 71.3871 47.4785C71.4183 47.4768 71.4496 47.4768 71.4808 47.4785C82.7526 48.2194 91.7319 57.1956 92.4766 68.4672C92.5271 69.2343 91.9481 69.8979 91.1812 69.9518H91.0893H88.8065C88.1176 69.9878 87.5276 69.4636 87.4822 68.7753C86.895 60.0722 79.9944 53.127 71.2952 52.4838C70.5702 52.4365 70.0056 51.8357 70.0034 51.1091L69.9926 48.8695ZM81.2607 69.95H83.5471L83.5562 69.932C83.6 69.9347 83.6439 69.9347 83.6877 69.932C84.4483 69.8616 85.008 69.1882 84.9381 68.4275C84.218 61.3321 78.6069 55.7218 71.5114 55.0027C71.467 55 71.4225 55 71.3781 55.0027C71.0106 55.0046 70.659 55.1524 70.4005 55.4136C70.142 55.6748 69.9978 56.028 69.9998 56.3954V58.635C70.0025 59.3428 70.5344 59.9366 71.2376 60.0169C75.7934 60.586 79.3787 64.1802 79.9364 68.7374C79.9851 69.1356 80.322 69.95 81.2607 69.95ZM23.7001 49.9884C24.3487 49.9884 24.882 50.3001 25.0082 51.2748C25.6691 64.0693 35.8859 74.2986 48.6796 74.9751C49.4184 75.0134 49.9984 75.6226 50.0003 76.3625V78.7047C50.0003 79.1696 49.7462 79.957 48.7733 79.9894C33.2372 79.3556 20.7541 66.9678 20.0011 51.437C19.9865 51.0693 20.1185 50.7108 20.3683 50.4405C20.618 50.1702 20.9649 50.0101 21.3326 49.9956H21.3902L23.7001 49.9884ZM49.5952 72.0527C49.8571 71.7922 50.0047 71.4383 50.0057 71.0689L50.0003 68.8365C49.9981 68.1099 49.4335 67.5092 48.7084 67.4618C40.0096 66.8178 33.1094 59.8731 32.5215 51.1703C32.478 50.4805 31.8874 49.9543 31.1972 49.9902H28.8171C28.4488 50.016 28.1059 50.1872 27.864 50.466C27.622 50.7448 27.5008 51.1084 27.527 51.4766C28.2749 62.7435 37.2503 71.715 48.5175 72.4581H48.6093C48.9787 72.459 49.3334 72.3132 49.5952 72.0527ZM36.4511 49.9884H38.7393C39.678 49.9884 40.015 50.8028 40.0636 51.1992C40.6218 55.7565 44.2067 59.351 48.7625 59.9215C49.4654 60.001 49.9975 60.5942 50.0003 61.3016V63.5412C50.0013 64.3056 49.3845 64.9272 48.6202 64.9321H48.4886C41.3924 64.2123 35.7809 58.6016 35.0602 51.5055C35.0262 51.1382 35.1403 50.7725 35.3771 50.4897C35.6139 50.2069 35.9538 50.0303 36.3214 49.9992H36.4529L36.4511 49.9884ZM51.2994 94.9872C50.3246 95.1115 50.0129 95.6448 50.0129 96.2935H50.0147V98.6646C50.0459 99.4301 50.6904 100.026 51.4561 99.9979C66.9857 99.247 79.3745 86.7675 80.0121 71.2329C79.9779 70.2581 79.1905 70.0041 78.7275 70.0041H76.3852C75.6443 70.0051 75.0343 70.5866 74.9978 71.3266C74.3152 84.115 64.0889 94.325 51.2994 94.9872ZM71.0934 69.9879C71.4628 69.9878 71.8169 70.1349 72.0776 70.3966C72.3383 70.6583 72.484 71.013 72.4826 71.3824V71.4761C71.7436 82.7487 62.7679 91.7297 51.4957 92.4755C50.728 92.5271 50.0632 91.9477 50.0093 91.1801V91.0882V88.8054C49.9733 88.1165 50.4975 87.5265 51.1858 87.4811C59.888 86.8942 66.8333 79.9957 67.4791 71.2977C67.5256 70.5719 68.1266 70.0064 68.8538 70.0041L71.0934 69.9879ZM50.0129 81.2596V83.5406L50.0255 83.546C50.0229 83.5899 50.0229 83.6338 50.0255 83.6776C50.0571 84.0449 50.2338 84.3846 50.5165 84.6213C50.7992 84.858 51.1646 84.9723 51.5318 84.9388C58.6271 84.2185 64.238 78.609 64.9603 71.5139V71.3788C64.9563 70.6143 64.3338 69.9975 63.5693 70.0005H61.3297C60.6222 70.004 60.0289 70.5355 59.9478 71.2383C59.3767 75.7938 55.7825 79.3784 51.2255 79.9371C50.8291 79.984 50.0129 80.3227 50.0129 81.2596Z" fill="#FF5C00"/>
</svg>
