<svg width="120" height="120" viewBox="0 0 120 120" fill="none" xmlns="http://www.w3.org/2000/svg">
<circle cx="60" cy="60" r="60" fill="#EDF0F4"/>
<path d="M31.6866 34H69.9418C70.0563 34 70.1543 34.032 70.2361 34.0961L85.7997 45.303C86.0286 45.4631 86.0613 45.7672 85.8978 45.9914C85.7997 46.1195 85.6526 46.1835 85.4891 46.1835H45.0923C44.8144 46.1835 44.5855 46.4076 44.5855 46.6798V61.0406C44.5855 61.3128 44.8144 61.5369 45.0923 61.5369H70.841C71.1189 61.5369 71.3478 61.7611 71.3478 62.0333V72.5037C71.3478 72.7759 71.1189 73 70.841 73H31.5068C31.2289 73 31 72.7759 31 72.5037L31.1798 34.5123C31.1798 34.2241 31.3924 34.016 31.6866 34C31.6866 34 31.6703 34 31.6866 34Z" fill="#0E67AE"/>
<path d="M87.321 88H47.9574C47.8442 88 47.7472 87.9674 47.6664 87.9023L33.198 77.1269C32.9717 76.9641 32.9394 76.6548 33.101 76.427C33.198 76.2967 33.3435 76.2316 33.5052 76.2316H74.0813C74.3561 76.2316 74.5824 76.0038 74.5824 75.727V59.8894C74.5824 59.6127 74.3561 59.3848 74.0813 59.3848H48.992C48.7172 59.3848 48.4909 59.1569 48.4909 58.8965V49.5046C48.4909 49.2279 48.7172 49 48.9758 49H87.4989C87.7737 49 88 49.2279 88 49.5046L87.8222 87.5117C87.806 87.7884 87.5959 88 87.321 88Z" fill="#0E67AE"/>
<path fill-rule="evenodd" clip-rule="evenodd" d="M14 60C14 34.5949 34.5949 14 60 14C85.4051 14 106 34.5949 106 60C106 85.4051 85.4051 106 60 106C34.5949 106 14 85.4051 14 60ZM101.753 60C101.753 36.9405 83.0595 18.2472 60 18.2472C36.9405 18.2472 18.2472 36.9405 18.2472 60C18.2472 83.0595 36.9405 101.753 60 101.753C83.0595 101.753 101.753 83.0595 101.753 60Z" fill="#0E67AE"/>
</svg>
