<svg width="120" height="120" viewBox="0 0 120 120" fill="none" xmlns="http://www.w3.org/2000/svg">
<circle cx="60" cy="60" r="60" fill="#E53431"/>
<path fill-rule="evenodd" clip-rule="evenodd" d="M61.3396 20.1867C61.0042 19.935 60.5411 19.9381 60.2092 20.1942L40.6539 34.7912C40.2357 35.1029 40.1505 35.6931 40.4637 36.1095C40.7768 36.5258 41.3698 36.6106 41.7881 36.2989L60.7781 22.1219L88.2082 42.5997H76.2302L56.6109 27.9577C56.3403 27.7561 55.9822 27.7134 55.6715 27.8458C55.3607 27.9782 55.1446 28.2656 55.1044 28.5997C55.0642 28.9338 55.2062 29.2638 55.4767 29.4654L75.3447 44.295C75.5084 44.4155 75.7063 44.4812 75.9099 44.4825H91.0454C91.4521 44.4828 91.8127 44.2224 91.9384 43.8374C92.0725 43.4556 91.9411 43.0314 91.6144 42.791L61.3396 20.1867ZM45.6388 20.0066C45.4346 20.0038 45.2354 20.0699 45.0737 20.1942V20.1979L29.9419 31.502C29.7018 31.6772 29.56 31.9558 29.56 32.2521C29.56 32.5484 29.7018 32.827 29.9419 33.0022L89.478 77.4533L86.1133 79.9661C85.695 80.2768 85.609 80.8662 85.9211 81.2826C86.2333 81.6989 86.8254 81.7845 87.2437 81.4738L91.6182 78.2109C91.8569 78.0324 91.9975 77.7524 91.9975 77.4552C91.9975 77.1579 91.8569 76.8779 91.6182 76.6994L32.0858 32.2408L45.6388 22.1257L49.8061 25.2274C50.0753 25.429 50.4322 25.4724 50.7422 25.3411C51.0523 25.2099 51.2685 24.9239 51.3093 24.591C51.3501 24.2581 51.2095 23.9288 50.9402 23.7271L46.204 20.1942C46.041 20.0724 45.8426 20.0066 45.6388 20.0066ZM34.1205 39.6781C34.5386 39.4266 35.0802 39.532 35.3724 39.9218C35.6646 40.3115 35.612 40.8583 35.2508 41.1858L32.082 43.5486L91.6182 88.0072C91.8583 88.184 92 88.4638 92 88.7611C92 89.0584 91.8583 89.3381 91.6182 89.5149L76.4826 100.815C76.1465 101.062 75.6884 101.062 75.3523 100.815L70.9702 97.5448C70.6997 97.3418 70.5584 97.0105 70.5998 96.6758C70.6411 96.341 70.8587 96.0537 71.1706 95.9219C71.4825 95.7902 71.8413 95.8341 72.1119 96.0371L75.9174 98.8762L89.4818 88.7498L29.9306 44.3025C29.6946 44.123 29.5562 43.8442 29.5562 43.5486C29.5562 43.253 29.6946 42.9743 29.9306 42.7948L34.1129 39.6818L34.1205 39.6781ZM30.5071 76.5119V76.5044C30.1778 76.2627 29.7297 76.2592 29.3966 76.4957C29.0635 76.7322 28.921 77.155 29.0434 77.5436C29.1657 77.9322 29.5253 78.1985 29.9344 78.2034L60.2167 100.8C60.3803 100.924 60.5804 100.99 60.7857 100.988C60.9895 100.988 61.1878 100.922 61.3509 100.8L80.8722 86.2332C81.1428 86.0309 81.2843 85.7003 81.2436 85.3659C81.2028 85.0314 80.986 84.7441 80.6746 84.612C80.3633 84.4799 80.0049 84.5232 79.7343 84.7255L60.7819 98.8725L33.348 78.3947H45.3336L64.7231 92.8754C64.9937 93.0764 65.3514 93.1184 65.6616 92.9857C65.9717 92.8529 66.1872 92.5656 66.2267 92.2318C66.2663 91.8981 66.124 91.5687 65.8535 91.3677L46.2002 76.6994C46.0385 76.5752 45.8393 76.5091 45.6351 76.5119H30.5071Z" fill="white"/>
</svg>
