<svg width="120" height="120" viewBox="0 0 120 120" fill="none" xmlns="http://www.w3.org/2000/svg">
<circle cx="60" cy="60" r="60" fill="#EDF0F4"/>
<path fill-rule="evenodd" clip-rule="evenodd" d="M42.2362 53.0942C41.5919 52.4544 41.2295 51.5838 41.2295 50.6758C41.2295 49.7677 41.5919 48.8972 42.2362 48.2574L61.461 28.9918C62.8101 27.6694 64.9691 27.6694 66.3182 28.9918C67.6406 30.3408 67.6406 32.4999 66.3182 33.849L47.073 53.0942C46.4332 53.7385 45.5627 54.1009 44.6546 54.1009C43.7465 54.1009 42.876 53.7385 42.2362 53.0942Z" fill="#242328"/>
<path fill-rule="evenodd" clip-rule="evenodd" d="M76.9719 66.176C77.6175 66.8193 77.9804 67.6932 77.9804 68.6046C77.9804 69.516 77.6175 70.3899 76.9719 71.0332L57.7471 90.2784C56.8914 91.1857 55.6106 91.5567 54.4025 91.2474C53.1944 90.938 52.2495 89.9971 51.9351 88.7903C51.6206 87.5835 51.9863 86.3011 52.8899 85.4416L72.1351 66.176C73.4727 64.845 75.6344 64.845 76.9719 66.176ZM40.9918 70.2577C39.6694 68.9086 39.6694 66.7496 40.9918 65.4005L53.2369 53.1554C53.8767 52.511 54.7472 52.1487 55.6553 52.1487C56.5633 52.1487 57.4338 52.511 58.0737 53.1554C59.396 54.5045 59.396 56.6635 58.0737 58.0126L45.8286 70.2577C44.491 71.5887 42.3293 71.5887 40.9918 70.2577Z" fill="#242328"/>
<path fill-rule="evenodd" clip-rule="evenodd" d="M78.2167 48.9921C79.5477 50.3297 79.5477 52.4913 78.2167 53.8289L65.9716 66.074C65.1121 66.9776 63.8297 67.3433 62.6229 67.0288C61.4161 66.7144 60.4752 65.7695 60.1658 64.5614C59.8565 63.3533 60.2276 62.0725 61.1348 61.2168L73.3799 48.9717C74.0197 48.3273 74.8902 47.965 75.7983 47.965C76.7063 47.965 77.5768 48.3273 78.2167 48.9717" fill="#A573FF"/>
</svg>
