<svg width="120" height="120" viewBox="0 0 120 120" fill="none" xmlns="http://www.w3.org/2000/svg">
<path d="M60 120C93.138 120 120 93.138 120 60C120 26.862 93.138 0 60 0C26.862 0 0 26.862 0 60C0 93.138 26.862 120 60 120Z" fill="#071377"/>
<path fill-rule="evenodd" clip-rule="evenodd" d="M40.0039 34.9375V36.8748L39.2824 36.9987C37.9574 37.2264 36.3014 37.6831 34.7554 38.2473C27.2955 40.9698 21.6307 48.0699 20.2816 56.3882C18.4047 67.9604 26.103 79.3879 37.618 82.1227C43.7283 83.5738 50.6142 82.3797 55.8624 78.9588C58.8876 76.9868 60.1017 75.4824 63.259 69.7934C65.1159 66.4479 70.4825 55.9403 70.3345 55.9403C70.1989 55.9403 50.9215 68.5012 49.8502 69.2878C48.5407 70.249 47.0622 70.8705 45.1755 71.2528C41.3653 72.0247 37.5364 70.7901 34.603 67.8436C33.1342 66.3682 31.8801 64.0526 31.5498 62.2061C31.2627 60.6013 31.2998 58.1506 31.6302 56.9023C32.4725 53.7182 34.9138 50.7178 37.8624 49.2418C38.7472 48.7989 39.5881 48.4366 39.7311 48.4366C39.9292 48.4366 40.0039 48.9151 40.0454 50.4526L40.1001 52.4686L47.4115 47.7391C51.4327 45.138 54.7902 42.9469 54.8727 42.8702C54.955 42.7934 51.8381 40.6673 47.9461 38.1459C44.054 35.6244 40.6748 33.435 40.4368 33.2807L40.0039 33V34.9375ZM74.8291 36.7877C74.6703 36.8262 73.8911 36.9612 73.0974 37.0878C71.1197 37.4034 67.9241 38.4562 66.0876 39.3975C61.7648 41.613 60.0426 43.5901 56.1187 50.8417C54.1841 54.4168 49.5725 63.4581 49.6507 63.523C49.7201 63.5809 60.6829 56.4888 67.9987 51.6534C72.4286 48.7256 73.5452 48.2481 76.3154 48.0968C78.5969 47.9721 80.0938 48.2663 82.1154 49.2364C85.1739 50.7041 87.729 53.8789 88.3999 57.0453C88.7642 58.7638 88.7545 61.0879 88.3772 62.5505C87.4629 66.0941 84.4441 69.4592 81.0081 70.7647L80.024 71.1387V69.1033C80.024 67.7218 79.9566 67.0901 79.8147 67.1375C79.4739 67.251 65.0307 76.6149 65.034 76.72C65.0372 76.8202 79.5133 86.1955 79.8387 86.3081C79.9493 86.3463 80.024 85.6012 80.024 84.4569V82.5417L80.9885 82.4138C81.519 82.3434 82.7009 82.069 83.6148 81.8043C95.3542 78.4024 102.399 65.742 99.2479 53.7109C98.2316 49.831 96.2106 46.4604 93.0278 43.3379C88.6495 39.0425 83.7942 36.9535 77.8113 36.791C76.3298 36.7505 74.9878 36.7492 74.8291 36.7877Z" fill="white"/>
</svg>
