<svg width="120" height="120" viewBox="0 0 120 120" fill="none" xmlns="http://www.w3.org/2000/svg">
<circle cx="60" cy="60" r="60" fill="url(#paint0_linear)"/>
<path fill-rule="evenodd" clip-rule="evenodd" d="M57.8272 21.6453C54.3434 22.0468 51.1044 23.6364 48.6553 26.1463C46.8164 27.967 45.0747 29.8361 43.2116 31.675C42.279 32.6318 41.3363 33.5624 40.3936 34.5071C39.451 35.4518 38.4112 36.4552 37.4321 37.4464C36.453 38.4376 35.6398 39.3075 34.7335 40.2279C33.3174 41.644 31.9014 43.06 30.4854 44.4902C29.399 45.613 28.337 46.7721 27.2628 47.8928C26.6297 48.5624 25.9479 49.1834 25.3512 49.8874C22.8884 52.8921 21.5424 56.6571 21.542 60.5421C21.542 60.7707 21.542 61.0054 21.5562 61.232C21.6065 63.4628 22.1921 65.6489 23.2635 67.6062C23.8734 68.7891 24.5798 69.9197 25.3754 70.9865C25.9014 71.7269 26.2837 71.7148 26.9756 71.1423C27.1077 71.0324 27.2315 70.9127 27.3458 70.7842C28.0275 70.0661 28.6951 69.35 29.3889 68.6339C30.368 67.6062 31.3714 66.5806 32.3505 65.5408C33.3296 64.501 34.3916 63.356 35.4193 62.2819C35.9088 61.7559 36.4307 61.2704 36.9243 60.7525C37.9742 59.6419 39.0019 58.497 40.0518 57.3985C41.1017 56.3001 42.1657 55.2724 43.1934 54.1982C44.221 53.1241 45.4853 51.8092 46.6425 50.6156C47.7996 49.4221 48.7807 48.4188 49.8549 47.3203C51.2527 45.8739 52.6141 44.3931 53.9978 42.9488C54.8576 42.0647 55.7416 41.2171 56.6013 40.3452C57.7949 39.1517 58.9054 37.9582 60.0767 36.7647C61.248 35.5711 62.1179 34.7701 63.1212 33.7424C65.364 31.4767 67.6034 29.1976 69.8394 26.9049C69.9837 26.7626 70.1188 26.6113 70.2439 26.4518C70.7942 25.7579 70.8407 25.6042 70.161 25.1146C69.1232 24.297 68.0119 23.5771 66.8414 22.9643C64.7725 21.9967 62.5164 21.4954 60.2325 21.4956H60.1192C59.3563 21.4958 58.5942 21.5438 57.8373 21.6392L57.8252 21.6271L57.8272 21.6453ZM77.5892 36.3439H77.4456C75.4622 36.3446 73.5798 37.2185 72.2992 38.733C72.186 38.8583 72.0665 38.9778 71.9412 39.091L68.2878 42.6736C67.0942 43.8692 65.8036 45.1699 64.5494 46.4241C63.5116 47.4619 62.4719 48.4774 61.4462 49.5172C60.4206 50.557 59.3201 51.7141 58.2096 52.8004C57.099 53.8867 55.9176 55.0256 54.7706 56.1443L50.6984 60.2508L43.1286 67.8227C39.7841 71.1807 36.4442 74.532 33.1091 77.8766C32.4658 78.5098 32.4537 78.5927 33.1091 79.2724C34.7092 80.8908 36.3336 82.497 37.8852 84.1274C38.8452 85.145 40.1121 85.82 41.4921 86.0492C42.794 86.3111 44.1391 86.2661 45.4206 85.9177C46.3807 85.6802 47.2669 85.2083 47.9998 84.5442L51.9648 80.7148C52.8953 79.8206 53.84 78.9366 54.7584 78.0283C56.5973 76.2077 58.4118 74.3749 60.2507 72.5664C61.7436 71.0978 63.2729 69.6413 64.7881 68.1726L71.0046 62.114C72.9385 60.2144 74.8845 58.3048 76.8427 56.4053C77.1087 56.0098 77.5726 55.7951 78.0462 55.8482C78.5198 55.9014 78.9246 56.2135 79.0963 56.6581C80.0916 58.1117 80.624 59.8324 80.6236 61.5941C80.6233 61.8954 80.6077 62.1965 80.5771 62.4963C80.4165 64.2723 79.6839 65.9483 78.4894 67.2724C77.0551 68.8139 75.5278 70.2704 74.039 71.7512C72.9769 72.8011 71.8906 73.8287 70.8265 74.8908C69.453 76.2522 68.1037 77.6379 66.7301 78.9993C66.5278 79.2259 66.3377 79.4646 66.1232 79.679L64.774 81.0769C63.7625 82.0883 62.7328 83.0715 61.7396 84.085C60.7463 85.0985 59.6054 86.2839 58.5433 87.3904C58.4483 87.4976 58.341 87.5685 58.246 87.6635C57.0504 88.7741 55.952 89.8887 54.8171 91.0074C54.281 91.5334 53.7672 92.0695 53.2412 92.5954C52.335 93.5158 51.4024 94.4161 50.5305 95.3547C49.9945 95.915 49.9945 96.261 50.6276 96.704C51.6672 97.502 52.7738 98.2086 53.9351 98.8159C56.8239 100.122 60.0252 100.578 63.1637 100.129C66.2788 99.759 69.2013 98.4276 71.5245 96.3196C73.2905 94.768 74.8684 93.0243 76.515 91.3533C77.7085 90.1578 78.9041 88.8813 80.1806 87.6514L83.6317 84.176C84.6836 83.114 85.7214 82.0499 86.7854 81C87.8495 79.9501 89.1725 78.6959 90.366 77.5125C91.5595 76.3291 92.7551 75.1254 93.9486 73.8591C94.9003 72.89 95.7793 71.8521 96.5784 70.7539C98.0682 68.5028 98.9983 65.9283 99.2911 63.2448C99.453 61.9118 99.453 60.5642 99.2911 59.2313C98.936 56.8595 98.0765 54.5914 96.7706 52.5799C95.8314 51.1566 94.7077 49.8642 93.4287 48.7363C90.1212 45.4531 86.8239 42.1457 83.5892 38.7896C82.1632 37.2018 80.1299 36.2944 77.9958 36.2933H77.9513L77.5932 36.3419L77.5892 36.3439Z" fill="white"/>
<defs>
<linearGradient id="paint0_linear" x1="-24.7678" y1="73.3235" x2="71.5285" y2="139.211" gradientUnits="userSpaceOnUse">
<stop stop-color="#FF3B3B"/>
<stop offset="1" stop-color="#FF9914"/>
</linearGradient>
</defs>
</svg>
