<svg width="120" height="120" viewBox="0 0 120 120" fill="none" xmlns="http://www.w3.org/2000/svg">
<circle cx="60" cy="60" r="60" fill="#14C8FF"/>
<path fill-rule="evenodd" clip-rule="evenodd" d="M96.8951 51.3667C97.4201 48.4455 95.9238 44.4667 93.5501 42.543L70.8475 24.1005C68.4738 22.1805 64.1725 21.438 61.2738 22.458L33.4487 32.2305C30.55 33.2505 27.7375 36.483 27.2087 39.423L22.1087 67.638C21.5725 70.5779 23.0725 74.5379 25.4462 76.4617L48.1638 94.9004C50.5338 96.8242 54.8388 97.5592 57.7338 96.5429L85.5551 86.7742C88.4501 85.7579 91.2626 82.5217 91.7951 79.5817L96.8951 51.3667ZM71.0163 49.473L69.8838 55.2105L59.275 55.1955L57.2988 65.178C56.68 68.2717 56.5113 70.0154 59.6988 70.0154H66.8763L65.3763 76.3529H56.7963C51.7263 76.3529 48.4263 71.6204 49.7388 64.9455C50.2675 62.3242 51.8388 55.2217 51.8388 55.2217H47.1963L48.16 50.2755C52.385 48.6436 55.9899 45.7248 58.465 41.9317H61.8963L60.3963 49.4917L71.0163 49.473Z" fill="white"/>
</svg>
