<svg width="120" height="120" viewBox="0 0 120 120" fill="none" xmlns="http://www.w3.org/2000/svg">
<circle cx="60" cy="60" r="60" fill="#302C2C"/>
<path fill-rule="evenodd" clip-rule="evenodd" d="M100.66 59.3491C100.453 58.9288 100.179 58.5451 99.8493 58.2134C92.6738 50.059 78.0702 34 78.0702 34L59.5205 54.3596L40.7331 34.1931C40.7331 34.1931 25.9597 50.3921 18.7201 58.6336C17.777 59.5649 17.777 61.2458 18.622 62.2376C22.3833 66.5382 40.8576 86.9811 40.8576 86.9811L59.4941 66.4852L78.0023 87L100.325 62.2187C100.325 62.2187 100.796 61.7266 100.898 61.3972C101.117 60.7158 100.958 59.9738 100.66 59.3491ZM29.0117 61.6168C28.4081 60.9013 28.6118 59.7769 29.1739 59.0993C31.5355 56.4001 40.9858 46.2279 40.9858 46.2279L54.1521 60.2539L40.9632 74.7305C40.9632 74.7305 32.8899 66.0839 29.0117 61.6168ZM88.3618 63.4377C88.7262 63.022 89.0496 62.572 89.3276 62.0938L89.3238 62.09C89.735 61.2534 89.935 60.2464 89.6218 59.3416C89.5025 58.9671 89.2542 58.6697 89.0097 58.3769C88.9527 58.3086 88.8959 58.2405 88.8409 58.1718C85.4116 53.9886 77.9269 46.2089 77.9269 46.2089L64.9341 60.5L78.1381 74.5866L88.3618 63.4377Z" fill="white"/>
</svg>
