<svg width="120" height="120" viewBox="0 0 120 120" fill="none" xmlns="http://www.w3.org/2000/svg">
<circle cx="60" cy="60" r="60" fill="#EDF0F4"/>
<path d="M99.9267 91.8658V91.826C99.928 91.8084 99.928 91.7906 99.9267 91.773L60.8886 27.5427L60.8355 27.4631C60.689 27.2368 60.4583 27.0781 60.1946 27.0221C59.9308 26.9661 59.6556 27.0174 59.4297 27.1647C59.3105 27.2391 59.2068 27.3359 59.1247 27.4499L59.0716 27.5361C56.4545 31.8597 53.8197 36.1722 51.1672 40.4736C50.6309 41.245 50.6309 42.2685 51.1672 43.0399C54.6729 48.7428 58.1676 54.4479 61.6512 60.1552C62.2337 60.9897 62.2337 62.0991 61.6512 62.9337C55.9085 72.3766 49.8409 82.3036 44.0452 91.7863C43.7804 92.2846 43.9669 92.9032 44.463 93.1722C44.6097 93.2511 44.7738 93.2921 44.9404 93.2915H61.7772C62.1542 93.294 62.5016 93.0871 62.679 92.7544L63.2559 91.7863L71.0609 78.9614C71.1898 78.7227 71.4089 78.5456 71.6694 78.4696C71.9298 78.3936 72.2098 78.425 72.4468 78.5569C72.5889 78.6318 72.7098 78.7412 72.7983 78.8752L80.5303 91.4746L81.2465 92.6483C81.4267 92.9743 81.7692 93.1773 82.1417 93.1788H82.6125C82.692 93.1855 82.7718 93.1855 82.8513 93.1788H98.9785C99.5399 93.1788 99.996 92.7256 99.9997 92.1642C99.9904 92.0617 99.9658 91.9611 99.9267 91.8658Z" fill="black"/>
<path d="M55.0468 63.5703L55.6104 62.6419C56.0866 61.9585 56.0866 61.0508 55.6104 60.3674L52.1489 54.7574L48.1702 48.3449C48.029 48.1131 47.8008 47.9476 47.5366 47.8853C47.2724 47.8229 46.9942 47.8691 46.7643 48.0134C46.6113 48.1047 46.4854 48.2352 46.3996 48.3914L20.12 91.7929C19.8557 92.2893 20.0425 92.9059 20.5377 93.1722C20.6848 93.2571 20.8521 93.3006 21.0218 93.2982H36.4594C36.8323 93.298 37.1754 93.0947 37.3546 92.7677L37.9448 91.7863C37.9714 91.7502 37.9958 91.7126 38.0177 91.6735L38.6808 90.6125C44.1781 81.4946 49.4434 72.7877 54.9539 63.7162C54.988 63.6696 55.019 63.6209 55.0468 63.5703Z" fill="black"/>
</svg>
