<svg width="120" height="120" viewBox="0 0 120 120" fill="none" xmlns="http://www.w3.org/2000/svg">
<path d="M60 0C93.132 0 120 26.868 120 60C120 93.132 93.132 120 60 120C26.868 120 0 93.132 0 60C0 26.868 26.868 0 60 0Z" fill="url(#paint0_linear)"/>
<path d="M83.0396 41.64C82.2836 42.54 82.3316 44.532 81.1196 43.92C81.1196 43.92 72.6836 40.692 77.8796 31.2C79.2836 29.004 80.7356 28.86 80.5196 23.52C81.8156 25.488 86.0636 29.436 86.3996 35.64C86.7356 39.78 84.2636 40.332 83.0396 41.64Z" fill="white"/>
<path d="M76.3198 56.4C78.3958 55.704 81.7558 54.6 81.9598 47.52C85.1638 52.428 96.0358 59.316 90.8398 80.4C88.7278 88.62 80.8558 92.616 73.4398 95.64C68.8078 97.608 64.0798 100.896 62.1598 105.84C62.1598 105.84 27.1078 101.412 28.1998 66.6C29.0758 48.54 45.9958 41.64 53.1598 28.44C56.9758 20.112 55.6798 11.76 55.6798 11.76C55.6798 11.76 77.9998 25.644 67.9198 47.04C64.6438 54.6 72.4678 57.156 76.3198 56.4Z" fill="white"/>
<path d="M41.8799 62.64V74.28H54.2399V86.64H65.8799V74.28H78.2399V62.64H41.8799Z" fill="url(#paint1_linear)"/>
<defs>
<linearGradient id="paint0_linear" x1="0" y1="120" x2="120" y2="120" gradientUnits="userSpaceOnUse">
<stop stop-color="#FFA50D"/>
<stop offset="1" stop-color="#FE5413"/>
</linearGradient>
<linearGradient id="paint1_linear" x1="41.8799" y1="86.64" x2="78.2399" y2="86.64" gradientUnits="userSpaceOnUse">
<stop stop-color="#FFA50D"/>
<stop offset="1" stop-color="#FE5413"/>
</linearGradient>
</defs>
</svg>
