<svg width="120" height="120" viewBox="0 0 120 120" fill="none" xmlns="http://www.w3.org/2000/svg">
<circle cx="60" cy="60" r="60" fill="#EDF0F4"/>
<path d="M48.4678 89.3481H87.7212L93.4001 79.176H54.2091L48.4678 89.3481Z" fill="#5569FF"/>
<path d="M86.473 66.882H75.0527L69.3738 76.9917H80.7317L86.473 66.882Z" fill="#5569FF"/>
<path d="M86.4728 64.6977L66.8773 30H55.457L75.1149 64.6977H86.4728Z" fill="#5C00E9"/>
<path d="M27 78.115L32.6789 88.1624L52.3368 53.4647L46.5955 43.4173L27 78.115Z" fill="#00BFE9"/>
<path d="M46.5955 88.1624L52.3368 78.115L46.5955 68.0052L40.9165 78.115L46.5955 88.1624Z" fill="#00BFE9"/>
<path d="M48.53 42.294L54.209 52.4038H65.6293L59.8879 42.294H48.53Z" fill="#5C00E9"/>
<path d="M93.4001 76.9917L88.3452 68.0677L83.2903 76.9917H93.4001Z" fill="#243269"/>
<path d="M67.5016 75.8684L73.1806 65.821L67.5016 55.7113L61.7603 65.821L67.5016 75.8684Z" fill="#243269"/>
<path d="M48.4678 66.882L54.2091 76.9917H55.4572H65.6294L59.8881 66.882H48.4678Z" fill="#243269"/>
<path d="M54.2091 54.588L48.4678 64.6978H59.8881L65.567 54.588H54.2091Z" fill="#243269"/>
<path d="M34.551 89.3481H44.7232L39.6683 80.3616L34.551 89.3481Z" fill="#243269"/>
<path d="M53.5851 31.1233L48.4678 40.1098H58.64L53.5851 31.1233Z" fill="#243269"/>
</svg>
