<svg width="120" height="120" viewBox="0 0 120 120" fill="none" xmlns="http://www.w3.org/2000/svg">
<path d="M60 0C93.1401 0 120 26.8653 120 60C120 93.1401 93.1401 120 60 120C26.8653 120 0 93.1374 0 60C0 26.8653 26.8653 0 60 0Z" fill="#29BCE1"/>
<path fill-rule="evenodd" clip-rule="evenodd" d="M38.1606 19H81.8394L86 23.1226V97.8774L81.8394 102H38.1606L34 97.8774V23.1226L38.1606 19ZM77.6788 93.7549V27.2451H42.3212V93.7549H77.6788Z" fill="white"/>
<path fill-rule="evenodd" clip-rule="evenodd" d="M64.0417 49.4007H73V57.4975H47V49.4007H55.9583V40H64.0417V49.4007ZM64.0417 72.5993H73V64.5025H47V72.5993H55.9583V82H64.0417V72.5993Z" fill="white"/>
</svg>
