<svg width="120" height="120" viewBox="0 0 120 120" fill="none" xmlns="http://www.w3.org/2000/svg">
<circle cx="60" cy="60" r="60" fill="#EDF0F4"/>
<path fill-rule="evenodd" clip-rule="evenodd" d="M52.1809 54.5397C51.2215 60.021 49.178 64.0945 46.6489 67.1345C48.0685 68.9168 52.1088 72.7621 60.5541 72.6197C60.5541 72.6197 67.1839 73.2184 73.5018 67.4231C70.9825 64.3889 68.9506 60.3194 67.9756 54.8361C67.9756 54.8361 65.2691 38.6104 77.4232 30.8086C72.7842 28.0405 67.5566 26.4082 62.1667 26.0448V39.1096H58.2258V26C52.7723 26.238 47.4547 27.7756 42.7158 30.4849C54.8992 38.2848 52.1809 54.5397 52.1809 54.5397ZM30.7801 26.4231C24.6182 26.6376 19.7979 31.8499 20.0065 38.0683C20.136 42.0393 22.3468 45.6487 25.8252 47.5686C29.5516 35.7323 37.2345 31.6744 39.8513 30.6039C37.6593 27.8536 34.295 26.3031 30.7801 26.4231ZM48.981 47.2039H27.9507C30.372 41.3999 34.3301 36.3659 39.3989 32.6435C39.7187 32.8424 40.1321 33.1174 40.6137 33.4723C45.1001 36.771 48.1062 41.7045 48.981 47.2039ZM71.236 47.2039H91.6423C89.2983 41.588 85.515 36.6895 80.6738 33.0023C80.3696 33.1973 79.9894 33.4508 79.5584 33.7687C75.1539 37.0048 72.1717 41.819 71.236 47.2039ZM49.2345 49.6745C49.4788 54.8572 47.8533 59.9552 44.6541 64.0399H44.658C41.3411 68.283 35.9787 72.3136 27.5178 72.61C27.1707 71.7039 26.8671 70.7809 26.6072 69.841C30.3862 69.6343 35.8402 68.4585 39.4321 63.8566L37.2637 61.3411C37.2637 61.3411 34.0502 66.6782 25.8974 66.801C24.8327 61.0878 25.2209 55.1986 27.0264 49.6745H49.2345ZM80.1181 30.4069C82.6928 27.385 86.6672 25.94 90.5816 26.6025C96.7181 27.6302 100.866 33.3943 99.8458 39.4742C99.2638 42.9426 97.0747 45.9308 93.9433 47.5315C92.8942 44.0918 90.0297 35.8415 80.1181 30.4069ZM80.9214 63.2326L83.2614 60.7406C83.2614 60.7406 86.1649 65.7091 93.8224 66.0562C94.1252 64.2008 94.2771 62.324 94.2767 60.4442C94.2797 56.7858 93.6998 53.1504 92.5588 49.6745H70.9493C70.6279 54.9554 72.2518 60.1712 75.5142 64.3363C78.7394 68.4644 83.899 72.3935 91.968 72.8674C92.4471 71.6286 92.8534 70.3629 93.1848 69.0767C89.4447 68.8076 84.3553 67.5654 80.9214 63.2326ZM58.1166 77.0676V79.5285C58.136 82.9918 56.8756 86.3402 54.5774 88.9312C52.9569 90.7276 50.9692 92.1547 48.749 93.1158C40.1388 90.1931 33.0261 83.9968 28.951 75.8684C32.0963 75.5915 38.4707 74.4644 43.8351 69.9619C48.7568 74.6555 53.6512 76.6347 58.1166 77.0676ZM54.2479 94.4788C58.1658 95.1109 62.1629 95.0687 66.0666 94.354C63.5684 91.6657 61.5625 88.5589 60.1407 85.1756C58.7406 88.6 56.7456 91.7496 54.2479 94.4788ZM62.192 79.5948V77.0598C69.2197 76.3539 74.6874 72.3077 76.731 70.5898C81.639 74.5248 87.292 75.7338 90.5289 76.1004C86.5458 83.8986 79.7537 89.8962 71.5226 92.8838C69.2553 91.9153 67.2273 90.4624 65.5811 88.627C63.3775 86.1364 62.1707 82.9202 62.192 79.5948Z" fill="url(#paint0_linear)"/>
<defs>
<linearGradient id="paint0_linear" x1="7.34119" y1="59.8009" x2="60.1651" y2="118.697" gradientUnits="userSpaceOnUse">
<stop stop-color="#EA3570"/>
<stop offset="0.88" stop-color="#138FC9"/>
</linearGradient>
</defs>
</svg>
