<svg width="120" height="120" viewBox="0 0 120 120" fill="none" xmlns="http://www.w3.org/2000/svg">
<path fill-rule="evenodd" clip-rule="evenodd" d="M60 0C93.132 0 120 26.868 120 60C120 93.132 93.132 120 60 120C26.868 120 0 93.132 0 60C0 26.868 26.868 0 60 0Z" fill="#070510"/>
<path fill-rule="evenodd" clip-rule="evenodd" d="M105.6 42.96C104.436 47.4 99.6482 53.508 93.2042 57.444C93.2282 57.996 93.2402 58.548 93.2402 59.1C93.2402 77.424 78.3842 92.28 60.0602 92.28C50.5922 92.28 42.0602 88.32 36.0122 81.96C32.4362 82.824 9.81619 87.768 13.6802 72.84C15.7562 66.624 22.7522 61.884 26.8802 59.556C26.8802 59.4 26.8802 59.244 26.8802 59.1C26.8802 40.776 41.7362 25.92 60.0602 25.92C69.3602 25.92 77.7722 29.748 83.7962 35.928C89.1842 34.848 107.34 32.004 105.6 42.96ZM60.1802 34.44C46.5602 34.44 35.5202 45.48 35.5202 59.1C35.5202 60.828 35.7002 62.508 36.0362 64.14L36.0002 64.2C36.0002 64.2 30.2762 67.728 26.3762 70.932C25.2722 71.892 24.2162 72.912 23.3042 73.98C23.2322 74.088 23.1722 74.184 23.1122 74.28C24.0242 74.292 25.0202 74.292 26.1242 74.232C31.5242 73.704 41.8802 71.748 57.3842 65.448C57.3722 65.256 57.3722 65.064 57.3722 64.86C57.3722 59.064 62.0762 54.36 67.8722 54.36C70.7042 54.36 73.2842 55.488 75.1682 57.312C77.9282 55.92 80.7962 54.42 83.7722 52.8C83.8562 52.764 83.9402 52.74 84.0122 52.716C81.1922 42.192 71.5922 34.44 60.1802 34.44ZM62.6402 64.86C62.6402 67.74 64.9802 70.08 67.8602 70.08C70.7402 70.08 73.0802 67.74 73.0802 64.86C73.0802 61.98 70.7402 59.64 67.8602 59.64C64.9802 59.64 62.6402 61.98 62.6402 64.86ZM78.2882 66.072C77.6882 71.304 73.2482 75.36 67.8602 75.36C65.5562 75.36 63.4322 74.616 61.7042 73.368C55.8962 75.732 50.0522 77.868 45.5762 78.972C49.6682 81.984 54.7202 83.772 60.1802 83.772C72.4322 83.772 82.6082 74.832 84.5162 63.108C83.6042 63.54 81.3482 64.644 78.2882 66.072ZM89.7602 43.8C89.7602 43.8 90.9962 45.72 91.4402 47.64C93.7082 45.468 95.6402 43.56 95.6402 43.56L89.7602 43.8Z" fill="url(#paint0_linear)"/>
<defs>
<linearGradient id="paint0_linear" x1="13.2365" y1="92.2805" x2="105.717" y2="92.2805" gradientUnits="userSpaceOnUse">
<stop stop-color="#06D6FE"/>
<stop offset="1" stop-color="#7A61FB"/>
</linearGradient>
</defs>
</svg>
