<svg width="120" height="120" viewBox="0 0 120 120" fill="none" xmlns="http://www.w3.org/2000/svg">
<path fill-rule="evenodd" clip-rule="evenodd" d="M60 120C27 120 0 93.0006 0 59.7012C0.3 26.7019 27 -0.297518 60.3 0.00247602C93.3 0.30247 120 27.0019 120 60.6012C119.7 93.3006 93 120 60 120Z" fill="#EDF0F4"/>
<path fill-rule="evenodd" clip-rule="evenodd" d="M75.5695 90.1462V37.9772C75.5695 37.1021 75.112 36.3065 74.3563 35.869L54.8849 24.3333C54.149 23.8958 53.2341 23.8958 52.4783 24.2935L46.2928 27.6349C45.4972 28.0526 45 28.8879 45 29.7829V83.2646C45 84.1397 45.4773 84.9353 46.2331 85.3728L64.9885 96.2124C65.7443 96.6499 66.6791 96.6499 67.4349 96.2124L74.3364 92.2743C75.0921 91.8368 75.5695 91.0213 75.5695 90.1462ZM48.4607 32.5475C48.1027 32.3486 47.6651 32.4679 47.4662 32.8259C47.4066 32.9453 47.3668 33.0646 47.3668 33.184L47.2872 82.5884C47.2872 82.9464 47.4662 83.2646 47.7845 83.4436L65.0482 93.3484C65.4062 93.5472 65.8437 93.4279 66.0426 93.0699C66.1023 92.9506 66.1421 92.8312 66.1421 92.7119V44.103C66.1421 43.2279 65.6647 42.4125 64.9089 41.9749L48.4607 32.5475ZM49.1767 34.3773L64.0537 42.9097C64.6703 43.2478 65.0482 43.9042 65.0482 44.6202V72.8228C65.0482 72.9024 65.0084 73.0018 64.9288 73.0416L48.7988 82.1906C48.6795 82.2503 48.5403 82.2105 48.4607 82.0911C48.4408 82.0514 48.4209 82.0116 48.4209 81.9718L48.4408 34.8149C48.4408 34.5563 48.6596 34.3375 48.9181 34.3375C49.0176 34.3176 49.0971 34.3375 49.1767 34.3773Z" fill="black"/>
</svg>
