<svg width="120" height="120" viewBox="0 0 120 120" fill="none" xmlns="http://www.w3.org/2000/svg">
<path fill-rule="evenodd" clip-rule="evenodd" d="M60 120C27 120 0 93.0006 0 59.7012C0.3 26.7019 27 -0.297518 60.3 0.00247602C93.3 0.30247 120 27.0019 120 60.6012C119.7 93.3006 93 120 60 120Z" fill="#EDF0F4"/>
<path d="M60.1076 63.1399L58.6578 63.198C55.4076 63.198 52.9114 65.6954 52.4896 69.0001C52.2814 70.6483 52.2735 71.1784 52.226 71.7429C52.1549 73.0615 51.8122 73.6154 50.4784 72.8478C48.571 71.7722 46.7447 70.5583 45.014 69.2163C34.9446 59.7802 35.8935 44.3177 48.2562 35.8256C51.1558 33.845 52.8797 31.6297 52.1548 27.9427C51.1295 22.7948 46.6826 20.466 42.1382 23.0796C30.2605 29.9234 24.4771 40.4277 24 52.0001C24.0051 55.3313 24.4194 58.6494 25.2337 61.8795C25.2461 62.0577 25.2752 62.234 25.3206 62.4067C27.3951 72.94 33.3577 80.8018 43.4588 85.855C45.6356 86.8841 47.8945 87.7293 50.2121 88.3816C50.7772 88.487 51.2857 88.7917 51.6455 89.2402C52.0053 89.6888 52.1925 90.2515 52.1733 90.8262C52.2009 91.5572 52.2802 92.2849 52.4105 93.0045C52.9983 96.2932 55.5737 98.3529 59.0005 98.3822H60.0549V98.3189L60.1076 63.1399Z" fill="#17A84B"/>
<path d="M78.0164 23.0928C73.4798 20.4793 69.0329 22.808 68.018 27.9559C67.2907 31.6482 69.0252 33.8556 71.9063 35.8388C84.2399 44.3309 85.2255 59.7934 75.1561 69.2295C73.4246 70.5715 71.5964 71.7846 69.6866 72.8584C68.3502 73.6285 68.018 73.0615 67.9364 71.7561C67.9364 70.8363 67.8544 69.9184 67.6913 69.0133C67.2694 65.7246 64.7915 63.2401 61.523 63.2112L60.0732 63.153V98.316V98.3822H61.175C64.6152 98.3822 67.1824 96.2906 67.7783 93.0019C67.9071 92.283 67.9843 91.5561 68.0103 90.8262C67.9916 90.2504 68.1797 89.6873 68.5404 89.2384C68.9011 88.7891 69.4108 88.4844 69.9768 88.379C72.293 87.7278 74.5503 86.8827 76.7246 85.8524C86.8152 80.7729 92.7724 72.9298 94.8629 62.4067C94.8972 62.2168 94.9207 62.043 94.9419 61.8795C95.7588 58.6497 96.1733 55.3315 96.1755 52.0001C95.6879 40.4409 89.8913 29.9366 78.0164 23.0928Z" fill="#077FA2"/>
<path d="M59.7884 46.0372C55.5234 46.082 52.6343 49.078 52.6712 53.4216C52.6712 58.0368 55.5708 61.0223 59.9703 61.0274H60.1152V46.053L59.7884 46.0372Z" fill="#17A84B"/>
<path d="M67.5516 53.4638C67.5314 51.4982 66.7394 49.6192 65.3469 48.2327C63.9541 46.8462 62.0722 46.0633 60.1074 46.053V61.0355C61.092 61.0289 62.0656 60.8284 62.9725 60.4454C63.8795 60.0623 64.7023 59.5044 65.3938 58.803C66.0852 58.1021 66.6318 57.2715 67.0028 56.359C67.3734 55.4465 67.5607 54.4698 67.5541 53.4849L67.5516 53.4638Z" fill="#077FA2"/>
</svg>
