<svg width="120" height="120" viewBox="0 0 120 120" fill="none" xmlns="http://www.w3.org/2000/svg">
<circle cx="60" cy="60" r="60" fill="#FFC04E"/>
<path fill-rule="evenodd" clip-rule="evenodd" d="M27.764 49.4751H19L20.6449 43H29.409L27.764 49.4751ZM58.9947 44.3487H58.9834L59.2663 43H31.6009L23.3839 77H32.4234L38.6333 49.4751H49.6949L43.104 77H51.3247L57.7874 49.4751H57.9006L58.8815 44.8398L58.9947 44.3487ZM88.3012 43H74.6062L66.3855 76.7318H83.623C85.6953 76.7418 87.7567 76.4321 89.7349 75.8138C93.0058 74.7749 96.986 72.5913 97.6161 68.0958H100.083L100.906 64.8582H97.8915C97.8915 64.8582 98.1631 60 91.8627 59.1916C91.8627 59.1916 97.3445 57.5709 98.1631 54.6016H100.906L102 51.364H98.9856C98.9856 51.364 100.083 43.5402 88.3012 43ZM58.1722 56.4904L65.2951 73.2222L68.3058 59.4598L61.1866 43.5402L58.1722 56.4904ZM86.2489 56.4904C87.2298 56.4904 88.173 56.1127 88.8634 55.4251C89.5538 54.7376 89.9461 53.8158 89.9461 52.8487C89.9461 51.8816 89.5575 50.956 88.8634 50.2722C88.1692 49.5884 87.2298 49.2069 86.2489 49.2069H80.9105L79.2693 56.4904H86.2489ZM88.852 66.3429C88.852 68.6511 86.86 70.5249 84.404 70.5249H76.0059L77.9828 62.1571H84.404C86.8714 62.1571 88.852 64.0309 88.852 66.3429Z" fill="white"/>
</svg>
