<svg width="120" height="120" viewBox="0 0 120 120" fill="none" xmlns="http://www.w3.org/2000/svg">
<circle cx="60" cy="60" r="60" fill="#895AF8"/>
<path fill-rule="evenodd" clip-rule="evenodd" d="M55.8 53.4C54.1269 52.0134 53.1187 49.9835 53.025 47.8125V47.5125C53.025 43.1625 60.0375 36.2625 60.2625 36.2625L60.3059 36.3051C60.9392 36.9245 67.5 43.3412 67.5 47.5125V47.85C67.4331 49.7759 66.6274 51.6022 65.25 52.95L82.5 43.6875L60 32.6625L37.5 43.575L55.8 53.4ZM66.6375 53.4375C67.237 53.4014 67.838 53.4014 68.4375 53.4375C71.4096 53.6383 73.5213 55.8931 75.3832 57.8811C76.9982 59.6054 78.4252 61.1291 80.0625 60.9375C76.7588 63.6382 72.9268 65.6181 68.8125 66.75C65.2863 67.2646 61.8849 65.2268 60.675 61.875V76.875L82.5 64.425V45L66.6375 53.4375ZM51.3375 66.9375C54.8739 67.4473 58.2789 65.3917 59.475 62.025L59.5125 77.175L37.5 64.4625V45L53.5125 53.625C52.913 53.5889 52.312 53.5889 51.7125 53.625C48.6665 53.7272 46.5343 56.0249 44.6537 58.0514C43.0847 59.7423 41.6908 61.2444 40.0875 61.125C43.3912 63.8257 47.2232 65.8056 51.3375 66.9375Z" fill="white"/>
<path fill-rule="evenodd" clip-rule="evenodd" d="M60 15C35.1488 15 15 35.1488 15 60C15 84.8512 35.1488 105 60 105C84.8512 105 105 84.8512 105 60C105 35.1472 84.8528 15 60 15ZM34.875 41.9625L60 29.775L85.1625 41.9625V65.925L60 80.4375L34.875 65.925V41.9625ZM60.1875 90.1875L85.2375 75.7125V74.325L60.1875 88.8L34.8375 74.175V75.5625L60.1875 90.1875ZM85.2375 72.9L60.1875 87.375L34.8375 72.75V71.25L60.1875 85.9125L85.2375 71.4375V72.9ZM60.1875 84.5625L85.2375 70.0875V68.7375L60.1875 83.2125L34.8375 68.55V69.9375L60.1875 84.5625Z" fill="white"/>
</svg>
