<svg width="120" height="120" viewBox="0 0 120 120" fill="none" xmlns="http://www.w3.org/2000/svg">
<circle cx="60" cy="60" r="60" fill="#3058A6"/>
<path fill-rule="evenodd" clip-rule="evenodd" d="M15 60C15 35.1855 35.1855 15 60 15C84.8145 15 105 35.1855 105 60C105 84.8145 84.8145 105 60 105C35.1855 105 15 84.8145 15 60ZM17.6952 60C17.6952 83.3632 36.6368 102.305 60 102.305C83.3632 102.305 102.305 83.3632 102.305 60C102.305 36.6368 83.3632 17.6952 60 17.6952C36.6368 17.6952 17.6952 36.6368 17.6952 60Z" fill="white"/>
<path fill-rule="evenodd" clip-rule="evenodd" d="M69.9099 28.6229L71.7645 32.4791L70.5846 37.8468H67.8857L69.646 29.8292L69.9099 28.6229ZM73.4984 86.2695L75.8468 76.0957L76.1333 74.8555L77.9653 78.7419L75.6169 88.9157L75.0477 91.3772H72.5221L59.5401 91.3696H59.4873C52.6269 91.2565 47.7115 88.8931 45.397 84.8107C48.0771 87.2533 52.1632 88.6367 57.3689 88.7234H57.4216L70.4075 88.731H72.933L73.4984 86.2695ZM81.1392 41.7558L78.8021 51.6507L78.2216 54.0933H64.1501L60.5767 70.4076C60.5013 70.875 60.4561 71.3499 60.4561 71.6138C60.4561 71.8437 60.4824 71.9907 60.5051 72.0624C60.7736 72.163 61.0589 72.2116 61.3456 72.2056H62.8836L66.2686 56.7432H80.34L80.9168 54.2968L83.2538 44.4019L81.437 40.4968L81.1354 41.7558H81.1392ZM36.4219 54.0933H46.2263L45.6496 56.7432H39.7993L36.4219 54.0933Z" fill="white"/>
<path d="M61.6545 75.3833H61.2964C58.5673 75.3116 57.2782 73.8905 57.2782 71.6138C57.2782 71.071 57.3686 70.351 57.4591 69.812L61.598 50.9194H75.7109L78.048 41.0245H63.9351L66.5435 29.1506H55.0316L52.4193 41.0245H39.9273L37.6807 50.9194H50.1727L45.3101 73.1404C45.0462 74.2185 44.952 75.4775 44.952 76.107C44.952 82.4473 49.9541 85.4251 57.4214 85.5495L70.4035 85.5533L72.7519 75.3833H61.6545Z" fill="white"/>
</svg>
