<svg width="120" height="120" viewBox="0 0 120 120" fill="none" xmlns="http://www.w3.org/2000/svg">
<path d="M118.191 74.5143C110.178 106.657 77.6222 126.219 45.4752 118.204C13.3417 110.19 -6.22004 77.6324 1.79691 45.4918C9.80683 13.3451 42.3626 -6.21803 74.4997 1.79541C106.644 9.80884 126.205 42.3702 118.191 74.5149L118.191 74.5143H118.191Z" fill="#EDF0F4"/>
<path d="M46.3429 20V46.6571L33 60V33.3429L46.3429 20Z" fill="#242828"/>
<path d="M86.3429 73.3429C86.3429 88.0571 74.4 100 59.6857 100C44.9429 100 33 88.0571 33 73.3429V60H46.3429V73.3429C46.3429 80.7143 52.3143 86.6857 59.6857 86.6857C67.0571 86.6857 73.0286 80.7143 73.0286 73.3429H86.3429Z" fill="#242828"/>
<path d="M86.3429 46.6571L73 60H33L46.3429 46.6571H86.3429Z" fill="#00E8B5"/>
</svg>
