<svg width="120" height="120" viewBox="0 0 120 120" fill="none" xmlns="http://www.w3.org/2000/svg">
<circle cx="60" cy="60" r="60" fill="#00843D"/>
<path fill-rule="evenodd" clip-rule="evenodd" d="M52.8909 16.9162C55.0532 15.6672 57.5054 15.0089 60.0019 15.0075L59.9981 15C62.4971 15.0002 64.9521 15.6584 67.1165 16.9087L93.8853 32.3841C98.2822 34.9342 100.992 39.6328 101 44.7196V76.2842C100.992 81.3709 98.2822 86.0696 93.8853 88.6196L67.1128 104.091C62.7124 106.636 57.2876 106.636 52.8835 104.091L26.1147 88.6196C21.7178 86.0696 19.0078 81.3709 19 76.2842V44.7196C19.0078 39.6328 21.7178 34.9342 26.1147 32.3841L52.8909 16.9162ZM64.2041 21.9724C62.9292 21.2351 61.4824 20.8496 60.0093 20.8496L60.0056 20.8459H59.9981C58.5288 20.8459 57.0782 21.2351 55.7996 21.9724L29.0308 37.444C26.4325 38.9486 24.8323 41.7218 24.8323 44.7233V76.2879C24.8338 79.2896 26.434 82.0626 29.0308 83.5634L55.8071 99.0389C58.404 100.54 61.6035 100.54 64.2004 99.0389L90.9729 83.5634C93.5713 82.0627 95.1677 79.2895 95.1677 76.2879V44.7233C95.1691 41.7209 93.57 38.9459 90.9729 37.444L64.2041 21.9724Z" fill="white"/>
<path fill-rule="evenodd" clip-rule="evenodd" d="M60.8473 35.7375C60.3252 35.4526 59.6944 35.4526 59.1723 35.7375L51.224 40.0788L55.2094 46.9876C55.5217 47.5291 56.0988 47.8629 56.7235 47.8633H63.2961C63.921 47.8637 64.4985 47.5297 64.8102 46.9876L68.7956 40.0826L60.8473 35.7412V35.7375ZM47.9414 56.662C48.567 56.6614 49.1452 56.3279 49.4593 55.7863L52.6783 50.1987C52.9908 49.6567 52.9908 48.9891 52.6783 48.4471L48.663 41.4823L40.823 45.7637C40.2501 46.078 39.8998 46.6856 39.9145 47.3394C39.9781 50.4756 40.3445 53.5969 41.0025 56.662H47.9414ZM56.7235 65.4608C56.0975 65.4617 55.5186 65.1277 55.2056 64.585L51.9866 58.9974C51.6741 58.4555 51.6741 57.7878 51.9866 57.2459L55.2056 51.6583C55.5186 51.1155 56.0975 50.7816 56.7235 50.7825H63.2961C63.9204 50.7844 64.4968 51.1178 64.8102 51.6583L68.033 57.2459C68.3455 57.7878 68.3455 58.4555 68.033 58.9974L64.8102 64.585C64.4979 65.1266 63.9208 65.4604 63.2961 65.4608H56.7235ZM70.5603 55.7863C70.8726 56.3279 71.4497 56.6616 72.0745 56.662H79.0171C79.6745 53.5949 80.0375 50.4719 80.1014 47.3356C80.114 46.6823 79.7623 46.0764 79.1891 45.7637L71.3529 41.4823L67.3376 48.4471C67.025 48.9891 67.025 49.6567 67.3376 50.1987L70.5603 55.7863ZM48.8125 74.5028C45.623 69.9669 43.2272 64.9212 41.7278 59.5812H47.9451C48.5699 59.5816 49.147 59.9154 49.4593 60.457L52.682 66.0446C52.9946 66.5865 52.9946 67.2542 52.682 67.7961L48.8125 74.5028ZM78.2844 59.5812C76.786 64.9209 74.3916 69.9667 71.2033 74.5028L67.3338 67.7961C67.0213 67.2542 67.0213 66.5865 67.3338 66.0446L70.5603 60.457C70.8726 59.9154 71.4497 59.5816 72.0745 59.5812H78.2844ZM55.2056 69.2557C55.5186 68.713 56.0975 68.379 56.7235 68.3799H63.2998C63.9245 68.3803 64.5016 68.7141 64.814 69.2557L69.3004 77.0365C66.8856 80.0428 64.1277 82.7559 61.0828 85.1204C60.4513 85.6065 59.5721 85.6065 58.9405 85.1204C55.8946 82.7573 53.1354 80.0454 50.7192 77.0402L55.2056 69.2557Z" fill="white"/>
</svg>
