<svg width="120" height="120" viewBox="0 0 120 120" fill="none" xmlns="http://www.w3.org/2000/svg">
<circle cx="60" cy="60" r="60" fill="#2B2E7F"/>
<path d="M64.1258 71.135V49.1286H67.1092C76.4323 49.1286 79.0427 40.1768 79.0427 40.1768H54.0569C42.1234 40.1768 40.2588 49.1286 40.2588 49.1286H54.8028V82.3248C54.4298 82.3248 64.1258 79.3408 64.1258 71.135Z" fill="white"/>
<path d="M91.3494 88.2926C99.5537 79.7138 102.91 67.4051 99.9266 55.8424C98.4349 49.8746 95.0786 44.2797 90.6036 39.8039C90.2306 39.4309 89.8577 39.0579 89.4848 38.6849L89.1119 38.3119C88.7389 37.9389 88.366 37.9389 88.366 37.5659L87.9931 37.1929L87.2473 36.4469H86.1285C85.7556 36.074 85.3826 36.074 85.0097 35.701L84.2639 35.328C83.891 35.328 83.8909 34.955 83.518 34.955L82.7722 34.582C83.1451 34.209 82.7722 33.836 82.3993 33.836L81.6534 33.463C81.2805 33.463 81.2805 33.09 80.9076 33.09H80.5346C81.6534 33.836 82.3993 34.209 83.1451 34.955C95.8245 47.6367 96.1974 68.1511 83.518 81.2058C83.518 81.2058 83.518 81.2058 83.1451 81.5788C66.7365 97.9904 40.259 97.9904 23.8504 81.5788C23.1046 80.8328 22.7317 80.4598 21.9858 79.7138L21.6129 79.3408C21.24 78.9678 20.8671 78.5949 20.4941 78.2219C22.7317 82.3248 25.3421 86.0547 28.6984 89.4116C45.8529 106.196 73.4491 106.196 90.6036 89.4116C90.9765 88.6656 90.9765 88.6656 91.3494 88.2926Z" fill="white"/>
<path d="M39.1404 83.8167C38.3946 83.0707 37.6487 82.6977 36.9029 81.9518C24.2235 69.2701 23.8506 48.3826 36.5299 35.701C36.5299 35.701 36.5299 35.701 36.9029 35.328C53.3115 18.9164 79.7889 18.9164 96.1975 35.328C97.3163 36.4469 98.4351 37.5659 99.5538 39.0579C97.3163 34.955 94.7058 31.2251 91.3495 27.8682C74.1951 10.7106 46.5989 10.7106 29.4444 27.8682C29.0715 28.2412 29.0715 28.2412 28.6986 28.6141C17.5109 40.5498 15.6463 58.0804 24.9694 71.508C28.3257 76.7299 33.5466 81.2058 39.1404 83.8167Z" fill="white"/>
</svg>
