<svg width="120" height="120" viewBox="0 0 120 120" fill="none" xmlns="http://www.w3.org/2000/svg">
<circle cx="60" cy="60" r="60" fill="#EDF0F4"/>
<path d="M80.5 38.1286C78.9936 38.9983 73.492 39.2659 73.099 39.3997C72.5751 39.5335 62.6853 39.5335 62.4888 39.3997C62.3578 39.3328 60.9169 38.3293 60.262 37.861C60.0655 37.7272 60 37.6603 60 37.6603C60 37.6603 60.9824 37.3927 62.4233 36.9913C66.0911 36.0547 72.8371 34.3153 74.0815 34.516C74.8674 34.6498 75.9808 34.8505 77.0942 35.2519C77.5527 35.5864 78.0112 35.9209 78.4696 36.2554C79.0591 36.7237 79.5831 37.192 80.107 37.6603C80.238 37.861 80.369 37.9948 80.5 38.1286Z" fill="url(#paint0_linear)"/>
<path d="M31.0656 52.5368C39.7942 50.8258 48.5228 48.72 57.317 47.2065C66.1769 45.6929 76.4149 43.7845 85.7341 44.7716C85.8654 44.7716 85.9967 44.7716 86.1279 44.8374C86.3248 45.2323 86.5873 45.6271 86.7842 46.022C88.2937 48.9174 89.3437 52.0103 89.8031 55.3665C89.8687 55.8929 89.9344 56.4852 90 57.0116C89.6719 57.4065 89.2781 57.8013 88.9499 58.1961C87.5717 58.1303 86.2592 58.1303 84.881 58.1961C84.7497 58.1961 84.5528 58.1961 84.4216 58.2619C83.0434 54.9716 75.6274 55.8271 72.4116 56.3536C68.5395 56.88 64.6674 57.5381 60.7953 58.2619C60.4672 58.3277 60.0734 58.3936 59.7453 58.4594C57.7764 58.7884 55.7419 59.1832 53.7731 59.5123C45.307 60.96 39.0067 62.2761 33.8877 63C33.822 62.671 33.6908 62.4077 33.6251 62.0787C33.4939 61.6181 33.3626 61.0916 33.1657 60.631C32.9689 60.1045 32.8376 59.5781 32.6407 59.0516C32.2469 57.9987 31.9188 56.88 31.5907 55.8271C31.3281 55.0374 31.1313 54.2478 31 53.4581" fill="url(#paint1_linear)"/>
<path d="M78.5 36.1609C73.5047 34.9936 68.0493 35.8367 62.9225 37.0689C62.0681 37.2634 61.1479 37.5228 60.2934 37.7174C59.2418 37.9768 58.1901 38.2362 57.2042 38.5605C53.7864 39.4684 50.3685 40.506 46.9507 41.3491C44.8474 41.8679 42.4812 42.711 40.2465 42.4516C38.9977 42.3219 37.4202 41.9976 36.5 41.3491C39.7864 37.1986 44.1901 33.956 49.3169 32.0104C52.669 30.7134 56.3498 30 60.162 30C66.4718 30 72.3216 31.9456 77.1854 35.1882C77.6455 35.5124 78.0399 35.8367 78.5 36.1609Z" fill="url(#paint2_linear)"/>
<path d="M84 78.1694C83.0207 79.4839 81.9762 80.667 80.8011 81.7843C79.626 82.9016 78.3856 83.8875 77.0799 84.8077C74.3379 86.7137 71.2696 88.094 68.0054 89.0141C67.6137 89.1456 67.222 89.2113 66.8303 89.277C64.7412 89.7371 62.5215 90 60.2366 90C57.2335 90 54.361 89.5399 51.619 88.7512C51.0315 88.554 50.4439 88.3569 49.9217 88.1597C47.702 87.3053 45.6129 86.2536 43.6544 84.9391C42.9363 84.4133 42.2181 83.8875 41.5 83.3617C41.6306 83.4274 41.7611 83.4274 41.8917 83.4932C46.9186 84.742 52.4025 83.8875 57.6252 82.6387C59.5837 82.1787 61.5422 81.5871 63.3702 81.127C66.765 80.2069 70.1598 79.0895 73.6198 78.1694C75.7089 77.5779 78.1244 76.7892 80.2788 77.0521C80.8011 77.1178 81.3233 77.1835 81.9109 77.315C82.6943 77.5121 83.4777 77.775 84 78.1694Z" fill="#61C0E2"/>
<path d="M60.5 58.5062C60.2365 58.5732 59.973 58.7071 59.7095 58.7741C59.6436 58.7741 59.5778 58.7741 59.5778 58.8411C54.5713 60.4483 49.4989 61.9215 44.3607 62.993C40.8693 63.7296 37.2462 64.5332 33.689 63.5287C32.4374 63.1939 31.1857 62.5912 30.0659 61.7206C30.0659 61.2519 30 60.7161 30 60.2474C30 57.9705 30.2635 55.6936 30.7246 53.5507C30.7905 53.2829 30.8564 53.015 30.9222 52.7471C31.3175 52.6132 31.6469 52.5462 32.0421 52.4123C37.3121 51.2739 43.0432 52.6802 48.0497 54.3543C52.1339 55.6936 56.284 57.1669 60.5 58.5062Z" fill="url(#paint3_linear)"/>
<path d="M89.8695 56.8817C89.9347 57.868 90 58.7885 90 59.7748C90 61.024 89.9347 62.2075 89.8042 63.3911C89.0863 63.5226 88.3031 63.5226 87.5199 63.4568C78.3827 62.8651 69.5066 60.761 60.7611 58.131C60.6958 58.131 60.5653 58.0652 60.5 58.0652C60.7611 57.9995 60.9569 57.9337 61.2179 57.8022C67.2876 55.6982 73.3573 53.1339 79.7533 52.6079C82.5597 52.3449 85.6925 52.4764 88.2378 53.9887C88.6294 54.2517 89.2168 54.6462 89.6737 55.1722C89.7389 55.8297 89.8042 56.3557 89.8695 56.8817Z" fill="url(#paint4_linear)"/>
<path d="M89 67.4223C88.0171 71.4318 86.1824 75.0468 83.758 78.2018C82.7751 79.5164 81.7267 80.6995 80.5472 81.8169C81.0059 81.0939 81.3335 80.4366 81.5956 79.7793C81.7922 79.1877 81.9888 78.5962 81.8577 78.0046C81.7922 77.7417 81.7267 77.5445 81.6612 77.3473C80.4162 74.521 75.3707 75.3097 73.1429 75.7698C68.6216 76.69 64.1659 77.8074 59.7102 78.8591C50.7332 81.0281 45.098 82.8028 40.6423 83C37.7591 80.568 35.3347 77.5445 33.5 74.1266C35.3347 73.8637 37.5626 73.4693 40.1836 72.7463C47.588 70.8402 54.8613 68.474 62.2656 66.6993C69.1458 65.0561 77.2054 62.9528 84.2822 64.596C86.2479 65.0561 87.8205 66.042 89 67.4223Z" fill="url(#paint5_linear)"/>
<path d="M77 84.8877C74.2675 86.8547 71.2096 88.2791 67.9566 89.2287C67.5663 89.3643 67.1759 89.4322 66.7855 89.5L51.6916 88.9574C51.106 88.7539 50.5205 88.5504 50 88.3469C52.6024 88.0756 55.7904 87.6008 59.3687 86.7869C60.3446 86.5834 61.3855 86.3121 62.4916 85.973C70.3639 83.8025 74.9181 83.3955 77 84.8877Z" fill="url(#paint6_linear)"/>
<path d="M68 88.973C67.6059 89.1099 67.2118 89.1784 66.8177 89.2469C64.7158 89.7261 62.4826 90 60.1836 90C57.1622 90 54.2721 89.5207 51.5134 88.6991C50.9223 88.4938 50.3311 88.2884 49.8056 88.083C47.5724 87.1929 45.4705 86.0974 43.5 84.7281C46.1273 84.2489 50.8566 84.3858 59.2641 86.5082C61.8257 87.1244 64.7158 87.946 68 88.973Z" fill="url(#paint7_linear)"/>
<path d="M85.8455 45.0492C86.0418 45.4426 86.3036 45.8361 86.5 46.2295C86.1727 45.7705 85.78 45.377 85.4527 44.9836C76.5509 35.8033 59.0091 42.0328 55.9327 42.7541C52.5945 43.541 39.9618 47.4754 32.5 48C33.5473 45.6393 34.8564 43.4754 36.4273 41.4426C39.7 37.2459 44.0855 33.9672 49.1909 32C52.5945 33.1148 55.9327 34.4918 59.0091 35.8033C60.0564 36.2623 61.1691 36.6557 62.2164 36.9836C62.4127 37.0492 62.5436 37.1148 62.74 37.1148C65.8818 38.0984 69.1545 38.6885 72.5582 38.6885C74.7182 38.6885 77.86 38.7541 79.9545 37.6393C80.0855 37.7705 80.2164 37.9016 80.4127 38.0328C82.5073 40.1311 84.4055 42.4918 85.8455 45.0492Z" fill="url(#paint8_linear)"/>
<defs>
<linearGradient id="paint0_linear" x1="59.9834" y1="39.5326" x2="80.5111" y2="39.5326" gradientUnits="userSpaceOnUse">
<stop offset="0.211" stop-color="#61BFE1"/>
<stop offset="0.9997" stop-color="#736C94"/>
</linearGradient>
<linearGradient id="paint1_linear" x1="16.8841" y1="65.147" x2="90.0395" y2="65.147" gradientUnits="userSpaceOnUse">
<stop offset="0.3795" stop-color="#078B7B"/>
<stop offset="0.9091" stop-color="#4DB0B7"/>
</linearGradient>
<linearGradient id="paint2_linear" x1="36.5068" y1="42.4564" x2="78.5104" y2="42.4564" gradientUnits="userSpaceOnUse">
<stop stop-color="#F1E931"/>
<stop offset="0.1119" stop-color="#ECE735"/>
<stop offset="0.2515" stop-color="#DCE242"/>
<stop offset="0.4059" stop-color="#C3D957"/>
<stop offset="0.571" stop-color="#9FCD74"/>
<stop offset="0.7427" stop-color="#72BD99"/>
<stop offset="0.8663" stop-color="#4DB0B7"/>
</linearGradient>
<linearGradient id="paint3_linear" x1="30.9072" y1="70.033" x2="91.8012" y2="67.1766" gradientUnits="userSpaceOnUse">
<stop stop-color="#61BFE1"/>
<stop offset="0.0931388" stop-color="#63B4D7"/>
<stop offset="0.2566" stop-color="#6A97BC"/>
<stop offset="0.4519" stop-color="#736C94"/>
</linearGradient>
<linearGradient id="paint4_linear" x1="83.6714" y1="51.105" x2="56.6036" y2="68.182" gradientUnits="userSpaceOnUse">
<stop stop-color="#804C88"/>
<stop offset="0.2619" stop-color="#6C5F8B"/>
<stop offset="0.658" stop-color="#51788F"/>
<stop offset="0.8911" stop-color="#61C1E3"/>
</linearGradient>
<linearGradient id="paint5_linear" x1="33.4852" y1="83.0058" x2="88.9834" y2="83.0058" gradientUnits="userSpaceOnUse">
<stop stop-color="#F1E931"/>
<stop offset="0.1373" stop-color="#EDE834"/>
<stop offset="0.2777" stop-color="#E1E33E"/>
<stop offset="0.4194" stop-color="#CCDC4F"/>
<stop offset="0.5622" stop-color="#AFD267"/>
<stop offset="0.7058" stop-color="#8AC585"/>
<stop offset="0.8481" stop-color="#5EB6A9"/>
<stop offset="0.8963" stop-color="#4DB0B7"/>
</linearGradient>
<linearGradient id="paint6_linear" x1="49.9469" y1="89.5139" x2="76.9784" y2="89.5139" gradientUnits="userSpaceOnUse">
<stop offset="0.2004" stop-color="#F1E931"/>
<stop offset="0.9285" stop-color="#4DB0B7"/>
</linearGradient>
<linearGradient id="paint7_linear" x1="43.5311" y1="90.0177" x2="67.9686" y2="90.0177" gradientUnits="userSpaceOnUse">
<stop stop-color="#804C88"/>
<stop offset="0.2619" stop-color="#6C5F8B"/>
<stop offset="0.658" stop-color="#51788F"/>
<stop offset="0.8911" stop-color="#61C1E3"/>
</linearGradient>
<linearGradient id="paint8_linear" x1="24.2173" y1="31.3248" x2="24.2173" y2="52.2414" gradientUnits="userSpaceOnUse">
<stop offset="0.1684" stop-color="#44518C"/>
<stop offset="0.9831" stop-color="#008181"/>
</linearGradient>
</defs>
</svg>
