<svg width="524" height="137" viewBox="0 0 524 137" fill="none" xmlns="http://www.w3.org/2000/svg">
<path d="M101.039 7.03125V90.791C101.039 100.283 99.0176 108.516 94.9746 115.488C90.9316 122.402 85.1309 127.676 77.5723 131.309C70.0137 134.941 61.0781 136.758 50.7656 136.758C35.1797 136.758 22.9043 132.715 13.9395 124.629C4.97461 116.543 0.404297 105.469 0.228516 91.4062V7.03125H31.2539V92.0215C31.6055 106.025 38.1094 113.027 50.7656 113.027C57.1523 113.027 61.9863 111.27 65.2676 107.754C68.5488 104.238 70.1895 98.5254 70.1895 90.6152V7.03125H101.039ZM153.246 135H122.484V7.03125H153.246V135ZM263.021 87.3633L250.365 101.25V135H219.516V7.03125H250.365V63.457L261.088 47.1973L288.686 7.03125H326.83L283.588 63.6328L326.83 135H290.268L263.021 87.3633ZM364.535 135H334.828V39.9023H364.535V135ZM333.07 15.3809C333.07 11.1621 334.594 7.70508 337.641 5.00977C340.688 2.31445 344.643 0.966797 349.506 0.966797C354.369 0.966797 358.324 2.31445 361.371 5.00977C364.418 7.70508 365.941 11.1621 365.941 15.3809C365.941 19.5996 364.418 23.0566 361.371 25.752C358.324 28.4473 354.369 29.7949 349.506 29.7949C344.643 29.7949 340.688 28.4473 337.641 25.752C334.594 23.0566 333.07 19.5996 333.07 15.3809ZM417.357 16.2598V39.9023H433.002V60.4688H417.357V103.975C417.357 107.549 418.002 110.039 419.291 111.445C420.58 112.852 423.129 113.555 426.938 113.555C429.867 113.555 432.328 113.379 434.32 113.027V134.209C428.988 135.908 423.422 136.758 417.621 136.758C407.426 136.758 399.896 134.355 395.033 129.551C390.17 124.746 387.738 117.451 387.738 107.666V60.4688H375.609V39.9023H387.738V16.2598H417.357ZM494.525 108.281C494.525 105.762 493.207 103.74 490.57 102.217C487.934 100.693 482.924 99.1113 475.541 97.4707C468.158 95.8301 462.064 93.6914 457.26 91.0547C452.455 88.3594 448.793 85.1074 446.273 81.2988C443.754 77.4902 442.494 73.125 442.494 68.2031C442.494 59.4727 446.098 52.2949 453.305 46.6699C460.512 40.9863 469.945 38.1445 481.605 38.1445C494.145 38.1445 504.223 40.9863 511.84 46.6699C519.457 52.3535 523.266 59.8242 523.266 69.082H493.559C493.559 61.4648 489.545 57.6562 481.518 57.6562C478.412 57.6562 475.805 58.5352 473.695 60.293C471.586 61.9922 470.531 64.1309 470.531 66.709C470.531 69.3457 471.82 71.4844 474.398 73.125C476.977 74.7656 481.078 76.1133 486.703 77.168C492.387 78.2227 497.367 79.4824 501.645 80.9473C515.941 85.8691 523.09 94.6875 523.09 107.402C523.09 116.074 519.223 123.135 511.488 128.584C503.812 134.033 493.852 136.758 481.605 136.758C473.461 136.758 466.195 135.293 459.809 132.363C453.422 129.434 448.441 125.449 444.867 120.41C441.293 115.371 439.506 110.068 439.506 104.502H467.191C467.309 108.896 468.773 112.119 471.586 114.17C474.398 116.162 478.002 117.158 482.396 117.158C486.439 117.158 489.457 116.338 491.449 114.697C493.5 113.057 494.525 110.918 494.525 108.281Z" fill="#23292F"/>
</svg>
