<svg width="120" height="120" viewBox="0 0 120 120" fill="none" xmlns="http://www.w3.org/2000/svg">
<circle cx="60" cy="60" r="60" fill="#EDF0F4"/>
<path d="M71.2539 70H67.8683C67.2414 70 66.7085 69.4984 66.7085 68.8401V59.9373L60.7837 63.6364C60.2821 63.9498 59.6552 63.9498 59.1536 63.6364L53.2602 59.9373V68.8401C53.2602 69.4671 52.7586 70 52.1003 70H48.7461C48.1191 70 47.5862 69.4984 47.5862 68.8401V51.6614C47.5862 50.8151 48.2759 50.1254 49.1223 50.1254C49.4357 50.1254 49.7179 50.2194 49.9687 50.4075L59.3104 56.8339C59.6865 57.116 60.2194 57.116 60.5956 56.8339L69.9373 50.4075C70.627 49.9373 71.5988 50.1254 72.069 50.8151C72.2571 51.0658 72.3198 51.3793 72.3511 51.6614V68.8401C72.3825 69.4671 71.8809 70 71.2539 70Z" fill="#FF4A4A"/>
<path d="M42.5392 69.9687H21.5361C20.6897 69.9687 20 69.279 20 68.4326V51.1599C20.0313 50.5016 20.5329 50 21.1912 50H24.5768C25.2038 50 25.7367 50.5016 25.7367 51.1599V64.2947H38.4639V51.1599C38.4639 50.5329 38.9655 50 39.6238 50H42.9154C43.5423 50 44.0752 50.5016 44.0752 51.1599V68.4326C44.0752 69.279 43.3856 69.9687 42.5392 69.9687Z" fill="#FF4A4A"/>
<path d="M77.4608 50H98.4639C99.3103 50 100 50.6897 100 51.5361V68.8088C100 69.4357 99.4984 69.9687 98.8715 69.9687H95.4859C94.8589 69.9687 94.326 69.4671 94.326 68.8088V56.4263C94.326 56.0188 93.9812 55.674 93.5736 55.674H82.3824C81.9749 55.674 81.6301 56.0188 81.6301 56.4263V68.8088C81.6301 69.4357 81.1285 69.9687 80.4702 69.9687H77.0846C76.4577 69.9687 75.9247 69.4671 75.9247 68.8088V51.5361C75.9247 50.6897 76.6144 50 77.4608 50Z" fill="#FF4A4A"/>
<path d="M86.2696 59.3103H89.6238C90.2508 59.3103 90.7837 59.8119 90.7837 60.4702V63.8871C90.7837 64.5141 90.2822 65.047 89.6238 65.047H86.2696C85.6427 65.047 85.1097 64.5454 85.1097 63.8871V60.4389C85.1097 59.8119 85.6427 59.3103 86.2696 59.3103Z" fill="#FF4A4A"/>
</svg>
