<svg width="120" height="120" viewBox="0 0 120 120" fill="none" xmlns="http://www.w3.org/2000/svg">
<path d="M116.25 74.031L116.18 74.3124C108.314 105.216 76.9403 123.988 45.959 116.263C14.8974 108.517 -4.01217 77.0447 3.73745 45.9759L3.73758 45.9754C11.4804 14.9005 42.9508 -4.01014 74.0158 3.73599L74.0159 3.73601C105.088 11.4822 123.997 42.9579 116.25 74.031Z" fill="url(#paint0_linear)" stroke="#FFD9EC" stroke-width="4"/>
<path d="M50.5303 37.0578C49.718 36.9417 49.6793 36.903 50.0661 36.8644C50.801 36.7483 52.503 36.903 53.702 37.1738C56.487 37.8314 59.0012 39.5333 61.6701 42.5116L62.3663 43.3239L63.372 43.1692C67.6654 42.4729 72.0749 43.0144 75.7495 44.7163C76.7551 45.1805 78.341 46.1088 78.5344 46.3409C78.6118 46.4183 78.7278 46.9211 78.8052 47.4239C79.0759 49.2419 78.9599 50.5957 78.3797 51.64C78.0703 52.2202 78.0703 52.3749 78.2637 52.8778C78.4184 53.2646 78.8825 53.5353 79.308 53.5353C80.2363 53.5353 81.2033 52.0655 81.6675 50.0155L81.8609 49.2032L82.209 49.59C84.1817 51.7947 85.7288 54.8504 85.9609 57.0165L86.0383 57.5967L85.6902 57.0939C85.11 56.2042 84.5685 55.624 83.8335 55.1212C82.5184 54.2316 81.126 53.9608 77.4514 53.7674C74.1249 53.574 72.2296 53.3032 70.373 52.6844C67.2013 51.64 65.5767 50.2862 61.8248 45.2965C60.1615 43.0918 59.1172 41.8927 58.0728 40.8871C55.7907 38.6823 53.5086 37.5219 50.5303 37.0578Z" fill="#FF007A"/>
<path d="M79.3468 41.9701C79.4242 40.5003 79.6176 39.5333 80.0431 38.6436C80.1978 38.2955 80.3525 37.9861 80.3912 37.9861C80.4299 37.9861 80.3525 38.2568 80.2365 38.5663C79.927 39.4172 79.8883 40.6163 80.0817 41.9701C80.3525 43.7107 80.4685 43.9428 82.3252 45.8381C83.1761 46.7277 84.1818 47.8494 84.5686 48.3136L85.2261 49.1645L84.5686 48.5456C83.7563 47.772 81.8997 46.3022 81.4742 46.1088C81.2034 45.9541 81.1648 45.9541 80.9714 46.1475C80.8166 46.3022 80.778 46.5343 80.778 47.656C80.7393 49.3966 80.5072 50.4796 79.927 51.6013C79.6176 52.1815 79.5789 52.0655 79.8497 51.4079C80.0431 50.9051 80.0817 50.673 80.0817 49.0098C80.0817 45.6447 79.6949 44.8324 77.3355 43.4786C76.7553 43.1305 75.7496 42.6276 75.1694 42.3569C74.5505 42.0861 74.0864 41.854 74.1251 41.854C74.2024 41.7767 76.4845 42.4342 77.3742 42.821C78.7279 43.3626 78.96 43.4012 79.1147 43.3626C79.2308 43.2465 79.3081 42.9371 79.3468 41.9701Z" fill="#FF007A"/>
<path d="M52.1162 47.7334C50.4917 45.4899 49.4473 42.0088 49.6794 39.4172L49.7568 38.6049L50.1436 38.6823C50.8398 38.7983 52.0389 39.2625 52.6191 39.6106C54.1663 40.5389 54.8625 41.8154 55.52 44.9871C55.7134 45.9154 55.9842 46.9985 56.1002 47.3466C56.2936 47.9268 57.0286 49.2806 57.6474 50.1315C58.0729 50.7504 57.8022 51.0598 56.8352 50.9825C55.3653 50.8277 53.3927 49.474 52.1162 47.7334Z" fill="#FF007A"/>
<path d="M77.374 64.5591C69.7154 61.4647 67.0078 58.7958 67.0078 54.2702C67.0078 53.6127 67.0465 53.0712 67.0465 53.0712C67.0852 53.0712 67.3559 53.3032 67.704 53.574C69.2512 54.8118 70.9918 55.3533 75.8268 56.0495C78.6504 56.475 80.275 56.7844 81.7448 57.2873C86.425 58.8345 89.326 62.0062 90.0223 66.2996C90.2157 67.5374 90.0996 69.8969 89.7902 71.1346C89.5194 72.1016 88.7458 73.8809 88.5524 73.9195C88.5137 73.9195 88.4364 73.7261 88.4364 73.4167C88.359 71.7922 87.5467 70.245 86.193 69.0459C84.5684 67.6534 82.4797 66.6091 77.374 64.5591Z" fill="#FF007A"/>
<path d="M71.9588 65.8355C71.8814 65.2553 71.688 64.5204 71.572 64.2109L71.3786 63.6307L71.7267 64.0562C72.2296 64.6364 72.6164 65.3326 72.9645 66.2996C73.2352 67.0346 73.2352 67.2666 73.2352 68.4657C73.2352 69.6261 73.1966 69.8969 72.9645 70.5544C72.5777 71.5988 72.1135 72.3337 71.3399 73.146C69.9475 74.5771 68.1295 75.3507 65.538 75.6988C65.0738 75.7375 63.7587 75.8535 62.5983 75.9309C59.6973 76.0856 57.7633 76.395 56.0228 77.0139C55.7907 77.0913 55.5586 77.1686 55.5199 77.13C55.4426 77.0526 56.6416 76.3564 57.6086 75.8922C58.9624 75.2347 60.3549 74.8865 63.4106 74.345C64.9191 74.1129 66.4663 73.8035 66.8531 73.6488C70.6824 72.4497 72.5777 69.4714 71.9588 65.8355Z" fill="#FF007A"/>
<path d="M75.4788 72.0629C74.4731 69.8582 74.2411 67.7695 74.7826 65.7968C74.8599 65.6034 74.9373 65.41 75.0147 65.41C75.092 65.41 75.3241 65.526 75.5562 65.6808C76.0203 65.9902 76.9873 66.5317 79.4628 67.8855C82.5959 69.5874 84.3752 70.9025 85.6129 72.411C86.6959 73.7261 87.3535 75.2347 87.6629 77.0913C87.8563 78.1356 87.7403 80.6498 87.4695 81.6942C86.6186 84.9819 84.6846 87.6122 81.861 89.1207C81.4355 89.3528 81.0874 89.5075 81.0487 89.5075C81.01 89.5075 81.1647 89.1207 81.3968 88.6565C82.3251 86.6839 82.4412 84.7885 81.7449 82.6612C81.3195 81.3461 80.4298 79.7602 78.6506 77.0913C76.5232 73.9969 76.0203 73.1846 75.4788 72.0629Z" fill="#FF007A"/>
<path d="M46.6624 83.8989C49.5247 81.5008 53.0445 79.7989 56.2936 79.2574C57.6861 79.0253 60.0069 79.1026 61.2833 79.4508C63.3333 79.9923 65.19 81.1527 66.157 82.5838C67.0853 83.9763 67.5107 85.1754 67.9362 87.8443C68.0909 88.8886 68.2843 89.9716 68.323 90.2037C68.6325 91.5962 69.2513 92.6792 70.0249 93.2594C71.224 94.1491 73.3127 94.1877 75.3627 93.4141C75.7109 93.2981 76.0203 93.1821 76.0203 93.2207C76.0976 93.2981 75.0533 93.9943 74.3571 94.3424C73.3901 94.8453 72.6165 95 71.5721 95C69.7155 95 68.1296 94.033 66.8532 92.099C66.5824 91.7122 66.0409 90.5905 65.5768 89.5462C64.223 86.4131 63.5267 85.4848 61.9409 84.4404C60.5484 83.5508 58.7691 83.3574 57.4153 84.015C55.6361 84.8659 55.1719 87.148 56.4097 88.5405C56.9125 89.1207 57.8408 89.5848 58.6144 89.7009C60.0456 89.8943 61.2833 88.7726 61.2833 87.3414C61.2833 86.4131 60.9352 85.8716 60.0069 85.4461C58.7691 84.9046 57.4153 85.5235 57.454 86.7225C57.454 87.2254 57.6861 87.5348 58.1889 87.7669C58.4984 87.9216 58.4984 87.9216 58.2663 87.8829C57.1446 87.6509 56.8738 86.2584 57.7635 85.3688C58.8465 84.2857 61.1286 84.7499 61.9022 86.2584C62.2116 86.8773 62.2503 88.115 61.9795 88.8886C61.322 90.5905 59.4654 91.4801 57.5701 90.9773C56.2936 90.6292 55.7521 90.2811 54.2049 88.6952C51.4973 85.9103 50.453 85.3688 46.585 84.7886L45.8501 84.6725L46.6624 83.8989Z" fill="#FF007A"/>
<path fill-rule="evenodd" clip-rule="evenodd" d="M26.3168 21.6632C35.3292 32.6096 49.2152 49.6287 49.9115 50.557C50.4917 51.3306 50.2596 52.0655 49.2926 52.607C48.7511 52.9165 47.6294 53.2259 47.0878 53.2259C46.469 53.2259 45.7341 52.9165 45.2312 52.4136C44.8831 52.0655 43.3746 49.8608 39.9708 44.5616C37.3792 40.5003 35.1745 37.1351 35.1358 37.0964C34.9811 37.0191 34.9811 37.0191 39.7 45.4513C42.6784 50.7504 43.6454 52.6457 43.6454 52.8778C43.6454 53.3806 43.4906 53.6514 42.8718 54.3476C41.8274 55.508 41.3632 56.8231 41.0151 59.5694C40.6283 62.6251 39.584 64.7911 36.6056 68.4657C34.8651 70.6318 34.5943 71.0186 34.1688 71.9082C33.6273 72.9912 33.4726 73.6101 33.3952 75.0026C33.3179 76.4724 33.4726 77.4007 33.8981 78.7932C34.2849 80.0309 34.7103 80.8432 35.7547 82.4291C36.6443 83.8216 37.1858 84.8659 37.1858 85.2527C37.1858 85.5621 37.2632 85.5621 38.6557 85.2527C41.9821 84.4791 44.7284 83.164 46.2369 81.5395C47.1652 80.5338 47.3973 79.9923 47.3973 78.5998C47.3973 77.7102 47.3586 77.5168 47.1265 76.9752C46.7397 76.1243 46.0048 75.4281 44.4189 74.345C42.3302 72.9139 41.4406 71.7535 41.2085 70.2063C41.0151 68.8912 41.2472 68.0015 42.4076 65.5647C43.6067 63.0505 43.9161 62.0062 44.1095 59.4533C44.2255 57.8288 44.4189 57.1712 44.8831 56.6684C45.3859 56.1269 45.8114 55.9335 47.0105 55.7788C48.9832 55.508 50.2596 55.0052 51.2653 54.0382C52.1549 53.2259 52.5417 52.4136 52.5804 51.2145L52.619 50.3249L52.1162 49.7834C50.2983 47.6947 25.1178 20 25.0017 20C24.963 20 25.5819 20.7349 26.3168 21.6632ZM38.1915 76.6658C38.617 75.9309 38.3849 75.0026 37.6887 74.5384C37.0311 74.1129 36.0254 74.3063 36.0254 74.8865C36.0254 75.0413 36.1028 75.196 36.3349 75.2733C36.683 75.4667 36.7217 75.6601 36.4509 76.0856C36.1802 76.5111 36.1802 76.8979 36.5283 77.1686C37.0698 77.5941 37.8047 77.362 38.1915 76.6658Z" fill="#FF007A"/>
<path fill-rule="evenodd" clip-rule="evenodd" d="M53.8568 56.3203C52.9285 56.591 52.0388 57.5967 51.7681 58.6024C51.6133 59.2212 51.6907 60.343 51.9615 60.6911C52.3869 61.2326 52.7737 61.3873 53.8568 61.3873C55.9842 61.3873 57.8021 60.459 57.9955 59.3373C58.1889 58.409 57.3766 57.1325 56.2549 56.5523C55.6747 56.2429 54.4756 56.1269 53.8568 56.3203ZM56.3323 58.2543C56.6417 57.7901 56.5257 57.2873 55.9455 56.9391C54.9011 56.2816 53.3153 56.8231 53.3153 57.8288C53.3153 58.3316 54.1275 58.8731 54.9011 58.8731C55.404 58.8731 56.1002 58.5637 56.3323 58.2543Z" fill="#FF007A"/>
<defs>
<linearGradient id="paint0_linear" x1="0" y1="0" x2="0" y2="120" gradientUnits="userSpaceOnUse">
<stop stop-color="#FEF3F9"/>
<stop offset="1" stop-color="#FDE5F2"/>
</linearGradient>
</defs>
</svg>
