<svg width="120" height="120" viewBox="0 0 120 120" fill="none" xmlns="http://www.w3.org/2000/svg">
<circle cx="60" cy="60" r="60" fill="#EDF0F4"/>
<path d="M49.8698 31.0783C49.9211 31.0988 49.9519 31.1398 49.9417 31.1912C49.9417 31.2938 49.9417 31.3862 49.9417 31.4888V67.7292C49.9417 67.8523 49.9314 67.9652 49.9314 68.0884C49.9827 68.191 50.0751 68.1397 50.1367 68.1397C56.6437 68.1397 63.1508 68.1397 69.6681 68.15C69.8734 68.15 69.9657 68.0987 69.9349 67.8831C69.9349 67.8113 69.9349 67.7497 69.9349 67.6779C69.9349 55.608 69.9349 43.5484 69.9349 31.4785C69.9349 31.3554 69.8631 31.1912 70.0171 31.0988C70.0684 31.0577 70.1505 31.068 70.1915 31.1193C70.1915 31.1193 70.1915 31.1296 70.2018 31.1296C70.2531 31.2014 70.3044 31.2733 70.3455 31.3554C71.0845 32.8231 71.844 34.301 72.5727 35.7687C73.1782 37.0003 73.794 38.2319 74.3996 39.4533C75.077 40.8081 75.7646 42.1731 76.442 43.5279C77.0578 44.7492 77.6634 45.9809 78.2689 47.2022C78.8129 48.3107 79.3774 49.3986 79.9111 50.507C79.9932 50.6713 80.1163 50.8047 80.1676 50.9792C80.1984 51.1844 80.1984 51.4 80.1882 51.6052V86.9117C80.1882 87.0143 80.1882 87.1067 80.1882 87.2093C80.1882 87.5993 80.1882 87.5993 80.5679 87.6712C80.6192 87.6814 80.6603 87.7019 80.7014 87.743C80.4448 87.8662 80.1779 87.9072 79.9008 87.9688C78.6897 88.2562 77.4683 88.4409 76.2265 88.5333C75.6517 88.5743 75.077 88.5846 74.5022 88.5949C71.5361 88.6462 68.5596 88.6257 65.5935 88.6257C60.4412 88.6257 55.2787 88.6257 50.1161 88.6154C50.0135 88.6154 49.9006 88.6462 49.798 88.5846C49.8288 88.5641 49.8596 88.5333 49.9006 88.523C50.0854 88.482 50.2701 88.4717 50.4651 88.482H69.3397C69.5039 88.4922 69.6784 88.482 69.8426 88.4614C69.9965 88.3896 69.9349 88.2562 69.9452 88.1433C69.9452 83.9558 69.9452 79.758 69.9452 75.5705V69.0121C69.9349 68.8787 69.9452 68.7453 69.9555 68.6118C69.8015 69.0942 69.5449 69.5458 69.3191 70.0077C68.4878 71.7422 67.677 73.487 66.8456 75.2318C66.394 76.1863 65.9424 77.1305 65.4909 78.0851C65.4293 78.2185 65.3677 78.3622 65.224 78.434C65.0803 78.4751 64.9264 78.4853 64.7827 78.4751H55.0734C54.94 78.4853 54.8168 78.4751 54.6834 78.4443C54.4884 78.3827 54.4268 78.2082 54.355 78.044C53.7905 76.8432 53.2157 75.6423 52.6512 74.4312C52.0354 73.1278 51.4196 71.8346 50.8038 70.5311C50.5062 69.9153 50.229 69.2892 49.9006 68.6426C49.9006 68.8171 49.9006 68.9608 49.9006 69.1045C49.9006 75.4063 49.9006 81.6978 49.9006 87.9996C49.9006 88.1946 49.9519 88.3999 49.8082 88.5743C49.7056 88.5743 49.6132 88.5949 49.5106 88.5949C48.0429 88.5949 46.5752 88.5949 45.1076 88.5949C44.7278 88.5949 44.3583 88.5743 43.9786 88.5641C43.9067 88.5641 43.8349 88.5743 43.7836 88.523C43.8554 88.4614 43.9375 88.4922 44.0094 88.4922C45.8055 88.4922 47.6016 88.4922 49.3977 88.4922C49.4695 88.4922 49.5311 88.482 49.5517 88.4922C47.7658 88.4922 45.9389 88.4922 44.1017 88.4922C43.9991 88.4922 43.8862 88.4512 43.7836 88.5333C43.332 88.5538 42.8701 88.4922 42.4185 88.4409C41.5359 88.3588 40.6737 88.1741 39.8116 88.0304C39.7808 88.0201 39.7603 88.0098 39.7295 87.9893C39.8321 87.7635 39.8219 87.5275 39.8219 87.2914C39.8219 75.4473 39.8219 63.6033 39.8219 51.7592C39.8116 51.5539 39.8219 51.3384 39.8424 51.1331C39.8937 50.9176 39.9758 50.7123 40.0785 50.5276C40.6943 49.3062 41.3101 48.0849 41.9156 46.8532C44.1531 42.2655 46.4623 37.7187 48.7306 33.1515C49.018 32.5767 49.3053 32.0225 49.5824 31.4477C49.6235 31.3554 49.6543 31.1604 49.839 31.3246C49.839 42.6555 49.839 53.9864 49.839 65.3173C49.839 66.1999 49.839 67.0826 49.839 67.9755C49.839 55.8543 49.839 43.7434 49.839 31.6222C49.8288 31.4272 49.7672 31.2527 49.8698 31.0783Z" fill="#E85C50"/>
<path d="M39.9046 50.9997C39.9046 63.1722 39.9046 75.3447 39.9046 87.5069C39.9046 87.6096 39.9046 87.7019 39.9046 87.8046C39.9149 87.9483 39.8225 87.9688 39.7198 87.9791C38.2522 87.6404 36.8255 87.1888 35.4913 86.5011C34.7523 86.1214 34.0339 85.7211 33.3975 85.1976C31.6322 83.7505 30.4006 81.9749 30.1337 79.6451C30.1337 79.563 30.1337 79.4911 30.1337 79.409C30.103 79.3064 30.0927 79.1935 30.1132 79.0806C30.1132 63.2851 30.1132 47.4998 30.1132 31.7043C30.103 31.5914 30.1132 31.4888 30.1337 31.3759C30.2774 31.3862 30.3082 31.5093 30.3493 31.6017C30.8932 32.7102 31.4372 33.8083 31.9914 34.9065C32.6586 36.2305 33.3257 37.5443 33.9826 38.8785C34.5984 40.1101 35.2244 41.3418 35.83 42.5836C36.2097 43.3637 36.61 44.1334 36.9898 44.9032C37.349 45.6114 37.7082 46.3195 38.0572 47.038C38.4677 47.9001 38.8988 48.752 39.3401 49.5936C39.5351 49.9528 39.6788 50.3326 39.8635 50.7021C39.9251 50.7842 39.9354 50.8971 39.9046 50.9997Z" fill="#CF3339"/>
<path d="M80.7013 87.743C80.5576 87.7327 80.4241 87.7533 80.2907 87.7943C80.1778 87.8148 80.0957 87.7841 80.0957 87.6404C80.0957 87.5685 80.0957 87.5069 80.0957 87.4351V50.8868C80.0033 50.7226 80.1265 50.5994 80.1881 50.4763C81.1734 48.557 82.1484 46.6275 83.1132 44.6877C83.1337 44.6466 83.1645 44.5953 83.1953 44.5542C83.2056 44.5337 83.2158 44.5132 83.2261 44.4926C83.2466 44.4619 83.2569 44.4311 83.2774 44.4003C83.2979 44.3695 83.2979 44.3592 83.3082 44.3387C83.339 44.2771 83.3698 44.2053 83.4006 44.1437C83.4108 44.1232 83.4313 44.0924 83.4416 44.0718C83.9548 43.1071 84.4269 42.1218 84.9196 41.1365C85.1864 40.6233 85.4327 40.1101 85.6893 39.5867C85.9254 39.1248 86.1512 38.6732 86.377 38.2114C86.3975 38.1806 86.4078 38.1498 86.4283 38.1293C87.1878 36.6513 87.9062 35.1529 88.6657 33.6852C88.9839 33.0796 89.2918 32.4638 89.61 31.8583C89.6613 31.7454 89.7023 31.612 89.8666 31.5812C89.9281 31.7043 89.8973 31.8275 89.8973 31.9507C89.8973 41.3315 89.8973 50.7123 89.8973 60.0829C89.8973 66.3128 89.8973 72.5428 89.8973 78.7727C89.9076 78.8959 89.9076 79.0088 89.8768 79.1319C89.9179 79.563 89.7537 79.953 89.651 80.3533C89.3226 81.626 88.6247 82.6831 87.7625 83.6479C87.1159 84.3971 86.3667 85.0642 85.5354 85.6082C84.4885 86.2958 83.3595 86.8603 82.1792 87.2914C81.7071 87.4556 81.2042 87.6198 80.7013 87.743Z" fill="#CF3339"/>
<path d="M39.9043 50.9997C39.8837 50.8971 39.8529 50.8047 39.7914 50.7226C39.5142 50.1376 39.2063 49.5731 38.9395 48.9881C38.6726 48.4236 38.3442 47.8899 38.0979 47.3151C37.8721 46.7814 37.5539 46.299 37.3281 45.7756C37.0407 45.1085 36.6405 44.5029 36.3736 43.8255C36.271 43.5587 36.0965 43.3226 35.9733 43.066C35.7783 42.676 35.6244 42.2655 35.4088 41.8857C34.988 41.1467 34.6493 40.3565 34.2593 39.6072C34.0027 39.1146 33.7359 38.6322 33.5101 38.119C33.2638 37.5648 32.9353 37.0516 32.6993 36.4974C32.4119 35.82 32.0116 35.2042 31.7242 34.5268C31.5908 34.1984 31.3753 33.9007 31.2316 33.5723C30.9032 32.8538 30.4824 32.1765 30.1231 31.4478V79.0498C30.1231 79.173 30.1231 79.2859 30.1231 79.409C30.0205 79.0806 30.0513 78.7419 30.0513 78.4032C30.041 74.1952 30.041 69.9769 30.0513 65.7689V31.9712C30.0616 31.6735 30.0513 31.3759 30.0205 31.0783C30.1129 31.0475 30.2155 31.0372 30.3079 31.0577C36.702 31.0577 43.1065 31.0577 49.5006 31.0577H49.6751C49.8906 31.0577 49.8085 31.1706 49.7469 31.263L45.8571 39.0119C45.0463 40.6336 44.2354 42.2449 43.4349 43.8666C43.1372 44.4619 42.8601 45.0674 42.5625 45.6627C41.7414 47.3048 40.9203 48.947 40.0993 50.5892L39.9043 50.9997Z" fill="#E33936"/>
<path d="M83.1953 44.6261C83.185 44.7082 83.1542 44.78 83.1132 44.8416C82.4666 46.1451 81.82 47.4588 81.1529 48.752C80.8347 49.3678 80.5268 49.9836 80.2086 50.6097C80.1573 50.6918 80.1162 50.7842 80.0957 50.8868C79.9828 50.8868 79.952 50.7842 79.9212 50.7123C79.7878 50.4557 79.6852 50.1889 79.5517 49.9323C79.3978 49.6244 79.2233 49.3165 79.0694 49.0086C78.782 48.4441 78.4843 47.8796 78.2175 47.3048C77.9404 46.6993 77.5914 46.1348 77.3246 45.519C77.0372 44.8621 76.6574 44.2566 76.3803 43.5997C76.2264 43.2405 76.0108 42.9018 75.8364 42.5426C75.5593 41.9884 75.2616 41.4341 75.005 40.8696C74.7074 40.223 74.3379 39.6072 74.0608 38.9504C73.9068 38.5911 73.681 38.2524 73.5168 37.8932C73.2089 37.2056 72.8189 36.559 72.5213 35.8611C72.3673 35.5018 72.1518 35.1631 71.9773 34.8039C71.4128 33.6647 70.838 32.5357 70.2736 31.3964C70.212 31.3041 70.1709 31.2014 70.1504 31.0988L70.2017 31.068C74.0916 31.0577 77.9814 31.068 81.8816 31.068C84.468 31.068 87.0441 31.068 89.6305 31.068C89.7331 31.068 89.846 31.0372 89.9487 31.0988C89.9589 31.1809 90.0513 31.2527 89.9589 31.3451C89.6716 31.6838 89.5381 32.1046 89.3431 32.4844C88.3578 34.3934 87.4033 36.3229 86.4386 38.2524C86.1922 38.704 85.9562 39.1659 85.7406 39.6278C85.4738 40.1409 85.2172 40.6541 84.9606 41.1775C84.4474 42.1628 83.9753 43.1789 83.4519 44.154C83.4006 44.2258 83.3595 44.3079 83.3287 44.39C83.2877 44.4208 83.2979 44.4824 83.2671 44.5132C83.2158 44.5337 83.2261 44.5953 83.1953 44.6261Z" fill="#E33936"/>
<path d="M86.418 38.2422C86.5719 37.7085 86.8593 37.2261 87.1261 36.7437C87.2185 36.5795 87.2801 36.405 87.3622 36.2305C87.7214 35.5326 88.0601 34.8347 88.4091 34.1368C88.6862 33.5928 88.9428 33.0386 89.2302 32.4946C89.4252 32.1354 89.5894 31.7762 89.7741 31.4067C89.8152 31.3246 89.846 31.263 89.9486 31.3246C89.9486 33.2541 89.9486 35.1837 89.9486 37.1029C89.9486 50.8355 89.9486 64.568 89.9486 78.3006C89.9486 78.5674 89.9691 78.8343 89.8973 79.1011C89.8973 78.9985 89.887 78.9061 89.887 78.8035V31.6222C89.7947 31.6325 89.7844 31.7043 89.7639 31.7659C89.6612 31.9609 89.5689 32.1559 89.4662 32.3509C88.4912 34.2291 87.547 36.1176 86.6027 38.0164C86.5514 38.0985 86.5206 38.2011 86.418 38.2422Z" fill="#E34C37"/>
<path d="M70.141 31.0885C70.0178 31.1091 69.9357 31.222 69.9562 31.3451V31.3554C69.9562 31.4375 69.9562 31.5093 69.9562 31.5914C69.9562 43.6408 69.9562 55.7004 69.9562 67.7497C69.9562 68.2218 70.0075 68.1808 69.5251 68.1808C63.1207 68.1808 56.706 68.1808 50.3016 68.1808C50.1785 68.1808 50.0245 68.2526 49.9219 68.0987C50.0245 68.1397 50.1374 68.15 50.24 68.1397H69.597C69.638 68.1397 69.6791 68.1397 69.7201 68.1397C69.8638 68.15 69.9254 68.0987 69.9152 67.955C69.9049 67.8626 69.9152 67.7805 69.9152 67.6881V31.4785C69.9152 31.4067 69.9152 31.3451 69.9152 31.2733C69.8946 31.0988 69.987 31.0372 70.141 31.0475V31.0885Z" fill="#E9654C"/>
<path d="M49.7367 31.2733C49.7367 31.1912 49.8085 31.0783 49.6341 31.0988C49.552 31.0988 49.4698 31.0988 49.398 31.0988H30C30.0821 30.9859 30.2053 31.0475 30.2976 31.0475C31.6627 31.0372 33.0175 31.0475 34.3722 31.0475C39.4014 31.0475 44.4407 31.0475 49.4698 31.0475C49.593 31.0475 49.7264 31.0064 49.8496 31.0988C49.8496 35.235 49.8496 39.3712 49.8496 43.4971V68.0576C49.7572 68.0166 49.7983 67.9447 49.788 67.8934C49.788 67.8216 49.788 67.76 49.788 67.6881C49.788 55.6901 49.788 43.6818 49.788 31.6735C49.7983 31.5298 49.8496 31.3862 49.7367 31.2733Z" fill="#E7563D"/>
<path d="M70.1406 31.0885C70.1406 31.0783 70.1406 31.0577 70.1406 31.0475C70.2535 31.0372 70.3562 31.0269 70.4691 31.0269C76.8529 31.0269 83.2266 31.0269 89.6105 31.0269C89.7234 31.0269 89.8465 30.9756 89.9389 31.0783L70.1406 31.0885Z" fill="#E85C50"/>
<path d="M69.9562 88.5641C69.8227 88.5641 69.6996 88.5641 69.5661 88.5641H50.2195C50.0963 88.5641 49.9834 88.5538 49.8602 88.5538C49.8397 88.4306 49.8602 88.3177 49.9218 88.2049C50.435 87.1272 50.9379 86.0495 51.4511 84.9719C52.4672 82.8473 53.4627 80.7125 54.4788 78.5982C54.5096 78.5161 54.5609 78.434 54.6225 78.3827H65.2349C65.4915 78.8343 65.6968 79.3064 65.9123 79.7683C66.3229 80.6612 66.7539 81.5438 67.1747 82.4368C68.0779 84.3355 68.9811 86.2445 69.874 88.1433C69.9562 88.2767 69.9869 88.4204 69.9562 88.5641Z" fill="#CF3339"/>
<path d="M54.632 78.3827C54.5909 78.5572 54.5293 78.7214 54.4369 78.8856C53.9443 79.912 53.4414 80.9383 52.959 81.9647C52.6306 82.6626 52.3021 83.3605 51.9737 84.0584C51.594 84.8692 51.2142 85.6698 50.8242 86.4703C50.5368 87.0656 50.2597 87.6712 49.9826 88.2767C49.9415 88.3691 49.9107 88.4614 49.8697 88.5538L49.7979 88.5743C49.7979 88.4409 49.7979 88.3178 49.7979 88.1843V68.3758C49.8902 68.4374 49.9621 68.5297 49.9929 68.6324C50.1879 69.0634 50.3829 69.5048 50.5881 69.9256C50.9063 70.5927 51.2347 71.2496 51.5426 71.9064C52.0866 73.0765 52.6408 74.2362 53.1951 75.396C53.5235 76.0837 53.8417 76.7816 54.1804 77.4692C54.3241 77.7772 54.4267 78.1056 54.632 78.3827Z" fill="#E33937"/>
<path d="M69.9556 88.5641C69.8837 88.2048 69.6785 87.9072 69.545 87.5788C69.3706 87.158 69.1653 86.7577 68.96 86.3369C68.4982 85.3721 68.026 84.4074 67.5745 83.4426C67.205 82.6626 66.8355 81.8825 66.466 81.1025C66.0657 80.2814 65.6962 79.4501 65.3062 78.629C65.2652 78.5469 65.2344 78.4648 65.2344 78.3724C65.8297 77.1203 66.4352 75.8681 67.0202 74.6057C67.3692 73.8668 67.7181 73.138 68.0671 72.3991C68.4571 71.578 68.8369 70.7672 69.2269 69.9564C69.4321 69.5253 69.6271 69.0942 69.8222 68.6632C69.8529 68.5605 69.9145 68.4579 70.0069 68.386V68.694C70.0069 75.201 70.0069 81.7183 70.0069 88.2254C70.0172 88.3485 70.0582 88.4717 69.9556 88.5641Z" fill="#E33937"/>
<path d="M43.7637 88.523C43.8253 88.4409 43.9279 88.4512 44.01 88.4512H49.5831C49.6241 88.4512 49.6652 88.4614 49.7062 88.4717C49.5933 88.5128 49.4804 88.523 49.3675 88.5025H44.0305C43.9484 88.5128 43.856 88.523 43.7637 88.523Z" fill="#E75840"/>
<path d="M83.4316 44.1437C83.4419 44.0718 83.4624 44.0103 83.5035 43.9487C83.9448 43.066 84.3861 42.1834 84.8275 41.3007C84.848 41.2391 84.8788 41.1981 84.9301 41.157C84.9506 41.1262 84.9712 41.1262 84.9917 41.157C84.5401 42.0705 84.0782 42.9736 83.6266 43.8871C83.5753 43.9795 83.5445 44.1026 83.4316 44.1437Z" fill="#E04437"/>
<path d="M84.9815 41.1673H84.9199C85.0431 40.7978 85.2586 40.4591 85.4228 40.0999C85.5049 39.9357 85.5563 39.7509 85.6897 39.6175C85.7102 39.5867 85.7307 39.5867 85.7513 39.6175L84.9815 41.1673Z" fill="#E24837"/>
<path d="M85.7618 39.6175H85.7002C85.8952 39.1351 86.1005 38.663 86.4186 38.2422C86.4289 38.3038 86.4084 38.3653 86.3878 38.4167C86.1415 38.7964 85.967 39.2172 85.7618 39.6175Z" fill="#E34C37"/>
<path d="M83.3189 44.3797C83.2984 44.2771 83.3497 44.1847 83.4421 44.1437C83.4318 44.236 83.3908 44.3284 83.3189 44.3797Z" fill="#E04437"/>
<path d="M83.2569 44.5132C83.2466 44.4619 83.2774 44.4208 83.3185 44.39C83.3185 44.4413 83.2979 44.4824 83.2569 44.5132Z" fill="#E04437"/>
<path d="M83.1953 44.6261C83.1851 44.5747 83.2159 44.5337 83.2569 44.5029C83.2569 44.5542 83.2364 44.5953 83.1953 44.6261Z" fill="#E04437"/>
</svg>
