<svg width="120" height="120" viewBox="0 0 120 120" fill="none" xmlns="http://www.w3.org/2000/svg">
<path d="M60 120C93.1364 120 120 93.1364 120 60C120 26.8636 93.1364 0 60 0C26.8636 0 0 26.8636 0 60C0 93.1364 26.8636 120 60 120Z" fill="#73BB59"/>
<path fill-rule="evenodd" clip-rule="evenodd" d="M90.6188 56.4273H29.3833V56.4259C27.3403 56.4199 25.6857 54.7653 25.6797 52.7223C25.6857 50.6793 27.3403 49.0246 29.3833 49.0186H36.5383L28.9033 28.8573C28.1853 26.9446 29.1466 24.811 31.0551 24.0818C32.9682 23.3647 35.1014 24.3265 35.8306 26.235L44.4583 49.0186H73.2297L81.8588 26.235C82.5874 24.326 84.7211 23.3639 86.6342 24.0818C88.5427 24.811 89.5041 26.9446 88.7861 28.8573L81.1524 49.0186H90.6188C92.6618 49.0246 94.3164 50.6793 94.3224 52.7223C94.3172 54.7658 92.6623 56.4213 90.6188 56.4273ZM90.6174 63.3409H29.3833C27.3409 63.3469 25.6864 65.0007 25.6797 67.0432C25.6849 69.0867 27.3398 70.7422 29.3833 70.7482H44.7679L55.1929 98.2786C55.7666 99.7801 57.2407 100.742 58.8461 100.664C60.4514 100.742 61.9255 99.7801 62.4992 98.2786L72.9242 70.7468H90.6188C92.6618 70.7408 94.3164 69.0862 94.3224 67.0432C94.3164 65.0002 92.6618 63.3455 90.6188 63.3396L90.6174 63.3409ZM58.8447 87.0082L52.6865 70.7455H65.0029L58.8447 87.0068V87.0082Z" fill="white"/>
</svg>
