<svg width="120" height="120" viewBox="0 0 120 120" fill="none" xmlns="http://www.w3.org/2000/svg">
<path d="M60 120C93.1364 120 120 93.1364 120 60C120 26.8636 93.1364 0 60 0C26.8636 0 0 26.8636 0 60C0 93.1364 26.8636 120 60 120Z" fill="url(#paint0_linear)"/>
<path fill-rule="evenodd" clip-rule="evenodd" d="M90.619 56.4273H29.3836V56.4259C27.3406 56.4199 25.6859 54.7653 25.6799 52.7223C25.6859 50.6793 27.3406 49.0246 29.3836 49.0186H36.5386L28.9036 28.8573C28.1855 26.9446 29.1469 24.811 31.0554 24.0818C32.9685 23.3647 35.1016 24.3265 35.8308 26.235L44.4586 49.0186H73.2299L81.859 26.235C82.5877 24.326 84.7214 23.3639 86.6345 24.0818C88.543 24.811 89.5044 26.9446 88.7863 28.8573L81.1527 49.0186H90.619C92.662 49.0246 94.3167 50.6793 94.3227 52.7223C94.3174 54.7658 92.6625 56.4213 90.619 56.4273ZM90.6177 63.3409H29.3836C27.3411 63.3469 25.6867 65.0007 25.6799 67.0432C25.6852 69.0867 27.3401 70.7422 29.3836 70.7482H44.7681L55.1931 98.2786C55.7669 99.7801 57.2409 100.742 58.8463 100.664C60.4517 100.742 61.9257 99.7801 62.4995 98.2786L72.9245 70.7468H90.619C92.662 70.7408 94.3167 69.0862 94.3227 67.0432C94.3167 65.0002 92.662 63.3455 90.619 63.3396L90.6177 63.3409ZM58.8449 87.0082L52.6868 70.7455H65.0031L58.8449 87.0068V87.0082Z" fill="white"/>
<defs>
<linearGradient id="paint0_linear" x1="49.8334" y1="144.45" x2="143.27" y2="70.0323" gradientUnits="userSpaceOnUse">
<stop stop-color="#F8B342"/>
<stop offset="1" stop-color="#F2C35E"/>
</linearGradient>
</defs>
</svg>
