<svg width="120" height="120" viewBox="0 0 120 120" fill="none" xmlns="http://www.w3.org/2000/svg">
<circle cx="60" cy="60" r="60" fill="#51CBFF"/>
<path d="M54.8781 91.8494L23.1627 27.2506C22.6473 26.2198 23.4222 25 24.5642 25H35.5537C36.1432 25 36.6957 25.3337 36.9552 25.8491L60.1171 72.7141C62.1822 76.9186 68.1553 76.9186 70.2205 72.7141L93.3082 25.8861C93.5677 25.3708 94.1202 25.0371 94.7097 25.0371H96.0741C96.8861 25.0371 97.4015 25.8861 97.0344 26.5869L64.9853 91.8494C62.9201 96.0502 56.9433 96.0502 54.8781 91.8494Z" fill="white"/>
<path opacity="0.1" d="M54.8783 91.8494L36.9554 25.8861C36.6958 25.3337 36.1063 25.0371 35.628 25.0371H24.6014C23.3853 25.0371 22.6845 26.2532 23.1628 27.2876L54.8783 91.8494Z" fill="white"/>
<path opacity="0.1" d="M60.117 72.7475L23.1626 27.2506C22.7214 26.1827 23.3851 25.1112 24.4158 25H35.5908C36.2173 25.0371 36.6956 25.4412 36.9181 25.8491L60.117 72.7475Z" fill="white"/>
</svg>
