<svg width="120" height="120" viewBox="0 0 120 120" fill="none" xmlns="http://www.w3.org/2000/svg">
<circle cx="60" cy="60" r="60" fill="#FF9933"/>
<path fill-rule="evenodd" clip-rule="evenodd" d="M23 30C27.14 30.0075 31.2837 30.0075 35.4199 30L43.2612 71.9257C43.3849 72.5444 43.5349 73.1557 43.6962 73.7632C44.0909 72.1986 44.3914 70.6125 44.6919 69.0265L44.6919 69.0264L44.6919 69.0263C44.8595 68.1414 45.0272 67.2566 45.2112 66.3756L52.3511 30L64.3661 30.0038L63.1527 35.4069C59.1508 53.2268 55.1485 71.0491 51.1399 88.8684H36.2262C31.8125 69.2594 27.4062 49.6503 23 30.0375V30ZM69.1773 48.4953C71.791 45.2102 75.9685 43.7215 79.996 43.459C83.971 43.1815 88.2535 43.5415 91.6209 45.9115C94.6022 47.9965 96.2372 51.5216 97.0134 55.0279C97.9547 59.423 98.0034 63.938 97.9997 68.4156H75.9873C75.99 68.8996 75.9879 69.3858 75.9859 69.8732V69.8735C75.9738 72.7206 75.9615 75.607 76.906 78.3158C77.4423 79.8758 78.4435 81.4283 80.0335 81.9946C81.7285 82.5458 83.7685 82.1858 85.006 80.8208C86.6018 79.0145 86.9769 76.5067 87.3255 74.176L87.361 73.9394H97.3509C97.1259 77.9145 96.3909 82.1146 93.7884 85.2384C91.1785 88.4859 86.971 89.8134 82.9885 89.9747C78.661 90.1397 73.9623 89.5509 70.5123 86.6371C67.3061 83.9633 65.9073 79.7258 65.3523 75.6645C64.7973 70.9881 64.7673 66.2556 65.0261 61.5567C65.3748 56.9742 66.2036 52.1216 69.1735 48.4915L69.1773 48.4953ZM75.9873 61.6655C75.9573 58.7742 76.0023 55.6166 77.7048 53.1641V53.1679H77.7123C79.5647 50.3816 84.4247 50.3928 85.9622 53.4979C87.0298 55.6686 87.1624 58.1268 87.2919 60.5257C87.3125 60.9076 87.333 61.288 87.3572 61.6655H75.9873Z" fill="white"/>
</svg>
