<svg width="120" height="120" viewBox="0 0 120 120" fill="none" xmlns="http://www.w3.org/2000/svg">
<circle cx="60" cy="60" r="60" fill="#418BCA"/>
<path fill-rule="evenodd" clip-rule="evenodd" d="M76.1122 30H94L60 98L26 30H43.7707L60.1171 64.4269L76.1122 30ZM60 48.734C57.0231 48.734 54.6091 46.2558 54.6091 43.1996C54.6091 40.1433 57.0231 37.6613 60 37.6613C62.9769 37.6613 65.3909 40.1433 65.3909 43.1996C65.3909 46.2558 62.9731 48.734 60 48.734ZM89.8104 69.5344C89.8142 66.4782 87.4002 63.9962 84.4233 63.9962V64C81.4464 64 79.0324 66.4782 79.0324 69.5344C79.0324 72.5907 81.4464 75.0689 84.4233 75.0689C87.4002 75.0689 89.8104 72.5944 89.8104 69.5344Z" fill="white"/>
</svg>
