<svg width="120" height="120" viewBox="0 0 120 120" fill="none" xmlns="http://www.w3.org/2000/svg">
<circle cx="60" cy="60" r="60" fill="#EDF0F4"/>
<path fill-rule="evenodd" clip-rule="evenodd" d="M31.5105 37.0002H47.8305C47.9176 36.9985 48.0036 37.0192 48.0805 37.0602C48.1538 37.1009 48.2157 37.1593 48.2605 37.2302L68.1305 69.0002C68.2386 69.1639 68.2386 69.3764 68.1305 69.5402L60.0005 82.5102C59.9557 82.581 59.8938 82.6395 59.8205 82.6802C59.6678 82.7638 59.4831 82.7638 59.3305 82.6802C59.2572 82.6395 59.1953 82.581 59.1505 82.5102L31.0805 37.7702C31.032 37.6955 31.0044 37.6092 31.0005 37.5202C30.9965 37.4297 31.0173 37.3398 31.0605 37.2602C31.1053 37.1807 31.171 37.115 31.2505 37.0702C31.3291 37.0235 31.419 36.9993 31.5105 37.0002ZM65.7205 37.0002H87.5805C87.6719 36.9993 87.7618 37.0235 87.8405 37.0702C87.9089 37.119 87.964 37.1844 88.0005 37.2602C88.0432 37.34 88.0639 37.4297 88.0605 37.5202C88.0626 37.6073 88.0419 37.6935 88.0005 37.7702L77.0805 55.2102C77.0357 55.281 76.9738 55.3395 76.9005 55.3802C76.7478 55.4638 76.5631 55.4638 76.4105 55.3802C76.3372 55.3395 76.2753 55.281 76.2305 55.2102L65.3005 37.7702C65.252 37.6955 65.2244 37.6092 65.2205 37.5202C65.2165 37.4297 65.2373 37.3398 65.2805 37.2602C65.3253 37.1807 65.391 37.115 65.4705 37.0702C65.5462 37.0252 65.6324 37.0011 65.7205 37.0002Z" fill="#FF8836"/>
</svg>
