<svg width="120" height="120" viewBox="0 0 120 120" fill="none" xmlns="http://www.w3.org/2000/svg">
<path fill-rule="evenodd" clip-rule="evenodd" d="M60 120C27 120 0 93.0006 0 59.7012C0.3 26.7019 27 -0.297518 60.3 0.00247602C93.3 0.30247 120 27.0019 120 60.6012C119.7 93.3006 93 120 60 120Z" fill="#048657"/>
<path fill-rule="evenodd" clip-rule="evenodd" d="M91.5633 27.9246C91.3018 27.6761 91.0379 27.4323 90.7717 27.1933L59.3936 70.6704L47.4042 55.3707H27.888L22.4034 61.6182H32.6075L56.9703 93.1105C57.7834 93.8753 58.5912 94.2577 59.3936 94.2577C60.1961 94.2577 60.9615 93.8753 61.6899 93.1105L100.211 39.8157C99.9879 39.3594 99.7575 38.9075 99.5196 38.4599C103.014 44.8575 105 52.197 105 59.9997C105 84.8507 84.8527 105 59.9997 105C35.1467 105 15 84.8528 15 59.9997C15 35.1467 35.1499 15 60.0008 15C72.2965 15 83.4412 19.9318 91.5633 27.9246Z" fill="#048657"/>
<path fill-rule="evenodd" clip-rule="evenodd" d="M22.4033 61.6181L27.8879 55.3707H47.4041L59.3936 70.6703L90.7717 27.1932C92.6403 28.8696 94.3836 30.7826 96.0016 32.9321C97.624 35.0883 99.0335 37.3937 100.211 39.8167L61.6898 93.1104C60.9618 93.8753 60.1964 94.2577 59.3936 94.2577C58.5908 94.2577 57.783 93.8753 56.9703 93.1104L32.6075 61.6181H22.4033Z" fill="white"/>
</svg>
