<svg width="120" height="120" viewBox="0 0 120 120" fill="none" xmlns="http://www.w3.org/2000/svg">
<path d="M60.5 113C89.495 113 113 89.495 113 60.5C113 31.505 89.495 8 60.5 8C31.505 8 8 31.505 8 60.5C8 89.495 31.505 113 60.5 113Z" fill="white"/>
<path fill-rule="evenodd" clip-rule="evenodd" d="M0 60C0 26.8613 26.8613 0 60 0C93.1387 0 120 26.8613 120 60C120 93.1387 93.1387 120 60 120C26.8613 120 0 93.1387 0 60Z" fill="#252C35"/>
<path fill-rule="evenodd" clip-rule="evenodd" d="M33.0283 67.8117C37.1474 67.8117 40.4433 64.5116 40.4433 60.3828C40.4516 59.3868 40.2604 58.399 39.8814 57.478C39.5024 56.5574 38.9431 55.7218 38.2364 55.0213C37.5301 54.3208 36.6906 53.7692 35.7676 53.3994C34.845 53.0293 33.8574 52.8485 32.8637 52.8677C28.4978 52.9502 25.2055 56.254 25.2878 60.3828C25.2878 64.6766 28.6624 67.8117 33.0321 67.8117H33.0283ZM60.0471 40.2375C62.0206 40.2138 63.9054 39.4121 65.2934 38.0054C66.6813 36.5988 67.4602 34.7009 67.4621 32.7223C67.4621 28.5973 63.8332 25.1247 59.7179 25.2072C55.4342 25.3722 52.056 28.7585 52.2206 32.8873C52.3029 37.0987 55.7635 40.32 60.0471 40.2375ZM79.7332 59.554C79.6509 63.8478 82.7822 67.1479 87.1482 67.2304C88.1228 67.2777 89.0966 67.1314 90.0143 66.7995C90.932 66.4676 91.7753 65.9573 92.4951 65.2972C93.2149 64.6376 93.7974 63.8411 94.2089 62.9546C94.6204 62.0681 94.8528 61.1088 94.8924 60.1315C95.0533 55.9202 91.761 52.3689 87.642 52.2864C83.2761 52.2039 79.8155 55.3427 79.7332 59.554ZM60.4586 94.8909C64.5777 94.8909 67.8736 91.5908 67.9559 87.5407C68.0382 83.4982 64.66 80.0294 60.6232 79.9469C56.2573 79.8644 52.7144 83.2469 52.7144 87.462C52.7144 91.5045 56.2573 94.8121 60.4586 94.8909ZM87.4774 72.4317C83.8522 72.3492 80.7208 71.2767 78.0871 68.5542C75.038 65.4979 71.3342 65.0854 68.6144 67.4779C65.7337 69.9529 65.5653 73.7555 68.4498 77.2206C71.5811 81.0194 73.968 84.9832 72.7334 90.1845C71.5811 95.0596 67.709 98.9372 62.9315 99.7622C57.6565 100.752 52.3852 98.6072 49.6691 94.1483C46.7884 89.5245 46.9492 84.8182 49.8337 80.1944C50.2452 79.5269 50.7503 78.9193 51.2516 78.3193C51.5546 77.9593 51.8614 77.5956 52.1383 77.2206C54.7758 73.9205 54.6935 70.2042 51.7267 67.7254C48.9283 65.3329 45.2171 65.6629 42.4187 68.5504C38.9618 72.2667 34.6744 73.673 29.7361 72.5142C24.5471 71.2767 20.8397 67.1516 20.0989 61.8641C19.4367 56.914 22.1566 51.6264 26.5224 49.2339C28.8188 47.9787 31.4398 47.4492 34.0414 47.714C36.6434 47.9791 39.1047 49.0265 41.1018 50.7189C41.3487 50.9251 41.5956 51.1689 41.8425 51.4201C42.0895 51.6676 42.3364 51.9151 42.5833 52.1214C45.3854 54.6827 49.2575 54.6827 51.809 52.2039C54.2782 49.8114 54.4466 46.0913 52.1383 43.2038L51.4723 42.4087C49.7177 40.3162 48.0304 38.3024 47.4431 35.4449C46.2085 29.5798 48.9283 23.7184 54.2819 21.2435C59.8002 18.6822 66.3061 20.1672 69.849 24.8735C71.6212 27.1516 72.5557 29.972 72.4959 32.86C72.436 35.7479 71.3847 38.5267 69.5198 40.7287C69.1905 41.1 68.8613 41.49 68.5321 41.8837C68.2029 42.2737 67.8736 42.6712 67.5444 43.0388C65.3184 46.0126 65.5653 49.6464 68.1206 52.0389C70.7543 54.4352 74.6302 54.4352 77.264 51.6264C80.0624 48.7388 83.2761 47.0026 87.3951 47.0026C89.0584 46.9981 90.7057 47.3243 92.2422 47.9626C93.7783 48.6008 95.1734 49.5384 96.3455 50.7208C97.518 51.9032 98.4443 53.3072 99.0717 54.8511C99.6987 56.395 100.014 58.0484 99.9991 59.7153C100.081 66.7354 94.3948 72.353 87.4774 72.4317ZM60.4586 92.4158C57.7425 92.4158 55.1873 89.9408 55.1873 87.297C55.1873 84.7357 57.6565 82.3394 60.3763 82.3394C61.0505 82.3289 61.7194 82.4542 62.3442 82.7077C62.9686 82.9615 63.5361 83.3384 64.0124 83.8162C64.4886 84.2943 64.8646 84.8632 65.1171 85.4894C65.3697 86.1157 65.4943 86.7866 65.483 87.462C65.483 90.3495 63.3431 92.4121 60.4586 92.4121V92.4158ZM82.2061 59.7153C82.2061 62.5278 84.5107 64.6729 87.3951 64.7554C88.0453 64.782 88.6944 64.6789 89.3042 64.4516C89.9144 64.2244 90.4733 63.8778 90.9485 63.4323C91.4236 62.9868 91.8056 62.451 92.0723 61.8558C92.3391 61.2611 92.485 60.6187 92.5018 59.9665C92.5841 57.1577 90.2758 54.6789 87.4774 54.6789C84.6753 54.6789 82.2023 57.079 82.2023 59.719L82.2061 59.7153ZM64.9892 32.8011C64.9892 35.6099 62.7669 37.8374 60.0471 37.9199C57.4096 38.0024 54.6935 35.4449 54.6935 32.8011C54.6935 30.0748 57.0803 27.7648 59.9648 27.7648C62.7669 27.7648 64.9892 29.9923 64.9892 32.8011ZM37.9704 60.4615C38.0056 59.7832 37.9008 59.1051 37.6629 58.4691C37.425 57.8331 37.0591 57.253 36.5877 56.7647C36.1163 56.2768 35.5495 55.8913 34.9232 55.6326C34.2966 55.3738 33.6235 55.2471 32.946 55.2602C30.1476 55.2602 27.6747 57.6527 27.6747 60.2965C27.6747 62.8541 30.4768 65.4154 33.2752 65.4154C35.8305 65.4154 37.9704 63.1841 37.9704 60.4615Z" fill="white"/>
</svg>
