<svg width="120" height="120" viewBox="0 0 120 120" fill="none" xmlns="http://www.w3.org/2000/svg">
<circle cx="60" cy="60" r="60" fill="#EDF0F4"/>
<path d="M41.5868 69.2344L22.5392 74.9487L21.9043 38.7582L40.9519 34.3138L41.5868 69.2344Z" fill="#8400FD"/>
<path fill-rule="evenodd" clip-rule="evenodd" d="M21.5238 75.5201C22.2222 75.9645 22.9841 76.2185 23.8095 76.2185C24.1421 76.2185 24.4263 76.1701 24.7465 76.1156C24.7931 76.1077 24.8405 76.0996 24.8889 76.0915L40.5714 72.0915C42.2857 71.6471 43.4921 70.1868 43.4921 68.5995V36.663C43.4921 35.5201 42.9206 34.4407 41.9048 33.7423C40.8889 33.0439 39.619 32.8534 38.4127 33.1074L22.8571 36.5995C21.2063 36.9804 20 38.3138 20 39.9011V72.7899C20 73.8693 20.5714 74.8852 21.5238 75.5201ZM37.0794 37.0439C37.2698 36.9804 37.5238 36.9804 37.7143 36.9804C38.2857 36.9804 38.8571 37.1709 39.4286 37.5519C40.0635 38.0598 40.4444 38.8217 40.4444 39.6471V67.3296C40.4444 68.536 39.619 69.6153 38.4762 69.9328L26.2857 73.4249C25.5238 73.6788 24.7619 73.4884 24.127 73.0439C23.4921 72.5995 23.1111 71.8376 23.1111 71.0757V42.5042C23.1111 41.3614 23.9365 40.3455 25.0159 40.0915L37.0794 37.0439Z" fill="white"/>
<path d="M54.9208 81.2979L35.8732 87.0122L35.2383 50.8217L54.2859 46.3773L54.9208 81.2979Z" fill="#02FFDB"/>
<path fill-rule="evenodd" clip-rule="evenodd" d="M35.4291 86.8852C36.064 87.3296 36.8259 87.5836 37.5878 87.5836C37.9053 87.5836 38.2227 87.5201 38.5402 87.4566L53.3973 83.5836C55.0481 83.2026 56.191 81.8058 56.191 80.2185V49.2979C56.191 48.2185 55.683 47.2026 54.7307 46.5042C53.7783 45.8693 52.5719 45.6153 51.4291 45.8693L36.6989 49.2344C35.1116 49.5518 33.9688 50.8852 33.9688 52.409V84.2185C33.9688 85.2979 34.5402 86.2502 35.4291 86.8852ZM50.4132 48.4725C50.6037 48.409 50.8576 48.409 51.0481 48.409C51.6195 48.409 52.191 48.5995 52.7624 48.9804C53.3973 49.4883 53.7783 50.2502 53.7783 51.0756V78.7582C53.7783 79.9645 52.9529 81.0439 51.81 81.3614L39.6195 84.8534C38.8576 85.1074 38.0957 84.9169 37.4608 84.4725C36.8259 84.028 36.4449 83.2661 36.4449 82.5042V53.9328C36.4449 52.7899 37.2703 51.7741 38.3497 51.5201L50.4132 48.4725Z" fill="white"/>
<path d="M69.5243 69.8693L50.4767 75.5836L49.8418 39.3931L68.8894 34.9487L69.5243 69.8693Z" fill="#8400FD"/>
<path fill-rule="evenodd" clip-rule="evenodd" d="M50.0326 75.5201C50.6675 75.9645 51.4294 76.2185 52.1913 76.2185C52.5088 76.2185 52.8262 76.155 53.1437 76.028L67.9373 72.155C69.5881 71.7741 70.731 70.3772 70.731 68.7899V37.8058C70.731 36.7264 70.2231 35.7106 69.2707 35.0121C68.3183 34.3772 67.1119 34.1233 65.9691 34.3772L51.3024 37.7423C49.7151 38.0598 48.5723 39.3931 48.5723 40.9169V72.8534C48.5723 73.9328 49.1437 74.8852 50.0326 75.5201ZM65.0167 37.0439C65.2072 36.9804 65.4612 36.9804 65.6516 36.9804C66.2231 36.9804 66.7945 37.1709 67.3024 37.5518C67.9373 38.0598 68.3183 38.8217 68.3183 39.6471V67.3296C68.3183 68.536 67.4929 69.6153 66.35 69.9328L54.2231 73.4248C53.4612 73.6788 52.6358 73.4883 52.0008 73.0439C51.3659 72.5994 50.985 71.8375 50.985 71.0756V42.5042C50.985 41.3614 51.8104 40.3455 52.8897 40.0915L65.0167 37.0439Z" fill="white"/>
<path d="M84.1279 81.2979L65.0802 87.0122L64.4453 50.8217L83.4929 46.3773L84.1279 81.2979Z" fill="#02FFDB"/>
<path fill-rule="evenodd" clip-rule="evenodd" d="M64.0629 86.9487C64.7613 87.3931 65.5232 87.6471 66.3486 87.6471C66.7295 87.6471 67.047 87.5836 67.428 87.4566L83.1105 83.4566C84.8248 83.0122 86.0311 81.5519 86.0311 79.9646V48.0281C86.0311 46.9487 85.4597 45.8693 84.4438 45.1709C83.428 44.4725 82.1581 44.282 80.9518 44.536L65.3962 48.0281C63.7454 48.409 62.5391 49.7423 62.5391 51.3296V84.2185C62.5391 85.2979 63.1105 86.3138 64.0629 86.9487ZM79.6184 48.4725C79.8089 48.409 80.0629 48.409 80.2533 48.409C80.8248 48.409 81.3962 48.5995 81.9676 48.9804C82.6026 49.4884 82.9835 50.2503 82.9835 51.0757V78.7582C82.9835 79.9646 82.1581 81.0439 81.0153 81.3614L68.8248 84.8535C68.0629 85.1074 67.301 84.9169 66.666 84.4725C66.0311 84.0281 65.6502 83.2662 65.6502 82.5042V53.9328C65.6502 52.79 66.4756 51.7741 67.5549 51.5201L79.6184 48.4725Z" fill="white"/>
<path d="M98.7294 69.2344L79.6818 74.9487L79.0469 38.7582L98.0945 34.3138L98.7294 69.2344Z" fill="#8400FD"/>
<path fill-rule="evenodd" clip-rule="evenodd" d="M78.0316 75.5201C78.73 75.9645 79.4919 76.2185 80.3173 76.2185C80.6983 76.2185 81.0157 76.155 81.3967 76.028L97.0792 72.028C98.7935 71.5836 99.9999 70.1233 99.9999 68.536V36.5995C99.9999 35.5201 99.4284 34.4407 98.4126 33.7423C97.3967 33.0439 96.1269 32.8534 94.9205 33.1074L79.365 36.5995C77.7142 36.9804 76.5078 38.3138 76.5078 39.9011V72.7899C76.5078 73.8693 77.0792 74.8852 78.0316 75.5201ZM93.5872 37.0439C93.7777 36.9804 94.0316 36.9804 94.2221 36.9804C94.7935 36.9804 95.365 37.1709 95.9364 37.5519C96.5713 38.0598 96.9523 38.8217 96.9523 39.6471V67.3296C96.9523 68.536 96.1269 69.6153 94.984 69.9328L82.7935 73.4249C82.0316 73.6788 81.2697 73.4884 80.6348 73.0439C79.9999 72.5995 79.6189 71.8376 79.6189 71.0757V42.5042C79.6189 41.3614 80.4443 40.3455 81.5237 40.0915L93.5872 37.0439Z" fill="white"/>
</svg>
