<svg width="1280" height="172" viewBox="0 0 1280 172" fill="none" xmlns="http://www.w3.org/2000/svg">
<path d="M89.4395 95.9766L99.0195 39.9023H127.408L104.996 135H79.9473L64.2148 78.5742L48.3945 135H23.3457L0.933594 39.9023H29.3223L38.7266 97.2949L53.8438 39.9023H74.498L89.4395 95.9766ZM220.221 95.9766L229.801 39.9023H258.189L235.777 135H210.729L194.996 78.5742L179.176 135H154.127L131.715 39.9023H160.104L169.508 97.2949L184.625 39.9023H205.279L220.221 95.9766ZM351.002 95.9766L360.582 39.9023H388.971L366.559 135H341.51L325.777 78.5742L309.957 135H284.908L262.496 39.9023H290.885L300.289 97.2949L315.406 39.9023H336.061L351.002 95.9766ZM407.076 106.26C411.764 106.26 415.66 107.666 418.766 110.479C421.871 113.232 423.424 116.777 423.424 121.113C423.424 125.449 421.871 129.023 418.766 131.836C415.66 134.59 411.764 135.967 407.076 135.967C402.33 135.967 398.404 134.561 395.299 131.748C392.252 128.936 390.729 125.391 390.729 121.113C390.729 116.836 392.252 113.291 395.299 110.479C398.404 107.666 402.33 106.26 407.076 106.26ZM493.033 108.281C493.033 105.762 491.715 103.74 489.078 102.217C486.441 100.693 481.432 99.1113 474.049 97.4707C466.666 95.8301 460.572 93.6914 455.768 91.0547C450.963 88.3594 447.301 85.1074 444.781 81.2988C442.262 77.4902 441.002 73.125 441.002 68.2031C441.002 59.4727 444.605 52.2949 451.812 46.6699C459.02 40.9863 468.453 38.1445 480.113 38.1445C492.652 38.1445 502.73 40.9863 510.348 46.6699C517.965 52.3535 521.773 59.8242 521.773 69.082H492.066C492.066 61.4648 488.053 57.6562 480.025 57.6562C476.92 57.6562 474.312 58.5352 472.203 60.293C470.094 61.9922 469.039 64.1309 469.039 66.709C469.039 69.3457 470.328 71.4844 472.906 73.125C475.484 74.7656 479.586 76.1133 485.211 77.168C490.895 78.2227 495.875 79.4824 500.152 80.9473C514.449 85.8691 521.598 94.6875 521.598 107.402C521.598 116.074 517.73 123.135 509.996 128.584C502.32 134.033 492.359 136.758 480.113 136.758C471.969 136.758 464.703 135.293 458.316 132.363C451.93 129.434 446.949 125.449 443.375 120.41C439.801 115.371 438.014 110.068 438.014 104.502H465.699C465.816 108.896 467.281 112.119 470.094 114.17C472.906 116.162 476.51 117.158 480.904 117.158C484.947 117.158 487.965 116.338 489.957 114.697C492.008 113.057 493.033 110.918 493.033 108.281ZM623.814 88.1543C623.814 102.92 620.475 114.727 613.795 123.574C607.174 132.363 598.209 136.758 586.9 136.758C578.17 136.758 570.992 133.564 565.367 127.178V171.562H535.748V39.9023H563.434L564.312 48.6914C569.996 41.6602 577.467 38.1445 586.725 38.1445C598.443 38.1445 607.555 42.4805 614.059 51.1523C620.562 59.7656 623.814 71.6309 623.814 86.748V88.1543ZM594.195 86.3086C594.195 69.4336 589.273 60.9961 579.43 60.9961C572.398 60.9961 567.711 63.5156 565.367 68.5547V105.996C567.945 111.27 572.691 113.906 579.605 113.906C589.039 113.906 593.902 105.762 594.195 89.4727V86.3086ZM668.199 135H638.492V0H668.199V135ZM717.77 135H688.062V39.9023H717.77V135ZM686.305 15.3809C686.305 11.1621 687.828 7.70508 690.875 5.00977C693.922 2.31445 697.877 0.966797 702.74 0.966797C707.604 0.966797 711.559 2.31445 714.605 5.00977C717.652 7.70508 719.176 11.1621 719.176 15.3809C719.176 19.5996 717.652 23.0566 714.605 25.752C711.559 28.4473 707.604 29.7949 702.74 29.7949C697.877 29.7949 693.922 28.4473 690.875 25.752C687.828 23.0566 686.305 19.5996 686.305 15.3809ZM763.297 39.9023L764.264 51.0645C770.826 42.4512 779.879 38.1445 791.422 38.1445C801.324 38.1445 808.707 41.1035 813.57 47.0215C818.492 52.9395 821.041 61.8457 821.217 73.7402V135H791.51V74.9707C791.51 70.166 790.543 66.6504 788.609 64.4238C786.676 62.1387 783.16 60.9961 778.062 60.9961C772.262 60.9961 767.955 63.2812 765.143 67.8516V135H735.523V39.9023H763.297ZM883.707 136.758C869.117 136.758 857.311 132.422 848.287 123.75C839.264 115.02 834.752 103.682 834.752 89.7363V87.2754C834.752 77.5488 836.539 68.9648 840.113 61.5234C843.746 54.082 849.02 48.3398 855.934 44.2969C862.848 40.1953 871.051 38.1445 880.543 38.1445C893.902 38.1445 904.449 42.3047 912.184 50.625C919.918 58.8867 923.785 70.4297 923.785 85.2539V96.7676H864.898C865.953 102.1 868.268 106.289 871.842 109.336C875.416 112.383 880.045 113.906 885.729 113.906C895.104 113.906 902.428 110.625 907.701 104.062L921.236 120.059C917.545 125.156 912.301 129.229 905.504 132.275C898.766 135.264 891.5 136.758 883.707 136.758ZM880.367 60.9961C871.695 60.9961 866.539 66.7383 864.898 78.2227H894.781V75.9375C894.898 71.1914 893.697 67.5293 891.178 64.9512C888.658 62.3145 885.055 60.9961 880.367 60.9961ZM954.107 106.26C958.795 106.26 962.691 107.666 965.797 110.479C968.902 113.232 970.455 116.777 970.455 121.113C970.455 125.449 968.902 129.023 965.797 131.836C962.691 134.59 958.795 135.967 954.107 135.967C949.361 135.967 945.436 134.561 942.33 131.748C939.283 128.936 937.76 125.391 937.76 121.113C937.76 116.836 939.283 113.291 942.33 110.479C945.436 107.666 949.361 106.26 954.107 106.26ZM986.539 86.5723C986.539 77.0801 988.385 68.6426 992.076 61.2598C995.768 53.8184 1001.07 48.1055 1007.98 44.1211C1014.9 40.1367 1023.01 38.1445 1032.33 38.1445C1046.57 38.1445 1057.79 42.5684 1065.99 51.416C1074.2 60.2051 1078.3 72.1875 1078.3 87.3633V88.418C1078.3 103.242 1074.17 115.02 1065.9 123.75C1057.7 132.422 1046.57 136.758 1032.51 136.758C1018.97 136.758 1008.1 132.715 999.898 124.629C991.695 116.484 987.271 105.469 986.627 91.582L986.539 86.5723ZM1016.16 88.418C1016.16 97.207 1017.54 103.652 1020.29 107.754C1023.04 111.855 1027.12 113.906 1032.51 113.906C1043.05 113.906 1048.44 105.791 1048.68 89.5605V86.5723C1048.68 69.5215 1043.23 60.9961 1032.33 60.9961C1022.43 60.9961 1017.07 68.3496 1016.25 83.0566L1016.16 88.418ZM1118.55 39.9023L1119.52 51.0645C1126.08 42.4512 1135.13 38.1445 1146.68 38.1445C1156.58 38.1445 1163.96 41.1035 1168.82 47.0215C1173.75 52.9395 1176.29 61.8457 1176.47 73.7402V135H1146.76V74.9707C1146.76 70.166 1145.8 66.6504 1143.86 64.4238C1141.93 62.1387 1138.41 60.9961 1133.32 60.9961C1127.52 60.9961 1123.21 63.2812 1120.4 67.8516V135H1090.78V39.9023H1118.55ZM1238.96 136.758C1224.37 136.758 1212.56 132.422 1203.54 123.75C1194.52 115.02 1190.01 103.682 1190.01 89.7363V87.2754C1190.01 77.5488 1191.79 68.9648 1195.37 61.5234C1199 54.082 1204.27 48.3398 1211.19 44.2969C1218.1 40.1953 1226.3 38.1445 1235.8 38.1445C1249.16 38.1445 1259.7 42.3047 1267.44 50.625C1275.17 58.8867 1279.04 70.4297 1279.04 85.2539V96.7676H1220.15C1221.21 102.1 1223.52 106.289 1227.1 109.336C1230.67 112.383 1235.3 113.906 1240.98 113.906C1250.36 113.906 1257.68 110.625 1262.96 104.062L1276.49 120.059C1272.8 125.156 1267.55 129.229 1260.76 132.275C1254.02 135.264 1246.75 136.758 1238.96 136.758ZM1235.62 60.9961C1226.95 60.9961 1221.79 66.7383 1220.15 78.2227H1250.04V75.9375C1250.15 71.1914 1248.95 67.5293 1246.43 64.9512C1243.91 62.3145 1240.31 60.9961 1235.62 60.9961Z" fill="#4A90E2"/>
</svg>
