<svg width="120" height="120" viewBox="0 0 120 120" fill="none" xmlns="http://www.w3.org/2000/svg">
<circle cx="60" cy="60" r="60" fill="#FAA00D"/>
<path fill-rule="evenodd" clip-rule="evenodd" d="M97.97 54.446L62.4613 96.0393L60.8675 98L23.0262 54.8653L23.1462 54.8162L23 54.7936L37.7075 30.0227L37.715 30.0302L37.7075 30H83.66L83.6525 30.0264L98 54.4422L97.97 54.446ZM48.71 56.18L40.5725 70.0596L60.6425 93.1493L80.7538 69.8707L72.7962 56.1384L48.71 56.18ZM44.8925 56.1838L38.2925 67.4378L28.535 56.2102L44.8925 56.1838ZM74.7538 52.9084L93.3313 52.8782L81.6688 33.2036L63.3613 33.2413L74.7538 52.9084ZM76.6213 56.1309L92.645 56.1044L83.045 67.2187L76.6213 56.1309ZM70.9287 52.916L60.8375 35.4929L50.6 52.9462L70.9287 52.916ZM27.8075 52.9878L39.4325 33.2942L58.3325 33.2564L46.7825 52.9538L27.8075 52.9878Z" fill="white"/>
</svg>
