<svg width="120" height="120" viewBox="0 0 120 120" fill="none" xmlns="http://www.w3.org/2000/svg">
<circle cx="60" cy="60" r="60" fill="#56F4F1"/>
<path fill-rule="evenodd" clip-rule="evenodd" d="M33.9425 34.0075C23.7875 34 23 34.0038 23 34.0602C23 34.0979 28.5013 43.5096 35.225 54.9807C43.895 69.7722 47.4688 75.8334 47.51 75.8259C47.5662 75.8146 71.9975 34.1129 71.9975 34.0376C71.9975 34.0151 66.875 34 60.4775 34C50.6 34 48.9538 34.0075 48.9538 34.0565C48.9538 34.0828 51.3275 38.1148 54.2262 43.0165C57.125 47.9181 59.5062 51.9539 59.5137 51.9765C59.5212 51.9991 59.0788 52.7784 58.5387 53.712L57.5488 55.4061L57.4437 55.2292L51.1138 44.5336L44.8888 34.0188L33.9425 34.0075ZM87.0163 34C80.975 34 76.025 34.0113 76.025 34.0264H76.0212C75.62 34.6965 49.5613 79.2668 49.5425 79.3082C49.52 79.4023 60.4325 98.0151 60.5037 98C60.5487 97.9887 71.525 79.3158 71.5588 79.184C69.9254 76.3245 68.2629 73.482 66.5713 70.6569C66.2946 70.1892 66.0228 69.7299 65.7579 69.2819C63.387 65.274 61.5571 62.1807 61.5537 62.1638C61.5387 62.1186 63.5075 58.7642 63.5375 58.7831C63.5521 58.7904 65.6959 62.4068 68.348 66.8807L68.5513 67.2235C72.3988 73.7252 73.5462 75.6414 73.595 75.6339C73.6475 75.6263 77.7238 68.7031 85.82 54.8979C92.4987 43.4984 97.9737 34.1318 97.985 34.0828L98 34H87.0163Z" fill="white"/>
</svg>
