<svg width="120" height="120" viewBox="0 0 120 120" fill="none" xmlns="http://www.w3.org/2000/svg">
<path d="M60 120C93.138 120 120 93.138 120 60C120 26.862 93.138 0 60 0C26.862 0 0 26.862 0 60C0 93.138 26.862 120 60 120Z" fill="#EDF0F4"/>
<path d="M60.5 15C85.5459 15 106 35.2711 106 60.124C106 84.9769 85.5459 105.248 60.5 105.248C35.315 105.248 15 85.1157 15 60.124C15 35.1322 35.315 15 60.5 15Z" fill="#32407B"/>
<path d="M60.5 21.7686C81.8931 21.7686 99.2314 38.8928 99.2314 60.0544C99.2314 81.216 81.7533 98.4794 60.5 98.4794C39.1068 98.4794 21.7686 81.216 21.7686 60.0544C21.7686 38.8928 39.1068 21.7686 60.5 21.7686Z" fill="#32407B"/>
<path fill-rule="evenodd" clip-rule="evenodd" d="M21.0166 60.124C21.0166 81.6957 38.7353 99.2314 60.5001 99.2314C82.1253 99.2314 99.9835 81.6957 99.9835 60.124C99.9835 38.5523 82.2648 21.0165 60.5001 21.0165C38.7353 21.0165 21.0166 38.5523 21.0166 60.124ZM22.8303 60.124C22.8303 39.5265 39.712 22.6866 60.5001 22.6866C81.2882 22.6866 98.1698 39.5265 98.1698 60.124C98.1698 80.7215 81.2882 97.5613 60.5001 97.5613C39.712 97.5613 22.8303 80.7215 22.8303 60.124Z" fill="white"/>
<path fill-rule="evenodd" clip-rule="evenodd" d="M43.6644 75.1653H77.1953C77.7541 75.1653 78.0336 74.7529 78.1733 74.3405V45.4708C78.1733 40.6592 74.1216 36.8099 69.2317 36.8099H51.7677C46.7381 36.8099 42.8262 40.6592 42.8262 45.4708V74.3405C42.8262 74.7529 43.2453 75.1653 43.6644 75.1653ZM76.357 73.5156H44.6424V45.6083C44.6424 41.759 47.8558 38.5971 51.7677 38.5971H69.2317C73.1437 38.5971 76.357 41.759 76.357 45.6083V73.5156Z" fill="white"/>
<path fill-rule="evenodd" clip-rule="evenodd" d="M55.5092 43.7072H65.5668C66.1179 43.7072 66.3935 43.299 66.3935 42.8908C66.3935 42.4826 65.9802 42.0744 65.5668 42.0744H55.5092C55.0959 42.0744 54.6826 42.4826 54.6826 42.8908C54.6826 43.299 55.0959 43.7072 55.5092 43.7072ZM51.7893 70.5119C49.8604 70.5119 48.3449 69.0152 48.3449 67.1103C48.3449 65.2054 49.8604 63.7087 51.7893 63.7087C53.7181 63.7087 55.2337 65.2054 55.2337 67.1103C55.2337 69.0152 53.5804 70.5119 51.7893 70.5119ZM51.7893 65.3414C50.8249 65.3414 49.9982 66.1578 49.9982 67.1103C49.9982 68.0627 50.8249 68.8791 51.7893 68.8791C52.7537 68.8791 53.5804 68.0627 53.5804 67.1103C53.4426 66.0218 52.7537 65.3414 51.7893 65.3414ZM65.9802 67.1103C65.9802 69.0152 67.4957 70.5119 69.4245 70.5119C71.3534 70.5119 72.8689 69.0152 72.8689 67.1103C72.8689 65.2054 71.3534 63.7087 69.4245 63.7087C67.4957 63.7087 65.9802 65.2054 65.9802 67.1103ZM69.4245 65.3414C68.4601 65.3414 67.6335 66.1578 67.6335 67.1103C67.6335 68.0627 68.4601 68.8791 69.4245 68.8791C70.389 68.8791 71.2156 68.0627 71.2156 67.1103C71.2156 66.0218 70.389 65.3414 69.4245 65.3414ZM76.5889 83.438C76.3133 83.438 76.0378 83.302 75.9 83.1659L70.5267 75.6824C70.2512 75.2742 70.389 74.866 70.8023 74.5938C71.2156 74.3217 71.6289 74.4578 71.9045 74.866L77.2777 82.3495C77.5533 82.7577 77.4155 83.1659 77.0022 83.438H76.5889ZM43.9361 83.302C44.2116 83.438 44.3494 83.438 44.4872 83.438C44.7627 83.438 45.0383 83.302 45.0383 83.0298L50.4115 75.5463C50.6871 75.2742 50.4115 74.7299 50.136 74.4578C49.8604 74.1856 49.3093 74.3217 49.0338 74.7299L43.6605 82.2135C43.5227 82.4856 43.5227 83.0298 43.9361 83.302Z" fill="white"/>
<path fill-rule="evenodd" clip-rule="evenodd" d="M77.3495 50.5006H44.4018C43.99 50.5006 43.5781 50.0862 43.5781 49.6718C43.5781 49.2574 43.99 48.843 44.4018 48.843H77.3495C77.7613 48.843 78.1732 49.2574 78.1732 49.6718C78.1732 50.0862 77.8986 50.5006 77.3495 50.5006ZM46.3238 82.6859C46.1865 82.6859 46.0492 82.6859 45.7746 82.5478C45.3628 82.2715 45.3628 81.719 45.5001 81.4427L49.4812 75.7792C49.7558 75.3648 50.3049 75.2267 50.5795 75.5029C50.8541 75.7792 51.1286 76.3317 50.8541 76.608L46.8729 82.2715C46.8729 82.5478 46.5983 82.6859 46.3238 82.6859ZM44.4018 61.1369H77.3495C77.8986 61.1369 78.1732 60.7225 78.1732 60.3081C78.1732 59.8937 77.7613 59.4793 77.3495 59.4793H44.4018C43.99 59.4793 43.5781 59.8937 43.5781 60.3081C43.5781 60.7225 43.99 61.1369 44.4018 61.1369Z" fill="white"/>
<path fill-rule="evenodd" clip-rule="evenodd" d="M56.1739 60.3191C56.3109 60.5927 56.4478 60.5927 56.7217 60.5927C56.9955 60.5927 57.1324 60.4559 57.2694 60.3191L64.9372 51.7005C65.3479 51.4269 65.211 50.8797 64.9372 50.6061C64.6633 50.1957 64.1156 50.3325 63.8418 50.6061L56.1739 59.2247C55.7632 59.4983 55.9001 60.0455 56.1739 60.3191ZM51.2446 60.3191C51.3816 60.5927 51.5185 60.5927 51.7923 60.5927C51.9293 60.5927 52.2031 60.4559 52.2031 60.3191L56.037 56.0782C56.4478 55.8046 56.3109 55.2574 56.037 54.9838C55.7632 54.5734 55.2155 54.7102 54.9416 54.9838L51.1077 59.2247C50.8339 59.4983 50.8339 60.0455 51.2446 60.3191ZM72.4681 78.377H48.5061C48.0954 78.377 47.6846 77.9666 47.6846 77.5562C47.6846 77.1458 48.0954 76.7354 48.5061 76.7354H72.4681C72.8788 76.7354 73.2896 77.1458 73.2896 77.5562C73.2896 77.9666 73.0158 78.377 72.4681 78.377ZM45.9046 81.9339H75.0696C75.6173 81.9339 76.0281 81.5235 75.8912 81.1131C75.8912 80.7027 75.4804 80.2923 75.0696 80.2923H45.9046C45.4938 80.2923 45.083 80.7027 45.083 81.1131C45.083 81.5235 45.4938 81.9339 45.9046 81.9339Z" fill="white"/>
<path fill-rule="evenodd" clip-rule="evenodd" d="M26.2812 60.124C26.2812 78.8486 41.4761 93.967 60.2624 93.967C78.9105 93.967 93.9672 78.8486 93.9672 60.124C93.9672 41.3994 78.7724 26.281 60.1242 26.281C41.4761 26.281 26.2812 41.5381 26.2812 60.124ZM28.077 60.124C28.077 42.3703 42.443 27.9454 60.2624 27.9454C77.9436 27.9454 92.4477 42.3703 92.4477 60.124C92.4477 77.8777 77.9436 92.3025 60.2624 92.3025C42.5811 92.3025 28.077 77.8777 28.077 60.124Z" fill="white"/>
</svg>
