<svg width="120" height="120" viewBox="0 0 120 120" fill="none" xmlns="http://www.w3.org/2000/svg">
<circle cx="60" cy="60" r="60" fill="#EDF0F4"/>
<path d="M100 62.7328L88.3564 74.384H77.2936C76.0434 74.3866 75.0306 75.3994 75.028 76.6496V83.2896C75.0153 84.0174 74.4215 84.6005 73.6936 84.6H65.2472C64.8932 84.6002 64.5537 84.4597 64.3034 84.2094C64.0531 83.9591 63.9126 83.6196 63.9128 83.2656V67.1352L70.8272 60.2212C71.3508 59.7282 72.1709 59.7388 72.6816 60.2452L75.7336 63.2972H83.7336L88.8936 58.1408V51.372L83.6072 46.0624H76.4952L48.2216 74.3356H31.744L20 62.6V46.764L31.7564 35.008H47.8264L54.7932 41.9744C55.2891 42.4915 55.2891 43.3077 54.7932 43.8248L48.8708 49.7272C48.3984 50.272 47.5742 50.3316 47.0284 49.8604C46.996 49.832 46.964 49.8 46.9316 49.7716L43.2388 46.0916H36.3444L31.0832 51.352V58.02L36.328 63.2732H43.6296L71.9076 35H88.2L100 46.8V62.7328Z" fill="#EC1550"/>
</svg>
