<svg width="120" height="120" viewBox="0 0 120 120" fill="none" xmlns="http://www.w3.org/2000/svg">
<circle cx="60" cy="60" r="60" fill="#EDF0F4"/>
<path fill-rule="evenodd" clip-rule="evenodd" d="M20.0292 56.1805C21.2704 13.2299 90.8084 2.92421 100 56.1805C95.3046 58.5388 93.2723 59.5067 93.2723 59.5067C93.2723 59.5067 95.6413 60.9128 99.9865 63.5763C96.3534 108.265 28.0138 115.847 20 63.6366C24.4364 60.8022 26.5636 59.5287 26.5636 59.5287C26.5636 59.5287 24.0431 58.2632 20.0292 56.1805ZM59.263 63.5619L65.7857 74.7757L71.3756 74.6606L62.6403 58.4129L70.5606 44.9111L65.7852 44.7969L59.7278 54.5226L53.6713 44.3388L48.5466 44.7969L57.049 58.5276L47.6152 74.4322L52.6234 74.7757L59.263 63.5619Z" fill="#B7B5B1"/>
<path fill-rule="evenodd" clip-rule="evenodd" d="M23.3599 54.1353C27.2623 19.6985 84.235 6.92709 96.6663 54.1353C95.1555 54.9335 86.7907 59.609 86.7907 59.609C86.7907 59.609 90.45 61.875 96.6538 65.7635C93.2851 102.481 31.8136 111.203 23.333 65.8187C30.0036 61.5818 33.0589 59.6288 33.0589 59.6288C33.0589 59.6288 31.2651 58.583 23.3599 54.1353ZM59.2642 63.6164L65.7703 74.8002L71.3462 74.6854L62.6329 58.4807L70.5332 45.0147L65.7703 44.9008L59.7284 54.6008L53.6874 44.4438L48.576 44.9008L57.0561 58.5946L47.6464 74.4576L52.642 74.8002L59.2642 63.6164Z" fill="#244B81"/>
</svg>
