<svg width="120" height="120" viewBox="0 0 120 120" fill="none" xmlns="http://www.w3.org/2000/svg">
<circle cx="60" cy="60" r="60" fill="#1EB5FA"/>
<path fill-rule="evenodd" clip-rule="evenodd" d="M34.0418 33.12L20.871 27.1542C20.4772 26.9399 19.9989 26.9495 19.6141 27.1796C19.2293 27.4097 18.9957 27.8257 19.0001 28.2728V90.6899C19.0005 91.1506 19.2508 91.5751 19.6546 91.7995C20.0583 92.0238 20.5523 92.013 20.9458 91.7712L34.1915 84.7987C34.9355 84.3471 35.3893 83.5415 35.3888 82.6734V35.3199C35.3598 34.4014 34.8481 33.5659 34.0418 33.12ZM99.0916 27.1915L85.5092 33.1946C84.7022 33.6345 84.2001 34.4779 84.1996 35.3945V83.792C84.1966 84.7196 84.7174 85.5702 85.5466 85.9918L99.129 91.8458C99.5228 92.0601 100.001 92.0505 100.386 91.8204C100.771 91.5903 101.004 91.1743 101 90.7272V28.3101C100.986 27.8627 100.742 27.4539 100.355 27.227C99.9678 27.0001 99.491 26.9867 99.0916 27.1915ZM61.1693 41.5467L75.3504 49.6378C76.1435 50.0869 76.6304 50.9287 76.6226 51.8377V68.2436C76.621 69.1501 76.1367 69.9876 75.3504 70.4435L61.1693 78.6465C60.3948 79.0939 59.4369 79.0939 58.6623 78.6465L44.2193 70.3689C43.4335 69.914 42.9471 69.0751 42.9471 68.169V51.7631C42.9487 50.8566 43.4331 50.0191 44.2193 49.5632L58.6623 41.5467C59.4376 41.0989 60.3941 41.0989 61.1693 41.5467Z" fill="white"/>
</svg>
