<svg width="120" height="120" viewBox="0 0 120 120" fill="none" xmlns="http://www.w3.org/2000/svg">
<path d="M60 120C93.1372 120 120 93.1372 120 60C120 26.8629 93.1372 0 60 0C26.8629 0 0 26.8629 0 60C0 93.1372 26.8629 120 60 120Z" fill="#1F5B35"/>
<path fill-rule="evenodd" clip-rule="evenodd" d="M45.2177 10.7281C44.4959 11.3348 43.132 12.5702 41.9951 14.3178C40.8586 16.0654 39.9493 18.3253 39.3506 19.5156C38.7519 20.7059 38.4638 20.8264 38.0851 20.9093C37.7063 20.9921 37.2366 21.0372 36.5324 20.5176C35.8282 19.998 34.8903 18.9137 33.1094 19.1026C31.3288 19.2908 28.7055 20.7515 26.5075 22.258C24.3094 23.7644 22.5361 25.3158 21.0281 27.2821C19.52 29.2485 18.2773 31.629 16.9513 34.3823C15.6253 37.1357 14.2159 40.2616 13.2722 42.4956C12.3286 44.7292 11.8512 46.07 12.0412 48.9025C12.2305 51.7356 13.0865 56.0603 14.2729 59.4272C15.4586 62.7944 16.9746 65.2044 18.1866 66.9441C19.3993 68.6838 20.3087 69.7533 21.324 70.1377C22.3394 70.5219 23.4607 70.2205 25.2494 69.6631C27.0381 69.1057 29.4929 68.292 30.3723 68.3603C31.251 68.4278 30.5543 69.3774 29.2129 71.072C27.8715 72.7672 25.8861 75.2076 24.1961 77.4225C22.5061 79.6372 21.112 81.6261 20.5133 83.2757C19.9146 84.9253 20.1114 86.236 21.9454 88.4283C23.7794 90.6206 27.2501 93.6937 29.4402 95.7879C31.6301 97.8823 32.5397 98.9969 33.8731 99.3136C35.2064 99.6306 36.9648 99.148 40.1016 99.0579C43.2391 98.9677 47.7552 99.2685 52.408 100.383C57.0608 101.498 61.8502 103.427 66.6427 105.713C71.4358 107.999 76.2326 110.643 78.6498 111.943C81.0674 113.242 81.1053 113.197 81.3138 112.594C81.522 111.992 81.9014 110.831 82.5112 108.971C83.1213 107.11 83.9621 104.549 85.3047 98.9398C86.6473 93.3301 88.4918 84.6717 89.9389 79.1803C91.3864 73.6889 92.4373 71.3639 93.0458 70.0169C93.6544 68.6703 93.8209 68.3012 93.6124 67.5024C93.4042 66.704 92.821 65.476 92.59 64.5305C92.3589 63.5852 92.4802 62.9223 93.734 62.4326C94.9884 61.943 97.3751 61.6269 98.6943 61.0378C100.013 60.4485 100.265 59.5873 99.7531 58.2235C99.2414 56.8603 97.9676 54.9952 96.3492 52.4239C94.7308 49.8527 92.7682 46.5759 91.6387 44.6835C90.5096 42.7908 90.2141 42.2822 90.2104 41.2992C90.2067 40.3159 90.4948 38.8582 89.8427 36.6209C89.1913 34.3836 87.6001 31.3665 85.978 29.1802C84.3565 26.994 82.7046 25.6381 82.0525 24.2139C81.4014 22.7903 81.7493 21.2985 81.9865 19.6922C82.2231 18.0859 82.3486 16.3645 82.3125 15.1651C82.2764 13.9657 82.0797 13.2877 81.4295 12.4739C80.7799 11.6601 79.6769 10.7111 78.0839 10.3401C76.4905 9.96912 74.4064 10.1762 72.2053 11.2514C70.0037 12.3265 67.6849 14.2703 65.6979 16.0898C63.7107 17.9093 62.0556 19.6039 60.4224 20.7978C58.7896 21.9918 57.1786 22.685 56.1651 22.5869C55.1515 22.4888 54.7342 21.6001 54.791 20.4214C54.848 19.2427 55.3782 17.7734 55.9707 16.1324C56.5626 14.4914 57.2165 12.6774 57.5203 11.5779C57.8245 10.4784 57.7791 10.0922 57.6345 10.0148C57.4892 9.93745 57.2452 10.1695 56.434 10.5636C55.6231 10.9584 54.2457 11.5157 53.1282 12.0591C52.0104 12.6024 51.1517 13.1318 50.5163 13.6563C49.881 14.1807 49.468 14.7003 48.9452 15.3972C48.4227 16.094 47.7894 16.9675 47.4563 17.1564C47.1229 17.3446 47.0887 16.8476 46.9129 15.569C46.7361 14.2904 46.4181 12.2296 46.2192 11.1886C46.0199 10.147 45.941 10.1245 45.2189 10.7312L45.2177 10.7281Z" fill="#1F5B35"/>
<path fill-rule="evenodd" clip-rule="evenodd" d="M92.2246 69.5099C91.3828 70.3278 89.8214 71.6266 88.9467 72.3835C88.0727 73.1404 87.8853 73.3553 87.6186 75.3787C87.3519 77.4022 87.0063 81.2341 86.6275 83.5587C86.2483 85.8837 85.837 86.7017 85.425 87.5196C84.5832 86.6875 83.7413 85.8561 83.141 85.0473C82.5404 84.2388 82.18 83.454 82.18 83.6754C82.18 83.8974 82.5404 85.1265 82.8998 86.3556C82.8998 86.3556 82.8998 86.3556 82.1613 85.7249C81.4227 85.0943 79.9449 83.832 78.8023 82.1288C77.6591 80.4259 76.8505 78.2809 76.3921 77.0963C75.9337 75.9118 75.8262 75.6873 75.3982 75.6434C74.9706 75.5989 74.2222 75.7343 73.734 75.7862C73.2449 75.8375 73.016 75.8049 72.4461 75.4147C71.8752 75.0241 70.964 74.2771 70.4214 73.7486C69.8789 73.2205 69.7059 72.9122 69.4862 73.2862C69.2665 73.6602 68.9999 74.7161 68.9578 75.6978C68.9157 76.6791 69.0982 77.5858 69.2807 78.4922C68.7289 78.1839 68.1771 77.8753 67.5574 77.011C66.9381 76.1467 66.2508 74.726 65.7709 73.1302C65.2919 71.5345 65.021 69.7629 64.8004 68.8307C64.5807 67.8988 64.4123 67.8048 64.2016 68.3984C63.9911 68.9919 63.7392 70.2723 63.5797 71.3844C63.4203 72.4965 63.3552 73.4407 63.2897 74.3842C62.8596 73.0876 62.4298 71.7906 62.2332 70.3886C62.0368 68.987 62.074 67.4797 61.7474 65.759C61.4202 64.038 60.7293 62.1024 59.9719 60.5976C59.2143 59.0927 58.3909 58.0184 57.9046 56.7758C57.4179 55.5335 57.2686 54.1217 57.5083 52.7949C57.7482 51.4676 58.3774 50.2243 58.7418 49.5894C59.1071 48.9538 59.2069 48.9258 59.3225 49.5565C59.4383 50.1872 59.5689 51.4768 59.6905 52.393C59.8119 53.3086 59.9243 53.8508 60.6586 54.5939C61.3929 55.3369 62.749 56.2805 63.0903 55.944C63.4313 55.6071 62.7582 53.9905 62.2534 52.8738C61.7486 51.7568 61.4116 51.1399 61.3093 50.7052C61.2061 50.2707 61.3373 50.0183 61.8236 49.0978C62.3103 48.1772 63.1518 46.5883 65.5878 44.2707C68.0238 41.9528 72.0547 38.9057 74.9392 36.9854C77.8244 35.0646 79.5643 34.2702 80.7001 33.7891C81.8359 33.3076 82.368 33.1394 82.074 33.4943C81.7791 33.8496 80.658 34.7283 81.3591 34.8963C82.0611 35.0646 84.5856 34.5223 84.5715 34.8871C84.5577 35.2519 82.0043 36.5224 80.6018 37.3594C79.199 38.1958 78.9464 38.5977 77.272 40.9439C75.5985 43.29 72.5026 47.5794 71.081 49.6686C69.6595 51.7574 69.9123 51.645 70.983 51.0426C72.0534 50.4399 73.9426 49.3462 74.9386 48.6639C75.935 47.9814 76.0373 47.7105 76.9353 46.0519C77.833 44.3929 79.5256 41.3464 80.5028 39.7995C81.4801 38.2523 81.7419 38.2063 82.5226 38.1451C83.3032 38.084 84.6034 38.0097 85.5245 38.2244C86.4456 38.439 86.9882 38.9441 87.535 39.3273C88.0819 39.7105 88.6337 39.9721 89.1062 40.0421C89.5784 40.1124 89.971 39.9911 90.2657 39.2993C90.5606 38.6076 90.7566 37.3459 90.8267 36.5421C90.8967 35.7379 90.8408 35.3922 90.2377 33.9994C89.6346 32.607 88.4847 30.1675 87.8579 28.8968C87.2309 27.6256 87.1286 27.5231 86.9086 27.42C86.6889 27.3175 86.3528 27.2144 85.9082 26.5605C85.464 25.9059 84.9122 24.7006 84.3927 23.8826C83.8735 23.0645 83.3868 22.6351 83.0409 22.4295C82.6946 22.2239 82.4897 22.2429 82.4243 22.0513C82.3591 21.8598 82.4341 21.4578 82.6722 20.0981C82.9109 18.7384 83.3131 16.4203 83.3776 15.0747C83.443 13.729 83.1714 13.3551 82.4206 12.3388C81.67 11.3225 80.4405 9.66332 79.7277 8.80138C79.0146 7.93944 78.8183 7.87358 76.9012 8.13528C74.9838 8.39694 71.3462 8.98561 69.2653 9.52303C67.1845 10.0605 66.6609 10.5466 64.828 12.6585C62.9951 14.7709 59.8527 18.509 58.2677 20.3525C56.6824 22.1959 56.6545 22.1447 56.5116 21.9977C56.3688 21.8506 56.1119 21.6072 55.9881 21.4487C55.864 21.2894 55.8738 21.215 56.2053 20.4671C56.5374 19.7193 57.1915 18.2992 57.554 16.3386C57.9166 14.3781 57.9869 11.8783 58.057 9.37786C55.5832 10.2471 53.11 11.1164 51.3425 12.2101C49.5747 13.3038 48.5132 14.6215 47.452 15.9391C47.6434 14.9624 47.8352 13.9858 47.6527 12.7384C47.4702 11.4909 46.9141 9.97199 46.3574 8.45307C44.2298 10.0464 42.1019 11.6404 40.6902 13.6308C39.2785 15.6213 38.5814 18.0094 37.8849 20.397C37.3144 19.3691 36.7442 18.3406 36.0379 17.8972C35.3318 17.4531 34.49 17.5934 32.101 18.6682C29.7114 19.7431 25.7746 21.7524 23.6096 22.8694C21.4446 23.9863 21.0522 24.2101 20.7525 24.5566C20.4534 24.9025 20.2477 25.3697 19.3962 27.3279C18.5454 29.286 17.0488 32.735 15.5478 36.006C14.0469 39.2766 12.5411 42.3707 11.7507 44.076C10.9603 45.7817 10.8858 46.0995 11.1099 48.2212C11.3345 50.3428 11.8581 54.2681 12.1664 56.3616C12.4746 58.4553 12.5686 58.7169 13.6062 60.9227C14.6445 63.1285 16.627 67.2783 17.8148 69.5025C19.0025 71.7264 19.395 72.0261 19.9004 72.1664C20.4052 72.3067 21.0223 72.2877 22.3504 71.8204C23.6786 71.3531 25.7172 70.4368 27.0076 69.9136C28.2978 69.3901 28.8404 69.2596 28.4852 69.8574C28.1301 70.4559 26.8769 71.7826 25.2588 73.7176C23.6408 75.6526 21.6583 78.1943 20.6017 79.7646C19.5452 81.3348 19.4139 81.9332 19.2833 82.933C19.1521 83.9327 19.0215 85.335 19.0215 86.2227C19.0215 87.1109 19.1521 87.4843 21.3592 89.9797C23.5663 92.4753 27.8492 97.0918 30.4865 100.765C33.1241 104.438 34.1164 107.167 34.7708 108.747C35.4259 110.326 35.7426 110.757 36.0692 111.009C36.3958 111.262 36.7325 111.336 36.9571 111.205C37.1817 111.074 37.2935 110.738 36.8637 109.187C36.4336 107.636 35.4612 104.869 35.0778 103.149C34.6953 101.429 34.9014 100.757 35.3411 100.738C35.7804 100.719 36.4529 101.354 37.2662 101.644C38.0791 101.934 39.033 101.878 41.0343 101.663C43.0359 101.448 46.0846 101.074 49.8066 101.476C53.5287 101.878 57.924 103.055 62.282 104.813C66.64 106.569 70.9603 108.906 73.8688 110.925C76.7771 112.943 78.2739 114.645 79.5428 116.14C79.7925 116.434 80.0334 116.721 80.2672 117C81.3232 116.628 82.365 116.228 83.393 115.801C83.2722 115.195 83.1684 114.598 83.094 114.014C82.8974 112.481 82.8974 111.042 83.1029 109.831C83.3088 108.621 83.7208 107.639 84.1933 106.99C84.6655 106.34 85.1985 106.022 86.0913 105.864C86.9845 105.705 88.2373 105.705 89.0908 105.639C89.9434 105.574 90.3956 105.443 91.125 104.915C91.8547 104.387 92.8611 103.462 93.9957 102.345C95.1303 101.228 96.3927 99.9197 97.2533 98.8499C98.1132 97.7799 98.5716 96.9478 99.1606 95.6302C99.7495 94.3127 100.47 92.5088 100.788 91.1302C101.106 89.7515 101.022 88.7982 100.826 87.9246C100.629 87.0511 100.321 86.2561 100.012 85.6347C99.7038 85.0129 99.395 84.5646 98.151 83.4992C96.907 82.4334 94.7282 80.7508 93.5874 79.8444C92.4467 78.938 92.3435 78.8069 92.2922 78.2554C92.2409 77.704 92.2409 76.7322 92.2731 76.1666C92.3063 75.6013 92.3714 75.4426 93.0449 74.8773C93.718 74.3118 94.9992 73.34 95.0882 72.7787C95.1773 72.2183 94.0738 72.0688 93.522 71.9328C92.9702 71.7974 92.9702 71.6758 93.5269 71.2508C94.0836 70.8256 95.1964 70.0966 95.734 69.6385C96.2717 69.1804 96.2345 68.9937 95.715 68.2697C95.1964 67.5457 94.1954 66.2834 93.7045 65.3586C93.2138 64.4332 93.2323 63.8446 93.4476 63.4896C93.663 63.1347 94.0744 63.0131 95.1402 62.924C96.2066 62.835 97.927 62.7791 98.9372 62.6155C99.9474 62.4521 100.247 62.1813 100.485 61.8116C100.724 61.4425 100.901 60.9746 100.812 60.3298C100.724 59.685 100.368 58.8628 99.9004 57.9422C99.4328 57.0217 98.853 56.0029 97.6419 53.8954C96.4311 51.7878 94.589 48.5915 93.2237 46.451C91.8584 44.3103 90.9701 43.2264 90.544 42.9277C90.1185 42.6286 90.156 43.1141 90.6986 44.2219C91.2411 45.3297 92.2885 47.0584 93.7755 49.6333C95.2621 52.2081 97.1885 55.6283 98.0957 57.5818C99.0027 59.5349 98.8902 60.0206 98.3756 60.4787C97.8619 60.9368 96.9451 61.3667 95.8646 61.5261C94.785 61.6851 93.541 61.573 92.8679 61.5261C92.1945 61.4791 92.0912 61.4978 91.8857 62.2805C91.6798 63.0631 91.3711 64.6103 90.6138 65.7363C89.8561 66.8622 88.6499 67.5681 87.4441 68.274C88.033 67.4327 88.6226 66.5914 88.9729 66.0498C89.3234 65.5075 89.4355 65.2646 89.4312 64.3113C89.4266 63.3579 89.305 61.6943 89.2116 60.7459C89.1182 59.7974 89.0524 59.5637 89.3302 58.9742C89.6079 58.3856 90.2285 57.4414 90.5385 56.862C90.8488 56.2823 90.8488 56.0677 90.5056 55.5064C90.1624 54.9458 89.4764 54.0394 89.0586 53.5714C88.6404 53.1044 88.4908 53.0762 87.8687 53.4409C87.2468 53.8051 86.1525 54.5629 85.4981 54.9832C84.8437 55.4039 84.6283 55.4877 83.3751 55.044C82.1222 54.6 79.8309 53.6282 78.5264 53.133C77.2223 52.6377 76.9043 52.6187 75.8188 52.6656C74.7343 52.7126 72.8823 52.825 72.6857 52.9834C72.4894 53.1422 73.9487 53.3476 75.9915 54.1567C78.0352 54.9648 80.6629 56.3763 82.0562 57.1614C83.4498 57.9465 83.6083 58.1056 84.1792 59.7222C84.7497 61.3394 85.7313 64.4138 86.0542 66.7179C86.3771 69.0217 86.04 70.5547 86.0121 71.3067C85.9841 72.0596 86.2646 72.0316 86.6244 71.6107C86.9845 71.1903 87.4238 70.3767 87.6767 69.9142C87.9292 69.4518 87.9946 69.3395 88.6257 69.0637C89.2567 68.788 90.4537 68.3489 91.3284 68.1481C92.2024 67.9476 92.7548 67.9848 92.9696 68.1715C93.1847 68.3587 93.063 68.6947 92.2215 69.5129L92.2246 69.5099ZM56.2376 54.5475C56.2376 56.1829 56.4622 57.9404 56.4806 59.0427C56.4993 60.1456 56.3119 60.5945 56.036 60.7812C55.7601 60.9685 55.3958 60.8935 54.7641 60.0664C54.133 59.2392 53.2353 57.6597 52.6411 55.6968C52.0473 53.7345 51.7576 51.3883 51.3643 49.4352C50.972 47.4818 50.4758 45.9208 49.9348 45.0724C49.394 44.2231 48.8075 44.0865 47.8689 44.3128C46.9307 44.5385 45.6397 45.128 44.522 46.3663C43.4046 47.6046 42.4602 49.4923 42.0629 51.4927C41.6657 53.4928 41.815 55.6047 42.7972 57.8667C43.7794 60.1284 45.5933 62.5399 47.4075 64.9512C45.9675 62.0447 44.5269 59.1379 43.9893 56.5909C43.4516 54.0443 43.816 51.8575 44.228 50.4838C44.6394 49.1101 45.0977 48.5494 45.5792 48.2878C46.0609 48.0259 46.5657 48.063 46.9961 49.5961C47.4262 51.1292 47.7814 54.1573 48.0714 56.4331C48.3614 58.7089 48.586 60.2322 48.8662 61.0686C49.147 61.905 49.4831 62.0542 49.8432 62.0404C50.2036 62.0262 50.5867 61.8488 51.0079 61.9559C51.4285 62.0634 51.8869 62.4564 52.2378 63.1853C52.5883 63.9143 52.8316 64.9797 52.9905 66.7695C53.149 68.5592 53.2243 71.074 53.6123 73.1345C54.0006 75.1951 54.702 76.8031 55.4031 78.4105C55.5856 78.0083 55.7681 77.6063 55.9386 77.4568C56.1095 77.3076 56.268 77.4105 56.6167 78.4127C56.9651 79.4152 57.5027 81.317 57.9962 82.7165C58.4893 84.1163 58.9384 85.0132 59.387 85.9104C59.4481 85.401 59.5086 84.8916 59.6232 84.658C59.7381 84.4243 59.9065 84.4664 60.3179 85.3936C60.7293 86.3215 61.3843 88.1343 62.4663 89.8283C63.5487 91.5226 65.0594 93.0974 66.2446 94.1368C67.4299 95.1764 68.2905 95.6815 69.1507 96.186C69.0103 95.5314 68.8699 94.8774 68.8174 94.3772C68.7648 93.877 68.7996 93.5313 68.8911 93.3799C68.9827 93.2285 69.1317 93.2718 69.5596 93.8702C69.9873 94.4693 70.6942 95.6235 71.7099 96.6935C72.725 97.7633 74.0483 98.7498 75.3715 99.7354C75.264 99.3335 75.1568 98.9316 75.103 98.5509C75.0492 98.1701 75.0492 97.8103 75.0796 97.619C75.1104 97.4274 75.1706 97.404 75.629 97.8572C76.0873 98.3104 76.9433 99.2408 77.7519 99.993C78.5605 100.746 79.3231 101.32 80.0853 101.895C79.9406 101.339 79.7953 100.783 79.7815 100.404C79.7673 100.026 79.8847 99.8245 80.1342 99.8601C80.3846 99.8948 80.7677 100.166 81.3526 100.923C81.9373 101.68 82.7223 102.923 82.8716 103.928C83.0212 104.933 82.5349 105.699 82.0301 106.615C81.5253 107.531 81.0015 108.596 80.7628 109.512C80.5244 110.428 80.5714 111.194 80.5244 111.676C80.4773 112.157 80.3376 112.353 79.748 112.106C79.1587 111.858 78.1206 111.166 76.3577 109.886C74.5951 108.606 72.1078 106.737 69.3228 105.129C66.5384 103.521 63.4565 102.176 60.4497 101.016C57.4431 99.8576 54.5122 98.8858 51.3492 98.4508C48.1863 98.0166 44.7914 98.1191 42.7806 98.175C40.7701 98.2312 40.1434 98.2404 39.9474 97.7682C39.7507 97.2963 39.9845 96.3432 41.2005 94.5998C42.4162 92.857 44.6135 90.3239 46.189 88.3754C47.7651 86.4272 48.7184 85.0623 49.1163 83.4362C49.5139 81.8098 49.355 79.9221 48.7704 77.4221C48.1857 74.9225 47.1762 71.8096 45.923 68.9639C44.6698 66.1182 43.1733 63.5384 41.9299 62.0195C40.6859 60.5005 39.6948 60.043 38.83 59.8137C37.9648 59.5849 37.2259 59.5849 36.6929 59.5149C36.1601 59.4446 35.8329 59.3043 35.5663 59.136C35.2996 58.9678 35.0937 58.7712 35.1128 58.6546C35.1315 58.5376 35.3745 58.5004 35.7017 58.4022C36.0289 58.3039 36.4403 58.1455 37.1282 57.0656C37.8155 55.986 38.7787 53.9856 39.4334 52.3082C40.0878 50.6305 40.434 49.2752 40.5461 48.4858C40.6586 47.6964 40.5363 47.472 40.6389 47.2758C40.7415 47.0793 41.0694 46.9116 41.7705 46.2898C42.4719 45.6684 43.5475 44.5934 44.408 43.271C45.2679 41.9485 45.9137 40.3783 46.3715 39.0887C46.8299 37.7991 47.1009 36.7895 47.4238 36.1822C47.7467 35.5746 48.1209 35.3688 49.084 34.7431C50.0472 34.1167 51.5999 33.07 52.6335 31.9345C53.6667 30.7988 54.1807 29.5745 54.5877 29.0469C54.9942 28.5186 55.2941 28.687 56.1076 30.1449C56.9212 31.6029 58.2493 34.351 58.8005 36.8086C59.3523 39.2662 59.1277 41.4348 58.6462 43.5663C58.1645 45.6969 57.4253 47.7904 56.9439 49.5943C56.4622 51.3982 56.2376 52.9122 56.2376 54.5475ZM79.3102 30.7048C79.273 31.0318 78.7596 31.2935 76.7448 32.4154C74.73 33.5364 71.2138 35.5184 68.2352 37.836C65.2563 40.1538 62.8163 42.8079 61.5953 43.7524C60.3753 44.696 60.3753 43.9299 60.5108 42.0327C60.6463 40.1354 60.9173 37.1073 60.52 34.1069C60.1225 31.1069 59.0564 28.1349 58.598 26.1908C58.1396 24.2467 58.2889 23.3311 59.3274 22.6485C60.3655 21.9665 62.2918 21.5176 64.3023 21.9007C66.3128 22.2837 68.4078 23.4989 69.6426 24.2187C70.8774 24.9385 71.2509 25.1623 71.6811 24.0503C72.1115 22.9383 72.5972 20.4897 72.6725 19.0501C72.7475 17.6111 72.4104 17.181 72.5321 17.1158C72.6534 17.0505 73.2335 17.3494 73.6827 17.8075C74.1312 18.2656 74.4492 18.8823 74.7862 19.8638C75.123 20.8453 75.4784 22.191 75.95 21.714C76.4219 21.2376 77.0103 18.9385 76.8047 17.1347C76.5989 15.3309 75.5992 14.0224 75.0059 13.2001C74.4126 12.3778 74.2252 12.0411 74.7251 12.2565C75.225 12.4712 76.4115 13.2379 77.127 13.8468C77.8422 14.4555 78.0865 14.9075 78.3258 15.5383C78.5642 16.169 78.7986 16.9791 79.0324 17.7892C80.0426 16.6582 81.0522 15.5273 80.8374 14.2707C80.6217 13.0135 79.1821 11.6306 79.1222 11.4995C79.0629 11.3683 80.3839 12.4901 81.0448 13.238C81.7053 13.9858 81.7053 14.3592 81.5314 15.8079C81.3566 17.2567 81.0082 19.7797 80.8344 21.2565C80.6598 22.7333 80.6598 23.1633 79.6405 24.1351C78.6211 25.1068 76.5826 26.6209 75.3475 27.7146C74.1134 28.8077 73.6833 29.4812 74.3374 29.724C74.9924 29.9667 76.7313 29.7801 77.8204 29.8832C78.9092 29.9863 79.348 30.3785 79.3102 30.7055V30.7048ZM38.5814 73.3132C39.2217 75.7014 40.0073 78.6733 40.0914 81.0189C40.1756 83.3647 39.5581 85.0838 38.4173 86.8625C37.2763 88.6413 35.612 90.4786 34.9552 92.3507C34.2983 94.223 34.6501 96.1286 35.0016 98.0347C34.6317 97.7872 34.2612 97.5388 33.4298 96.0785C32.5984 94.6182 31.3053 91.9451 31.2306 89.197C31.1557 86.4496 32.2989 83.6272 32.1041 81.4678C31.9087 79.3089 30.3756 77.8133 29.8982 76.4205C29.4217 75.0278 30.0014 73.7382 30.5434 72.5963C31.0859 71.4544 31.5907 70.4608 32.4264 69.4779C33.262 68.4954 34.4286 67.5242 35.1669 66.9086C35.9054 66.2933 36.217 66.0344 36.4434 66.1615C36.6692 66.289 36.8102 66.8026 37.1282 67.9614C37.4462 69.1205 37.9411 70.9244 38.5814 73.3126V73.3132ZM30.0248 66.3194C27.9878 67.6559 25.5592 68.6296 24.2212 69.1347C22.8827 69.6404 22.6349 69.6775 22.2027 68.472C21.77 67.2669 21.1529 64.8176 20.9472 62.2568C20.7415 59.6961 20.9472 57.0229 21.228 55.3784C21.5081 53.7332 21.864 53.1164 22.0648 52.8127C22.2656 52.5091 22.3126 52.518 22.6233 52.8358C22.9339 53.1535 23.5095 53.7796 23.8599 54.3943C24.2102 55.0087 24.3366 55.6121 24.4629 56.2148C24.3646 55.0136 24.2664 53.8125 24.2646 52.2447C24.2621 50.6769 24.3555 48.7422 24.7089 46.7329C25.0617 44.7233 25.6745 42.6391 26.0017 41.5739C26.3288 40.5082 26.3709 40.4618 26.6584 40.8121C26.9459 41.1622 27.4788 41.9101 27.9561 42.7349C28.4327 43.5596 28.8539 44.4611 29.2745 45.3632C29.5734 42.62 29.8733 39.8769 30.3458 37.8418C30.818 35.807 31.4632 34.4796 31.8184 33.7694C32.1738 33.0589 32.239 32.9656 32.5711 33.5269C32.9032 34.0872 33.5014 35.3025 33.8614 36.4192C34.2215 37.5363 34.3429 38.5551 34.4645 39.5738C34.5205 36.3492 34.5767 33.1246 35.0913 30.1577C35.6059 27.19 36.5783 24.4797 37.1018 23.0871C37.6256 21.6945 37.7006 21.62 37.9716 21.933C38.2425 22.2459 38.7101 22.9468 39.0659 23.7038C39.4214 24.4608 39.6647 25.274 39.9077 26.0871C40.3661 23.5733 40.8239 21.0589 41.7597 18.6103C42.6946 16.1617 44.1072 13.7784 44.8596 12.5871C45.6124 11.3951 45.7057 11.3951 45.926 12.2644C46.1457 13.1336 46.492 14.8722 46.5571 16.4515C46.6225 18.0308 46.4075 19.4515 46.1921 20.8722C47.464 18.9189 48.7356 16.9657 49.9793 15.5169C51.2233 14.0682 52.4393 13.1245 53.6363 12.4236C54.8332 11.7227 56.0118 11.2646 57.1897 10.8065C57.1617 11.3951 57.1338 11.9844 56.5909 13.4185C56.0483 14.8533 54.9918 17.1335 53.8418 18.9189C52.6912 20.7038 51.4479 21.994 50.2042 23.2835C51.8783 22.9377 53.5521 22.5918 54.0897 23.0359C54.6274 23.4799 54.0286 24.7134 53.2436 26.153C52.458 27.5926 51.486 29.2372 50.0082 30.7048C48.5304 32.1719 46.5479 33.4621 44.8455 34.5088C43.1435 35.5555 41.7222 36.3591 40.3007 37.1629C41.5729 36.761 42.8442 36.3591 43.8685 36.0741C44.8925 35.7892 45.6683 35.6209 45.9303 35.8638C46.1921 36.1064 45.9402 36.761 45.1306 38.2842C44.322 39.8075 42.9567 42.2003 41.273 44.205C39.5897 46.2094 37.5884 47.8266 35.9331 48.8782C34.2777 49.9293 32.9683 50.4153 32.1456 51.135C31.3228 51.855 30.9861 52.8084 30.6497 53.7612C30.8272 53.5647 31.0048 53.3691 31.8746 52.6816C32.7444 51.9948 34.3063 50.8166 35.7091 50.1018C37.1116 49.387 38.3556 49.1343 38.9823 49.0551C39.6094 48.9759 39.6183 49.0692 39.4592 49.6677C39.2997 50.2658 38.9725 51.3681 38.2201 52.7046C37.4674 54.0412 36.2901 55.6114 34.5315 57.0693C32.7732 58.5271 30.4349 59.8729 28.0964 61.2193C29.6444 60.9012 31.1929 60.5834 32.4393 60.3946C33.6857 60.2055 34.6298 60.1444 35.0652 60.3639C35.4996 60.5834 35.4252 61.0836 34.5659 62.1828C33.7063 63.283 32.0614 64.9822 30.0251 66.3187L30.0248 66.3194ZM34.4621 20.1158C35.416 20.0596 35.7199 20.508 35.7199 21.0222C35.7199 21.5365 35.416 22.116 35.2639 22.6857C35.1122 23.2561 35.1122 23.8167 34.9552 24.0503C34.7988 24.2839 34.4851 24.1906 33.066 24.2656C31.6469 24.3401 29.1218 24.5835 27.1485 25.2044C25.1752 25.8254 23.7537 26.8234 23.0334 27.2071C22.3132 27.5902 22.2943 27.3584 22.6971 26.7374C23.0994 26.1164 23.9221 25.1068 25.2595 24.1351C26.5968 23.1633 28.4487 22.2282 30.1759 21.481C31.9041 20.7331 33.5075 20.1725 34.4615 20.1164L34.4621 20.1158ZM28.1537 37.8918C28.0928 38.7795 28.3826 39.7237 28.4204 40.1581C28.4579 40.5923 28.2428 40.518 27.8126 40.1723C27.3823 39.8262 26.7372 39.2097 26.3819 38.6862C26.0267 38.1627 25.9608 37.7328 25.7789 37.9201C25.5964 38.1068 25.2973 38.9106 24.9182 39.8781C24.5398 40.8456 24.0814 41.9759 23.8007 43.0416C23.5199 44.1074 23.4173 45.1071 23.3704 45.9714C23.3234 46.8358 23.3331 47.5647 22.9248 47.4996C22.5165 47.4342 21.69 46.5742 20.7128 45.3266C19.7356 44.0791 18.6076 42.4432 18.0388 41.1066C17.4699 39.77 17.4607 38.7325 17.6896 37.7699C17.9191 36.8074 18.3861 35.9191 18.7614 35.0176C19.1362 34.1161 19.4182 33.1999 19.8021 32.2373C20.1854 31.2746 20.6701 30.265 22.3437 29.3494C24.0167 28.4338 26.8788 27.6109 29.076 27.0973C31.2733 26.583 32.8073 26.3775 33.5465 26.5501C34.2851 26.7221 34.2289 27.2724 34.0842 27.8842C33.9389 28.4966 33.7051 29.1707 33.5558 29.6245C33.4061 30.0784 33.3401 30.312 32.6998 30.5456C32.0589 30.7793 30.8438 31.0129 30.2079 31.2557C29.5716 31.4985 29.5157 31.7509 29.4174 32.4335C29.3191 33.1157 29.1787 34.2282 28.9028 35.2C28.6269 36.1718 28.2155 37.0039 28.1544 37.8918H28.1537ZM18.4422 46.5094C19.0782 48.3968 19.7515 49.9299 19.7795 51.6214C19.8076 53.3129 19.1905 55.1638 19.0312 57.0137C18.8719 58.8646 19.1716 60.7148 19.3303 61.659C19.489 62.6026 19.5079 62.6406 19.0123 61.939C18.5167 61.2381 17.5065 59.7986 16.9456 57.8452C16.3847 55.8921 16.2724 53.4247 16.4475 51.2188C16.6227 49.013 17.0854 47.0688 17.1604 45.2658C17.2355 43.462 16.9218 41.799 17.0646 42.0888C17.2074 42.3787 17.8056 44.6211 18.4416 46.5082L18.4422 46.5094ZM14.7116 44.3849C14.9607 45.3506 14.9607 47.6491 14.8331 49.7803C14.7055 51.9112 14.451 53.8742 14.451 55.5095C14.451 57.1448 14.7055 58.4535 14.6494 58.6963C14.5932 58.9389 14.2264 58.1166 13.837 56.4159C13.4476 54.7146 13.0362 52.1357 12.9709 49.9455C12.9056 47.7557 13.1857 45.9555 13.5751 44.8716C13.9645 43.7877 14.462 43.4193 14.711 44.3849H14.7116ZM27.1693 78.4074C27.7229 78.8324 28.7642 79.5524 29.3581 80.538C29.952 81.5246 30.0985 82.7767 29.9704 84.1596C29.842 85.5432 29.4398 87.0572 29.4398 88.5894C29.4398 90.1225 29.842 91.6736 30.2444 93.2248C29.7206 92.627 29.1971 92.0286 28.5098 90.9582C27.8224 89.8876 26.9716 88.3456 26.4759 86.8076C25.9803 85.2705 25.8399 83.7381 25.9009 82.224C25.962 80.71 26.2238 79.215 26.3874 78.5324C26.551 77.8505 26.6163 77.9809 27.1699 78.4062L27.1693 78.4074ZM24.4977 80.0335C24.4928 80.1972 24.4647 80.4588 24.4605 81.4469C24.4556 82.4353 24.4745 84.1504 24.3085 85.1858C24.1425 86.2208 23.7915 86.5758 23.3941 86.7228C22.9968 86.8699 22.5525 86.8094 22.2161 86.5899C21.8792 86.3704 21.6503 85.9921 21.6479 85.2631C21.6455 84.5342 21.8701 83.4543 22.3773 82.4755C22.8845 81.4963 23.6749 80.6179 24.0796 80.211C24.4843 79.8048 24.5026 79.8702 24.4983 80.0335H24.4977Z" fill="#B9F6D5"/>
<path fill-rule="evenodd" clip-rule="evenodd" d="M79.0012 47.6553C80.3726 47.4447 81.7442 47.235 82.5947 47.1348C83.4451 47.0343 83.7738 47.0436 83.9159 47.2035C84.0574 47.3631 84.012 47.6736 83.8426 48.1851C83.6737 48.6966 83.3805 49.4088 83.1384 49.7283C82.896 50.0475 82.7037 49.9749 82.1095 49.6095C81.515 49.2441 80.5183 48.5868 79.9328 48.2124C79.3479 47.8383 79.1742 47.7471 79 47.6559L79.0012 47.6553Z" fill="#B9F6D5"/>
<path fill-rule="evenodd" clip-rule="evenodd" d="M77 48C78.0291 46.746 79.0588 45.4919 79.8619 44.4241C80.6651 43.3562 81.2429 42.4749 81.8127 41.8952C82.3821 41.3158 82.9426 41.0384 83.3244 41.0036C83.7059 40.9692 83.9088 41.1771 84.191 41.6923C84.4735 42.2071 84.8356 43.0298 84.9573 43.5297C85.0794 44.0297 84.9609 44.2078 84.3191 44.614C83.6769 45.0205 82.5111 45.6542 81.2037 46.2566C79.8966 46.8589 78.4483 47.4293 77 48Z" fill="#B9F6D5"/>
<path fill-rule="evenodd" clip-rule="evenodd" d="M26.0918 40.9451C25.7676 42.017 25.1603 44.1127 24.8107 46.1336C24.4604 48.1549 24.3679 50.1008 24.3703 51.6777C24.3727 53.2545 24.4695 54.4626 24.5669 55.6707C24.4417 55.0645 24.3165 54.4583 23.9693 53.8397C23.6214 53.2221 23.0516 52.5918 22.7437 52.2721C22.4352 51.9525 22.3893 51.9432 22.1903 52.249C21.9912 52.5544 21.6386 53.1748 21.3609 54.8295C21.0827 56.4842 20.8788 59.1722 21.0827 61.7478C21.2865 64.3234 21.8981 66.7859 22.3269 67.999C22.7558 69.2121 23.0014 69.1741 24.3273 68.6654C25.6539 68.1574 28.0602 67.1782 30.0788 65.8338C32.0972 64.4895 33.727 62.7802 34.5787 61.674C35.4303 60.5678 35.5046 60.0647 35.0734 59.8445C34.6426 59.6237 33.7063 59.6848 32.4711 59.8751C31.2358 60.0653 29.7019 60.3849 28.1673 60.7046C30.4847 59.3513 32.8027 57.9971 34.5449 56.5308C36.2868 55.0645 37.4544 53.4852 38.2001 52.1409C38.9461 50.7966 39.2703 49.6873 39.4281 49.086C39.5861 48.4841 39.5763 48.3902 38.9558 48.4702C38.3344 48.5499 37.1022 48.8037 35.7116 49.523C34.3217 50.2419 32.7737 51.4263 31.9118 52.1177C31.0495 52.8086 30.8735 53.0059 30.6975 53.2036C31.0309 52.2447 31.3649 51.2858 32.1803 50.5622C32.9957 49.8383 34.2931 49.35 35.9336 48.2923C37.5741 47.2343 39.5575 45.6086 41.226 43.5917C42.8942 41.5757 44.2473 39.1687 45.049 37.637C45.8504 36.1049 46.1007 35.4465 45.8412 35.2022C45.5818 34.9582 44.8124 35.1268 43.7979 35.4141C42.7828 35.7006 41.5229 36.1049 40.2623 36.5091C41.6711 35.7006 43.08 34.8925 44.7664 33.8397C46.4536 32.7869 48.418 31.4898 49.8826 30.0136C51.3471 28.5381 52.3108 26.8833 53.0893 25.4354C53.8679 23.9874 54.4607 22.7469 53.9275 22.3002C53.3947 21.8536 51.7359 22.2015 50.0768 22.5493C51.3096 21.2523 52.5419 19.9547 53.6821 18.1594C54.8224 16.3642 55.8695 14.0702 56.4066 12.6272C56.9443 11.1841 56.972 10.592 57 10C55.8323 10.4608 54.6644 10.9209 53.4781 11.6265C52.2919 12.3314 51.0871 13.2812 49.8542 14.7377C48.6214 16.1949 47.3615 18.1594 46.1007 20.124C46.3144 18.6951 46.5272 17.2661 46.4624 15.6777C46.3978 14.0892 46.0547 12.3406 45.837 11.4664C45.6193 10.592 45.5267 10.592 44.7801 11.7909C44.0345 12.9891 42.6348 15.3863 41.708 17.849C40.7812 20.3117 40.3269 22.8407 39.8726 25.3692C39.6321 24.5513 39.3906 23.7334 39.0386 22.972C38.6864 22.2107 38.2233 21.5057 37.9541 21.1909C37.6855 20.8762 37.6109 20.9511 37.0921 22.3518C36.573 23.7525 35.6087 26.4784 35.0993 29.4633C34.5896 32.4481 34.5339 35.6908 34.4782 38.9337C34.3579 37.9094 34.2374 36.8847 33.8805 35.7612C33.5237 34.638 32.9302 33.4157 32.6017 32.8517C32.2729 32.2881 32.208 32.382 31.856 33.096C31.5038 33.8103 30.8647 35.1454 30.3964 37.192C29.9281 39.2388 29.6318 41.9979 29.3347 44.7569C28.9178 43.8502 28.5007 42.9429 28.0281 42.1134C27.5557 41.2839 27.027 40.5316 26.7421 40.1792C26.4572 39.8265 26.4155 39.8738 26.0912 40.9457L26.0918 40.9451Z" fill="#328849"/>
</svg>
