<svg width="120" height="120" viewBox="0 0 120 120" fill="none" xmlns="http://www.w3.org/2000/svg">
<path fill-rule="evenodd" clip-rule="evenodd" d="M60 120C27 120 0 93.0006 0 59.7012C0.3 26.7019 27 -0.297518 60.3 0.00247602C93.3 0.30247 120 27.0019 120 60.6012C119.7 93.3006 93 120 60 120Z" fill="black"/>
<path fill-rule="evenodd" clip-rule="evenodd" d="M36.2102 31.2846C36.0287 31.3128 35.8253 31.4385 35.7581 31.5636C35.6255 31.8114 35.5736 100.007 35.7059 100.351C35.8472 100.72 36.2489 100.74 43.9649 100.774C50.849 100.805 51.7826 100.787 52.0349 100.622L52.3202 100.435V88.4319V76.4292L52.5977 76.1517L52.8752 75.8742L59.3477 75.8091C66.0668 75.7416 68.5109 75.5769 70.6202 75.0492C71.0162 74.9502 71.7659 74.7906 72.2861 74.6946C72.8066 74.5983 73.4069 74.4117 73.6205 74.28C73.8338 74.148 74.0972 74.04 74.2055 74.04C74.6564 74.04 78.6032 72.1749 79.3004 71.6325C79.4762 71.4957 80.0195 71.0916 80.5073 70.7349C82.2647 69.4494 85.8002 65.5161 85.8002 64.8462C85.8002 64.8081 85.901 64.6338 86.0246 64.4586C86.1479 64.2834 86.2874 64.005 86.3345 63.84C86.3816 63.675 86.5448 63.27 86.6975 62.94C87.4394 61.3356 87.6002 60.9342 87.6008 60.6873C87.6011 60.5403 87.7346 60.042 87.8975 59.58C88.8413 56.9055 88.7645 50.4681 87.7454 46.8C87.2402 44.9826 86.0207 42.1614 85.4087 41.3946C85.2611 41.2098 84.8432 40.6407 84.4802 40.1301C84.1172 39.6195 83.4962 38.8527 83.1002 38.4264C81.0116 36.1776 77.2685 33.8397 74.5046 33.0582C74.1989 32.9718 73.7768 32.8119 73.5662 32.703C73.3559 32.5944 72.7688 32.4267 72.2618 32.3307C71.7551 32.2344 71.0963 32.0757 70.7981 31.9776C70.4999 31.8795 69.6629 31.7427 68.9381 31.6737C68.2133 31.6044 67.1342 31.4874 66.5402 31.4136C65.4971 31.2837 36.9944 31.1625 36.2102 31.2846ZM65.3189 45.0657C70.5695 46.2627 73.1801 52.2144 70.8458 57.6666C69.1247 61.686 66.8765 62.52 57.7625 62.52H52.8176L52.5665 62.2008C52.2458 61.7928 52.2251 45.3438 52.5449 44.9583C52.8611 44.5776 63.5723 44.6676 65.3189 45.0657Z" fill="#F8F8F8"/>
<path fill-rule="evenodd" clip-rule="evenodd" d="M36.4101 13.677C36.2727 13.7322 36.0162 13.9485 35.8401 14.1579L35.52 14.5383V19.0215C35.52 23.9073 35.5362 24.0387 36.1755 24.3057C36.7548 24.5478 87.1665 24.5529 87.84 24.3108C88.5531 24.0546 88.5564 24.0315 88.5582 19.044C88.5603 14.0559 88.5453 13.9437 87.8457 13.7001C87.4038 13.5459 36.7926 13.5231 36.4101 13.677Z" fill="#DE0B14"/>
</svg>
