<svg width="120" height="120" viewBox="0 0 120 120" fill="none" xmlns="http://www.w3.org/2000/svg">
<path fill-rule="evenodd" clip-rule="evenodd" d="M60 0C93.132 0 120 26.868 120 60C120 93.132 93.132 120 60 120C26.868 120 0 93.132 0 60C0 26.868 26.868 0 60 0Z" fill="#383B4A"/>
<path fill-rule="evenodd" clip-rule="evenodd" d="M93.6363 63.6601L91.1883 66.1081C63.3723 38.4121 32.5203 53.8081 25.1523 58.1401C25.4132 57.3248 25.8658 56.5841 26.4723 55.9801L56.2083 26.2441C57.2261 25.2243 58.6076 24.6512 60.0483 24.6512C61.4891 24.6512 62.8706 25.2243 63.8883 26.2441L93.6243 55.9801C94.6483 56.9948 95.2254 58.376 95.2277 59.8176C95.2299 61.2592 94.6572 62.6421 93.6363 63.6601Z" fill="white"/>
<path fill-rule="evenodd" clip-rule="evenodd" d="M70.6321 86.664L63.9001 93.396C62.8824 94.4157 61.5008 94.9888 60.0601 94.9888C58.6194 94.9888 57.2378 94.4157 56.2201 93.396L49.7881 86.964C60.1321 79.644 68.9761 85.428 70.6321 86.664Z" fill="white"/>
<path fill-rule="evenodd" clip-rule="evenodd" d="M89.6763 67.62L81.9963 75.3C59.1723 54.132 36.2763 67.764 32.8443 70.02L31.1523 68.328C31.1751 68.3158 31.1954 68.2995 31.2123 68.28C61.1163 44.304 87.1443 65.448 89.6763 67.62Z" fill="white"/>
<path fill-rule="evenodd" clip-rule="evenodd" d="M42.8519 80.04L41.0039 78.192C58.7519 62.016 78.2519 75.78 80.1359 77.172L72.2879 85.02C58.2359 71.496 45.2039 78.564 42.8519 80.04Z" fill="white"/>
</svg>
