<svg width="120" height="120" viewBox="0 0 120 120" fill="none" xmlns="http://www.w3.org/2000/svg">
<path d="M118.191 74.5143C110.178 106.657 77.6222 126.219 45.4752 118.204C13.3417 110.19 -6.22004 77.6324 1.79691 45.4918C9.80683 13.3451 42.3626 -6.21803 74.4997 1.79541C106.644 9.80884 126.205 42.3702 118.191 74.5149L118.191 74.5143H118.191Z" fill="#2C7DF7"/>
<path d="M68.95 99.9999C63.2413 99.9999 59.0746 98.6249 56.4498 95.8748C54.0183 93.547 52.6072 90.3512 52.5251 86.986C52.4956 85.9636 52.7325 84.9512 53.2126 84.0481C53.6605 83.2678 54.3074 82.6204 55.0873 82.1719C56.9252 81.2553 59.087 81.2553 60.9249 82.1719C61.7034 82.6186 62.3473 83.2667 62.789 84.0481C63.283 84.9468 63.5288 85.9608 63.5011 86.986C63.5521 88.2103 63.201 89.4176 62.5013 90.4235C61.918 91.2446 61.0844 91.8546 60.1254 92.1621C61.0633 93.3562 62.3903 94.1834 63.8753 94.4998C65.5368 94.9824 67.2575 95.2305 68.9876 95.2371C71.2782 95.257 73.5217 94.5862 75.4253 93.3121C77.4001 91.917 78.8728 89.9227 79.6252 87.6248C80.5789 84.8899 81.0443 82.0086 81.0002 79.1125C81.0771 76.0932 80.5677 73.0877 79.5001 70.2623C78.6972 68.0026 77.173 66.0699 75.1627 64.7623C73.2941 63.5798 71.125 62.9594 68.9138 62.975C66.987 63.1382 65.1291 63.7689 63.5011 64.8125L59.4876 66.8248V64.8125L77.525 40.6152H52.5251V65.725C52.4545 67.537 52.9338 69.328 53.9002 70.8625C54.8511 72.2225 56.4443 72.9858 58.1 72.8748C59.6042 72.8443 61.0588 72.3317 62.2497 71.4124C63.5996 70.4231 64.7743 69.2146 65.7249 67.8372C65.8104 67.5957 65.9682 67.3864 66.1768 67.2376C66.3443 67.0928 66.5581 67.013 66.7795 67.0126C67.2138 67.0523 67.6248 67.227 67.9546 67.5123C68.3724 67.9792 68.5998 68.5858 68.5919 69.2122C68.5436 69.6333 68.4685 70.0508 68.3669 70.4622C67.4788 72.6118 65.9902 74.4599 64.0792 75.7855C62.3043 76.9865 60.2079 77.6233 58.0649 77.6125C52.6522 77.6125 48.9025 76.5458 46.8157 74.4125C44.6489 72.0306 43.5316 68.877 43.7156 65.6622V40.6152H31V35.9498H43.7749V25.3122L40.8501 22.3854V20H49.3372L52.5251 21.6502V35.9498L85.5496 35.8493L88.8375 39.1493L68.5874 59.4977C69.8108 59.0057 71.0991 58.6941 72.4121 58.5727C75.0108 58.6865 77.5463 59.4103 79.8135 60.6854C82.4389 61.9333 84.6514 63.9078 86.1889 66.3748C87.5664 68.4632 88.5415 70.7907 89.0639 73.2373C89.4934 75.1672 89.7238 77.1361 89.7515 79.113C89.7648 82.8859 88.9094 86.6111 87.2515 90.0002C85.6792 93.2819 83.033 95.9282 79.7512 97.5005C76.3919 99.1558 72.695 100.011 68.95 99.9999Z" fill="white"/>
</svg>
