<svg width="120" height="120" viewBox="0 0 120 120" fill="none" xmlns="http://www.w3.org/2000/svg">
<circle cx="60" cy="60" r="60" fill="#25AAE3"/>
<path fill-rule="evenodd" clip-rule="evenodd" d="M102 60.5C102 83.4193 83.4193 102 60.5 102C37.5807 102 19 83.4193 19 60.5C19 37.5769 37.5807 19 60.5 19C83.4193 19 102 37.5807 102 60.5ZM87.7769 61.8043C87.7895 61.5793 87.79 61.57 87.7871 61.5688C87.787 61.5687 87.7869 61.5687 87.7867 61.5686C87.7834 61.5677 87.7768 61.5658 87.7768 61.3262C87.7768 47.718 77.7225 35.6302 64.6802 33.5967V25.674L56.2293 28.3073V33.6005C43.1945 35.6302 33.2081 46.8805 33.2081 60.4811C33.2081 74.4025 43.6585 85.8716 57.1423 87.5127V95.3147L65.5932 92.6814V87.226C75.0799 85.3918 82.8884 78.6755 86.1206 69.5696H77.3641C74.0303 75.8057 67.5335 79.6994 60.4623 79.6994C50.3924 79.6921 42.0356 71.9131 41.3081 61.8695L87.7768 61.8054L87.7769 61.8043ZM60.4623 41.2629C52.5642 41.2623 45.4702 46.0949 42.5795 53.445L42.5833 53.4488H78.3337C75.444 46.1024 68.3565 41.2697 60.4623 41.2629Z" fill="white"/>
</svg>
