<svg width="120" height="120" viewBox="0 0 120 120" fill="none" xmlns="http://www.w3.org/2000/svg">
<circle cx="60" cy="60" r="60" fill="#EDF0F4"/>
<path fill-rule="evenodd" clip-rule="evenodd" d="M42.4975 30L25 60.3091L42.4975 90.6182H77.4992L78.0779 89.6317L95 60.3223L77.4992 30H42.4975ZM45.8353 34.0151H71.7576L54.7139 39.4048C55.0253 39.9113 55.2478 40.4674 55.3716 41.049L74.9901 34.8635L78.9066 53.8967C79.4799 53.7322 80.0728 53.6459 80.6692 53.6403L77.3808 37.8856L89.8339 59.4344H87.3282C87.3609 59.727 87.3774 60.0212 87.3775 60.3157C87.378 60.6102 87.3616 60.9044 87.3282 61.197H89.8339L76.9763 83.4758L80.5672 66.9911C79.9803 66.9768 79.3978 66.8862 78.8343 66.7215L74.5988 86.123L55.4045 79.7008C55.3018 80.2738 55.1134 80.8281 54.8454 81.345L70.4653 86.5801H45.8353L47.1506 84.3275C46.5984 84.1194 46.0764 83.8385 45.5985 83.4923L44.3061 85.7218L32.0306 64.4623L44.1976 75.2022C44.5328 74.7137 44.9308 74.2715 45.3815 73.8869L30.0641 60.3617L45.9503 46.2644C45.5295 45.8478 45.1756 45.3686 44.9013 44.8438L31.9254 56.3532L44.3061 34.8964L46.1345 38.0829C46.5817 37.6881 47.0876 37.3653 47.634 37.1259L45.8353 34.0151ZM54.2404 45.7909C54.6171 45.3349 54.9149 44.8192 55.1217 44.265L75.559 56.0737C75.1825 56.5268 74.8694 57.029 74.6284 57.5666L54.2404 45.7909ZM48.5449 47.7211V72.4926C48.8141 72.4564 49.0855 72.4389 49.3571 72.44C49.6753 72.4362 49.9932 72.4593 50.3075 72.509V47.8461C50.1662 47.8542 50.0245 47.8542 49.8833 47.8461C49.4326 47.847 48.9835 47.7951 48.5449 47.6915V47.7211ZM54.2207 74.8307L74.635 63.0549V63.0418C74.8761 63.5783 75.1891 64.0795 75.5656 64.5314L55.1019 76.3696C54.8851 75.8162 54.5882 75.2977 54.2207 74.8307Z" fill="black"/>
<path fill-rule="evenodd" clip-rule="evenodd" d="M44.6976 40.113C45.571 38.0149 47.6239 36.651 49.8965 36.659C52.9779 36.6734 55.4723 39.1678 55.4867 42.2493C55.4947 44.5219 54.1308 46.5748 52.0327 47.4482C49.9346 48.3215 47.5169 47.8428 45.9099 46.2358C44.3029 44.6289 43.8242 42.2111 44.6976 40.113ZM53.4513 40.7974C52.856 39.3593 51.4529 38.4216 49.8965 38.4216C48.8753 38.4172 47.8946 38.8207 47.1722 39.5425C46.4499 40.2642 46.0455 41.2445 46.049 42.2657C46.0477 43.8221 46.9843 45.2261 48.4218 45.8226C49.8594 46.4192 51.5148 46.0908 52.6158 44.9907C53.7169 43.8906 54.0466 42.2355 53.4513 40.7974Z" fill="black"/>
<path fill-rule="evenodd" clip-rule="evenodd" d="M43.6623 76.2375C44.6182 73.9351 46.8677 72.436 49.3606 72.44C52.7538 72.4472 55.5027 75.1961 55.5099 78.5893C55.5139 81.0822 54.0147 83.3317 51.7123 84.2875C49.4099 85.2434 46.7583 84.7171 44.9956 82.9543C43.2328 81.1915 42.7065 78.54 43.6623 76.2375ZM49.3655 74.1861C51.147 74.1841 52.7546 75.255 53.439 76.9002C54.1239 78.5468 53.7488 80.444 52.4886 81.706C51.2285 82.968 49.3319 83.346 47.6842 82.6636C46.0365 81.9811 44.9627 80.3727 44.964 78.5893C44.9623 77.4204 45.4261 76.2989 46.2529 75.4727C47.0786 74.6476 48.1984 74.1848 49.3655 74.1861Z" fill="black"/>
<path fill-rule="evenodd" clip-rule="evenodd" d="M74.5444 57.7477C75.5807 55.2536 78.0178 53.6297 80.7187 53.6337H80.7088C84.3926 53.6409 87.377 56.6254 87.3843 60.3091C87.3843 63.01 85.7568 65.4447 83.2611 66.4774C80.7655 67.51 77.8935 66.9371 75.9851 65.0259C74.0767 63.1147 73.508 60.2418 74.5444 57.7477ZM85.6316 60.3091C85.6316 57.5958 83.432 55.3963 80.7187 55.3963C79.4141 55.391 78.1614 55.9069 77.239 56.8294C76.3165 57.7519 75.8006 59.0045 75.8058 60.3091C75.8058 63.0224 78.0054 65.222 80.7187 65.222C83.432 65.222 85.6316 63.0224 85.6316 60.3091Z" fill="black"/>
</svg>
