<svg width="120" height="120" viewBox="0 0 120 120" fill="none" xmlns="http://www.w3.org/2000/svg">
<circle cx="60" cy="60" r="60" fill="#21A5DE"/>
<path d="M81.0875 62.1562C82.3625 63.5212 83.135 65.34 83.135 67.335C83.135 71.5687 79.655 75 75.365 75C71.0788 75 67.6025 71.5687 67.6025 67.335C67.6025 65.34 68.375 63.5212 69.6425 62.1562C68.8086 62.7957 67.6858 62.9117 66.7389 62.456C65.7919 62.0004 65.1819 61.0507 65.1613 60C65.1602 59.387 65.3679 58.7919 65.75 58.3125C64.3662 59.565 62.525 60.33 60.5 60.33C58.475 60.33 56.6338 59.565 55.25 58.3125C55.6321 58.7919 55.8398 59.387 55.8387 60C55.8387 61.5112 54.6012 62.7375 53.0637 62.7375C52.4463 62.7382 51.8461 62.5337 51.3575 62.1562C52.625 63.5212 53.4013 65.34 53.4013 67.335C53.4013 71.5687 49.9212 75 45.635 75C41.345 75 37.865 71.5687 37.865 67.335C37.865 65.34 38.6413 63.5212 39.9088 62.1562C39.0749 62.7957 37.9521 62.9117 37.0051 62.456C36.0582 62.0004 35.4481 61.0507 35.4275 60C35.4265 59.387 35.6341 58.7919 36.0162 58.3125C34.6325 59.565 32.7913 60.33 30.7663 60.33C26.4763 60.33 23 56.8988 23 52.665C23 48.4313 26.4763 45 30.7663 45C35.0562 45 38.5325 48.4313 38.5325 52.665C38.5333 54.5881 37.8027 56.4395 36.4888 57.8438C37.3226 57.202 38.4469 57.0848 39.3953 57.5408C40.3436 57.9967 40.9542 58.948 40.9737 60C40.9748 60.613 40.7671 61.2081 40.385 61.6875C41.765 60.435 43.61 59.67 45.635 59.67C47.66 59.67 49.4975 60.435 50.885 61.6875C50.5015 61.2086 50.2926 60.6135 50.2925 60C49.2524 59.1996 48.9119 57.7819 49.475 56.5964C50.0381 55.4109 51.3522 54.7791 52.6298 55.0797C53.9073 55.3802 54.8019 56.5315 54.7775 57.8438C53.4642 56.4391 52.7337 54.588 52.7337 52.665C52.7337 48.4313 56.21 45 60.5 45C64.79 45 68.2663 48.4313 68.2663 52.665C68.2671 54.5881 67.5364 56.4395 66.2225 57.8438C67.0564 57.202 68.1807 57.0848 69.129 57.5408C70.0773 57.9967 70.6879 58.948 70.7075 60C70.7085 60.613 70.5009 61.2081 70.1188 61.6875C71.4988 60.435 73.3438 59.67 75.3688 59.67C77.3938 59.67 79.2313 60.435 80.6188 61.6875C80.2353 61.2086 80.0263 60.6135 80.0262 60C78.9861 59.1996 78.6456 57.7819 79.2087 56.5964C79.7719 55.4109 81.086 54.7791 82.3635 55.0797C83.6411 55.3802 84.5357 56.5315 84.5112 57.8438C83.198 56.4391 82.4674 54.588 82.4675 52.665C82.4675 48.4313 85.9437 45 90.2337 45C94.5238 45 98 48.4313 98 52.665C98 56.8988 94.5238 60.33 90.2337 60.33C88.2087 60.33 86.3675 59.565 84.9837 58.3125C85.3659 58.7919 85.5735 59.387 85.5725 60C85.5725 61.5112 84.335 62.7375 82.7975 62.7375C82.1801 62.7382 81.5799 62.5337 81.0913 62.1562H81.0875Z" fill="white"/>
</svg>
