<svg width="120" height="120" viewBox="0 0 120 120" fill="none" xmlns="http://www.w3.org/2000/svg">
<circle cx="60" cy="60" r="60" fill="#EDF0F4"/>
<path fill-rule="evenodd" clip-rule="evenodd" d="M20 60C20 82.0576 37.9424 100 60 100C82.0576 100 100 82.0576 100 60C100 37.9424 82.0576 20 60 20C37.9424 20 20 37.9424 20 60ZM26.4768 60C26.4768 41.5072 41.5072 26.4768 60 26.4768C78.4928 26.4768 93.5232 41.5072 93.5232 60C93.5232 78.4928 78.4928 93.5232 60 93.5232C41.5072 93.5232 26.4768 78.4928 26.4768 60Z" fill="#E6201A"/>
<path d="M78.6884 46.592C77.2644 43.2896 74.154 41.216 70.5604 41.216L49.3764 41.0208H49.3124C45.8148 41.0208 42.7364 42.9952 41.3444 46.2016C39.8884 49.472 40.5028 53.1648 42.9636 55.7888L45.8788 58.9312L50.2852 54.1696L47.7252 51.3856C46.7204 50.2848 47.1108 49.152 47.2708 48.7936C47.434 48.4064 48.0164 47.4656 49.3124 47.4656H49.3444L70.5252 47.6608C71.9812 47.6608 72.5988 48.7936 72.7588 49.152C72.954 49.5744 73.2772 50.6752 72.3716 51.6448L61.8788 63.0464C61.2964 63.6608 60.5828 63.76 60.2276 63.76C59.546 63.76 58.8996 63.4688 58.4452 62.9504L56.6628 61.04L52.2564 65.8016L53.6804 67.3248C55.3636 69.1392 57.7604 70.208 60.2244 70.208C62.6532 70.208 65.018 69.1712 66.6372 67.3888L77.13 55.9872C79.498 53.456 80.0804 49.8304 78.6884 46.592Z" fill="#E6201A"/>
<path d="M77.4553 63.6288L74.4761 60.3904L69.3913 65.8976L71.9513 68.6816C72.6329 69.4272 72.4377 70.2368 72.2425 70.656C72.1145 70.9472 71.6281 71.8528 70.4601 71.8528L49.2793 72.048C48.2105 72.048 47.7881 71.3344 47.6601 71.0112C47.4969 70.688 47.2377 69.8144 48.0153 68.9696L58.7033 57.408C59.0905 56.9856 59.5769 56.7616 60.1273 56.7616C60.4185 56.7616 60.9689 56.8256 61.4233 57.312L63.6249 59.7088L68.7097 54.2016L66.9273 52.2592C65.1769 50.3808 62.7161 49.28 60.1593 49.28C57.5353 49.28 55.0425 50.3808 53.2601 52.3232L42.5721 63.8848C39.9801 66.6688 39.3337 70.5568 40.8569 74.0224C42.3481 77.392 45.5865 79.4976 49.2793 79.4976L70.5273 79.3024C74.2841 79.2704 77.5865 77.1008 79.0777 73.6032C80.5977 70.1696 79.9833 66.3488 77.4553 63.6288Z" fill="#E6201A"/>
</svg>
