<svg width="120" height="120" viewBox="0 0 120 120" fill="none" xmlns="http://www.w3.org/2000/svg">
<circle cx="60" cy="60" r="60" fill="#EDF0F4"/>
<path fill-rule="evenodd" clip-rule="evenodd" d="M44.4352 96.8568C49.3672 98.9408 54.6044 100 60.0044 100C65.4056 100 70.64 98.9408 75.5736 96.84C85.1608 92.7755 92.7926 85.1434 96.8568 75.556C98.9408 70.624 100 65.3868 100 59.9868C100.014 43.9071 90.3886 29.3855 75.5736 23.1348C70.64 21.0508 65.388 20 59.9956 20C43.9158 19.9859 29.3939 29.6112 23.1432 44.4264C21.0592 49.36 20 54.5944 20 59.9956C20 65.3968 21.0592 70.6328 23.152 75.5736C27.2163 85.1607 34.8481 92.7925 44.4352 96.8568ZM38.0008 37.992C43.8792 32.1232 51.6944 28.8832 60.0044 28.8832L60.0036 28.884C68.3136 28.884 76.1272 32.1228 82.0072 37.9928C87.876 43.8712 91.116 51.6864 91.116 59.9964C91.116 68.3064 87.8772 76.12 82.0072 82C76.1288 87.8688 68.3136 91.1088 60.0036 91.1088C51.6936 91.1088 43.88 87.87 38 82C32.1308 76.12 28.892 68.3056 28.892 59.9956C28.892 51.6856 32.1208 43.872 38.0008 37.992Z" fill="black"/>
<path d="M57.6 69.9556H74.932V78.6652H64.26C64.4336 81.1572 64.5292 83.4652 64.7028 85.9504H55.7236V78.7504H45.0516C45.0516 75.9024 44.6956 73.0628 45.2252 70.3968C45.4944 68.9728 47.092 67.7312 48.0732 66.4892C51.4512 62.486 54.8288 58.5788 58.2936 54.5756C59.6308 53.0648 60.9592 51.6408 62.4704 49.956H45.8504V41.2484H55.7148V33.9628H64.3372V41.0744H75.0972C75.0972 44.0092 75.4532 46.8488 74.9236 49.5232C74.6544 50.9472 73.0568 52.1888 71.9888 53.4308C68.6108 57.434 65.2332 61.3412 61.7684 65.3444C60.4484 66.9336 59.12 68.3488 57.6004 69.9552" fill="black"/>
</svg>
