<svg width="120" height="120" viewBox="0 0 120 120" fill="none" xmlns="http://www.w3.org/2000/svg">
<circle cx="60" cy="60" r="60" fill="#EDF0F4"/>
<path fill-rule="evenodd" clip-rule="evenodd" d="M60.4031 26.0093C60.3301 26.2843 58.5991 32.3593 56.5541 39.5093L52.8371 52.3453H38.5001C30.6151 52.2553 24.5511 51.9173 25.0261 52.3453C25.5011 52.7733 30.3901 56.7913 35.8901 60.5243C41.3901 64.2563 46.2761 67.6513 46.7481 68.0683C47.2211 68.4853 45.4951 74.5293 42.9131 81.4993C40.3321 88.4693 38.3881 94.3413 38.5951 94.5473C38.8011 94.7533 43.7801 91.0853 49.6581 86.3943L60.3461 77.8663L68.9721 84.6883C81.8741 94.8913 82.3901 95.2573 82.3901 94.1903C82.3901 93.6483 80.3661 87.8723 77.8921 81.3563C75.4181 74.8403 73.3931 69.2333 73.3921 68.8963C73.3911 68.5583 78.3591 64.9963 84.4331 60.9813C90.5071 56.9653 95.6721 52.7333 95.9121 52.3453C96.1521 51.9573 89.9791 52.2793 82.1951 52.3453H68.0421L64.2881 39.0093C62.2231 31.5843 60.4751 25.7343 60.4031 26.0093Z" fill="black"/>
</svg>
