<svg width="120" height="120" viewBox="0 0 120 120" fill="none" xmlns="http://www.w3.org/2000/svg">
<circle cx="60" cy="60" r="60" fill="#E7EFF3"/>
<path d="M87.7875 53.0438L76.6201 58.0229L46.9947 73.1023L76.6201 87.346V63.8022L87.7875 58.7697V93.5521L76.6201 98.5311L33 77.6546V66.5584L63.1945 51.7457L33 37.2353V25.9791L44.3451 21L87.7875 41.9121V53.0438Z" fill="#49C1BF"/>
<path d="M33 25.9791L76.6201 46.8911L87.7875 41.9121L44.3451 21L33 25.9791Z" fill="#077A8F"/>
<path d="M76.6211 46.844L87.7884 41.8649V52.9967L76.6211 57.9758V46.844V46.844Z" fill="#298E97"/>
<path d="M33 25.989V37.2453L63.1945 51.7557L33 66.5684V77.6646L76.6201 98.5411V87.3737L46.9947 73.1123L76.6201 58.0328V46.9011L33 25.989Z" fill="#49C1BF"/>
<path d="M76.6211 98.458L87.7884 93.479V58.6967L76.6211 63.7291V98.458Z" fill="#298E97"/>
</svg>
