<svg width="120" height="120" viewBox="0 0 120 120" fill="none" xmlns="http://www.w3.org/2000/svg">
<circle cx="60" cy="60" r="60" fill="#5A11A8"/>
<path fill-rule="evenodd" clip-rule="evenodd" d="M89.1526 40.6291L76.0469 53.0263C74.2759 49.4843 71.4423 45.9422 67.546 44.1712L74.2759 37.7954C64.3581 31.0655 51.2525 31.7739 42.3973 39.5665L42.0431 39.9207C42.0431 39.9207 41.6888 39.9207 41.6888 40.2749C39.2094 42.4001 35.3131 42.0459 33.1879 39.5665C32.4795 38.5038 31.771 37.087 31.771 36.0244C31.771 34.2534 32.4795 32.4823 33.8963 31.4197C40.9804 25.044 50.1898 21.5019 59.3992 21.5019C70.7338 21.5019 81.3601 26.1066 88.7984 34.9618C89.5068 35.6702 89.861 36.7328 89.861 37.7954C90.2152 39.2123 89.861 39.9207 89.1526 40.6291ZM37.4384 73.9246L44.1683 67.5488C45.9393 71.0909 48.773 74.633 52.6693 76.404L45.9393 82.7798C56.2114 89.1555 69.6712 87.0302 78.1722 78.8835C80.2974 76.404 84.1937 75.6956 87.0274 77.8209C88.4442 78.8835 89.1526 80.6545 89.1526 82.4255C89.1526 84.1966 88.4442 85.9676 87.0274 87.0302C72.1507 102.261 47.3562 102.261 32.4795 87.3844C32.1253 87.0302 31.4168 86.3218 31.0626 85.6134C30.3542 84.905 30 83.8424 30 83.134C30 81.7171 30.7084 80.3003 32.1253 79.2377L37.4384 73.9246ZM72.8591 60.4647C72.8591 53.7348 67.1918 47.7132 60.1076 47.7132C52.6693 47.7132 47.3562 53.7348 47.3562 60.4647C47.3562 67.1946 53.3777 73.2162 60.1076 73.2162C66.8376 73.2162 72.8591 67.1946 72.8591 60.4647Z" fill="white"/>
</svg>
