<svg width="120" height="120" viewBox="0 0 120 120" fill="none" xmlns="http://www.w3.org/2000/svg">
<circle cx="60" cy="60" r="60" fill="url(#paint0_linear)"/>
<path fill-rule="evenodd" clip-rule="evenodd" d="M101.765 59.2089C101.075 59.2089 100.507 59.7769 100.507 60.4665C100.507 61.3996 100.487 62.2718 100.426 63.1035C100.244 64.8479 99.6757 66.3895 98.9049 67.1805C98.2152 67.9513 97.0185 68.0122 96.2477 67.3022C96.2328 67.2873 96.2166 67.2724 96.2002 67.2572C96.1495 67.2104 96.0957 67.1607 96.0651 67.0994C94.8684 65.7607 94.5032 62.7992 94.7669 60.5882C94.8278 59.8986 94.3004 59.2901 93.6108 59.2495C92.9617 59.1887 92.3734 59.6552 92.272 60.3043C92.1503 61.4605 92.1503 62.6166 92.272 63.7525C92.272 63.854 92.2517 63.9554 92.2314 64.0568C91.6838 68.4179 89.8176 69.3306 88.3572 69.3306C87.8907 69.3104 87.4241 69.2292 86.9982 69.0669L87.0793 68.9858C88.4789 67.4037 89.3308 65.3347 89.3308 63.4889C89.3308 62.2921 88.986 61.2576 88.3166 60.5071C87.7893 59.8986 86.8359 59.1887 85.1726 59.1887C83.7933 59.1887 82.5357 59.8986 81.8258 61.0751C80.7101 62.8195 80.6087 65.3955 81.5621 67.5051C81.8258 68.0527 82.1503 68.5801 82.556 69.0264C82.0286 69.2089 81.4809 69.3104 80.913 69.3306C79.1483 69.3306 76.6128 67.1805 75.1523 65.6187C76.7548 64.3408 78.1746 62.8601 79.3511 61.1765C79.7568 60.6085 79.6148 59.8377 79.0469 59.4321C78.4789 59.0264 77.7081 59.1684 77.3024 59.7363C76.126 61.4402 74.6452 62.9209 72.9617 64.1379V60.4665C72.9414 59.7769 72.3531 59.2292 71.6635 59.2698C71.0144 59.2901 70.487 59.8175 70.4667 60.4665L70.4465 67.8093C70.4262 67.7891 70.5682 71.3185 70.7507 71.4807H70.771C70.9536 71.6633 71.197 71.7647 71.4404 71.8053C71.5215 71.8256 71.6229 71.8256 71.7041 71.8256C72.3937 71.8256 72.9617 71.2576 72.9617 70.568V66.8763C74.341 68.4179 77.7284 71.8256 80.913 71.8256C82.272 71.8256 83.631 71.4807 84.8075 70.8114C85.9028 71.4402 87.1199 71.785 88.3775 71.8256C90.771 71.8256 92.6168 70.5071 93.7325 68.1339C93.8745 68.357 94.0367 68.5598 94.2193 68.7627C95.0509 69.7363 96.268 70.284 97.5458 70.284C97.769 70.284 98.3166 70.2029 98.56 69.9594C98.4256 70.0939 98.3268 70.4244 98.24 70.7146L98.24 70.7147C98.1959 70.8624 98.1548 70.9996 98.1138 71.0953L97.5661 72.2515C97.1807 73.0223 96.7548 73.7525 96.268 74.4625C95.3146 75.9026 94.1787 77.2414 92.9008 78.3976C90.0813 80.9331 86.6939 82.353 83.0022 83.0223C81.0753 83.3671 79.1077 83.4686 77.1604 83.3469C75.1523 83.2252 73.1645 82.9412 71.197 82.5152C67.2213 81.6836 63.2862 80.3448 59.3917 78.8235C57.1402 77.9513 54.8886 76.998 52.6371 76.0243C53.8136 74.929 54.9698 73.7931 56.0651 72.6166C57.627 70.9331 59.1077 69.1886 60.4667 67.3428C61.8663 65.4767 63.1239 63.5091 64.2396 61.4605C65.3957 59.3509 66.3491 57.14 67.0793 54.8682C67.8501 52.4747 68.2964 50 68.4181 47.4848C68.4586 46.1866 68.3978 44.8682 68.2355 43.57C68.0529 42.2515 67.769 40.9736 67.343 39.716C66.5316 37.2414 65.3349 34.9087 63.773 32.8195C62.1503 30.6288 60.0813 28.8033 57.7081 27.4645C55.3146 26.1258 52.6777 25.3144 49.9394 25.0913C49.27 25.0304 48.6209 24.9899 47.9718 24.9899C47.6473 24.9899 47.3227 24.9899 46.9982 25.0102L46.5114 25.0304C46.3655 25.0304 46.2196 25.0468 46.059 25.0649L46.0043 25.071C44.6655 25.1724 43.3268 25.4158 42.0286 25.7809C39.4728 26.5315 37.0793 27.7282 34.9495 29.3509C32.9414 30.8925 31.1564 32.6775 29.6351 34.7059C28.8846 35.6795 28.2152 36.6937 27.5864 37.7485C27.2619 38.2759 26.9779 38.8033 26.6939 39.3509C26.5519 39.6146 26.4099 39.8986 26.268 40.1826L26.0651 40.6288L25.9637 40.8519L25.842 41.1359C24.9495 43.2454 25.9637 45.6795 28.0732 46.572C30.1219 47.4239 32.4749 46.5315 33.4282 44.5233L33.5296 44.3205L33.631 44.1177L33.773 43.8337C33.8237 43.7323 33.8744 43.6359 33.9252 43.5396L33.9252 43.5395C33.9759 43.4431 34.0266 43.3468 34.0773 43.2454C34.2801 42.8398 34.5235 42.4544 34.7669 42.069C35.2538 41.2982 35.7609 40.5274 36.3288 39.8175C37.4039 38.4179 38.6412 37.1603 40.0408 36.0852C41.3389 35.0913 42.7994 34.3611 44.3613 33.8945C45.1118 33.6714 45.9028 33.5497 46.6736 33.4889C46.7243 33.4889 46.7751 33.4838 46.8258 33.4787C46.8765 33.4736 46.9272 33.4686 46.9779 33.4686L47.3024 33.4483C47.3693 33.4483 47.4384 33.4461 47.5082 33.4439C47.6502 33.4393 47.7953 33.4347 47.9312 33.4483C48.3572 33.4483 48.7629 33.4686 49.1686 33.5091C50.7304 33.6308 52.2314 34.0771 53.5905 34.8276C54.9495 35.5984 56.1463 36.6329 57.0793 37.8702C58.0935 39.2292 58.8643 40.7302 59.3917 42.3327C59.6554 43.1035 59.8379 43.9148 59.9596 44.7262C60.0813 45.5578 60.1219 46.3895 60.1016 47.2211C60.0408 48.9858 59.7365 50.7505 59.2091 52.4341C58.6412 54.2394 57.9312 55.9635 57.0387 57.6268C55.1726 61.0953 52.8805 64.3205 50.2233 67.2414C48.5195 69.1481 46.6736 70.9331 44.7264 72.5761C43.7325 72.1501 42.7183 71.7241 41.6838 71.3185C39.5742 70.4463 37.4241 69.716 35.2335 69.1075C34.0164 68.783 32.7994 68.5598 31.5418 68.4179C30.8318 68.357 30.1422 68.3367 29.4323 68.357C28.6209 68.3976 27.8298 68.5396 27.0387 68.7627C26.1463 69.0264 25.2943 69.4523 24.5438 70.0203C23.773 70.6085 23.1239 71.3185 22.6168 72.1298C22.1706 72.8398 21.8258 73.6308 21.5824 74.4422C21.3795 75.1521 21.2172 75.8621 21.1361 76.6126C21.055 77.282 21.0144 77.931 20.9941 78.6004C20.9738 79.3306 21.0347 80.0609 21.1361 80.7911C21.2578 81.643 21.5012 82.4544 21.846 83.2454C22.2314 84.1582 22.7994 84.9899 23.5093 85.6795C24.2396 86.3895 25.0915 86.9371 26.0245 87.3225C26.8359 87.6471 27.7081 87.8702 28.5803 87.9513C30.0205 88.073 31.4809 87.9919 32.9008 87.6674C35.4972 87.1197 37.7284 86.1866 39.8379 85.1319C41.9069 84.0771 43.8947 82.8803 45.8014 81.5619C46.3085 81.217 46.8156 80.8519 47.3227 80.4665C50.629 81.785 53.9759 83.1035 57.4241 84.2799C61.5621 85.6998 65.8217 86.9371 70.2639 87.6674C72.5154 88.0527 74.7872 88.2556 77.059 88.2759C79.3917 88.2962 81.7041 88.0527 83.9759 87.5254C88.6209 86.4706 92.7994 83.9554 95.9231 80.3651C97.4241 78.641 98.702 76.7343 99.7568 74.7059C100.67 72.9412 101.501 71.1359 102.049 69.1684C102.558 67.3288 102.764 65.3194 102.96 63.4133L102.961 63.4131L102.982 63.2049C103.043 62.6978 103.063 62.1704 103.063 61.6633C103.083 61.2576 103.083 60.8519 103.083 60.426C103.023 59.7972 102.475 59.2292 101.765 59.2089ZM84.7467 67.7688C84.3613 67.4037 84.0367 66.9777 83.8136 66.4909C83.2051 65.1724 83.2456 63.4686 83.915 62.4544C84.1584 62.0081 84.6452 61.7241 85.1523 61.7241C85.7203 61.7241 86.1463 61.8864 86.4099 62.1704C86.7345 62.5558 86.7953 63.1035 86.7953 63.5091C86.7953 65.2941 85.9231 66.7546 84.7467 67.7688ZM29.6351 80.7302C30.203 80.7302 30.771 80.6694 31.3187 80.568C33.9556 80.1014 36.2882 78.6207 38.5195 77.2008C38.2558 77.0791 36.0448 76.3286 35.416 76.1258C34.1179 75.6795 32.7588 75.355 31.3998 75.1521C31.3795 75.1495 31.3591 75.1468 31.3386 75.1441C30.4192 75.0238 29.3551 74.8845 28.6209 75.6187C28.0732 76.2272 27.7081 76.998 27.6067 77.8093C27.4444 78.9047 28.0124 80.7302 29.6351 80.7302Z" fill="white"/>
<defs>
<linearGradient id="paint0_linear" x1="255.998" y1="226.399" x2="230.097" y2="-140.275" gradientUnits="userSpaceOnUse">
<stop offset="0.3" stop-color="#17936F"/>
<stop offset="0.41" stop-color="#14A073"/>
<stop offset="0.63" stop-color="#0BC27E"/>
<stop offset="0.79" stop-color="#04E087"/>
</linearGradient>
</defs>
</svg>
