<svg width="120" height="120" viewBox="0 0 120 120" fill="none" xmlns="http://www.w3.org/2000/svg">
<circle cx="60" cy="60" r="60" fill="#3EFFFF"/>
<path fill-rule="evenodd" clip-rule="evenodd" d="M25 39.701L60.5 19L96 39.701V81.299L60.5 102L25 81.299V39.701ZM28.408 77.315L42.6454 68.9962L49.8687 56.2255L28.408 43.6887V77.315ZM58.8969 97.0841L30.1157 80.2993V80.2955L43.8075 72.2973L58.8969 81.0236V97.0841ZM92.592 43.8057L71.3219 56.2293L78.5415 68.9886L92.592 77.1981V43.8057ZM62.3049 24.0328L90.9852 40.7573L69.6291 53.2337L62.3049 40.2895V24.0328ZM68.3885 57.9421L64.0089 60.5L72.6971 65.5743L68.3885 57.9421ZM62.3049 47.1747L66.6957 54.9465L62.3049 57.512V47.1747ZM48.5197 65.5668L48.5253 65.5635L48.5234 65.5668H48.5197ZM48.5253 65.5635L52.8208 57.9496L57.1892 60.5L48.5253 65.5635ZM58.8969 77.051L47.2267 70.3053L58.8969 63.488V77.051ZM30.112 40.7007L51.5615 53.2262L58.8969 40.2669V23.9159L30.112 40.7007ZM77.398 72.3049L90.9852 80.2427L62.3049 96.9672V81.1368L77.398 72.3049ZM73.99 70.3129L73.9868 70.311L73.99 70.3091V70.3129ZM73.9868 70.311L62.3049 77.1528V63.488L73.9868 70.311ZM58.8969 57.512L54.5136 54.9541L58.8969 47.1936V57.512Z" fill="white"/>
</svg>
