<svg width="120" height="120" viewBox="0 0 120 120" fill="none" xmlns="http://www.w3.org/2000/svg">
<circle cx="60" cy="60" r="60" fill="#EDF0F4"/>
<path d="M29.0428 92.7055C28.9756 92.0339 28.5055 86.9568 33.3676 80.2281C37.7059 74.2242 48.236 70.262 57.7587 67.0116L58.6049 66.7296C65.0115 64.5403 74.0776 60.4438 76.1729 58.4559L82.7675 65.4133C78.4696 69.483 66.1129 74.2913 61.7209 75.7956L60.8613 76.0911C56.2678 77.6626 44.0454 81.8262 41.1443 85.8556C38.4581 89.5759 38.5924 92.6651 38.5924 92.6919L29.0428 92.7055Z" fill="url(#paint0_linear)"/>
<path d="M73.7951 93.0145H64.2053C64.2053 89.1195 62.889 85.8419 61.8414 83.1961C61.6936 82.8336 61.5593 82.4841 61.425 82.1484C60.8475 80.6578 58.4298 77.0581 56.4957 74.1838C55.4078 72.5586 54.2662 70.8797 53.3394 69.3889C53.0305 68.9054 52.7081 68.4084 52.3858 67.898C49.5115 63.4791 45.5762 57.4217 45.5762 48.3422C45.5762 43.1577 47.6043 37.9733 51.1501 34.1051L58.2149 40.5924C56.3077 42.6742 55.1661 45.5754 55.1661 48.3422C55.1661 54.5743 57.8389 58.6976 60.4311 62.6733C60.7937 63.224 61.1429 63.7612 61.4653 64.285C62.3249 65.655 63.3725 67.1996 64.4739 68.8382C67.0124 72.6258 69.4166 76.1985 70.3836 78.6833C70.5045 78.992 70.6254 79.3147 70.7597 79.6505C71.9551 82.6856 73.7951 87.2795 73.7951 93.0145Z" fill="url(#paint1_linear)"/>
<path d="M82.7673 65.3998L76.1725 58.4425C78.7243 56.0249 80.5244 53.9162 80.5244 48.6646C80.5244 41.2102 74.3727 36.6033 68.6779 36.6033C64.1381 36.6033 60.6192 37.9465 58.2015 40.579L51.1367 34.0917C54.105 30.8548 59.5581 27 68.6913 27C74.7488 27 80.3229 29.4713 84.379 33.944C88.0322 37.9867 90.1408 43.3458 90.1408 48.6511C90.114 57.2605 86.5815 61.7868 82.7673 65.3998Z" fill="url(#paint2_linear)"/>
<defs>
<linearGradient id="paint0_linear" x1="29" y1="58.4559" x2="29" y2="92.7055" gradientUnits="userSpaceOnUse">
<stop stop-color="#4D4D4D"/>
<stop offset="1" stop-color="#8F8F8F"/>
</linearGradient>
<linearGradient id="paint1_linear" x1="45.5762" y1="34.1051" x2="45.5762" y2="93.0145" gradientUnits="userSpaceOnUse">
<stop stop-color="#393939"/>
<stop offset="1" stop-color="#B8B8B8"/>
</linearGradient>
<linearGradient id="paint2_linear" x1="51.1367" y1="27" x2="51.1367" y2="65.3998" gradientUnits="userSpaceOnUse">
<stop stop-color="#FF21B3"/>
<stop offset="1" stop-color="#FF21B3"/>
</linearGradient>
</defs>
</svg>
