<svg width="120" height="120" viewBox="0 0 120 120" fill="none" xmlns="http://www.w3.org/2000/svg">
<circle cx="60" cy="60" r="60" fill="#EDF0F4"/>
<path d="M40.12 44H42.997C47.491 44.441 51.649 46.702 54.729 49.957C61.12 56.663 64.634 66.127 72.768 71.118C78.648 74.73 86.873 71.776 89.764 65.679C91.234 65.651 92.711 65.651 94.181 65.658C92.158 71.853 86.264 76.305 79.817 76.9H77.444C73.475 76.571 69.618 75.045 66.615 72.406C62.254 68.71 59.454 63.642 56.066 59.127C53.154 55.137 50.179 50.65 45.356 48.837C39.399 46.604 32.119 50.097 29.949 56.033C28.038 60.919 29.592 66.981 33.862 70.11C37.061 72.588 41.52 73.512 45.363 72.07C49.633 70.53 52.804 67.03 55.233 63.32C56.192 64.692 57.123 66.085 58.047 67.485C54.267 72.245 49.024 76.333 42.787 76.9H40.232C32.371 76.354 25.539 69.676 25 61.787V59.204C25.511 51.329 32.252 44.574 40.12 44Z" fill="#DE3F6B"/>
<path d="M77.2829 44H79.6699C87.6009 44.518 94.3489 51.329 94.9999 59.218V63.264C88.4549 63.327 81.9029 63.285 75.3579 63.292C75.3649 62.109 75.3649 60.933 75.3579 59.75C80.5309 59.736 85.6969 59.771 90.8629 59.736C90.4989 57.643 90.0229 55.501 88.7839 53.73C85.7599 49.11 79.3689 47.22 74.2589 49.222C70.1849 50.734 67.1189 54.045 64.7529 57.58C63.8429 56.271 62.9399 54.948 62.0649 53.611C65.7959 48.781 71.0039 44.602 77.2829 44Z" fill="#DE3F6B"/>
</svg>
