<svg width="120" height="120" viewBox="0 0 120 120" fill="none" xmlns="http://www.w3.org/2000/svg">
<circle cx="60" cy="60" r="60" fill="#F49E00"/>
<path fill-rule="evenodd" clip-rule="evenodd" d="M89.347 30C89.347 30 82.8364 51.8075 74.4758 65.0044V65.0082C74.4758 65.0082 75.8792 84.1005 94 83.6055V87.2544L85.6766 88.5332C85.5426 88.5628 85.4167 88.5851 85.2914 88.6073C85.1626 88.6301 85.0345 88.6528 84.8986 88.6833C84.8018 88.7035 84.6812 88.7311 84.5394 88.7636C82.451 89.2417 75.7597 90.7737 72.6295 85.4393L68.8996 74.0837C68.8996 74.0837 60.9894 89.527 47.9721 89.9921C47.9721 89.9921 33.7635 90.7534 28.634 77.3539C27.8747 75.3738 27.4131 73.2999 27.2567 71.1923C26.8696 66.6995 26.5122 56.7727 29.4381 47.926C31.4966 41.7081 35.796 36.3078 41.7072 33.2102C46.4831 30.7013 53.109 29.0962 60.5428 32.7452C60.5428 32.7452 69.8228 37.7367 70.303 51.3724L75.4064 33.1839L89.347 30ZM52.748 81.1228C54.3011 80.7149 55.7143 79.8876 56.8352 78.7302C59.0166 76.5701 63.2862 71.4885 66.5992 62.7318C66.5992 62.7318 63.9711 38.0629 52.2678 37.4479C49.5677 37.3391 46.9804 38.5447 45.3143 40.6881C42.2991 44.4571 37.7614 52.6588 41.0446 71.3723C41.6167 74.1778 42.9863 76.7551 44.9867 78.7902C46.7772 80.5415 49.3717 81.9704 52.748 81.1228Z" fill="white"/>
</svg>
