<svg width="120" height="120" viewBox="0 0 120 120" fill="none" xmlns="http://www.w3.org/2000/svg">
<path d="M60 120C93.138 120 120 93.138 120 60C120 26.862 93.138 0 60 0C26.862 0 0 26.862 0 60C0 93.138 26.862 120 60 120Z" fill="#EDF0F4"/>
<path fill-rule="evenodd" clip-rule="evenodd" d="M54.126 102.153C55.9752 103.21 58.0885 103.791 60.2018 103.791C62.3679 103.791 64.4284 103.21 66.3304 102.153L93.3278 86.5673C97.079 84.4012 99.4036 80.3331 99.4036 76.0008V44.7767C99.4036 40.4445 97.079 36.3764 93.3278 34.2102L66.3304 18.6246C62.5264 16.4585 57.8772 16.4585 54.126 18.6246L27.0757 34.2102C23.3246 36.3764 21 40.4445 21 44.7767V75.948C21 80.3331 23.3246 84.3484 27.1286 86.5673L54.126 102.153ZM56.2393 22.2701C57.4545 21.5832 58.8281 21.2134 60.2018 21.2134C61.6283 21.2134 63.0019 21.5832 64.2171 22.2701L91.1617 37.9085C93.592 39.2822 95.1242 41.9238 95.1242 44.7767V76.0536C95.1242 78.9066 93.592 81.4954 91.1617 82.9219L64.1642 98.5075C61.6811 99.934 58.6697 99.934 56.1865 98.5075L29.1891 82.8691C26.7588 81.4426 25.2266 78.8538 25.2266 76.0008V44.7767C25.2266 41.9766 26.7059 39.335 29.1891 37.9085L56.2393 22.2701ZM60.2018 89.6316C59.0395 89.6316 57.93 89.3146 56.9262 88.7335L37.2724 77.4273C35.2648 76.265 33.9968 74.0988 33.9968 71.7214V49.0562C33.9968 46.7316 35.212 44.5654 37.2724 43.3503L56.9262 32.0441C58.9866 30.8818 61.4698 30.8818 63.4774 32.0441L83.0783 43.3503C85.086 44.5126 86.3539 46.6787 86.3539 49.0562V71.7214C86.3539 74.046 85.086 76.265 83.0783 77.4273L63.4246 88.7335C62.4736 89.3146 61.3641 89.6316 60.2018 89.6316ZM58.5112 34.7914C59.0395 34.4744 59.6206 34.3159 60.2018 34.3159C60.8358 34.3159 61.4169 34.4744 61.8924 34.7914L81.4933 46.0976C82.55 46.7316 83.184 47.841 83.184 49.0562V71.7214C83.184 72.9365 82.55 74.046 81.4933 74.68L61.8924 85.9862C60.8358 86.6202 59.5678 86.6202 58.5112 85.9862L38.8574 74.68C37.8008 74.046 37.1668 72.9365 37.1668 71.7214V49.0562C37.1668 47.841 37.8008 46.7316 38.8574 46.0976L58.5112 34.7914ZM60.2018 75.2612C59.6206 75.2612 59.0395 75.1027 58.5112 74.8385L48.5786 69.0269C47.522 68.4458 46.888 67.2834 46.888 66.1211V54.6036C46.888 53.3885 47.522 52.279 48.5786 51.6978L58.5112 45.9391C59.5678 45.3579 60.8358 45.3579 61.8924 45.9391L71.825 51.6978C72.8816 52.279 73.5156 53.3885 73.5156 54.6036V66.1211C73.5156 67.3363 72.8816 68.4458 71.825 69.0269L61.8924 74.7857C61.3641 75.1027 60.783 75.2612 60.2018 75.2612ZM59.5678 47.7882C59.7791 47.6825 59.9905 47.6297 60.2018 47.6297C60.4131 47.6297 60.6245 47.6825 60.8358 47.7882L70.7683 53.547C71.1381 53.7583 71.4023 54.181 71.4023 54.6036V66.1211C71.4023 66.5438 71.1381 67.0193 70.7683 67.2306L60.8358 72.9894C60.4131 73.2007 59.9376 73.2007 59.5678 72.9894L49.6353 67.2306C49.2654 66.9664 49.0013 66.5438 49.0013 66.1211V54.6036C49.0013 54.181 49.2654 53.7583 49.6353 53.547L59.5678 47.7882Z" fill="url(#paint0_linear)"/>
<defs>
<linearGradient id="paint0_linear" x1="21" y1="103.784" x2="99.4247" y2="103.784" gradientUnits="userSpaceOnUse">
<stop stop-color="#E168FD"/>
<stop offset="1" stop-color="#7B00FC"/>
</linearGradient>
</defs>
</svg>
