<svg width="120" height="120" viewBox="0 0 120 120" fill="none" xmlns="http://www.w3.org/2000/svg">
<path fill-rule="evenodd" clip-rule="evenodd" d="M60 0C26.88 0 0 26.88 0 60C0 93.12 26.88 120 60 120C93.12 120 120 93.12 120 60C120 26.88 93.12 0 60 0Z" fill="#29B2FF"/>
<path fill-rule="evenodd" clip-rule="evenodd" d="M42.5 41L15 78H20.6196L26.5978 69.8987H45.7283V65.3039H29.9457L48 41H42.5Z" fill="white"/>
<path fill-rule="evenodd" clip-rule="evenodd" d="M105 78L77.5 41H72L90.0543 65.3039H74.2717V69.8987H93.4022L99.3804 78H105Z" fill="white"/>
<path fill-rule="evenodd" clip-rule="evenodd" d="M58 78H63V21H58V78Z" fill="white"/>
<path fill-rule="evenodd" clip-rule="evenodd" d="M26 69H45V66H26V69Z" fill="white"/>
<path fill-rule="evenodd" clip-rule="evenodd" d="M26 69H45V66H26V69Z" stroke="white" stroke-width="1.4925"/>
<path fill-rule="evenodd" clip-rule="evenodd" d="M75 69H94V66H75V69Z" fill="white"/>
<path fill-rule="evenodd" clip-rule="evenodd" d="M75 69H94V66H75V69Z" stroke="white" stroke-width="1.4925"/>
</svg>
