<svg width="120" height="120" viewBox="0 0 120 120" fill="none" xmlns="http://www.w3.org/2000/svg">
<circle cx="60" cy="60" r="60" fill="#EDF0F4"/>
<path d="M31.0391 90C30.9974 89.1665 30.9835 88.3329 31.0252 87.4994C31.303 87.4161 31.5808 87.3605 31.8726 87.3188C32.7061 87.1799 33.5396 86.9715 34.3454 86.7354C34.5677 86.6659 34.7899 86.5825 35.0122 86.4992C36.0819 86.0824 37.0266 85.3878 37.7489 84.4987C38.2491 83.8736 38.6797 83.1929 39.0548 82.4844C39.5827 81.5119 40.0411 80.4978 40.4579 79.4698C41.2914 77.386 42.125 75.316 42.9446 73.2322C45.7786 66.0639 48.6126 58.8956 51.4466 51.7273C54.1277 44.9062 56.7672 38.0852 59.3512 31.2225C59.4067 31.0836 59.4623 30.9447 59.5179 30.8057C60.4764 30.5418 61.4072 30.2639 62.3796 30C62.4352 30.1389 62.4908 30.2639 62.5325 30.389C63.6299 33.4452 64.7274 36.5015 65.811 39.5717C69.548 50.0046 73.2849 60.4237 77.1192 70.815C78.175 73.649 79.2308 76.4969 80.3005 79.3309C80.7172 80.4839 81.2173 81.6231 81.7869 82.7066C82.037 83.179 82.3009 83.6235 82.5927 84.0681C83.4818 85.4573 84.8571 86.4436 86.4547 86.8604C87.316 87.0827 88.1773 87.2633 89.0664 87.3744L89.6915 87.4716C89.7749 87.7495 89.7332 88.0134 89.7332 88.2774C89.7332 88.5413 89.7332 88.847 89.7332 89.1248C89.7471 89.4026 89.7332 89.6666 89.7193 89.9444C89.636 89.9583 89.5665 89.9722 89.4831 89.9861C89.3859 89.9861 89.2887 89.9861 89.1914 89.9861H67.5058C67.4781 89.9444 67.4642 89.8889 67.4503 89.8333C67.4503 89.0831 67.4503 88.333 67.4503 87.5828C67.4503 87.555 67.4642 87.5133 67.478 87.4855C67.6586 87.43 67.8392 87.4022 68.0337 87.3744C68.9367 87.2494 69.8258 87.0827 70.7149 86.8465C71.0622 86.7492 71.4234 86.6242 71.7568 86.4853C71.9235 86.4158 72.0902 86.3325 72.2569 86.2352C73.1321 85.749 73.4794 84.985 73.3961 84.0125C73.3544 83.568 73.2849 83.1373 73.1599 82.7066C72.9793 82.0398 72.7432 81.3869 72.5209 80.7479C67.9643 68.0366 63.4632 55.3114 59.0039 42.5585C58.9622 42.4195 58.9344 42.2667 58.7955 42.1417C58.7538 42.1695 58.6843 42.1973 58.6566 42.2251C58.6149 42.2945 58.5871 42.364 58.5732 42.4334C56.3921 48.6988 54.0722 54.9224 51.7661 61.1322C50.0573 65.7305 48.3486 70.3427 46.7649 74.9826C46.1259 76.8442 45.5146 78.7196 44.9173 80.595C44.6811 81.3174 44.5144 82.0537 44.4033 82.79C44.3199 83.2901 44.306 83.7902 44.3616 84.3042C44.431 84.9572 44.7783 85.5545 45.3201 85.9435C45.6674 86.1936 46.0564 86.3881 46.4732 86.527C47.1261 86.7631 47.7929 86.9298 48.4736 87.041C49.2238 87.1799 49.974 87.291 50.7381 87.4022C50.7936 87.4161 50.8353 87.4161 50.9048 87.43C50.9187 87.4855 50.9326 87.5411 50.9464 87.5967C50.9464 88.3191 50.9464 89.0553 50.9464 89.7777C50.9464 89.8194 50.9325 89.8611 50.9187 89.9028C50.8492 89.9166 50.7797 89.9305 50.7103 89.9305C50.613 89.9305 50.5158 89.9305 50.4185 89.9305L31.0391 90Z" fill="black"/>
</svg>
