<svg width="120" height="120" viewBox="0 0 120 120" fill="none" xmlns="http://www.w3.org/2000/svg">
<path fill-rule="evenodd" clip-rule="evenodd" d="M60 120C27 120 0 93.0006 0 59.7012C0.3 26.7019 27 -0.297518 60.3 0.00247602C93.3 0.30247 120 27.0019 120 60.6012C119.7 93.3006 93 120 60 120Z" fill="#EDF0F4"/>
<circle cx="60" cy="60" r="45" fill="url(#paint0_linear)"/>
<circle cx="60" cy="60" r="40.5" stroke="white" stroke-width="3"/>
<path fill-rule="evenodd" clip-rule="evenodd" d="M74.678 62.3555L79.6718 75.8478V75.8845C79.9328 76.6519 80.126 77.4401 80.2494 78.2402C80.2624 78.9927 80.0659 79.7345 79.6811 80.385C79.2395 80.9631 78.7154 81.4756 78.1252 81.9066C77.4448 82.2879 76.6722 82.4811 75.8892 82.4657C73.7849 82.591 71.8642 81.2908 71.2309 79.3126L69.2651 73.4097H51.1815L49.2157 79.1751C48.6552 81.2253 46.7121 82.6094 44.5574 82.4932C43.3127 82.5034 42.107 82.0667 41.1661 81.265C40.3111 80.477 39.8029 79.3916 39.75 78.2402C39.7769 77.4193 39.9503 76.6096 40.2624 75.8478L45.34 62.3371H42.3493C41.1798 62.3321 40.2345 61.3979 40.2345 60.2473C40.2345 59.1235 41.1605 58.2124 42.3028 58.2124H46.9611L47.7623 56.1684H42.5636C41.3802 56.1684 40.4208 55.2245 40.4208 54.0602C40.4259 52.94 41.3504 52.0345 42.4891 52.0345H49.3368L53.2405 41.8603C53.8031 40.4204 54.726 39.1436 55.9237 38.148C57.119 37.2011 58.6196 36.7068 60.1534 36.7548C61.6833 36.6954 63.182 37.1912 64.3645 38.148C65.5615 39.1422 66.4816 40.4197 67.0384 41.8603L70.7651 51.9429H77.6501C78.2216 51.9404 78.7705 52.1627 79.1746 52.5603C79.5787 52.9579 79.8047 53.4979 79.8022 54.0602C79.7719 55.203 78.8213 56.1138 77.6594 56.1134H72.3582L73.1035 58.2124H77.7619C78.3055 58.2124 78.8268 58.4249 79.2112 58.8031C79.5956 59.1812 79.8115 59.6941 79.8115 60.2289C79.8065 61.3978 78.8474 62.3454 77.6594 62.3555H74.678ZM60.1162 46.3424L54.079 64.4178H66.2651L60.1162 46.3424Z" fill="#FEFEFE"/>
<defs>
<linearGradient id="paint0_linear" x1="0.680558" y1="62.0925" x2="61.7368" y2="128.221" gradientUnits="userSpaceOnUse">
<stop stop-color="#FC8F55"/>
<stop offset="0.44" stop-color="#FE7A6A"/>
<stop offset="1" stop-color="#FE687C"/>
</linearGradient>
</defs>
</svg>
