<svg width="120" height="120" viewBox="0 0 120 120" fill="none" xmlns="http://www.w3.org/2000/svg">
<circle cx="60" cy="60" r="60" fill="#EDF0F4"/>
<circle cx="60" cy="60" r="36" fill="#0092B5"/>
<path fill-rule="evenodd" clip-rule="evenodd" d="M48.3249 54.9443L41.3792 42.5693C46.1132 40.056 51.9879 38.7375 59.0079 38.625L49.6434 55.1085C49.2302 54.9234 48.7709 54.8661 48.3249 54.9443ZM60.0947 38.769L50.4602 55.7295H50.4579C51.156 56.5719 51.1233 57.8009 50.3814 58.605L59.0957 74.1278C59.7103 73.8431 60.42 73.848 61.0307 74.1413L69.4974 58.8682C68.9631 58.4605 68.6449 57.8304 68.634 57.1584C68.623 56.4863 68.9204 55.8462 69.4412 55.4212L60.2747 38.769C60.1487 38.7172 60.1127 38.7375 60.0947 38.769ZM58.2857 74.7622L49.5377 59.181V59.1833C49.1825 59.3197 48.7991 59.3661 48.4217 59.3183L42.8147 69.1867C43.3522 70.3185 43.9876 71.4011 44.7137 72.4222C46.4304 72.825 50.8179 73.8713 57.8807 75.5632C57.9589 75.2712 58.0968 74.9984 58.2857 74.7622ZM46.4685 57.1693C46.4532 56.4469 46.7939 55.7631 47.3799 55.3403L40.5017 43.0868C39.9939 43.493 39.7153 44.1207 39.7547 44.7698L40.7964 61.3792C40.9388 63.6613 41.4478 65.9056 42.3039 68.0257L47.4564 58.9583C46.8531 58.5606 46.4837 57.8918 46.4685 57.1693ZM62.2299 75.5857C62.1547 75.2954 62.0207 75.0235 61.8362 74.787L70.4267 59.2913C70.7974 59.3656 71.1808 59.3471 71.5427 59.2372L77.1092 69.3487C76.6367 70.3207 76.0922 71.2567 75.4802 72.15L62.2299 75.5857ZM62.2434 76.623C62.0463 77.4526 61.3943 78.0976 60.5627 78.2858V83.6003C60.7568 83.5451 60.9418 83.4617 61.1117 83.3528L69.2634 78.1463C71.26 76.874 73.0354 75.284 74.5194 73.4393L62.2434 76.623ZM59.5412 78.288V83.625C59.3096 83.5726 59.0888 83.4804 58.8887 83.3527L50.7369 78.1462C48.8309 76.9314 47.1259 75.4269 45.6834 73.6867C47.9109 74.2155 51.9677 75.183 57.8537 76.5915C58.0337 77.4307 58.6952 78.0945 59.5412 78.288ZM70.3547 54.9713C70.775 54.8713 71.2152 54.8931 71.6237 55.0343L78.5536 42.5355C73.9164 40.0853 68.1834 38.7825 61.3614 38.6318L70.3547 54.9713ZM72.4854 55.5765L79.4379 43.0395C79.9834 43.442 80.2882 44.0931 80.2479 44.7698L79.2062 61.3815C79.0594 63.7215 78.5272 66.0212 77.6312 68.1878L72.4247 58.731C72.8609 58.3263 73.1138 57.7616 73.1252 57.1667C73.1367 56.5717 72.9057 55.9977 72.4854 55.5765ZM58.7829 50.478C58.8021 49.8164 59.3384 49.2871 60.0002 49.2765L60.0024 49.2787C60.6624 49.2904 61.1971 49.8182 61.2174 50.478V54.8745L67.7109 58.875L66.9167 60.477L61.2174 58.4745V62.871L62.8419 64.0702V65.2695L60.0002 64.4707L57.1584 65.2717V64.0725L58.7829 62.8732V58.4767L52.9847 60.3757L52.2894 58.875L58.7829 54.8745V50.478Z" fill="white"/>
</svg>
