<svg width="120" height="120" viewBox="0 0 120 120" fill="none" xmlns="http://www.w3.org/2000/svg">
<circle cx="60" cy="60" r="60" fill="#EDF0F4"/>
<circle cx="60" cy="60" r="43.5" stroke="#222326" stroke-width="3"/>
<path fill-rule="evenodd" clip-rule="evenodd" d="M68.2359 75.1474C68.3226 75.4557 68.3975 75.722 68.5684 75.8926H78V75.2851C77.6958 74.6777 77.3915 73.4628 77.0873 72.248L77.0873 72.2479C76.783 71.0331 76.783 69.5145 76.783 67.6921V52.5062C76.783 50.3802 76.1745 48.5579 75.566 47.0393C74.9575 45.5207 73.7406 44.0021 72.5236 43.0909C71.0024 41.876 69.4811 41.2686 67.6557 40.6612C65.8302 40.0537 64.0047 39.75 61.875 39.75C59.441 39.75 57.3113 40.0537 55.4858 40.6612C53.6604 41.2686 52.1392 42.1798 50.9222 43.0909C49.4009 44.3058 48.4882 45.5207 47.8797 46.7355C47.2712 47.9504 46.967 49.469 46.967 50.9876H56.0943C56.0943 49.7727 56.3986 48.8616 57.3113 47.9504C58.2241 47.0393 59.441 46.7355 61.2665 46.7355C63.3962 46.7355 64.9175 47.343 66.1344 48.2541C67.0472 49.1653 67.6557 50.3802 67.6557 52.2025V54.3285H62.4835C57.0071 54.3285 52.7476 55.2397 50.0094 57.3657C47.2712 59.188 45.75 62.2252 45.75 65.8698C45.75 67.3884 46.0542 68.907 46.6627 70.1219C47.2712 71.3368 47.8797 72.5517 49.0967 73.4628C50.3137 74.374 51.5307 74.9814 53.0519 75.5888C54.5731 76.1963 56.0943 76.5 57.9198 76.5C58.8325 76.5 60.0495 76.5 60.9623 76.1963C61.7736 75.9938 62.3145 75.7913 62.8554 75.5888C63.1258 75.4876 63.3962 75.3864 63.7005 75.2851C63.8441 75.2134 64.0047 75.1417 64.1743 75.066C64.7229 74.8211 65.3653 74.5343 65.8302 74.0702C66.1344 73.7665 66.4387 73.5387 66.7429 73.311C67.0472 73.0832 67.3514 72.8554 67.6557 72.5517C67.6557 72.8554 67.7317 73.1591 67.8078 73.4628C67.8838 73.7665 67.9599 74.0702 67.9599 74.374C68.0933 74.6403 68.1682 74.9066 68.2359 75.1474ZM62.1792 69.2107C61.5708 69.5145 60.658 69.5145 59.7453 69.5145C58.2241 69.5145 56.7028 69.2107 55.7901 68.2996C54.8774 67.3884 54.5731 66.4773 54.5731 65.2624C54.5731 64.655 54.5731 63.7438 54.8774 63.1364C55.103 62.4606 55.496 62.119 55.9322 61.7397C56.0842 61.6076 56.2414 61.471 56.3986 61.314C57.0071 60.7066 57.9198 60.4029 58.8325 60.0992C59.7453 59.7955 60.9623 59.7955 62.4835 59.7955H67.0472V65.8698L65.8302 67.0847C65.5259 67.6921 64.9175 67.9959 64.309 68.2996C63.7005 68.6033 63.092 68.907 62.1792 69.2107Z" fill="#222326"/>
</svg>
