<svg width="120" height="120" viewBox="0 0 120 120" fill="none" xmlns="http://www.w3.org/2000/svg">
<circle cx="60" cy="60" r="60" fill="#00688C"/>
<path fill-rule="evenodd" clip-rule="evenodd" d="M101 37.7631V85.2781L100.996 85.2819L59.9385 109L59.9347 108.996L19 85.2931V37.7894L59.9012 14.03L59.9571 14L101 37.7631ZM82.8326 77.6802L75.8349 73.6478L60.2145 82.7623C60.1224 82.8167 60.0082 82.8167 59.9161 82.7623L41.9943 72.3205L41.9869 54.1551L26.2433 45.0818L59.8042 25.3042C59.8317 25.2873 59.8662 25.2873 59.8937 25.3042L91.0638 43.2184L85.5511 46.424L59.9086 31.5918L37.1679 45.0105L45.0565 49.5659L59.9235 40.875L59.931 40.8675L78.0952 51.3094L78.0877 68.5937L93.5702 77.5058L93.5665 77.7683L59.9385 97.5046L28.7647 79.6129L34.2214 76.3998L59.8862 91.1983L82.8326 77.6802Z" fill="white"/>
<path d="M64.8803 57.0608V56.9333L64.8766 56.8508L64.8728 56.8059L64.8654 56.7121V56.6821L64.8542 56.5809V56.5546L64.8393 56.4497V56.4309L64.8243 56.3222V56.3072L64.8057 56.1947L64.802 56.1872L64.7796 56.0747L64.7759 56.0635L64.7497 55.951V55.9435C64.7427 55.9057 64.734 55.8681 64.7236 55.831V55.8235L64.6901 55.7111V55.7073L64.6565 55.5873C64.6366 55.5108 64.6116 55.4356 64.5819 55.3624V55.3586L64.5371 55.2461C64.5235 55.2082 64.5085 55.1706 64.4924 55.1337L64.4439 55.0212L64.3954 54.9162L64.3432 54.8037L64.291 54.6987L64.2313 54.5938C64.2109 54.5603 64.191 54.5266 64.1716 54.4925V54.4888L64.1119 54.3913L64.1082 54.3875C64.0881 54.3556 64.0669 54.3244 64.0448 54.2938V54.2863L63.9814 54.1963C63.9814 54.1963 63.9814 54.1888 63.9739 54.1888L63.9105 54.0989L63.9031 54.0914C63.8807 54.0614 63.8658 54.0314 63.8397 54.0014L63.8359 53.9939L63.7651 53.9076L63.7576 53.9001L63.6905 53.8177L63.683 53.8102L63.6084 53.7314C63.6053 53.7282 63.6027 53.7243 63.601 53.7202L63.5301 53.6414C63.5269 53.6382 63.5244 53.6344 63.5226 53.6302L63.4518 53.5552C63.4232 53.5265 63.3946 53.4977 63.366 53.469L63.3548 53.4577L63.2802 53.3827C63.2516 53.3577 63.223 53.3328 63.1944 53.3077L63.1832 53.2965C63.1577 53.2721 63.1316 53.2483 63.1049 53.2253L63.0937 53.214C63.0683 53.1919 63.0421 53.1707 63.0154 53.1503L63.0042 53.1428L62.9221 53.0753L62.9109 53.0678L62.8252 53.0041L62.814 52.9966L62.7282 52.9328L62.717 52.9253L62.6312 52.8653L62.62 52.8616L62.5305 52.8016L62.523 52.7941L62.4298 52.7379H62.4223L62.3254 52.6779H62.3179L62.2172 52.6179H62.2135C59.7398 51.5678 56.8826 52.6668 55.7381 55.1086C54.5937 57.5503 55.5698 60.4649 57.9503 61.7137L55.787 71.6569H63.9702L61.7883 61.7212C63.6606 60.9338 64.8803 59.0967 64.8803 57.0608Z" fill="white"/>
</svg>
