<svg width="120" height="120" viewBox="0 0 120 120" fill="none" xmlns="http://www.w3.org/2000/svg">
<circle cx="60" cy="60" r="60" fill="#EDF0F4"/>
<path d="M30.6052 34.6455C30.6052 34.7101 30.6125 34.7736 30.6149 34.8382V34.4637C30.6113 34.5247 30.6052 34.5845 30.6052 34.6455Z" fill="#008C98"/>
<path d="M90.4694 34.4625C90.4694 34.4259 90.4694 34.3893 90.4633 34.3539C90.353 31.3462 87.8676 28.9733 84.8581 29.0024H84.8239H84.7885H65.1641L84.5164 75.1693H80.4656L64.9945 38.9074H56.1548L44.6454 66.0831H40.5946L53.7694 35.1665H63.5304L60.9413 29.0085L36.5792 29.0159C36.473 29.0098 36.3657 29 36.2583 29C36.1509 29 36.0399 29.0098 35.9313 29.0159C33.0627 29.1326 30.758 31.4204 30.6201 34.288V34.654L30.6811 70.1204C30.5174 73.199 31.9149 76.1531 34.3988 77.9792L35.3993 78.5417L38.302 71.4321H48.6132L51.744 64.3054H57.453L54.6894 57.3507L60.5826 43.2754L74.3004 75.1717H70.152L60.668 53.0766L58.8268 57.347L63.1546 68.0401H54.1355L51.0974 75.2559H40.9704L38.6985 80.3804L39.6551 80.9161L56.6147 90.2585C58.947 91.5472 61.7777 91.5472 64.1099 90.2585L87.3447 77.3252C90.5377 75.5854 90.4279 70.1485 90.4279 70.1485L90.4657 34.5637C90.4633 34.5393 90.4694 34.5015 90.4694 34.4625Z" fill="#008C98"/>
</svg>
