<svg width="120" height="120" viewBox="0 0 120 120" fill="none" xmlns="http://www.w3.org/2000/svg">
<circle cx="60" cy="60" r="60" fill="#2E3148"/>
<circle cx="59.9999" cy="60" r="34.8149" fill="#1B1E36"/>
<path fill-rule="evenodd" clip-rule="evenodd" d="M48.395 60.1238C48.395 31.1458 53.6467 7.65456 60.1233 7.65456C66.6 7.65456 71.8517 31.1458 71.8517 60.1238C71.8517 89.1019 66.6 112.593 60.1233 112.593C53.6467 112.593 48.395 89.1019 48.395 60.1238ZM59.4518 109.879C59.4518 109.879 60.1925 110.62 60.9331 109.632C60.9331 109.632 64.4121 106.667 66.8961 92.593C66.8961 92.593 70.1232 74.0746 69.6293 57.5314C69.6293 57.5314 70.1232 38.519 64.6689 18.2722C64.6689 18.2722 62.8219 11.7461 60.6197 10.1856C60.2531 9.92487 59.7521 9.96537 59.4321 10.2816C57.9144 11.7826 53.4542 18.5434 51.0024 47.1629C51.0024 47.1629 49.7606 83.2123 54.9777 100.002C54.9777 100.002 56.4691 106.423 59.4518 109.879Z" fill="#6F7390"/>
<path fill-rule="evenodd" clip-rule="evenodd" d="M54.2746 49.9483C79.4223 35.5282 102.41 28.3925 105.635 34.0123C108.857 39.6298 91.118 55.8763 65.9703 70.2965C40.8226 84.7166 17.8326 91.8499 14.6103 86.2325C11.3881 80.615 29.127 64.3685 54.2746 49.9483ZM16.6297 84.2914C16.6297 84.2914 16.3508 85.3061 17.5854 85.4616H17.5858C17.5858 85.4616 21.8871 87.0048 35.3314 82.1602C35.3314 82.1602 53.0002 75.7478 67.1041 67.0838C67.1041 67.0838 83.8422 58.0493 98.6799 43.237C98.6799 43.237 103.433 38.389 103.68 35.701C103.727 35.2519 103.443 34.8345 103.008 34.7131C100.956 34.1482 92.8671 33.637 66.8252 45.7531C66.8252 45.7531 34.9359 62.615 22.9633 75.4963C22.9633 75.4963 18.1441 79.9853 16.6297 84.2914Z" fill="#6F7390"/>
<path fill-rule="evenodd" clip-rule="evenodd" d="M66.0168 49.9651C91.0762 64.4938 108.77 80.8147 105.521 86.4197C102.274 92.0347 79.3181 84.8102 54.2444 70.2816C29.1706 55.753 11.4792 39.4416 14.7259 33.827C17.9727 28.2125 40.9575 35.4365 66.0168 49.9651ZM17.4125 34.5806C17.4125 34.5806 16.3992 34.8547 16.8792 35.9928L16.8826 36.0053C16.8826 36.0053 17.7043 40.4966 28.6426 49.7064C28.6426 49.7064 43.0378 61.788 57.5957 69.6398C57.5957 69.6398 73.7981 79.5926 94.0575 85.0248C94.0575 85.0248 100.631 86.699 103.085 85.5754C103.495 85.3893 103.712 84.9348 103.598 84.4987C103.057 82.4395 99.4479 75.1853 75.912 58.716C75.912 58.716 45.3432 39.5678 28.2 35.664C28.2 35.664 21.8986 33.7334 17.4125 34.5806Z" fill="#6F7390"/>
<circle cx="59.9999" cy="60" r="6.1728" fill="#B7B9C8"/>
<ellipse cx="85.3083" cy="36.2962" rx="3.58032" ry="3.70368" fill="#B7B9C8"/>
<ellipse cx="26.5432" cy="48.889" rx="3.58032" ry="3.70368" fill="#B7B9C8"/>
<ellipse cx="52.7161" cy="94.321" rx="3.58032" ry="3.70368" fill="#B7B9C8"/>
</svg>
