<svg width="120" height="120" viewBox="0 0 120 120" fill="none" xmlns="http://www.w3.org/2000/svg">
<circle cx="60" cy="60" r="60" fill="#E41B23"/>
<path d="M43.9665 74.7065C46.9268 72.1847 49.5857 69.1694 51.2852 65.6334C52.3268 63.4131 53.1492 61.1106 53.5603 58.6984C54.136 55.2172 54.3553 51.6812 54.5471 48.1451C54.6568 45.7055 54.7116 43.266 54.7116 40.799V32H50.9563C50.9563 33.4528 50.9563 34.9056 50.9563 36.3584C50.8466 40.6619 50.5999 44.9654 49.9421 49.2142C49.4213 52.5583 48.6812 55.9025 47.2832 58.9725C46.0771 61.6588 44.5147 64.208 42.5411 66.3735C40.6223 68.5116 38.3472 70.2933 35.8254 71.6364C33.6873 72.7603 31.3848 73.61 29 73.9664V81.34C30.9736 81.0658 32.9198 80.5724 34.8112 79.9146C38.1005 78.7633 41.3076 77.0638 43.9665 74.7065Z" fill="white"/>
<path d="M56.1641 65.6334C56.1641 70.8689 56.1367 76.1318 56.1915 81.3674C58.4666 81.3399 60.7691 81.3674 63.0717 81.3674V32.0274C60.7691 32.0274 58.4666 32.0274 56.1641 32.0274C56.1641 43.2111 56.1641 54.4223 56.1641 65.6334Z" fill="white"/>
<path d="M87.3313 73.2811C83.8775 72.1572 80.6978 70.2659 78.0663 67.7441C75.3252 65.14 73.2146 61.8781 71.7618 58.3969C70.2267 54.7786 69.5415 50.8862 69.0481 47.0213C68.445 42.0325 68.2806 37.0162 68.308 32H64.5801V40.0863C64.5527 44.8558 64.7171 49.6253 65.1283 54.3674C65.3476 56.5603 65.5943 58.7806 66.1699 60.9187C66.7455 63.0568 67.5953 65.1126 68.6917 67.0588C70.0897 69.5258 71.9536 71.7187 74.0369 73.6648C75.2978 74.8161 76.6135 75.94 78.0663 76.8719C80.0399 78.1603 82.2054 79.1745 84.4531 79.942C86.3445 80.5724 88.2632 81.0933 90.2368 81.34C90.2368 78.873 90.2368 76.4334 90.2368 73.9664C89.2775 73.8293 88.2907 73.5826 87.3313 73.2811Z" fill="white"/>
</svg>
