<svg width="120" height="120" viewBox="0 0 120 120" fill="none" xmlns="http://www.w3.org/2000/svg">
<circle cx="60" cy="60" r="60" fill="black"/>
<path d="M73.6559 64.638C74.9227 64.1427 76.3511 64.7681 76.8464 66.0348C77.3307 67.2734 76.7436 68.6665 75.5332 69.1909L75.4497 69.2253L45.8969 80.7812C44.6301 81.2765 43.2017 80.6511 42.7064 79.3844C42.2221 78.1458 42.8092 76.7527 44.0197 76.2283L44.1032 76.1939L73.6559 64.638Z" fill="white"/>
<path d="M73.6559 51.5666C74.9227 51.0713 76.3511 51.6966 76.8464 52.9634C77.3307 54.202 76.7436 55.5951 75.5332 56.1195L75.4497 56.1539L45.8969 67.7098C44.6301 68.2051 43.2017 67.5797 42.7064 66.313C42.2221 65.0744 42.8092 63.6813 44.0197 63.1569L44.1032 63.1225L73.6559 51.5666Z" fill="white"/>
<path d="M73.6559 38.4952C74.9227 37.9998 76.3511 38.6252 76.8464 39.8919C77.3307 41.1305 76.7436 42.5237 75.5332 43.048L75.4497 43.0824L45.8969 54.6383C44.6301 55.1336 43.2017 54.5083 42.7064 53.2415C42.2221 52.003 42.8092 50.6098 44.0197 50.0854L44.1032 50.0511L73.6559 38.4952Z" fill="white"/>
<path d="M75.5 79.4348C76.8601 79.4348 77.9627 80.5374 77.9627 81.8975C77.9627 83.228 76.9075 84.3122 75.5883 84.3587L75.5 84.3602H62.0496C60.6895 84.3602 59.5869 83.2576 59.5869 81.8975C59.5869 80.5669 60.6421 79.4828 61.9613 79.4363L62.0496 79.4348H75.5Z" fill="white"/>
<path d="M58.4504 34.7267C59.8105 34.7267 60.9131 35.8293 60.9131 37.1894C60.9131 38.52 59.8579 39.6041 58.5387 39.6506L58.4504 39.6522H45.0001C43.64 39.6522 42.5374 38.5495 42.5374 37.1894C42.5374 35.8589 43.5925 34.7747 44.9118 34.7282L45.0001 34.7267H58.4504Z" fill="white"/>
</svg>
