<svg width="120" height="120" viewBox="0 0 120 120" fill="none" xmlns="http://www.w3.org/2000/svg">
<path d="M120 60C120 93.1371 93.137 120 59.9999 120C26.863 120 0 93.1371 0 60C0 26.8629 26.863 0 59.9999 0C93.137 0 120 26.8629 120 60Z" fill="#4958C5"/>
<path d="M84.7713 35.5667H68.4341V30.9501C68.4341 25.8844 73.6772 22.0994 77.1939 21.7805C80.2631 21.5023 81.9256 21.1176 88 23.1054V14.7912C83.8438 13.7617 78.8564 13.9068 74.7002 14.2783C70.1604 14.5347 59.8657 19.3439 59.8657 30.5011V35.5667H53.8554V43.1332H59.8657V71.6675C59.8657 71.6675 55.9655 67.9485 47.9727 67.9485C36.8468 67.9485 27 76.5409 27 88.8522C27 101.164 36.1436 110 48.2286 110C60.3134 110 68.7536 99.6249 69.0094 88.8522C69.2651 78.0798 69.0094 65.8324 69.0094 65.8324V43.1332H84.7713V35.5667Z" fill="white"/>
<circle cx="47.5" cy="88.5" r="12.5" fill="#4958C5"/>
</svg>
