<svg width="120" height="120" viewBox="0 0 120 120" fill="none" xmlns="http://www.w3.org/2000/svg">
<circle cx="60" cy="60" r="60" fill="#EDF0F4"/>
<path fill-rule="evenodd" clip-rule="evenodd" d="M49.7428 29.929C49.2517 30.1745 49.2517 30.9112 49.4972 31.4023C49.7428 31.8935 50.4795 31.8935 50.9706 31.8935L54.1629 29.6834C54.654 29.1923 54.654 28.7012 54.4085 27.9645C54.1629 27.4734 53.4262 27.4734 52.9351 27.7189L49.7428 29.929ZM78.9646 59.6419C78.9646 59.1508 78.2279 58.6596 77.7368 58.9052C77.0001 58.9052 76.7545 59.6419 77.0001 60.133L77.9823 63.8164C77.9823 64.3075 78.719 64.7987 79.2101 64.5531C79.7013 64.5531 80.1924 63.8164 79.9468 63.3253L78.9646 59.6419Z" fill="white"/>
<path fill-rule="evenodd" clip-rule="evenodd" d="M65.9506 44.4171C62.2672 43.6804 58.3382 44.1715 54.9004 46.3816C59.8116 44.6627 65.4595 45.8905 69.3885 49.8194C74.7908 55.4673 74.7908 64.5531 69.3885 69.9555C68.6518 70.6921 67.9151 71.1833 67.1784 71.6744C69.1429 70.9377 71.1074 69.9555 72.5808 68.2365C76.5098 64.3075 77.492 58.6596 76.0187 53.7484C71.8441 52.275 68.1607 48.8372 65.9506 44.4171Z" fill="#FFAE54"/>
<path d="M89.2789 76.34C80.4387 92.7926 59.8116 98.9317 43.6045 89.8459C27.1519 81.0057 21.2585 60.133 30.0987 43.6804C35.9921 32.8757 46.7968 26.4911 58.3382 26C59.8116 26 61.0394 26.7367 61.7761 28.2101C62.5127 29.6834 63.0039 31.6479 62.7583 33.6124C62.7583 34.3491 62.7583 35.0858 62.7583 35.8224C62.7583 39.2603 63.7406 42.6982 65.2139 45.6449C58.0926 42.9437 49.9891 45.8905 46.3057 52.7662C42.1312 60.3786 45.0779 69.7099 52.4447 73.8844C59.8116 78.059 69.3885 75.1122 73.3174 67.7454C75.5275 63.5709 75.773 58.6596 74.0541 54.4851C77.0009 55.9585 80.1932 56.6951 83.631 56.6951C85.5955 56.6951 87.3144 56.4496 89.2789 55.9585C90.2612 55.7129 91.489 55.7129 92.2256 56.204C92.9623 56.6951 93.4535 57.1863 93.4535 57.923C93.699 64.062 92.2256 70.4466 89.2789 76.34Z" fill="url(#paint0_radial)" stroke="#AC562A" stroke-width="1.0716"/>
<path fill-rule="evenodd" clip-rule="evenodd" d="M48.7617 44.1715C50.7262 45.1538 53.4274 45.6449 56.8652 44.6626C59.5664 44.1715 62.5131 44.4171 65.2143 45.6449C63.741 42.6982 62.7587 39.2603 62.7587 35.8224C62.7587 34.5946 62.7587 33.3668 63.0043 32.3846C63.2498 30.9112 63.0043 29.1923 62.2676 27.9645C61.5309 26.7367 60.5487 26 59.3209 26C55.1463 26 50.7262 26.9822 46.5517 28.7012C45.0783 29.4379 44.0961 30.9112 43.6049 32.8757C43.1138 34.8402 43.3594 37.0503 44.3416 39.2603C45.0783 41.2248 46.7972 42.9437 48.7617 44.1715ZM80.4391 69.7099L81.6669 69.2188C82.5459 71.4162 81.6551 73.4171 80.9301 75.0453C80.845 75.2365 80.7621 75.4227 80.6847 75.6034V75.8489C80.5822 76.0539 80.4797 76.2482 80.3816 76.4341C80.0099 77.1387 79.7024 77.7216 79.7024 78.3045C79.4569 79.5323 79.4569 80.7601 79.7024 81.4968C79.948 82.2335 80.6847 82.9702 81.6669 83.2158C82.4036 83.4613 83.6314 83.2158 85.1048 82.2335C90.9982 75.3578 93.6994 66.5176 93.2083 58.1685C93.2083 57.4318 92.7172 56.6951 91.9805 56.204C91.2438 55.7129 90.016 55.7129 89.0338 55.9585C87.3148 56.4496 85.3503 56.6951 83.6314 56.6951C80.1936 56.6951 77.0013 55.9585 74.0545 54.2395C75.7735 58.4141 75.5279 63.0797 73.5634 67.2543C73.3911 67.7711 73.098 68.1671 72.7688 68.6118C72.6287 68.8009 72.4822 68.9989 72.3356 69.2188C73.3178 68.9732 74.3001 68.4821 75.7735 67.4998C77.4924 66.272 79.7024 67.4998 80.4391 69.7099ZM78.2759 77.8821C78.5336 76.9588 78.9952 76.0355 79.4569 75.1122C79.5441 74.9087 79.6348 74.7052 79.7256 74.5012C80.4021 72.9828 81.0886 71.4418 80.4391 69.7099L78.2759 77.8821ZM78.2759 77.8821C78.2594 77.941 78.2438 78 78.2291 78.059L78.2759 77.8821Z" fill="#AC562A"/>
<path d="M56.8652 44.6626L56.7694 44.1355L56.7434 44.1402L56.718 44.1475L56.8652 44.6626ZM48.7617 44.1715L48.4777 44.6259L48.4993 44.6394L48.5221 44.6508L48.7617 44.1715ZM65.2143 45.6449L64.9926 46.1327L66.3704 46.7589L65.6936 45.4053L65.2143 45.6449ZM63.0043 32.3846L63.5241 32.5145L63.5293 32.4938L63.5328 32.4727L63.0043 32.3846ZM62.2676 27.9645L62.727 27.6888L62.2676 27.9645ZM46.5517 28.7012L46.3477 28.2057L46.3296 28.2132L46.3121 28.2219L46.5517 28.7012ZM43.6049 32.8757L44.1247 33.0057L43.6049 32.8757ZM44.3416 39.2603L44.8433 39.0722L44.8377 39.0573L44.8312 39.0427L44.3416 39.2603ZM81.6669 69.2188L82.1644 69.0198L81.9654 68.5223L81.4679 68.7213L81.6669 69.2188ZM80.9301 75.0453L81.4196 75.2632V75.2632L80.9301 75.0453ZM80.6847 75.6034L80.1922 75.3923L80.1489 75.4934V75.6034H80.6847ZM80.6847 75.8489L81.1639 76.0885L81.2205 75.9754V75.8489H80.6847ZM80.3816 76.4341L79.9077 76.1841L79.9077 76.1841L80.3816 76.4341ZM79.7024 78.3045L80.2278 78.4096L80.2382 78.3576V78.3045H79.7024ZM79.7024 81.4968L80.2107 81.3274V81.3274L79.7024 81.4968ZM81.6669 83.2158L81.8364 82.7075L81.8168 82.7009L81.7969 82.696L81.6669 83.2158ZM85.1048 82.2335L85.402 82.6793L85.4635 82.6383L85.5116 82.5822L85.1048 82.2335ZM93.2083 58.1685H92.6725V58.1843L92.6734 58.2L93.2083 58.1685ZM91.9805 56.204L92.2777 55.7582L92.2777 55.7582L91.9805 56.204ZM89.0338 55.9585L88.9038 55.4387L88.8951 55.4408L88.8866 55.4433L89.0338 55.9585ZM74.0545 54.2395L74.3245 53.7767L72.9557 52.9783L73.5591 54.4435L74.0545 54.2395ZM73.5634 67.2543L73.0786 67.0261L73.0651 67.0548L73.0551 67.0848L73.5634 67.2543ZM72.7688 68.6118L73.1994 68.9306H73.1994L72.7688 68.6118ZM72.3356 69.2188L71.8898 68.9216L71.121 70.0747L72.4655 69.7386L72.3356 69.2188ZM75.7735 67.4998L76.0707 67.9457L76.0779 67.9409L76.0849 67.9358L75.7735 67.4998ZM79.4569 75.1122L79.9361 75.3519L79.9431 75.3378L79.9493 75.3233L79.4569 75.1122ZM79.7256 74.5012L80.2151 74.7193L79.7256 74.5012ZM78.2291 78.059L77.7093 77.929L78.747 78.1961L78.2291 78.059ZM56.718 44.1475C53.4076 45.0933 50.8445 44.6139 49.0013 43.6923L48.5221 44.6508C50.6079 45.6936 53.4472 46.1965 57.0124 45.1778L56.718 44.1475ZM65.436 45.1571C62.6254 43.8796 59.5666 43.6269 56.7694 44.1355L56.9611 45.1898C59.5663 44.7161 62.4009 44.9546 64.9926 46.1327L65.436 45.1571ZM62.2229 35.8224C62.2229 39.3588 63.232 42.8784 64.7351 45.8845L65.6936 45.4053C64.2499 42.5179 63.2945 39.1618 63.2945 35.8224H62.2229ZM62.4845 32.2546C62.2196 33.3143 62.2229 34.6154 62.2229 35.8224H63.2945C63.2945 34.5739 63.2979 33.4194 63.5241 32.5145L62.4845 32.2546ZM61.8081 28.2402C62.4684 29.3406 62.7042 30.9261 62.4758 32.2965L63.5328 32.4727C63.7955 30.8963 63.5401 29.044 62.727 27.6888L61.8081 28.2402ZM59.3209 26.5358C60.2945 26.5358 61.1287 27.1078 61.8081 28.2402L62.727 27.6888C61.9331 26.3656 60.8028 25.4642 59.3209 25.4642V26.5358ZM46.7557 29.1966C50.8766 27.4998 55.2273 26.5358 59.3209 26.5358V25.4642C55.0653 25.4642 50.5759 26.4647 46.3477 28.2057L46.7557 29.1966ZM44.1247 33.0057C44.5919 31.137 45.5022 29.8249 46.7913 29.1804L46.3121 28.2219C44.6544 29.0508 43.6002 30.6854 43.0851 32.7458L44.1247 33.0057ZM44.8312 39.0427C43.8889 36.9224 43.6674 34.835 44.1247 33.0057L43.0851 32.7458C42.5602 34.8454 42.8299 37.1781 43.852 39.4779L44.8312 39.0427ZM49.0457 43.7172C47.1382 42.525 45.5238 40.887 44.8433 39.0722L43.8399 39.4484C44.6328 41.5626 46.4563 43.3625 48.4777 44.6259L49.0457 43.7172ZM81.4679 68.7213L80.2401 69.2124L80.6381 70.2074L81.8659 69.7162L81.4679 68.7213ZM81.4196 75.2632C82.1323 73.6626 83.1386 71.4553 82.1644 69.0198L81.1694 69.4178C81.9532 71.3772 81.1779 73.1716 80.4407 74.8273L81.4196 75.2632ZM81.1772 75.8144C81.2529 75.6378 81.3342 75.4552 81.4196 75.2632L80.4407 74.8273C80.3558 75.0179 80.2714 75.2075 80.1922 75.3923L81.1772 75.8144ZM81.2205 75.8489V75.6034H80.1489V75.8489H81.2205ZM80.8555 76.6841C80.9532 76.4989 81.0584 76.2996 81.1639 76.0885L80.2054 75.6093C80.1059 75.8083 80.0061 75.9976 79.9077 76.1841L80.8555 76.6841ZM80.2382 78.3045C80.2382 77.8822 80.4632 77.4278 80.8555 76.6841L79.9077 76.1841C79.5567 76.8495 79.1666 77.561 79.1666 78.3045H80.2382ZM80.2107 81.3274C80.0075 80.7176 79.9905 79.5963 80.2278 78.4096L79.177 78.1995C78.9232 79.4684 78.9063 80.8027 79.1941 81.6663L80.2107 81.3274ZM81.7969 82.696C80.985 82.493 80.396 81.8832 80.2107 81.3274L79.1941 81.6663C79.5 82.5838 80.3843 83.4474 81.537 83.7356L81.7969 82.696ZM84.8076 81.7877C83.3794 82.7398 82.3346 82.8735 81.8364 82.7075L81.4975 83.7241C82.4726 84.0491 83.8834 83.6917 85.402 82.6793L84.8076 81.7877ZM92.6734 58.2C93.1567 66.4165 90.4973 75.1189 84.698 81.8848L85.5116 82.5822C91.4992 75.5967 94.2421 66.6187 93.7432 58.1371L92.6734 58.2ZM91.6833 56.6498C92.3252 57.0778 92.6725 57.6677 92.6725 58.1685H93.7441C93.7441 57.196 93.1091 56.3125 92.2777 55.7582L91.6833 56.6498ZM89.1637 56.4783C89.6078 56.3672 90.1058 56.3127 90.5677 56.3399C91.0364 56.3674 91.4228 56.4762 91.6833 56.6498L92.2777 55.7582C91.8015 55.4408 91.2057 55.3039 90.6307 55.2701C90.049 55.2359 89.4419 55.3041 88.9038 55.4387L89.1637 56.4783ZM83.6314 57.2309C85.3953 57.2309 87.4097 56.9797 89.1809 56.4736L88.8866 55.4433C87.22 55.9194 85.3054 56.1593 83.6314 56.1593V57.2309ZM73.7845 54.7023C76.825 56.4759 80.1133 57.2309 83.6314 57.2309V56.1593C80.2738 56.1593 77.1775 55.441 74.3245 53.7767L73.7845 54.7023ZM74.0482 67.4824C76.071 63.184 76.3312 58.3613 74.55 54.0355L73.5591 54.4435C75.2157 58.4669 74.9848 62.9755 73.0786 67.0261L74.0482 67.4824ZM73.1994 68.9306C73.5219 68.495 73.8684 68.0337 74.0717 67.4237L73.0551 67.0848C72.9139 67.5085 72.6741 67.8392 72.3381 68.293L73.1994 68.9306ZM72.7814 69.516C72.9196 69.3087 73.0586 69.1208 73.1994 68.9306L72.3381 68.293C72.1989 68.481 72.0447 68.6891 71.8898 68.9216L72.7814 69.516ZM75.4762 67.054C74.0217 68.0237 73.0997 68.4755 72.2056 68.699L72.4655 69.7386C73.536 69.471 74.5785 68.9404 76.0707 67.9457L75.4762 67.054ZM80.9474 69.5405C80.5396 68.3169 79.7153 67.337 78.7142 66.8364C77.6989 66.3288 76.5018 66.3212 75.462 67.0638L76.0849 67.9358C76.7641 67.4507 77.5314 67.4431 78.235 67.7949C78.9528 68.1538 79.602 68.8929 79.9308 69.8793L80.9474 69.5405ZM78.9776 74.8726C78.5212 75.7855 78.0339 76.7561 77.7598 77.738L78.792 78.0261C79.0333 77.1616 79.4693 76.2855 79.9361 75.3519L78.9776 74.8726ZM79.2362 74.2832C79.1456 74.4865 79.0534 74.6936 78.9644 74.9012L79.9493 75.3233C80.0348 75.1239 80.1239 74.9238 80.2151 74.7193L79.2362 74.2832ZM79.9374 69.898C80.4986 71.3944 79.9273 72.7317 79.2362 74.2832L80.2151 74.7193C80.8768 73.2339 81.6786 71.4892 80.9408 69.5218L79.9374 69.898ZM78.7938 78.0192L80.9571 69.847L79.9212 69.5728L77.7579 77.745L78.7938 78.0192ZM77.7598 77.738C77.7421 77.8015 77.7252 77.8652 77.7093 77.929L78.7489 78.1889C78.7624 78.1349 78.7768 78.0806 78.792 78.0261L77.7598 77.738ZM78.747 78.1961L78.7938 78.0192L77.7579 77.745L77.7111 77.9219L78.747 78.1961Z" fill="#AC562A"/>
<circle cx="34.0275" cy="52.275" r="1.71893" fill="#AC562A"/>
<circle cx="59.5666" cy="82.9702" r="1.71893" fill="#AC562A"/>
<circle cx="48.7612" cy="84.4436" r="2.94673" fill="#AC562A"/>
<defs>
<radialGradient id="paint0_radial" cx="0" cy="0" r="1" gradientUnits="userSpaceOnUse" gradientTransform="translate(59.6549 60.0835) rotate(90) scale(35.3066 35.009)">
<stop offset="0.3335" stop-color="#F7B450"/>
<stop offset="0.6477" stop-color="#FFC977"/>
<stop offset="1" stop-color="#FF9900"/>
</radialGradient>
</defs>
</svg>
