<svg width="120" height="120" viewBox="0 0 120 120" fill="none" xmlns="http://www.w3.org/2000/svg">
<path fill-rule="evenodd" clip-rule="evenodd" d="M60 0C93.132 0 120 26.868 120 60C120 93.132 93.132 120 60 120C26.868 120 0 93.132 0 60C0 26.868 26.868 0 60 0Z" fill="#1E1E1E"/>
<path d="M60.9002 85.08C41.7122 85.08 26.1602 79.536 26.1602 72.108C26.1602 68.232 30.3962 64.74 37.1762 62.28C42.4682 65.676 51.3482 67.416 61.4162 67.416C71.2442 67.416 79.9322 65.292 85.2722 62.04C91.6682 64.476 95.6402 67.872 95.6402 71.616C95.6402 79.056 80.0882 85.08 60.9002 85.08Z" fill="white"/>
<path d="M61.1037 65.748C46.5597 65.748 34.7637 61.188 34.7637 55.56C34.7637 52.44 38.3997 49.644 44.0997 47.784C48.1677 49.908 54.2637 51.264 61.1037 51.264C67.9437 51.264 74.0397 49.908 78.1077 47.784C83.8197 49.656 87.4437 52.44 87.4437 55.56C87.4557 61.188 75.6597 65.748 61.1037 65.748Z" fill="white"/>
<path d="M61.0085 49.572C49.7645 49.572 40.6445 45.804 40.6445 41.172C40.6445 36.54 49.7645 32.772 61.0085 32.772C72.2525 32.772 81.3725 36.54 81.3725 41.172C81.3725 45.804 72.2525 49.572 61.0085 49.572Z" fill="white"/>
</svg>
