<svg width="120" height="120" viewBox="0 0 120 120" fill="none" xmlns="http://www.w3.org/2000/svg">
<circle cx="60" cy="60" r="60" fill="#154284"/>
<path fill-rule="evenodd" clip-rule="evenodd" d="M36.648 115.288C44.04 118.416 51.904 120 60 120C68.096 120 75.96 118.416 83.352 115.272C90.496 112.248 96.912 107.928 102.424 102.416C107.928 96.904 112.256 90.488 115.28 83.344C118.408 75.952 119.992 68.088 119.992 59.992C119.992 51.896 118.408 44.04 115.28 36.64C112.256 29.496 107.936 23.08 102.424 17.568C96.912 12.064 90.496 7.736 83.352 4.712C75.96 1.584 68.096 0 60 0C51.904 0 44.04 1.584 36.64 4.72C29.496 7.744 23.08 12.064 17.568 17.576C12.064 23.088 7.736 29.504 4.712 36.648C1.584 44.04 0 51.904 0 60C0 68.096 1.584 75.96 4.72 83.36C7.744 90.504 12.064 96.92 17.576 102.432C23.088 107.936 29.504 112.264 36.648 115.288ZM19.56 19.568C30.368 8.768 44.728 2.816 60 2.816C75.272 2.816 89.648 8.752 100.448 19.56C111.248 30.368 117.2 44.728 117.2 60C117.2 75.28 111.248 89.64 100.448 100.44C89.64 111.24 75.28 117.192 60.008 117.192C44.728 117.192 30.368 111.24 19.568 100.44C8.768 89.632 2.816 75.272 2.816 60C2.816 44.728 8.76 30.368 19.56 19.568Z" fill="#FAC32C"/>
<path d="M73.2562 22.784L73.6882 23.072C78.4642 26.232 82.3122 26.816 88.1602 26.816C90.2242 26.816 92.4402 26.424 94.5602 25.696L95.1122 25.504L97.8882 29.392L97.6002 29.776C87.2882 43.472 95.3282 58.264 101.016 64.168L101.544 64.712L101.008 65.248C100.264 65.992 98.9682 67.336 98.0082 68.344L97.6802 68.688L97.7042 69.16L97.7122 69.32C97.7202 69.44 97.7202 69.56 97.7442 69.776L97.7522 69.864C98.2322 79 95.8642 86.504 90.7122 92.168C85.2402 98.184 76.6082 101.808 66.4002 102.368L66.0082 102.392L65.7202 102.656C63.1202 105.024 60.4882 106.984 60.4562 107.008L60.0002 107.352L59.5442 107.008C59.4322 106.928 56.8322 104.992 54.2642 102.656L53.9762 102.392L53.5842 102.368C43.3842 101.808 34.7442 98.184 29.2722 92.168C24.1202 86.504 21.7522 79 22.2402 69.864L22.2482 69.776C22.2722 69.576 22.2802 69.464 22.2802 69.336V69.304L22.2882 69.16L22.3122 68.688L21.9842 68.344C21.0802 67.392 19.7522 66.008 18.9842 65.248L18.4482 64.712L18.9762 64.168C24.6642 58.264 32.7042 43.472 22.4002 29.776L22.1122 29.392L24.8882 25.504L25.4402 25.696C27.5602 26.432 29.7762 26.816 31.8402 26.816C37.6962 26.816 41.5362 26.24 46.3122 23.072L46.7522 22.784L47.1842 23.08C51.4002 26.008 55.4722 27.368 60.0082 27.368C64.5442 27.368 68.6162 26.008 72.8322 23.08L73.2562 22.784Z" fill="#E8B909"/>
<path d="M28.6084 56.608C31.8404 49.2 33.0404 39.688 27.6084 30.392C28.9684 30.632 30.3924 30.784 31.8324 30.784C37.3924 30.784 41.7684 30.28 46.6884 27.504C50.5604 29.848 54.9044 31.336 59.9924 31.344C65.0964 31.336 69.4404 29.848 73.3124 27.504C78.2324 30.28 82.6084 30.784 88.1684 30.784C89.6084 30.784 91.0404 30.632 92.4084 30.368C86.9604 39.688 88.1684 49.2 91.3924 56.608H28.6084Z" fill="white"/>
<path d="M91.3926 56.608C88.1606 49.2 86.9606 39.688 92.4086 30.368C91.0406 30.632 89.6166 30.784 88.1686 30.784C82.6086 30.784 78.2326 30.28 73.3126 27.504C69.4326 29.848 65.0966 31.336 59.9926 31.344C59.9446 31.344 59.8966 31.344 59.8486 31.344V56.616L91.3926 56.608Z" fill="#FFDD00"/>
<path d="M84.4805 92.4C90.6645 87.88 94.3205 80.656 93.7845 70.12C93.7205 69.52 93.6805 69.488 93.6325 68.88H84.4805L84.4805 92.4Z" fill="#0054A4"/>
<path d="M74.6885 96.928C78.3685 95.936 81.6885 94.44 84.4805 92.392V68.88H74.6885V96.928Z" fill="#A30046"/>
<path d="M35.5205 92.392C38.3205 94.44 41.6325 95.928 45.3125 96.928V68.88L35.5205 68.88V92.392Z" fill="#A30046"/>
<path d="M26.2169 70.12C25.6809 80.656 29.3369 87.872 35.5209 92.4V68.888H26.3689C26.3289 69.488 26.2809 69.52 26.2169 70.12Z" fill="#0054A4"/>
<path d="M60.0245 74.08C61.8165 74.08 63.4805 74.6 64.8965 75.48V68.88H55.1045V75.512C56.5285 74.616 58.2165 74.08 60.0245 74.08Z" fill="#A30046"/>
<path d="M60.0245 92.536C58.2165 92.536 56.5285 92.008 55.1045 91.104V98.408C55.2805 98.416 55.4485 98.432 55.6245 98.44C58.8805 98.456 61.8245 98.472 64.3845 98.44C64.5605 98.432 64.7285 98.416 64.9045 98.408V91.136C63.4805 92.016 61.8165 92.536 60.0245 92.536Z" fill="#A30046"/>
<path d="M64.8965 68.88V75.48C67.5045 77.112 69.2485 80 69.2485 83.304C69.2485 86.608 67.5045 89.496 64.8965 91.128V98.4C68.3525 98.224 71.6485 97.744 74.6885 96.92V68.872L64.8965 68.88Z" fill="#0054A4"/>
<path d="M50.8005 83.312C50.8005 80.024 52.5205 77.152 55.1045 75.512V68.88H45.3125V96.928C48.3525 97.744 51.6485 98.232 55.1045 98.408V91.104C52.5205 89.472 50.8005 86.592 50.8005 83.312Z" fill="#0054A4"/>
<path d="M30.8164 38.696C31.4724 41.904 31.4964 45.048 31.0724 48.04H40.5844V56.608H49.9284V48.04H59.8804V38.696H49.9284V29.192C48.8084 28.696 47.7284 28.128 46.6884 27.496C44.6004 28.672 42.6084 29.44 40.5844 29.936V38.688L30.8164 38.696Z" fill="#E31837"/>
<path d="M79.9918 56.608V30.072C78.8638 29.824 77.7518 29.496 76.6318 29.072V56.608H79.9918Z" fill="#E31837"/>
<path d="M66.5602 56.608V30.456C65.4802 30.752 64.3602 30.984 63.2002 31.136V56.616L66.5602 56.608Z" fill="#E31837"/>
<path d="M86.7037 56.608V30.768C85.5437 30.744 84.4318 30.696 83.3438 30.592V56.608H86.7037Z" fill="#E31837"/>
<path d="M73.2721 56.608V27.52C72.1921 28.176 71.0721 28.752 69.9121 29.256V56.6L73.2721 56.608Z" fill="#E31837"/>
<path fill-rule="evenodd" clip-rule="evenodd" d="M101.824 63.368L103.104 64.696L101.792 66.008C101.096 66.712 99.8485 68.008 98.8165 69.088C98.8165 69.1223 98.8188 69.1543 98.8209 69.184C98.8228 69.2097 98.8245 69.2337 98.8245 69.256C98.8245 69.368 98.8245 69.464 98.8485 69.648L98.8565 69.768C99.3605 79.224 96.8965 87 91.5365 92.896C85.8485 99.144 76.9685 102.88 66.4645 103.456C63.8645 105.832 61.2405 107.792 61.1205 107.88L60.0005 108.712L58.8805 107.88C58.8712 107.873 58.8447 107.853 58.8024 107.821C58.3319 107.465 55.906 105.629 53.5205 103.456C43.0165 102.88 34.1285 99.144 28.4485 92.896C23.0885 87 20.6245 79.216 21.1285 69.768L21.1365 69.648C21.154 69.5138 21.1587 69.4264 21.1631 69.3455C21.1647 69.3155 21.1663 69.2863 21.1685 69.256C21.1685 69.229 21.1704 69.2038 21.1723 69.1777C21.1743 69.1499 21.1765 69.1211 21.1765 69.088C20.1525 68 18.9045 66.712 18.2005 66.008L16.8965 64.704L18.1765 63.376C23.6325 57.704 31.3605 43.52 21.5045 30.416L20.7285 29.384L24.4565 24.16L25.7925 24.624C27.8005 25.312 29.8885 25.68 31.8325 25.68C37.4645 25.68 41.1605 25.136 45.6965 22.128L46.7605 21.424L47.8085 22.152C51.8245 24.944 55.7045 26.24 60.0005 26.24C64.2965 26.24 68.1685 24.936 72.1845 22.136L73.2325 21.408L74.2965 22.112C78.8405 25.12 82.5285 25.672 88.1605 25.672C90.1045 25.672 92.1925 25.312 94.2005 24.616L95.5365 24.152L99.2645 29.376L98.4885 30.408C88.6325 43.512 96.3605 57.696 101.824 63.368ZM96.946 69.319C96.9399 69.1334 96.9326 68.909 96.8805 68.392L96.9887 68.2788C98.0194 67.1997 99.6148 65.5294 100.464 64.672C94.1045 58.072 86.6805 42.968 96.9845 29.28L94.8085 26.392C92.7525 27.104 90.4645 27.552 88.1605 27.552C82.2485 27.552 78.2165 26.968 73.2565 23.68C69.3365 26.4 65.0805 28.104 59.9925 28.104C54.8965 28.104 50.6485 26.4 46.7285 23.68C41.7685 26.968 37.7285 27.552 31.8245 27.552C29.5285 27.552 27.2325 27.104 25.1765 26.392L23.0005 29.28C33.3045 42.968 25.8805 58.072 19.5205 64.672C20.4085 65.56 22.0885 67.32 23.1045 68.392C23.0523 68.9052 23.045 69.1299 23.039 69.3169C23.0339 69.4738 23.0297 69.6041 23.0005 69.856C21.8805 90.92 36.5525 100.864 54.2885 101.6C57.0005 104.136 60.0005 106.36 60.0005 106.36C60.0005 106.36 62.9845 104.136 65.6965 101.6C83.4325 100.864 98.1045 90.92 96.9845 69.856C96.9552 69.6038 96.951 69.4752 96.946 69.319Z" fill="#231F20"/>
<path fill-rule="evenodd" clip-rule="evenodd" d="M26.016 69.512C26.048 69.336 26.072 69.184 26.096 68.864V68.6H93.872L93.896 68.864C93.9223 69.1271 93.9432 69.2766 93.9632 69.4192C93.9675 69.4501 93.9718 69.4807 93.976 69.512C94 69.664 94.024 69.824 94.056 70.096C94.472 78.208 92.448 84.76 88.048 89.592C83 95.136 74.816 98.288 64.392 98.72C63.312 98.736 62.16 98.744 60.952 98.744C59.4872 98.744 57.9288 98.7368 56.2905 98.7293L56.024 98.728H55.624C45.184 98.296 37 95.136 31.952 89.6C27.544 84.768 25.52 78.216 25.936 70.112C25.968 69.816 25.992 69.656 26.016 69.512ZM26.576 69.6C26.552 69.736 26.528 69.888 26.504 70.152C26.096 78.08 28.072 84.496 32.376 89.208C37.32 94.632 45.368 97.728 55.64 98.152H56.024L56.2992 98.1535C59.2795 98.1689 62.0009 98.1831 64.376 98.152C74.64 97.728 82.688 94.632 87.632 89.208C91.928 84.496 93.904 78.08 93.496 70.136C93.472 69.888 93.448 69.736 93.424 69.6C93.4185 69.5561 93.4121 69.513 93.4054 69.468C93.3925 69.382 93.3785 69.2888 93.368 69.168H26.632C26.616 69.352 26.6 69.472 26.576 69.6Z" fill="#231F20"/>
<path fill-rule="evenodd" clip-rule="evenodd" d="M28.3526 56.496L28.1766 56.888H91.8166L91.6486 56.496C88.8886 50.16 86.8086 40.504 92.6486 30.512L92.9606 29.976L92.3526 30.096C90.9446 30.368 89.5366 30.504 88.1686 30.504C82.4886 30.504 78.2646 29.976 73.4566 27.256L73.3126 27.176L73.1686 27.264C68.9526 29.816 64.6406 31.056 59.9926 31.064C55.3606 31.064 51.0566 29.816 46.8326 27.264L46.6886 27.176L46.5446 27.256C41.7366 29.968 37.5126 30.504 31.8326 30.504C30.5046 30.504 29.1046 30.376 27.6566 30.12L27.0566 30.016L27.3606 30.544C33.1926 40.504 31.1206 50.152 28.3526 56.496ZM60.1606 31.616C64.7926 31.584 69.1046 30.344 73.3126 27.824C78.1686 30.528 82.4406 31.064 88.1606 31.064C89.3686 31.064 90.6086 30.96 91.8566 30.752C86.3926 40.552 88.2726 49.976 90.9606 56.328H60.1606V31.616ZM31.8406 31.064C30.6646 31.064 29.4246 30.968 28.1526 30.768C33.6086 40.552 31.7206 49.976 29.0486 56.328H59.6086V31.616C55.0646 31.544 50.8326 30.304 46.6886 27.824C41.8326 30.528 37.5606 31.064 31.8406 31.064Z" fill="#231F20"/>
<path d="M51.9689 60.264V58.408H45.6729V67.136H47.5609V63.536H50.1369V61.688H47.5609V60.264H51.9689Z" fill="#231F20"/>
<path d="M59.3445 60.152C60.0325 60.152 60.5205 60.44 60.8245 61.032L60.8645 61.112L62.6165 60.304L62.5765 60.216C61.9605 58.944 60.8485 58.272 59.3685 58.272C57.0805 58.272 55.4805 60.12 55.4805 62.768C55.4805 65.504 56.9845 67.264 59.3045 67.264C60.8165 67.264 61.9125 66.6 62.5525 65.28L62.5925 65.2L61.0005 64.256L60.9525 64.336C60.4965 65.096 60.0645 65.376 59.3605 65.376C58.2005 65.376 57.4245 64.32 57.4245 62.76C57.4245 61.16 58.1605 60.152 59.3445 60.152Z" fill="#231F20"/>
<path fill-rule="evenodd" clip-rule="evenodd" d="M73.9769 60.76C73.9769 59.288 72.9289 58.408 71.1769 58.408H67.1689V67.136H71.1449C73.1049 67.136 74.2809 66.072 74.2809 64.288C74.2809 63.456 73.8809 62.784 73.1769 62.408C73.6809 62.032 73.9769 61.44 73.9769 60.76ZM69.0169 60.168H71.0969C71.9449 60.168 72.0569 60.56 72.0569 60.896C72.0569 61.376 71.7689 61.608 71.1849 61.608H69.0169V60.168ZM69.0169 65.328H71.1929C71.9369 65.328 72.3209 64.976 72.3209 64.312C72.3209 63.624 71.9609 63.304 71.1929 63.304H69.0169V65.328Z" fill="#231F20"/>
<path fill-rule="evenodd" clip-rule="evenodd" d="M59.9689 92.688C65.1689 92.688 69.3929 88.456 69.3929 83.264C69.3929 78.064 65.1609 73.84 59.9689 73.84C54.7689 73.84 50.5449 78.072 50.5449 83.264C50.5369 88.456 54.7689 92.688 59.9689 92.688ZM59.9689 92.12C58.1369 92.12 56.4409 91.56 55.0249 90.608C56.8969 90.52 59.3849 90.048 60.9289 89.128C62.4249 88.24 64.0089 87.128 64.3049 85.64C65.3929 85.096 67.4729 85.352 67.7369 87.544C66.2169 90.272 63.3049 92.12 59.9689 92.12ZM57.1689 85.848C56.5449 85.768 56.0249 85.576 55.5929 85.288C54.9049 86.472 53.6649 87.136 52.2089 87.152C52.1729 87.152 52.1369 87.15 52.1009 87.148L52.1009 87.148C52.0649 87.146 52.0289 87.144 51.9929 87.144C52.5529 88.296 53.3529 89.304 54.3289 90.112C56.1769 90.12 59.0169 89.656 60.6489 88.688C62.7529 87.432 64.3849 86.088 63.6089 84.232C63.2169 83.288 61.9129 82.2 60.2169 83.4C60.1129 84.784 58.4009 86.008 57.1689 85.848ZM54.1849 80.816C54.1655 79.4084 54.4826 78.1429 54.8123 76.8274L54.8123 76.8273L54.8123 76.8273L54.8123 76.8272C54.8892 76.5203 54.9668 76.2107 55.0409 75.896C56.2489 75.088 57.6649 74.568 59.1929 74.432C58.1689 75.544 58.3849 77.184 59.4329 78.024C59.1849 78.208 58.9609 78.448 58.7689 78.752C57.9849 79.992 57.8809 82.072 59.6889 83.392C59.5769 84.432 58.1929 85.448 57.2329 85.328C55.1849 85.064 54.2169 83.16 54.1849 80.816ZM64.0969 84.016C64.2489 84.376 64.3209 84.72 64.3369 85.048C65.5449 84.624 67.4969 84.904 68.0969 86.776C68.4569 85.936 68.6969 85.024 68.7849 84.072C68.2809 82.24 66.4649 80.208 64.7289 79.24C62.5849 78.04 60.2489 77.392 59.2169 79.024C58.5529 80.072 58.4649 81.8 59.9609 82.928C62.0009 81.52 63.6249 82.888 64.0969 84.016ZM64.9849 78.784C63.4409 77.92 61.4089 77.128 59.9449 77.736C58.8409 77.048 58.6489 75.312 60.0409 74.4C64.7209 74.44 68.5369 78.104 68.8089 82.72C67.9769 81.128 66.4489 79.6 64.9849 78.784ZM54.2702 76.7919C54.3052 76.6588 54.3409 76.5231 54.3769 76.384C52.3849 78.008 51.1049 80.488 51.1049 83.256C51.1049 84.432 51.3289 85.552 51.7449 86.576C51.8969 86.6 52.0489 86.608 52.2089 86.608C53.5209 86.608 54.5929 86 55.1769 84.96C53.4809 83.416 53.4729 80.272 53.9289 78.184C54.0232 77.7316 54.1421 77.2792 54.2702 76.7919Z" fill="#231F20"/>
</svg>
