<svg width="120" height="120" viewBox="0 0 120 120" fill="none" xmlns="http://www.w3.org/2000/svg">
<circle cx="60" cy="60" r="60" fill="#EDF0F4"/>
<path fill-rule="evenodd" clip-rule="evenodd" d="M72.6 32L82.7 37.3L92.6 50.7L60.3 87.4L28 50.7L38.1 37.4L47.7 32H72.6ZM76.7 56.5L89.3 50.1L81.9 39.5L72.6 44L76.7 56.5ZM48.5 34H71.8L79.7 38.1L71.7 41.9H48.4L41.4 38.2L48.5 34ZM47 44L38.8 39.5L30.8 49.8L44.1 56.5L47 44ZM33.4 53.6L43.7 58.9L56.3 80.6L33.4 53.6ZM45.9 58.5L51 67.3448V67.6H51.1472L60.2 83.3L74.5 58.1L70.7 44H49.4L45.9 58.5ZM51.1472 67.6H55.5V71H58.2V68H60.1L60.2 71H62.7V67.7H65.1C66.0144 67.7088 66.9136 67.4667 67.7 67C69.6 65.7 70.2 62.9 69.4 60.8C68.8559 59.4154 67.8245 58.2773 66.5 57.6C67.3168 57.3189 67.9727 56.6994 68.3 55.9C68.5 55.3 68.5 54.8 68.4 54.2C68.4 54.2 68.3 53.3 68 52.5C67.4 51.2 65.4 50 62.6 49.7V46.5H60.1V49.7H58.2V46.5H55.6V49.7H51.5V51.8C52.4084 51.9069 53.2184 52.4224 53.7 53.2C53.9915 53.6373 54.0706 54.0215 54.1307 54.3138L54.1308 54.3139C54.1531 54.4226 54.1729 54.5187 54.2 54.6L54.4 62.6C54.4 63.6 54 64.5 53.2 65C52.3667 65.5 51.5333 65.375 51.163 65.3194L51.1629 65.3194C51.0889 65.3083 51.0333 65.3 51 65.3V67.3448L51.1472 67.6ZM63.8 80.5L76.6 59L87.3 53.6L63.8 80.5ZM61.6 52.9H58.4V57.2H61.7C62.9 57.2 63.8 56.2 63.8 55C63.8 53.8 62.8 52.9 61.6 52.9ZM58.6 64.7H62.4C63.8 64.6 64.8 63.5 64.7 62.2C64.6 61.1 63.6 60.1 62.4 60H58.6V64.7Z" fill="#FCC339"/>
</svg>
