<svg width="120" height="120" viewBox="0 0 120 120" fill="none" xmlns="http://www.w3.org/2000/svg">
<path d="M118.191 74.5143C110.178 106.657 77.6222 126.219 45.4752 118.204C13.3417 110.19 -6.22004 77.6324 1.79691 45.4918C9.80683 13.3451 42.3626 -6.21803 74.4997 1.79541C106.644 9.80884 126.205 42.3702 118.191 74.5149L118.191 74.5143H118.191Z" fill="#F7931A"/>
<path fill-rule="evenodd" clip-rule="evenodd" d="M77.9023 38.1726C74.9442 30.6605 67.5336 29.983 58.903 31.6596L55.8304 20.9444L49.3082 22.8156L52.3004 33.2484C50.5856 33.74 48.8428 34.2765 47.1112 34.8106L44.1007 24.3081L37.5821 26.1773L40.6516 36.8902C39.2481 37.3239 37.8686 37.7482 36.5168 38.1365L36.5064 38.1033L27.5096 40.6795L29.5089 47.6452C29.5089 47.6452 34.2991 46.1725 34.2444 46.2837C36.8861 45.5269 38.1861 46.8143 38.8163 48.0658L42.317 60.2728C42.4993 60.2214 42.7393 60.1607 43.0196 60.1208L42.8304 60.175L42.8302 60.175C42.6692 60.2211 42.5018 60.2689 42.3309 60.3197L47.2328 77.4211C47.3556 78.2855 47.2472 79.7518 45.402 80.2841C45.507 80.3339 40.6607 81.6425 40.6607 81.6425L41.5981 89.8038L50.0862 87.3696C51.0163 87.1042 51.9401 86.85 52.8545 86.5983L52.8563 86.5978C53.4948 86.422 54.1287 86.2476 54.757 86.0714L57.8675 96.908L64.3831 95.0406L61.3078 84.3178C63.1076 83.8419 64.8425 83.3597 66.5327 82.8736L69.5903 93.5476L76.1128 91.6763L73.0123 80.8576C83.7977 77.0841 90.6803 72.1213 88.6801 61.5502C87.0718 53.0381 82.1108 50.4569 75.4579 50.7469C78.6875 47.7367 80.079 43.666 77.9048 38.1722L77.9022 38.1719L77.9023 38.1726ZM75.4218 63.962C77.5556 71.3916 65.8367 74.5766 60.475 76.0338C59.9926 76.1649 59.5618 76.282 59.197 76.387L55.0813 62.0274C55.5261 61.9 56.0627 61.7324 56.6706 61.5424L56.6707 61.5424C62.1065 59.844 73.2437 56.3642 75.422 63.9619L75.4218 63.962ZM54.2726 55.1595C58.749 53.9553 68.5141 51.3283 66.5789 44.5733L66.5794 44.573C64.5978 37.6657 55.3236 40.5927 50.7942 42.0223C50.2846 42.1831 49.8351 42.325 49.4628 42.4318L53.1964 55.4545C53.503 55.3666 53.866 55.2689 54.2726 55.1595Z" fill="white"/>
</svg>
