<svg width="120" height="120" viewBox="0 0 120 120" fill="none" xmlns="http://www.w3.org/2000/svg">
<circle cx="60" cy="60" r="60" fill="#F04086"/>
<path fill-rule="evenodd" clip-rule="evenodd" d="M78.0993 57.795C82.5567 58.4227 85.9676 60.0369 88.3394 62.6375C90.7412 65.2982 92.0474 68.7579 91.9987 72.33C91.9987 77.7293 90.1577 82.1272 86.2386 85.1052C82.3158 88.0832 76.6611 90 69.2634 90H40.1733V72.2852H52.9998V80.0347H68.1491C71.6126 80.0347 74.2254 79.1043 75.9571 77.6957C77.6927 76.2833 78.5623 74.0339 78.5623 71.3996C78.5623 68.7654 77.6814 66.9831 75.9571 65.6043C74.2329 64.2255 71.6239 63.9826 68.1491 63.9826H24V54.0174H40.1733V28H68.3373C75.7953 28 81.2993 28.9603 84.9662 31.8748C88.633 34.793 90.4024 38.5033 90.4024 43.9624C90.4236 47.243 89.2739 50.4252 87.1572 52.945C85.0716 55.4858 82.0033 57.0738 78.0993 57.7016V57.795ZM52.9998 53.9912H66.5302C73.4875 53.9912 76.9586 51.2972 76.9586 45.9652C76.9586 40.6332 73.4875 37.9391 66.5302 37.9391H52.9998V53.9912Z" fill="white"/>
</svg>
