<svg width="120" height="120" viewBox="0 0 120 120" fill="none" xmlns="http://www.w3.org/2000/svg">
<circle cx="60" cy="60" r="60" fill="#00A8D6"/>
<path fill-rule="evenodd" clip-rule="evenodd" d="M53.7052 63.9024V71.1444V71.1482H63.7238C78.5746 71.1482 86 67.0607 86 58.8856V38.2627C86 30.0876 78.5746 26 63.7238 26H37V44.9493H47.0262V33.2458H64.8395C72.2649 33.2458 75.9776 35.1044 75.9776 38.818V58.3264C75.9776 62.0438 72.2649 63.9024 64.8395 63.9024H53.7052ZM75.9814 75.606H75.9776L75.9814 75.6022V75.606ZM86 75.606H75.9814V81.182C75.9814 84.8956 72.2687 86.7542 64.8433 86.7542H47.0262V57.7673H64.8395C65.9558 57.7636 67.0715 57.8141 68.1828 57.9184V50.6613C66.7769 50.5707 65.2956 50.5253 63.7238 50.5253H37V94H63.7238C78.5746 94 86 89.9124 86 81.7373V75.606Z" fill="white"/>
</svg>
