<svg width="120" height="120" viewBox="0 0 120 120" fill="none" xmlns="http://www.w3.org/2000/svg">
<circle cx="60" cy="60" r="60" fill="#1B2B57"/>
<path d="M69.4417 65.7949L60.3839 71.0648L69.4417 54.1021V65.7949Z" fill="#DF3121"/>
<path d="M59.5605 74.688V53.7727L83.6048 37.7981L70.5945 21L96.121 39.939L70.5945 63.8186V55.749L59.5605 74.688Z" fill="#EFBF43"/>
<path d="M59.5605 98.5676V79.1345L95.1329 44.3856L59.5605 98.5676Z" fill="#EFBF43"/>
<path d="M49.6793 65.7949L58.7371 71.0648L49.6793 54.1021V65.7949Z" fill="#DF3121"/>
<path d="M59.5605 74.688V53.7727L35.5162 37.7981L48.5265 21L23 39.939L48.5265 63.8186V55.749L59.5605 74.688Z" fill="#F8D749"/>
<path d="M59.5605 98.5676V79.1345L23.9881 44.3856L59.5605 98.5676Z" fill="#F8D749"/>
<path fill-rule="evenodd" clip-rule="evenodd" d="M63.3872 47.4761C65.483 46.4035 65.6605 46.0389 64.8473 44.474C64.0281 42.8979 61.3955 39.8639 60.3714 39.3158C59.6326 38.9206 59.5523 38.9573 58.1472 40.3335C56.4815 41.9655 54.4125 44.9138 54.4125 45.6557C54.4125 45.9312 54.6518 46.3731 54.9441 46.6378C56.9677 48.4689 60.7196 48.8416 63.3872 47.4761ZM53.5507 44.1485C53.56 43.1939 54.5236 41.2247 56.1475 38.8419L57.5787 36.7423L56.5932 35.8774C54.6356 34.1585 53.8187 34.4083 52.6568 37.0797C51.8289 38.9828 51.7598 41.5404 52.4846 43.4251C53.0475 44.8878 53.5403 45.2223 53.5507 44.1485ZM67.1529 43.5697C68.0235 41.6521 67.9246 38.7041 66.9233 36.7266C65.6826 34.2757 65.0986 34.1687 62.9893 36.0044L62.1613 36.7252L63.3506 38.4203C64.6803 40.3162 66.2765 43.5194 66.2768 44.2932C66.2771 45.1129 66.5574 44.8817 67.1529 43.5697ZM61.1089 34.0995C61.8026 33.7847 62.6962 33.5191 63.094 33.5092C63.8114 33.4913 63.8104 33.4872 62.9491 33.0098C62.3556 32.6805 61.3945 32.528 59.9106 32.528C58.4271 32.528 57.4657 32.6805 56.8722 33.0098C56.0076 33.4893 56.0069 33.4913 56.7276 33.5243C57.2816 33.5497 58.7055 34.0703 59.8069 34.6505C59.829 34.6623 60.4152 34.4143 61.1089 34.0995Z" fill="#F5BB43"/>
</svg>
