<svg width="120" height="120" viewBox="0 0 120 120" fill="none" xmlns="http://www.w3.org/2000/svg">
<path d="M119.986 60.0024C119.986 93.1333 93.1237 119.995 59.9784 120C26.8571 120 -0.00479762 93.1333 2.57257e-06 59.9976C-0.00959781 26.8619 26.8523 0 59.988 0C93.1237 0 119.986 26.8667 119.986 60.0024Z" fill="#EAB300"/>
<path fill-rule="evenodd" clip-rule="evenodd" d="M83.5951 45.3042C82.8223 37.2687 75.886 34.5758 67.1209 33.8078V22.6569H60.3382V33.5101C58.5573 33.5101 56.7333 33.5437 54.9236 33.5821V22.6569H48.1409L48.1361 33.7982L48.0634 33.7996H48.0634C46.6195 33.8279 45.1992 33.8558 43.8159 33.8558V33.8222L34.4604 33.8174V41.0656C34.4604 41.0656 39.4718 40.9696 39.3854 41.0608C42.1359 41.0608 43.0287 42.6545 43.2879 44.0322V56.7335C43.4799 56.7335 43.7247 56.7431 44.0031 56.7815H43.2879L43.2831 74.5758C43.1631 75.4398 42.6543 76.8175 40.7342 76.8223C40.8206 76.8991 35.8044 76.8223 35.8044 76.8223L34.4556 84.925H43.2879C44.2839 84.925 45.271 84.9356 46.2471 84.9461H46.2472L46.2497 84.9461C46.8817 84.9529 47.5091 84.9596 48.1313 84.9634L48.1361 96.2391H54.914V85.0834C56.7717 85.1218 58.5717 85.1362 60.3334 85.1362L60.3286 96.2391H67.1113V84.9874C78.5165 84.3346 86.5089 81.4593 87.4977 70.7452C88.2993 62.1193 84.2432 58.2647 77.7677 56.7095C81.7087 54.7126 84.1712 51.1844 83.5951 45.3042ZM74.1004 69.4108C74.1004 77.1486 61.931 76.9733 56.3804 76.8933C55.8879 76.8862 55.4475 76.8799 55.0724 76.8799V61.9369C55.5413 61.9379 56.112 61.925 56.759 61.9105C62.4645 61.7824 74.1004 61.5211 74.1004 69.4108ZM56.207 55.1186C60.8514 55.192 70.9418 55.3513 70.9418 48.3331C70.9461 41.1503 61.2228 41.4076 56.4691 41.5334C55.9334 41.5476 55.4608 41.5601 55.0724 41.5601V55.1062C55.3961 55.1058 55.7783 55.1118 56.207 55.1186Z" fill="white"/>
<path d="M43.2974 56.4359H44.3054V57.1799H43.2974V56.4359Z" fill="white"/>
</svg>
