<svg width="120" height="120" viewBox="0 0 120 120" fill="none" xmlns="http://www.w3.org/2000/svg">
<circle cx="60" cy="60" r="60" fill="#272D63"/>
<path fill-rule="evenodd" clip-rule="evenodd" d="M75.6031 27.5L72.9897 38.1575C81.0687 40.9925 87.016 45.245 85.8549 53.12C85.5189 55.5125 84.6976 57.9088 83.0026 59.72C81.5504 61.2838 79.2805 62.1125 77.3428 62.75C75.0194 63.5394 72.5896 63.9681 70.1374 64.0213C68.4948 64.0213 66.8969 63.9725 65.2542 63.8262C62.596 63.6275 59.8856 63.3838 57.276 62.7988C56.9653 62.725 56.6611 62.6582 56.3636 62.5929L56.3635 62.5929C55.8746 62.4856 55.4041 62.3823 54.9538 62.2588L51.4221 76.5838L49.3426 84.4062L46.7292 95.1162L40.3004 93.5038L42.9623 82.6963C42.2907 82.5217 41.6095 82.3375 40.9232 82.1519C40.0757 81.9226 39.2205 81.6913 38.3665 81.4738L30 79.3737L33.192 71.9863C33.192 71.9863 37.9334 73.2612 37.8811 73.1637C39.7217 73.6025 40.4945 72.38 40.8305 71.6L44.4593 56.93L46.1506 50.135L48.0882 42.3125C48.1815 40.9438 47.6999 39.185 45.0865 38.5475C45.1836 38.4987 40.3974 37.3737 40.3974 37.3737L42.0886 30.4325L50.9367 32.6825C51.6788 32.8668 52.4186 33.0388 53.1659 33.2125L53.1663 33.2126C53.7874 33.357 54.4138 33.5026 55.0509 33.6575L57.6643 23L64.0931 24.6125L61.532 35.075C61.8811 35.1563 62.2324 35.2374 62.5851 35.3188L62.5851 35.3188C63.9408 35.6318 65.3158 35.9493 66.6579 36.2975L69.1705 25.8837L75.6031 27.5ZM75.073 66.125C76.8612 65.8288 79.0378 65.0975 80.5834 64.46C80.6075 64.4359 80.6443 64.4237 80.6809 64.4116C80.7181 64.3993 80.7549 64.3871 80.7775 64.3625C84.1152 67.3438 85.7093 72.185 83.5328 78.395C80.0981 88.4675 71.8324 89.2962 60.9011 87.1963L58.2429 98L51.8589 96.3875L54.3229 86.0713L54.42 85.73L56.3576 77.8063C62.0622 79.0812 69.7529 79.91 71.2015 73.9437C71.978 70.7675 70.4772 68.4688 68.058 66.8075L70.5742 66.6575C72.3663 66.5638 73.2809 66.4175 75.073 66.1213V66.125ZM61.2758 43.0767C65.8713 44.1413 74.8563 46.2227 73.1839 53.0187C71.5359 59.7783 61.8791 57.1526 57.534 55.9712C57.1641 55.8706 56.8327 55.7805 56.548 55.7075L59.7437 42.7062C60.159 42.818 60.6806 42.9389 61.2758 43.0767Z" fill="#FEFEFE"/>
</svg>
