<svg width="120" height="120" viewBox="0 0 120 120" fill="none" xmlns="http://www.w3.org/2000/svg">
<circle cx="60" cy="60" r="60" fill="#E7EFF3"/>
<path fill-rule="evenodd" clip-rule="evenodd" d="M62.3049 15H57.6159C49.156 15.5265 40.8085 18.33 33.9236 23.3114C24.7301 29.8049 18.1377 39.8803 15.9237 50.9233C13.8537 60.8862 15.2847 71.5601 19.9962 80.5916C23.6682 87.7825 29.3381 93.9205 36.1871 98.1865C45.07 103.798 55.9644 106.034 66.3459 104.554C77.4068 103.055 87.7702 97.165 94.8172 88.516C105.23 76.0916 107.908 57.8802 101.671 42.9493C97.1392 31.7354 87.8557 22.56 76.6058 18.1365C72.0608 16.3005 67.1964 15.324 62.3049 15ZM22.0302 39.3538C28.5551 27.2309 41.137 18.609 54.826 17.0385C64.7574 15.81 75.0848 18.1905 83.4503 23.6804C91.8652 29.0804 98.2777 37.5089 101.27 47.0443C103.367 53.6007 103.754 60.6657 102.611 67.4472C100.627 78.9536 93.7192 89.4925 83.9858 95.9365C76.0478 101.323 66.2559 103.874 56.6934 103.114C48.2515 102.484 40.03 99.2665 33.3836 94.024C24.6536 87.238 18.6912 76.9826 17.1837 66.0207C15.8517 56.9172 17.6157 47.4133 22.0302 39.3538Z" fill="#00206B"/>
<path fill-rule="evenodd" clip-rule="evenodd" d="M77.7583 41.6308C72.1289 36.0149 63.7364 33.4499 55.911 34.7594C46.5375 36.1769 38.3296 43.2823 35.6116 52.3723C33.2896 59.7567 34.5226 68.1897 38.9956 74.5256C43.0365 80.4431 49.692 84.4841 56.802 85.339C64.3484 86.3335 72.3089 83.7641 77.7223 78.3821C82.6948 73.7066 85.6243 66.9072 85.5253 60.0717C85.6693 53.2003 82.7533 46.3468 77.7583 41.6308ZM57.4725 36.3178L57.4724 36.3164C58.5884 36.2399 59.7089 36.1859 60.8249 36.1499C60.8339 38.4403 60.8294 40.7353 60.8249 43.0303C59.7089 43.0258 58.5929 43.0258 57.4769 43.0258C57.4814 40.7898 57.4769 38.5538 57.4725 36.3178ZM65.5229 43.1338C68.4614 43.5298 71.6204 43.9798 73.9648 45.9643C77.5423 49.1773 77.0788 55.9227 72.7003 58.2537C75.3238 58.8657 77.9203 60.6162 78.5683 63.3702C79.4098 66.9837 78.7393 71.3216 75.8368 73.8686C73.0379 76.1726 69.2755 76.5281 65.7986 76.8567H65.7986L65.5139 76.8836C65.5293 78.6759 65.5249 80.4683 65.5205 82.2634V82.2638V82.2641V82.2644V82.2647V82.2656L65.5184 83.1656C73.0018 81.3341 79.4593 75.7631 82.2043 68.5542C84.8098 61.9032 84.1933 54.0777 80.5168 47.9533C77.2678 42.4273 71.7419 38.3683 65.5364 36.8114C65.5184 38.9173 65.5184 41.0233 65.5229 43.1338ZM51.5557 43.1639H51.5557H51.5557H51.5556H51.5556C48.7655 43.1716 45.9759 43.1793 43.1895 43.0438C46.0425 40.5328 49.278 38.4178 52.9095 37.2389C52.9203 38.8192 52.9196 40.3966 52.9188 41.9758C52.9187 42.3707 52.9185 42.7656 52.9185 43.1608C52.4642 43.1614 52.0099 43.1627 51.5557 43.1639ZM42.8025 43.3048C41.943 44.3623 40.3501 46.3603 39.4051 48.1288C35.5936 54.6222 35.1616 62.9562 38.3431 69.7871C41.0881 75.9116 46.533 80.6771 52.9095 82.7291C52.9162 81.251 52.9154 79.7729 52.9145 78.2967V78.2963V78.2958V78.2953V78.2947V78.294C52.9143 77.8027 52.914 77.3115 52.914 76.8206C51.8187 76.81 50.7223 76.8162 49.6259 76.8225H49.6257H49.6255H49.6253C47.465 76.8347 45.304 76.847 43.149 76.7306C43.185 74.9171 43.6125 73.1441 44.229 71.4341C44.6733 71.4254 45.1228 71.4407 45.5735 71.4561C46.7388 71.496 47.9117 71.5361 49.0215 71.1596C49.7337 70.5614 49.7217 69.6531 49.7102 68.7872C49.7072 68.5589 49.7042 68.3336 49.7145 68.1177C49.6902 65.2126 49.6952 62.3076 49.7002 59.4031C49.7053 56.3912 49.7105 53.3799 49.683 50.3698C49.7415 49.4158 49.143 48.3853 48.153 48.1963C46.9092 47.9462 45.6367 47.9621 44.3712 47.9781H44.3712H44.3712H44.3712H44.3712C43.9747 47.983 43.579 47.988 43.185 47.9848C42.9915 46.6528 42.969 45.3073 42.951 43.9618C42.951 43.9618 42.9735 43.5388 42.8295 43.2643L42.8025 43.3048ZM57.6119 57.1107V48.3898C58.199 48.4066 58.7982 48.4015 59.4022 48.3963C61.7057 48.3767 64.0774 48.3564 66.0989 49.5508C68.2814 50.7973 68.4164 54.3027 66.3014 55.6887C64.1562 57.1138 61.5259 57.1088 59.0099 57.104C58.5386 57.1031 58.0713 57.1022 57.6119 57.1107ZM57.6119 61.8042V71.4791C58.4886 71.4089 59.3912 71.3917 60.3002 71.3743C63.1198 71.3204 66.0019 71.2653 68.3669 69.6251C70.6034 68.1402 70.3334 64.4637 68.0294 63.1767C65.5793 61.7123 62.7161 61.7569 59.9203 61.8006C59.1422 61.8127 58.3693 61.8248 57.6119 61.8042ZM57.4724 83.6651C57.4769 81.4286 57.4814 79.1876 57.4814 76.9511H60.9689C60.9689 77.5237 60.9692 78.0963 60.9695 78.669C60.9703 80.3868 60.9712 82.1047 60.9644 83.8226C59.7989 83.7866 58.6379 83.7416 57.4724 83.6651Z" fill="#00206B"/>
<path fill-rule="evenodd" clip-rule="evenodd" d="M78.2166 23.3654C71.1336 19.7295 62.9707 18.528 55.0867 19.374C42.8558 20.7645 31.4664 28.0544 25.1079 38.6023C19.906 47.0128 17.9845 57.3492 19.699 67.0782C21.3775 76.9016 26.8179 86.041 34.6839 92.1565C42.0593 98.0155 51.5363 101.183 60.9547 100.841C76.9926 100.819 92.225 90.1 97.994 75.1916C101.787 65.7327 101.868 54.8607 98.2055 45.3568C94.6145 35.8664 87.329 27.8339 78.2166 23.3654ZM37.5188 43.0753C41.4473 37.8059 47.3063 34.0214 53.7142 32.5769C60.8287 30.9524 68.5686 32.1899 74.7696 36.0509C81.3936 40.0918 86.1545 47.0173 87.599 54.6402C88.733 60.9267 87.887 67.6227 84.7955 73.2566C80.6691 81.1541 72.5376 86.7835 63.6952 87.8635C56.5402 88.8445 49.0253 86.9365 43.2428 82.5896C37.0644 78.0851 32.9109 70.9121 32.0784 63.3072C31.1919 56.2017 33.1809 48.7813 37.5188 43.0753Z" fill="#EBA809"/>
</svg>
