<svg width="120" height="120" viewBox="0 0 120 120" fill="none" xmlns="http://www.w3.org/2000/svg">
<circle cx="60" cy="60" r="60" fill="black"/>
<path fill-rule="evenodd" clip-rule="evenodd" d="M101.446 42.5081C102.599 45.2298 103.48 48.0591 104.076 50.9544C105.914 59.8622 104.996 69.1182 101.446 77.4919C100.292 80.1679 98.9052 82.7534 97.292 85.1505C95.68 87.5384 93.8409 89.765 91.8005 91.799C89.7664 93.8394 87.5398 95.6785 85.1519 97.2905C82.7057 98.9036 80.1692 100.336 77.4931 101.444C66.3136 106.185 53.6881 106.185 42.5086 101.444C39.8326 100.291 37.247 98.9036 34.8498 97.2905C32.4619 95.6785 30.2353 93.8394 28.2012 91.799C26.1611 89.7647 24.322 87.5382 22.7097 85.1505C21.0965 82.7045 19.6643 80.1679 18.5562 77.4919C13.8146 66.3126 13.8146 53.6874 18.5562 42.5081C19.7013 39.8313 21.0917 37.2662 22.7097 34.8457C24.3221 32.4604 26.1612 30.2364 28.2012 28.2047C32.2986 24.0901 37.1582 20.8128 42.5086 18.5561C53.6881 13.8146 66.3136 13.8146 77.4931 18.5561C80.1687 19.7014 82.7325 21.0918 85.1519 22.7095C87.5398 24.3215 89.7664 26.1606 91.8005 28.201C93.8408 30.2338 95.6798 32.4591 97.292 34.8457C98.918 37.2614 100.309 39.8272 101.446 42.5081ZM20.7234 60.0452C20.7234 81.7358 38.3061 99.3672 60.0423 99.3672C81.7371 99.3672 99.365 81.7358 99.365 60.0452C99.365 38.3546 81.7333 20.7233 60.0423 20.7233C38.3551 20.7233 20.7234 38.3546 20.7234 60.0452Z" fill="white"/>
<path d="M60.7398 95.9525H61.8026C61.9873 95.9525 62.1682 95.9525 62.3529 95.9035H62.4019C62.5866 95.9035 62.7223 95.9035 62.907 95.8583H63.0464C63.1859 95.8583 63.3253 95.8583 63.461 95.813H63.6005C63.7399 95.813 63.8794 95.7678 64.0641 95.7678H64.1545C64.3392 95.7678 64.5239 95.7188 64.7086 95.7188C64.8933 95.7188 65.0327 95.6736 65.2174 95.6283H65.3079C65.4473 95.6283 65.5868 95.5831 65.7225 95.5831H65.8167C66.0014 95.5341 66.1408 95.5341 66.3255 95.4889C66.6911 95.4437 67.0605 95.3494 67.3846 95.259H67.4789C67.6145 95.2138 67.7992 95.2138 67.9387 95.1648H67.9839C68.3533 95.0743 68.6774 94.9801 69.0468 94.8896C65.5899 94.9992 62.1329 94.6738 58.7572 93.921C53.6765 92.8129 48.8333 90.8304 44.725 87.4119C38.1663 81.9539 34.4056 73.839 34.4806 65.3068C34.5139 59.0209 36.7506 52.9457 40.8014 48.139C46.063 41.9088 53.5408 38.6298 61.1996 38.4451H62.2625V32.3092H61.0639C58.7339 32.3518 56.4143 32.6296 54.1401 33.1383C51.8516 33.6558 49.6243 34.4138 47.4952 35.3997C45.3243 36.4174 43.2927 37.6611 41.4007 39.0934C39.4455 40.5796 37.6651 42.2827 36.0938 44.1702C34.6143 45.917 33.3302 47.8204 32.2644 49.8463C31.21 51.7994 30.3588 53.8554 29.7241 55.9822C29.1015 58.0762 28.6849 60.2259 28.4803 62.4009L28.3408 64.4286V65.6271C28.386 67.9827 28.665 70.2894 29.17 72.5508C29.6788 74.8612 30.4628 77.0736 31.4315 79.1993C32.5886 81.7358 34.6653 85.4747 37.756 88.2901C44.0665 93.2648 51.8711 95.9646 59.9068 95.9525H60.7398Z" fill="white"/>
<path d="M70.7994 90.0427C68.523 89.9614 66.2556 89.7145 64.0151 89.304C54.5095 87.5966 46.3381 81.781 43.3417 73.0144C39.6932 62.3519 45.279 50.8149 55.8927 47.3098C57.9154 46.632 60.035 46.2882 62.1682 46.2922C64.8933 46.2922 67.6145 46.8462 70.1097 47.8601L72.6915 42.3686C71.915 42.0573 71.1308 41.7658 70.3396 41.4942C67.6953 40.6643 64.9397 40.2436 62.1682 40.2467C59.3916 40.2519 56.6338 40.7036 54.0006 41.5847C50.64 42.6931 47.5449 44.4844 44.9096 46.8462C43.6387 47.9783 42.48 49.2304 41.4496 50.585C40.431 51.9242 39.5497 53.3624 38.8188 54.8779C37.3306 57.9248 36.4523 61.2332 36.2332 64.617C36.0033 68.1222 36.4632 71.6274 37.6165 74.9516C38.7916 78.3713 40.6802 81.5021 43.157 84.1367C45.4185 86.5828 48.0493 88.4296 51.2304 90.1369C54.5547 91.8895 58.663 92.8129 62.9522 93.4159C65.7225 93.7815 69.4161 93.8758 71.5834 93.8758C73.4754 93.1823 74.2594 92.8581 75.2771 92.4435C76.1552 92.029 77.0297 91.6144 77.9079 91.1056C78.7861 90.5967 78.9255 90.5025 80.3992 89.5376C80.5305 89.456 80.6541 89.3627 80.7686 89.2587C75.6916 90.1369 74.3989 90.0879 70.7994 90.0427Z" fill="white"/>
<path d="M82.1559 83.168C80.7236 83.2585 78.6921 83.3942 76.3854 83.3942C72.2771 83.3942 67.2454 83.0286 62.9562 81.5964C56.3076 79.384 50.0321 73.7078 50.0321 66.69C50.0291 63.3354 51.3604 60.1173 53.7325 57.7453C56.1046 55.3732 59.3227 54.042 62.6773 54.045C67.4301 54.045 71.5384 56.6757 73.7094 60.505L79.2009 57.7838C78.3399 56.1627 77.2338 54.6842 75.9218 53.4005C72.4108 49.8835 67.6451 47.9071 62.6754 47.9071C57.7058 47.9071 52.9401 49.8835 49.429 53.4005C45.9131 56.9113 43.9375 61.6761 43.9375 66.6447C43.9498 69.2231 44.5019 71.7703 45.5582 74.1224C46.5231 76.2444 47.8649 78.2306 49.5723 80.0775C52.5724 83.3037 56.677 85.8893 61.0642 87.3667C65.2629 88.7499 71.4479 89.2587 77.4483 88.8442C79.1067 88.7047 80.3543 88.5652 82.4763 88.1054C84.524 86.4895 86.3827 84.6473 88.0168 82.614C86.5845 82.7534 83.9537 83.0286 82.1559 83.168Z" fill="white"/>
</svg>
