<svg width="120" height="120" viewBox="0 0 120 120" fill="none" xmlns="http://www.w3.org/2000/svg">
<circle cx="60" cy="60" r="60" fill="#EDF0F4"/>
<path fill-rule="evenodd" clip-rule="evenodd" d="M67.9818 27.8957C62.706 26.7099 57.1572 26.6785 51.8911 27.9391C44.8871 29.5757 38.4431 33.4707 33.7054 38.8721C29.839 43.2492 27.0949 48.6097 25.8326 54.3123C24.7997 58.9039 24.7369 63.7075 25.5937 68.3303C26.7811 74.8695 29.9356 81.0107 34.4681 85.865C34.5268 85.8727 34.6166 85.8838 34.7046 85.8946L34.7059 85.8948L34.7071 85.8949L34.7099 85.8953C34.7864 85.9047 34.8611 85.9139 34.9122 85.9206C36.8816 86.1084 38.851 86.2508 40.8276 86.2773C42.7633 86.3206 44.694 86.1929 46.6249 86.0554C46.0794 84.8985 45.5701 83.7272 45.0874 82.5438C45.0657 82.4835 45.0175 82.3654 44.9933 82.3051C42.1213 82.5003 39.2347 82.4328 36.3675 82.187C34.053 79.4223 32.1125 76.3108 30.8841 72.9122C32.0957 70.2899 33.4641 67.7374 35.0618 65.3271C37.2701 68.0242 39.7223 70.519 42.3699 72.7894C43.9797 74.115 45.6232 75.4044 47.3729 76.5398C47.5153 76.6458 47.8001 76.8554 47.9425 76.9592C48.0537 78.2654 48.8596 79.49 50.0398 80.0781C51.0946 80.6372 52.3833 80.5986 53.4599 80.119C53.8362 80.2948 54.2128 80.4709 54.5894 80.654C56.3754 81.5121 58.2193 82.2568 60.0897 82.9174C63.3357 84.0598 66.6929 84.872 70.0912 85.4119C68.8313 87.8849 67.3687 90.2517 65.7613 92.5151L66.1765 92.4235C67.9866 92.0523 69.7605 91.5195 71.4838 90.8495C72.1943 89.6808 72.8294 88.4707 73.4644 87.2607C73.7094 86.7938 73.9544 86.327 74.2037 85.8626C76.9123 86.1014 79.6299 86.0423 82.3461 85.9832H82.3462H82.3462H82.3463H82.3463C83.3597 85.9612 84.373 85.9392 85.3855 85.9326C89.0854 82.1508 91.7932 77.4099 93.4006 72.3724L93.3138 72.1795C92.5317 70.3647 91.6629 68.5906 90.7434 66.8408C90.408 68.6944 89.9904 70.5405 89.3364 72.312C88.1054 75.8191 86.2108 79.0802 83.8311 81.9315C81.1571 82.1797 78.4708 82.24 75.7869 82.117C77.0468 78.8126 78.0122 75.3997 78.647 71.9217L78.6822 71.7057C78.8638 70.5919 79.0455 69.4775 79.1611 68.3568C79.272 67.4843 79.3373 66.6094 79.3953 65.7322L79.4065 65.5952L79.4304 65.2986L79.4306 65.296C79.4417 65.1578 79.4526 65.0227 79.4603 64.9294C80.7564 63.8376 81.2439 61.895 80.5078 60.3525C80.3945 60.0251 80.168 59.7602 79.9455 59.5C79.5895 59.0837 79.2438 58.6794 79.3879 58.0505C79.272 56.0453 78.9969 54.0544 78.6735 52.0756C78.0389 48.6456 77.1121 45.2738 75.8763 42.0128C78.6109 41.8994 81.3549 41.9404 84.075 42.2441C86.2326 44.9386 87.9824 47.9491 89.2035 51.179C89.9349 49.4893 90.5695 47.7636 91.1465 46.0136C89.7489 43.3213 88.0162 40.805 85.984 38.5492L85.7886 38.5371C85.4074 38.5023 85.0265 38.465 84.6456 38.4277C83.3673 38.3026 82.0895 38.1775 80.8046 38.1442C78.6277 38.0164 76.4459 38.1177 74.2737 38.2454C73.458 36.5799 72.6157 34.929 71.6527 33.3429C70.5763 31.5184 69.3624 29.783 68.1096 28.0765C68.076 28.0307 68.0131 27.9415 67.9818 27.8957ZM49.381 32.7331C51.1935 32.039 53.093 31.5907 55.002 31.2629C58.5619 30.7133 62.2088 30.735 65.7516 31.3906C67.4363 33.6924 68.899 36.146 70.1998 38.6817C66.8064 39.2457 63.4516 40.0676 60.1862 41.145C59.7802 41.3059 59.3726 41.4639 58.965 41.622C57.5531 42.1694 56.1397 42.7175 54.7801 43.389C54.6062 43.467 54.4334 43.5459 54.2608 43.6247L54.2596 43.6253C54.1449 43.6776 54.0304 43.7298 53.916 43.7817C52.2218 42.6634 49.7214 43.1841 48.6328 44.9001C48.1767 45.5606 47.9787 46.3631 47.974 47.1585C47.7109 47.3513 47.4455 47.537 47.1751 47.7154L47.1775 47.7563C45.8169 48.5824 44.5708 49.5787 43.3267 50.5732C42.9555 50.87 42.5844 51.1667 42.2106 51.4586C39.6498 53.7144 37.2219 56.1489 35.0642 58.805C33.452 56.3611 32.045 53.7845 30.8527 51.1139C32.0329 47.7876 33.884 44.6881 36.1575 41.9837C37.4101 40.4291 38.8775 39.0626 40.4029 37.7803C43.1108 35.6496 46.1276 33.8876 49.381 32.7331ZM66.1476 43.442C64.2119 43.9095 62.3053 44.4952 60.442 45.1918L60.5193 45.2232C59.3387 45.5441 58.2118 46.0594 57.0883 46.5731L57.0883 46.5731C56.634 46.7808 56.1802 46.9883 55.7237 47.1826C55.591 48.2624 55.1396 49.3424 54.2563 50.0221C53.0954 50.9956 51.3673 51.1428 50.0327 50.4413C48.4471 51.5043 46.8733 52.5985 45.435 53.8592C43.789 55.1583 42.2661 56.6116 40.8156 58.1229C39.6064 59.3738 38.4865 60.7067 37.4053 62.0661C38.5927 63.5606 39.8261 65.021 41.1752 66.3733L41.1679 66.4045C42.6136 67.8266 44.0738 69.2414 45.6739 70.4925C46.9386 71.5505 48.2829 72.5074 49.6417 73.4353C50.8436 72.6399 52.4824 72.5869 53.7229 73.3244C54.9852 74.0332 55.7019 75.4768 55.6584 76.9036C57.2007 77.6316 58.7551 78.3354 60.3599 78.9115C62.2521 79.6248 64.1901 80.2177 66.1547 80.6975C68.0036 81.1555 69.8811 81.4832 71.7662 81.7531C72.5021 79.9357 73.1635 78.087 73.6849 76.1951L73.7114 76.183C74.2375 74.2019 74.7058 72.2037 75.0195 70.1766C75.2705 68.6365 75.425 67.0842 75.5553 65.5273C74.5561 65.091 73.7234 64.2618 73.3686 63.223C72.6542 61.3502 73.6993 59.1014 75.5506 58.3711C75.4297 56.79 75.2729 55.2113 75.0051 53.6494C74.7058 51.6247 74.2278 49.6315 73.692 47.66C73.1635 45.8691 72.5577 44.1049 71.8675 42.3717C69.944 42.6345 68.0301 42.9672 66.1476 43.442ZM29.325 67.3977C28.7312 63.8691 28.7361 60.2536 29.3057 56.7226C30.329 58.5495 31.4271 60.3307 32.6049 62.0637C31.4416 63.799 30.3193 65.5609 29.325 67.3977Z" fill="#874FA9"/>
<path opacity="0.19" d="M68.1094 28.0765C68.4666 27.9391 68.8238 28.1343 69.1713 28.2066C72.0771 29.0261 74.9394 30.1324 77.5026 31.7401C76.5782 32.7741 75.2821 33.3647 74.2853 34.3215C73.4311 33.9432 72.6152 33.3526 71.6522 33.3429C70.5759 31.5183 69.3619 29.783 68.1094 28.0765Z" fill="#874FA9"/>
<path opacity="0.2" d="M49.3817 32.7331C51.1941 32.039 53.0936 31.5907 55.0026 31.2629C53.4123 33.6153 51.8146 35.987 50.6127 38.5684C53.5135 39.0335 56.376 39.7253 59.1659 40.6484C59.5305 40.7594 59.8659 40.9377 60.1869 41.145C58.3744 41.8633 56.5329 42.5236 54.7807 43.389C52.8571 42.8756 50.8973 42.4779 48.9206 42.2345C48.228 43.9095 47.5886 45.6183 47.1372 47.3731L47.1758 47.7154L47.1782 47.7563C45.4115 48.829 43.8379 50.1884 42.2112 51.4586C42.6746 48.1443 43.8234 44.9798 44.8443 41.8103C41.9482 41.6366 39.0447 41.709 36.1582 41.9837C37.4108 40.4291 38.8782 39.0626 40.4035 37.7803C42.4333 37.9007 44.4727 37.8719 46.5024 38.0358C47.4315 36.2522 48.3657 34.471 49.3817 32.7331Z" fill="#874FA9"/>
<path opacity="0.16" d="M77.5025 31.74L77.5434 31.6918C80.3697 33.35 82.9643 35.4012 85.2328 37.7633C85.4429 37.9996 85.7106 38.214 85.788 38.5369C84.1274 38.3852 82.4718 38.1875 80.8041 38.1442C79.8966 38.1345 79.2088 37.5222 78.5403 36.992C77.208 35.9725 75.7454 35.141 74.2852 34.3214C75.282 33.3645 76.5781 32.774 77.5025 31.74Z" fill="#874FA9"/>
<path opacity="0.16" d="M60.4414 45.1917C62.3047 44.4952 64.2113 43.9095 66.147 43.442C67.8606 44.3507 69.5886 45.24 71.2178 46.3006C70.233 47.2718 68.966 47.8767 67.9522 48.8169C65.5871 47.4045 63.0697 46.2644 60.5187 45.2232L60.4414 45.1917Z" fill="#874FA9"/>
<path opacity="0.16" d="M40.8164 58.1229C42.2669 56.6116 43.7898 55.1583 45.4358 53.859C45.6506 54.5316 45.4889 55.2305 45.4044 55.9102C44.8107 60.7549 44.9797 65.6695 45.6747 70.4923C44.0746 69.2414 42.6145 67.8267 41.1688 66.4046L41.176 66.3731C41.3522 65.908 41.275 65.409 41.2605 64.9271C41.1181 62.6348 41.1543 60.3355 41.2798 58.0409C41.1639 58.0626 40.9323 58.1035 40.8164 58.1229V58.1229Z" fill="#874FA9"/>
<path opacity="0.07" d="M89.2028 51.179C89.9339 49.4893 90.5686 47.7635 91.1456 46.0137C92.893 49.3327 94.0152 52.9747 94.5727 56.6791C94.4713 57.1203 94.5872 57.7468 94.0996 57.9855C93.0957 58.6363 92.1833 59.4485 91.0779 59.9281C90.9717 59.0002 90.9379 58.0506 90.6531 57.1515C89.8857 58.1324 89.3837 59.287 88.6717 60.3043C88.3289 60.9092 87.716 61.4562 87.7955 62.2107C87.1994 63.1267 86.2099 63.611 85.2855 64.1244C83.7022 65.3705 81.9742 66.424 80.4345 67.7254C80.0458 68.0001 79.5945 68.1664 79.1602 68.3569C79.2711 67.4843 79.3364 66.6094 79.3943 65.7322C80.7964 64.7175 81.8921 63.3001 82.8189 61.8565C82.1022 60.8368 81.1874 59.9764 80.4586 58.964C81.3563 58.0529 82.7297 57.6481 83.3162 56.4477C83.9967 57.1057 84.5737 57.8578 85.1698 58.5905C86.7843 56.279 88.0008 53.7218 89.2028 51.179Z" fill="#874FA9"/>
<path opacity="0.07" d="M48.3051 80.1021C48.5658 80.6805 48.7056 81.3337 49.1305 81.8206C50.9768 81.5845 52.8183 81.2398 54.5898 80.654C56.3758 81.5121 58.2197 82.2569 60.0902 82.9172C59.8633 83.0811 59.6194 83.2112 59.3564 83.3054C56.5954 84.2645 53.7475 84.9563 50.8729 85.4867C50.8296 86.3519 51.6429 87.0219 51.8842 87.8414C50.8585 88.5573 49.7169 89.119 48.848 90.0395C47.9624 88.796 47.3613 87.386 46.6254 86.0554C46.0798 84.8985 45.5706 83.7272 45.0879 82.5436C46.0895 81.6301 47.4289 81.1553 48.3051 80.1021V80.1021Z" fill="#874FA9"/>
<path opacity="0.14" d="M71.2187 46.3004C72.0803 46.6813 72.7367 47.5347 73.6926 47.6598C74.2284 49.6315 74.7062 51.6247 75.0055 53.6494C72.7175 51.9477 70.4246 50.2485 67.9531 48.8169C68.967 47.8768 70.234 47.2718 71.2187 46.3004V46.3004Z" fill="#874FA9"/>
<path opacity="0.1" d="M78.6738 52.0754C79.089 52.2561 79.4918 52.478 79.8128 52.8057C81.0148 53.9867 82.2384 55.151 83.3174 56.4477C82.7309 57.6481 81.3575 58.0529 80.4598 58.964C80.1435 58.6145 79.7719 58.3181 79.3882 58.0505C79.2723 56.0452 78.9972 54.0544 78.6738 52.0754Z" fill="#874FA9"/>
<path opacity="0.04" d="M94.5737 56.6791C95.1022 59.1303 95.0298 61.6949 94.9283 64.1991C94.6099 66.8891 94.3033 69.6415 93.3138 72.1796C92.5318 70.3647 91.6629 68.5906 90.7434 66.8408C90.408 68.6942 89.9905 70.5405 89.3364 72.312C88.3661 70.9938 87.8135 69.4342 87 68.0242C87.9945 67.2747 89.0563 66.5997 90.1449 66.0045C90.2848 66.1008 90.5648 66.2936 90.7023 66.3901C91.1801 64.2883 91.0715 62.0805 91.0789 59.9281C92.1843 59.4485 93.0964 58.6363 94.1006 57.9855C94.5881 57.7468 94.4722 57.1203 94.5737 56.6791V56.6791Z" fill="#874FA9"/>
<path opacity="0.05" d="M87.7959 62.2106C88.7638 63.3484 89.4853 64.6716 90.1444 66.0045C89.0558 66.5997 87.9939 67.2747 86.9994 68.0242C86.4492 67.1349 85.9616 66.1973 85.2835 65.3972C84.1492 66.1684 83.5048 67.441 82.4959 68.3521C81.2072 69.5355 80.1476 70.9962 78.6465 71.9217C78.8395 70.7359 79.0373 69.5499 79.1605 68.3568C79.5948 68.1664 80.0462 68.0001 80.4348 67.7254C81.9746 66.4239 83.7026 65.3704 85.2858 64.1244C86.2103 63.611 87.1998 63.1267 87.7959 62.2106V62.2106Z" fill="#874FA9"/>
<path opacity="0.05" d="M51.8838 87.8414C52.4487 88.5428 52.8059 89.3841 53.3223 90.1192C53.8269 90.9484 54.4639 91.6979 54.8791 92.5778C52.7238 92.6331 50.5662 92.5704 48.411 92.6284C47.3345 92.609 46.2508 92.7126 45.1816 92.5439C45.5461 92.3752 45.8671 92.1294 46.1422 91.8377C46.6056 91.3146 47.4575 91.2569 47.7399 90.5602C48.1889 90.7386 48.6523 90.8687 49.1278 90.9555C49.0457 90.647 48.9589 90.3385 48.8477 90.0397C49.7165 89.1189 50.8581 88.5573 51.8838 87.8414V87.8414Z" fill="#874FA9"/>
<path opacity="0.06" d="M64.5686 76.9663C68.3433 75.1875 71.7778 72.7845 75.019 70.1766C74.7051 72.2037 74.237 74.2019 73.7109 76.183L73.6844 76.1951C72.34 76.7638 71.2514 77.7641 69.9748 78.4511C68.7319 79.2536 67.3126 79.7744 66.1542 80.6975C64.1896 80.2177 62.2516 79.6248 60.3594 78.9113C61.7496 78.2342 63.2169 77.7208 64.5686 76.9663Z" fill="#874FA9"/>
<path opacity="0.11" d="M42.3691 72.7894C43.979 74.115 45.6225 75.4044 47.3724 76.5398C47.2709 76.7903 47.2612 77.0411 47.341 77.2942C47.6281 78.2413 47.9515 79.1765 48.304 80.102C47.4278 81.1553 46.0883 81.6301 45.0867 82.5438C45.065 82.4834 45.0167 82.3654 44.9926 82.3051C43.9669 79.5886 43.0739 76.8168 42.4488 73.9799C42.3764 73.5872 42.3764 73.1845 42.3691 72.7894V72.7894Z" fill="#874FA9"/>
<path opacity="0.08" d="M34.9121 85.9205C36.8815 86.1084 38.8509 86.2506 40.8276 86.2773C41.7712 87.2823 42.9925 87.9523 44.1461 88.685C45.2877 89.4106 46.5065 90.0082 47.7398 90.5602C47.4573 91.2569 46.6055 91.3146 46.1421 91.8377C45.8669 92.1294 45.5459 92.3752 45.1815 92.5439C44.2933 92.5946 43.3038 92.7559 42.5243 92.2184C39.7777 90.6349 37.188 88.726 35.0159 86.4122C34.9893 86.2891 34.9387 86.0433 34.9121 85.9205Z" fill="#874FA9"/>
</svg>
