<svg width="120" height="120" viewBox="0 0 120 120" fill="none" xmlns="http://www.w3.org/2000/svg">
<circle cx="60" cy="60" r="60" fill="#EDF0F4"/>
<circle cx="60" cy="60" r="50" fill="#FB2EA3"/>
<path fill-rule="evenodd" clip-rule="evenodd" d="M80.8839 53.4586C80.1785 58.2675 77.5339 60.5952 74.0254 61.4098C78.8422 63.938 81.2972 67.8195 78.9603 74.5426C76.0609 82.8947 69.1744 83.5965 60.0162 81.8515L57.7881 90.8333L52.4181 89.4831L54.6121 80.6234C53.1807 80.2652 51.7531 79.8913 50.3298 79.5019L48.1296 88.4054L42.7627 87.0583L44.9877 78.0576C44.4538 77.9204 43.9164 77.7792 43.375 77.6369C42.6434 77.4446 41.9043 77.2504 41.156 77.0614L34.167 75.307L36.8333 69.104C36.8333 69.104 40.7924 70.1692 40.7365 70.0877C42.2592 70.4668 42.9336 69.4674 43.2009 68.8032L46.7125 54.6052L47.2812 54.7462C47.0988 54.6744 46.912 54.6147 46.7218 54.5676L49.2265 44.4329C49.2918 43.2801 48.9002 41.8327 46.7249 41.2813C46.8088 41.2249 42.8217 40.3039 42.8217 40.3039L44.2512 34.5207L51.6598 36.3847L51.6536 36.416C52.7661 36.6917 53.916 36.958 55.0844 37.2274L57.2877 28.3333L62.6577 29.6804L60.501 38.4022L60.8333 38.4789L60.8334 38.4789C62.163 38.7856 63.4997 39.0939 64.802 39.4235L66.9462 30.7613L72.3162 32.1084L70.116 41.0056C76.9 43.3615 81.8597 46.8922 80.8839 53.4586ZM68.6088 70.8083C70.1736 64.5041 60.8898 62.4018 56.3537 61.3746L56.3535 61.3746C55.8448 61.2594 55.3958 61.1577 55.0285 61.0651L52.0793 72.9856C52.3804 73.0609 52.7332 73.1549 53.1282 73.2601L53.1288 73.2602L53.1291 73.2603L53.1291 73.2603L53.1291 73.2603C57.5139 74.428 67.0897 76.9781 68.6119 70.8083H68.6088ZM60.1693 45.0547C63.9562 45.9011 71.6894 47.6295 70.2714 53.3615C68.8828 58.9753 60.899 56.8221 57.2511 55.8382C56.9231 55.7498 56.6302 55.6708 56.3803 55.6077L59.0529 44.7963C59.3616 44.8741 59.74 44.9587 60.1691 45.0546L60.1693 45.0547ZM85.9027 77.2619C85.3768 77.1909 84.8445 77.3341 84.4235 77.6598C84.0196 78.0089 83.7457 78.4862 83.6466 79.0131C83.5829 79.3061 83.5619 79.6069 83.5844 79.906C83.6111 80.2468 83.7199 80.5759 83.9014 80.8646C84.0879 81.1779 84.3862 81.4724 84.7902 81.7481C85.1942 82.0207 85.7536 82.24 86.4683 82.406C86.8537 82.5 87.2514 82.5438 87.6585 82.5407C88.0688 82.5407 88.4479 82.4749 88.7959 82.3433C89.5447 82.0769 90.0995 81.4332 90.2565 80.6485C90.4046 80.0929 90.3263 79.5008 90.039 79.0037C89.7531 78.5213 89.2838 78.1516 88.6281 77.8947L89.1067 75.8083C90.2876 76.2876 91.1142 76.9737 91.5928 77.8603C92.0714 78.75 92.1708 79.8057 91.8911 81.0275C91.7495 81.7051 91.469 82.3454 91.0676 82.9072C90.3378 83.9101 89.2116 84.5435 87.9817 84.6428C87.3132 84.7038 86.6393 84.6541 85.9866 84.4956C85.3153 84.3446 84.6708 84.091 84.0755 83.7437C83.5266 83.4268 83.0476 83.0004 82.6677 82.4906C82.2982 81.9841 82.0455 81.4007 81.9281 80.7832C81.8027 80.0746 81.8292 79.3471 82.0058 78.6497C82.1247 78.1202 82.3161 77.6099 82.5745 77.1334C82.8262 76.6698 83.1338 76.2782 83.5037 75.9586C83.8704 75.6391 84.293 75.4072 84.7716 75.2631C85.2532 75.1159 85.7878 75.0877 86.3813 75.1723L85.9027 77.2619ZM93.4325 72.5814C93.8377 71.9983 94.122 71.3387 94.2685 70.6422C94.44 69.9518 94.4717 69.2337 94.3617 68.5307C94.2467 67.8822 94.0199 67.3026 93.678 66.792C93.3362 66.2813 92.8887 65.849 92.3293 65.4918C91.7352 65.1236 91.0839 64.8589 90.4026 64.7086C89.6878 64.5426 89.0042 64.4956 88.3516 64.5676C87.7261 64.6306 87.1206 64.8249 86.574 65.1378C86.0426 65.4448 85.5889 65.8678 85.2035 66.4004C84.7984 66.9835 84.5141 67.6431 84.3676 68.3396C84.1965 69.0289 84.1648 69.746 84.2743 70.448C84.3765 71.0711 84.6096 71.665 84.958 72.1898C85.313 72.7122 85.7724 73.154 86.3067 73.4868C86.8942 73.8548 87.5394 74.1197 88.2148 74.27C88.8928 74.4354 89.5936 74.4841 90.2876 74.4141C90.9131 74.3512 91.5186 74.1569 92.0652 73.844C92.5935 73.5338 93.0503 73.114 93.4325 72.5814ZM86.1141 61.8765L86.5647 59.9185L88.3795 60.3415L88.3888 60.3039C88.1354 60.1723 87.9104 59.9913 87.7269 59.7713C87.3052 59.2769 87.0258 58.6756 86.9189 58.0326C86.8669 57.7078 86.8774 57.3759 86.95 57.0551C87.0063 56.7907 87.0853 56.5318 87.1862 56.2813L89.1844 56.745C89.1262 56.8888 89.0713 57.034 89.0197 57.1804C88.9675 57.3249 88.9239 57.4724 88.8892 57.6222C88.7152 58.3186 88.8663 59.057 89.2994 59.6272C89.5414 59.9425 89.841 60.2083 90.1819 60.4104C90.5518 60.6391 90.9961 60.8145 91.5182 60.9367L95.987 61.9768L95.5084 64.0633L86.1141 61.8765ZM94.2871 55.1096C93.9235 55.1316 93.5599 55.1034 93.1994 55.0156L93.1963 55.0188L94.7905 48.0576C94.1069 47.8101 93.417 47.6973 92.7147 47.7224C92.0428 47.7377 91.3806 47.8867 90.7662 48.161C90.1653 48.4383 89.6319 48.8446 89.203 49.3515C88.7453 49.8983 88.4284 50.5503 88.2801 51.25C88.1216 51.9611 88.106 52.6253 88.2459 53.2456C88.3763 53.8558 88.6314 54.4319 88.9948 54.9373C89.3681 55.4491 89.8342 55.8849 90.3684 56.2218C91.5368 56.9344 92.8979 57.2588 94.2591 57.1491C95.5078 57.0666 96.6535 56.4224 97.3792 55.3947C97.7521 54.8778 98.0256 54.245 98.1965 53.4994C98.3115 52.9856 98.355 52.4781 98.3239 51.9768C98.2591 50.4561 97.3522 49.101 95.9777 48.4712L95.5271 50.448C95.9613 50.7027 96.3041 51.09 96.506 51.5539C96.6846 52.0578 96.703 52.6053 96.5588 53.1203C96.4798 53.5127 96.3141 53.8821 96.074 54.2011C95.8613 54.4735 95.5904 54.694 95.2816 54.8465C94.9701 54.9984 94.6324 55.0878 94.2871 55.1096ZM92.6339 70.2631C92.8421 69.4473 92.6216 68.5808 92.0496 67.9668C91.7779 67.6679 91.456 67.4198 91.0987 67.2337C90.3572 66.8404 89.5278 66.6462 88.6903 66.6698C88.2884 66.6775 87.8914 66.7593 87.5187 66.911C86.741 67.2133 86.1703 67.895 86.0053 68.7187C85.7949 69.5313 86.0106 70.3961 86.5771 71.0119C86.835 71.3064 87.152 71.5476 87.528 71.745C88.2701 72.1367 89.0991 72.3308 89.9364 72.3089C90.339 72.2989 90.7367 72.2172 91.1111 72.0676C91.8916 71.7685 92.4661 71.0877 92.6339 70.2631ZM91.9564 49.8183C92.2866 49.7727 92.6216 49.7758 92.9508 49.8277L91.8352 54.7024C91.1821 54.5289 90.6122 54.1255 90.2286 53.5651C90.0545 53.2989 89.9395 53.0012 89.8774 52.6723C89.7636 51.9839 89.9318 51.2784 90.3435 50.7174C90.7412 50.2134 91.3216 49.8899 91.9564 49.8183Z" fill="white"/>
</svg>
