<svg width="120" height="120" viewBox="0 0 120 120" fill="none" xmlns="http://www.w3.org/2000/svg">
<circle cx="60" cy="60" r="60" fill="#EDF0F4"/>
<path d="M56.2785 24.5415L24.5415 56.2786C22.4862 58.3338 22.4862 61.6661 24.5415 63.7214L56.2785 95.4585C58.3338 97.5138 61.6662 97.5138 63.7215 95.4585L95.4586 63.7214C97.5139 61.6661 97.5137 58.3338 95.4586 56.2786L63.7215 24.5415C61.6662 22.4862 58.3338 22.4862 56.2785 24.5415Z" fill="#F0B80B"/>
<path fill-rule="evenodd" clip-rule="evenodd" d="M61.8941 43.9293C61.2892 43.8905 60.7247 43.8543 60.2183 43.8125L60.2166 43.8126C55.7934 44.0348 52.0667 44.2221 48.5134 45.4464C46.7577 46.0587 45.0366 46.8386 43.6774 48.1216C41.5829 50.1025 40.5472 52.6412 40.3623 55.5308C40.2661 56.9776 40.5087 57.2194 41.9255 57.1257C41.9724 57.1225 42.0186 57.1158 42.0647 57.1091C42.1284 57.0999 42.1919 57.0907 42.2567 57.0907C42.7721 57.0219 43.2871 56.9498 43.8022 56.8778C45.0958 56.6969 46.3896 56.516 47.6895 56.3849C48.0447 56.3742 48.3906 56.2667 48.6907 56.0739C48.9908 55.8812 49.2342 55.61 49.3952 55.2891C50.0766 54.0802 52.1943 53.9047 52.8604 55.098C53.3345 55.9481 53.9047 55.9417 54.5855 55.934C54.6512 55.9332 54.7178 55.9325 54.7855 55.9325C55.6243 55.9465 56.4632 55.9597 57.3021 55.9729C60.6714 56.026 64.0403 56.079 67.4067 56.182L67.5092 56.1852C68.3744 56.2122 69.1267 56.2356 69.8824 55.6128C70.6678 54.9654 71.6882 55.2735 72.3042 56.1352C72.4928 56.3967 72.7649 56.5841 73.0743 56.6656C74.9725 57.0283 76.863 57.3559 78.7881 57.6678C79.4349 57.777 79.7429 57.4261 79.6351 56.7827C79.4195 55.4879 79.1923 54.1893 78.9229 52.9064C78.4416 50.6212 77.067 48.9132 75.2805 47.5638C72.7662 45.6804 69.8324 44.8224 66.8099 44.3818C65.1033 44.1353 63.3773 44.0245 61.8941 43.9293ZM56.7335 46.387C56.5321 46.5062 56.3189 46.6323 56.1139 46.7801C56.0074 46.6261 55.893 46.4932 55.7914 46.3751L55.7914 46.3751L55.7913 46.3751L55.7913 46.3751L55.7913 46.375L55.7913 46.375L55.7912 46.375C55.6098 46.1642 55.4689 46.0006 55.4862 45.8481C55.5633 45.0682 56.2216 45.0682 56.803 45.0682C57.1919 45.072 57.8619 45.1423 57.654 45.6102C57.5139 45.9253 57.1487 46.1413 56.7335 46.387ZM63.2022 44.7912L61.9663 45.5713C62.4209 45.8668 62.9148 46.0952 63.4333 46.2498C63.6033 46.2767 63.8137 46.0639 64.024 45.8514C64.1184 45.7559 64.2127 45.6605 64.3034 45.5869L63.2022 44.7912ZM50.5271 46.8035L48.9562 48.0787L48.9485 48.0592C48.8361 47.9023 48.7305 47.774 48.6394 47.6634C48.4746 47.4633 48.3572 47.3207 48.3324 47.17C48.2554 46.7606 49.1411 46.2224 49.8225 46.3043C49.9946 46.3231 50.1522 46.4692 50.3102 46.6156L50.3102 46.6156C50.3819 46.6821 50.4538 46.7487 50.5271 46.8035ZM59.0363 47.6535C59.1748 47.6339 59.2895 47.6254 59.3843 47.6183C59.5529 47.6058 59.6589 47.5979 59.7254 47.5405C60.0246 47.2641 60.3099 46.9726 60.5802 46.667C60.2378 46.5257 59.8883 46.4033 59.5328 46.3004C59.4515 46.284 59.3677 46.2841 59.2864 46.3008C59.205 46.3175 59.1278 46.3506 59.0593 46.398C58.7895 46.6279 58.5324 46.8726 58.2893 47.1311L59.0363 47.6535ZM70.8218 47.5328C70.1057 47.6731 69.509 47.2558 69.1817 46.4097L69.1739 46.3901C69.481 46.2087 69.8372 46.1316 70.1905 46.1703C70.544 46.2088 70.8758 46.3611 71.1376 46.6045C71.2801 46.7294 71.4495 47.0453 71.3917 47.1427C71.2601 47.344 71.0553 47.4842 70.8218 47.5328ZM65.2159 47.8525C65.3525 47.8317 65.4687 47.8228 65.5677 47.8151C65.7478 47.8012 65.8707 47.7917 65.9552 47.7238L66.0016 47.6865C66.2657 47.4741 66.6279 47.1829 66.6096 46.9438C66.5673 46.4486 66.1246 46.3277 65.6587 46.4915C65.4688 46.5314 65.2876 46.6053 65.1235 46.7098C64.9297 46.9062 64.7545 47.1204 64.5999 47.3494L65.2159 47.8525ZM53.8309 47.8708C53.6984 47.9779 53.5486 48.0991 53.4071 48.2424L52.148 47.1661C52.2337 47.1131 52.3209 47.0448 52.4082 46.9764C52.6033 46.8236 52.7988 46.6704 52.9797 46.6865C53.0521 46.6929 53.1305 46.696 53.2115 46.6991C53.6693 46.7166 54.2114 46.7374 54.231 47.4002C54.2359 47.5432 54.059 47.6863 53.8309 47.8708Z" fill="#1E2125"/>
<path d="M58.9016 76.1875C55.9749 76.0277 53.0406 75.9719 50.1291 75.6817C46.5113 75.3098 43.5016 73.8555 41.8966 70.4003C41.6446 69.7825 41.5101 69.1244 41.5 68.4588C41.5 68.2617 41.9608 67.8451 42.1949 67.8562C44.034 67.9566 45.8655 68.1613 47.7046 68.284C49.438 68.3955 51.1714 68.4477 52.9047 68.5184C53.4637 68.5406 53.8678 68.6596 54.064 69.2882C54.2528 69.7308 54.5186 70.1373 54.8496 70.4895C55.5407 71.3784 56.3224 71.4602 57.225 70.7797C57.5535 70.5965 57.8579 70.3742 58.1312 70.1176C59.166 68.786 60.5406 68.5667 62.1569 68.5593C67.0967 68.5162 72.0262 68.1072 76.9037 67.3356C77.4891 67.2463 78.0593 67.0678 78.6409 66.9636C79.3244 66.8447 79.6303 67.131 79.6529 67.8377C79.7398 70.4672 78.1424 72.7137 75.752 73.8742C71.9 75.7337 67.7535 75.8639 63.6259 76.128C62.0587 76.2284 60.4801 76.128 58.9054 76.128L58.9016 76.1875Z" fill="#1E2125"/>
<path d="M80.4995 62.3125C79.1581 61.7917 77.8781 61.3766 76.6557 60.8009C75.8371 60.4094 75.1759 60.2253 74.3726 60.8597C73.9852 61.1686 73.511 61.3432 73.0193 61.3579C72.5277 61.3727 72.0442 61.2269 71.6396 60.942C71.3467 60.7378 71.0011 60.6264 70.6462 60.6214C70.2914 60.6165 69.943 60.7185 69.6447 60.9146C68.9821 61.27 68.2463 61.4609 67.4976 61.4717C66.7488 61.4826 66.0082 61.3132 65.3358 60.9771C65.0283 60.7964 64.6838 60.6914 64.3295 60.6702C63.975 60.6492 63.6207 60.7128 63.2948 60.8558C62.9479 61.0423 62.5527 61.1138 62.1641 61.0605C61.7754 61.0071 61.4128 60.8316 61.1269 60.5582C60.9177 60.3313 60.6377 60.1858 60.3346 60.1464C60.0317 60.1071 59.7246 60.1765 59.4663 60.3428C58.8142 60.6561 58.1021 60.8185 57.3811 60.8185C56.6601 60.8185 55.9481 60.6561 55.2959 60.3428C54.6771 60.0844 54.2658 60.0139 53.7584 60.707C53.3971 61.2083 52.6321 61.4902 51.9903 61.6821C51.3977 61.8861 50.7703 61.9643 50.1469 61.9118C49.5235 61.8592 48.9172 61.6772 48.3655 61.3767C48.04 61.1926 47.6796 61.0811 47.3086 61.0494C46.9376 61.0176 46.5642 61.0664 46.213 61.1926C45.0983 61.5059 43.9837 61.545 42.9228 60.9223C42.3269 60.5739 41.8503 60.9223 41.316 61.22C40.6298 61.6059 39.8877 61.8782 39.1174 62.0267C38.8982 62.022 38.684 61.9597 38.4954 61.8458C38.3069 61.7318 38.1504 61.5702 38.0412 61.3767C38.0135 61.1413 38.044 60.9027 38.1299 60.6825C38.2159 60.4623 38.3545 60.2674 38.5332 60.1157C39.571 59.5635 40.6703 58.9605 41.8042 58.8038C44.4948 58.4123 47.2432 58.2635 49.9722 58.0676C55.984 57.5701 62.025 57.561 68.038 58.0402C71.113 58.3182 74.188 58.5845 77.263 58.98C78.5007 59.1405 79.6961 59.634 80.9108 59.9747C81.5988 60.1705 82.1793 60.5973 81.8948 61.3335C81.741 61.7486 81.0569 61.9444 80.4995 62.3125Z" fill="#1E2125"/>
<path d="M52.5872 66.9375C49.1904 66.7449 45.8274 66.5594 42.4457 66.3487C41.7589 66.3095 41.472 65.7992 41.5021 64.9214C41.5285 64.2648 41.9437 64.0791 42.5326 64.1149C45.099 64.2719 47.6655 64.4717 50.2358 64.593C56.5501 64.8499 62.8645 64.9286 69.1675 64.304C72.2096 64.0006 75.2592 63.7652 78.305 63.5046C78.8749 63.4547 79.5052 63.3441 79.6449 64.1149C79.7431 64.6501 79.1919 65.2711 78.4711 65.3817C76.8496 65.6862 75.2116 65.9066 73.5646 66.0419C67.5521 66.3238 61.5359 66.5201 55.5236 66.7342C54.546 66.7698 53.5723 66.7342 52.5948 66.7342L52.5872 66.9375Z" fill="#1E2125"/>
</svg>
