<svg width="120" height="120" viewBox="0 0 120 120" fill="none" xmlns="http://www.w3.org/2000/svg">
<path fill-rule="evenodd" clip-rule="evenodd" d="M60 120C27 120 0 93.0006 0 59.7012C0.3 26.7019 27 -0.297518 60.3 0.00247602C93.3 0.30247 120 27.0019 120 60.6012C119.7 93.3006 93 120 60 120Z" fill="#EDF0F4"/>
<path fill-rule="evenodd" clip-rule="evenodd" d="M37.4274 35.9375C36.3373 30.25 40.6978 25 46.3664 25C51.381 25 55.5235 29.1562 55.5235 34.1875V45.5625C56.8316 45.5625 58.1398 45.3438 59.4479 45.3438C60.7561 45.3438 61.8462 45.3438 63.1544 45.5625V34.1875C63.1544 29.1562 67.2968 25 72.3114 25C77.9801 25 82.3406 30.25 81.4685 35.9375L79.0702 49.2812C87.5732 53 94.1139 59.5625 94.1139 67.6562V72.6875C94.1139 79.4688 89.7534 85.1562 83.4307 88.875C77.108 92.8125 68.823 95 59.4479 95C50.0729 95 41.7879 92.8125 35.4652 88.875C29.3605 85.1562 25 79.4688 25 72.6875V67.6562C25 59.5625 31.3227 53 39.8257 49.2812L37.4274 35.9375ZM75.7998 51.0312L78.6341 35.2812C79.2882 31.3438 76.4539 27.625 72.3114 27.625C68.823 27.625 65.9887 30.4688 65.9887 33.9688V48.4062C65.1166 48.1875 64.0265 48.1875 63.1544 48.1875C61.8462 48.1875 60.7561 47.9688 59.4479 47.9688C58.1398 47.9688 56.8316 47.9688 55.5235 48.1875C54.6514 48.1875 53.5613 48.4062 52.6892 48.4062V34.1875C52.6892 30.6875 49.8549 27.8438 46.3665 27.8438C42.442 27.8438 39.3896 31.5625 40.2617 35.5L43.0961 51.25C33.939 54.75 27.8343 60.875 27.8343 67.875V72.9062C27.8343 83.625 42.006 92.375 59.4479 92.375C76.8899 92.375 91.0616 83.625 91.0616 72.9062V67.875C91.2796 60.6562 85.1749 54.5312 75.7998 51.0312Z" fill="#633001"/>
<path d="M91.2364 72.6266C91.2364 83.481 76.9861 92.3418 59.4473 92.3418C41.9085 92.3418 27.6582 83.481 27.6582 72.6266V67.5316H91.4557V72.6266H91.2364Z" fill="#FEDC90"/>
<path fill-rule="evenodd" clip-rule="evenodd" d="M39.9777 35.2974C39.0977 31.3687 42.1776 27.6582 46.1375 27.6582C49.6573 27.6582 52.5172 30.4956 52.5172 33.9878V48.3931C54.7171 48.1748 56.917 47.9565 59.3369 47.9565C61.5369 47.9565 63.7368 48.1748 65.9367 48.3931V33.9878C65.9367 30.4956 68.7966 27.6582 72.3164 27.6582C76.2763 27.6582 79.3562 31.3687 78.6962 35.2974L75.8363 51.0122C85.0759 54.5044 91.4557 60.6157 91.4557 67.6001C91.4557 78.2949 77.1562 87.0253 59.5569 87.0253C41.9576 87.0253 27.6582 78.2949 27.6582 67.6001C27.6582 60.6157 33.818 54.5044 43.0576 51.0122L39.9777 35.2974Z" fill="#D1884F"/>
<path d="M50.696 66.6456C50.696 69.5253 49.1454 71.962 47.1517 71.962C45.1581 71.962 43.6074 69.5253 43.6074 66.6456C43.6074 63.7658 45.1581 61.3291 47.1517 61.3291C49.1454 61.3291 50.696 63.7658 50.696 66.6456Z" fill="#633001"/>
<path d="M75.5061 66.6456C75.5061 69.5253 73.9555 71.962 71.9618 71.962C69.9681 71.962 68.4175 69.5253 68.4175 66.6456C68.4175 63.7658 69.9681 61.3291 71.9618 61.3291C73.9555 61.3291 75.5061 63.7658 75.5061 66.6456Z" fill="#633001"/>
</svg>
