<svg width="120" height="120" viewBox="0 0 120 120" fill="none" xmlns="http://www.w3.org/2000/svg">
<circle cx="60" cy="60" r="60" fill="#0648B3"/>
<path fill-rule="evenodd" clip-rule="evenodd" d="M74.243 12.3983C70.1009 11.0974 65.7255 10.3253 61.1961 10.154L60.892 12.0583C65.3021 12.2056 69.6951 12.9557 73.9371 14.3127L74.243 12.3983ZM35.1028 16.3602C34.6866 16.0454 34.1683 15.8585 33.6061 15.8585H33.606C32.235 15.8585 31.1237 16.9698 31.1237 18.3409C31.1237 18.4953 31.1379 18.6465 31.1649 18.7931C18.0251 27.7752 9.40027 42.8757 9.40027 59.9939C9.40027 78.7171 19.7185 95.0281 34.9767 103.559L35.2983 101.544C31.7471 99.4913 28.4009 96.949 25.3629 93.911C6.6319 75.18 6.6319 44.8073 25.3629 26.0763C27.5031 23.936 29.7955 22.0408 32.205 20.39C32.6039 20.6631 33.0861 20.8231 33.606 20.8231C34.9772 20.8231 36.0886 19.7117 36.0886 18.3408C36.0886 18.2273 36.0809 18.1159 36.0661 18.0066C40.6099 15.4925 45.4753 13.7713 50.4592 12.8442L50.7797 10.8382C45.1793 11.8001 39.8991 13.6972 35.1028 16.3602ZM26.2519 86.9664C27.6228 86.9664 28.7341 88.0777 28.7341 89.4487C28.7341 89.8092 28.6572 90.1515 28.5191 90.4606C28.5418 90.4834 28.5642 90.5066 28.5865 90.5298C28.6123 90.5566 28.6382 90.5834 28.6647 90.6097C30.964 92.909 33.4586 94.8926 36.0933 96.5666L35.7661 98.6155C32.6104 96.6901 29.71 94.3877 27.1254 91.7729C26.8538 91.875 26.5595 91.931 26.252 91.931C24.8808 91.931 23.7695 90.8197 23.7695 89.4487C23.7695 89.0417 23.8676 88.6576 24.0411 88.3187C17.8029 80.5684 14.0695 70.7174 14.0695 59.9939C14.0695 38.2063 29.4811 20.0203 49.9973 15.7383L49.6723 17.7733C41.9734 19.5169 34.6585 23.384 28.6647 29.3777C12.8874 45.1548 11.8347 70.081 25.5019 87.0817C25.7385 87.0069 25.9904 86.9663 26.2519 86.9663V86.9664ZM82.3847 96.6214C81.9714 96.314 81.4591 96.1319 80.9043 96.1319H80.9041C79.5333 96.1319 78.4219 97.2433 78.4219 98.6144C78.4219 98.689 78.4255 98.763 78.4318 98.8362C75.4726 100.295 72.3814 101.395 69.2229 102.137L68.8971 104.176C72.5567 103.383 76.0502 102.146 79.3202 100.526C79.7501 100.882 80.3021 101.097 80.9041 101.097C82.2754 101.097 83.3866 99.9852 83.3866 98.6143C83.3866 98.4936 83.3778 98.3747 83.3612 98.2587C96.0561 90.2542 104.492 76.111 104.492 59.9938C104.492 51.7772 102.298 44.074 98.4674 37.4347C98.7646 37.0255 98.94 36.5222 98.94 35.9776C98.94 34.6065 97.8287 33.4952 96.4577 33.4952C96.2841 33.4952 96.1146 33.5131 95.9512 33.547C92.4924 28.7599 88.1193 24.6773 83.0877 21.5546L82.7596 23.6086C85.2871 25.2421 87.6824 27.1639 89.8964 29.3779C91.5519 31.0333 93.0438 32.7903 94.374 34.6278C94.1217 35.0164 93.9752 35.48 93.9752 35.9777C93.9752 37.3487 95.0865 38.4601 96.4577 38.4601C96.5861 38.4601 96.7122 38.4503 96.8354 38.4315C106.349 54.9782 104.037 76.4689 89.8964 90.6097C87.573 92.9333 85.0507 94.937 82.3847 96.6214ZM67.5263 80.2997C67.4233 81.5759 66.3553 82.5797 65.0524 82.5797C64.2355 82.5797 63.5111 82.1852 63.0587 81.5766C50.6426 83.6763 37.4133 74.5357 37.4133 59.994C37.4133 47.9175 47.2041 38.1266 59.2806 38.1266C78.6986 38.1266 88.4853 61.7145 74.743 75.4562C72.5441 77.6551 70.0926 79.2486 67.5264 80.2999L67.5263 80.2997ZM66.9294 78.4726C66.4743 77.9472 65.8022 77.6149 65.0524 77.6149L65.0525 77.6147C63.8143 77.6147 62.788 78.5213 62.6007 79.7067C51.3091 81.5385 39.3276 73.2155 39.3276 59.9939C39.3276 42.2721 60.8528 33.3476 73.3898 45.8846C81.1817 53.6761 81.1817 66.3115 73.3898 74.103C71.4189 76.0737 69.2258 77.5133 66.9294 78.4726ZM64.8389 65.5522C69.7801 60.611 66.2596 52.1328 59.2806 52.1328C54.9394 52.1328 51.4195 55.6528 51.4195 59.9939C51.4195 66.9727 59.8977 70.4934 64.8389 65.5522ZM29.5412 39.2055C29.7017 39.2055 29.8587 39.2208 30.0107 39.2499C34.4683 32.9723 40.8946 28.1903 48.3899 25.805L48.0493 27.9368C43.3812 29.568 38.9979 32.2496 35.2672 35.9802C33.9059 37.3415 32.6867 38.7907 31.6049 40.3079C31.8694 40.7024 32.0237 41.1771 32.0237 41.6878C32.0237 43.0586 30.9124 44.1701 29.5413 44.1701C29.437 44.1701 29.3342 44.1636 29.2331 44.151C22.4673 56.974 24.4785 73.218 35.2672 84.0068C36.0631 84.8026 36.8894 85.5495 37.7411 86.2499L37.395 88.4169C28.8885 81.8574 23.4069 71.5663 23.4069 59.9938C23.4069 53.9261 24.9143 48.2111 27.5737 43.2013C27.251 42.7824 27.0591 42.2577 27.0591 41.688C27.0591 40.3167 28.1704 39.2053 29.5413 39.2053L29.5412 39.2055ZM22.3722 71.4086C23.6634 71.4966 24.6834 72.5715 24.6834 73.8851C24.6834 74.5715 24.4048 75.1927 23.9547 75.642C25.8275 79.8746 28.497 83.8398 31.9658 87.3085C33.519 88.8617 35.1733 90.2525 36.9048 91.486L36.57 93.5826C30.2961 89.3322 25.277 83.37 22.1815 76.3671C20.8194 76.3565 19.7189 75.2495 19.7189 73.8851C19.7189 73.1459 20.0419 72.4823 20.5546 72.0276C19.3741 68.2257 18.7381 64.1842 18.7381 59.994C18.7381 41.0817 31.6874 25.195 49.2029 20.7143L48.8713 22.7898C42.68 24.5154 36.8344 27.8106 31.9658 32.6792C21.4856 43.1593 18.2894 58.1652 22.3722 71.4086ZM108.883 54.7058C109.879 55.0285 110.599 55.9639 110.599 57.0678C110.599 58.0684 110.008 58.9307 109.155 59.3236C109.157 59.5467 109.16 59.7699 109.16 59.9939C109.16 84.5282 91.4473 104.925 68.1119 109.094L68.4331 107.083C77.5066 105.329 86.1713 100.938 93.1977 93.9113C102.717 84.3923 107.395 71.8668 107.239 59.3903C106.301 59.0355 105.635 58.1297 105.635 57.0678C105.635 56.1109 106.176 55.2806 106.969 54.8662C105.846 44.351 101.257 34.1359 93.1976 26.0764C90.2434 23.1222 86.9991 20.6351 83.5571 18.6129L83.8795 16.5942C97.5261 24.3455 107.158 38.3464 108.882 54.7057L108.883 54.7058ZM86.0039 68.1802C86.0039 67.3976 85.6417 66.6999 85.0759 66.2449H85.076C85.5601 64.2402 85.8169 62.1469 85.8169 59.9938C85.8169 57.6857 85.5216 55.4466 84.9678 53.3115L83.3353 54.7249C84.1242 58.3446 84.0894 62.1078 83.2309 65.7149C81.9968 65.8587 81.0391 66.9074 81.0391 68.1802C81.0391 68.8815 81.33 69.5147 81.7976 69.9662C81.223 71.2643 80.5309 72.5232 79.7208 73.7262L80.8782 75.4133C81.9354 73.9353 82.8444 72.3442 83.5842 70.6618C84.9263 70.6285 86.0039 69.5304 86.0039 68.1802ZM52.1049 48.4311C52.6277 48.4311 53.1124 48.5927 53.5124 48.8685C55.2391 47.9715 57.2004 47.4638 59.2806 47.4638C70.4059 47.4638 76.0154 60.9787 68.1405 68.8535C60.2656 76.7284 46.7507 71.1193 46.7507 59.9939C46.7507 56.8672 47.8964 54.0077 49.7906 51.8127C49.6822 51.534 49.6225 51.2308 49.6225 50.9137C49.6225 49.5424 50.7338 48.4313 52.1049 48.4313V48.4311ZM54.5873 50.9135C54.5873 50.7754 54.5758 50.6401 54.5542 50.5082L54.5543 50.5083C58.3613 48.6238 63.2479 48.948 66.7871 52.4872C70.9324 56.6326 70.9324 63.3552 66.7871 67.5005C60.1181 74.1697 48.665 69.4233 48.665 59.9939C48.665 57.2862 49.6102 54.9659 51.1143 53.1901C51.4178 53.3223 51.7527 53.3958 52.1049 53.3958C53.476 53.3958 54.5873 52.2846 54.5873 50.9135ZM59.2806 42.7952C65.8361 42.7952 70.9944 46.2145 73.8935 50.9715C73.9765 50.963 74.0608 50.9587 74.146 50.9587C75.5171 50.9587 76.6285 52.07 76.6285 53.441C76.6285 54.1785 76.3066 54.8407 75.7962 55.2953C77.4146 60.8896 76.2942 67.3023 71.4417 72.1549C60.6338 82.9625 42.0821 75.2661 42.0821 59.9938C42.0821 50.4952 49.7821 42.7952 59.2806 42.7952ZM90.4854 59.9938C90.4854 56.4838 89.9059 53.1095 88.8372 49.9609L87.2627 51.3243C90.0062 60.2082 88.4287 70.1395 82.5275 77.8172L83.6606 79.4691C87.9305 74.1308 90.4854 67.3612 90.4854 59.9938ZM59.2806 24.12C63.76 24.12 68.0463 24.9431 72.0002 26.443L71.6913 28.3765C67.5152 26.7401 63.0808 25.9615 58.6588 26.0419L58.9651 24.1243C58.9938 24.124 59.0226 24.1236 59.0513 24.1231L59.0912 24.1224C59.1542 24.1212 59.2172 24.1201 59.2805 24.1201L59.2806 24.12ZM72.7502 21.7456C68.6639 20.3067 64.2778 19.5043 59.7106 19.4567H59.7104L59.4054 21.3671C63.823 21.3816 68.2379 22.1499 72.4426 23.6701L72.7502 21.7456ZM60.4546 14.7974C65.0013 14.9136 69.3799 15.7029 73.4975 17.066L73.1909 18.9851C68.9651 17.5556 64.5632 16.7955 60.1497 16.7071L60.4546 14.7974ZM74.014 55.92C72.7041 55.8514 71.6635 54.7679 71.6635 53.4412C71.6635 52.8427 71.8752 52.2937 72.2278 51.8651C71.6296 50.9137 70.9165 50.014 70.0883 49.1856C60.4858 39.5834 43.9963 46.4171 43.9963 59.9939C43.9963 73.5704 60.486 80.4039 70.0883 70.8019C74.1189 66.7712 75.4269 61.0492 74.014 55.92ZM44.6249 107.684C48.7734 108.958 53.1532 109.703 57.6849 109.846H57.685L57.9892 107.941C53.5781 107.822 49.1805 107.098 44.9307 105.77L44.6249 107.684ZM58.4278 105.194C53.8792 105.11 49.4945 104.354 45.3696 103.021L45.6756 101.105C49.9105 102.503 54.318 103.228 58.7328 103.284L58.4278 105.194ZM99.823 59.9939C99.823 46.1444 92.878 33.9188 82.2812 26.6059L81.9452 28.7085C83.5721 29.8896 85.1283 31.2123 86.5952 32.679C101.68 47.7637 101.68 72.224 86.5952 87.3085C81.8152 92.0887 76.0934 95.352 70.0272 97.1022L69.6947 99.1837C87.0387 94.5866 99.823 78.7842 99.823 59.9939ZM59.1721 100.535C54.6026 100.523 50.2112 99.7549 46.1159 98.3492L46.4227 96.4283C50.638 97.9125 55.0596 98.6419 59.478 98.6198L59.1722 100.535L59.1721 100.535ZM95.1541 59.9939C95.1541 48.5511 89.7967 38.3591 81.4531 31.791V31.7911L81.1042 33.9752C81.8556 34.6065 82.587 35.2738 83.2937 35.9806C96.5553 49.242 96.5553 70.7459 83.2937 84.0072C79.6544 87.6467 75.3936 90.2852 70.8537 91.9267L70.5113 94.072C84.8226 89.3587 95.1541 75.8835 95.1541 59.9939ZM59.8494 95.8607C59.6601 95.8641 59.4709 95.8676 59.2806 95.8676C54.916 95.8676 50.7335 95.0878 46.8649 93.6598L47.173 91.7297C51.3622 93.3253 55.8034 94.0608 60.2254 93.9388L59.9186 95.8594H59.9185L59.8494 95.8607ZM53.3338 59.994C53.3338 54.7109 59.75 52.053 63.4858 55.7888V55.7887C65.8079 58.1108 65.8079 61.8769 63.4858 64.199C59.7501 67.9348 53.3338 65.277 53.3338 59.994Z" fill="white"/>
</svg>
