<svg width="120" height="120" viewBox="0 0 120 120" fill="none" xmlns="http://www.w3.org/2000/svg">
<circle cx="60" cy="60" r="60" fill="#E7EFF3"/>
<path fill-rule="evenodd" clip-rule="evenodd" d="M25 67.3684C25 82.6284 37.3716 95 52.6316 95C67.8916 95 80.2632 82.6284 80.2632 67.3684C80.2632 52.1084 67.8916 39.7368 52.6316 39.7368C37.3716 39.7368 25 52.1084 25 67.3684ZM72.8947 67.3684C72.8947 78.5611 63.8242 87.6316 52.6316 87.6316C41.4389 87.6316 32.3684 78.5611 32.3684 67.3684C32.3684 56.1758 41.4389 47.1053 52.6316 47.1053C63.8242 47.1053 72.8947 56.1758 72.8947 67.3684Z" fill="#FBCC5C"/>
<path fill-rule="evenodd" clip-rule="evenodd" d="M39.7363 52.6316C39.7363 67.8916 52.1079 80.2632 67.3679 80.2632C82.6279 80.2632 94.9995 67.8916 94.9995 52.6316C94.9995 37.3716 82.6279 25 67.3679 25C52.1079 25 39.7363 37.3716 39.7363 52.6316ZM87.6311 52.6316C87.6311 63.8242 78.5605 72.8947 67.3679 72.8947C56.1753 72.8947 47.1047 63.8242 47.1047 52.6316C47.1047 41.4389 56.1753 32.3684 67.3679 32.3684C78.5605 32.3684 87.6311 41.4389 87.6311 52.6316Z" fill="#35D07F"/>
<path fill-rule="evenodd" clip-rule="evenodd" d="M39.7363 51.7179C42.0647 49.8021 44.7837 48.4316 47.7016 47.7021C48.4311 44.7768 49.8016 42.0579 51.7174 39.7368C48.3426 39.8474 45.0047 40.5768 41.8879 41.8884C40.569 45.0053 39.8395 48.3358 39.7363 51.7179ZM72.2974 72.2979C71.5679 75.2232 70.1974 77.9421 68.2816 80.2632C71.6637 80.16 74.9942 79.4305 78.1111 78.1189C79.43 74.9947 80.1595 71.6642 80.2626 68.2821C77.9342 70.1979 75.2153 71.5684 72.2974 72.2979Z" fill="#5EA33B"/>
</svg>
