<svg width="120" height="120" viewBox="0 0 120 120" fill="none" xmlns="http://www.w3.org/2000/svg">
<circle cx="60" cy="60" r="60" fill="#0886FB"/>
<path fill-rule="evenodd" clip-rule="evenodd" d="M84.4177 61.4986C84.4622 61.0692 84.372 60.6366 84.1595 60.2607C83.5664 59.2044 82.097 58.7662 81.1173 59.2295C80.901 59.3361 80.7084 59.4851 80.5508 59.6676L70.4461 68.6127V78.9318C70.4461 78.9318 60.4948 77.4107 58.2789 76.8176C55.4432 76.0696 53.4276 75.5281 51.5763 73.802C50.9316 73.2089 49.1022 71.5078 48.9989 69.1072V68.1276L48.9472 41.7555L62.0175 43.7367C63.0487 43.9167 65.6778 44.5098 67.7404 46.3971C68.4057 47.0221 68.9846 47.7331 69.4618 48.5113C70.2615 49.7742 70.3898 50.4956 70.4148 50.9604V59.2545C70.4599 59.757 70.6576 60.2337 70.9813 60.6207C71.3121 61.0415 71.7925 61.3184 72.3225 61.3937C72.8373 61.4454 73.2505 61.2373 73.6636 61.0589C73.9114 60.9394 74.145 60.7924 74.36 60.6207L84.6462 51.9854V43.0951C84.5429 40.4911 83.2018 38.6101 82.3254 37.3722C81.8356 36.7024 79.3098 33.3253 74.7199 31.7526C74.3068 31.6242 73.9719 31.521 73.7403 31.4396L62.4541 29.3786C61.588 29.2007 60.7096 29.0888 59.8266 29.0437C59.3117 29.0187 57.1975 28.8872 55.1866 29.2503C51.4214 29.9498 46.3682 32.6524 45.6468 36.6476C45.603 36.9032 45.5774 37.1615 45.5701 37.4207H44.3589C43.1948 37.8433 42.0865 38.4061 41.0585 39.0967C40.0272 39.7931 37.9646 41.211 36.4952 43.948C35.5385 45.7798 35.0265 47.8111 35.0007 49.8775V74.8787C34.9963 75.3091 35.0136 75.7395 35.0523 76.1682C35.0523 76.1682 35.2088 78.2824 35.7737 80.0805C36.4185 82.0648 38.4028 85.3402 41.9098 87.4278C42.9411 88.0537 45.2603 88.5874 49.9018 89.6703C52.7436 90.3527 55.628 90.8431 58.5355 91.1382C60.3665 91.3182 61.2428 91.3182 62.0159 91.2665C63.5104 91.1898 65.5479 91.06 67.8155 89.977C71.7075 88.0991 73.4868 84.7173 73.9187 83.841C74.047 83.5828 74.1503 83.3512 74.2317 83.1962H74.7465C77.3061 82.4105 79.587 80.9078 81.3192 78.8661C81.989 78.093 84.2581 75.309 84.4897 71.3122C84.5155 70.8572 84.5155 70.4011 84.4897 69.946C84.413 67.0838 84.413 64.2998 84.413 61.4955L84.4177 61.4986ZM51.653 36.3378C52.4204 35.6742 53.2691 35.111 54.1788 34.6618C55.0301 34.2486 57.221 33.2189 59.7217 33.8104C60.0347 33.8871 60.2882 33.9669 60.4431 34.017L72.0956 36.2095C74.1645 36.4775 76.0773 37.4522 77.5102 38.9684C77.9484 39.4379 79.676 41.3408 79.8826 44.1248C79.9088 44.4592 79.9088 44.7951 79.8826 45.1295V49.7445L75.1628 53.4048V51.1091C75.1268 50.6337 75.0667 50.1605 74.9828 49.6913C74.6406 47.8879 73.8912 46.1864 72.7919 44.7164C72.3788 44.1233 70.0079 40.8495 65.7028 39.4316C65.4712 39.355 65.2897 39.3033 65.1363 39.2517L51.4214 36.8542L51.653 36.3394V36.3378ZM67.6621 84.1837C66.4759 86.0147 63.7702 86.2979 62.429 86.4262C61.8124 86.4875 61.1921 86.5048 60.573 86.4779L46.4715 84.0288L46.085 83.8488C45.0962 83.6527 44.1575 83.2576 43.326 82.6876C42.4414 82.0759 41.695 81.2852 41.1351 80.3669C40.6183 79.5602 40.2436 78.671 40.0272 77.7378C39.8582 76.9939 39.7888 76.2308 39.8206 75.4687L39.7956 49.6396V49.2531C39.8989 46.5724 41.9098 44.5098 43.4825 43.272L44.1273 42.9371C44.1523 51.2891 44.1523 59.6426 44.1789 67.9946C44.1789 68.2262 44.1539 68.5611 44.1789 68.9742C44.3589 72.8145 46.628 75.5735 47.3244 76.3732C50.1866 79.7237 53.9237 80.755 56.3477 81.3997C57.8939 81.8128 68.0252 83.5139 68.0252 83.5139C67.9237 83.7469 67.8027 83.971 67.6637 84.1837H67.6621ZM79.881 70.7535C79.7215 72.3877 79.0847 73.9387 78.0501 75.2136C77.324 76.0872 76.43 76.8061 75.421 77.3278V70.367C76.9155 69.1292 78.4116 67.8929 79.881 66.6801C79.9061 68.0212 79.9061 69.3874 79.881 70.7488V70.7535Z" fill="#FFFDFC"/>
</svg>
