<svg width="120" height="120" viewBox="0 0 120 120" fill="none" xmlns="http://www.w3.org/2000/svg">
<circle cx="60" cy="60" r="60" fill="#EDF0F2"/>
<circle cx="59.9818" cy="60.0115" r="39.9739" fill="#C8D2D9"/>
<path d="M85.3609 90.8593C79.2664 95.8912 71.7967 98.9854 63.9207 99.7355C53.388 100.767 42.8554 97.579 34.6356 90.8593C26.447 84.1397 21.2589 74.451 20.1962 63.8871C19.4149 56.0111 20.9776 48.1038 24.6968 41.1341C28.416 34.1645 34.1355 28.445 41.1052 24.7257C48.0748 21.0065 55.9821 19.4125 63.8581 20.1939C71.7342 20.9752 79.1726 24.0381 85.2984 29.07L77.2349 38.9151C73.0781 35.5084 67.9837 33.3831 62.608 32.883C57.2323 32.3517 51.8566 33.4456 47.106 35.9772C42.3553 38.5088 38.4798 42.4155 35.917 47.1662C33.3854 51.9168 32.3228 57.3237 32.8541 62.6682C33.573 69.8566 37.1047 76.4825 42.6991 81.0456C48.2936 85.6399 55.4821 87.7964 62.6705 87.0776C68.0462 86.5463 73.1093 84.421 77.2661 81.0143L85.3609 90.8593Z" fill="url(#paint0_linear)"/>
<path d="M60.1078 92.7346C78.1414 92.7346 92.737 78.1077 92.737 60.1053C92.737 42.0717 78.1414 27.4448 60.1078 27.4448C42.0742 27.4448 27.4473 42.0717 27.4473 60.1053C27.4473 78.1389 42.0742 92.7346 60.1078 92.7346Z" fill="white"/>
<path d="M60.3264 66.1686L70.6715 60.1678L58.3887 53.8545L60.3264 66.1686Z" fill="#AAB8C1"/>
<path d="M50.0117 60.1991L60.3568 66.1999V55.1359L50.0117 60.1991Z" fill="#AAB8C1"/>
<path d="M60.3256 43.3531L49.9805 60.1991L63.5135 54.1671L60.3256 43.3531Z" fill="#283947"/>
<path d="M60.3262 43.3531V55.5735L70.6713 60.1991L60.3262 43.3531Z" fill="#657786"/>
<path d="M60.3256 76.42L61.6695 68.8565L50.0117 62.1056L60.3256 76.42Z" fill="#283947"/>
<path d="M60.3262 68.1064V76.42L70.6713 62.1056L60.3262 68.1064Z" fill="#657786"/>
<defs>
<linearGradient id="paint0_linear" x1="20.3217" y1="32.0891" x2="38.639" y2="100.004" gradientUnits="userSpaceOnUse">
<stop stop-color="#27D3A2"/>
<stop offset="1" stop-color="#9388FD"/>
</linearGradient>
</defs>
</svg>
