<svg width="120" height="120" viewBox="0 0 120 120" fill="none" xmlns="http://www.w3.org/2000/svg">
<circle cx="60" cy="60" r="60" fill="#EDF0F4"/>
<path d="M71.573 51.0236C66.3446 45.9053 58.0486 45.9053 52.8456 51.0236C47.668 56.2266 47.7612 64.692 52.9049 69.895C58.0486 75.098 66.4802 75.1574 71.6578 69.9543C71.7425 69.8696 72.1069 69.4798 72.7678 68.7765L66.5395 62.4888C65.9209 63.2515 65.548 63.6413 65.5142 63.6413C63.7516 65.4038 60.9043 65.4038 59.1417 63.6413C57.3792 61.8787 57.3792 58.9975 59.0824 57.2689C60.7857 55.5656 63.6414 55.5656 65.4209 57.3282C65.4209 57.3282 70.9968 62.904 82.1146 74.0812C77.5387 80.7163 69.8698 84.9109 61.6161 84.9109C47.9477 84.9109 36.8383 73.7083 36.8383 59.8704C36.8383 46.0324 47.9561 34.8468 61.6161 34.8468C69.5986 34.8468 76.9286 38.694 81.4791 44.9816C80.7418 45.829 78.8691 47.9814 75.8439 51.4388L82.0129 57.6078L92.2325 46.0324C86.9109 33.9909 74.9795 26 61.5822 26C43.0497 26 28 41.1938 28 59.8873C28 78.5808 43.0158 93.8085 61.5822 93.8085C70.0138 93.8085 77.0048 91.1392 83.8263 85.2922C90.0208 80.0044 92.9613 72.6491 92.9613 72.6491L71.573 51.0236Z" fill="url(#paint0_linear)"/>
<defs>
<linearGradient id="paint0_linear" x1="92.9674" y1="25.9974" x2="28" y2="25.9974" gradientUnits="userSpaceOnUse">
<stop stop-color="#22E6B8"/>
<stop offset="1" stop-color="#00C1CE"/>
</linearGradient>
</defs>
</svg>
