<svg width="120" height="120" viewBox="0 0 120 120" fill="none" xmlns="http://www.w3.org/2000/svg">
<path fill-rule="evenodd" clip-rule="evenodd" d="M60 120C27 120 0 93.0006 0 59.7012C0.3 26.7019 27 -0.297518 60.3 0.00247602C93.3 0.30247 120 27.0019 120 60.6012C119.7 93.3006 93 120 60 120Z" fill="#EDF0F4"/>
<circle cx="60" cy="60" r="45" fill="#1C98F7"/>
<path fill-rule="evenodd" clip-rule="evenodd" d="M32.25 56.5073C32.25 62.6983 35.1469 68.4745 40.1644 72.7148C41.0918 73.4968 42.0729 74.2132 43.1006 74.8588V81.843C43.1006 83.6058 45.1397 84.6176 46.5769 83.5694C50.5453 80.6827 53.2987 79.0516 53.9878 78.889C55.5797 79.1412 57.2053 79.2674 58.8478 79.2674C73.47 79.2674 85.4484 69.1583 85.4484 56.5073C85.4484 43.8591 73.4728 33.75 58.8478 33.75C44.2256 33.75 32.25 43.8591 32.25 56.5073ZM67.0238 79.9512C65.1036 80.4481 63.1415 80.767 61.1625 80.9041H61.1653C64.0538 82.8968 67.7212 84.0823 71.6925 84.0823C72.6797 84.0823 73.6584 84.0094 74.6147 83.8665C74.9714 84.0172 75.3172 84.1923 75.6497 84.3906C76.8106 85.0928 77.9369 85.8504 79.0247 86.6607C80.175 87.4987 81.8063 86.6887 81.8063 85.279V81.1844C82.3898 80.8071 82.9487 80.3934 83.4797 79.9456C86.6606 77.2607 88.5 73.5893 88.5 69.6516C88.4935 67.1212 87.7382 64.6489 86.3288 62.5441C85.8928 64.0323 85.2994 65.4673 84.5653 66.8321C84.8578 67.7346 85.0125 68.6791 85.0125 69.6516C85.0125 72.5495 83.64 75.2848 81.21 77.3364C80.5941 77.8548 79.9191 78.3257 79.1934 78.7349C78.6537 79.0373 78.3195 79.6061 78.3187 80.2231V81.9747C76.6509 80.9097 75.5063 80.4052 74.6344 80.4052C74.5364 80.4046 74.4386 80.4121 74.3419 80.4276C71.8983 80.8348 69.3933 80.6718 67.0238 79.9512ZM54.0834 74.5814C54.2044 74.5814 54.3281 74.5898 54.4491 74.6094C55.8834 74.8504 57.3572 74.9737 58.8478 74.9737C71.2003 74.9737 81.0863 66.6275 81.0863 56.5073C81.0863 46.3898 71.2003 38.0436 58.8478 38.0436C46.5009 38.0436 36.6094 46.3898 36.6094 56.5073C36.6094 61.4007 38.9184 66.0082 43.0022 69.4554C44.0288 70.3186 45.1566 71.1033 46.3659 71.7872C47.0437 72.1683 47.4628 72.8802 47.4628 73.6481V77.6755C50.6016 75.5763 52.6659 74.5814 54.0834 74.5814ZM44.0231 57.3677C44.0231 59.2623 45.5841 60.8037 47.5106 60.8037C49.4372 60.8037 50.9981 59.2651 50.9981 57.3677C50.9981 55.4703 49.4372 53.9317 47.5106 53.9317C45.5841 53.9317 44.0231 55.4703 44.0231 57.3677ZM58.8478 60.8037C56.9213 60.8037 55.3603 59.2623 55.3603 57.3677C55.3603 55.4703 56.9213 53.9317 58.8478 53.9317C60.7744 53.9317 62.3353 55.4703 62.3353 57.3677C62.3353 59.2651 60.7744 60.8037 58.8478 60.8037ZM66.6975 57.3677C66.6975 59.2623 68.2584 60.8037 70.185 60.8037C72.1116 60.8037 73.6725 59.2651 73.6725 57.3677C73.6725 55.4703 72.1116 53.9317 70.185 53.9317C68.2584 53.9317 66.6975 55.4703 66.6975 57.3677Z" fill="white"/>
</svg>
