<svg width="120" height="120" viewBox="0 0 120 120" fill="none" xmlns="http://www.w3.org/2000/svg">
<circle cx="60" cy="60" r="60" fill="#279457"/>
<path fill-rule="evenodd" clip-rule="evenodd" d="M67.6203 29.0294L62.4984 31.9731V56.6259L65.2948 58.2154V39.4204L74.9057 44.8661L76.7602 45.9258L78.3203 45.0427V43.5709L65.3095 36.2119V33.592L67.635 32.2674L81.1168 39.9208V46.7353L74.6408 50.3854L74.42 50.2824C74.0456 50.0931 73.6327 49.9923 73.2132 49.988C72.452 49.9876 71.7233 50.2959 71.1935 50.8423C70.6637 51.3888 70.3781 52.1267 70.402 52.8875C70.3981 53.633 70.6905 54.3496 71.2149 54.8796C71.7394 55.4095 72.4529 55.7094 73.1984 55.7133C74.6389 55.704 75.8366 54.6018 75.9654 53.1671V52.9169L82.5003 49.2227L88.5641 52.6667V67.8705L82.5003 71.3145L57.8622 57.3029V31.9436L52.7403 29L36.4768 38.2871V46.7206L29 50.9594V69.5042L36.4768 73.7577V82.2059L52.7403 91.4489L57.8622 88.5053V63.8083L55.0657 62.2187V81.0726L43.6003 74.5672L42.0402 75.4503V76.9221L55.051 84.2812V86.8863L52.7256 88.2109L39.2438 80.5575V73.7283L45.7198 70.0782L45.9405 70.1812C46.3148 70.371 46.7278 70.4718 47.1474 70.4756C47.9058 70.4797 48.6338 70.1772 49.1659 69.6368C49.698 69.0964 49.9892 68.3638 49.9733 67.6056C49.9772 66.86 49.6848 66.1434 49.1603 65.6134C48.6359 65.0835 47.9224 64.7836 47.1768 64.7797C45.7364 64.7891 44.5387 65.8912 44.4098 67.3259V67.5761L37.875 71.2704L31.8259 67.8263V52.6225L37.8897 49.1785L62.5131 63.1901V88.5494L67.635 91.493L83.9132 82.2501V73.7724L91.39 69.5336V50.9888L83.9132 46.7353V38.2871L67.6203 29.0294ZM39.2732 39.9355L52.755 32.2821L55.0805 33.6068V36.1677L39.2732 45.131V39.9355ZM55.0952 39.4204L40.745 47.5595L55.0952 55.7133V39.4204ZM65.3243 64.7797L79.6744 72.9335L65.3243 81.0726V64.7797ZM65.3243 84.3253V86.8568L65.2948 86.8863L67.6203 88.2109L81.1315 80.5575V75.362L65.3243 84.3253Z" fill="black"/>
<path fill-rule="evenodd" clip-rule="evenodd" d="M67.6203 29.0294L62.4984 31.9731V56.6259L65.2948 58.2154V39.4204L74.9057 44.8661L76.7602 45.9258L78.3203 45.0427V43.5709L65.3095 36.2119V33.592L67.635 32.2674L81.1168 39.9208V46.7353L74.6408 50.3854L74.42 50.2824C74.0456 50.0931 73.6327 49.9923 73.2132 49.988C72.452 49.9876 71.7233 50.2959 71.1935 50.8423C70.6637 51.3888 70.3781 52.1267 70.402 52.8875C70.3981 53.633 70.6905 54.3496 71.2149 54.8796C71.7394 55.4095 72.4529 55.7094 73.1984 55.7133C74.6389 55.704 75.8366 54.6018 75.9654 53.1671V52.9169L82.5003 49.2227L88.5641 52.6667V67.8705L82.5003 71.3145L57.8622 57.3029V31.9436L52.7403 29L36.4768 38.2871V46.7206L29 50.9594V69.5042L36.4768 73.7577V82.2059L52.7403 91.4489L57.8622 88.5053V63.8083L55.0657 62.2187V81.0726L43.6003 74.5672L42.0402 75.4503V76.9221L55.051 84.2812V86.8863L52.7256 88.2109L39.2438 80.5575V73.7283L45.7198 70.0782L45.9405 70.1812C46.3148 70.371 46.7278 70.4718 47.1474 70.4756C47.9058 70.4797 48.6338 70.1772 49.1659 69.6368C49.698 69.0964 49.9892 68.3638 49.9733 67.6056C49.9772 66.86 49.6848 66.1434 49.1603 65.6134C48.6359 65.0835 47.9224 64.7836 47.1768 64.7797C45.7364 64.7891 44.5387 65.8912 44.4098 67.3259V67.5761L37.875 71.2704L31.8259 67.8263V52.6225L37.8897 49.1785L62.5131 63.1901V88.5494L67.635 91.493L83.9132 82.2501V73.7724L91.39 69.5336V50.9888L83.9132 46.7353V38.2871L67.6203 29.0294ZM39.2732 39.9355L52.755 32.2821L55.0805 33.6068V36.1677L39.2732 45.131V39.9355ZM40.745 47.5595L55.0952 39.4204V55.7133L40.745 47.5595ZM65.3243 64.7797L79.6744 72.9335L65.3243 81.0726V64.7797ZM65.3243 86.8568V84.3253L81.1315 75.362V80.5575L67.6203 88.2109L65.2948 86.8863L65.3243 86.8568Z" fill="white"/>
</svg>
