<svg width="120" height="120" viewBox="0 0 120 120" fill="none" xmlns="http://www.w3.org/2000/svg">
<circle cx="60" cy="60" r="60" fill="#2FD2E5"/>
<path fill-rule="evenodd" clip-rule="evenodd" d="M33.6653 23.9363C41.7949 17.8199 51.7872 14.6742 61.9674 15.0267L61.9636 15.0305C81.1508 15.7247 97.7448 28.564 103.174 46.9166C108.604 65.2691 101.653 85.026 85.9128 95.9822C70.1724 106.938 49.1661 106.641 33.7444 95.2435C32.1219 94.0554 31.1185 92.2055 31.0098 90.2019C30.9011 88.1983 31.6985 86.2515 33.183 84.8959C35.5538 82.7042 39.1631 82.5299 41.7354 84.4829C54.7902 94.4833 73.3543 92.8584 84.4599 80.7433C85.7075 79.371 86.2395 77.4963 85.8978 75.6761C85.5562 73.856 84.3803 72.2996 82.7193 71.4695C80.3514 70.2814 77.4781 70.8248 75.7116 72.7948C70.2216 78.7942 61.5963 80.8146 53.9993 77.8809C46.4022 74.9472 41.3952 67.6624 41.3952 59.543C41.3952 51.4236 46.4022 44.1389 53.9993 41.2051C61.5963 38.2714 70.2216 40.2918 75.7116 46.2912L76.0017 46.584C77.1621 47.6634 78.7053 48.2389 80.2917 48.184C81.878 48.129 83.3775 47.4482 84.4599 46.2912C86.5924 43.9183 86.5246 40.3101 84.3017 38.0198C73.1515 26.0602 54.6783 24.5769 41.7505 34.6031C39.2036 36.5743 35.5943 36.4016 33.2508 34.1939C31.7563 32.8743 30.9359 30.9554 31.0162 28.9671C31.0965 26.9789 32.0691 25.1319 33.6653 23.9363ZM51.5894 65.0077C53.5505 68.4223 57.1906 70.5348 61.1385 70.5496H61.1423C67.2452 70.5714 72.2104 65.6587 72.2322 59.5768C72.2541 53.4949 67.3244 48.5469 61.2214 48.5252C57.2735 48.5104 53.6176 50.5957 51.6308 53.9955C49.6441 57.3953 49.6283 61.5932 51.5894 65.0077Z" fill="white"/>
</svg>
