<svg width="120" height="120" viewBox="0 0 120 120" fill="none" xmlns="http://www.w3.org/2000/svg">
<circle cx="60" cy="60" r="60" fill="#13BF99"/>
<path fill-rule="evenodd" clip-rule="evenodd" d="M52.01 40.9449H52.0138H68.99L77.51 26H43.49L52.01 40.9449ZM43.49 94H60.5H77.51L68.99 79.0513H52.01L43.49 94ZM89.51 76.9811L80.9863 91.9336L72.4963 76.9849H72.5L80.9863 62.0324H98L89.51 76.9811ZM40.01 28.0362L31.49 42.9849L23 57.9298H40.01L48.5 42.9849L40.01 28.0362ZM48.4963 76.9849H48.5L40.01 91.9336L31.49 76.9849L23 62.0287H40.01L48.5 76.9773L48.4963 76.9849ZM98 57.9336L89.51 42.9849L80.9863 28.0362L72.4963 42.9849L80.99 57.9336H98Z" fill="white"/>
</svg>
