<svg width="120" height="120" viewBox="0 0 120 120" fill="none" xmlns="http://www.w3.org/2000/svg">
<path d="M60 120C93.138 120 120 93.138 120 60C120 26.862 93.138 0 60 0C26.862 0 0 26.862 0 60C0 93.138 26.862 120 60 120Z" fill="#070A0E"/>
<path fill-rule="evenodd" clip-rule="evenodd" d="M34.6615 80.118C32.8675 79.02 31.7695 77.07 31.7695 74.97V63.246C31.7695 61.854 32.9035 60.726 34.2955 60.732C34.7395 60.732 35.1775 60.852 35.5615 61.074L62.0155 76.5C63.5635 77.4 64.5175 79.056 64.5175 80.85V92.994C64.5235 94.662 63.1735 96.018 61.5055 96.018C60.9475 96.018 60.3955 95.862 59.9215 95.574L34.6615 80.118ZM74.0935 57.864C75.6415 58.764 76.5895 60.426 76.5955 62.214V86.862C76.5955 87.588 76.2055 88.26 75.5695 88.614L69.7795 91.872C69.7075 91.914 69.6295 91.944 69.5455 91.968V78.282C69.5455 76.512 68.6155 74.868 67.0915 73.956L43.8595 60.06V44.61C43.8595 43.218 44.9935 42.09 46.3855 42.096C46.8295 42.096 47.2675 42.216 47.6515 42.438L74.0935 57.864ZM85.6735 39.66C87.2275 40.56 88.1815 42.222 88.1815 44.016V80.016C88.1755 80.754 87.7675 81.432 87.1195 81.786L81.6295 84.75V59.688C81.6295 57.918 80.6995 56.28 79.1875 55.368L55.4395 41.124V26.472C55.4395 26.028 55.5595 25.59 55.7755 25.206C56.4775 24.006 58.0195 23.598 59.2195 24.294L85.6735 39.66Z" fill="#00D395"/>
</svg>
