<svg width="120" height="120" viewBox="0 0 120 120" fill="none" xmlns="http://www.w3.org/2000/svg">
<circle cx="60" cy="60" r="60" fill="#EDF0F4"/>
<path fill-rule="evenodd" clip-rule="evenodd" d="M94.1679 37.0548C94.6751 36.8181 95.2161 37.3929 94.9118 37.9339L90.1779 46.0491C88.6225 48.6866 85.7822 50.3772 82.6714 50.3772H46.0177C44.8004 50.3772 43.5831 50.4787 42.4334 50.783C41.9262 50.8844 41.5543 50.3772 41.791 49.9038L44.5637 45.2376C46.7616 41.3829 50.853 39.0159 55.3163 39.0159H79.1886C82.9081 38.9483 90.2456 38.6778 94.1679 37.0548ZM85.275 54.6715C85.7484 54.6715 86.0189 55.1787 85.7822 55.5845L81.9613 62.1443C80.4059 64.7817 77.5655 66.4724 74.4547 66.4724H37.801C36.5837 66.4724 35.3665 66.5738 34.2168 66.8782H34.1154C33.642 66.8782 33.3715 66.371 33.6082 65.9652L38.2406 57.9514C39.2888 56.1593 41.1824 55.0773 43.2788 55.0773H81.6232C82.8404 55.0773 84.0577 54.9758 85.2074 54.6715H85.275ZM77.126 71.612C77.3289 71.1386 76.9231 70.6314 76.4159 70.7329C75.3339 71.0372 74.218 71.2739 73.0346 71.2739H34.5211C32.4247 71.2739 30.5311 72.3559 29.4829 74.148L25.0872 81.6884C24.8505 82.0942 25.121 82.6014 25.5944 82.6014L63.8711 82.4999C68.1654 82.4999 72.1554 80.2006 74.2857 76.515L77.126 71.612Z" fill="#35C480"/>
</svg>
