<svg width="120" height="120" viewBox="0 0 120 120" fill="none" xmlns="http://www.w3.org/2000/svg">
<path d="M60 120C93.138 120 120 93.138 120 60C120 26.862 93.138 0 60 0C26.862 0 0 26.862 0 60C0 93.138 26.862 120 60 120Z" fill="#141414"/>
<path d="M40.2407 45.1847L62.5037 32.3331C63.2721 31.889 64.2168 31.889 64.9852 32.3331L79.007 40.4261C80.417 41.2369 80.6707 43.1685 79.5216 44.3246L74.7701 49.1043C73.9806 49.9009 72.7469 50.0631 71.774 49.4991L65.0063 45.5936C64.2238 45.1424 63.258 45.1424 62.4755 45.5936L39 59.2841V47.3348C39 46.4466 39.4723 45.6288 40.2407 45.1847Z" fill="#FA8C16"/>
<path d="M79.0564 79.5943L64.9781 87.7155C64.2097 88.1596 63.265 88.1596 62.5037 87.7155L40.2407 74.8639C39.4723 74.4198 39 73.602 39 72.7208V61.8784L50.4699 55.2305V66.0941C50.4699 66.9824 50.9422 67.8001 51.7106 68.2372L62.5037 74.4691C63.2721 74.9133 64.2168 74.9133 64.9781 74.4691L71.8093 70.5284C72.7821 69.9644 74.0088 70.1265 74.7983 70.9231L79.5639 75.6887C80.7201 76.8449 80.4663 78.7765 79.0564 79.5943Z" fill="white"/>
</svg>
