<svg width="120" height="120" viewBox="0 0 120 120" fill="none" xmlns="http://www.w3.org/2000/svg">
<path d="M60 120C93.138 120 120 93.138 120 60C120 26.862 93.138 0 60 0C26.862 0 0 26.862 0 60C0 93.138 26.862 120 60 120Z" fill="#EDF0F4"/>
<path d="M87.3926 78.9795C85.6956 78.9795 84.2558 80.1623 83.8958 81.8078L70.3971 81.165C70.4485 80.9079 70.4742 80.6508 70.4742 80.3937C70.4742 79.9308 70.3971 79.468 70.2686 79.0052L75.1795 76.1769C76.388 77.6682 78.5735 77.9768 80.1419 76.8454C81.7103 75.7141 82.1217 73.5543 81.0675 71.9345C80.0133 70.3146 77.8792 69.8004 76.208 70.7517C74.5367 71.7031 73.8939 73.8114 74.7681 75.5341L70.0114 78.2853C68.8801 75.8941 66.0775 74.8142 63.6349 75.817C61.1923 76.8197 59.9581 79.5709 60.8323 82.0649L51.9875 84.199C51.936 82.9906 51.4218 81.8592 50.5733 80.985L52.1674 78.7738C53.9673 79.3909 55.9471 78.491 56.667 76.7169C57.3869 74.9428 56.5899 72.9115 54.8672 72.1145C53.1445 71.2917 51.0618 71.9859 50.1619 73.6572C49.262 75.3284 49.8277 77.4368 51.4475 78.4396L49.9819 80.4708C48.9535 79.6994 47.6422 79.3652 46.3566 79.5195L44.8396 70.8546C46.7422 70.4432 48.2078 68.9519 48.6192 67.0749C49.0306 65.1723 48.3107 63.2182 46.768 62.0611C45.2252 60.8784 43.1426 60.7241 41.4456 61.624L37.6146 54.1419C38.4373 53.7305 39.1058 53.0877 39.5944 52.3164L42.7826 53.1649C42.7569 53.3448 42.7312 53.4991 42.7312 53.6791C42.7312 55.5303 44.1454 57.0988 45.9966 57.2787C47.8479 57.4587 49.5448 56.1988 49.8791 54.3476C50.2133 52.4963 49.1077 50.7222 47.3079 50.2337C45.5081 49.7195 43.6311 50.6708 42.9626 52.4192L39.9543 51.6221C40.3657 50.6451 40.4429 49.5652 40.1857 48.5367L49.0563 44.4486C50.7019 46.5055 53.6844 46.9426 55.8442 45.3999C58.004 43.8572 58.5697 40.9003 57.1298 38.6891L62.7864 33.1611C63.4806 33.5982 64.2777 33.881 65.0748 33.9324V36.375C63.1978 36.5807 61.7837 38.2263 61.8865 40.129C61.9893 42.0316 63.5578 43.5229 65.4604 43.5229C67.3631 43.5229 68.9315 42.0316 69.0344 40.129C69.1372 38.2263 67.7488 36.5807 65.8461 36.375V33.9324C66.5661 33.881 67.2346 33.6753 67.8516 33.341L74.0482 40.4118C72.6083 42.3145 72.7112 44.9628 74.2796 46.7369C75.8737 48.511 78.4963 48.9224 80.5533 47.6882C82.6102 46.4541 83.4844 43.96 82.6874 41.7231L84.6157 40.6432C85.8499 42.0831 87.984 42.3402 89.501 41.1832C91.018 40.0518 91.3779 37.9178 90.3238 36.3493C89.2696 34.7809 87.1612 34.2924 85.5414 35.2694C83.9215 36.2465 83.3302 38.3034 84.2044 40.0004L82.3788 41.0289C81.6332 39.6662 80.2962 38.7405 78.7792 38.5091C77.2622 38.2777 75.6937 38.7662 74.5881 39.8461L68.5201 32.9297C69.1115 32.4668 69.6 31.8498 69.9343 31.1813L75.2566 32.0555C75.668 33.9067 77.4679 35.1152 79.3191 34.7809C81.1961 34.4724 82.4817 32.7497 82.276 30.8727C82.0703 28.9958 80.4247 27.5816 78.5478 27.6845C76.6451 27.7873 75.1795 29.33 75.1538 31.2327L70.2171 30.4099C70.9113 28.0444 69.78 25.5247 67.5431 24.4705C65.3062 23.4163 62.6579 24.1876 61.2951 26.2446C59.9324 28.3015 60.2924 31.0527 62.1436 32.6983L56.6413 38.072C55.7928 37.095 54.5843 36.4779 53.2988 36.375V32.6211C55.1757 32.4154 56.5899 30.7699 56.487 28.8672C56.3842 26.9645 54.8415 25.4989 52.9388 25.4989C51.0361 25.4989 49.4677 26.9902 49.3648 28.8929C49.262 30.7956 50.6504 32.4411 52.5531 32.6468V36.375C50.8561 36.5036 49.3391 37.5064 48.5421 38.9976C47.745 40.5146 47.7707 42.3145 48.6192 43.8058L39.98 47.7654C39.6715 47.0197 39.183 46.3769 38.5659 45.8627L41.9341 39.7947C42.2427 39.8718 42.5255 39.9233 42.834 39.9233C44.6596 39.9233 46.1766 38.5605 46.408 36.7607C46.6394 34.9609 45.4567 33.2896 43.7083 32.8525C41.9341 32.4154 40.1343 33.3668 39.4915 35.0637C38.8487 36.7607 39.5944 38.6634 41.1885 39.5119L37.9231 45.4256C35.9433 44.2429 33.4492 44.5771 31.8294 46.2227C30.2353 47.8682 29.9524 50.3623 31.1609 52.3164C32.3693 54.2705 34.7348 55.1447 36.9203 54.4504L40.8028 62.0354C39.8258 62.7554 39.1315 63.8353 38.9001 65.018L36.0718 64.1952C36.149 63.9124 36.1747 63.6039 36.1747 63.321C36.1747 61.4955 34.812 59.9785 33.0121 59.7728C31.2123 59.5671 29.541 60.7241 29.1039 62.4982C28.6668 64.2724 29.6439 66.0722 31.3666 66.6893C33.0636 67.3064 34.9662 66.5607 35.789 64.9409L38.7973 65.8151C38.7973 65.8922 38.7973 65.9693 38.7973 66.0465C38.7973 67.7435 39.6458 69.3119 41.0856 70.2118L39.1573 72.7315C37.7431 71.4717 35.5833 71.5488 34.2463 72.9115C32.9093 74.2743 32.8579 76.4083 34.1435 77.8225C35.429 79.2366 37.5631 79.3909 39.0544 78.1824C40.5457 76.974 40.8028 74.8399 39.6972 73.2972L41.7799 70.5718C42.3969 70.8546 43.0912 70.9831 43.7854 70.9831C43.8882 70.9831 43.9911 70.9831 44.0939 70.9574L45.6366 79.6737C43.5797 80.2908 42.1398 82.1678 42.0627 84.3019C42.0113 86.4617 43.3483 88.39 45.3795 89.11C47.4108 89.8299 49.6734 89.1614 50.9847 87.4387L58.184 90.6527C58.1326 90.9098 58.0812 91.1926 58.0812 91.4497C58.0812 93.2753 59.4439 94.818 61.2694 95.0237C63.095 95.2294 64.7662 94.0466 65.1776 92.2725C65.589 90.4984 64.5862 88.6986 62.8635 88.0815C61.1409 87.4644 59.2382 88.2615 58.4411 89.907L51.4218 86.7702C51.7303 86.2045 51.936 85.5874 51.9875 84.9447L61.1409 82.7077C61.8351 83.9933 63.0692 84.8932 64.5091 85.2018C65.949 85.4846 67.4403 85.1246 68.5716 84.2247L71.9912 87.1816C71.1942 88.93 71.8884 90.9869 73.5854 91.8611C75.2824 92.761 77.365 92.1697 78.3421 90.5241C79.3191 88.8786 78.8563 86.7702 77.2879 85.6903C75.6937 84.6104 73.5597 84.9704 72.4026 86.4874L69.1372 83.6848C69.6258 83.1705 69.9857 82.5277 70.2171 81.8592L83.8187 82.5277C83.8444 84.5076 85.4385 86.076 87.4183 86.076C89.3981 86.076 90.9923 84.4561 90.9666 82.502C90.9666 80.5736 89.3724 78.9795 87.3926 78.9795Z" fill="#FF473E"/>
</svg>
