<svg width="120" height="120" viewBox="0 0 120 120" fill="none" xmlns="http://www.w3.org/2000/svg">
<circle cx="60" cy="60" r="60" fill="#EDF0F2"/>
<circle cx="59.9832" cy="60.0158" r="44.9734" fill="#C8D2D9"/>
<path d="M88.5355 94.7216C81.6787 100.383 73.2748 103.864 64.4137 104.708C52.5638 105.868 40.7139 102.282 31.466 94.7216C22.2533 87.1615 16.4163 76.261 15.2208 64.3759C14.3417 55.5149 16.0998 46.6187 20.2842 38.7773C24.4686 30.936 30.9034 24.5012 38.7448 20.3168C46.5861 16.1324 55.4823 14.3391 64.3434 15.2181C73.2044 16.0972 81.5732 19.5432 88.4652 25.2044L79.3931 36.2807C74.7165 32.448 68.9849 30.0569 62.9369 29.4943C56.8888 28.8965 50.8408 30.1272 45.496 32.9754C40.1513 35.8236 35.7911 40.219 32.9077 45.5638C30.0595 50.9085 28.864 56.9917 29.4617 63.0046C30.2705 71.0921 34.2439 78.5466 40.5381 83.6804C46.8322 88.8493 54.9197 91.2756 63.0072 90.4669C69.0552 89.8691 74.7516 87.478 79.4283 83.6452L88.5355 94.7216Z" fill="url(#paint0_linear)"/>
<path d="M60.1242 96.8314C80.4132 96.8314 96.8343 80.3751 96.8343 60.1213C96.8343 39.8322 80.4132 23.376 60.1242 23.376C39.8352 23.376 23.3789 39.8322 23.3789 60.1213C23.3789 80.4103 39.8352 96.8314 60.1242 96.8314Z" fill="white"/>
<path d="M66.2418 63.0398C66.2418 59.5938 64.132 58.4334 60.018 57.906C56.9939 57.484 56.3962 56.7808 56.3962 55.3742C56.3962 53.9677 57.4159 53.1238 59.385 53.1238C61.1783 53.1238 62.1981 53.7216 62.62 55.1633C62.6552 55.3039 62.7607 55.4446 62.9013 55.5501C63.042 55.6556 63.1826 55.6907 63.3584 55.6907H64.9408C65.0463 55.6907 65.1517 55.6556 65.2221 55.6204C65.3276 55.5852 65.3979 55.5149 65.4682 55.4446C65.5385 55.3742 65.5737 55.2688 65.6089 55.1984C65.644 55.0929 65.644 54.9875 65.6089 54.882C65.1166 52.6315 63.5694 51.2953 61.1783 50.8734V48.5175C61.1783 48.3065 61.108 48.1307 60.9674 47.99C60.8267 47.8494 60.6509 47.7791 60.4399 47.7791H58.9279C58.7169 47.7791 58.5411 47.8494 58.4005 47.99C58.2598 48.1307 58.1895 48.3065 58.1895 48.5175V50.8031C55.2006 51.225 53.3018 53.159 53.3018 55.6556C53.3018 58.8905 55.3061 60.1212 59.4554 60.6839C62.3036 61.141 63.1123 61.7387 63.1123 63.3211C63.1123 64.9034 61.7409 65.9583 59.807 65.9583C57.2049 65.9583 56.3258 64.8331 56.0094 63.3914C55.9742 63.2156 55.8687 63.0749 55.7632 62.9694C55.6226 62.864 55.4468 62.7936 55.3061 62.7936H53.5831C53.4777 62.7936 53.3722 62.8288 53.3018 62.864C53.1963 62.8991 53.126 62.9694 53.0557 63.0398C52.9854 63.1101 52.9502 63.2156 52.915 63.2859C52.8799 63.3914 52.8799 63.4969 52.915 63.5672C53.337 66.0286 54.9545 67.8219 58.2246 68.2439V70.5646C58.2246 70.7756 58.295 70.9514 58.4356 71.0921C58.5763 71.2327 58.7521 71.3031 58.9631 71.3031H60.4751C60.6861 71.3031 60.8619 71.2327 61.0025 71.0921C61.1432 70.9514 61.2135 70.7756 61.2135 70.5646V68.2439C64.2727 67.7516 66.2418 65.677 66.2418 63.0398Z" fill="#283947"/>
<path d="M54.8852 73.5886C52.037 72.5689 49.5756 70.6701 47.8175 68.2087C46.0593 65.7473 45.1451 62.7936 45.1451 59.8047C45.1451 56.8159 46.0945 53.8622 47.8175 51.4008C49.5756 48.9394 52.037 47.0406 54.8852 46.0209C55.0611 45.9505 55.2369 45.8099 55.3424 45.6341C55.4479 45.4582 55.5182 45.2824 55.5182 45.0715V43.7001C55.5182 43.5946 55.5182 43.454 55.4479 43.3485C55.4127 43.243 55.3072 43.1375 55.2017 43.0672C55.0962 42.9968 54.9907 42.9617 54.8501 42.9265C54.7094 42.8914 54.6039 42.9265 54.4985 42.9968C50.9118 44.1221 47.7823 46.3725 45.5319 49.3965C43.3166 52.4205 42.1211 56.0423 42.1211 59.8047C42.1211 63.532 43.3166 67.1889 45.5319 70.213C47.7472 73.237 50.8767 75.4522 54.4985 76.6126C54.6039 76.6478 54.7446 76.6829 54.8501 76.6829C54.9556 76.6829 55.0962 76.6126 55.2017 76.5423C55.3072 76.472 55.3775 76.3665 55.4479 76.261C55.483 76.1555 55.5182 76.0148 55.5182 75.9094V74.538C55.5182 74.327 55.4479 74.1512 55.3424 73.9754C55.2369 73.7996 55.0962 73.6589 54.8852 73.5886Z" fill="#657786"/>
<path d="M65.0822 43.0321C64.9767 42.9969 64.8361 42.9617 64.7306 42.9617C64.6251 42.9617 64.4845 43.0321 64.379 43.1024C64.2735 43.1727 64.2032 43.2782 64.1328 43.3837C64.0977 43.4892 64.0625 43.6298 64.0625 43.7353V45.1067C64.0625 45.3176 64.1328 45.4935 64.2383 45.6693C64.3438 45.8451 64.5196 45.9506 64.6954 46.0561C67.5436 47.0758 70.005 48.9746 71.7632 51.436C73.5213 53.8974 74.4356 56.8511 74.4356 59.8399C74.4356 62.8288 73.4862 65.7825 71.7632 68.2439C70.005 70.7053 67.5436 72.6041 64.6954 73.6238C64.5196 73.6941 64.3438 73.8348 64.2383 73.9754C64.1328 74.1513 64.0625 74.3271 64.0625 74.5381V75.9094C64.0625 76.0149 64.0625 76.1556 64.1328 76.261C64.168 76.3665 64.2735 76.472 64.379 76.5423C64.4845 76.6127 64.5899 76.6478 64.7306 76.683C64.8361 76.683 64.9767 76.683 65.0822 76.6127C68.6688 75.4875 71.7983 73.237 74.0488 70.213C76.264 67.189 77.4596 63.5672 77.4596 59.8048C77.4596 56.0775 76.264 52.4206 74.0488 49.3965C71.7983 46.4077 68.6688 44.1573 65.0822 43.0321Z" fill="#657786"/>
<defs>
<linearGradient id="paint0_linear" x1="15.362" y1="28.6011" x2="35.9701" y2="105.01" gradientUnits="userSpaceOnUse">
<stop stop-color="#27D3A2"/>
<stop offset="1" stop-color="#9388FD"/>
</linearGradient>
</defs>
</svg>
