<svg width="120" height="120" viewBox="0 0 120 120" fill="none" xmlns="http://www.w3.org/2000/svg">
<path d="M60 0C93.132 0 120 26.868 120 60C120 93.132 93.132 120 60 120C26.868 120 0 93.132 0 60C0 26.868 26.868 0 60 0Z" fill="#1E0B49"/>
<path d="M38.9511 48C41.6031 43.488 45.8511 40.812 49.5831 40.884L51.0951 38.328C53.6991 33.9 52.7991 28.5 49.0791 26.316C45.3591 24.132 40.2111 25.98 37.5951 30.384L36.0951 32.94C37.9671 36.168 37.6791 41.16 35.0271 45.696C32.3751 50.232 28.1271 52.884 24.3951 52.812L22.8831 55.368C20.2791 59.796 21.1791 65.196 24.8991 67.38C28.6071 69.564 33.7671 67.728 36.3831 63.312L37.8831 60.756C36.0111 57.528 36.2991 52.512 38.9511 48Z" fill="#1E90FF"/>
<path d="M35.0388 73.908C32.3868 69.396 28.1388 66.72 24.4068 66.792L22.8948 64.236C20.2908 59.808 21.1908 54.408 24.9108 52.224C28.6308 50.04 33.7788 51.864 36.3948 56.292L37.8948 58.848C36.0228 62.076 36.3108 67.068 38.9628 71.604C41.6268 76.14 45.8628 78.792 49.5948 78.72L51.1068 81.276C53.7108 85.704 52.8108 91.104 49.0908 93.288C45.3828 95.472 40.2228 93.648 37.6068 89.22L36.1068 86.664C37.9668 83.436 37.6788 78.42 35.0388 73.908Z" fill="url(#paint0_linear)"/>
<path d="M65.2439 73.908C62.5919 69.396 58.3439 66.72 54.6119 66.792L53.0999 64.236C50.4959 59.808 51.3959 54.408 55.1159 52.224C58.8359 50.04 63.9839 51.864 66.5879 56.292L68.0999 58.848C66.2279 62.076 66.5159 67.068 69.1679 71.604C71.8319 76.14 76.0679 78.792 79.7999 78.72L81.3119 81.276C83.9159 85.704 83.0159 91.104 79.2959 93.288C75.5879 95.472 70.4279 93.648 67.8119 89.22L66.3119 86.664C68.1959 83.436 67.9199 78.42 65.2439 73.908Z" fill="url(#paint1_linear)"/>
<path d="M84.1307 74.352C86.7827 69.852 91.0307 67.164 94.7627 67.236L96.2747 64.68C98.8787 60.252 97.9787 54.852 94.2587 52.668C90.5387 50.484 85.3907 52.32 82.7747 56.736L81.2747 59.292C83.1467 62.52 82.8587 67.512 80.2067 72.048C77.5427 76.584 73.3067 79.236 69.5747 79.164L68.0627 81.72C65.4587 86.148 66.3587 91.548 70.0787 93.732C73.7987 95.916 78.9467 94.08 81.5627 89.664L83.0627 87.108C81.1667 83.868 81.4787 78.852 84.1307 74.352Z" fill="url(#paint2_linear)"/>
<path d="M44.627 24.6C39.599 24.6 35.531 28.74 35.651 33.792C35.759 38.556 39.647 42.432 44.411 42.552C49.463 42.672 53.603 38.604 53.603 33.576C53.603 28.62 49.583 24.6 44.627 24.6Z" fill="#1E90FF"/>
<path d="M44.6268 77.28C39.5988 77.28 35.5428 81.42 35.6628 86.484C35.7828 91.344 39.8148 95.256 44.6748 95.232C49.6068 95.208 53.6028 91.212 53.6148 86.268C53.6148 81.312 49.5948 77.28 44.6268 77.28Z" fill="#4B0082"/>
<path d="M74.711 24.6C69.683 24.6 65.615 28.74 65.735 33.792C65.843 38.556 69.731 42.432 74.495 42.552C79.547 42.672 83.687 38.604 83.687 33.576C83.687 28.62 79.667 24.6 74.711 24.6Z" fill="#1E90FF"/>
<path d="M74.711 77.28C69.683 77.28 65.615 81.42 65.735 86.472C65.843 91.332 69.887 95.256 74.747 95.232C79.679 95.208 83.675 91.212 83.687 86.268C83.687 81.312 79.679 77.292 74.711 77.28Z" fill="#4B0082"/>
<path d="M59.4591 50.94C54.4311 50.94 50.3631 55.08 50.4831 60.132C50.5911 64.896 54.4791 68.772 59.2431 68.892C64.2951 69.012 68.4351 64.944 68.4351 59.916C68.4351 54.96 64.4151 50.94 59.4591 50.94Z" fill="#8B008B"/>
<path d="M89.879 50.94C84.851 50.94 80.783 55.068 80.903 60.132C81.011 64.896 84.899 68.784 89.651 68.892C94.703 69.012 98.843 64.956 98.843 59.928C98.843 54.96 94.835 50.952 89.879 50.94Z" fill="#8B008B"/>
<path d="M29.0391 50.94C24.0111 50.94 19.9431 55.08 20.0631 60.132C20.1711 64.896 24.0591 68.772 28.8231 68.892C33.8751 69.012 38.0151 64.944 38.0151 59.916C38.0151 54.96 33.9951 50.94 29.0391 50.94Z" fill="#1E90FF"/>
<defs>
<linearGradient id="paint0_linear" x1="29.5975" y1="71.7812" x2="38.9516" y2="80.2374" gradientUnits="userSpaceOnUse">
<stop offset="0.21" stop-color="#1E90FF"/>
<stop offset="1" stop-color="#4B0082"/>
</linearGradient>
<linearGradient id="paint1_linear" x1="60.0602" y1="71.4828" x2="68.8293" y2="79.437" gradientUnits="userSpaceOnUse">
<stop stop-color="#8B008B"/>
<stop offset="1" stop-color="#4B0082"/>
</linearGradient>
<linearGradient id="paint2_linear" x1="81.9877" y1="63.3358" x2="72.6425" y2="70.422" gradientUnits="userSpaceOnUse">
<stop stop-color="#8B008B"/>
<stop offset="1" stop-color="#4B0082"/>
</linearGradient>
</defs>
</svg>
