<svg width="120" height="120" viewBox="0 0 120 120" fill="none" xmlns="http://www.w3.org/2000/svg">
<circle opacity="0.98" cx="60" cy="60" r="60" fill="#243F8D"/>
<rect x="80.7188" y="30.2109" width="5.95312" height="5.95312" fill="white"/>
<rect x="92.625" y="30.2109" width="5.95312" height="5.95312" fill="#8DDB2E"/>
<rect x="86.6719" y="36.1641" width="5.95312" height="5.95312" fill="#8DDB2E"/>
<rect x="92.625" y="77.8828" width="5.95312" height="5.95312" fill="#8DDB2E"/>
<rect x="86.6719" y="65.9766" width="5.95312" height="5.95312" fill="#8DDB2E"/>
<rect x="74.7656" y="54.0703" width="5.95312" height="5.95312" fill="#8DDB2E"/>
<rect x="80.7188" y="48.1172" width="5.95312" height="5.95312" fill="#8DDB2E"/>
<rect x="92.625" y="54.0703" width="5.95312" height="5.95312" fill="#8DDB2E"/>
<path fill-rule="evenodd" clip-rule="evenodd" d="M86.6719 77.8828V83.8359H92.625V89.7891H87.1406H86.6719H80.7188H78.9844H77.8125H69.6562L59.0625 72.9609L48.4219 89.7891H40.2656H39.0938H30.9375L50.25 59.7422L31.4062 30.2109H39.5625H40.6406H48.7969L59.0625 46.6172L69.2812 30.2578H86.6719V36.2109H80.7188V48.1172H74.7656V42.1641H68.8125V48.1172H74.7656V54.0703H68.8125V60.0234H74.7656V65.9766H80.7188V77.8828H74.7656V83.8359H80.7188V77.8828H86.6719ZM68.7656 65.9766V71.9297H74.7188V65.9766H68.7656ZM62.8125 60.0234V65.9766H68.7656V60.0234H62.8125ZM62.8125 60.0234V54.0703H56.8594V60.0234H62.8125Z" fill="#8DDB2E"/>
</svg>
