<svg width="120" height="120" viewBox="0 0 120 120" fill="none" xmlns="http://www.w3.org/2000/svg">
<path fill-rule="evenodd" clip-rule="evenodd" d="M60 120C27 120 0 93.0006 0 59.7012C0.3 26.7019 27 -0.297518 60.3 0.00247602C93.3 0.30247 120 27.0019 120 60.6012C119.7 93.3006 93 120 60 120Z" fill="#EDF0F4"/>
<path fill-rule="evenodd" clip-rule="evenodd" d="M18 36L60.3652 12L102.73 36V84L102.313 84.2087L101.896 84.4174L101.27 84.8348L60.3652 108L18 84V36ZM98.9739 35.7913L60.7826 14.087L48.0522 35.7913H98.9739ZM20.713 36.4174L58.2783 15.1304L33.2348 58.1217L20.713 36.4174ZM100.852 37.4609H74.9739L100.852 81.0783V37.4609ZM47.6348 37.4609H71.4261L47.6348 50.8174V37.4609ZM45.3391 82.5391L19.6696 38.087V82.5391H45.3391ZM62.0348 44.7652L73.513 38.2957L85.2 57.913L62.0348 44.7652ZM45.9652 39.5478L34.2783 59.5826L45.9652 66.2609V39.5478ZM60.5739 45.8087L70.5913 51.4435H57.2348L60.5739 45.8087ZM58.2783 46.8522L48.0522 52.487L51.3913 58.5391L58.2783 46.8522ZM66.4174 53.113H73.0957V64.5913L66.4174 53.113ZM56.1913 53.3217L52.2261 60.2087L55.7739 66.887H63.913L68.087 60L64.3304 53.3217H56.1913ZM74.7652 53.7391L86.4522 60.2087L74.7652 80.0348V53.7391ZM54.313 66.887L47.6348 55.4087V66.887H54.313ZM69.3391 61.4609L72.6783 67.3043L62.4522 72.9391L69.3391 61.4609ZM100.435 83.3739L87.4957 61.6696L62.2435 105.078L100.435 83.3739ZM35.5304 62.087L58.6957 75.2348L46.8 81.913L35.5304 62.087ZM63.287 68.3478H49.9304L59.9478 73.9826L63.287 68.3478ZM73.0956 69.1826V82.7478H49.0957L73.0956 69.1826ZM72.4696 84.2087H21.7565L59.7391 105.913L72.4696 84.2087Z" fill="url(#paint0_linear)"/>
<defs>
<linearGradient id="paint0_linear" x1="103.017" y1="109.062" x2="103.017" y2="12.3663" gradientUnits="userSpaceOnUse">
<stop stop-color="#0B2B85"/>
<stop offset="1" stop-color="#5C25A7"/>
</linearGradient>
</defs>
</svg>
