<svg width="120" height="120" viewBox="0 0 120 120" fill="none" xmlns="http://www.w3.org/2000/svg">
<path d="M59.9614 120C93.1101 120 119.961 93.1487 119.961 60C119.961 26.8513 93.1101 0 59.9614 0C26.8126 0 0 26.8513 0 60C0 93.1487 26.8513 120 59.9614 120Z" fill="#008CE3"/>
<path d="M69.1174 33.7283H45.5501L43.6184 44.6233L64.8676 44.6619C75.3377 44.6619 78.4284 48.4482 78.3512 54.7457C78.3125 57.991 76.9217 63.4385 76.3035 65.2157C74.6809 69.9292 71.3969 75.3381 58.9565 75.2994H38.2868L36.3164 86.2331H59.8064C68.0743 86.2331 71.6287 85.2672 75.3377 83.5287C83.6055 79.7038 88.5508 71.5518 90.5212 60.8886C93.4961 45.0097 89.8257 33.7283 69.1174 33.7283Z" fill="white"/>
<path d="M35.4286 54.5138C29.247 54.5138 28.3584 58.5319 27.7789 60.9659C27.0062 64.1339 26.7744 65.4475 26.7744 65.4475H50.8826C57.0642 65.4475 57.9528 61.4295 58.5323 58.9955C59.305 55.8274 59.5368 54.5138 59.5368 54.5138H35.4286Z" fill="white"/>
</svg>
