<svg width="120" height="120" viewBox="0 0 120 120" fill="none" xmlns="http://www.w3.org/2000/svg">
<circle cx="60" cy="60" r="60" fill="#2D9CDB"/>
<path fill-rule="evenodd" clip-rule="evenodd" d="M78.6548 22.3418C77.7568 21.4498 76.5694 21.002 75.0964 21.002C73.7788 20.965 72.4999 21.4466 71.538 22.3418C70.64 23.2337 70.1891 24.4093 70.1891 25.876V51.6715C65.6513 46.1228 58.8203 42.9235 51.6231 42.9759C47.0089 42.9759 42.8079 44.1254 39.0241 46.4168C35.3041 48.7083 32.3545 51.8954 30.1751 55.9707C28.0559 59.9826 27 64.4759 27 69.4432C27 74.4104 28.1536 78.9336 30.4607 83.009C32.7243 86.9767 36.0107 90.2743 39.9823 92.5628C44.0893 94.8543 48.6096 96 53.547 96C58.4881 96 62.9446 94.8543 66.92 92.5628C70.8916 90.2743 74.178 86.9767 76.4416 83.009C78.8164 78.9336 80 74.4067 80 69.4432V25.876C80 24.4093 79.5529 23.2337 78.6548 22.3418ZM62.2043 85.1101C59.6422 86.6399 56.757 87.4012 53.5488 87.4015C50.3407 87.4012 47.4254 86.6399 44.7957 85.1101C42.2164 83.5039 40.0958 81.2666 38.6371 78.6127C37.1641 75.8734 36.4276 72.8206 36.4276 69.4432C36.4276 66.0657 37.1641 63.0391 38.6371 60.367C40.0792 57.727 42.2037 55.5164 44.7919 53.9629C47.4222 52.3731 50.3418 51.5744 53.547 51.5744C56.7559 51.5744 59.6417 52.3731 62.2043 53.9629C64.8216 55.4801 66.9549 57.6998 68.3592 60.367C69.8359 63.0391 70.5761 66.0695 70.5761 69.4432C70.5761 72.8169 69.8359 75.8734 68.3629 78.6164C66.942 81.2963 64.8129 83.5412 62.2043 85.1101ZM53.5488 87.4015C53.5482 87.4015 53.5476 87.4015 53.547 87.4015H53.5507C53.5501 87.4015 53.5495 87.4015 53.5488 87.4015Z" fill="white"/>
</svg>
