<svg width="120" height="120" viewBox="0 0 120 120" fill="none" xmlns="http://www.w3.org/2000/svg">
<circle cx="60" cy="60" r="60" fill="#EDF0F4"/>
<path d="M20 46H32.2034C39.322 46 45.0847 51.7627 45.0847 58.8814H20V46Z" fill="#2D1680"/>
<path d="M47.627 46H59.8303C66.949 46 72.7117 51.7627 72.7117 58.8814H47.627V46Z" fill="#2D1680"/>
<path d="M20 74.4746H32.2034C39.322 74.4746 45.0847 68.7118 45.0847 61.5932H20V74.4746Z" fill="#2D1680"/>
<path d="M47.627 74.4746H59.8303C66.949 74.4746 72.7117 68.7118 72.7117 61.5932H47.627V74.4746Z" fill="#2D1680"/>
<path d="M71.6948 46H80.7287L99.9999 74.4746H90.4575L71.6948 46Z" fill="#2D1680"/>
<path opacity="0.9329" d="M91.9493 57.1864L84.4917 46.2542H99.5764L91.9493 57.1864Z" fill="#EF88AA"/>
<path opacity="0.9329" d="M79.3221 63.4576L71.9492 74.0509H86.356L79.3221 63.4576Z" fill="#EF88AA"/>
</svg>
