<svg width="120" height="120" viewBox="0 0 120 120" fill="none" xmlns="http://www.w3.org/2000/svg">
<circle cx="60" cy="60" r="60" fill="#666666"/>
<path fill-rule="evenodd" clip-rule="evenodd" d="M77.2382 60.5L93.8194 69.9582C95.7327 71.0294 97.1361 72.8309 97.7127 74.9558C98.2893 77.0806 97.9905 79.3495 96.8836 81.25C94.5733 85.2038 89.4538 86.5582 85.4519 84.2757L68.867 74.8175V93.734C68.867 98.299 65.1202 102 60.4995 102C55.8789 102 52.1321 98.299 52.1321 93.734V74.8175L35.5471 84.2757C31.5453 86.5582 26.4258 85.2038 24.1155 81.25C23.0089 79.3491 22.7106 77.0798 23.2879 74.9549C23.8653 72.83 25.2695 71.0288 27.1834 69.9582L43.7608 60.5L27.1834 51.0418C25.2702 49.9706 23.8667 48.1691 23.2901 46.0442C22.7135 43.9194 23.0124 41.6505 24.1192 39.75C26.4258 35.7962 31.5453 34.4418 35.5471 36.7243L52.1321 46.1825V27.266C52.1321 22.701 55.8789 19 60.4995 19C65.1202 19 68.867 22.701 68.867 27.2623V46.1825L85.4519 36.7243C89.4538 34.4418 94.5733 35.7962 96.8836 39.75C97.9905 41.6505 98.2893 43.9194 97.7127 46.0442C97.1361 48.1691 95.7327 49.9706 93.8194 51.0418L77.2382 60.5ZM54.81 27.266C54.81 24.1611 57.3603 21.6447 60.4995 21.6447C63.6425 21.6447 66.1891 24.1611 66.1891 27.266V47.7067L60.4995 50.955L54.81 47.7105V27.266ZM25.8734 45.3531C26.2651 46.7976 27.2185 48.0227 28.5186 48.7517L46.4387 58.972L52.1321 55.7275V49.2384L34.2082 39.0143C31.4916 37.4636 28.0412 38.3782 26.4371 41.0742C25.6849 42.3663 25.4818 43.9086 25.8734 45.3531ZM34.2082 81.9857C31.4916 83.5364 28.0412 82.6218 26.4371 79.9258C25.6849 78.6337 25.4818 77.0914 25.8734 75.6469C26.2651 74.2024 27.2185 72.9773 28.5186 72.2483L46.4387 62.0242L52.1321 65.2725V71.7616L34.2082 81.9857ZM86.7909 81.9857C89.5065 83.537 92.9567 82.6242 94.562 79.9295V79.9258C96.1335 77.2396 95.2034 73.7989 92.4805 72.2483L74.5603 62.028L68.867 65.2725V71.7616L86.7909 81.9857ZM60.4995 99.3553C63.6425 99.3553 66.1891 96.8389 66.1891 93.734V73.2895L60.4995 70.045L54.81 73.2895V93.734C54.81 96.8389 57.3566 99.3553 60.4995 99.3553ZM71.8825 60.5L68.867 58.7834V62.2166L71.8825 60.5ZM63.1774 52.483L66.1891 50.7626V54.1995L63.1774 52.483ZM57.8216 52.483L54.81 50.7664V54.1995L57.8216 52.483ZM52.1321 62.2166L49.1166 60.5L52.1321 58.7834V62.2166ZM54.81 70.2374L57.8216 68.517L54.81 66.8005V70.2374ZM66.1891 66.8005V70.2336L63.1774 68.517L66.1891 66.8005ZM54.81 63.7445L60.4995 66.9891L66.1891 63.7445V57.2555L60.4995 54.0109L54.81 57.2555V63.7445ZM86.7909 39.0143C89.5075 37.4636 92.9579 38.3782 94.562 41.0742C96.1373 43.7604 95.1996 47.2011 92.4805 48.7517L74.5603 58.9758L68.867 55.7275V49.2384L86.7909 39.0143Z" fill="white"/>
</svg>
