<svg width="120" height="120" viewBox="0 0 120 120" fill="none" xmlns="http://www.w3.org/2000/svg">
<circle cx="60" cy="60" r="60" fill="#EDF0F4"/>
<path fill-rule="evenodd" clip-rule="evenodd" d="M59.9748 32.2483C59.9444 46.9479 59.8809 53.6352 59.7709 53.7453C59.7562 53.7599 58.5953 52.6208 57.191 51.2139L54.6378 48.656L54.3088 42.3169L53.9797 35.9778L56.6388 28.0589L59.298 20.14L58.9928 20.1269C58.6212 20.111 57.2328 20.1831 56.388 20.2621C54.2099 20.4658 52.0236 20.8384 49.8997 21.3678L49.5506 21.4548L48.285 25.2568C47.5889 27.3479 47.0081 29.071 46.9943 29.0859C46.9805 29.1008 45.3595 28.2954 43.392 27.2961C41.4244 26.2968 39.7977 25.4792 39.7769 25.4792C39.6889 25.4792 37.1498 27.1522 36.3221 27.7556C34.9401 28.7631 33.5078 29.9447 32.2187 31.1409L31.9061 31.431L32.7987 31.8893C33.2895 32.1415 35.203 33.1082 37.0507 34.0378C43.4197 37.2417 45.3156 38.2067 45.3301 38.252C45.3532 38.3246 45.7816 45.8545 45.7637 45.8741C45.7548 45.8837 45.1765 45.8596 44.4787 45.8204C40.6428 45.6048 38.113 45.4522 38.0966 45.4354C38.0863 45.425 36.5624 42.4109 34.7101 38.7374C32.8577 35.0639 31.3332 32.0493 31.3222 32.0383C31.3112 32.0273 31.0869 32.2433 30.8236 32.5182C29.2362 34.1762 27.6849 36.1595 26.359 38.226C25.8998 38.9417 25.4096 39.7456 25.3709 39.8467C25.3569 39.883 26.0906 41.3703 27.172 43.4977C28.1756 45.472 28.9821 47.1006 28.9643 47.1168C28.9464 47.133 27.2195 47.7162 25.1266 48.4129C21.7479 49.5377 21.3193 49.6895 21.3017 49.7677C21.2908 49.8162 21.2183 50.0988 21.1406 50.3957C20.7321 51.9576 20.3093 54.5621 20.1343 56.5949C20.0681 57.3645 19.9752 59.4699 20.0061 59.5009C20.0168 59.5115 20.0858 59.5032 20.1593 59.4823C20.2726 59.4501 25.1974 57.8552 30.3716 56.1751C31.1415 55.9252 32.7457 55.4044 33.9365 55.018L36.1016 54.3154L42.4287 54.6487L48.7558 54.9819L51.322 57.5481L53.8883 60.1144L51.3287 62.6724L48.7691 65.2309L42.4499 65.564L36.1308 65.8972L28.1156 63.2267L20.1004 60.5567L20.1257 61.3854C20.2054 63.9934 20.6044 66.8322 21.2975 69.7206L21.4384 70.3082L25.2451 71.5752C27.3388 72.2723 29.0646 72.8542 29.0803 72.8682C29.0959 72.8818 28.4415 74.2072 27.6261 75.8126C26.8107 77.418 25.9894 79.0397 25.8011 79.4165L25.4586 80.1012L25.7954 80.6283C27.3034 82.9896 28.1661 84.1886 29.5628 85.8656C30.1489 86.5691 31.3852 87.9513 31.4268 87.9493C31.4404 87.9489 32.9612 84.9477 34.8063 81.2802C36.6514 77.6131 38.183 74.5944 38.2098 74.5724C38.2685 74.524 45.8149 74.0844 45.8572 74.1268C45.8844 74.154 45.4864 81.5034 45.4471 81.6982C45.4289 81.7886 45.0636 81.9757 35.6509 86.7119C33.6712 87.7081 32.0424 88.5312 32.0314 88.5408C32.0011 88.5672 32.9368 89.4635 33.607 90.0502C34.9188 91.1984 36.3726 92.2979 37.9306 93.3201C38.8209 93.9041 39.8117 94.5096 39.8774 94.5096C39.9028 94.5096 40.717 94.1068 41.6867 93.6149C42.6564 93.123 44.2717 92.3031 45.2762 91.7935C46.2807 91.284 47.1107 90.8809 47.1205 90.8985C47.1304 90.9157 47.7087 92.6422 48.4056 94.7351L49.6726 98.5402L50.1207 98.663C52.229 99.2413 54.4947 99.6516 56.6629 99.848C57.3967 99.9144 59.4641 100.006 59.4968 99.9728C59.5084 99.9612 58.3207 96.3833 56.8574 92.0215L54.1969 84.091L54.5317 77.7527L54.8664 71.4148L57.427 68.854L59.9875 66.2935V83.1468V100L60.8974 99.9724C65.8215 99.824 70.1905 98.9545 74.5454 97.2576C79.5887 95.2919 84.3153 92.2075 88.1631 88.3704C92.227 84.3182 95.3129 79.5769 97.3559 74.2456C98.6253 70.9329 99.476 67.2518 99.7991 63.6739C100.015 61.2782 100.016 58.746 99.7995 56.3149C99.4328 52.191 98.3853 48.0555 96.7243 44.1766C96.344 43.289 95.3861 41.3432 94.9322 40.5371C90.4316 32.544 83.5806 26.4619 75.1654 22.9891C71.4911 21.4729 67.484 20.5081 63.4222 20.1617C62.6547 20.0962 60.7402 20.002 60.1439 20.0004L60.0003 20L59.9748 32.2483ZM70.2065 30.6188C73.3748 31.7426 76.3364 33.358 78.9648 35.3955C85.5527 40.5022 89.8269 47.9477 90.8604 56.1149C91.0447 57.5724 91.0811 58.2231 91.0803 60.0144C91.0791 61.8025 91.0467 62.3669 90.8604 63.8739C90.2824 68.548 88.6087 73.0826 85.9986 77.0444C82.3592 82.5692 77.1039 86.8111 70.9843 89.1631C70.3204 89.4183 69.001 89.8702 68.9202 89.8702C68.875 89.8702 68.8662 85.0557 68.8662 60.0372V30.2043L69.2166 30.2981C69.4094 30.3497 69.8549 30.494 70.2065 30.6188Z" fill="#FF00AF"/>
</svg>
