<svg width="120" height="120" viewBox="0 0 120 120" fill="none" xmlns="http://www.w3.org/2000/svg">
<circle cx="60" cy="60" r="60" fill="#322A3F"/>
<path d="M59.2706 31.962L36.1988 80.0676H74.5016C75.6111 80.0672 76.6141 80.728 77.0516 81.7476L77.0918 81.8406C77.3793 82.51 77.336 83.2755 76.9748 83.9082C76.3246 85.0411 75.1184 85.7399 73.8122 85.7406H33.1058C32.4779 85.7405 31.8642 85.5544 31.3418 85.206L31.127 85.0638C29.8074 84.1804 29.339 82.4606 30.0284 81.03L57.2516 25.0092C57.5363 24.4245 57.9413 23.9066 58.4402 23.4894C59.4148 22.6766 60.8271 22.663 61.817 23.457C62.0325 23.6268 62.2071 23.8429 62.3276 24.0894L89.9402 80.4972C90.3146 81.2637 90.3926 82.1415 90.1592 82.962C89.8958 83.8897 89.0476 84.5291 88.0832 84.5268H87.767C86.4792 84.5269 85.3072 83.783 84.7592 82.6176L60.9452 31.9704C60.7949 31.6447 60.4696 31.4354 60.1109 31.4336C59.7522 31.4318 59.4248 31.6378 59.2712 31.962H59.2706Z" fill="#F4AE95"/>
</svg>
