<svg width="120" height="120" viewBox="0 0 120 120" fill="none" xmlns="http://www.w3.org/2000/svg">
<circle cx="60" cy="60" r="60" fill="#EDF0F4"/>
<path opacity="0.25" d="M54.9951 57.158L46.878 43.1148L38.6251 28.9316C38.1532 28.1312 37.4987 27.4537 36.7151 26.9545H36.6469C35.8101 27.439 35.125 28.1473 34.6687 28.9998L28.5302 39.6359C27.6436 41.1521 27.6436 43.0286 28.5302 44.5449L35.8965 57.2942C36.4422 58.1804 36.6469 59.2031 36.6469 60.2257C36.641 61.2497 36.3833 62.2565 35.8965 63.1573L28.5984 75.7694C27.7118 77.2857 27.7118 79.1622 28.5984 80.6784L34.737 91.3144C35.2144 92.1327 35.8965 92.8824 36.7151 93.3598H36.7851C37.6038 92.8824 38.2177 92.2006 38.6951 91.3827L46.8801 77.2016L54.9951 63.0212C56.0179 61.2006 56.0179 58.9786 54.9951 57.158Z" fill="url(#paint0_linear)"/>
<path opacity="0.25" d="M94.1465 56.7489L85.9615 42.6356L77.5721 28.1136C77.1849 27.4552 76.6757 26.8767 76.0717 26.4091C75.7304 26.1365 75.3892 26 74.98 26C70.6828 26 67.7498 26.1365 65.5673 26.1365C65.2264 26.1365 65.0216 26.5456 65.0899 26.8865L67.2042 38.7514C67.2042 38.8879 67.2042 39.024 67.1359 39.1605C66.3173 40.6606 66.3855 42.5012 67.2724 44.0013L74.7753 57.0912C75.3209 58.0456 75.5939 59.0683 75.5939 60.091C75.5939 61.1136 75.3209 62.1363 74.7753 63.0908L67.2042 76.1806C66.3176 77.6807 66.3176 79.5213 67.0677 81.0214C67.1377 81.1579 67.1377 81.294 67.1377 81.4305L65.0234 93.2254C64.9534 93.5663 65.1599 93.9754 65.5008 93.9754C67.4789 93.9754 64.6821 94.1798 75.1862 94.1798C75.3909 94.1798 75.6636 94.1098 75.8683 94.0433C76.6187 93.7707 77.0961 92.8841 77.5052 92.1344L85.895 77.5442L94.0117 63.431C95.3067 61.3845 95.3067 58.8625 94.1482 56.7489" fill="url(#paint1_linear)"/>
<path d="M90.8032 57.158L74.5015 28.9316C73.4784 27.1592 71.5685 26 69.4542 26H36.8507C35.7594 26 34.7364 26.3409 33.7812 26.8862V26.9544C34.5648 27.4537 35.2193 28.1312 35.6912 28.9316L43.8762 43.1148C44.6266 42.7739 45.5131 42.5695 46.3317 42.5695H59.8367C61.951 42.5695 63.8616 43.6604 64.8839 45.501L71.6364 57.158C72.6595 58.9307 72.6595 61.1805 71.6364 63.0215L64.8839 74.6802C63.8609 76.4529 61.8827 77.6117 59.8367 77.6117H46.3996C45.5514 77.609 44.7137 77.423 43.9441 77.0664L35.7594 91.2476C35.2875 92.0479 34.6331 92.7254 33.8495 93.2247V93.2947C34.736 93.84 35.8277 94.1809 36.919 94.1809H69.5889C71.7033 94.1809 73.6139 93.0899 74.6362 91.2493L90.9387 63.0211C91.8945 61.1805 91.8945 58.9986 90.8032 57.158Z" fill="url(#paint2_linear)"/>
<path d="M51.9933 57.158L43.8766 43.1148L35.6916 28.9316C35.2197 28.1312 34.5653 27.4537 33.7817 26.9545H33.7148C32.878 27.439 32.1929 28.1473 31.7366 28.9998L25.6649 39.5676C24.7784 41.0839 24.7784 42.9604 25.6649 44.4766L33.0313 57.2259C33.5769 58.1121 33.7817 59.1348 33.7817 60.1575C33.7758 61.1814 33.5181 62.1882 33.0313 63.0891L25.6649 75.7694C24.7784 77.2857 24.7784 79.1622 25.6649 80.6784L31.8038 91.3155C32.2812 92.1338 32.9634 92.8835 33.782 93.3609H33.852C34.6707 92.8835 35.2845 92.2017 35.7619 91.3837L43.9452 77.2044L52.0616 63.1594C53.0846 61.1805 53.0846 58.9987 51.9933 57.158Z" fill="url(#paint3_linear)"/>
<defs>
<linearGradient id="paint0_linear" x1="27.9271" y1="93.2704" x2="55.749" y2="93.2704" gradientUnits="userSpaceOnUse">
<stop stop-color="#00BA96"/>
<stop offset="0.52" stop-color="#00D9AF"/>
<stop offset="1" stop-color="#00D9AF"/>
</linearGradient>
<linearGradient id="paint1_linear" x1="65.0573" y1="94.1804" x2="95.0488" y2="94.1804" gradientUnits="userSpaceOnUse">
<stop stop-color="#008D85"/>
<stop offset="1" stop-color="#00FFE0"/>
</linearGradient>
<linearGradient id="paint2_linear" x1="33.7812" y1="94.1801" x2="91.6397" y2="94.1801" gradientUnits="userSpaceOnUse">
<stop stop-color="#008D94"/>
<stop offset="1" stop-color="#00FFE0"/>
</linearGradient>
<linearGradient id="paint3_linear" x1="24.9999" y1="93.361" x2="52.8207" y2="93.361" gradientUnits="userSpaceOnUse">
<stop stop-color="#00BA96"/>
<stop offset="0.52" stop-color="#00D9AF"/>
<stop offset="1" stop-color="#00FAAF"/>
</linearGradient>
</defs>
</svg>
