<svg width="120" height="120" viewBox="0 0 120 120" fill="none" xmlns="http://www.w3.org/2000/svg">
<circle cx="60" cy="60" r="60" fill="#786DBC"/>
<path d="M59.4888 40.5311L53.3795 34.4395C52.2715 33.3854 51.813 31.8233 52.1768 30.3418C52.5406 28.8602 53.6714 27.6842 55.1433 27.2568C56.6152 26.8294 58.2045 27.2155 59.3126 28.2697L59.4551 28.4114L73.0913 41.9747C74.7677 43.6421 74.7677 46.3391 73.0913 48.0065L59.4401 61.5697C57.7556 63.1683 55.0962 63.1372 53.4499 61.4997C51.8036 59.8623 51.7724 57.2171 53.3795 55.5416L59.7814 49.1741C50.9461 47.6229 42.078 51.7291 37.5836 59.4525C33.0892 67.1759 33.9267 76.8697 39.68 83.7172C45.4332 90.5647 54.8756 93.1059 63.3153 90.0782C71.755 87.0504 77.3925 79.0992 77.4267 70.1754V23.2637C77.4267 20.9089 79.3459 19 81.7134 19C84.0808 19 86 20.9089 86 23.2637V70.7462C85.755 83.0765 77.9097 93.9867 66.2572 98.2017C54.6047 102.417 41.5459 99.0679 33.3948 89.7747C25.2436 80.4815 23.6795 67.1584 29.4587 56.2472C35.2379 45.3361 47.1698 39.0849 59.4851 40.5161L59.4888 40.5311Z" fill="white"/>
</svg>
