<svg width="120" height="120" viewBox="0 0 120 120" fill="none" xmlns="http://www.w3.org/2000/svg">
<circle cx="60" cy="60" r="60" fill="#49A0E5"/>
<path d="M39.0991 68.8181V38.7669H82.0113V68.8181L74.3711 80.151L60.1096 86.3904L46.3573 80.151L39.0991 68.8181Z" fill="#49A0E5"/>
<path fill-rule="evenodd" clip-rule="evenodd" d="M35.043 49.2905C35.0887 64.4837 35.0767 64.1064 35.616 67.269C36.5472 72.7295 38.8178 76.9004 43.2986 81.3812C45.0927 83.1752 46.4963 84.3363 48.3758 85.5807C51.9808 87.9677 55.9714 89.5441 59.5482 89.9944C60.4551 90.1085 60.7082 90.0977 61.9158 89.893C67.302 88.9799 72.6472 86.1307 77.0842 81.8072C79.2774 79.6702 80.8749 77.7011 82.2813 75.4009C84.396 71.9424 85.4621 67.9594 85.7729 62.3563C85.8315 61.2998 85.8803 54.7126 85.8815 47.7177L85.8835 35H60.4418H35L35.043 49.2905ZM79.267 51.1616C79.267 56.3517 79.2425 60.5982 79.2126 60.5982C79.1825 60.5982 74.406 57.0341 68.598 52.6779L58.0378 44.7578L55.6458 44.787L53.2538 44.8163L57.7584 48.1787C60.2359 50.0281 66.0279 54.3558 70.6294 57.7959L78.9959 64.0506L78.9797 64.8462C78.9601 65.8081 78.4984 68.1195 78.1108 69.1968C76.8503 72.6994 74.2664 76.0725 70.6762 78.902C68.1407 80.9004 64.6736 82.4861 61.7035 83.0059C60.3287 83.2465 59.2558 83.1408 57.2674 82.5684C51.8814 81.0182 46.6443 76.7444 43.7693 71.5534C42.1531 68.6352 41.414 64.5939 41.4125 58.6656L41.4119 56.7871L41.7645 57.0367C41.9583 57.174 48.0151 61.6922 55.224 67.0773C62.4328 72.4624 68.3822 76.8683 68.4449 76.8683C68.5848 76.8683 69.8565 75.8332 70.3666 75.3039C70.7054 74.9526 70.7233 74.9037 70.5584 74.7805C70.4584 74.7058 63.8863 69.7881 55.9537 63.8522L41.5307 53.0598L41.4985 47.3923L41.4662 41.725H60.3666H79.267V51.1616Z" fill="#1A2D4E"/>
</svg>
