<svg width="120" height="120" viewBox="0 0 120 120" fill="none" xmlns="http://www.w3.org/2000/svg">
<circle cx="60" cy="60" r="60" fill="#1693D4"/>
<path fill-rule="evenodd" clip-rule="evenodd" d="M37.3647 62.1525C37.2675 60.8044 37.2612 59.4514 37.3459 58.1025H26.7822L15 48.735H39.5001C44.1806 37.3862 55.3049 29.9811 67.6446 30.0001C84.4106 30.0001 98 43.4325 98 60C98 76.5675 84.4106 89.9999 67.6446 89.9999C55.406 90.0181 44.3522 82.7328 39.6057 71.52H15L26.7822 62.1525H37.3647ZM84.935 60.5588C84.935 57.4463 84.5125 54.7313 83.6636 52.4138C82.8148 50.0963 81.6377 48.1538 80.1361 46.6013C78.6308 45.045 76.8501 43.8713 74.7864 43.0838C72.7227 42.2963 70.4855 41.8988 68.0596 41.8988C65.4414 41.8988 63.0042 42.3413 60.7481 43.2263C58.492 44.1113 56.5415 45.3563 54.8928 46.9575C53.2441 48.5625 51.9501 50.4975 51.0031 52.77C50.0562 55.0425 49.5846 57.57 49.5846 60.345C49.5846 63.165 50.0562 65.6887 51.0031 67.9125C51.9463 70.1362 53.2555 72.015 54.9268 73.545C56.6019 75.0787 58.5788 76.26 60.8575 77.1C63.26 77.9584 65.7973 78.3838 68.3501 78.3562C74.8958 78.3562 79.8947 76.0575 83.3354 71.4637L77.5141 66.8737C76.5445 68.2612 75.3108 69.3487 73.8055 70.1362C72.304 70.9237 70.4591 71.3212 68.2785 71.3212C67.0184 71.3212 65.8035 71.1075 64.6415 70.6762C63.4795 70.245 62.4345 69.66 61.5102 68.9175C59.634 67.4328 58.4728 65.232 58.3109 62.8537H84.8634C84.9124 62.4712 84.935 62.0887 84.935 61.7062V60.5588ZM58.3109 56.6813H76.205C76.2106 55.611 76.0515 54.5462 75.7334 53.5238C75.4165 52.5188 74.9222 51.6338 74.2431 50.8688C73.564 50.1038 72.7001 49.4963 71.6588 49.0388C70.6175 48.5813 69.3914 48.3563 67.988 48.3563C65.3659 48.3563 63.1513 49.1363 61.3291 50.6888C59.5106 52.245 58.5071 54.2438 58.3109 56.6813Z" fill="white"/>
</svg>
