<svg width="120" height="120" viewBox="0 0 120 120" fill="none" xmlns="http://www.w3.org/2000/svg">
<circle cx="60" cy="60" r="60" fill="#EDF0F4"/>
<ellipse cx="60.1461" cy="60.0876" rx="44.1818" ry="41.1136" fill="white"/>
<path fill-rule="evenodd" clip-rule="evenodd" d="M15 60C15 35.1331 35.1331 15 60 15C84.8669 15 105 35.1331 105 60C105 84.8669 84.8669 105 60 105C35.1331 105 15 84.8669 15 60ZM22.7435 60.6136C22.7435 81.6818 39.8377 98.776 60.9058 98.776C81.974 98.776 99.0682 81.6818 99.0682 60.6136C99.0682 39.5455 81.974 22.4513 60.9058 22.4513C39.8377 22.4513 22.7435 39.5455 22.7435 60.6136Z" fill="#F6BE1D"/>
<circle cx="60.9351" cy="60.6429" r="35.8831" fill="#F6BE1D"/>
<path fill-rule="evenodd" clip-rule="evenodd" d="M37.2078 67.7727C36.3312 70.1104 34.5487 75.0487 35.6006 81.4188C36.2727 85.4805 37.8214 88.5487 39.0195 90.3896C38.8442 87.8766 38.4643 77.737 45.7403 68.7078C51 62.1915 57.5455 59.6493 60.3506 58.7435C61.0812 58.4805 64.3539 57.3993 65.1136 57.1655C69.1372 55.837 70.4981 55.396 70.9979 55.2341L70.998 55.2341C71.2676 55.1467 71.2865 55.1406 71.3377 55.1201C73.8506 54.2435 79.5779 52.2272 83.9026 47.172C85.9854 44.7468 87.0096 42.4609 88.1176 39.9879L88.1981 39.8084C90.0097 35.6591 90.8279 31.948 91.2078 29.3766C88.461 32.7954 85.7727 35.3668 83.6688 37.1785C81.6234 38.9318 79.461 40.7727 76.2175 42.5844C73.8478 43.9137 71.9639 44.6143 68.5025 45.9016L68.3864 45.9448C65.4643 47.0259 62.9221 47.8441 60.9351 48.4285C60.4091 48.5746 59.8539 48.7207 59.3279 48.8376C56.6396 49.422 52.5487 50.7078 48.3701 53.6006C45.6234 55.5 40.1299 59.9707 37.2078 67.7727ZM69.6429 67.9772C66.8669 67.8311 63.6526 67.8311 60.1461 68.1818C55.0617 68.6785 50.6786 69.7013 47.1721 70.8117C47.3182 70.3441 47.5812 69.7013 47.9903 68.9415C49.5974 66.0194 52.0812 64.4123 55.2955 62.7759C58.2175 61.2565 62.3084 59.4155 67.5097 57.8084C70.1396 57.0487 72.2727 56.2597 73.8507 55.6168C76.0714 54.7402 77.5325 54.1558 79.3149 53.0454C81.2435 51.8766 82.6753 50.6493 83.6104 49.7435C83.5812 51.5552 83.3182 54.3019 82.1493 57.4285L82.1266 57.4884L82.1266 57.4885C81.2539 59.7869 80.1668 62.65 77.3279 64.9675C74.4935 67.2759 71.3377 67.8311 69.6429 67.9772ZM47.2305 77.8246C48.2825 77.6493 49.5682 77.5324 54.6818 78.0584C56.026 78.2045 57.2825 78.3506 58.3929 78.4967C61.7825 78.935 65.2305 78.3214 68.211 76.5974C69.2922 75.9837 70.3734 75.1948 71.3961 74.1428C73.2662 72.2727 74.2597 70.2857 74.8149 68.8831C73.1201 69.1753 71.1916 69.4383 69.0584 69.5259C67.7727 69.5844 66.5455 69.5844 65.4058 69.5259C60.7305 69.3506 56.9903 70.0519 54.5065 70.6948L54.4564 70.7077C50.2878 71.7863 45.292 73.0788 42.8182 77.3571C42.2338 78.3798 41.9123 79.3441 41.737 79.987C43.9286 78.6428 45.8571 78.0584 47.2305 77.8246ZM44.0117 85.6097C43.6971 85.6353 43.3453 85.664 42.9935 85.7142C41.737 85.8896 40.7143 86.2694 39.9545 86.5909C40.4513 84.9837 41.2403 83.961 41.8539 83.3181C44.4253 80.6298 48.8377 79.8993 53.3377 81.1558C53.4807 81.1916 53.6237 81.23 53.7675 81.2688C54.094 81.3566 54.4247 81.4456 54.7695 81.5065C56.4058 81.8279 57.7792 81.8863 58.8312 81.8571C60.3214 81.8279 61.7532 81.7987 63.4481 81.1266C64.6461 80.6591 65.5519 80.0454 66.1364 79.5779C65.8149 80.513 64.4708 84.0194 60.7305 86.0649C59.7955 86.5616 58.8896 86.8831 58.0422 87.0876C56.7565 87.3798 55.4416 87.4675 54.1266 87.3214C53.3084 87.2337 52.461 87.1168 51.5844 86.9707C50.1234 86.7078 48.7792 86.3863 47.5519 86.0357C46.4416 85.7142 45.3019 85.5681 44.1623 85.5974C44.1132 85.6015 44.063 85.6056 44.0117 85.6097Z" fill="#FDFFFA"/>
</svg>
