<svg width="120" height="120" viewBox="0 0 120 120" fill="none" xmlns="http://www.w3.org/2000/svg">
<circle cx="60" cy="60" r="60" fill="#EDF0F4"/>
<circle cx="77.4308" cy="60.4085" r="12.5695" fill="#2B5EBA"/>
<circle cx="61.5472" cy="37.0608" r="6.06083" fill="#2B5EBA"/>
<circle cx="61.5472" cy="83.7859" r="6.06083" fill="#2B5EBA"/>
<path fill-rule="evenodd" clip-rule="evenodd" d="M57.3073 57.0048C57.0386 56.7361 56.7998 56.4077 56.6206 56.0793C56.6206 56.0793 53.6649 49.8692 43.5436 53.8699C43.0062 54.1386 42.4688 54.3775 41.9313 54.5566H41.9015C38.7367 55.5717 35.1838 54.8253 32.6759 52.3174C29.0931 48.7645 29.123 42.9724 32.6759 39.4195C36.2288 35.8666 41.9911 35.8666 45.5738 39.4493C46.7681 40.6436 47.5742 42.1065 47.9623 43.6591C47.9623 43.6591 50.4105 53.0937 58.5912 50.8246C58.7703 50.735 58.9793 50.6753 59.1584 50.6454H59.1883C60.3825 50.3767 61.6962 50.7052 62.6516 51.6606C64.1444 53.1235 64.1444 55.512 62.6516 57.0048C61.1887 58.4977 58.8002 58.4977 57.3073 57.0048ZM59.9048 69.6639C59.5167 69.6639 59.1286 69.6042 58.7703 69.4848C58.7703 69.4848 52.2915 67.2157 47.9325 77.2176C47.7533 77.7848 47.5443 78.3222 47.2756 78.8298V78.8597C45.7828 81.7856 42.7076 83.7859 39.1846 83.7859C34.1388 83.7859 30.0485 79.6956 30.0485 74.6499C30.0485 69.6042 34.1388 65.5139 39.1846 65.5139C40.9162 65.5139 42.4986 65.9916 43.872 66.7977C43.872 66.7977 52.2616 71.724 56.4415 64.3495C56.5012 64.1704 56.5908 63.9912 56.7102 63.8419V63.8121C57.3969 62.7671 58.5613 62.0804 59.9048 62.0804C61.9948 62.0804 63.6966 63.7822 63.6966 65.8722C63.6966 67.9621 61.9948 69.6639 59.9048 69.6639Z" fill="#2B5EBA"/>
</svg>
