<svg width="120" height="120" viewBox="0 0 120 120" fill="none" xmlns="http://www.w3.org/2000/svg">
<circle cx="60" cy="60" r="60" fill="#EDF0F4"/>
<path d="M60.5312 45.1404L73.3279 52.8586L60.5312 60.1745L47.1564 52.8586L60.5312 45.1404Z" fill="#EA259E"/>
<path d="M47.1564 53.1351L60.5312 60.4259L60.4558 75.3093L47.1564 68.2699V53.1351Z" fill="#014C99"/>
<path d="M60.5312 60.4259L73.4787 53.1351L73.8558 68.2699L60.7072 75.5858L60.5312 60.4259Z" fill="#08B0F9"/>
<path fill-rule="evenodd" clip-rule="evenodd" d="M87.1301 44.2101L86.929 44.0844L74.1575 36.7685L60.7826 29.1006L60.6066 29L60.4558 29.0754C60.2046 29.1651 59.9608 29.2744 59.7267 29.4023L48.0614 36.2154L33.6306 44.6627C33.0499 44.9288 33.0514 45.521 33.0523 45.9013L33.0524 45.9449V46.2214L33.0272 67.6413L33.0021 75.5858C32.977 76.0635 33.1781 76.4909 33.5301 76.6417L50.1229 86.0695L59.9278 91.6507C60.129 91.7764 60.3552 91.8518 60.5564 91.8518C60.7284 91.8596 60.8976 91.8061 61.034 91.701L75.2134 83.5303L87.281 76.5914C87.7335 76.3903 88.01 75.9378 87.9346 75.5104L87.9849 45.4169C88.0603 44.713 87.4821 44.3861 87.1301 44.2101ZM60.5061 46.1208L72.1965 52.9088L60.5312 59.6214L56.559 57.3839L48.7151 52.934L60.5061 46.1208ZM61.1095 44.6124L73.7804 51.9786L85.5965 45.1655L76.0933 39.71L60.5312 30.785L43.6115 40.6653L35.4659 45.4169L47.1312 52.0289L59.953 44.5873C60.3052 44.3509 60.7678 44.361 61.1095 44.6124ZM34.6614 46.7996L46.2764 53.3865L46.5027 67.8676C46.4775 68.3201 46.7038 68.7224 47.0558 68.8983L54.774 73.3231L59.7267 76.164V89.7149L34.6111 75.4349L34.6614 46.7996ZM59.7519 61.0042L47.8854 54.2916L48.1117 67.6665L59.7267 74.3288L59.7519 61.0042ZM61.3357 76.1892L66.2884 73.3231L73.9312 68.9486L74.0066 68.8983C74.1575 68.8229 74.3335 68.6972 74.4592 68.5212L74.5346 68.4207V68.295L74.5095 58.6912V53.4117L86.3759 46.5482V58.2387L86.3508 75.2841L70.4367 84.4353L61.3106 89.6897L61.3357 76.1892ZM61.3357 61.0042V74.3539L73.0262 67.6413V54.2664L61.3357 61.0042Z" fill="#2F2F2F"/>
<path fill-rule="evenodd" clip-rule="evenodd" d="M60.1793 32.3437C59.8273 32.394 59.5256 32.6203 59.3748 32.922C59.2239 33.274 59.2491 33.6511 59.425 33.9025C59.6262 34.2042 59.953 34.3801 60.3301 34.3801C60.3976 34.3755 60.4647 34.3671 60.5312 34.355C60.9586 34.3047 61.2855 34.003 61.3609 33.6259C61.4674 33.2901 61.3804 32.9229 61.1346 32.6706C60.895 32.4024 60.5329 32.2786 60.1793 32.3437ZM60.8581 36.7434C60.481 36.5422 60.0536 36.5674 59.7519 36.7685C59.4753 36.9194 59.2993 37.221 59.2491 37.5479C59.2239 37.8998 59.3748 38.2015 59.5759 38.3775C59.7718 38.564 60.0346 38.6637 60.305 38.6541C60.4611 38.6514 60.615 38.6172 60.7575 38.5535C61.1598 38.4027 61.386 38.0256 61.386 37.6484C61.4112 37.2965 61.1849 36.9445 60.8581 36.7434ZM59.777 41.0173C60.1038 40.8413 60.5312 40.8413 60.8832 41.0676C61.2086 41.2552 61.3983 41.6122 61.3715 41.9869C61.3447 42.3615 61.1063 42.688 60.7575 42.8274C60.615 42.8912 60.4611 42.9254 60.305 42.928C60.0705 42.9373 59.84 42.8663 59.6513 42.7269C59.3748 42.5509 59.2239 42.1738 59.2491 41.8218C59.2742 41.4698 59.4753 41.1681 59.777 41.0173ZM43.8126 69.2503C43.4355 69.3509 43.159 69.6526 43.0836 70.0297C43.0081 70.432 43.1338 70.8091 43.4104 71.0353C43.5847 71.186 43.8086 71.2666 44.0389 71.2616C44.1151 71.262 44.191 71.2536 44.2652 71.2365C44.592 71.161 44.8686 70.9348 44.9691 70.6582C45.1451 70.3063 45.0948 69.8789 44.7931 69.552C44.5563 69.2641 44.1704 69.1453 43.8126 69.2503ZM76.5459 71.2365C76.465 71.2654 76.3803 71.2824 76.2945 71.2867C76.0431 71.2867 75.8168 71.2113 75.666 71.0353C75.3894 70.8091 75.2386 70.432 75.314 70.0297C75.3894 69.6526 75.666 69.3509 76.0179 69.2503C76.386 69.1311 76.7898 69.2394 77.0487 69.5269C77.3252 69.8537 77.4007 70.3063 77.2247 70.6834C77.1493 70.9348 76.8727 71.161 76.5459 71.2365ZM40.1421 71.4125C39.765 71.5382 39.5136 71.8901 39.4884 72.2924C39.4382 72.7198 39.6393 73.122 39.9661 73.298C40.1163 73.3943 40.2905 73.4465 40.4689 73.4489C40.6169 73.4456 40.7625 73.4114 40.8963 73.3483C41.2231 73.1974 41.4494 72.8958 41.4746 72.6192C41.55 72.2421 41.3991 71.8398 41.0974 71.5884C40.8401 71.3494 40.4677 71.2808 40.1421 71.4125ZM80.2164 73.3734C80.1032 73.4115 79.9839 73.4285 79.8645 73.4237C79.6383 73.4293 79.4169 73.3584 79.2359 73.2226C78.9559 72.9758 78.8229 72.602 78.8843 72.2338C78.9457 71.8656 79.1927 71.5551 79.5376 71.4124C79.8835 71.2786 80.2755 71.357 80.5433 71.6136C80.845 71.8901 80.9455 72.2672 80.845 72.6443C80.8198 72.946 80.5684 73.2477 80.2164 73.3734ZM37.3766 73.65C37.0749 73.474 36.6978 73.474 36.4213 73.65C36.0944 73.826 35.8933 74.1528 35.8933 74.555C35.8933 74.9573 36.0944 75.3093 36.4213 75.4601C36.5579 75.5422 36.7144 75.5857 36.8738 75.5858C37.0687 75.5888 37.2605 75.5365 37.4269 75.435C37.7537 75.2087 37.9297 74.8316 37.9046 74.5048C37.9046 74.1528 37.7034 73.826 37.3766 73.6248V73.65ZM83.4596 75.5858C83.2375 75.587 83.0228 75.5064 82.8562 75.3595C82.6048 75.1836 82.454 74.8567 82.4791 74.5048C82.4942 74.154 82.6826 73.8336 82.9819 73.65C83.2836 73.4489 83.6859 73.4489 84.0127 73.6751C84.3647 73.9014 84.5406 74.3036 84.4652 74.7059C84.4401 75.0076 84.1887 75.3595 83.8367 75.5104C83.7172 75.5602 83.589 75.5858 83.4596 75.5858Z" fill="#2F2F2F"/>
</svg>
