<svg width="120" height="120" viewBox="0 0 120 120" fill="none" xmlns="http://www.w3.org/2000/svg">
<path fill-rule="evenodd" clip-rule="evenodd" d="M60 120C27 120 0 93.0006 0 59.7012C0.3 26.7019 27 -0.297518 60.3 0.00247602C93.3 0.30247 120 27.0019 120 60.6012C119.7 93.3006 93 120 60 120Z" fill="black"/>
<path fill-rule="evenodd" clip-rule="evenodd" d="M40.84 45.76L59.56 20L78.12 45.6L86.12 83.84L59.56 100L33 83.84L40.84 45.76ZM43.24 53.12L37.32 82.08L56.68 93.92L43.24 53.12ZM45.16 46.56L59.56 26.72L73.96 46.56L59.56 90.08L45.16 46.56ZM75.72 53.12L62.28 93.92L81.64 82.08L75.72 53.12Z" fill="white"/>
</svg>
