<svg width="120" height="120" viewBox="0 0 120 120" fill="none" xmlns="http://www.w3.org/2000/svg">
<circle cx="60" cy="60" r="60" fill="#EDF0F4"/>
<path d="M93.3512 43.03C90.3865 39.6762 86.3844 38 81.3421 38C78.3787 38 75.7512 38.6129 73.4621 39.8345C71.2153 41.0357 69.4217 42.5973 68.0772 44.526V38.3904H52.7116V61.864C52.7116 64.3619 52.0619 66.322 50.7638 67.7539C49.4629 69.1844 47.6953 69.8983 45.4608 69.8983C43.2768 69.8983 41.5228 69.1844 40.1961 67.7539C38.8707 66.322 38.2073 64.3606 38.2073 61.864V38.3904H23V63.8159C23 69.5844 24.4687 74.1489 27.4048 77.5026C30.3436 80.8537 34.3608 82.5312 39.4535 82.5312C42.4183 82.5312 45.0458 81.9197 47.3336 80.698C49.6185 79.4791 51.4149 77.8794 52.7116 75.9029V82.1408H68.0772V57.2831C68.2806 55.4336 68.9058 53.9335 69.9554 52.7787C71.2535 51.3509 73.0471 50.6329 75.3335 50.6329C77.5174 50.6329 79.2605 51.3509 80.5614 52.7787C81.8581 54.2092 82.5092 56.1707 82.5092 58.6686V82.1422H97.797V56.6388C97.797 50.9196 96.3133 46.3824 93.3499 43.0286L93.3512 43.03Z" fill="#042751"/>
</svg>
