<svg width="120" height="120" viewBox="0 0 120 120" fill="none" xmlns="http://www.w3.org/2000/svg">
<circle cx="60" cy="60" r="60" fill="#EDF0F4"/>
<path fill-rule="evenodd" clip-rule="evenodd" d="M93.8785 75.7608L91.438 56.7581L91.015 53.4716L90.8849 52.2677C90.0511 44.7002 83.7243 38.9308 76.1122 38.7965V25L69.1488 29.0023V26.8873L66.2529 28.6118L62.9664 30.4991V27.961L56.8491 31.4102V26.6595L50.0159 30.6292V27.8309L41.0026 33.1022V38.8616C33.7462 39.426 27.9143 45.0666 27.1085 52.3002L26.9783 53.4716C26.9406 53.7822 26.9057 54.0983 26.8704 54.4182L26.8704 54.4182C26.7835 55.2043 26.694 56.0137 26.5553 56.8231L24.1149 75.7934C23.375 80.766 26.2713 85.5633 31.0163 87.2244C35.7613 88.8855 41.0174 86.9423 43.5406 82.594L49.4627 72.572C50.2111 71.303 51.5778 70.4895 53.042 70.4895H64.9513C66.4156 70.4895 67.7822 71.2704 68.5306 72.572L74.4527 82.594C76.9759 86.9549 82.2456 88.9025 86.9984 87.2307C91.7512 85.5589 94.6411 80.741 93.8785 75.7608ZM41.2629 46.6059C38.2079 46.6059 35.7313 49.0825 35.7313 52.1375C35.7313 55.1926 38.2079 57.6691 41.2629 57.6691C44.3179 57.6691 46.7945 55.1926 46.7945 52.1375C46.7945 49.0825 44.3179 46.6059 41.2629 46.6059ZM71.2639 52.1375C71.2639 49.0825 73.7405 46.6059 76.7955 46.6059C79.8505 46.6059 82.3271 49.0825 82.3271 52.1375C82.3271 55.1926 79.8505 57.6691 76.7955 57.6691C73.7405 57.6691 71.2639 55.1926 71.2639 52.1375ZM74.0948 52.1375C74.0946 53.6344 75.2987 54.853 76.7955 54.8708C78.2923 54.8708 79.4962 53.6343 79.4962 52.1375C79.4962 50.6407 78.2923 49.4042 76.7955 49.4042C75.2987 49.4042 74.0948 50.6407 74.0948 52.1375ZM38.5622 52.1375C38.5621 53.6344 39.7661 54.853 41.2629 54.8708C42.7597 54.8708 43.9636 53.6343 43.9636 52.1375C43.9636 50.6407 42.7597 49.4042 41.2629 49.4042C39.7661 49.4042 38.5622 50.6407 38.5622 52.1375ZM57.207 60.6302H53.4325V56.8231H57.2396V60.6302H57.207ZM60.3308 60.6302H64.1378V56.8231H60.3308V60.6302ZM82.7517 84.8815C85.1934 85.1198 87.6011 84.1722 89.2254 82.3337C90.7222 80.6417 91.4055 78.3639 91.1452 76.1188L88.7048 57.1485L88.2818 53.797L88.1516 52.6256C87.4731 46.3899 82.222 41.6568 75.9495 41.6274C73.1365 41.6304 70.4114 42.6077 68.2377 44.3932C65.6997 46.4757 62.6085 47.6146 59.5173 47.6146H58.5737C55.3797 47.5928 52.2943 46.4531 49.8532 44.3932C46.3481 41.5948 41.5999 40.92 37.4539 42.6312C33.3079 44.3423 30.4178 48.1696 29.9068 52.6256L29.7766 53.7645C29.7401 54.0755 29.706 54.3916 29.6717 54.7107C29.5839 55.5268 29.494 56.3623 29.3536 57.1811L26.9132 76.1188C26.6188 78.3654 27.3065 80.6301 28.8005 82.3337C30.4099 84.2 32.826 85.1676 35.2787 84.9281C37.7314 84.6887 39.9147 83.2721 41.1328 81.1298L47.0549 71.1077C48.2913 68.9927 50.6016 67.6586 53.042 67.6586H64.9838C67.4477 67.6738 69.7219 68.9839 70.971 71.1077L76.8931 81.1298C78.1311 83.2477 80.3101 84.6431 82.7517 84.8815Z" fill="url(#paint0_linear)"/>
<path d="M51.6754 78.7869C55.3198 82.3662 62.8037 82.3337 66.383 78.6893" stroke="url(#paint1_linear)" stroke-width="8"/>
<defs>
<linearGradient id="paint0_linear" x1="7.9303" y1="63.5865" x2="55.5894" y2="116.843" gradientUnits="userSpaceOnUse">
<stop stop-color="#8D5AE9"/>
<stop offset="1" stop-color="#63D1DF"/>
</linearGradient>
<linearGradient id="paint1_linear" x1="32.7286" y1="76.3842" x2="33.0612" y2="84.8933" gradientUnits="userSpaceOnUse">
<stop stop-color="#7B8DE5"/>
<stop offset="1" stop-color="#70ADE2"/>
</linearGradient>
</defs>
</svg>
