<svg width="120" height="120" viewBox="0 0 120 120" fill="none" xmlns="http://www.w3.org/2000/svg">
<circle cx="60" cy="60" r="60" fill="#070510"/>
<path fill-rule="evenodd" clip-rule="evenodd" d="M32.263 71.069C36.8614 82.1667 47.6923 89.4014 59.705 89.3995C76.0979 89.3782 89.3809 76.0931 89.3995 59.7002C89.3995 47.6875 82.163 36.8577 71.0645 32.2611C59.966 27.6645 47.1915 30.2064 38.6979 38.7013C30.2043 47.1962 27.6646 59.9712 32.263 71.069ZM34.6219 59.7098C34.6219 45.8568 45.852 34.6268 59.705 34.6268C73.558 34.6268 84.7881 45.8568 84.7881 59.7098C84.7881 73.5628 73.558 84.7929 59.705 84.7929C45.852 84.7929 34.6219 73.5628 34.6219 59.7098Z" fill="white"/>
</svg>
