<svg width="120" height="120" viewBox="0 0 120 120" fill="none" xmlns="http://www.w3.org/2000/svg">
<circle cx="60" cy="60" r="60" fill="#EDF0F4"/>
<path fill-rule="evenodd" clip-rule="evenodd" d="M38 56.2666L60.1344 44.6144L82.0877 56.3389L60.0379 24L38 56.2666ZM38.8443 59.6316L60.1584 48.2582L81.1951 59.5485L60.1704 70.9344L38.8443 59.6316ZM38 62.8889C45.7681 67.0142 53.8739 71.3324 60.1344 74.6737L82.0877 62.8889C74.1388 74.6977 67.5156 84.5287 60.1344 95.4089C58.7451 93.3692 57.3285 91.2897 55.9004 89.1933L55.8682 89.1461C49.7054 80.0996 43.3295 70.7403 38 62.8889Z" fill="#3AB83A"/>
<path fill-rule="evenodd" clip-rule="evenodd" d="M60.0381 24L60.1347 44.6152L82.0879 56.3389L60.0381 24ZM60.1587 48.2582L81.1953 59.5485L60.1707 70.9344L60.1587 48.2582ZM60.1347 74.6737L82.0879 62.8889C74.139 74.6977 60.1347 95.4089 60.1347 95.4089V74.6737Z" fill="#0B8311"/>
<path d="M38.8442 59.6319L60.1595 61.3811L81.1962 59.5596L60.1703 70.9464L38.8442 59.6319Z" fill="#0B8311"/>
<path d="M60.1582 61.3811L81.1949 59.5596L60.1702 70.9464L60.1582 61.3811Z" fill="#146714"/>
</svg>
