<svg width="120" height="120" viewBox="0 0 120 120" fill="none" xmlns="http://www.w3.org/2000/svg">
<circle cx="60" cy="60" r="60" fill="#EDF0F4"/>
<circle cx="32.7269" cy="82.1376" r="8.1352" transform="rotate(-1.146 32.7269 82.1376)" fill="#DE2813"/>
<circle cx="25.5245" cy="65.6806" r="5.52448" fill="#E71619"/>
<circle cx="28.695" cy="47.8485" r="4.87179" fill="#EB6617" fill-opacity="0.01"/>
<circle cx="38.9282" cy="33.1166" r="4.1958" fill="#EC6816"/>
<circle cx="56.131" cy="26.1935" r="3.19347" fill="#F2961B"/>
<circle cx="74.0323" cy="28.7109" r="2.65734" fill="#F1C621"/>
<circle cx="88.4853" cy="40.2028" r="1.98135" fill="#F3C620"/>
<circle cx="95.3849" cy="57.0559" r="4.61538" fill="#156192"/>
<circle cx="92.8905" cy="74.8415" r="4.12587" fill="#2090C0"/>
<circle cx="81.9111" cy="89.014" r="3.21678" fill="#338DCC"/>
<circle cx="64.755" cy="95.5408" r="2.12121" fill="#38BAE8"/>
<circle cx="47.6687" cy="93.0467" r="1.46853" fill="#36BBE6"/>
<circle cx="28.7418" cy="47.8269" r="7.8324" transform="rotate(-3.17 28.7418 47.8269)" fill="#EB6617"/>
<path d="M46.457 54.4918L52.9605 50.7855L52.9372 72.3473L46.457 76.007V54.4918V54.4918Z" fill="#3F3F3F"/>
<path d="M72.3779 54.4918L78.8814 50.7855L78.8581 72.3473L72.3779 76.007V54.4918Z" fill="#3F3F3F"/>
<path d="M59.3936 54.4918L65.8971 50.7855L65.8737 72.3473L59.3936 76.007V54.4918Z" fill="#3F3F3F"/>
<path d="M40.1631 50.6457L46.5267 46.8928L52.9603 50.7856L46.4568 54.4919L40.1631 50.6457Z" fill="#686A69"/>
<path d="M53.0771 50.6457L59.4408 46.8928L65.8744 50.7856L59.3942 54.4919L53.0771 50.6457Z" fill="#686A69"/>
<path d="M66.084 50.6691L72.4476 46.9161L78.8812 50.8089L72.3777 54.5152L66.084 50.6691Z" fill="#686A69"/>
</svg>
