<svg width="120" height="120" viewBox="0 0 120 120" fill="none" xmlns="http://www.w3.org/2000/svg">
<path d="M60 120C26.8536 120 0 93.1464 0 60C0 26.8536 26.8536 0 60 0C93.1464 0 120 26.8536 120 60C120 93.1464 93.1464 120 60 120Z" fill="#2468E4"/>
<path fill-rule="evenodd" clip-rule="evenodd" d="M74.9375 27H48.4375C39.9375 27 34 32.9611 34 41.3438V48.5468H48.4375V41.3438H86.9375C87 32.899 81.0625 27 74.9375 27ZM87 67.6719H48.4375C39.9375 67.6719 34 61.2141 34 53.3281H74.9375C81.0625 53.266 87 59.7238 87 67.6719ZM72.5 79.6562V72.4532H87V79.6562C87 88.0389 81.0625 94 74.9375 94H48.4375C39.9375 94 34 88.101 34 79.6562H72.5Z" fill="white"/>
</svg>
