<svg width="120" height="120" viewBox="0 0 120 120" fill="none" xmlns="http://www.w3.org/2000/svg">
<circle cx="60" cy="60" r="60" fill="white"/>
<path fill-rule="evenodd" clip-rule="evenodd" d="M59.9997 0C26.8699 0 0 26.8699 0 59.9997C0 93.1296 26.8699 119.999 59.9997 119.999C93.1296 119.999 119.999 93.1296 119.999 59.9997C120.096 26.8699 93.2259 0 59.9997 0ZM57.3031 89.5662C54.0287 91.8776 50.08 93.2259 46.1314 93.2259C39.1973 93.2259 32.841 89.4699 28.0256 82.5358C23.6917 75.8905 21.284 68.1859 21.0914 60.2887C21.0914 59.9997 21.284 59.7108 21.5729 59.6145L26.292 57.4957C26.6773 57.3031 27.0625 57.4957 27.2551 57.881C27.2551 57.9291 27.2792 57.9773 27.3033 58.0254C27.3273 58.0736 27.3514 58.1217 27.3514 58.1699C27.3514 66.0671 29.4702 73.4828 33.2262 78.9724C36.7896 84.173 41.4123 86.9659 46.2277 86.9659C48.828 86.9659 51.4283 86.1955 53.5471 84.7508C53.836 84.5582 54.3176 84.6545 54.5102 84.9435C55.4733 86.1955 56.4364 87.3512 57.4957 88.5068C57.592 88.7958 57.592 89.2773 57.3031 89.5662ZM73.9644 93.2259C80.8985 93.2259 87.3512 89.3736 92.0702 82.5358C96.5967 75.9868 99.0044 67.2228 99.0044 58.0736C99.0044 48.9243 96.5004 40.2566 91.9739 33.7077C91.0108 32.3594 89.9515 31.0111 88.6995 29.7591C88.5068 29.4702 88.2179 29.4702 87.929 29.5665L83.2099 31.6853C83.1136 31.6853 83.0173 31.7816 82.921 31.8779C82.7284 32.1668 82.7284 32.6483 83.0173 32.9373C84.4619 34.1893 85.8102 35.6339 86.8696 37.2711C90.6256 42.7607 92.7444 50.1763 92.7444 58.0736C92.7444 65.9708 90.6256 73.3865 86.8696 78.8761C83.3062 83.9804 78.6834 86.8696 73.8681 86.8696C69.0527 86.8696 64.4299 84.0767 60.8665 78.8761C57.1105 73.3865 54.9917 65.9708 54.9917 58.0736C54.9917 53.9324 57.1105 49.2133 59.9034 49.2133C62.6964 49.2133 64.8151 53.9324 64.8151 58.0736C64.8151 63.5631 63.7557 69.0527 61.5407 74.157C61.4444 74.3496 61.4444 74.6385 61.5407 74.8311C62.0222 75.7942 62.5037 76.5647 63.0816 77.4314C63.5631 78.1056 64.1409 78.7797 64.7188 79.4539L64.7188 79.4539C64.7556 79.4907 64.7783 79.5275 64.7978 79.5589C64.8292 79.6097 64.8519 79.6465 64.9114 79.6465C65.2004 79.8391 65.6819 79.7428 65.8745 79.3576C69.3416 72.8087 71.0751 65.5856 70.9788 58.1699C70.9788 49.6948 66.0671 43.0496 59.9034 43.0496C53.7397 43.0496 48.828 49.6948 48.828 58.1699C48.828 67.3191 51.332 75.9868 55.8585 82.5358C60.6739 89.3736 67.0302 93.2259 73.9644 93.2259Z" fill="#A566FF"/>
</svg>
