<svg width="120" height="120" viewBox="0 0 120 120" fill="none" xmlns="http://www.w3.org/2000/svg">
<circle cx="60" cy="60" r="60" fill="#FFAA5C"/>
<path fill-rule="evenodd" clip-rule="evenodd" d="M61.625 19C61.7261 19.0613 61.8267 19.1239 61.9275 19.1866C62.1184 19.3054 62.3099 19.4246 62.5063 19.5357L96.44 38.72C96.5153 38.7624 96.588 38.8074 96.6712 38.8588L96.6714 38.8589L96.6718 38.8592C96.7293 38.8948 96.7918 38.9335 96.8638 38.9766C96.8363 38.9943 96.8104 39.0113 96.7858 39.0275L96.7309 39.0639L96.7308 39.064C96.6402 39.1241 96.5653 39.1738 96.485 39.218L79.1675 48.9479C78.7183 49.1981 78.7175 49.197 78.4264 48.7796L78.4175 48.7668C74.5775 43.353 69.3125 40.2593 62.6225 39.4746C62.4235 39.4496 62.2231 39.437 62.0225 39.4369C61.67 39.4369 61.535 39.301 61.535 38.9275C61.5327 36.5386 61.523 34.1482 61.5133 31.7582L61.5133 31.7568C61.5075 30.3237 61.5017 28.8908 61.4975 27.4585L61.4863 19.5395C61.4863 19.4157 61.5055 19.2936 61.5249 19.1708L61.5249 19.1708L61.525 19.1707L61.525 19.1706L61.525 19.1705L61.525 19.1704C61.5339 19.1138 61.5429 19.0571 61.55 19H61.625ZM97.9937 55.7181L97.9875 55.7724V55.7725V55.7726V55.7726V55.7727V55.7727C97.9749 55.8809 97.9625 55.988 97.9625 56.0972C97.9437 60.7 97.925 65.3065 97.9175 69.913L97.9025 79.3712C97.9025 79.5783 97.8901 79.7855 97.8763 80.017L97.8763 80.0173C97.8723 80.0848 97.8681 80.1543 97.8641 80.2265C97.8628 80.25 97.8615 80.2738 97.8603 80.2979C97.8593 80.3158 97.8584 80.3338 97.8575 80.3521C97.8157 80.333 97.7768 80.3156 97.7402 80.2992C97.6322 80.2508 97.544 80.2113 97.46 80.1635L80.0075 70.3732C79.6963 70.1997 79.67 70.045 79.82 69.7356C82.7938 63.5936 82.805 57.4365 79.8763 51.2795C79.7375 50.9852 79.7638 50.838 80.0638 50.672L97.5238 40.8139C97.6256 40.7561 97.7383 40.7184 97.8519 40.6805L97.852 40.6805C97.9015 40.6639 97.9511 40.6474 98 40.629V55.6596C97.998 55.6792 97.9959 55.6986 97.9937 55.7181ZM59.1785 101.906C59.2184 101.938 59.2586 101.969 59.3 102H59.525C59.5295 101.972 59.535 101.943 59.5405 101.915L59.5405 101.915C59.5534 101.849 59.5662 101.783 59.5662 101.717L59.5475 92.1117L59.5417 90.4262C59.5318 87.6066 59.5219 84.7848 59.525 81.963C59.525 81.5858 59.3825 81.4877 59.0225 81.4726C58.3887 81.4424 57.7475 81.3934 57.1213 81.2915C50.975 80.2842 46.0775 77.3264 42.4925 72.3237C42.2787 72.0257 42.1175 71.9502 41.7725 72.1464C37.4698 74.5711 33.167 76.9895 28.8643 79.4078L28.8632 79.4084C27.4288 80.2146 25.9944 81.0208 24.56 81.8272C24.4888 81.8678 24.4236 81.9144 24.3474 81.969L24.3472 81.9691L24.3471 81.9692L24.347 81.9692C24.3029 82.0009 24.255 82.0351 24.2 82.0725C24.3021 82.1317 24.3899 82.1845 24.4706 82.233L24.471 82.2332L24.4717 82.2336L24.4717 82.2337C24.5655 82.2901 24.6498 82.3408 24.7363 82.3894L58.925 101.725C59.0136 101.776 59.0953 101.84 59.1783 101.906L59.1785 101.906ZM23 77.2886C23.0065 77.2494 23.0153 77.2097 23.0241 77.1697C23.0407 77.0943 23.0576 77.0179 23.06 76.9415L23.075 72.1766L23.1013 61.5111L23.15 44.6885L23.1688 41.0629C23.1688 40.9979 23.1744 40.9328 23.1814 40.8528C23.1858 40.8028 23.1907 40.7471 23.195 40.6819C23.2507 40.7086 23.3012 40.7319 23.3481 40.7535L23.3481 40.7535L23.3481 40.7535L23.3482 40.7536C23.4402 40.7959 23.518 40.8318 23.5925 40.8743L25.8515 42.1436L25.8522 42.144L25.8531 42.1445C30.8064 44.9278 35.7583 47.7103 40.7188 50.4872C41.0525 50.672 41.0975 50.8154 40.9325 51.1663C37.9325 57.3573 37.9475 63.5559 40.9325 69.7545L40.9432 69.7763C41.1764 70.2524 41.1765 70.2528 40.6963 70.5241C34.9663 73.7687 29.2362 77.0057 23.5025 80.2389C23.4025 80.2957 23.2815 80.3171 23.1622 80.3383C23.107 80.3481 23.0522 80.3578 23 80.371V77.2924V77.2886ZM74.1988 67.2305C74.3338 69.4414 74.135 71.6182 73.5238 73.78V73.7762C73.5125 73.6215 73.5013 73.4669 73.4975 73.3122C73.4338 71.3843 73.1675 69.4904 72.4962 67.6682C71.7762 65.6875 70.73 63.9219 68.9713 62.6316C68.5588 62.3298 68.54 62.3335 68.285 62.7787C67.297 64.5015 66.1169 66.1052 64.7675 67.5588C59.4012 73.2707 52.2762 74.278 45.7887 72.0332C45.7164 72.0068 45.6453 71.9764 45.574 71.946L45.5739 71.9459L45.5737 71.9458C45.5232 71.9243 45.4725 71.9026 45.4212 71.8823C46.7675 71.9804 48.0875 72.0596 49.4075 71.8597C52.2463 71.4296 54.545 70.1695 56.0112 67.6644C56.2887 67.189 56.2887 67.1853 55.7712 66.9551C51.8112 65.197 49.1 62.3071 47.66 58.293C46.5012 55.0748 46.31 51.7548 46.6663 48.382C46.6962 48.0802 46.7337 47.7784 46.7787 47.4765C46.8079 47.281 46.8434 47.0885 46.879 46.8952L46.879 46.8951L46.8791 46.8949L46.8791 46.8948L46.8791 46.8947C46.8984 46.7899 46.9178 46.6847 46.9362 46.5786C47.016 46.6755 47.0427 46.7695 47.0686 46.8605L47.0788 46.8955C47.1961 47.3029 47.3083 47.7121 47.4206 48.1215C47.667 49.02 47.9136 49.9191 48.215 50.8003C48.7007 52.2676 49.5066 53.607 50.5737 54.7202C51.1123 55.2943 51.7796 55.7302 52.52 55.9916C53.0975 56.1915 53.12 56.1878 53.42 55.652C55.4569 51.9307 58.8162 49.121 62.825 47.7859C66.0912 46.6579 69.4588 46.4315 72.8825 46.756C73.248 46.791 73.6118 46.8393 73.9761 46.8876L73.9763 46.8876L73.9764 46.8876L73.9765 46.8877C74.1616 46.9122 74.3468 46.9368 74.5325 46.9597L74.6113 46.839L73.9775 46.2957C68.3787 41.4892 61.9813 39.9462 54.77 41.8816C45.17 44.4621 38.735 54.2373 40.865 64.3444C43.145 75.142 54.2787 81.9404 65.255 79.224C75.1475 76.7793 81.5187 67.5475 80.0825 57.712C79.5213 53.8255 77.7671 50.2127 75.065 47.3785C74.9071 47.2137 74.6923 47.1164 74.465 47.1068C72.8539 47.1661 71.2621 47.4792 69.7475 48.0349C67.5725 48.88 65.8063 50.2005 64.7975 52.3245L64.7854 52.35L64.7854 52.3501C64.5725 52.8 64.4856 52.9836 64.5409 53.099C64.5791 53.1785 64.6846 53.2257 64.863 53.3053C64.9517 53.345 65.0584 53.3926 65.1838 53.4563C68.0262 54.89 70.3587 56.8631 71.9713 59.587C73.3737 61.9487 74.0413 64.5217 74.1988 67.2305ZM97.0287 82.1253L61.5425 101.928C61.535 101.845 61.5262 101.774 61.5185 101.712C61.5069 101.618 61.4975 101.543 61.4975 101.468C61.4975 94.9412 61.4975 88.4144 61.49 81.8876C61.49 81.5971 61.5763 81.4915 61.8875 81.465C68.7875 80.8916 74.2588 77.8508 78.275 72.3237L78.2841 72.311C78.6237 71.837 78.6246 71.8358 79.1375 72.1238L96.5488 81.8385C96.6283 81.883 96.7078 81.9314 96.8026 81.9891L96.8035 81.9896C96.8694 82.0297 96.9428 82.0743 97.0287 82.1253ZM59.5313 19.3104C59.5282 19.2585 59.5247 19.2011 59.5212 19.1358H59.5175C59.3959 19.2016 59.2874 19.2576 59.1862 19.3099C59.0783 19.3656 58.9787 19.4171 58.88 19.4716L24.7175 38.5465C24.5775 38.6245 24.4508 38.7192 24.3242 38.8139C24.2608 38.8613 24.1975 38.9087 24.1325 38.954C24.1857 38.9897 24.2384 39.0259 24.2909 39.0621C24.4272 39.1561 24.5628 39.2495 24.7063 39.3312L41.66 48.8008C41.8939 48.9315 42.0102 48.9966 42.1071 48.975C42.206 48.9529 42.2847 48.8407 42.4475 48.6159C46.5275 42.9795 52.0962 39.9122 59.1387 39.3991C59.5062 39.3727 59.5513 39.2218 59.5513 38.92C59.5438 32.4837 59.5438 26.0437 59.5438 19.6036C59.5438 19.515 59.5384 19.4264 59.5313 19.3104Z" fill="white"/>
</svg>
