<svg width="120" height="120" viewBox="0 0 120 120" fill="none" xmlns="http://www.w3.org/2000/svg">
<circle cx="60" cy="60" r="60" fill="#EDF0F4"/>
<path fill-rule="evenodd" clip-rule="evenodd" d="M86.2208 35H60.8458C59.1542 35 57.825 36.3292 57.825 38.0208V64.1208H48.6417C46.95 64.1208 45.5 65.3292 45.5 66.9C45.5 68.4708 46.95 69.6792 48.6417 69.6792H60.9667C62.6583 69.6792 63.9875 68.35 63.9875 66.6583V53.2458H78.9708C80.5417 53.2458 81.75 52.0375 81.75 50.4667C81.75 48.8958 80.5417 47.6875 78.9708 47.6875H63.8667V40.5583H86.2208C87.7917 40.5583 89 39.35 89 37.7792C89 36.2083 87.7917 35 86.2208 35ZM61.0875 78.9833H48.1583C46.5875 78.9833 45.3792 80.1917 45.3792 81.7625C45.3792 83.3333 46.5875 84.5417 48.1583 84.5417H61.0875C62.6583 84.5417 63.8667 83.3333 63.8667 81.7625C63.8667 80.1917 62.6583 78.9833 61.0875 78.9833ZM33.7792 47.6875H46.7083C48.2792 47.6875 49.4875 49.0167 49.4875 50.4667C49.4875 52.0375 48.2792 53.2458 46.7083 53.2458H33.7792C32.2083 53.2458 31 52.0375 31 50.4667C31 48.8958 32.2083 47.6875 33.7792 47.6875Z" fill="#06142E"/>
</svg>
