<svg width="120" height="120" viewBox="0 0 120 120" fill="none" xmlns="http://www.w3.org/2000/svg">
<circle cx="60" cy="60" r="60" fill="#24996E"/>
<path fill-rule="evenodd" clip-rule="evenodd" d="M61.6943 29.5398C62.9815 30.5519 65.2362 33.9209 66.4902 36.3818C67.7827 38.9179 67.4646 40.579 65.4603 41.7596C64.7554 42.1748 64.1271 42.2475 60.5992 42.3215C55.9475 42.4188 54.4104 42.1786 53.3514 41.1892C52.5058 40.3994 52.2005 39.0924 52.5718 37.8527C52.8837 36.8115 55.5777 32.4233 56.8112 30.9475C58.4626 28.9708 60.1187 28.4937 61.6943 29.5398ZM72.1051 50.6729C72.883 51.0244 73.8352 51.7534 74.6114 52.5919C75.8445 53.9239 87.8008 72.1883 89.1719 74.8351C90.9864 78.3369 89.7538 81.3401 86.1127 82.2885C84.8844 82.6083 81.4877 82.6562 60.0007 82.6562C38.5137 82.6562 35.117 82.6083 33.8887 82.2885C30.312 81.3568 29.0517 78.4318 30.7417 74.9836C31.8119 72.7993 43.9201 54.2306 45.2188 52.7817C46.5399 51.3079 47.7599 50.5542 49.3519 50.2279C49.897 50.1163 54.9572 50.0431 60.5968 50.0655C70.8417 50.1058 70.852 50.1063 72.1051 50.6729Z" fill="white"/>
</svg>
