<svg width="120" height="120" viewBox="0 0 120 120" fill="none" xmlns="http://www.w3.org/2000/svg">
<path d="M60 120C93.138 120 120 93.138 120 60C120 26.862 93.138 0 60 0C26.862 0 0 26.862 0 60C0 93.138 26.862 120 60 120Z" fill="#EDF0F4"/>
<path d="M61.5936 69.068V90.8559C61.5936 92.0125 60.8669 92.5664 59.9696 92.078L47.6456 85.3201C46.6478 84.6471 46.0402 83.5302 46.0122 82.3267V61.0366C46.1921 61.1815 46.3837 61.3077 46.5847 61.4198L61.5936 69.068Z" fill="#425CC7"/>
<mask id="mask0" style="mask-type:alpha" maskUnits="userSpaceOnUse" x="46" y="27" width="28" height="32">
<path fill-rule="evenodd" clip-rule="evenodd" d="M46 27H73.477V58.7882H46V27Z" fill="white"/>
</mask>
<g mask="url(#mask0)">
<path d="M47.3779 58.6566L72.1194 45.9704C72.9442 45.4493 73.456 44.5474 73.477 43.5706V28.1504C73.477 27.1947 72.8648 26.7554 72.1194 27.1362L49.3197 38.8293C46.9666 40.0912 45.8777 40.6847 46.0109 43.3509V57.6425C46.0109 58.5515 46.6325 59.0399 47.3779 58.6566Z" fill="#005CB9"/>
</g>
<path d="M47.3777 41.0088L72.1192 53.695C72.9464 54.2208 73.4558 55.1251 73.4769 56.1042V71.515C73.4769 72.4708 72.8646 72.9194 72.1192 72.5385L47.3777 59.85C46.5482 59.3289 46.0341 58.4246 46.0107 57.4431V42.0299C46.0107 41.0859 46.6323 40.6256 47.3777 41.0088Z" fill="#3CB4E5"/>
<path d="M47.3777 58.6566L64.5856 49.8331L47.3777 41.0095C47.088 40.8179 46.7118 40.8179 46.422 41.0095C46.172 41.4675 46.0318 41.9769 46.0107 42.5003V57.4415C46.0201 57.771 46.0879 58.0935 46.2117 58.3996C46.4384 58.7875 46.9361 58.9183 47.324 58.6917C47.3404 58.68 47.359 58.6683 47.3777 58.6566Z" fill="#00A0DF"/>
</svg>
