<svg width="120" height="120" viewBox="0 0 120 120" fill="none" xmlns="http://www.w3.org/2000/svg">
<circle cx="60" cy="60" r="60" fill="#EDF0F4"/>
<circle cx="59.9709" cy="60" r="44.9133" fill="#FEFEFE"/>
<path d="M41.4162 79.711C42.4566 79.711 43.4393 79.1329 43.9017 78.2081L50.5202 65.6358H40.289C38.7283 65.6358 37.4855 64.3642 37.4855 62.8324V57.1965C37.4855 55.6358 38.7572 54.3931 40.289 54.3931H56.474L69.0462 30.578C69.5376 29.6532 70.4913 29.0751 71.5318 29.0751H92.7168C84.5087 20.4046 72.9191 15 60.0289 15C35.1734 15 15 35.1445 15 60.0289C15 67.0809 16.6185 73.7861 19.5376 79.7399H41.4162V79.711Z" fill="#9B1C2E"/>
<path d="M78.5838 40.289C77.5433 40.289 76.5607 40.8671 76.0982 41.7919L69.4797 54.3642H79.7109C81.2716 54.3642 82.5144 55.6359 82.5144 57.1676V62.8035C82.5144 64.3642 81.2427 65.607 79.7109 65.607H63.526L50.9537 89.422C50.4624 90.3468 49.5086 90.9249 48.4682 90.9249H27.2832C35.4913 99.5954 47.0809 105 59.9711 105C84.8266 105 105 84.8555 105 59.9711C105 52.9191 103.381 46.2139 100.462 40.2601H78.5838V40.289Z" fill="#9B1C2E"/>
</svg>
