<svg width="120" height="120" viewBox="0 0 120 120" fill="none" xmlns="http://www.w3.org/2000/svg">
<circle cx="60" cy="60" r="60" fill="#EDF0F4"/>
<path fill-rule="evenodd" clip-rule="evenodd" d="M11 60.5C11 33.1619 33.1619 11 60.5 11C87.8381 11 110 33.1619 110 60.5C110 87.8381 87.8381 110 60.5 110C33.1619 110 11 87.8381 11 60.5ZM105.67 60.5C105.67 35.5534 85.4466 15.3302 60.5 15.3302C35.5534 15.3302 15.3302 35.5534 15.3302 60.5C15.3302 85.4466 35.5534 105.67 60.5 105.67C85.4466 105.67 105.67 85.4466 105.67 60.5Z" fill="#384A53"/>
<path d="M34.7003 91.7291C34.7003 91.7291 41.4504 85.0305 37.9825 82.941C37.1155 81.1588 36.2485 82.6337 35.3815 85.8294C34.886 87.9189 34.4525 81.8963 35.753 81.4661C36.9916 80.9744 31.4181 76.058 30.3034 75.6278C29.1267 75.1362 31.5419 74.03 34.6383 76.9184C37.6728 79.8068 37.6109 80.6057 37.9825 80.1755C38.354 79.7453 38.1063 78.2089 37.549 77.5329C36.9916 76.8569 34.4525 71.4489 34.8241 71.5718C35.1957 71.6947 38.7256 75.5664 39.7164 78.1475C40.7692 80.6671 40.7073 73.354 40.7073 73.354C40.7073 73.354 41.5124 70.4041 41.8839 69.5438C42.2555 68.6834 42.9986 71.5103 42.9986 71.5103C42.9986 71.5103 43.556 74.9518 45.2281 76.1809C46.9001 77.41 46.4666 74.5216 46.4666 74.5216L45.8473 60.6942L48.758 58.1131C48.758 58.1131 48.4483 68.9907 50.1823 68.3761C51.9163 67.7615 52.226 62.968 52.226 62.968C52.226 62.968 53.4026 55.1632 53.3407 54.733C53.2787 54.3028 54.8269 53.4425 54.8269 53.4425L58.7284 49.9395C58.7284 49.9395 58.6046 53.8112 60.2147 54.6101C61.8248 55.4705 61.8868 50.6155 61.8868 50.6155L62.4441 45.8835C62.4441 45.8835 83.6236 28.9833 87.8966 28C91.6123 31.7488 91.5504 37.9558 90.0022 39.7994C88.5159 41.6431 74.7678 60.0182 74.7678 60.0182C74.7678 60.0182 68.6989 59.588 67.9557 61.3087C67.2126 63.0295 73.0339 62.5993 73.0339 62.5993L63.435 75.2591C56.7467 72.6165 47.5194 77.2257 46.4666 78.8849C46.4666 78.8849 45.7235 79.9297 47.9529 80.0526C50.1823 80.1755 66.036 80.2984 66.036 80.2984L59.5335 82.0192C59.5335 82.0192 46.9001 81.8963 45.7854 81.2817C44.6707 80.6672 45.3519 82.3264 45.3519 82.3264C45.3519 82.3264 47.5813 86.1981 52.0402 87.1814C56.499 88.1647 47.5813 86.6898 47.5813 86.6898C47.5813 86.6898 44.0514 85.8294 43.0606 83.1254C42.0697 80.4828 41.8839 83.8628 41.8839 83.8628C41.8839 83.8628 43.6799 87.9803 46.7763 88.8407C49.8108 89.7011 44.9803 88.9022 44.9803 88.9022C44.9803 88.9022 40.8312 87.3043 40.4596 86.2596C40.088 85.2148 39.4068 87.4272 39.4068 87.4272C39.4068 87.4272 35.753 91.852 34.7622 91.9749C33.7713 92.0978 34.7003 91.7291 34.7003 91.7291Z" fill="#384A53"/>
<path d="M55.5701 66.6553C55.5701 66.6553 76.1922 41.8274 83.4378 36.7881C83.7474 36.6037 83.6855 36.9724 83.6855 36.9724C83.6855 36.9724 69.9994 54.6101 56.3132 66.8397C54.765 68.2532 55.5701 66.6553 55.5701 66.6553Z" fill="white"/>
</svg>
