<svg width="120" height="120" viewBox="0 0 120 120" fill="none" xmlns="http://www.w3.org/2000/svg">
<circle cx="60" cy="60" r="60" fill="#ED1968"/>
<path fill-rule="evenodd" clip-rule="evenodd" d="M83.7702 55.6014C83.6322 54.985 83.4691 54.3745 83.2814 53.7714C83.2179 53.8214 82.9874 53.999 82.6239 54.279L82.6238 54.2791C80.0807 56.2386 71.0285 63.2135 67.1139 66.5738C65.2339 64.1263 63.3539 61.7729 61.474 59.4195L61.4737 59.4192C59.5939 57.0659 57.714 54.7127 55.8342 52.2653C57.4291 51.0103 59.0585 49.7553 60.7016 48.4898L60.7018 48.4897C64.4813 45.5787 68.3328 42.6122 72.0017 39.4629L72.0016 39.4627C66.7378 32.685 61.474 25.9073 55.8342 18.7531C55.8342 18.5648 55.7402 18.4707 55.6462 18.3765C55.5522 18.2824 55.4582 18.1883 55.4582 18H60.722C70.3666 18.0902 79.6764 21.5532 87.0413 27.7901C90.6305 30.7604 93.6829 34.3267 96.065 38.3332C98.8706 42.6463 100.67 47.5369 101.329 52.6418C102.336 58.5107 102.209 64.5186 100.953 70.3393C99.8766 75.2164 97.8307 79.8265 94.9371 83.8948C92.4118 87.8004 89.2318 91.2398 85.5373 94.0614C81.9392 97.1922 77.7061 99.5045 73.1297 100.839C69.7458 96.6972 66.7379 92.9317 63.73 88.7898C62.6062 87.5016 61.5996 86.1154 60.722 84.6478C67.9331 84.672 74.744 81.3312 79.1455 75.6108C81.3112 72.8364 82.8505 69.6248 83.6574 66.1973C84.3567 63.3394 84.3943 59.8074 83.7702 55.6014ZM47.9384 101.216C43.1347 99.8827 38.6556 97.5758 34.7788 94.4379C30.9588 91.4909 27.6551 87.9279 25.003 83.8948C22.1751 79.6521 20.137 74.9321 18.9872 69.9627C17.6709 64.0102 17.6709 57.8413 18.9872 51.8887C20.109 46.8534 22.0121 42.0252 24.6271 37.5802C28.4554 31.4291 33.9253 26.4729 40.4186 23.2716C42.6989 22.0425 45.091 21.0338 47.5624 20.2592C51.3223 24.7777 55.0821 29.6727 58.842 34.5677L58.8421 34.5678C59.0301 34.9444 59.3121 35.2268 59.5941 35.5092C59.8761 35.7916 60.1581 36.074 60.3461 36.4505C56.5747 36.6089 52.8706 37.5043 49.4424 39.0863C46.4116 40.6731 43.7273 42.8493 41.5466 45.4875C39.4009 48.3281 37.7484 51.5105 36.6587 54.9011C35.6546 59.0003 35.7846 63.2961 37.0347 67.3269L53.2023 54.5245C55.0821 56.9719 56.962 59.3252 58.8419 61.6785L58.8421 61.6788L58.8426 61.6795C60.7224 64.0326 62.6022 66.3858 64.4819 68.8331C62.887 70.0881 61.2576 71.3431 59.6146 72.6085L59.6144 72.6086L59.6143 72.6087C55.8347 75.5197 51.9832 78.4862 48.3144 81.6355C49.2637 82.8578 50.2252 84.0924 51.1946 85.337C55.6002 90.9937 60.1674 96.8578 64.4819 102.722C58.9229 103.38 53.2878 102.867 47.9384 101.216ZM74.096 97.5594C71.3044 94.1592 68.6087 90.6811 66.0122 87.1292L65.8769 86.9711C72.0374 85.7416 77.5446 82.3185 81.3789 77.3354C83.7902 74.2429 85.5039 70.6641 86.4021 66.845C87.5229 62.2542 87.3747 57.4446 85.9735 52.9318L84.759 49.0157L81.5406 51.5498C80.2048 52.5999 76.1929 55.6967 74.3698 57.104C73.8786 57.4832 73.5463 57.7397 73.4681 57.8004C71.1896 59.5702 69.2871 61.0839 67.5425 62.526C66.5536 61.2646 65.4069 59.8225 63.6773 57.6573C61.9252 55.4621 60.7784 54.0237 59.7896 52.7623C61.2473 51.632 62.9993 50.2805 64.2088 49.3476C64.9896 48.7454 65.5442 48.3175 65.6475 48.2363C68.4316 46.0943 71.1622 43.8833 73.8365 41.6054L75.8819 39.8545L74.2276 37.7308C68.0726 29.8008 64.5421 25.271 61.0567 20.8278C69.9194 20.993 78.4541 24.214 85.2215 29.9477C88.5716 32.7164 91.4206 36.0421 93.6437 39.7792C96.2481 43.7619 97.9203 48.2825 98.5353 53.0033C99.4941 58.6326 99.3775 64.2769 98.1969 69.7443C97.2011 74.245 95.3112 78.499 92.6398 82.253C90.2756 85.9269 87.2938 89.1628 83.8266 91.8172C80.9667 94.319 77.667 96.2662 74.096 97.5594Z" fill="white"/>
</svg>
