<svg width="120" height="120" viewBox="0 0 120 120" fill="none" xmlns="http://www.w3.org/2000/svg">
<circle cx="60" cy="60" r="60" fill="#2D475B"/>
<path fill-rule="evenodd" clip-rule="evenodd" d="M90 63.6084H89.8262H47.9541V72.9387H79.0522V81.6952C74.8816 85.2653 66.7142 87.1103 66.7142 87.1103C42.7371 91.258 35.091 70.8723 35.091 70.8723C28.14 47.3779 44.9962 38.0513 44.9962 38.0513C65.6716 25.6085 81.1375 41.5014 81.1375 41.5014L88.436 34.4212C76.2718 20.5983 57.5079 23.1934 57.5079 23.1934C27.0974 26.3022 23.1006 51.6943 23.1006 51.6943C18.0611 72.0799 31.9631 86.0753 31.9631 86.0753C57.3342 111.64 90 88.1454 90 88.1454V63.6084ZM89.8262 48.0679H47.9503V57.3982H89.8262V48.0679Z" fill="white"/>
</svg>
