<svg width="120" height="120" viewBox="0 0 120 120" fill="none" xmlns="http://www.w3.org/2000/svg">
<circle cx="60" cy="60" r="60" fill="#EDF0F4"/>
<circle cx="59.9976" cy="59.9976" r="44.9976" fill="#1666AE"/>
<path fill-rule="evenodd" clip-rule="evenodd" d="M39.9321 26.4942C39.5361 27.081 39.6945 27.8766 40.2812 28.2725C40.868 28.6685 41.6636 28.5101 42.0595 27.9234C42.4555 27.3366 42.2971 26.541 41.7104 26.1451C41.354 25.9075 40.904 25.8607 40.508 26.0227L37.9018 23.4956L33.7512 23.4668C33.4128 23.7116 33.0744 23.9636 32.7432 24.2156L37.6138 24.2516L39.9321 26.4942ZM23.3873 74.4797C23.6609 75.1312 23.3513 75.88 22.6998 76.1536L22.6422 79.7858L20.6695 81.7909C20.5399 81.5569 20.4139 81.3265 20.2915 81.0925L21.9042 79.4546L21.9618 76.2292C21.5406 76.1464 21.1915 75.8584 21.0259 75.466C20.7523 74.8145 21.0619 74.0657 21.7134 73.7921C22.365 73.5185 23.1138 73.8281 23.3873 74.4797ZM43.7767 91.9747C43.5103 92.6299 42.7615 92.9431 42.1063 92.6731L38.6325 96.1433H33.2292C32.8944 95.8949 32.5668 95.643 32.2393 95.3874H38.3445L41.5304 92.2015C41.2928 91.8487 41.246 91.3988 41.408 91.0028C41.6744 90.3476 42.4231 90.0344 43.0783 90.3044C43.7335 90.5708 44.0466 91.3196 43.7767 91.9747ZM40.3352 32.5995C40.49 32.5383 40.6556 32.5059 40.8212 32.5059C41.0768 32.5059 41.3252 32.5815 41.5376 32.7183C42.1243 33.1143 42.2827 33.9098 41.8868 34.4966C41.4908 35.0834 40.6952 35.2418 40.1084 34.8458C39.5217 34.4498 39.3633 33.6543 39.7593 33.0675L37.4374 30.8284L27.3723 30.7852V30.0292L37.729 30.0724L40.3352 32.5995ZM40.1804 81.0853C39.4749 81.0853 38.8989 81.6613 38.9025 82.3669C38.9025 82.6188 38.9781 82.8672 39.1185 83.076L36.7966 85.3187L26.728 85.3619V86.1179L37.0846 86.0747L39.6909 83.5512C40.346 83.8176 41.0948 83.5044 41.3612 82.8528C41.6276 82.1977 41.3144 81.4489 40.6628 81.1825C40.5116 81.1177 40.3496 81.0853 40.1804 81.0853ZM79.7963 44.8785L79.26 45.4148L79.2564 45.4076L79.2528 44.3349L79.7963 44.8785ZM75.4118 40.4975L68.2877 40.4399C68.0142 39.7883 67.2654 39.4787 66.6138 39.7523C65.9623 40.0259 65.6527 40.7747 65.9263 41.4262C66.1999 42.0778 66.9486 42.3874 67.6002 42.1138C67.9926 41.9482 68.2805 41.599 68.3633 41.1815L75.0806 41.239L78.3924 44.5509V43.4817L75.4118 40.4975ZM59.1298 43.2657C58.975 43.3305 58.8094 43.3629 58.6403 43.3629C58.3847 43.3629 58.1327 43.2873 57.9239 43.1433C57.3335 42.7474 57.1751 41.9482 57.5711 41.3578C57.9671 40.7675 58.7663 40.6091 59.3566 41.0051C59.947 41.401 60.1054 42.2002 59.7094 42.7906L61.6713 44.7309H69.9401V45.4904H61.3797L59.1298 43.2657Z" fill="#7290C9"/>
<path fill-rule="evenodd" clip-rule="evenodd" d="M75.3651 32.5923L75.3075 24.6547C74.9151 24.4891 74.6271 24.14 74.5479 23.7224C74.4111 23.0312 74.8611 22.3581 75.5559 22.2213C76.247 22.0845 76.9202 22.5344 77.057 23.2292C77.1938 23.9204 76.7438 24.5935 76.049 24.7303L76.1066 32.2647L79.2385 35.3966L79.2529 44.3385V45.4076L79.2637 53.068H78.3925V35.6629L75.3651 32.5923ZM87.8672 39.6227C88.454 40.0187 88.6124 40.8143 88.2164 41.401L91.8198 44.3457L102.155 44.3853C102.232 44.591 102.307 44.8016 102.382 45.011C102.397 45.0545 102.413 45.0979 102.428 45.1412L91.5282 45.098L87.6404 41.8726C87.2444 42.0346 86.7945 41.9878 86.4381 41.7502C85.8513 41.3542 85.6929 40.5587 86.0889 39.9719C86.4849 39.3852 87.2804 39.2268 87.8672 39.6227Z" fill="#7290C9"/>
<path fill-rule="evenodd" clip-rule="evenodd" d="M69.0657 25.9866L66.6358 23.2652L55.5736 23.2688L53.9645 21.4257C53.5685 21.5876 53.1185 21.5408 52.7622 21.3033C52.1754 20.9073 52.017 20.1117 52.413 19.525C52.809 18.9382 53.6045 18.7798 54.1913 19.1758C54.7781 19.5718 54.9365 20.3673 54.5405 20.9541L55.8652 22.5092H66.9274L69.6417 25.515C70.0376 25.353 70.4876 25.3998 70.844 25.6374C71.4308 26.0334 71.5892 26.829 71.1932 27.4157C70.7972 28.0025 70.0016 28.1609 69.4149 27.7649C68.8281 27.3689 68.6697 26.5734 69.0657 25.9866ZM88.5947 34.8061C88.987 34.2194 88.8322 33.4238 88.2455 33.0314C87.6587 32.6391 86.8631 32.7938 86.4708 33.3806C86.0784 33.9674 86.2332 34.7629 86.8199 35.1553C87.1727 35.3929 87.6227 35.4397 88.0187 35.2777L91.5465 38.4599L99.4949 38.5139C99.3581 38.2584 99.2141 38.0064 99.0701 37.7544L91.8381 37.7004L88.5947 34.8061ZM101.806 47.3479L90.0166 47.3047L85.8912 43.8993C86.2872 43.3125 86.1288 42.5169 85.542 42.1209C84.9552 41.725 84.1597 41.8834 83.7637 42.4701C83.3677 43.0569 83.5261 43.8525 84.1129 44.2484C84.4693 44.486 84.9193 44.5328 85.3152 44.3708L89.7286 48.0606L101.781 48.1038C101.716 47.8554 101.723 47.5927 101.806 47.3479ZM21.955 42.0382C21.8182 41.3434 22.2718 40.6738 22.9666 40.537L22.7218 36.1957L22.189 35.6629C22.3294 35.4469 22.4698 35.2309 22.6138 35.0149L23.4561 35.8681L23.7045 40.6126C24.1005 40.7782 24.3849 41.1274 24.4677 41.5486C24.6045 42.2433 24.1509 42.9129 23.4561 43.0497C22.7614 43.1865 22.0918 42.7329 21.955 42.0382ZM68.8461 88.8717C68.1369 88.8717 67.5646 89.444 67.5646 90.1532C67.5646 90.4088 67.6402 90.6572 67.7806 90.8659L66.4558 92.4211H55.3972L52.683 95.4269C52.0278 95.1569 51.279 95.4701 51.0127 96.1253C50.7427 96.7804 51.0559 97.5292 51.711 97.7956C52.3662 98.062 53.1149 97.7524 53.3813 97.0972C53.5433 96.7012 53.4965 96.2513 53.2589 95.8985L55.6888 93.177H66.7474L68.3565 91.3339C69.0117 91.6039 69.7605 91.2907 70.0268 90.6356C70.2968 89.9804 69.9836 89.2316 69.3285 88.9652C69.1809 88.9041 69.0117 88.8717 68.8461 88.8717ZM97.0974 65.8545C96.597 66.3549 96.597 67.1648 97.0974 67.6652C97.2774 67.8452 97.5042 67.9676 97.7562 68.0144L97.803 72.6689L94.0556 75.8332L93.9116 80.1133C93.26 80.3869 92.9504 81.1357 93.224 81.7872C93.4976 82.4388 94.2464 82.7484 94.8979 82.4748C95.5495 82.2012 95.8591 81.4524 95.5855 80.8009C95.4199 80.4085 95.0707 80.1205 94.6531 80.0377L94.7971 76.1643L98.5445 73.0001L98.4977 67.9388C99.1493 67.6652 99.4589 66.9164 99.1853 66.2649C98.9117 65.6133 98.1629 65.3037 97.5114 65.5773C97.3566 65.6421 97.2162 65.7357 97.0974 65.8545ZM41.6208 89.5268C41.3544 90.182 40.6092 90.4952 39.954 90.2288L36.4766 93.7026H30.2202C29.9394 93.4542 29.6622 93.2022 29.3886 92.9466H36.1887L39.3745 89.7608C39.1369 89.408 39.0901 88.958 39.2521 88.5621C39.5185 87.9069 40.2636 87.5937 40.9188 87.8601C41.574 88.1265 41.8871 88.8717 41.6208 89.5268Z" fill="#7290C9"/>
<path fill-rule="evenodd" clip-rule="evenodd" d="M49.2377 23.7584L49.2341 23.7548L49.2413 23.7476L49.2305 16.2995C49.5184 16.2276 49.81 16.1592 50.1016 16.0944V23.5532L53.5826 27.0306H59.9507C60.0335 26.6094 60.3215 26.2602 60.7138 26.0946C61.3654 25.821 62.1142 26.1306 62.3878 26.7822C62.6613 27.4338 62.3518 28.1825 61.7002 28.4561C61.0486 28.7297 60.2999 28.4201 60.0263 27.7685H53.2514L50.1016 24.6187V32.6463L52.7655 35.2777L52.7151 43.5645C53.1111 43.7265 53.3954 44.0793 53.4782 44.4968C53.615 45.1916 53.1651 45.8648 52.4703 46.0016C51.7755 46.1384 51.1024 45.6884 50.9656 44.9936C50.8288 44.2989 51.2788 43.6257 51.9735 43.4889L52.0239 35.6089L49.2485 32.9523L49.2377 23.7584ZM60.5771 90.1964C59.8859 90.3332 59.2127 89.8832 59.0759 89.1885L52.7079 89.1849L49.2269 92.6659V100.452H48.3557L48.3665 92.4679L48.3629 92.4643L48.3665 92.4607L48.3773 83.2668L51.1528 80.6065L51.1024 72.7265C50.6812 72.6473 50.332 72.3594 50.1664 71.9634C49.8964 71.3082 50.2024 70.5595 50.8576 70.2859C51.5127 70.0159 52.2615 70.3219 52.5351 70.977C52.8051 71.6322 52.4991 72.381 51.8439 72.6545L51.8943 80.9413L49.2305 83.5728V91.6003L52.3803 88.4505H59.1515C59.3135 88.0545 59.6663 87.7701 60.0839 87.6873C60.775 87.5505 61.4482 88.0005 61.585 88.6953C61.7218 89.3865 61.2718 90.0596 60.5771 90.1964ZM78.3853 89.7356C78.0937 89.0913 77.3342 88.8069 76.6898 89.1021C76.0454 89.3936 75.761 90.1532 76.0562 90.7976C76.3478 91.4419 77.1074 91.7263 77.7517 91.4311C78.1405 91.2547 78.4141 90.8948 78.4861 90.4736L85.7289 90.4772L89.3215 94.0986C89.5123 93.933 89.7031 93.7674 89.8903 93.6018L86.0349 89.7284L78.3853 89.7356ZM83.7958 94.455C84.2818 93.9402 85.0918 93.915 85.6065 94.3974C85.7289 94.5126 85.8261 94.6458 85.8981 94.797L88.4936 94.7934C88.184 95.0453 87.8744 95.2937 87.5612 95.5385H85.9953C85.9521 95.7905 85.8369 96.0245 85.6641 96.2081C85.1781 96.7229 84.3682 96.7481 83.8534 96.2657C83.3386 95.7797 83.3134 94.9697 83.7958 94.455ZM65.7572 85.4159C66.2396 84.9011 66.2144 84.0911 65.6996 83.6052C65.5124 83.4324 65.282 83.3172 65.03 83.274L65.0336 75.682L64.2813 75.6676L64.2921 83.3712C63.6477 83.6664 63.3633 84.4259 63.6585 85.0667C63.9537 85.711 64.7132 85.9954 65.354 85.7002C65.5052 85.6355 65.642 85.5347 65.7572 85.4159ZM26.3249 80.1349C26.8397 80.6209 26.8649 81.4309 26.3825 81.9456C26.2673 82.068 26.1305 82.1652 25.9793 82.2336L25.8353 89.2317C25.5869 88.9437 25.3421 88.6521 25.1045 88.3569L25.2413 82.3344C24.9894 82.2912 24.7554 82.176 24.5718 82.0032C24.057 81.5173 24.0318 80.7073 24.5142 80.1925C25.0002 79.6778 25.8101 79.6526 26.3249 80.1349ZM93.4073 32.0523C92.8925 31.5663 92.0826 31.5951 91.5966 32.1099C91.1106 32.6247 91.1394 33.4346 91.6542 33.9206C92.169 34.4066 92.9789 34.3778 93.4649 33.863C93.6377 33.6758 93.7529 33.4454 93.7961 33.1934H96.1C95.9128 32.9451 95.7256 32.6967 95.5348 32.4483L93.6953 32.4519C93.6269 32.3007 93.5297 32.1675 93.4073 32.0523ZM86.2437 27.5094C86.7261 26.9946 87.536 26.9694 88.0508 27.4518C88.1732 27.5669 88.2704 27.7037 88.3352 27.8549L91.4382 27.8477C91.6902 28.0961 91.9386 28.3445 92.1834 28.5965L88.436 28.5929C88.3964 28.8413 88.2812 29.0753 88.1084 29.2589C87.626 29.7736 86.8161 29.7988 86.3013 29.3165C85.7865 28.8341 85.7613 28.0241 86.2437 27.5094ZM42.1676 24.9715C42.1892 25.677 42.7796 26.235 43.4888 26.2134C44.1943 26.1918 44.7523 25.6015 44.7307 24.8923C44.7091 24.1867 44.1187 23.6288 43.4096 23.6504C43.154 23.6576 42.9092 23.7404 42.7004 23.8915L39.0106 20.1981C38.7802 20.3205 38.5534 20.4429 38.323 20.5725L42.2468 24.4855C42.1892 24.6403 42.1604 24.8059 42.1676 24.9715ZM25.5545 36.1381C25.0398 35.6521 25.011 34.8422 25.4969 34.3274C25.6121 34.205 25.7489 34.1078 25.9001 34.0358L25.8929 30.6916C26.1413 30.4072 26.3897 30.1228 26.6417 29.842L26.6381 33.9386C26.8901 33.9818 27.1204 34.097 27.3076 34.2698C27.8224 34.7558 27.8512 35.5657 27.3652 36.0805C26.8793 36.5953 26.0693 36.6241 25.5545 36.1381ZM84.7534 79.4222L77.1074 79.433C76.8158 78.7886 76.0562 78.5042 75.4119 78.7994C74.7675 79.091 74.4831 79.8506 74.7783 80.4949C75.0699 81.1393 75.8294 81.4237 76.4738 81.1285C76.8626 80.9521 77.1362 80.5921 77.2082 80.1709H84.451L88.1588 83.9075L80.3724 83.9111C80.0808 83.2668 79.3213 82.9824 78.6769 83.2776C78.0325 83.5692 77.7481 84.3287 78.0433 84.9731C78.3385 85.6175 79.0945 85.9018 79.7388 85.6067C80.1276 85.4303 80.4012 85.0703 80.4732 84.6491L97.6047 84.6527C97.7667 84.4043 97.9287 84.1523 98.0871 83.9039L89.2279 83.9075L84.7534 79.4222ZM39.0034 45.2708C38.4886 45.7568 37.6751 45.728 37.1927 45.2132C37.0163 45.0296 36.9011 44.7956 36.8651 44.5436L17.7789 44.5472C17.8689 44.2989 17.9625 44.0469 18.0597 43.7985H28.1104L32.5742 39.3131L40.2201 39.3239C40.4001 38.9351 40.7565 38.6616 41.1777 38.5932C41.8761 38.478 42.5348 38.9495 42.65 39.6479C42.7652 40.3463 42.2936 41.005 41.5953 41.1202C40.8969 41.2354 40.2381 40.7638 40.1229 40.0655L32.8801 40.0691L29.1723 43.8057L36.9587 43.8093C37.0307 43.6545 37.1279 43.5177 37.2503 43.4025C37.7651 42.9165 38.5786 42.9453 39.061 43.4601C39.547 43.9749 39.5182 44.7884 39.0034 45.2708ZM30.4791 82.0608C30.6519 81.8773 30.767 81.6433 30.8102 81.3913L33.9781 81.3949C34.1905 82.068 34.9068 82.446 35.5836 82.2336C36.2568 82.0212 36.6347 81.3049 36.4223 80.6281C36.21 79.955 35.4936 79.577 34.8168 79.7894C34.4101 79.9154 34.0969 80.2357 33.9745 80.6425L30.713 80.6533C30.4215 80.009 29.6619 79.7246 29.0175 80.0198C28.3732 80.3113 28.0888 81.0709 28.384 81.7153C28.6756 82.3596 29.4351 82.644 30.0795 82.3488C30.2271 82.2804 30.3639 82.1832 30.4791 82.0608ZM34.9608 34.8926C35.1228 34.349 35.6232 33.9782 36.1884 33.9782C36.7499 33.9782 37.2431 34.3382 37.4123 34.8782C37.6247 35.5513 37.2467 36.2713 36.5735 36.4837C35.9004 36.6961 35.1804 36.3181 34.968 35.6449L31.8002 35.6413C31.7282 36.0625 31.4546 36.4225 31.0658 36.5989C30.4215 36.8941 29.6619 36.6097 29.3703 35.9653C29.0751 35.3209 29.3595 34.565 30.0039 34.2698C30.6483 33.9746 31.4078 34.259 31.6994 34.9034L34.9608 34.8926ZM76.6394 66.0741C75.9842 65.8041 75.2355 66.1173 74.9691 66.7725C74.6991 67.4276 75.0123 68.1764 75.6674 68.4428C76.3226 68.7128 77.0714 68.3996 77.3378 67.7444C77.4998 67.3484 77.453 66.8984 77.2154 66.5457L80.6424 63.2014L101.77 63.1582V62.4023L80.3508 62.4455L76.6394 66.0741ZM75.1311 67.2728C75.1311 67.82 75.5739 68.2628 76.121 68.2628C76.6682 68.2628 77.111 67.82 77.111 67.2728C77.111 66.7257 76.6682 66.2829 76.121 66.2829C75.5739 66.2829 75.1311 66.7257 75.1311 67.2728ZM31.9154 77.2047L39.6694 77.2623C39.943 77.9139 40.6917 78.2234 41.3433 77.9499C41.9948 77.6763 42.3044 76.9275 42.0308 76.2759C41.7573 75.6244 41.0085 75.3148 40.3569 75.5884C39.9646 75.754 39.6766 76.1032 39.5938 76.5207L32.4734 76.4631L28.276 71.6826H16.5874C16.6666 71.9814 16.7494 72.2766 16.8358 72.5717H27.9808L31.9154 77.2047ZM41.5845 76.078C41.1957 75.6928 40.5693 75.6928 40.1841 76.078C39.7954 76.4667 39.799 77.0895 40.1841 77.4783C40.5729 77.8635 41.1993 77.8635 41.5845 77.4783C41.9696 77.0895 41.9696 76.4631 41.5845 76.078Z" fill="#7290C9"/>
<path fill-rule="evenodd" clip-rule="evenodd" d="M101.806 47.3479C101.572 48.0499 101.95 48.8094 102.652 49.0434C102.958 49.1442 103.293 49.1334 103.588 49.011C103.372 48.147 103.131 47.2939 102.864 46.4515C102.375 46.5271 101.964 46.8727 101.806 47.3479ZM40.6235 48.7914C39.8027 48.4566 38.8667 48.8454 38.532 49.6662C38.1972 50.4869 38.586 51.4229 39.4067 51.7577C40.2275 52.0924 41.1634 51.7037 41.4982 50.8829C41.6998 50.3861 41.6458 49.8246 41.347 49.3782L42.7689 48.3054L42.3298 47.4343L40.6235 48.7914ZM48.4566 65.2065L50.4293 63.3742L60.4368 63.3922L63.9538 60.0012L63.6622 59.3029L60.1092 62.6795H50.0802L47.8807 64.7386C47.2255 64.4686 46.4767 64.7818 46.2068 65.4369C45.9368 66.0921 46.25 66.8409 46.9051 67.1108C47.5603 67.3808 48.309 67.0676 48.579 66.4125C48.741 66.0129 48.6978 65.5593 48.4566 65.2065ZM78.0795 60.7536L74.6524 64.0978C74.8936 64.4542 74.9368 64.9042 74.7712 65.3001C74.5048 65.9553 73.7561 66.2685 73.1009 65.9985C72.4458 65.7321 72.1326 64.9834 72.4026 64.3282C72.6689 63.673 73.4177 63.3598 74.0729 63.6298L77.7879 59.9976L88.1445 59.9544V60.7104L78.0795 60.7536ZM72.6293 64.8286C72.6293 65.3757 73.0721 65.8185 73.6193 65.8185C74.1665 65.8185 74.6092 65.3757 74.6092 64.8286C74.6092 64.2814 74.1665 63.8386 73.6193 63.8386C73.0721 63.8386 72.6293 64.2814 72.6293 64.8286ZM46.4335 65.9337C46.4335 66.4809 46.8763 66.9236 47.4235 66.9236C47.9707 66.9236 48.4134 66.4809 48.4134 65.9301C48.4098 65.3865 47.9707 64.9438 47.4235 64.9438C46.8763 64.9438 46.4335 65.3865 46.4335 65.9337ZM38.9639 50.2925C38.9639 50.8937 39.4499 51.3797 40.0511 51.3797C40.6523 51.3797 41.1382 50.8937 41.1382 50.2925C41.1382 49.6914 40.6523 49.2054 40.0511 49.2054C39.4499 49.2054 38.9639 49.6914 38.9639 50.2925ZM22.3328 66.5745H25.2451V65.7033H22.8584L18.6106 61.4519H20.5329V60.4044H15.0576C15.0612 60.7752 15.0684 61.1424 15.0792 61.5095H17.4407L22.3328 66.5745ZM24.3127 55.9262L24.1975 56.7974L18.6646 51.2681H15.9C15.9468 51.0341 15.9936 50.8037 16.044 50.5697H18.9598L24.3127 55.9262ZM63.5506 66.7509H57.2042V67.5644H63.5506V66.7509Z" fill="#7290C9"/>
<path fill-rule="evenodd" clip-rule="evenodd" d="M68.3023 49.6373V42.9417H93.9941V77.0534H62.7334V49.6373H68.3023ZM69.987 69.1375H86.7369V50.8576H69.987V69.1375Z" fill="#FFFFFA"/>
<path d="M48.2406 70.4154V77.0499H39.5651C39.5651 77.0499 30.8031 77.1651 25.677 69.2779C22.9555 65.0841 22.1276 59.9364 23.3983 55.0983C24.6474 50.3465 28.1213 44.7164 37.3512 42.9381H57.6685V49.2882H39.7414C39.7414 49.2882 30.2883 52.5352 30.4107 60.3756C30.4647 63.8242 32.405 66.9488 35.3929 68.6731C36.7392 69.4471 38.2115 69.9763 39.7414 70.2427L48.2406 70.4154Z" fill="white"/>
<path d="M39.7417 56.7974V63.025H51.0343V77.0535H57.6723V56.7974H39.7417Z" fill="white"/>
</svg>
