<svg width="120" height="120" viewBox="0 0 120 120" fill="none" xmlns="http://www.w3.org/2000/svg">
<circle cx="60" cy="60" r="60" fill="#EEF4F4"/>
<path fill-rule="evenodd" clip-rule="evenodd" d="M76.6288 17L67.5816 25.9625C64.5319 23.8478 60.7707 22.5386 56.7045 22.5386C46.3357 22.5386 38 30.897 38 41.0679C38 50.2318 44.7092 57.8852 53.5532 59.3958V66.1429C44.7092 67.6534 38 75.2061 38 84.4707C38 94.7424 46.4374 103 56.7045 103C66.9716 103 75.409 94.6417 75.409 84.4707C75.409 75.3068 68.6998 67.6534 59.8558 66.1429V59.3958C68.6998 57.8852 75.409 50.3326 75.409 41.0679C75.409 37.0398 74.0875 33.3138 71.9527 30.2927L81 21.3302L76.6288 17ZM69.208 84.2693C69.208 91.1171 63.617 96.6557 56.7045 96.6557C49.8936 96.6557 44.3026 91.1171 44.3026 84.2693C44.3026 77.4215 49.8936 71.8829 56.8061 71.8829C63.617 71.8829 69.208 77.4215 69.208 84.2693ZM44.3026 40.9672C44.3026 47.815 49.8936 53.3536 56.8061 53.3536C63.617 53.3536 69.208 47.815 69.3097 41.0679C69.3097 34.2201 63.7187 28.6815 56.8061 28.6815C49.8936 28.6815 44.3026 34.2201 44.3026 40.9672Z" fill="#181EA9"/>
</svg>
