<svg width="120" height="120" viewBox="0 0 120 120" fill="none" xmlns="http://www.w3.org/2000/svg">
<circle cx="60" cy="60" r="60" fill="#5411B3"/>
<path fill-rule="evenodd" clip-rule="evenodd" d="M60.6981 19C61.3357 19.3875 61.9718 19.7776 62.6078 20.1678C63.9473 20.9895 65.2866 21.8111 66.6397 22.6067C76.1126 28.1526 85.5854 33.691 95.0695 39.2143C95.6936 39.5765 95.9701 39.9801 95.9701 40.7535C95.9514 53.9279 95.9552 67.1023 96 80.2766C96 81.1368 95.6114 81.4952 94.9911 81.8574C83.717 88.4446 72.4505 95.0431 61.1839 101.642C61.0638 101.713 60.9528 101.801 60.8419 101.888L60.8414 101.889C60.7938 101.926 60.7463 101.964 60.6981 102H60.287C59.2732 101.397 58.2593 100.792 57.2452 100.188L57.2447 100.187C54.8575 98.7639 52.4686 97.3394 50.0743 95.9335C42.0251 91.2138 33.9685 86.5016 25.9044 81.8121C25.2206 81.416 24.9964 80.9633 25.0001 80.171C25.0375 67.1023 25.0449 54.0335 25.0188 40.961C25.0188 40.0254 25.3364 39.5538 26.0987 39.1124C36.5842 33.0065 47.0531 26.8807 57.5242 20.7536L57.5256 20.7528L59.5733 19.5546C59.7489 19.4518 59.9072 19.3175 60.0647 19.1839C60.1384 19.1213 60.212 19.0589 60.287 19H60.6981ZM71.1837 84.9473C72.3919 85.7831 73.5795 86.6514 74.7842 87.5321C75.1183 87.7764 75.4537 88.0215 75.7912 88.2673L75.8312 88.2498L75.8313 88.2498C75.914 88.2139 76.0211 88.1674 76.12 88.1126C77.1233 87.5266 78.127 86.941 79.1308 86.3552L79.1337 86.3535C83.1766 83.9944 87.2219 81.6338 91.2505 79.2467C91.5494 79.0694 91.811 78.5487 91.811 78.1903C91.8372 66.3968 91.8334 54.607 91.7998 42.8172C91.7654 42.4019 91.5524 42.0226 91.2169 41.7797C88.4585 40.1423 85.6921 38.5212 82.926 36.9002L82.9258 36.9001C80.708 35.6005 78.4902 34.3009 76.277 32.993C75.7613 32.6912 75.4736 32.7818 75.0363 33.1251C73.8293 34.0796 61.9612 41.3987 57.3125 44.2169C53.6803 46.4126 50.1303 48.7291 47.3202 52.0265C43.4451 56.5726 43.0826 62.873 46.472 67.8153C48.1498 70.2676 50.3882 72.1313 52.7872 73.7875C54.1001 74.691 55.4411 75.5501 56.7813 76.4087L56.7827 76.4096C57.3951 76.8019 58.0074 77.1941 58.6167 77.5905C58.6083 77.6025 58.6005 77.6145 58.5932 77.6264C58.5861 77.6377 58.5795 77.6488 58.573 77.6595C58.5436 77.7085 58.5182 77.7508 58.4822 77.7715C57.9727 78.07 57.4634 78.369 56.9542 78.6681L56.9538 78.6683C54.9009 79.8739 52.8471 81.08 50.7693 82.2498C50.519 82.3894 49.9995 82.2498 49.7155 82.0687C46.9604 80.2735 44.433 78.145 42.1895 75.7305C35.7248 68.8868 34.4094 57.6705 39.1253 49.4874C41.2975 45.7125 44.3184 42.5061 47.9443 40.1273C51.5594 37.7404 60.1312 32.5533 64.7035 29.7865L64.7043 29.786C66.0866 28.9495 67.1032 28.3343 67.5066 28.0847C67.4483 28.0082 67.4065 27.9455 67.3725 27.8945L67.3725 27.8944C67.3194 27.8147 67.2854 27.7638 67.2376 27.7339C66.7646 27.4553 66.2924 27.1756 65.8203 26.8959L65.8197 26.8955L65.8195 26.8954C64.2329 25.9554 62.647 25.0159 61.0344 24.1234C60.728 23.9536 60.1712 24.0177 59.8386 24.1913C58.9714 24.6433 58.1317 25.1467 57.2924 25.6499C57.0179 25.8145 56.7434 25.979 56.468 26.1418C55.6787 26.6066 54.8919 27.0763 54.0289 27.5913L53.3664 27.9866L58.74 31.3972C58.0727 31.795 57.4142 32.1888 56.762 32.5789L56.7617 32.579C54.7295 33.7944 52.758 34.9735 50.7693 36.1244C50.5601 36.2451 50.1116 36.1508 49.8837 35.9924C48.5827 35.1084 47.3138 34.1772 46.0796 33.2005C45.5377 32.7667 45.179 32.7252 44.5736 33.0836C39.6866 35.9689 34.7863 38.8311 29.8729 41.6703C29.3311 41.9835 29.1555 42.3494 29.1555 42.9832C29.1741 54.6711 29.1704 66.359 29.1517 78.0432C29.1517 78.6695 29.3124 79.0392 29.8692 79.3636C34.7495 82.1856 39.6149 85.0378 44.469 87.9089C45.0071 88.2295 45.3659 88.2145 45.9077 87.8485C49.3904 85.4981 65.3243 75.4136 69.7525 72.6331C70.2729 72.3063 70.736 71.8817 71.1976 71.4584C71.4021 71.2709 71.6064 71.0836 71.8152 70.9052L71.7031 70.6411H55.1638C55.4828 70.0816 55.7976 69.528 56.1096 68.9795L56.1115 68.9763L56.1121 68.9752C57.4443 66.6332 58.724 64.3836 60.0404 62.1562C60.1899 61.9072 60.7392 61.8016 61.1054 61.8016C66.9387 61.7869 72.7743 61.7882 78.6086 61.7895H78.6089C80.2756 61.7899 81.9422 61.7903 83.6087 61.7903C83.798 61.7903 83.9873 61.8039 84.1928 61.8187C84.3117 61.8272 84.4361 61.8362 84.569 61.8431C84.575 61.9573 84.5874 62.0677 84.5993 62.1742L84.5993 62.1742C84.6249 62.4017 84.6485 62.6112 84.6026 62.8014C84.463 63.3877 84.3366 63.9794 84.2101 64.5714C83.8897 66.0706 83.569 67.5713 83.0332 68.9886C81.2619 73.6895 77.9772 77.3037 73.9751 80.088C70.1249 82.7625 58.8707 89.5037 54.6257 92.0464C54.0502 92.3912 53.6035 92.6587 53.3216 92.8285C53.3682 92.9116 53.398 92.9745 53.4204 93.0219C53.4519 93.0883 53.4688 93.124 53.4972 93.1416C53.9445 93.4079 54.4019 93.6606 54.8593 93.9134L54.8597 93.9136C55.8734 94.4738 56.8871 95.034 57.7908 95.741C59.6779 97.2124 61.3222 97.2049 63.2093 95.741C64.1387 95.0218 65.1763 94.447 66.2661 93.8433C66.7712 93.5635 67.2874 93.2775 67.8093 92.9681L62.3386 89.516C62.3918 89.469 62.437 89.4253 62.478 89.3857L62.4781 89.3856C62.5522 89.3139 62.6126 89.2555 62.6824 89.2142L63.5937 88.6798L63.5941 88.6796C65.7942 87.3891 67.9964 86.0975 70.2158 84.8379C70.455 84.7058 70.9408 84.7775 71.1837 84.9473ZM84.3896 57.2894C84.2476 54.9994 83.2873 52.0302 81.9981 49.7213C79.3748 45.028 75.4698 41.6401 71.0977 38.7389C70.795 38.539 70.1224 38.6672 69.7487 38.8785C68.2089 39.7336 66.6933 40.6274 65.1781 41.521C64.6343 41.8418 64.0904 42.1626 63.5456 42.4815C63.2885 42.6328 63.036 42.7873 62.7562 42.9584C62.5967 43.056 62.4283 43.159 62.2451 43.27C62.3216 43.3233 62.3904 43.3716 62.4535 43.4159C62.6405 43.5472 62.7781 43.6438 62.9178 43.734C63.6158 44.1998 64.3201 44.6571 65.0243 45.1143C66.556 46.1086 68.0876 47.103 69.5544 48.1858C72.57 50.4117 75.1223 53.0602 76.3181 56.7876C76.3891 57.0065 76.7403 57.2668 76.9646 57.2705C78.8326 57.2965 80.6985 57.2938 82.6037 57.2911C83.1948 57.2903 83.7897 57.2894 84.3896 57.2894Z" fill="white"/>
</svg>
