<svg width="120" height="120" viewBox="0 0 120 120" fill="none" xmlns="http://www.w3.org/2000/svg">
<circle cx="60" cy="60" r="60" fill="black"/>
<circle cx="59.8743" cy="59.9999" r="53.5916" fill="#FEF102"/>
<path fill-rule="evenodd" clip-rule="evenodd" d="M85.2568 39.8953C84.9765 39.2508 84.6994 38.4687 84.4018 37.6287C83.3647 34.7019 82.0779 31.0706 79.5395 30.0942C75.3301 28.4607 72.6913 39.0785 72.0631 41.7801H71.4348L71.3841 41.5624C70.3204 36.9896 68.8427 30.637 63.8955 29.2147C61.5709 39.0157 66.3458 49.6335 70.8065 58.1152C75.5814 55.8534 77.906 48.6911 78.3458 43.6649H78.9741L84.0002 58.7435C87.8663 57.6561 89.3511 53.897 90.7441 50.3701C90.7999 50.2288 90.8556 50.088 90.9112 49.9476C94.0526 42.1571 96.6913 32.5445 94.6809 24.1885C89.2523 25.7153 87.2337 32.8914 85.7393 38.2044C85.5733 38.7944 85.4138 39.3615 85.2568 39.8953ZM24.9426 60C30.3458 57.4241 32.9217 49.2565 33.7384 43.6649H34.3667C34.995 46.3665 36.6913 53.3403 40.084 53.7801C44.3563 54.3455 46.618 44.7958 46.9322 41.7801H47.5604C47.6637 42.1319 47.7672 42.4918 47.8724 42.8576L47.8727 42.8586C49.1769 47.391 50.7398 52.8229 55.0997 54.9738C56.8589 47.623 54.7856 39.8325 52.084 32.9843C51.9967 32.762 51.8983 32.4915 51.7881 32.1886C51.0265 30.0945 49.701 26.4503 47.5604 26.4503C43.7638 26.4503 41.528 36.1036 40.7419 39.4974L40.7419 39.4974L40.7417 39.4983C40.7083 39.6423 40.6776 39.775 40.6494 39.8953H40.0212L34.995 24.8167C26.1364 29.0262 21.3615 51.5183 24.9426 60ZM79.6023 100.272C52.3353 112.398 22.0526 96.1885 15.5186 67.5393C18.2201 66.7853 21.2358 67.288 23.2463 68.7958C24.9291 70.1217 25.9911 72.3167 26.9697 74.3395C27.1968 74.8089 27.4194 75.269 27.6442 75.7068C30.1573 80.5445 33.9269 84.5654 38.1364 87.9581C56.9217 103.225 83.5604 94.8063 93.4243 75.7068L87.9583 75.267H87.7699C86.3877 75.0785 85.4453 73.7592 85.6337 72.377C85.7594 71.8743 86.0735 71.4346 86.5133 71.2461C89.7175 69.8639 102.723 64.3979 104.042 67.7277C105.338 70.9993 103.178 75.5445 101.97 78.086C101.948 78.1313 101.927 78.1759 101.906 78.2199C97.3824 88.0209 89.529 95.8743 79.6023 100.272Z" fill="black"/>
</svg>
