<svg width="120" height="120" viewBox="0 0 120 120" fill="none" xmlns="http://www.w3.org/2000/svg">
<circle cx="60" cy="60" r="60" fill="#FF0060"/>
<path d="M94.1096 45.5486H59.9979C52.6732 45.5372 46.498 51.007 45.6252 58.2796C44.7524 65.5521 49.458 72.3278 56.5774 74.0498C63.6968 75.7719 70.9788 71.8958 73.5262 65.0283H59.9979C58.9859 65.0293 58.015 64.6277 57.2994 63.9121C56.5838 63.1965 56.1823 62.2257 56.1833 61.2137V60.7513C56.1823 59.7393 56.5838 58.7684 57.2994 58.0528C58.015 57.3372 58.9859 56.9356 59.9979 56.9366H82.5464C82.7104 57.9882 82.7887 59.0509 82.7775 60.1136C82.7158 72.6798 72.4899 82.8225 59.9237 82.7814C47.3575 82.7404 37.1981 72.531 37.2185 59.9647C37.239 47.3983 47.4316 37.2221 59.9979 37.222L60.6952 37.1064C60.8406 37.1735 60.9935 37.2108 61.1576 37.222H81.3904C92.4316 37.222 96.9398 31.3266 96.9398 23H59.9979C39.5935 23 23.0373 39.5302 23 59.9421C22.9702 80.3541 39.4742 96.9327 59.886 96.9998C80.2979 97.0632 96.9025 80.5852 96.9995 60.1733V48.4944C97.0145 47.7183 96.7167 46.9688 96.1731 46.4147C95.6295 45.8606 94.8858 45.5485 94.1096 45.5486Z" fill="white"/>
</svg>
