<svg width="120" height="120" viewBox="0 0 120 120" fill="none" xmlns="http://www.w3.org/2000/svg">
<circle cx="60" cy="60" r="60" fill="#00DCFA"/>
<path fill-rule="evenodd" clip-rule="evenodd" d="M44.6847 44.681C46.2429 30.2276 58.6438 19 73.2443 19C89.1228 19.0104 101.992 31.881 102 47.7595C102 62.3562 90.7724 74.7571 76.3153 76.319C74.8062 90.7724 62.3562 102 47.7557 102C31.8772 101.99 19.0083 89.119 19 73.2405C19 58.6438 30.2239 46.2429 44.6847 44.681ZM76.5115 69.7281C86.1913 68.2545 93.7883 60.6575 95.2619 50.9776H76.5115V69.7281ZM25.7381 70.0224L25.7455 69.9733H44.4885V51.2229C34.8098 52.6997 27.2177 60.2977 25.7455 69.9733H25.7381V70.0224ZM69.7766 76.5152L69.7771 76.5115V76.5152H69.7766ZM69.7766 76.5152C68.1648 87.4323 58.7915 95.5166 47.7557 95.5071C36.7208 95.5166 27.3482 87.4321 25.7381 76.5152H69.7766ZM70.0224 50.9776V69.9733H50.9776V50.9776H70.0224ZM51.2229 44.4885H95.2619V44.4848C93.6518 33.5679 84.2792 25.4834 73.2443 25.4929C62.2073 25.4834 52.833 33.5696 51.2229 44.4885Z" fill="white"/>
</svg>
