<svg width="120" height="120" viewBox="0 0 120 120" fill="none" xmlns="http://www.w3.org/2000/svg">
<circle cx="60" cy="60" r="60" fill="#16B9AD"/>
<path d="M98 49.4466C98 69.6037 81.1738 86 60.5 86C39.8263 86 23 69.6 23 49.4541C23 47.9706 23.09 46.4835 23.2775 45.0075H30.0125C29.7875 46.4797 29.675 47.9669 29.675 49.4541C29.675 66.0218 43.505 79.5034 60.5037 79.5034C76.7262 79.5034 90.0613 67.2332 91.2538 51.7165H43.55C44.5625 58.9624 50.3112 64.7173 57.7137 65.9063C65.12 67.0915 72.4512 63.4314 75.7962 56.8863H83.015C79.7337 66.2865 70.6775 72.6079 60.4925 72.6154C47.3825 72.6154 36.7137 62.22 36.7137 49.4466C36.7137 47.9557 36.8638 46.4648 37.1525 45H97.7225C97.91 46.476 98 47.9595 98 49.4466Z" fill="white"/>
</svg>
