<svg width="120" height="120" viewBox="0 0 120 120" fill="none" xmlns="http://www.w3.org/2000/svg">
<circle cx="60" cy="60" r="60" fill="#B3B3B3"/>
<path fill-rule="evenodd" clip-rule="evenodd" d="M25.3009 26.2178C30.2149 21.078 39.1907 20.8737 44.2714 25.8683C49.576 31.0529 54.8242 36.2868 60.016 41.5699C62.6995 39.0208 65.2981 36.3894 67.8967 33.758C70.6528 30.9672 73.4088 28.1764 76.266 25.4839C81.5483 20.7151 90.5133 21.2903 95.2149 26.6344C100.024 31.6721 99.9461 40.4651 94.9461 45.3575C91.2478 49.1236 87.5161 52.8478 83.7831 56.5733L83.7818 56.5746L83.7785 56.5779C82.3277 58.0258 80.8766 59.4739 79.4273 60.9248C81.7748 63.345 84.1668 65.7225 86.5598 68.1009L86.5599 68.101C89.5623 71.0853 92.5664 74.0711 95.4864 77.1452C100.196 82.3092 99.7445 91.0995 94.645 95.8468C89.6208 100.917 80.6208 100.93 75.6074 95.8468C72.6093 92.9105 69.6486 89.9263 66.6889 86.9431L66.6886 86.9428L66.6877 86.942C64.4995 84.7364 62.3118 82.5314 60.1101 80.3468C57.6398 82.7234 55.221 85.1521 52.8017 87.5813L52.8016 87.5814C49.8055 90.5897 46.8086 93.5988 43.7122 96.5108C38.3628 101.258 29.3386 100.543 24.7311 95.1022C20.0913 90.0753 20.2015 81.5081 25.0456 76.6371C29.594 71.9705 34.223 67.3817 38.8655 62.8307C39.8372 63.7998 40.8097 64.7722 41.7821 65.7446C42.7546 66.7171 43.727 67.6895 44.6988 68.6586C42.7451 70.6769 40.7478 72.6576 38.7497 74.6391L38.7495 74.6393C36.0931 77.2736 33.4352 79.9094 30.8762 82.6371C27.852 85.7366 30.516 91.5081 34.7633 91.4409C37.0327 91.6401 38.6829 90.0046 40.1901 88.511C40.3914 88.3115 40.5902 88.1145 40.7875 87.9248C43.0266 85.6436 45.2834 83.3831 47.5401 81.1226L47.5404 81.1223C49.7568 78.9024 51.9729 76.6825 54.1719 74.4436C50.0134 70.2493 45.8261 66.0793 41.6386 61.909L41.6385 61.909C36.0812 56.3746 30.5234 50.8398 25.0321 45.2473C20.0079 40.1855 20.1665 31.1559 25.3009 26.242V26.2178ZM30.9192 39.3656C34.1596 42.7454 37.4774 46.0434 40.7971 49.3434C42.7265 51.2614 44.6566 53.18 46.5725 55.1156C49.0814 52.5672 51.6137 50.035 54.1692 47.5188C52.9442 46.2846 51.7203 45.0476 50.4962 43.8102C46.6786 39.9512 42.8579 36.0892 38.9864 32.3011C37.3574 30.543 34.5698 29.8817 32.4434 31.1506C29.4864 32.5834 28.5563 36.9785 30.9139 39.3683L30.9192 39.3656ZM64.5734 48.8214C70.03 43.3377 75.4858 37.8547 81.0052 32.4355H81.0026C82.5644 30.6774 85.2069 29.8898 87.3762 31.0054C90.5993 32.336 91.6128 37.0377 89.0832 39.4946C86.28 42.4887 83.3584 45.3668 80.4371 48.2445C78.1337 50.5135 75.8305 52.7823 73.5859 55.1076C71.6074 53.2124 69.6746 51.285 67.7418 49.3575C65.8135 51.311 63.8771 53.2572 61.9327 55.1963C70.4273 63.7213 78.9398 72.2285 87.4703 80.7178C89.2821 82.3979 91.1988 84.707 90.3574 87.3791C89.5725 91.1533 84.2902 92.8925 81.5698 90.0269C77.6499 86.335 73.8752 82.4995 70.1006 78.6642C68.711 77.2522 67.3214 75.8403 65.9246 74.4355C67.8574 72.5188 69.7687 70.6022 71.6665 68.664C70.3618 67.379 69.0678 66.0832 67.7743 64.7879C67.1276 64.1403 66.481 63.4928 65.8332 62.8468L65.8312 62.8488C63.9098 64.7756 61.9884 66.7023 60.0563 68.6076C57.5402 66.0377 54.9676 63.5242 52.3816 61.0215C56.4636 56.9716 60.5187 52.8963 64.5734 48.8214Z" fill="url(#paint0_linear)"/>
<defs>
<linearGradient id="paint0_linear" x1="98.7611" y1="99.6694" x2="98.7611" y2="22.2393" gradientUnits="userSpaceOnUse">
<stop stop-color="#2F75BB"/>
<stop offset="1" stop-color="#0A4185"/>
</linearGradient>
</defs>
</svg>
