<svg width="120" height="120" viewBox="0 0 120 120" fill="none" xmlns="http://www.w3.org/2000/svg">
<circle cx="60" cy="60" r="60" fill="#EDF0F4"/>
<path fill-rule="evenodd" clip-rule="evenodd" d="M41.5014 81.0543V86.1797H39.8601V84.3459H37.6046V86.1797H36V81.0635H37.6046V82.8056H39.8601V81.0543H41.5014ZM58.6931 81.0543V82.5122H54.4112V84.7219H58.6656V86.1797H52.8066V81.0635H58.6656L58.6931 81.0543ZM79.8458 81.0543L82.083 83.264V81.0543H83.6784V86.1797H82.0646L79.8183 83.9058V86.1797H78.177V81.0543H79.8458ZM66.8993 81.0543V82.8056L65.3405 84.3459H66.8993V86.1797H65.1938V84.3459H62.6907V86.1797H61.0128V81.0635H62.6907V82.8056H65.1938V81.0543H66.8993ZM49.7534 81.0543H50.0284V86.1797H48.4697V85.0703H46.1958V86.1797H44.6004V81.0635H49.7534V81.0543ZM75.0413 81.0543V82.5122H71.2086V82.8973H75.0688V84.3459H71.2086V84.731H75.0688V86.1797H69.5674V81.0635H75.0688L75.0413 81.0543ZM48.4697 82.5122H46.1958V83.5574H48.4697V82.5122ZM38.7507 33V54.1894H41.5014V33H44.252V54.1894H80.9277V51.1178H47.3328V33H50.0835V48.3213H80.9277V45.5706H52.4124V33H55.163V42.7832H64.1211V33H66.8717V42.7832H69.6224V33H72.3731V42.7832H75.4997V33H78.2504V42.7832H81.001V33H83.7517V77.9277H80.9277V57.0317H77.8194V77.9277H75.0688V57.0317H38.7507V59.7824H72.3456V77.9277H69.5949V62.5881H38.7507V65.3388H67.266V77.9277H64.5153V68.1261H55.539V77.9277H52.7883V68.1261H50.0376V77.9277H47.2869V68.1261H44.252V77.9277H41.5014V68.1261H38.7507V77.9277H36V33H38.7507Z" fill="#4ADDA5"/>
</svg>
