<svg width="120" height="120" viewBox="0 0 120 120" fill="none" xmlns="http://www.w3.org/2000/svg">
<circle cx="60" cy="60" r="60" fill="#EDF0F4"/>
<path fill-rule="evenodd" clip-rule="evenodd" d="M81.2236 26.6378L99.6031 58.4856H99.6101C100.13 59.5148 100.13 60.7297 99.6101 61.7588L81.2236 93.6067C80.592 94.572 79.5394 95.1798 78.3877 95.2445H69.9814L82.1973 74.0882C82.5422 73.4078 82.5422 72.6038 82.1973 71.9234L68.3224 47.891C67.905 47.2519 67.2081 46.8499 66.4459 46.8086H38.6984C37.9362 46.8499 37.2393 47.2519 36.8219 47.891L24.6036 69.0567L20.3899 61.7588C19.87 60.7297 19.87 59.5148 20.3899 58.4856L38.7764 26.6378C39.408 25.6725 40.4606 25.0646 41.6123 25H78.3877C79.5394 25.0646 80.592 25.6725 81.2236 26.6378ZM77.8607 72.2141L65.8787 51.469C65.5837 51.0243 65.0973 50.7435 64.5647 50.7104H40.6008C40.0682 50.7435 39.5819 51.0243 39.2868 51.469L27.3049 72.2235C27.0662 72.7011 27.0662 73.2632 27.3049 73.7408L30.8168 79.8286L36.9613 69.1938C37.299 68.6755 37.8633 68.349 38.4809 68.3146H54.2678C54.8854 68.349 55.4497 68.6755 55.7874 69.1938L63.6832 82.8678C63.9621 83.4199 63.9621 84.0717 63.6832 84.6238L57.5386 95.2586H64.5576C65.0909 95.2257 65.5776 94.9438 65.8716 94.4977L77.8536 73.7455C78.0993 73.2652 78.1019 72.6966 77.8607 72.2141ZM38.8024 93.6469L33.3857 84.2645C33.2157 83.918 33.2157 83.5122 33.3857 83.1656L39.4003 72.7505C39.6147 72.4246 39.9703 72.2188 40.3598 72.1952H52.3866C52.7767 72.2188 53.133 72.4245 53.3485 72.7505L59.3631 83.1656C59.5355 83.5158 59.5355 83.9262 59.3631 84.2764L53.3485 94.6914C53.1342 95.0103 52.7861 95.2139 52.4032 95.2445H41.5911C40.4643 95.1724 39.4345 94.5824 38.8024 93.6469Z" fill="url(#paint0_linear)"/>
<defs>
<linearGradient id="paint0_linear" x1="79.4435" y1="112.328" x2="111.81" y2="39.6474" gradientUnits="userSpaceOnUse">
<stop stop-color="#FFDC00"/>
<stop offset="0.33" stop-color="#E58E2F"/>
<stop offset="0.67" stop-color="#DB2D72"/>
<stop offset="1" stop-color="#FF00FF"/>
</linearGradient>
</defs>
</svg>
