<svg width="120" height="120" viewBox="0 0 120 120" fill="none" xmlns="http://www.w3.org/2000/svg">
<circle cx="60" cy="60" r="60" fill="#EDF0F4"/>
<ellipse cx="59.93" cy="59.8731" rx="39.3011" ry="39.2514" fill="white"/>
<path fill-rule="evenodd" clip-rule="evenodd" d="M56.8843 15.1896C37.7253 16.4896 21.2669 30.0927 16.4694 48.5934C13.2622 60.9609 15.3569 73.9939 22.247 84.5416C25.8948 90.126 31.1322 95.1859 36.7817 98.5838C51.5695 107.478 70.2841 107.099 84.727 97.6128C100.888 86.9987 108.408 67.3961 103.532 48.5934C100.32 36.2094 91.6663 25.5863 80.1019 19.8321C76.0445 17.8134 71.8431 16.4397 67.4236 15.6868C65.806 15.4113 60.2915 14.9381 59.4979 15.0067C59.332 15.021 58.1558 15.1033 56.8843 15.1896ZM65.7149 29.4273C70.6908 30.4401 75.7135 32.9495 79.1374 36.1335C81.4225 38.2585 81.3483 38.0055 81.2188 43.2259L81.1085 47.6853L80.2662 47.0406C79.5919 46.5246 79.3816 46.206 79.2134 45.4448C78.637 42.8384 77.0489 40.1727 74.7433 37.9413C72.6783 35.9428 70.1938 34.7732 65.8303 33.7456C61.4834 32.7221 54.4117 32.097 49.4465 32.2974L46.7326 32.4068L47.6714 31.9268C50.2831 30.5912 54.1385 29.4354 57.3047 29.0384C59.4384 28.771 63.3872 28.9535 65.7149 29.4273ZM54.3727 36.307C55.4544 38.2119 57.6466 42.0742 59.244 44.8901C60.8414 47.706 62.3804 50.4118 62.6643 50.9031L63.1803 51.7961L62.5955 51.3484C61.1952 50.2759 58.8827 48.7566 57.5119 48.0085L56.0287 47.199L52.2349 40.0876C50.1484 36.1763 48.4413 32.9465 48.4413 32.91C48.4413 32.8734 49.3333 32.8435 50.4235 32.8435H52.4056L54.3727 36.307ZM60.8387 43.7603C64.3121 49.7095 67.1277 54.6005 67.0954 54.6295C67.063 54.6582 66.4167 54.2181 65.6592 53.6511L64.2822 52.6199L58.6769 42.8823C55.5939 37.5267 53.07 33.0714 53.0682 32.9821C53.0664 32.8925 53.393 32.8473 53.7941 32.8817L54.5234 32.9439L60.8387 43.7603ZM46.3808 39.5527C48.2881 42.9026 49.8485 45.6998 49.8485 45.7687C49.8485 45.8375 49.4177 45.894 48.891 45.894C48.0909 45.894 47.9009 45.8197 47.7351 45.4422C47.321 44.4996 46.2045 44.2 42.8079 44.1203C39.8499 44.0507 39.6763 44.0241 39.4776 43.615C39.3625 43.3777 38.4287 41.6221 37.4026 39.7141C36.3321 37.7234 35.5869 36.1152 35.6541 35.9404C35.8211 35.5057 37.985 34.5457 40.0986 33.9691C43.0537 33.1626 42.4239 32.6026 46.3808 39.5527ZM67.0618 37.9469C68.4024 40.054 71.2766 44.5697 73.4487 47.9814C77.1402 53.7798 77.377 54.2084 77.0738 54.5427C76.7465 54.9039 75.3999 55.6227 75.2837 55.498C75.2491 55.4611 72.806 51.6361 69.8547 46.9982C66.9034 42.3603 63.818 37.516 62.9984 36.2333C62.1788 34.9502 61.5082 33.8179 61.5082 33.7169C61.5082 33.6151 62.2025 33.6631 63.0661 33.8245L64.6241 34.1158L67.0618 37.9469ZM84.7409 41.1703C88.4772 45.0126 93.0001 51.7797 94.7772 56.1869C96.2246 59.7761 96.1822 63.5304 94.6395 68.3807C93.1161 73.1698 90.4744 76.8877 87.6771 78.1789C84.8862 79.4673 81.6858 78.31 80.9933 75.7618C80.6298 74.4242 80.8857 70.3473 81.5829 66.373C82.7641 59.6398 82.8172 58.8873 82.8172 48.8953C82.8172 42.0507 82.8771 39.67 83.0496 39.67C83.1772 39.67 83.9383 40.3452 84.7409 41.1703ZM44.9233 45.0792C45.6054 45.22 45.4671 45.2487 44.0135 45.2683C40.6143 45.3141 37.675 45.8432 37.0627 46.519C36.6795 46.9418 36.6462 48.1886 36.9903 49.2296C37.1188 49.6183 37.1757 49.9843 37.117 50.0432C36.9817 50.1781 36.4498 48.4057 36.2739 47.2337C36.156 46.4493 36.1957 46.3062 36.6118 46.014C37.8561 45.1409 42.6245 44.6042 44.9233 45.0792ZM53.1655 47.9854C55.4146 48.5711 58.6043 50.3542 62.0184 52.9345C67.411 57.0104 68.5613 57.5405 72.0055 57.5365C74.6301 57.5335 76.6722 56.9986 77.7955 56.0196C78.0546 55.7937 78.3375 55.8903 79.6637 56.6581L81.2263 57.5626L81.1004 58.8054C81.0313 59.489 80.6023 62.2621 80.1469 64.9675C79.4246 69.2607 79.3179 70.2951 79.3093 73.0989C79.3 76.0567 79.335 76.3781 79.7515 77.1563C80.0004 77.6213 80.2038 78.1891 80.2038 78.418C80.2038 79.5345 78.057 82.778 76.1525 84.539C74.0027 86.5269 71.6448 87.3117 69.1555 86.8674C65.0491 86.1344 62.7606 83.7845 58.1655 75.5829C53.303 66.9044 50.4311 63.4716 46.2853 61.3815C44.943 60.7047 42.4462 59.9482 41.5551 59.9482C40.7994 59.9482 40.5527 59.2916 40.5236 57.2018C40.4926 54.9912 40.1372 55.6273 40.1151 57.9326L40.0986 59.647L38.4803 59.8687C34.3831 60.43 31.9271 62.7823 31.0249 67.0098C30.7822 68.1462 30.7354 69.2121 30.819 71.6935C30.9334 75.0862 31.243 76.9357 32.3607 80.9052C32.699 82.107 32.9503 83.1145 32.9188 83.1438C32.8874 83.1733 32.3718 83.0139 31.7729 82.7897C30.1048 82.1651 28.2724 80.225 27.0765 77.8171C25.4298 74.5019 24.72 70.8914 24.72 65.8321C24.72 58.8092 26.1759 53.7089 29.0015 50.8324C30.6222 49.1826 32.3675 48.28 34.1915 48.1485L35.5214 48.0525L35.6501 48.7381C35.875 49.9349 37.1244 52.2617 37.9959 53.1064C38.9435 54.0247 40.0926 54.4277 41.186 54.2253C43.186 53.8553 45.4002 51.8337 46.8468 49.0568L47.686 47.4455L49.8226 47.5586C50.9978 47.6206 52.5021 47.8128 53.1655 47.9854ZM50.3471 48.912C50.2691 49.0381 50.2998 49.2359 50.4154 49.3513C50.6856 49.6211 51.3154 49.3856 51.2055 49.0558C51.0937 48.7203 50.5248 48.6249 50.3471 48.912ZM33.4648 49.1064C33.2965 49.3782 33.5235 49.7087 33.8787 49.7087C34.0381 49.7087 34.1684 49.528 34.1684 49.3071C34.1684 48.8915 33.6833 48.753 33.4648 49.1064ZM30.9519 50.3993C30.9519 50.5586 31.0241 50.7334 31.1123 50.7878C31.3694 50.9466 31.8209 50.5784 31.6694 50.3335C31.47 50.011 30.9519 50.0586 30.9519 50.3993ZM48.6779 50.8465C48.7756 51.3502 49.2454 51.4191 49.2454 50.9298C49.2454 50.6832 49.1156 50.5118 48.9292 50.5118C48.7418 50.5118 48.6393 50.6483 48.6779 50.8465ZM53.6681 51.7164C53.6681 52.0188 53.773 52.1272 54.0199 52.0798C54.2134 52.0425 54.3717 51.879 54.3717 51.7164C54.3717 51.5538 54.2134 51.3904 54.0199 51.353C53.773 51.3056 53.6681 51.4141 53.6681 51.7164ZM34.2689 51.7164C34.1006 51.9883 34.3276 52.3187 34.6828 52.3187C34.8422 52.3187 34.9725 52.138 34.9725 51.9172C34.9725 51.5016 34.4874 51.3631 34.2689 51.7164ZM31.1877 52.4511C31.2723 52.8905 31.8565 52.9526 31.8565 52.5223C31.8565 52.3581 31.6901 52.1919 31.4864 52.1527C31.2179 52.1011 31.136 52.1828 31.1877 52.4511ZM32.7994 53.4732C32.8367 53.6665 33.0004 53.8246 33.1632 53.8246C33.326 53.8246 33.4897 53.6665 33.5271 53.4732C33.5745 53.2266 33.466 53.1218 33.1632 53.1218C32.8605 53.1218 32.7519 53.2266 32.7994 53.4732ZM49.0444 53.7406C49.0444 54.2299 49.5142 54.161 49.6119 53.6573C49.6505 53.4591 49.548 53.3226 49.3606 53.3226C49.1743 53.3226 49.0444 53.4941 49.0444 53.7406ZM51.5639 53.7135C51.387 53.9992 51.6125 54.3265 51.9858 54.3265C52.1619 54.3265 52.2629 54.1851 52.2253 53.9916C52.1471 53.5882 51.7456 53.4198 51.5639 53.7135ZM43.0807 61.8716C45.0439 62.3777 47.2782 63.6539 48.9879 65.2452C51.5249 67.6061 53.0819 69.8793 57.3248 77.4155C60.2994 82.6993 62.7254 85.7605 64.9389 87.0232C66.1551 87.7169 66.2141 87.6526 63.3496 88.7577C56.6089 91.3575 49.1353 90.8369 41.7069 87.2501C38.2685 85.5897 35.7003 83.8255 34.8673 82.5512C33.1676 79.9513 31.8218 71.2445 32.5489 67.5535C33.0416 65.0521 34.2427 63.1475 35.8579 62.3067C37.7253 61.3345 40.3781 61.1747 43.0807 61.8716Z" fill="black"/>
</svg>
