<svg width="120" height="120" viewBox="0 0 120 120" fill="none" xmlns="http://www.w3.org/2000/svg">
<path fill-rule="evenodd" clip-rule="evenodd" d="M60 0C93.132 0 120 26.868 120 60C120 93.132 93.132 120 60 120C26.868 120 0 93.132 0 60C0 26.868 26.868 0 60 0Z" fill="#203091"/>
<path d="M69.8511 41.5485C69.8511 27.782 63.215 15.9217 58.132 12.0389C58.132 12.0389 57.779 11.8271 57.779 12.3919C57.3555 39.007 43.8714 46.2785 36.3881 55.9503C19.233 78.4001 35.188 102.968 51.4253 107.486C60.5323 110.028 49.3074 102.968 47.8955 88.1425C46.2011 70.1403 69.8511 56.4445 69.8511 41.5485Z" fill="white"/>
<path d="M78.7465 50.6555C78.6759 50.5849 78.5347 50.5849 78.3935 50.6555C78.3935 50.6555 78.3935 50.6555 78.3229 50.7261C78.0405 54.0442 74.3694 61.2451 69.7806 67.8106C54.1787 90.1193 63.0739 100.85 68.0863 106.639C70.9808 110.028 68.0863 106.639 75.3578 103.18C75.9226 102.897 89.4772 95.6964 90.9597 79.3885C92.4423 63.5042 82.3469 53.55 78.7465 50.6555Z" fill="white"/>
</svg>
