<svg width="120" height="120" viewBox="0 0 120 120" fill="none" xmlns="http://www.w3.org/2000/svg">
<path d="M60 120C93.138 120 120 93.138 120 60C120 26.862 93.138 0 60 0C26.862 0 0 26.862 0 60C0 93.138 26.862 120 60 120Z" fill="#EDF0F4"/>
<mask id="mask0" style="mask-type:alpha" maskUnits="userSpaceOnUse" x="37" y="33" width="14" height="13">
<path fill-rule="evenodd" clip-rule="evenodd" d="M37.8369 33H50.5773V45.7422H37.8369V33Z" fill="white"/>
</mask>
<g mask="url(#mask0)">
<path d="M50.5773 39.3706C50.5773 35.8529 47.7253 32.9991 44.2058 32.9991C40.689 32.9991 37.8369 35.8529 37.8369 39.3706C37.8369 42.8902 40.689 45.7422 44.2058 45.7422C47.7253 45.7422 50.5773 42.8902 50.5773 39.3706Z" fill="#FF9E1F"/>
</g>
<mask id="mask1" style="mask-type:alpha" maskUnits="userSpaceOnUse" x="69" y="33" width="14" height="13">
<path fill-rule="evenodd" clip-rule="evenodd" d="M69.6445 33H82.3849V45.7413H69.6445V33Z" fill="white"/>
</mask>
<g mask="url(#mask1)">
<path d="M69.6445 39.3697C69.6445 35.8529 72.4957 32.9991 76.017 32.9991C79.5338 32.9991 82.3849 35.8529 82.3849 39.3697C82.3849 42.8884 79.5338 45.7413 76.017 45.7413C72.4957 45.7413 69.6445 42.8884 69.6445 39.3697Z" fill="#24C0FB"/>
</g>
<mask id="mask2" style="mask-type:alpha" maskUnits="userSpaceOnUse" x="37" y="51" width="15" height="37">
<path fill-rule="evenodd" clip-rule="evenodd" d="M37 51.3063V87.8804H51.436V52.295V51.3063H37Z" fill="white"/>
</mask>
<g mask="url(#mask2)">
<path d="M37 51.3063V87.8804H51.436V52.295V51.3063H37Z" fill="url(#paint0_linear)"/>
</g>
<mask id="mask3" style="mask-type:alpha" maskUnits="userSpaceOnUse" x="68" y="51" width="16" height="37">
<path fill-rule="evenodd" clip-rule="evenodd" d="M68.7969 51.3063V87.8804H83.2338V52.295V51.3063H68.7969Z" fill="white"/>
</mask>
<g mask="url(#mask3)">
<path d="M68.7969 51.3063V87.8804H83.2338V52.295V51.3063H68.7969Z" fill="url(#paint1_linear)"/>
</g>
<path d="M68.7963 51.3157C67.7682 54.9743 64.0916 57.6586 60.1038 57.6586C56.1151 57.6586 52.4655 54.9743 51.4355 51.3157V70.5058C54.1153 71.5832 57.0391 72.1807 60.1038 72.1807C72.1328 72.1807 82.0239 63.0343 83.2072 51.3157H68.7963Z" fill="#24C0FB"/>
<path d="M37 51.3157C37.8792 60.0477 43.6003 67.3505 51.436 70.5058V51.3157H37Z" fill="#FF9E1F"/>
<defs>
<linearGradient id="paint0_linear" x1="54.1875" y1="85.9341" x2="54.1875" y2="35.4196" gradientUnits="userSpaceOnUse">
<stop stop-color="#FB5059"/>
<stop offset="1" stop-color="#FF9E1F"/>
</linearGradient>
<linearGradient id="paint1_linear" x1="85.6133" y1="85.8852" x2="85.6133" y2="37.2535" gradientUnits="userSpaceOnUse">
<stop stop-color="#9350D4"/>
<stop offset="1" stop-color="#23BFFB"/>
</linearGradient>
</defs>
</svg>
