<svg width="120" height="120" viewBox="0 0 120 120" fill="none" xmlns="http://www.w3.org/2000/svg">
<circle cx="60" cy="60" r="60" fill="white"/>
<path fill-rule="evenodd" clip-rule="evenodd" d="M16.848 55.41L35.292 11.568L87.684 17.604L98.412 49.962L93.048 94.722C85.338 102.996 80.418 107.13 78.294 107.13C76.17 107.13 60.078 104.196 30.012 98.328L16.854 65.802L16.848 55.41Z" fill="#F9F9F9"/>
<path fill-rule="evenodd" clip-rule="evenodd" d="M85.14 94.764H72.366V72.774C72.366 69.252 69.516 66.39 65.994 66.39H65.988H47.628C40.578 66.39 34.86 60.672 34.86 53.622V25.242H47.628V47.238C47.628 50.76 50.484 53.622 54.006 53.622H72.366C79.416 53.628 85.128 59.34 85.134 66.39L85.14 94.764ZM48.072 94.764H35.298V73.32C42.348 73.32 48.066 79.032 48.066 86.088L48.072 94.764ZM71.928 25.236H84.696V46.692C77.64 46.692 71.928 40.974 71.928 33.924V25.236ZM60 0C26.862 0 0 26.868 0 60C0 93.132 26.862 120 60 120C93.138 120 120 93.138 120 60C120 26.862 93.138 0 60 0Z" fill="#005FFA"/>
</svg>
