<svg width="120" height="120" viewBox="0 0 120 120" fill="none" xmlns="http://www.w3.org/2000/svg">
<circle cx="60" cy="60" r="60" fill="#292929"/>
<path fill-rule="evenodd" clip-rule="evenodd" d="M56.2989 35.6036V35.6036C56.3006 35.6286 56.3023 35.6537 56.3036 35.6793C57.0502 34.5243 58.0582 33.9244 59.4097 33.9244C60.776 33.9206 61.7765 34.5431 62.5008 35.788L62.5195 35.608C62.517 34.4446 62.5178 33.2808 62.5186 32.1169V32.1168V32.1167V32.1166V32.1165V32.1163V32.1162V32.1161V32.116C62.5203 29.7876 62.522 27.4585 62.4971 25.1312C62.5015 24.2023 62.0932 23.3199 61.3834 22.7245C60.6737 22.129 59.7364 21.8827 58.8273 22.0526C57.3713 22.3113 56.2961 23.6388 56.2924 25.2137V35.458C56.2924 35.5074 56.2956 35.5551 56.2989 35.6034V35.6034V35.6035V35.6035V35.6035V35.6036V35.6036V35.6036ZM56.2936 67.9865C56.293 68.479 56.2924 68.9717 56.2924 69.4647V74.4031L56.2923 74.4604C56.292 74.6519 56.2917 74.8456 56.3222 75.0331C56.5459 76.6731 57.9927 77.8612 59.6374 77.7554C61.2828 77.6049 62.5362 76.2087 62.5157 74.5494C62.5232 72.7345 62.5195 70.9158 62.512 69.0972C62.5048 68.9604 62.4552 68.8293 62.3701 68.7222C62.0743 68.3516 61.7686 67.9935 61.463 67.6356C61.3945 67.5554 61.326 67.4751 61.2576 67.3948L60.578 66.5897C59.7416 65.5984 58.9059 64.6081 58.0657 63.6225C57.7073 63.2026 57.278 63.0751 56.8673 63.2551C56.423 63.45 56.2849 63.8175 56.2886 64.2975C56.2966 65.5265 56.2951 66.7555 56.2936 67.9858V67.9865ZM56.2924 82.9751C57.054 84.1375 58.0694 84.73 59.4321 84.7262C60.791 84.7225 61.7803 84.1 62.5195 82.9451V91.6221C62.5186 91.8166 62.5193 92.0115 62.52 92.2065C62.5224 92.8647 62.5248 93.5239 62.4672 94.1719C62.3169 95.8374 60.8818 97.085 59.2193 96.9955C57.5822 96.8854 56.3079 95.5236 56.2998 93.8757C56.2863 91.4408 56.2885 89.0058 56.2907 86.5695V86.5689C56.2915 85.6549 56.2924 84.7407 56.2924 83.8263V82.9751ZM62.5195 56.108V49.8796C62.5195 47.8323 62.5195 45.7849 62.512 43.7375C62.512 43.4713 62.4933 43.2013 62.4373 42.9426C62.0939 41.3902 60.6304 40.2877 59.1558 40.4527C57.5297 40.5971 56.2859 41.9704 56.2961 43.61C56.2849 46.2874 56.2886 48.9684 56.2961 51.6458C56.3051 51.7835 56.3574 51.9148 56.4454 52.0208C56.8419 52.5031 57.2439 52.9743 57.6467 53.4464L57.6467 53.4465L57.647 53.4467L57.8379 53.6706L60.5408 56.8505C60.8603 57.256 61.4087 57.3999 61.8848 57.2029C62.3328 57.0229 62.5195 56.7005 62.5195 56.108ZM68.9818 37.2167V28.8922C68.9892 27.3848 69.8441 26.1548 71.1732 25.7349C73.1891 25.0937 75.2051 26.6236 75.2163 28.8284C75.2238 30.2136 75.2213 31.5988 75.2188 32.9829V32.9837V32.9846V32.9854V32.9862V32.9871C75.2176 33.6773 75.2163 34.3673 75.2163 35.0568V45.5374C75.2163 47.0861 74.2905 48.3385 72.8755 48.7247C71.035 49.2234 69.1572 47.8623 69.0042 45.9161C68.9905 45.7252 68.9843 45.5338 68.9855 45.3424V37.2167H68.9818ZM50.1511 86.9686V77.3504H50.1474C50.1474 76.2731 50.1487 75.1954 50.1499 74.1176C50.1524 71.9615 50.1549 69.8048 50.1474 67.6498C50.1513 66.6834 49.7101 65.7695 48.9523 65.1741C48.1945 64.5787 47.2052 64.3686 46.2723 64.605C44.8835 64.9649 43.9278 66.2286 43.9278 67.7248V85.5474C43.9278 85.7083 43.9268 85.8692 43.9258 86.03V86.0301C43.9234 86.4054 43.9211 86.7807 43.9315 87.1561C43.9838 89.0272 45.772 90.4896 47.564 90.1446C49.0846 89.8656 50.18 88.521 50.1511 86.9686ZM50.1511 41.9301V55.0506C50.1801 56.5504 49.1579 57.8651 47.7021 58.2004C46.7859 58.3962 45.8306 58.1684 45.0998 57.5798C44.369 56.9911 43.9401 56.1039 43.9315 55.1631C43.9195 53.9434 43.9214 52.7254 43.9233 51.5069V51.5067V51.5061V51.5054V51.5048C43.9243 50.8283 43.9254 50.1517 43.9241 49.4747V28.8284C43.9241 27.2835 44.9246 25.9936 46.3619 25.6674C47.2875 25.4633 48.2553 25.6932 48.9918 26.2922C49.7283 26.8912 50.1536 27.7941 50.1474 28.7459C50.1549 30.9932 50.1524 33.2387 50.1499 35.4848L50.1499 35.4896C50.1487 36.6112 50.1474 37.7331 50.1474 38.8553L50.1511 41.9301ZM68.9818 58.3766V72.6257L68.9855 72.6182V86.6874C68.9838 86.8875 68.99 87.0877 69.0042 87.2873C69.1609 89.241 71.0724 90.5984 72.9166 90.0659C74.3241 89.6609 75.2163 88.416 75.2163 86.8486V58.1704C75.1416 55.8718 72.8718 54.3681 70.8484 55.3093C69.5865 55.9018 68.9818 56.9554 68.9818 58.3766ZM87.999 58.1291V80.4027C88.0367 81.9339 86.9848 83.2755 85.494 83.5975C83.6572 83.9988 81.8279 82.5251 81.7757 80.6015V35.9042C81.7757 34.4606 82.4962 33.3094 83.7132 32.7994C85.7665 31.937 87.9953 33.4894 87.9953 35.7918V58.1254L87.999 58.1291ZM38.2234 80.4027V58.0954V58.0916V43.0476C38.2234 42.2906 38.2248 41.5336 38.2262 40.7767C38.2294 39.0741 38.2325 37.372 38.2196 35.6718C38.2143 34.7052 37.7643 33.7954 37.0006 33.2072C36.2369 32.6191 35.2454 32.4187 34.3146 32.6644C32.9147 33.0544 32 34.2993 32 35.833V80.594C32.0523 82.5626 33.9226 84.04 35.7893 83.59C37.2527 83.2413 38.2234 81.9776 38.2234 80.4027Z" fill="white"/>
</svg>
