<svg width="120" height="120" viewBox="0 0 120 120" fill="none" xmlns="http://www.w3.org/2000/svg">
<circle cx="60" cy="60" r="60" fill="#EDF0F4"/>
<path d="M80.8144 40C76.268 40 71.3045 42.4192 66.049 47.2158C63.5464 49.4682 61.3775 51.8874 59.7925 53.8478C59.7925 53.8478 62.3368 56.7258 65.1314 59.8123C66.6329 57.9353 68.8436 55.391 71.3462 53.097C76.0177 48.8425 79.0626 47.9666 80.8144 47.9666C87.3629 47.9666 92.7018 53.3472 92.7018 60.0209C92.7018 66.6111 87.4046 71.9917 80.8144 72.0751C80.5224 72.0751 80.1053 72.0334 79.6882 71.9499C81.6069 72.8259 83.6507 73.4515 85.611 73.4515C97.6236 73.4515 99.9593 65.318 100.126 64.7341C100.46 63.2325 100.668 61.6893 100.668 60.0626C100.585 48.9677 91.7424 40 80.8144 40Z" fill="url(#paint0_linear)"/>
<path d="M38.854 80C43.4004 80 48.3639 77.5808 53.6194 72.7842C56.122 70.5318 58.2909 68.1126 59.8759 66.1522C59.8759 66.1522 57.3316 63.2742 54.537 60.1877C53.0355 62.0647 50.8248 64.609 48.3222 66.903C43.6507 71.1575 40.6058 72.0334 38.854 72.0334C32.3055 72.0334 26.9666 66.6528 26.9666 59.9791C26.9666 53.3889 32.2638 48.0083 38.854 47.9249C39.146 47.9249 39.5631 47.9666 39.9802 48.0501C38.0615 47.1741 36.0177 46.5485 34.0574 46.5485C22.0448 46.5485 19.7091 54.682 19.5422 55.2659C19.2086 56.7675 19 58.3107 19 59.9374C19.0417 70.9906 27.926 80 38.854 80Z" fill="url(#paint1_linear)"/>
<path fill-rule="evenodd" clip-rule="evenodd" d="M34.0989 46.757C40.272 46.9239 46.6954 52.0125 47.9884 53.2638C51.0632 56.2248 53.9653 59.5312 54.4936 60.1332C54.5458 60.1926 54.5748 60.2257 54.5786 60.2294C57.3731 63.316 59.9175 66.194 59.9175 66.194L59.9592 66.1522C65.6735 72.7007 73.3064 80 80.8976 80C90.199 79.9583 98.0405 73.4098 100.126 64.609C99.9175 65.2346 96.8309 73.4515 85.5692 73.1595C79.4378 72.9927 73.0144 67.9458 71.7214 66.6945C68.3429 63.4411 65.1729 59.7706 65.1729 59.7706C62.3784 56.684 59.834 53.806 59.834 53.806C59.7923 53.806 59.7923 53.8478 59.7923 53.8478C54.1198 47.2576 46.4868 40 38.8956 40C29.5942 40.0417 21.7527 46.5485 19.6672 55.3076C19.9175 54.2649 23.1291 46.5068 34.0989 46.757ZM19.6255 55.3493V55.2659C19.6672 55.3076 19.6672 55.3493 19.6255 55.3493Z" fill="#29ABE2"/>
<defs>
<linearGradient id="paint0_linear" x1="53.1111" y1="54.17" x2="74.1711" y2="86.5669" gradientUnits="userSpaceOnUse">
<stop offset="0.21" stop-color="#F15A24"/>
<stop offset="0.6841" stop-color="#FBB03B"/>
</linearGradient>
<linearGradient id="paint1_linear" x1="66.5536" y1="65.8196" x2="45.4934" y2="33.4227" gradientUnits="userSpaceOnUse">
<stop offset="0.21" stop-color="#ED1E79"/>
<stop offset="0.8929" stop-color="#522785"/>
</linearGradient>
</defs>
</svg>
