<svg width="120" height="120" viewBox="0 0 120 120" fill="none" xmlns="http://www.w3.org/2000/svg">
<circle cx="60" cy="60" r="60" fill="#EDF0F4"/>
<path d="M30 79.0384C30 80.118 30.2399 81.0777 30.8397 81.9174C31.6794 83.117 33.119 83.8368 34.5585 83.8368C36.118 83.8368 37.5575 83.117 38.3972 82.0374C38.997 81.1977 39.3569 80.118 39.3569 79.0384V41.7308C39.3569 39.4516 37.7974 37.4122 35.3982 37.0524C35.1583 37.0524 35.0383 37.0524 34.7984 37.0524C34.5585 37.0524 34.3186 37.0524 34.1986 37.0524C31.7994 37.2923 30 39.4516 30 41.8508V79.0384Z" fill="#353C46"/>
<path d="M75.2249 48.9284C77.0243 49.6482 79.0637 49.1683 80.3832 47.7288C80.8631 47.129 81.2229 46.4092 81.3429 45.5695C81.7028 44.13 80.983 42.6905 80.0233 41.7308C79.1836 40.8911 78.104 40.0514 76.7844 39.2116C72.5858 36.8124 68.3872 36.9324 66.5878 37.0524C64.3086 37.0524 57.8307 37.4122 51.8327 42.0907C43.1956 48.8084 42.5958 58.8851 42.4758 60.4446C42.4758 62.124 42.4758 70.1613 48.8337 76.7591C55.9114 84.0767 65.0283 83.8368 66.4678 83.8368C68.6271 83.9567 73.5455 83.7168 78.7038 80.7178C80.983 79.3983 82.6625 77.8388 83.8621 76.3993C85.3016 74.8398 85.7814 72.4406 84.7018 70.5212C84.5818 70.4013 84.4619 70.1613 84.3419 70.0414C84.2219 69.9214 84.102 69.6815 83.982 69.5615C82.1826 67.6422 79.0637 67.8821 77.1443 69.6815C76.0647 70.6412 74.7451 71.7208 72.8257 72.6805C72.8257 72.6805 72.7058 72.6805 72.7058 72.8005C67.9074 75.0797 62.1493 74.4799 57.8307 71.241C57.5908 71.0011 57.3509 70.8811 57.111 70.6412C55.5515 69.3216 54.4718 67.7621 53.7521 66.3226C51.8327 62.4839 51.7128 57.8054 53.6321 53.9667C54.112 53.007 54.7118 52.0474 55.5515 51.0877C59.7501 46.2893 65.7481 46.2893 66.5878 46.2893C67.7874 46.2893 69.7068 46.4092 71.866 47.129C73.3056 47.6088 74.3852 48.3286 75.2249 48.9284Z" fill="#353C46"/>
<circle cx="85.0618" cy="57.9254" r="5.03832" fill="#2C96DF"/>
</svg>
