<svg width="120" height="120" viewBox="0 0 120 120" fill="none" xmlns="http://www.w3.org/2000/svg">
<circle cx="60" cy="60" r="60" fill="#57BEEA"/>
<path fill-rule="evenodd" clip-rule="evenodd" d="M26.4163 70.8521C23.5119 71.1907 20.6015 70.2704 18.4197 68.3237C16.238 66.377 14.9933 63.5898 15.0001 60.6658C14.9873 55.0501 19.5031 50.4736 25.1185 50.4115C28.7403 33.7738 43.4916 21.32 61.1329 21.32C64.4265 21.32 67.6219 21.7539 70.659 22.565C72.5456 19.714 75.7365 17.9995 79.1552 18C84.8044 18.0146 89.3729 22.605 89.3604 28.2543C89.3604 30.0237 88.9152 31.6875 88.1305 33.1362C94.4897 39.995 98.016 49.0074 97.9999 58.3606C98.0173 68.2562 94.0717 77.7466 87.0439 84.7131C88.2738 86.4033 88.9982 88.4896 88.9982 90.7457C89.0042 93.4593 87.932 96.0642 86.0174 97.9872C84.1029 99.9103 81.5028 100.994 78.7892 101C74.5845 100.995 70.8126 98.4135 69.2857 94.4958C66.6115 95.1001 63.8782 95.4038 61.1366 95.4013C45.1365 95.4013 31.517 85.1621 26.4163 70.8521ZM28.2649 70.456C33.1695 83.9171 46.0344 93.5262 61.1329 93.5262C63.7549 93.5262 66.309 93.2357 68.7651 92.6887C68.1782 89.6905 68.9617 86.587 70.9015 84.2267C72.8412 81.8665 75.7342 80.4965 78.7892 80.4915C81.5056 80.4915 83.9805 81.5591 85.8065 83.2984C92.431 76.6919 96.1475 67.7164 96.1324 58.3606C96.1324 49.2684 92.6992 40.9835 87.059 34.7434C85.1877 37.0447 82.3431 38.5123 79.1552 38.5123C76.4409 38.5063 73.8403 37.4221 71.9256 35.4982C70.0109 33.5743 68.9392 30.9685 68.9462 28.2543C68.9462 26.8433 69.2329 25.4964 69.746 24.2703C66.9307 23.5562 64.0373 23.1963 61.1329 23.1988C44.4725 23.1988 30.5286 34.898 27.0011 50.57C31.8792 51.4556 35.4228 55.7079 35.4142 60.6658C35.4213 65.1403 32.5262 69.1028 28.2612 70.456H28.2649ZM53.8977 65.6112C55.8137 67.5371 58.4163 68.623 61.1329 68.63C63.8501 68.624 66.4536 67.5386 68.3704 65.6126C70.2872 63.6866 71.3602 61.0779 71.3532 58.3606C71.3532 52.6902 66.7769 48.095 61.1329 48.095C55.4889 48.095 50.9163 52.6902 50.9163 58.3606C50.9093 61.0772 51.9818 63.6854 53.8977 65.6112Z" fill="white"/>
</svg>
