<svg width="120" height="120" viewBox="0 0 120 120" fill="none" xmlns="http://www.w3.org/2000/svg">
<circle cx="60" cy="60" r="60" fill="#4CB8D1"/>
<path fill-rule="evenodd" clip-rule="evenodd" d="M39.9523 28.1382L38.4598 30.8469L24.8659 43.2833V55.4969L23.5346 57.9109C22.8218 59.2084 22.8218 60.7841 23.5346 62.0816L24.8659 64.4956V91.6956H39.8586L39.9523 91.8618C40.6675 93.1758 42.0348 93.9948 43.5224 94H77.1041C78.5765 93.9935 79.9317 93.1897 80.6517 91.8958L82.8717 87.9631L95.7606 76.7129V65.1076L97.4444 62.1231C98.1852 60.8061 98.1852 59.1939 97.4444 57.8769L95.7606 54.8924V27.9191H80.5429C79.7892 26.7253 78.4954 26 77.1041 26H43.5224C42.0348 26.0052 40.6675 26.8241 39.9523 28.1382ZM27.1046 60L43.5224 30.2273H77.1041L93.8931 60L77.1041 89.7727H43.5224L27.1046 60ZM45.0412 32.9171H75.6003L90.8743 60L75.6003 87.0867H45.0412L30.1047 60L45.0412 32.9171ZM43.8936 59.8073L52.1025 44.4393H69.6378L77.8504 59.8073L69.6415 75.1753H52.1063L43.8936 59.8073Z" fill="white"/>
</svg>
