<svg width="120" height="120" viewBox="0 0 120 120" fill="none" xmlns="http://www.w3.org/2000/svg">
<path d="M60 120C93.138 120 120 93.138 120 60C120 26.862 93.138 0 60 0C26.862 0 0 26.862 0 60C0 93.138 26.862 120 60 120Z" fill="#EDF0F4"/>
<path d="M25.0283 44.5693L37.2419 71.8876L57.5385 91.9904L37.4201 29.6629L25.0283 44.5693Z" fill="#9C2131"/>
<path d="M25.0283 44.5692L46.3055 57.2484L37.4201 29.6331L25.0283 44.5692Z" fill="#576B98"/>
<path d="M44.9375 28L51.9804 49.8547L56.3784 51.4285L61.5493 35.0375L44.9375 28Z" fill="#D71B2A"/>
<path d="M95.5167 48.5785L85.7697 62.1486L63.4229 54.0421L69.782 34.5332L87.0474 30.1385L95.5167 48.5785Z" fill="#C41A24"/>
<path d="M81.1635 68.5616L65.2651 90.4163L55.0127 59.1189L81.1635 68.5616Z" fill="#C71C26"/>
<path d="M53.9453 37.1758L56.382 51.4289L61.5527 35.0379L53.9453 37.1758Z" fill="#A71927"/>
<path d="M51.8946 49.8547L56.3817 51.4285L53.945 37.1754L44.9707 28L51.8946 49.8547Z" fill="#61395F"/>
<path d="M46.3067 57.249L37.2135 71.888L25 44.5696L46.3067 57.249Z" fill="#614268"/>
<path d="M69.7525 34.5326L77.8651 47.0041L63.4229 54.0415L69.7525 34.5326Z" fill="#DA1728"/>
<path d="M87.0197 30.1385L77.8372 47.0047L69.7246 34.5332L87.0197 30.1385Z" fill="#E42735"/>
<path d="M85.7718 62.148L77.8672 47.0338L95.5487 48.6076L85.7718 62.148Z" fill="#A61D1E"/>
<path d="M65.8329 71.2043L65.2385 90.4163L54.9863 59.1189L65.8329 71.2043Z" fill="#D71B2A"/>
<path d="M65.2676 90.4171L65.8617 71.2051L81.1957 68.5623L65.2676 90.4171Z" fill="#A51C1C"/>
<path d="M57.6272 91.9901L37.2119 71.8872L51.8621 74.619L57.6272 91.9901Z" fill="#721919"/>
</svg>
