<svg width="120" height="120" viewBox="0 0 120 120" fill="none" xmlns="http://www.w3.org/2000/svg">
<circle cx="60" cy="60" r="60" fill="black"/>
<path d="M102.4 58.8L90.6 59.1H90.5H90.4H90.2H90.1L89.9 59.2H89.8C89.7 59.2 89.7 59.3 89.6 59.3L78.5 68.5L61.9 59V50L78.4 51.5H78.6C78.7 51.5 78.7 51.5 78.8 51.5H78.9C79 51.5 79.1 51.5 79.2 51.4H79.3L79.4 51.3L87.3 46.7L100.3 52.4C101.1 52.7 102 52.4 102.4 51.6C102.8 50.8 102.4 49.9 101.6 49.5L90.7 44.8L97.4 41C98.2 40.6 98.4 39.6 98 38.8C97.6 38 96.6 37.8 95.8 38.2L79.7 47.4L77.6 35.8L90.6 33.2C91.2 33.1 91.7 32.7 91.8 32.2C92 31.6 91.9 31 91.5 30.6C91.1 30.2 90.5 30 90 30.1L78.9 32.4L83.2 25C83.5 24.5 83.5 23.9 83.2 23.4C82.9 22.9 82.4 22.6 81.8 22.6C81.2 22.6 80.7 22.9 80.4 23.4L74.6 33.2C74.5 33.3 74.5 33.4 74.5 33.5C74.2 33.9 74 34.3 74.1 34.8L76.5 48.1L61.8 46.8V29.8L72.3 21.2C73 20.6 73.1 19.6 72.6 19C72.1 18.4 71.1 18.2 70.5 18.7L62 25.7V18.5C62 17.7 61.3 17 60.4 17C59.5 17 58.9 17.7 58.8 18.5V36.4L48 32.9L51.5 20.3C51.7 19.5 51.3 18.6 50.4 18.3C49.5 18 48.7 18.5 48.4 19.4L45.4 30.2L40.7 23.2C40.2 22.5 39.2 22.3 38.5 22.8C37.8 23.3 37.6 24.3 38.1 25L44.7 34.8L44.8 34.9L44.9 35L45 35.1L45.1 35.2C45.2 35.2 45.2 35.3 45.3 35.3H45.4C45.5 35.3 45.5 35.4 45.6 35.4L58.9 39.7V59L50.8 63.7L43.7 49C43.6 48.9 43.6 48.8 43.5 48.7C43.5 48.7 43.5 48.7 43.4 48.6C43.3 48.5 43.2 48.4 43.1 48.4L35.2 43.8L33.4 29.6C33.3 29 33 28.6 32.4 28.3C31.9 28.1 31.3 28.2 30.8 28.5C30.3 28.8 30.1 29.4 30.2 30L31.7 41.8L25 37.9C24.2 37.5 23.3 37.8 22.9 38.5C22.5 39.2 22.7 40.2 23.4 40.6L39.6 50L30.7 57.7L21.8 47.7C21.2 47 20.2 47 19.6 47.6C19 48.2 18.9 49.2 19.5 49.8L27.1 58.2H18.6C17.7 58.3 17 59 17 59.9C17 60.8 17.7 61.5 18.6 61.5H30C30.1 61.5 30.2 61.5 30.3 61.5C30.8 61.6 31.3 61.5 31.6 61.1L41.8 52.2L47.9 65.3L32.7 74.1L21.3 68.7C20.5 68.4 19.6 68.7 19.3 69.5C19 70.3 19.2 71.2 20 71.6L29.4 76.1L23.5 79.5C22.7 79.9 22.5 80.9 22.9 81.7C23.3 82.5 24.3 82.7 25.1 82.3L33.6 77.4L41 73.1L42.6 84.7L29.8 86.9C29 87.1 28.4 87.9 28.6 88.7C28.7 89.5 29.5 90.1 30.3 90L41.2 88L36.9 95.3C36.5 96.1 36.7 97 37.5 97.5C38.3 97.9 39.2 97.7 39.7 96.9L45.7 86.7V86.6L45.8 86.5C45.8 86.4 45.8 86.4 45.9 86.3V86.2C45.9 86.1 45.9 86.1 45.9 86V85.9C45.9 85.8 45.9 85.7 45.9 85.6L44 71.2L60.5 61.7L67.3 65.7L58.3 79.7C58.3 79.7 58.3 79.7 58.3 79.8V79.9C58.3 80 58.2 80 58.2 80.1C58.2 80.2 58.2 80.3 58.1 80.4C58.1 80.4 58.1 80.4 58.1 80.5C58.1 80.6 58.1 80.6 58.1 80.7L58.3 89.9L47.2 98.8C46.5 99.3 46.4 100.3 47 101C47.5 101.7 48.5 101.8 49.2 101.2L58.4 93.8L58.6 101.6C58.7 102.4 59.4 103.1 60.2 103.1C61 103.1 61.7 102.4 61.7 101.5L61.1 82.8L72.3 86.4L68.5 99.2C68.3 99.8 68.4 100.4 68.8 100.8C69.2 101.2 69.8 101.4 70.3 101.3C70.8 101.2 71.3 100.7 71.4 100.1L74.6 89.2L79 96.4C79.3 96.9 79.8 97.2 80.4 97.2C81 97.2 81.5 96.9 81.7 96.4C82 95.9 81.9 95.3 81.7 94.8L76 85C75.9 84.9 75.9 84.8 75.8 84.7C75.6 84.2 75.3 83.9 74.8 83.7L62 79.6L70 67.2L86.4 76.8L87.4 90.1C87.5 90.9 88.2 91.5 89.1 91.5C90 91.5 90.6 90.7 90.6 89.9L89.8 78.8L95.7 82.2C96.2 82.5 96.8 82.5 97.3 82.2C97.8 81.9 98.1 81.4 98.1 80.8C98.1 80.2 97.8 79.7 97.3 79.4L88.8 74.5L81.6 70.3L90.6 62.8L99.2 72.6C99.8 73.3 100.8 73.3 101.4 72.7C102.1 72.1 102.1 71.1 101.5 70.5L94 62.2L102.4 62C103.3 62 104 61.2 104 60.4C104 59.4 103.2 58.7 102.4 58.8Z" fill="#1AEEC2"/>
</svg>
