<svg width="120" height="120" viewBox="0 0 120 120" fill="none" xmlns="http://www.w3.org/2000/svg">
<circle cx="60" cy="60" r="60" fill="#0093DD"/>
<path fill-rule="evenodd" clip-rule="evenodd" d="M51.0654 60L70.5047 79.9116L82.8411 67.5138C85.0841 65.2597 88.4486 65.2597 90.3178 67.5138C92.5607 69.768 92.5607 73.5249 90.3178 75.779L74.243 92.3094C72 94.5635 68.6355 94.5635 66.3925 92.3094L43.215 68.2652V82.5414C43.215 85.547 40.5981 88.1768 37.6075 88.1768C34.6168 88.1768 32 85.547 32 82.5414V37.4586C32 34.453 34.6168 31.8232 37.6075 31.8232C40.5981 31.8232 43.215 34.453 43.215 37.4586V51.7348L66.3925 27.6906C68.6355 25.4365 72 25.4365 74.243 27.6906L90.3178 44.221C92.5607 46.4751 92.5607 50.232 90.3178 52.4862C88.0748 54.7403 84.7103 54.7403 82.8411 52.4862L70.5047 39.7127L51.0654 60ZM70.5047 54.3646C73.4953 54.3646 76.1122 56.9945 76.1122 60C76.1122 63.0055 73.4953 65.6354 70.5047 65.6354C67.514 65.6354 64.8972 63.0055 64.8972 60C64.8972 56.9945 67.514 54.3646 70.5047 54.3646Z" fill="white"/>
</svg>
