<svg width="120" height="120" viewBox="0 0 120 120" fill="none" xmlns="http://www.w3.org/2000/svg">
<path d="M60 120C93.138 120 120 93.138 120 60C120 26.862 93.138 0 60 0C26.862 0 0 26.862 0 60C0 93.138 26.862 120 60 120Z" fill="white"/>
<path fill-rule="evenodd" clip-rule="evenodd" d="M0 60C0 26.9538 26.9538 0 60 0C93.0462 0 120 26.9538 120 60C120 93.0462 93.0462 120 60 120C26.9538 120 0 93.0462 0 60ZM81.4154 46.5231H85.1077L85.4769 36H61.1077V46.5231H64.8L57.2308 55.3846H54.0923V46.5231H58.3385V36H52.6154V40.0615H49.4769V36H43.7538V40.0615H40.6154V36H34.7077V46.7077H39.8769V60.1846V73.4769H34.7077V84.1846H58.1538V73.4769H53.9077V64.6154H57.0462L64.6154 73.1077H60.9231V83.8154H85.1077V73.1077H81.4154L69.9692 59.8154L81.4154 46.5231Z" fill="black"/>
</svg>
