<svg width="120" height="120" viewBox="0 0 120 120" fill="none" xmlns="http://www.w3.org/2000/svg">
<circle cx="60" cy="60" r="60" fill="#EDF0F4"/>
<path d="M60 22L94 40.8889V78.6667L60 97.5556L26 78.6667V40.8889L60 22Z" fill="#303642"/>
<path d="M70.0073 41.1304C71.6016 41.1304 72.8941 39.8327 72.8941 38.2319C72.8941 36.631 71.6016 35.3333 70.0073 35.3333V41.1304Z" fill="white"/>
<path d="M61.1549 69.0531V38.8116H55.3813V69.0531H61.1549Z" fill="white"/>
<path d="M58.8452 41.1304H70.0073V35.3333H58.8452V41.1304Z" fill="white"/>
<path d="M61.1549 38.8116C61.1549 40.0922 60.1208 41.1304 58.8455 41.1304V35.3333C56.9323 35.3333 55.3813 36.8906 55.3813 38.8116H61.1549Z" fill="white"/>
<path fill-rule="evenodd" clip-rule="evenodd" d="M66.1585 50.0193H58.2681V44.2222H66.1585C67.7528 44.2222 69.0453 45.52 69.0453 47.1208C69.0453 48.7216 67.7528 50.0193 66.1585 50.0193Z" fill="white"/>
<path fill-rule="evenodd" clip-rule="evenodd" d="M49.415 74.7536C49.415 69.9512 53.2924 66.058 58.0753 66.058C62.8582 66.058 66.7356 69.9512 66.7356 74.7536C66.7356 79.5561 62.8582 83.4493 58.0753 83.4493C53.2924 83.4493 49.415 79.5561 49.415 74.7536ZM60.962 74.7536C60.962 73.1528 59.6696 71.8551 58.0753 71.8551C56.481 71.8551 55.1885 73.1528 55.1885 74.7536C55.1885 76.3545 56.481 77.6522 58.0753 77.6522C59.6696 77.6522 60.962 76.3545 60.962 74.7536Z" fill="white"/>
</svg>
