<svg width="120" height="120" viewBox="0 0 120 120" fill="none" xmlns="http://www.w3.org/2000/svg">
<circle cx="60" cy="60" r="60" fill="#E7EFF3"/>
<path fill-rule="evenodd" clip-rule="evenodd" d="M42.7126 49.0908H47.8806V43.924C47.8806 42.0904 46.3942 40.604 44.5606 40.604H42.7126C41.8319 40.6034 40.987 40.9529 40.3643 41.5757C39.7415 42.1985 39.3919 43.0433 39.3926 43.924V45.7708C39.3926 47.6044 40.879 49.0908 42.7126 49.0908ZM72.1206 49.0908H77.2882C79.1213 49.0908 80.6075 47.6051 80.6082 45.772V43.924C80.6082 42.0904 79.1218 40.604 77.2882 40.604H75.4406C73.607 40.604 72.1206 42.0904 72.1206 43.924V49.0908ZM44.5606 80.606H42.713C41.8325 80.606 40.988 80.2562 40.3654 79.6336C39.7428 79.011 39.393 78.1665 39.393 77.286V75.44C39.393 74.5595 39.7428 73.715 40.3654 73.0924C40.988 72.4698 41.8325 72.12 42.713 72.12H47.8806V77.286C47.8806 79.1196 46.3942 80.606 44.5606 80.606ZM75.4406 80.606H77.2882L77.287 80.608C79.1206 80.608 80.607 79.1216 80.607 77.288V75.44C80.607 73.6064 79.1206 72.12 77.287 72.12H72.1206V77.286C72.1206 79.1196 73.607 80.606 75.4406 80.606Z" fill="#005FFF"/>
<path fill-rule="evenodd" clip-rule="evenodd" d="M59.6811 40.606H61.5291L61.5287 40.608C63.3623 40.608 64.8487 39.1216 64.8487 37.288V35.44C64.8487 33.6064 63.3623 32.12 61.5287 32.12H59.6811C57.8476 32.12 56.3611 33.6064 56.3611 35.44V37.286C56.3611 39.1196 57.8476 40.606 59.6811 40.606ZM59.6811 89.0908H61.5287C63.3623 89.0908 64.8487 87.6044 64.8487 85.7708V83.9228C64.8487 82.0892 63.3623 80.6028 61.5287 80.6028H59.6811C57.8476 80.6028 56.3611 82.0892 56.3611 83.9228V85.7708C56.3611 87.6044 57.8476 89.0908 59.6811 89.0908ZM85.7715 64.8484H83.9239C82.0904 64.8484 80.6039 63.362 80.6039 61.5284V59.68C80.6039 57.8464 82.0904 56.36 83.9239 56.36H85.7715C87.6051 56.36 89.0915 57.8464 89.0915 59.68V61.528C89.0915 63.3616 87.6051 64.848 85.7715 64.848V64.8484ZM35.4391 64.8484H37.2867V64.848C39.1203 64.848 40.6067 63.3616 40.6067 61.528V59.68C40.6067 58.7995 40.257 57.955 39.6343 57.3324C39.0117 56.7098 38.1673 56.36 37.2867 56.36H35.4391C33.6056 56.36 32.1191 57.8464 32.1191 59.68V61.5284C32.1191 63.362 33.6056 64.8484 35.4391 64.8484Z" fill="#00CCEE"/>
<path fill-rule="evenodd" clip-rule="evenodd" d="M45.7379 27.4576C44.5013 27.9701 43.9143 29.3879 44.4267 30.6244C44.9394 31.8606 46.3569 32.4476 47.5935 31.9356C48.83 31.4232 49.4171 30.0054 48.9047 28.7688C48.3923 27.5323 46.9744 26.9452 45.7379 27.4576ZM71.1903 89.2761C69.9537 89.7885 69.3667 91.2063 69.8791 92.4428C70.3918 93.679 71.8093 94.266 73.0459 93.754C74.2824 93.2416 74.8695 91.8238 74.3571 90.5872C73.8447 89.3507 72.4268 88.7637 71.1903 89.2761ZM91.2295 50.12C89.9929 50.6324 88.5751 50.0454 88.0627 48.8088C87.5503 47.5723 88.1374 46.1544 89.3739 45.642C90.6105 45.1296 92.0283 45.7167 92.5407 46.9532C93.0526 48.1898 92.4657 49.6073 91.2295 50.12ZM27.4567 74.2612C27.9691 75.4978 29.3869 76.0848 30.6235 75.5724C31.8597 75.0597 32.4466 73.6422 31.9347 72.4056C31.4223 71.1691 30.0045 70.582 28.7679 71.0944C27.5314 71.6068 26.9443 73.0247 27.4567 74.2612Z" fill="#005FFF"/>
<path fill-rule="evenodd" clip-rule="evenodd" d="M74.3604 30.6244C73.8481 31.8609 72.4304 32.4481 71.1938 31.9358C69.9572 31.4235 69.37 30.0058 69.8823 28.7692C70.3945 27.5326 71.8122 26.9454 73.0488 27.4576C73.6428 27.7035 74.1147 28.1753 74.3607 28.7693C74.6067 29.3632 74.6066 30.0305 74.3604 30.6244ZM27.4586 46.9534C26.9463 48.1899 27.5334 49.6077 28.77 50.12C29.3639 50.3662 30.0312 50.3663 30.6251 50.1203C31.2191 49.8743 31.6909 49.4024 31.9368 48.8084C32.449 47.5718 31.8618 46.1541 30.6252 45.6419C29.3886 45.1296 27.9709 45.7168 27.4586 46.9534ZM88.0646 72.4058C87.5523 73.6423 88.1395 75.0601 89.376 75.5724C89.9699 75.8186 90.6372 75.8187 91.2311 75.5727C91.8251 75.3267 92.2969 74.8548 92.5428 74.2608C93.055 73.0242 92.4678 71.6065 91.2312 71.0943C89.9946 70.582 88.5769 71.1692 88.0646 72.4058ZM45.7398 93.7542C46.9764 94.2665 48.3941 93.6794 48.9064 92.4428C49.1526 91.8489 49.1527 91.1816 48.9067 90.5877C48.6607 89.9937 48.1888 89.5219 47.5948 89.276C46.3582 88.7638 44.9405 89.351 44.4283 90.5876C43.916 91.8242 44.5032 93.2419 45.7398 93.7542Z" fill="#002DAE"/>
<path fill-rule="evenodd" clip-rule="evenodd" d="M87.5244 34.1904C87.1778 34.537 86.6565 34.6407 86.2036 34.4531C85.7507 34.2656 85.4554 33.8236 85.4554 33.3334C85.4554 32.8432 85.7507 32.4013 86.2036 32.2137C86.6565 32.0261 87.1778 32.1298 87.5244 32.4764C87.7518 32.7036 87.8795 33.0119 87.8795 33.3334C87.8795 33.6549 87.7518 33.9632 87.5244 34.1904ZM31.0024 32.8696C30.8149 33.3225 30.9186 33.8438 31.2652 34.1904C31.4924 34.4178 31.8007 34.5455 32.1222 34.5455C32.4437 34.5455 32.752 34.4178 32.9792 34.1904C33.3258 33.8438 33.4295 33.3225 33.2419 32.8696C33.0543 32.4167 32.6124 32.1214 32.1222 32.1214C31.632 32.1214 31.19 32.4167 31.0024 32.8696ZM85.5476 87.4148C85.3601 87.8677 85.4638 88.389 85.8104 88.7356C86.0376 88.963 86.3459 89.0907 86.6674 89.0907C86.9889 89.0907 87.2971 88.963 87.5244 88.7356C87.871 88.389 87.9747 87.8677 87.7871 87.4148C87.5995 86.9619 87.1576 86.6666 86.6674 86.6666C86.1772 86.6666 85.7352 86.9619 85.5476 87.4148ZM31.6584 88.9983C32.1113 89.1859 32.6326 89.0822 32.9792 88.7356C33.2066 88.5084 33.3343 88.2001 33.3343 87.8786C33.3343 87.5571 33.2066 87.2488 32.9792 87.0216C32.6326 86.675 32.1113 86.5713 31.6584 86.7589C31.2055 86.9464 30.9102 87.3884 30.9102 87.8786C30.9102 88.3688 31.2055 88.8108 31.6584 88.9983Z" fill="#0099C0"/>
<path d="M98.7882 61.212C98.1188 61.212 97.5762 60.6694 97.5762 60C97.5762 59.3306 98.1188 58.788 98.7882 58.788C99.4575 58.788 100 59.3306 100 60C100 60.6693 99.4574 61.2118 98.7882 61.212Z" fill="#0029C0"/>
<mask id="mask0" style="mask-type:alpha" maskUnits="userSpaceOnUse" x="20" y="58" width="3" height="4">
<path fill-rule="evenodd" clip-rule="evenodd" d="M20 61.212V58.788H22.4244V61.212H20Z" fill="white"/>
</mask>
<g mask="url(#mask0)">
<path d="M21.212 61.212C20.5426 61.212 20 60.6694 20 60C20 59.3306 20.5426 58.788 21.212 58.788C21.8814 58.788 22.424 59.3306 22.424 60C22.4238 60.6693 21.8813 61.2118 21.212 61.212Z" fill="#0029C0"/>
</g>
<path d="M61.2111 21.212C61.2111 21.8814 60.6685 22.424 59.9991 22.424C59.3297 22.424 58.7871 21.8814 58.7871 21.212C58.7871 20.5426 59.3297 20 59.9991 20C60.6684 20.0002 61.2109 20.5427 61.2111 21.212Z" fill="#0029C0"/>
<mask id="mask1" style="mask-type:alpha" maskUnits="userSpaceOnUse" x="58" y="97" width="4" height="3">
<path fill-rule="evenodd" clip-rule="evenodd" d="M61.2111 100H58.7871V97.5756H61.2111V100Z" fill="white"/>
</mask>
<g mask="url(#mask1)">
<path d="M61.2111 98.788C61.2111 99.4574 60.6685 100 59.9991 100C59.3297 100 58.7871 99.4574 58.7871 98.788C58.7871 98.1187 59.3297 97.576 59.9991 97.576C60.6684 97.5763 61.2109 98.1188 61.2111 98.788Z" fill="#0029C0"/>
</g>
<path d="M68.0897 55.96H69.8993C71.1265 55.9591 72.1209 54.964 72.1209 53.7368V47.88H66.2645C65.0369 47.88 64.0415 48.8748 64.0409 50.1024V51.92C64.0409 54.1512 62.2321 55.96 60.0009 55.96C57.7696 55.96 55.9609 54.1512 55.9609 51.92V50.022C55.96 48.8388 55.0005 47.88 53.8173 47.88H47.8809V72.12H53.7729C54.9811 72.1196 55.9604 71.1402 55.9609 69.932V68.08C55.9609 65.8488 57.7696 64.04 60.0009 64.04V64.048C62.2321 64.048 64.0409 65.8568 64.0409 68.088V69.9148C64.0409 71.1329 65.0283 72.1204 66.2465 72.1204H72.1209V66.246C72.1209 65.661 71.8885 65.1 71.4749 64.6864C71.0612 64.2728 70.5002 64.0404 69.9153 64.0404H68.0809C65.8496 64.0404 64.0409 62.2316 64.0409 60.0004H64.0489C64.0489 57.7692 65.8576 55.9604 68.0889 55.9604" fill="#003EC5"/>
</svg>
