<svg width="120" height="120" viewBox="0 0 120 120" fill="none" xmlns="http://www.w3.org/2000/svg">
<circle cx="60" cy="60" r="60" fill="#EDF0F4"/>
<path d="M20.0001 59.938C19.9628 82.0201 37.8336 99.9515 59.9158 99.9888C81.9979 100.026 99.9292 82.1552 99.9665 60.0731V59.7705C99.9652 56.6949 99.6025 53.6301 98.8859 50.6392C98.2786 48.4068 96.0122 47.0564 93.7598 47.5849C91.5074 48.1134 90.0782 50.3309 90.5273 52.6005C93.8494 66.2913 87.6638 80.5214 75.3868 87.4316C63.1098 94.3417 47.7355 92.2465 37.7552 82.3033C27.7749 72.3601 25.6226 56.9937 32.4869 44.6911C39.3513 32.3885 53.5583 26.1499 67.2613 29.4211C69.5628 29.9581 71.8652 28.5327 72.4105 26.2332C72.6793 25.1336 72.4963 23.9721 71.9023 23.0085C71.3083 22.0449 70.3528 21.3595 69.2497 21.1056C58.9454 18.6293 48.0793 20.3504 39.0446 25.8898C30.0099 31.4292 23.5475 40.3326 21.0807 50.6392C20.3658 53.6872 20.0032 56.8073 20.0001 59.938Z" fill="url(#paint0_linear)"/>
<path d="M80.2883 30.5125C80.2181 30.5828 80.1857 30.653 80.1478 30.6854C79.1634 31.7303 78.5583 33.0756 78.4296 34.5054V35.1916C78.4296 35.3645 78.3972 35.4996 78.3972 35.6725C78.101 38.7231 76.6019 41.53 74.2313 43.4727C71.8608 45.4154 68.814 46.3338 65.7647 46.0249C65.2555 45.9805 64.7501 45.901 64.2518 45.7872C63.9584 45.7262 63.6695 45.645 63.3873 45.5441C62.1623 45.235 60.9004 45.0968 59.6375 45.1334C55.9546 45.2054 52.4256 46.624 49.7174 49.1209C49.5823 49.256 49.4094 49.3641 49.2689 49.5316C45.2325 53.2607 43.5605 58.8997 44.9118 64.2263C46.2631 69.5529 50.421 73.7129 55.7469 75.0669C61.0728 76.4209 66.7126 74.7518 70.4438 70.7173C71.0632 70.0918 71.6272 69.4139 72.1296 68.6911C74.5735 65.1756 75.401 60.7843 74.4043 56.6205C74.3189 56.349 74.2485 56.073 74.1936 55.7938C74.1936 55.756 74.1612 55.7236 74.1612 55.6533C73.4665 52.665 73.9909 49.5231 75.6182 46.9224C77.2456 44.3216 79.842 42.4762 82.8332 41.7943C83.3648 41.6639 83.9075 41.5843 84.4541 41.5565L84.6919 41.5187C84.9322 41.4917 85.1741 41.4809 85.4159 41.4863H85.4861C86.9799 41.3431 88.3777 40.6862 89.4412 39.6276C89.6844 39.3521 89.9275 39.0873 90.1329 38.8009C91.1273 37.4085 91.5229 35.6759 91.2316 33.9898C90.9403 32.3037 89.9861 30.8044 88.5821 29.8263C86.0161 28.0166 82.522 28.3056 80.2883 30.5125Z" fill="url(#paint1_linear)"/>
<defs>
<linearGradient id="paint0_linear" x1="60.4561" y1="0.862583" x2="1.00525" y2="59.4701" gradientUnits="userSpaceOnUse">
<stop offset="0.09" stop-color="#00EDD3"/>
<stop offset="0.41" stop-color="#1B456E"/>
</linearGradient>
<linearGradient id="paint1_linear" x1="68.7105" y1="8.9908" x2="27.0933" y2="51.1225" gradientUnits="userSpaceOnUse">
<stop offset="0.4" stop-color="#00EDD3"/>
<stop offset="0.89" stop-color="#1B456E"/>
</linearGradient>
</defs>
</svg>
