<svg width="120" height="120" viewBox="0 0 120 120" fill="none" xmlns="http://www.w3.org/2000/svg">
<circle cx="60" cy="60" r="60" fill="#EDF0F4"/>
<path d="M25.1065 61.5041H25.0534H25V58.2396C25.0365 58.2396 25.073 58.2396 25.1094 58.2396C25.2314 58.3483 25.2988 58.506 25.2929 58.6694C25.3254 59.4714 25.3254 60.2738 25.2929 61.0767C25.2988 61.2401 25.2303 61.3971 25.1065 61.5041Z" fill="#FEF5F6"/>
<path d="M53.5137 47.8875C54.9272 48.3993 56.3969 48.7099 57.8441 49.0977C65.4036 51.1231 72.9646 53.1425 80.5271 55.1559C85.1686 56.3936 89.8115 57.6258 94.4558 58.8521C94.8563 58.9575 95.0109 59.1305 94.9831 59.5566C94.9394 60.2186 94.9744 60.8854 94.9525 61.5494C94.9381 61.9879 94.7878 62.1734 94.2717 62.0186C92.9507 61.6223 91.606 61.3051 90.2745 60.943C89.9528 60.8555 89.8082 60.8992 89.9161 61.2638C89.9331 61.3213 89.9364 61.383 89.9526 61.4407C90.2485 62.5041 90.0536 62.3046 91.0798 62.3414C92.2007 62.3814 93.3209 62.4429 94.442 62.4656C94.8099 62.473 94.8902 62.6371 94.8541 62.9507C94.7666 63.7074 94.6892 64.4653 94.5945 65.2211C94.5579 65.5122 94.4033 65.5964 94.0873 65.5514C93.1748 65.4217 92.244 65.5514 91.33 65.3869C90.9582 65.3213 90.897 65.4781 90.9856 65.8243C91.1789 66.5821 91.339 67.3489 91.498 68.1153C91.5636 68.4326 91.7399 68.5217 92.0483 68.5258C92.5476 68.5324 93.0458 68.6015 93.5455 68.6207C93.8216 68.6312 93.8891 68.7113 93.8001 68.9866C93.5471 69.7692 93.3209 70.5613 93.0821 71.3487C93.0421 71.4799 93.0152 71.6656 92.8376 71.6442C92.2116 71.5687 92.4083 71.9626 92.4721 72.2721C92.5084 72.447 92.6079 72.6192 92.5377 72.8007C91.977 74.3124 91.2826 75.7712 90.4628 77.1598C90.1503 75.8497 89.8627 74.6759 89.5908 73.4984C88.8052 70.0959 88.0227 66.6926 87.2434 63.2884C87.0228 62.3302 86.7671 61.3793 86.579 60.4148C86.5403 60.0902 86.2846 59.8341 85.9601 59.7947C85.1834 59.601 84.4044 59.4115 83.6402 59.1749C83.1468 59.0218 83.1396 59.1968 83.2349 59.5992C83.766 61.8451 84.2795 64.0954 84.7998 66.344C85.8813 71.0171 86.9655 75.6894 88.052 80.3613C88.1312 80.5916 88.0923 80.8459 87.9479 81.0421C87.3307 81.8338 86.7231 82.6336 86.0366 83.3685C85.7245 83.702 85.639 83.627 85.5441 83.2132C84.7276 79.6529 83.8902 76.0975 83.0652 72.5391C82.2812 69.1564 81.501 65.7729 80.725 62.3888C80.4272 61.0985 80.1127 59.8116 79.8362 58.5177C79.813 58.2767 79.6315 58.0811 79.3929 58.04C78.5589 57.8279 77.7226 57.6223 76.8965 57.3817C76.4324 57.2465 76.4036 57.3817 76.5029 57.7999C77.1548 60.5337 77.7852 63.2715 78.4198 66.0089C79.7483 71.7376 81.0752 77.4666 82.4004 83.1962C82.4308 83.374 82.4502 83.5535 82.4585 83.7337C82.3984 83.8162 82.2965 83.8569 82.1961 83.8385C81.1286 83.5564 80.0309 83.3689 79.0484 82.8193C78.9227 82.5932 78.8439 82.3441 78.8166 82.0869C78.6272 81.1967 78.6125 81.1869 77.7071 81.413C77.2071 81.5379 76.7102 81.6755 76.2048 81.7781C75.2074 81.6188 74.3582 81.069 73.4363 80.7103C72.9596 80.5089 72.4961 80.2777 72.0484 80.0179C71.8516 79.9112 71.581 79.8501 71.5981 79.5332C71.777 79.3062 72.0506 79.2894 72.298 79.2255C73.8508 78.8244 75.42 78.4904 76.9713 78.0821C77.1279 78.0471 77.2826 78.0038 77.4346 77.9526C77.5877 77.8949 77.744 77.8306 77.7222 77.6226C77.7106 77.4548 77.5826 77.3184 77.416 77.2963C77.1244 77.221 76.8257 77.1775 76.5249 77.1664C75.4415 77.1836 74.3652 77.0583 73.2848 77.0288C72.7642 77.0266 72.2439 76.996 71.7267 76.9374C70.6948 76.797 69.6927 76.9833 68.7026 77.2753C68.3982 77.3772 68.0834 77.445 67.7641 77.478C67.4815 77.4686 67.209 77.3711 66.9849 77.1989C65.3719 76.1439 63.7753 75.0654 62.2607 73.8691C62.0816 73.7396 61.92 73.5876 61.7796 73.417C61.654 73.2506 61.7461 73.1651 61.9018 73.1054C63.1448 72.9426 64.3818 73.1587 65.6168 73.2119C66.713 73.2589 67.8173 73.3282 68.9132 73.3731C70.9533 73.4566 72.9889 73.6504 75.0325 73.6539C75.4541 73.6539 75.8655 73.7689 76.2892 73.7652C76.6765 73.7619 76.8451 73.6143 76.7452 73.2075C76.6061 72.6413 76.4541 72.0779 76.3384 71.5062C76.2981 71.1928 76.0162 70.9681 75.7017 70.9988C74.0013 70.9401 72.3023 70.838 70.6043 70.7394C68.5862 70.6219 66.5645 70.5913 64.5484 70.422C63.5728 70.3402 62.5888 70.3199 61.6101 70.2908C60.5082 70.2576 59.4132 70.1246 58.3122 70.123C58.1707 70.1187 58.0344 70.0686 57.924 69.98C56.9299 69.0494 55.9195 68.1337 55.0895 67.0441C54.9629 66.8776 54.8555 66.6863 55.1652 66.5756C56.309 66.4802 57.4494 66.6211 58.5849 66.6849C59.6036 66.7425 60.6283 66.8028 61.6457 66.8479C63.7285 66.9402 65.811 67.039 67.8936 67.1447C69.8749 67.2431 71.8612 67.2739 73.8381 67.4675C74.1985 67.4948 74.5605 67.4966 74.9212 67.4727C75.2291 67.4592 75.3518 67.3039 75.2947 66.9994C75.1784 66.386 75.0303 65.779 74.851 65.1809C74.7379 64.8001 74.424 64.7238 74.0885 64.7216C73.3053 64.7179 72.5254 64.624 71.7462 64.6076C68.8187 64.5462 65.8988 64.3308 62.9759 64.1995C60.2138 64.0755 57.4491 63.9624 54.6903 63.758C53.8658 63.6969 53.8194 63.7361 53.721 64.5429C53.7304 64.7262 53.6591 64.9042 53.5264 65.0306C53.2298 64.9243 53.246 64.6549 53.246 64.4255C53.246 60.4848 53.1924 56.5438 53.2679 52.6051C53.3497 52.1707 53.8085 52.1259 54.048 51.8521C54.1322 51.7559 54.3271 51.7209 54.2667 51.5459C54.2254 51.4267 54.074 51.4306 53.9651 51.3915C53.7221 51.304 53.3838 51.3915 53.2926 51.0214C53.2488 49.9891 53.1559 48.957 53.3442 47.9295C53.3637 47.8751 53.4236 47.8467 53.478 47.8661C53.4912 47.8707 53.5034 47.8781 53.5137 47.8875Z" fill="#ABACAC"/>
<path d="M54.9963 66.7258C55.9466 67.8806 56.9802 68.9639 58.0888 69.9675C58.7161 70.2346 59.092 70.8082 59.5804 71.2387C60.3212 71.8917 61.1608 72.4416 61.7721 73.2385C63.588 74.782 65.5389 76.159 67.6016 77.3529C68.2831 77.5416 68.8263 77.9935 69.4339 78.3248C70.0082 78.6385 70.5738 78.9674 71.1643 79.2509C71.3557 79.3117 71.5165 79.4438 71.6129 79.6198C73.08 80.4218 74.6064 81.1103 76.1787 81.6792C77.1968 81.911 78.198 82.189 79.0923 82.7576C80.1887 83.1647 81.3135 83.4907 82.4576 83.7337C83.2592 84.0651 84.1266 84.1445 85.0756 84.4277C84.5944 84.8883 84.1629 85.3174 83.7145 85.7281C82.3415 86.9864 82.3388 86.9838 80.5903 86.4801C59.7114 80.4669 44.019 63.6877 39.3708 42.396C38.7388 39.3822 38.3254 36.3264 38.1345 33.2528C38.0715 32.8548 38.2523 32.4576 38.5937 32.2435C39.4207 31.6501 40.2233 31.0229 41.1603 30.4466C41.1747 36.4515 42.2215 42.4093 44.2548 48.0594V47.4514C44.2548 41.3886 44.2511 35.3255 44.2439 29.2627C44.2428 28.8183 44.3559 28.565 44.7716 28.3925C45.5999 28.0489 46.4104 27.6624 47.2288 27.2932C47.3286 27.5122 47.3603 27.756 47.32 27.9931C47.3233 37.0168 47.3246 46.0408 47.3244 55.0647C47.3036 55.244 47.3216 55.4258 47.3771 55.5975C48.2331 57.3377 49.2442 58.9973 50.3984 60.5558V59.9294C50.3984 48.9317 50.3944 37.9339 50.3868 26.9361C50.3868 26.4123 50.4828 26.1573 51.0486 26.049C51.8497 25.8959 52.6349 25.652 53.4452 25.5287C53.6453 25.7647 53.5994 26.0536 53.6132 26.3285C53.6683 27.4221 53.5532 28.511 53.4979 29.6015C53.6355 30.8249 53.7039 32.0473 53.4452 33.2651C53.4441 34.3643 53.4432 35.4635 53.4423 36.5628C53.5309 36.696 53.5808 36.851 53.5863 37.0109C53.6009 37.9844 53.6009 38.9581 53.5863 39.9316C53.5703 40.1301 53.5211 40.3246 53.4408 40.5068L53.4458 43.9265C53.5307 44.0625 53.579 44.218 53.5863 44.3781C53.6009 45.3551 53.6009 46.3319 53.5863 47.3088C53.572 47.5083 53.5226 47.7036 53.4406 47.886L53.4821 51.1813C53.6726 51.5531 53.67 51.9945 53.4752 52.3641C53.4649 56.4905 53.4552 60.6166 53.4465 64.743C53.457 64.8204 53.4776 64.8961 53.508 64.9681C54.1287 65.4359 54.6372 66.0365 54.9963 66.7258Z" fill="#EE1D55"/>
<path d="M25.1062 61.5042L25.109 58.239C25.0244 56.7048 25.9346 55.5809 26.6837 54.3898C26.8637 54.103 27.0336 53.8091 27.2066 53.5184C27.4472 52.7589 27.9658 52.1655 28.4238 51.5459C28.6956 51.222 28.766 50.7745 28.6066 50.3828C28.462 49.9552 28.2254 49.5366 28.342 49.0533C28.3083 48.8352 28.2545 48.6209 28.1817 48.4127C27.6005 47.1262 27.8378 45.9367 28.5207 44.7602C28.9913 43.9488 29.3531 43.0744 29.9423 42.1827C32.1038 53.7181 36.8014 63.9747 44.1404 72.9798C51.4879 81.9952 60.5852 88.6554 71.4134 93.0987C69.9243 93.6209 68.4009 94.0402 66.8542 94.3538C66.6535 94.375 66.4516 94.325 66.2843 94.2121C65.4523 93.8171 64.6212 93.4197 63.791 93.0199C63.1696 92.9086 62.6703 92.5296 62.1349 92.2385C60.5383 91.3706 59.01 90.3886 57.4777 89.4136C56.4021 88.639 55.283 87.9264 54.2367 87.1089C54.0042 86.8858 53.6899 86.7537 53.5215 86.4635C53.5014 86.4335 53.4821 86.3677 53.467 86.3679C53.4141 86.3679 53.4325 86.3852 53.4699 86.4291C53.5305 86.5089 53.5683 86.6039 53.5792 86.7034C53.6066 88.7765 53.6053 90.8479 53.5755 92.9178C53.5609 93.3954 53.5125 93.8714 53.4307 94.342C52.492 94.2556 51.5986 93.9599 50.6862 93.7515C50.3078 93.664 50.3999 93.372 50.3997 93.1264C50.3966 90.2274 50.3885 87.3282 50.4077 84.4295C50.4298 84.0518 50.2634 83.6874 49.9631 83.4571C49.099 82.7135 48.2686 81.9309 47.4145 81.1545C47.25 81.3594 47.327 81.5661 47.327 81.7533C47.3211 85.1558 47.3196 88.558 47.3224 91.9603C47.3224 92.623 47.3174 92.6306 46.6882 92.3566C46.0277 92.0692 45.3807 91.7494 44.7152 91.4747C44.3412 91.3203 44.2443 91.085 44.2458 90.6891C44.2614 86.6023 44.2509 82.5155 44.2627 78.4287C44.2795 78.0712 44.1509 77.7219 43.906 77.4605C43.0278 76.4779 42.1821 75.4661 41.2419 74.3695C41.2268 74.6879 41.2086 74.8961 41.2084 75.1046C41.2069 79.6946 41.2023 84.2849 41.1951 88.8749C41.1951 89.011 41.4374 89.3524 40.9928 89.3185C40.9505 89.0197 40.9407 88.7173 40.9632 88.4163C40.9619 84.0325 40.9536 79.6489 40.9715 75.2653C40.996 74.6407 40.7795 74.0305 40.367 73.5609C39.5641 72.5835 38.8175 71.5613 38.1307 70.499C37.8639 69.9621 37.5538 69.4479 37.2038 68.961C37.1914 68.946 37.182 68.9278 37.1693 68.9131C37.0077 68.7303 36.9698 68.3511 36.68 68.395C36.4537 68.4294 36.4338 68.7701 36.3402 68.9855C35.911 69.926 35.4905 70.8691 35.099 71.8257C34.7053 72.8744 34.2933 73.9157 33.9529 74.9836C33.8099 75.4228 33.6485 75.8556 33.5339 76.304C33.1278 77.679 32.7649 79.0652 32.4305 80.4595C32.3828 80.6587 32.404 80.915 32.1263 80.9881C31.2794 79.9916 30.6209 78.8666 29.9296 77.7634C29.7712 77.5108 29.8705 77.3041 29.9318 77.0782C31.0393 72.9903 32.5963 69.0376 34.5743 65.2926C34.7744 64.9934 34.7764 64.6037 34.5795 64.3023C34.0835 63.4325 33.6452 62.5292 33.1837 61.6395C33.0523 61.4558 32.9633 61.2454 32.923 61.0232C32.8662 61.2566 33.1577 61.4062 33.0761 61.6389C30.9306 65.3712 29.1742 69.314 27.8341 73.4052C27.452 72.8191 27.2985 72.2165 27.0916 71.6439C26.0855 68.86 26.0978 68.8596 27.3167 66.1543C28.4706 63.5675 29.7955 61.0602 31.2827 58.6493C31.4968 58.3589 31.5275 57.9722 31.3619 57.6518C30.9523 56.7184 30.587 55.7652 30.1643 54.7222C28.3367 57.4436 26.7062 60.2925 25.2857 63.247L25.1062 61.5042Z" fill="#EE1D55"/>
<path d="M35.208 35.2816C37.5177 61.1026 55.2463 82.1615 79.0928 89.2573C78.7648 89.6433 78.3227 89.8327 77.9253 90.0704C75.6182 91.45 75.6016 91.4796 73.1137 90.4512C53.4428 82.3172 40.5184 68.0316 34.3406 47.5941C33.5079 44.7148 32.8964 41.776 32.5108 38.8035C32.4535 38.6091 32.487 38.3993 32.6016 38.2322C33.4174 37.203 34.2874 36.2181 35.208 35.2816Z" fill="#EE1D55"/>
<path d="M86.3537 36.8668C86.9254 37.6368 86.9265 37.6384 86.17 38.2267C85.7748 38.5329 85.3752 38.8354 84.9774 39.1394C84.6086 39.1531 84.8461 39.3655 84.859 39.5039C85.0611 40.3418 85.2853 41.1751 85.4574 42.0191C85.5596 42.5197 85.6877 42.5692 86.0825 42.2288C86.8419 41.574 87.6572 40.985 88.4203 40.3346C88.7265 40.0732 88.8811 40.131 89.0679 40.4394C89.4318 41.0406 89.8043 41.637 90.1927 42.2225C90.4099 42.5506 90.404 42.7693 90.0501 43.0114C89.5543 43.3497 89.0961 43.7445 88.6305 44.1255C88.5329 44.2053 88.3582 44.2747 88.4229 44.4483C88.4704 44.5756 88.6211 44.5577 88.7354 44.5889C89.6046 44.8236 90.4678 45.0819 91.3429 45.2914C91.6834 45.3459 91.9651 45.586 92.0725 45.9137C92.3881 46.7605 92.7286 47.5977 93.0539 48.4411C93.1026 48.5677 93.2203 48.7142 93.1302 48.8391C93.0051 49.0123 92.8367 48.8689 92.6928 48.8304C88.649 47.7589 84.6056 46.6857 80.5625 45.611C75.6496 44.3022 70.7377 42.9906 65.8261 41.6762C65.4781 41.5832 65.1299 41.4907 64.7815 41.3986C64.7612 41.2427 64.8828 41.1884 64.9863 41.1434C66.5277 40.4405 68.126 39.8698 69.7642 39.4375C70.1102 39.4945 70.3831 39.7697 70.735 39.7603C70.6038 39.6133 70.0914 39.839 70.2856 39.3255C70.8466 39.0127 71.4229 38.761 72.0882 38.8327C72.3603 38.9992 72.3917 39.2944 72.4488 39.5623C72.4985 39.9309 72.7878 40.2213 73.1561 40.2723C73.9356 40.4306 74.6812 40.7303 75.5226 40.8687C75.4788 40.2005 75.2767 39.6002 75.1455 38.9878C75.0845 38.7035 74.9216 38.4174 75.1 38.1167C76.0916 37.716 77.1524 37.5144 78.2219 37.5235C78.5263 38.12 78.5687 38.789 78.7286 39.4248C78.8852 40.047 79.0512 40.669 79.1604 41.3024C79.2056 41.6937 79.502 42.0088 79.8898 42.0777C80.5301 42.2387 81.1747 42.3839 81.8089 42.5687C82.1903 42.6794 82.2879 42.5383 82.198 42.1818C81.8441 40.7803 81.5336 39.3686 81.2138 37.9592C81.1414 37.6397 80.8112 37.5268 80.7615 37.2208C80.8532 37.1124 80.9879 37.0496 81.1298 37.0487C82.6936 36.9348 84.2609 36.8834 85.8257 36.7843C86.0042 36.792 86.1814 36.8197 86.3537 36.8668Z" fill="#ABACAC"/>
<path d="M60.5218 43.4193C63.6137 44.2504 66.7058 45.0815 69.7979 45.9126C77.7442 48.0397 85.6915 50.1625 93.6396 52.2807C94.0232 52.3826 94.2119 52.527 94.2738 52.9401C94.388 53.6925 94.5306 54.4411 94.6529 55.1928C94.7325 55.6816 94.6695 55.7575 94.1966 55.6263C92.4225 55.1336 90.6389 54.6749 88.8601 54.1999C78.2836 51.3748 67.707 48.5489 57.1305 45.7221C56.9951 45.686 56.8582 45.6565 56.7219 45.6239C56.6832 45.4391 56.8372 45.3846 56.9448 45.3105C57.9675 44.6053 59.07 44.036 60.1497 43.4296C60.26 43.3668 60.3945 43.2662 60.5218 43.4193Z" fill="#ABACAC"/>
<path d="M60.522 43.4193C59.2119 44.0771 57.9427 44.8135 56.7215 45.6243L53.7033 47.6274C53.5432 47.6522 53.4859 47.5577 53.4894 47.4221C53.5189 46.2763 53.4115 45.128 53.5465 43.984C60.719 39.1035 68.8929 35.8902 77.4689 34.5795C79.3517 34.2858 81.2488 34.1145 83.1496 33.9824C83.4097 33.9693 83.6614 34.076 83.8327 34.272C84.72 35.0906 85.5399 35.9744 86.3522 36.8665C85.7269 37.1071 85.0668 37.0021 84.4245 37.0402C83.2185 37.1119 82.0097 37.1355 80.8094 37.2915C80.5365 37.6136 80.1384 37.5275 79.7977 37.5644C79.2702 37.6215 78.7387 37.8461 78.2011 37.6121C77.1644 37.7409 76.1365 37.9327 75.123 38.186C74.1646 38.6007 73.1413 38.8447 72.0989 38.9077C71.4795 39.011 70.8724 39.1767 70.2867 39.4029C70.1699 39.5389 69.9838 39.5927 69.8123 39.5402C68.0948 40.0461 66.4131 40.6672 64.7792 41.3993C63.3147 41.9721 61.892 42.6472 60.522 43.4193Z" fill="#EE1D55"/>
<path d="M53.7812 36.5907C57.1863 34.5535 60.7858 32.8602 64.5262 31.5357C68.0513 30.2674 71.6806 29.3104 75.3728 28.6757C75.5662 28.6241 75.7717 28.6415 75.9535 28.7253C77.3364 29.4333 78.6674 30.2381 79.9368 31.1337C78.7536 31.307 77.6583 31.4557 76.5667 31.6289C68.6276 32.8834 61.0172 35.7052 54.1792 39.9298C54.0093 40.0341 53.8324 40.1266 53.6585 40.2244C53.3961 40.201 53.4927 39.9928 53.4914 39.8609C53.4824 38.9397 53.4967 38.018 53.4803 37.0971C53.4424 36.8773 53.5699 36.6625 53.7812 36.5907Z" fill="#EE1D55"/>
<path d="M53.6655 29.6087C56.972 27.8424 60.428 26.3713 63.9934 25.2128C64.6042 25.012 65.2164 25.2758 65.8196 25.3709C67.4328 25.622 69.0224 26.0067 70.5719 26.5211C68.5522 27.032 66.6444 27.5655 64.7663 28.2004C61.0424 29.4571 57.4352 31.0359 53.9855 32.919C53.8457 32.9954 53.6972 33.0551 53.5529 33.1226C53.407 32.0291 53.5161 30.9312 53.4965 29.8355C53.5026 29.7329 53.5691 29.6439 53.6655 29.6087Z" fill="#EE1D55"/>
<path d="M57.5272 89.3032C59.5831 90.5975 61.6772 91.8242 63.7908 93.019C63.7447 93.5061 63.6983 93.9934 63.6519 94.4804C63.5314 94.6429 63.5137 94.873 63.2032 94.8761C62.4447 94.884 61.6866 94.9417 60.9286 94.9887C60.573 95.0106 60.3748 94.9909 60.4861 94.5058C60.6644 93.7274 60.7309 92.9239 60.8603 92.1337C60.9141 91.8056 60.8308 91.6744 60.4857 91.7619C59.6723 91.9694 58.8578 92.172 58.0421 92.369C57.7975 92.3972 57.616 92.6094 57.6265 92.8554C57.5852 93.3932 57.4623 93.9243 57.4017 94.4612C57.3673 94.7639 57.2344 94.8986 56.9365 94.8662C56.1434 94.7788 55.35 94.6941 54.558 94.5983C54.3785 94.5765 54.261 94.4748 54.3284 94.2639C54.336 94.2453 54.3417 94.2259 54.3452 94.2062C54.434 93.2631 54.434 93.2631 53.5677 93.4188C53.3905 92.6315 53.5312 91.8328 53.4894 91.0404C53.4778 90.8217 53.4872 90.5999 53.4881 90.3803C53.5082 90.2371 53.6189 90.1233 53.7615 90.0993C54.8999 89.7504 56.0599 89.4766 57.2341 89.2798C57.3323 89.2649 57.4327 89.2728 57.5272 89.3032Z" fill="#ABACAC"/>
<path d="M53.4375 29.5638C53.4397 28.219 53.4421 26.8739 53.4447 25.5291C55.3565 25.1304 57.3084 24.9559 59.2606 25.0094C58.101 25.7778 56.9414 26.5461 55.7816 27.3144C55.2642 27.6567 54.7629 28.0292 54.2209 28.3262C53.7133 28.6044 53.4231 28.9565 53.5073 29.5553C53.4928 29.6325 53.4692 29.6316 53.4375 29.5638Z" fill="#ABABAC"/>
<path d="M28.3418 49.053C28.9842 50.3434 28.9688 51.5371 27.8679 52.6053C27.6205 52.8891 27.3992 53.1947 27.2063 53.5181L25.541 54.5358C25.7236 53.1507 26.0158 51.7822 26.4145 50.4433C26.492 50.1809 26.7426 50.1004 26.9344 49.9685C27.3954 49.6516 27.8718 49.3568 28.3418 49.053Z" fill="#ABACAC"/>
<path d="M53.7813 36.5907C53.6951 36.7381 53.5372 36.8313 53.5407 37.0452C53.5547 38.037 53.5473 39.0293 53.5556 40.0214C53.5556 40.0894 53.6229 40.1567 53.659 40.2243L53.4414 40.5071C53.4414 39.1927 53.4418 37.878 53.4429 36.5634C53.549 36.6535 53.6662 36.6084 53.7813 36.5907Z" fill="#EF4464"/>
<path d="M53.5476 43.9839C53.5476 44.9985 53.5423 46.0131 53.5476 47.0277C53.5487 47.2364 53.4745 47.4748 53.7042 47.6274L53.5141 47.887L53.4774 47.88L53.4404 47.8864C53.4424 46.5667 53.4441 45.2472 53.4459 43.9277C53.4857 43.9328 53.5222 43.9529 53.5476 43.9839Z" fill="#EF4263"/>
<path d="M53.4375 29.5639C53.4607 29.5733 53.4869 29.5702 53.5075 29.5558L53.6658 29.6089C53.4272 30.1047 53.5703 30.6321 53.5514 31.1441C53.5272 31.8028 53.5504 32.4631 53.553 33.1227L53.4454 33.2655C53.4427 32.0322 53.4401 30.7985 53.4375 29.5639Z" fill="#EF4263"/>
<path d="M84.8592 39.504C84.654 39.3264 84.7809 39.0716 84.6914 38.854C84.9287 38.8299 84.8226 39.1108 84.9775 39.1383L84.8592 39.504Z" fill="#B1B2B2"/>
<path d="M38.1369 70.3306C38.8938 71.3312 39.6033 72.3733 40.4237 73.3186C41.0105 73.9946 41.1522 74.7045 41.1454 75.5641C41.1126 79.9231 41.1319 84.2825 41.126 88.6418C41.126 88.8694 41.2233 89.1301 40.9923 89.3174C40.0775 88.7568 39.2005 88.137 38.3667 87.4618C38.1765 87.3164 38.078 87.0804 38.1087 86.8429C38.11 86.0848 38.0964 85.3268 38.0885 84.5683C37.9757 84.4025 37.9245 84.2022 37.944 84.0025C37.9341 83.0489 37.9372 82.0954 37.9413 81.1418C37.9494 80.9229 37.9997 80.7074 38.0894 80.5075C38.0883 79.2069 38.087 77.9064 38.0859 76.6058C37.9661 76.4172 37.9151 76.1933 37.9413 75.9715C37.9413 74.6623 37.9195 73.3529 37.9512 72.0437C37.9967 71.4714 37.7819 70.8708 38.1369 70.3306Z" fill="#ED1A47"/>
<path d="M38.0861 72.0286C38.0861 73.5549 38.0861 75.0813 38.0861 76.6075C36.3308 77.9987 34.5811 79.3973 32.8111 80.7699C32.6405 80.9012 32.4808 81.3386 32.127 80.9858C32.5467 79.4098 32.855 77.8036 33.4029 76.2617C33.8871 75.7923 34.3506 75.2952 34.9977 75.0404C35.2503 74.9796 35.511 74.9599 35.7698 74.9827C35.4791 74.958 35.1863 74.9803 34.9026 75.0483C34.5297 75.0942 34.1507 75.1905 33.8263 74.8967C34.1546 73.8469 34.5393 72.8157 34.9791 71.8077C36.0176 71.6314 37.0831 71.7073 38.0861 72.0286Z" fill="#ABACAC"/>
<path d="M38.089 80.509C38.089 81.8626 38.089 83.216 38.089 84.5691C37.4068 84.6284 36.7625 84.8607 36.1016 85.0153C35.8759 85.1078 35.6167 85.0494 35.4522 84.8694C34.8156 84.1735 34.1728 83.4833 33.5237 82.7989C33.2966 82.5583 33.3986 82.4709 33.6669 82.4175C33.9801 82.3547 34.2856 82.2425 34.601 82.2029C35.9192 82.0402 37.1459 81.4442 38.089 80.509Z" fill="#ABACAC"/>
<path d="M53.5626 90.2788C53.564 91.3257 53.5653 92.3729 53.5668 93.4201C53.45 93.7167 53.6521 94.0607 53.4316 94.3417C53.4389 91.7008 53.4461 89.0603 53.4535 86.4201C53.4736 86.3558 53.5047 86.3464 53.5484 86.4013L54.2671 86.9763C53.789 87.2787 53.712 87.726 53.7098 88.2621C53.7057 88.9335 53.8758 89.6275 53.5626 90.2788Z" fill="#C1A0A4"/>
<path d="M33.0761 61.6366C33.0059 61.4345 32.8297 61.2716 32.8574 60.9429C33.0385 61.1331 33.1536 61.3766 33.1855 61.6373L33.1313 61.6318L33.0761 61.6366Z" fill="#EF3C60"/>
<path d="M54.9963 66.7258C54.4522 66.1825 53.9542 65.5948 53.5078 64.9689C53.5144 64.8481 53.5264 64.7283 53.5275 64.6073C53.5376 63.5346 53.5376 63.5201 54.6342 63.5713C57.9743 63.7273 61.3149 63.8795 64.6534 64.0639C67.0525 64.1964 69.451 64.3322 71.8518 64.433C72.6713 64.4674 73.4921 64.5205 74.3119 64.5402C74.7386 64.5507 75.001 64.7023 75.0773 65.1812C75.1867 65.8533 75.3553 66.5173 75.5303 67.1765C75.6278 67.5442 75.5622 67.7036 75.1526 67.6815C72.8738 67.5588 70.5947 67.442 68.3151 67.3316C67.395 67.2859 66.4746 67.2592 65.5543 67.2078C62.595 67.0425 59.6319 66.9453 56.6714 66.7977C56.114 66.7704 55.5589 66.6698 54.9963 66.7258Z" fill="white"/>
<path d="M61.7721 73.2388C60.459 72.2484 59.2272 71.1545 58.0889 69.9675C61.1895 70.0653 64.2871 70.2252 67.384 70.4224C68.3428 70.4835 69.3036 70.48 70.2644 70.5471C72.161 70.6783 74.0632 70.7389 75.9637 70.8058C76.2113 70.773 76.4388 70.9473 76.4714 71.1949C76.4733 71.2098 76.4746 71.2249 76.4751 71.24C76.6304 71.986 76.8198 72.725 77.0037 73.4649C77.0964 73.838 76.9724 73.9773 76.5851 73.9537C74.6281 73.8345 72.6702 73.735 70.7128 73.616C69.8734 73.5651 69.0333 73.5697 68.1924 73.5146C66.0547 73.3744 63.9122 73.3247 61.7721 73.2388Z" fill="white"/>
<path d="M60.165 55.08C58.9724 55.8907 57.8948 56.8515 56.76 57.7364C55.7075 58.5574 54.6684 59.3955 53.5303 60.3001C53.5303 58.9878 53.5314 57.7904 53.5303 56.5923C53.5303 56.3579 53.6869 56.236 53.8457 56.1112C55.2913 54.9667 56.7411 53.8272 58.1772 52.6704C58.327 52.5066 58.5647 52.4568 58.7677 52.5464C58.8447 52.5683 58.9232 52.5845 59.0026 52.5948C60.6101 53.014 60.6094 53.0142 60.3068 54.6609C60.2934 54.7606 60.2851 54.8608 60.2823 54.9614C60.2615 55.0154 60.2188 55.0585 60.165 55.08Z" fill="white"/>
<path d="M64.6535 61.0146C64.0545 60.9774 63.4559 60.9271 62.8564 60.9085C62.5631 60.8993 62.4968 60.8239 62.546 60.5148C62.8332 58.7133 63.0679 56.9033 63.3666 55.1038C63.5814 53.8103 63.6199 53.7937 64.881 54.1714C65.4133 54.3308 66.1386 54.2687 66.4312 54.6963C66.705 55.0965 66.3579 55.7295 66.291 56.259C66.116 57.6508 65.8477 59.0318 65.6911 60.4254C65.6042 61.1992 65.099 60.9999 64.6535 61.0146Z" fill="white"/>
<path d="M71.6129 79.6192C70.2129 78.9806 68.8707 78.2221 67.6016 77.3521C68.1667 77.2208 68.7421 77.1239 69.2946 76.9525C70.2202 76.6651 71.1453 76.7338 72.089 76.8099C73.3064 76.9083 74.5305 76.9216 75.7511 76.9792C76.2673 77.0404 76.7869 77.0697 77.3068 77.0666C77.8336 77.0253 77.8973 77.3444 77.9699 77.7048C78.0664 78.1873 77.6329 78.0926 77.4192 78.1471C75.5772 78.6164 73.7276 79.056 71.881 79.5074C71.7887 79.5376 71.6993 79.575 71.6129 79.6192Z" fill="white"/>
<path d="M72.4612 56.5843C72.2263 58.0704 71.9848 59.5554 71.7613 61.0433C71.7154 61.3495 71.5461 61.4096 71.302 61.3556C70.6481 61.2473 69.9837 61.2169 69.3225 61.2655C68.8118 61.2749 68.6384 61.1102 68.7224 60.6054C68.9133 59.4579 69.083 58.3066 69.2591 57.1564C69.3258 56.7201 69.3942 56.284 69.4463 55.8459C69.4826 55.5397 69.5994 55.4218 69.9237 55.515C70.6549 55.7243 71.3939 55.906 72.1296 56.0987C72.3409 56.1204 72.4949 56.3091 72.4732 56.5206C72.471 56.542 72.4669 56.5635 72.4612 56.5843Z" fill="white"/>
<path d="M79.0924 82.7578C78.0959 82.4704 77.122 82.11 76.1787 81.6793C76.881 81.3933 77.6331 81.2944 78.3592 81.0969C78.5329 81.0241 78.7326 81.1059 78.8052 81.2795C78.8222 81.3202 78.8312 81.3638 78.8317 81.4077C78.9115 81.8589 79.0049 82.3079 79.0924 82.7578Z" fill="#FDFCFC"/>
<path d="M59.5038 59.5071C59.6166 60.7469 59.5475 60.8036 58.1631 60.6131C58.5732 60.2019 59.0222 59.8314 59.5038 59.5071Z" fill="#F6F6F5"/>
<path d="M53.4756 52.3647C53.4778 51.971 53.48 51.5769 53.4824 51.1824C53.8693 51.2099 54.4125 51.185 54.5287 51.5157C54.6319 51.8096 54.0547 51.9507 53.8288 52.2127C53.7361 52.3175 53.6348 52.4141 53.4756 52.3647Z" fill="#FBF1F0"/>
<path d="M60.1658 55.08L60.2826 54.9608C60.2736 55.6137 60.1726 56.2621 59.9823 56.8868C59.9064 56.2713 60.0713 55.6786 60.1658 55.08Z" fill="#B0B1B1"/>
<path d="M60.9288 60.7473C60.6403 60.9612 60.3352 60.8694 59.9258 60.9092C60.298 60.5105 60.6281 60.7226 60.9288 60.7473Z" fill="#B0B1B1"/>
<path d="M74.3123 62.1478C74.2436 61.4963 73.8049 61.4176 73.2734 61.4825C74.2463 61.289 74.3827 61.3789 74.3123 62.1478Z" fill="#B2B3B3"/>
<path d="M73.6217 58.9492C73.3995 58.538 73.2899 58.0752 73.3039 57.608C73.5128 58.0242 73.6217 58.4835 73.6217 58.9492Z" fill="#B1B2B2"/>
<path d="M55.6265 60.5195C55.3658 60.6827 55.0395 60.6991 54.7637 60.5633C55.0834 60.3135 55.3592 60.4508 55.6265 60.5195Z" fill="#B0B1B1"/>
<path d="M80.0996 58.2844C80.4974 58.2494 80.8966 58.3361 81.2441 58.5327C80.8905 58.5771 80.5696 58.4763 80.0996 58.2844Z" fill="#B1B2B2"/>
<path d="M75.964 57.1324C75.5248 57.1366 75.0911 57.0331 74.7012 56.8308C75.1432 56.7969 75.585 56.9023 75.964 57.1324Z" fill="#B1B2B2"/>
<path d="M91.9513 69.7162L92.2266 70.7844C91.9163 70.4915 91.9414 70.1053 91.9513 69.7162Z" fill="#B1B2B2"/>
<path d="M67.6143 76.5918H66.8162L66.8145 76.5312H67.6127L67.6143 76.5918Z" fill="#B5B6B6"/>
<path d="M68.832 76.7007H68.124L68.1251 76.6447H68.8331L68.832 76.7007Z" fill="#B3B4B4"/>
<path d="M66.8145 61.0816C67.064 61.002 67.3321 61.0007 67.5823 61.0781C67.333 61.1597 67.0644 61.1608 66.8145 61.0816Z" fill="#B4B4B5"/>
<path d="M62.1873 60.8768H61.5093L61.5078 60.8162H62.1972L62.1873 60.8768Z" fill="#B5B6B6"/>
<path d="M56.8845 60.6317H56.2021C56.4152 60.5174 56.6715 60.5174 56.8845 60.6317Z" fill="#B5B6B6"/>
<path d="M54.2457 60.4602C54.059 60.5504 53.844 60.5622 53.6484 60.4931C53.8612 60.3411 54.0614 60.4602 54.2457 60.4602Z" fill="#B5B6B7"/>
<path d="M50.9355 61.6141C51.2599 61.7141 51.2929 62.0225 51.4559 62.2381C51.1328 62.1371 51.0991 61.8291 50.9355 61.6141Z" fill="#EE365D"/>
<path d="M45.6942 51.9197L45.9807 52.5213C45.7443 52.4247 45.6201 52.1642 45.6942 51.9197Z" fill="#EE375E"/>
<path d="M46.7683 54.4425C46.6097 54.2927 46.5201 54.084 46.5205 53.866C46.7086 53.9933 46.8053 54.2185 46.7683 54.4425Z" fill="#EE365E"/>
<path d="M52.8974 64.1704C52.6809 64.117 52.512 63.9473 52.46 63.7303C52.6666 63.8006 52.8285 63.9635 52.8974 64.1704Z" fill="#EE355D"/>
<path d="M52.0576 63.0723C51.8689 63.0743 51.7952 62.9697 51.7637 62.8007C51.9708 62.8033 51.9953 62.9535 52.0576 63.0723Z" fill="#EF385E"/>
<path d="M45.0036 50.4722C44.8634 50.2071 44.7125 50.0864 44.8006 49.8749C44.9909 50.0059 44.9857 50.197 45.0036 50.4722Z" fill="#EF395E"/>
<path d="M44.9814 50.2914C45.1221 50.5584 45.2745 50.6783 45.1857 50.8898C44.993 50.7596 45.0011 50.568 44.9814 50.2914Z" fill="#EE375D"/>
<path d="M53.562 90.2788C53.5533 89.362 53.5572 88.4449 53.5307 87.5286C53.5145 86.9639 53.9369 87.0474 54.2656 86.9763L57.527 89.3032L53.562 90.2788Z" fill="#FFFDFD"/>
<path d="M37.277 68.8711C36.9371 68.8652 36.5975 68.8589 36.2578 68.8525C36.3803 68.5835 36.5025 68.3152 36.6515 67.9875C36.9209 68.2338 37.1344 68.5352 37.277 68.8711Z" fill="#B4A9AA"/>
<path d="M47.2316 80.856L45.8275 79.4429L45.7803 79.4888L47.1245 80.9616L47.2316 80.856Z" fill="#EE355C"/>
<path d="M29.698 53.5546L29.3262 52.4663L29.4451 52.4226L29.8301 53.4943L29.698 53.5546Z" fill="#EE375E"/>
<path d="M50.6279 84.051C50.8587 84.0729 50.9525 84.2371 51.1552 84.4666C50.9195 84.4283 50.7202 84.2713 50.6279 84.051Z" fill="#EE365D"/>
<path d="M51.8588 85.0737C52.1318 85.0866 52.2543 85.2835 52.4653 85.5674C52.2051 85.491 51.9863 85.3134 51.8584 85.0744L51.8588 85.0737Z" fill="#EE345C"/>
<path d="M31.9849 59.086C31.7006 58.966 31.7501 58.6876 31.6875 58.4623C31.901 58.6154 31.9281 58.8579 31.9854 59.0856L31.9849 59.086Z" fill="#EE365E"/>
<path d="M51.8572 85.0743C51.6593 85.0654 51.4872 84.9363 51.4229 84.7489C51.6188 84.7627 51.7888 84.8895 51.8576 85.0737L51.8572 85.0743Z" fill="#EE375E"/>
<path d="M53.5466 86.4011C53.5173 86.4162 53.4845 86.4225 53.4517 86.4199C53.3237 86.3409 53.1658 86.2887 53.1514 86.0868C53.3773 86.0874 53.451 86.258 53.5466 86.4011Z" fill="#EF395E"/>
<path d="M31.9862 59.0857C32.1507 59.2001 32.229 59.4028 32.1842 59.5981C32.0309 59.4754 31.9552 59.2799 31.9858 59.0859L31.9862 59.0857Z" fill="#EF385E"/>
<path d="M78.2021 37.6121L80.8103 37.2915C81.046 37.2526 81.2687 37.4118 81.3078 37.6476C81.3093 37.6565 81.3104 37.6655 81.3113 37.6745C81.6746 39.273 82.0611 40.8663 82.4313 42.4642C82.4969 42.7472 82.4652 42.9388 82.072 42.8235C81.2494 42.5829 80.4161 42.3789 79.589 42.153C79.3786 42.0954 79.1516 42.0397 79.0995 41.7729C78.8316 40.3786 78.3946 39.0219 78.2021 37.6121Z" fill="white"/>
<path d="M72.0996 38.907C73.0829 38.5726 74.0951 38.331 75.1235 38.1853C75.317 39.0203 75.5053 39.8567 75.7061 40.69C75.7833 41.0108 75.7359 41.1379 75.3676 41.0298C74.585 40.8006 73.7999 40.5747 73.0044 40.4C72.5943 40.3098 72.3745 40.1375 72.322 39.7101C72.2687 39.4372 72.1943 39.1686 72.0996 38.907Z" fill="#FFFEFE"/>
<path d="M69.8135 39.5396C69.9718 39.4958 70.0998 39.3427 70.2879 39.4022C70.3375 39.7686 70.7747 39.5286 70.9057 39.8361C70.5193 39.8563 70.1367 39.7524 69.8135 39.5396Z" fill="#B1B2B1"/>
<path d="M83.8984 43.3613C84.2372 43.2767 84.5957 43.3701 84.85 43.6091L83.8984 43.3613Z" fill="#B1B1B1"/>
<path d="M84.5295 37.9918C84.6951 38.12 84.7664 38.3359 84.7095 38.5375C84.4867 38.4362 84.4956 38.2569 84.5295 37.9918Z" fill="#B1B2B2"/>
<path d="M84.3798 37.4606C84.5065 37.5371 84.5653 37.6303 84.5134 37.7449C84.5106 37.751 84.431 37.7392 84.4273 37.7252C84.4041 37.6382 84.3934 37.5489 84.3798 37.4606Z" fill="#B1B2B2"/>
<path d="M56.5486 92.7334C56.26 93.0206 55.8488 92.8917 55.5078 93.0372C55.8079 92.7933 56.1725 92.7649 56.5486 92.7334Z" fill="#B1B2B2"/>
<path d="M34.9775 75.1553C34.9808 75.0785 34.9843 75.0019 34.9876 74.9252H35.8102C35.544 75.0654 35.2339 75.0002 34.9775 75.1553Z" fill="#B6B6B7"/>
<path d="M37.2872 75.0919C36.9716 75.1789 36.6394 75.1866 36.3203 75.1137C36.6359 75.0269 36.9681 75.0193 37.2872 75.0919Z" fill="#B2B4B3"/>
</svg>
