<svg width="120" height="120" viewBox="0 0 120 120" fill="none" xmlns="http://www.w3.org/2000/svg">
<circle cx="60" cy="60" r="60" fill="#EDF0F4"/>
<path fill-rule="evenodd" clip-rule="evenodd" d="M60.018 29L75.5735 53.3533L60.018 62.4182L44.4656 53.3533L60.018 29ZM49.2275 52.1997L60.018 35.3021L70.8116 52.1997L60.018 58.4923L49.2275 52.1966V52.1997Z" fill="#273852"/>
<path d="M59.9959 67.7709L41.9541 57.257L41.4606 58.0271C39.3364 61.352 38.1454 65.1869 38.0125 69.13C37.8796 73.0732 38.8095 76.9798 40.705 80.4401C42.6005 83.9004 45.3917 86.7871 48.7862 88.7981C52.1807 90.8091 56.0536 91.8702 59.999 91.8702C63.9445 91.8702 67.8174 90.8091 71.212 88.7981C74.6063 86.7871 77.3977 83.9004 79.293 80.4401C81.1884 76.9798 82.1184 73.0732 81.9855 69.13C81.8525 65.1869 80.6616 61.352 78.5374 58.0271L78.0439 57.257L59.9959 67.7741V67.7709Z" fill="#273852"/>
</svg>
