<svg width="120" height="120" viewBox="0 0 120 120" fill="none" xmlns="http://www.w3.org/2000/svg">
<circle cx="60" cy="60" r="60" fill="#EDF0F4"/>
<path fill-rule="evenodd" clip-rule="evenodd" d="M57.3119 52.6557C56.8319 52.6655 56.3978 52.3717 56.2286 51.9225C56.0594 51.4732 56.1918 50.966 56.559 50.6568C58.4624 49.0526 60.1074 47.1649 61.4362 45.06C62.3756 43.4143 63.8948 42.5681 65.4805 42.7814C65.9063 42.8084 66.2813 43.071 66.4523 43.4618C66.6232 43.8527 66.5615 44.3064 66.2923 44.6373C66.0231 44.9683 65.5915 45.1211 65.174 45.0334C64.2479 44.9068 63.6283 45.7996 63.4017 46.1861C61.9586 48.5088 60.16 50.5907 58.0715 52.3558C57.8654 52.5484 57.5939 52.6556 57.3119 52.6557ZM38.1763 71.8912C37.7038 71.8851 37.2841 71.5879 37.1215 71.1442C36.9588 70.7005 37.0868 70.2025 37.4434 69.8924C38.7627 68.8534 40.1617 67.9199 41.6276 67.1007C42.1601 66.9233 42.7422 67.1627 42.9959 67.6634C43.2496 68.1641 43.0983 68.775 42.6404 69.0995C41.3341 69.8409 40.0847 70.6783 38.9025 71.6047C38.6989 71.7755 38.442 71.8698 38.1763 71.8712" fill="#28646E"/>
<path fill-rule="evenodd" clip-rule="evenodd" d="M66.7197 61.1175C67.1727 61.5372 67.6991 61.3573 68.1788 60.8976C71.4703 57.7528 74.9549 52.8423 76.1142 50.2837C76.196 50.0258 76.3794 49.8124 76.6222 49.6929C76.8649 49.5735 77.1459 49.5582 77.4002 49.6508C78.0331 49.904 78.0265 50.9833 77.4535 52.176C75.4801 56.2142 72.8453 59.894 69.658 63.063C69.476 63.2273 69.3722 63.4609 69.3722 63.706C69.3722 63.9511 69.476 64.1847 69.658 64.349C70.0244 64.6754 70.6241 64.6554 71.1771 64.0891C72.9537 62.3314 74.5827 60.4305 76.0476 58.4057C76.2551 58.0045 76.6929 57.7776 77.1403 57.8394C77.6867 57.946 77.7733 58.4723 77.6067 59.1053C77.3335 60.1247 74.4619 63.8959 73.3225 65.1618C70.2376 68.6065 67.1527 70.4921 61.2162 73.577C59.164 74.643 57.6116 75.6891 56.6455 77.3081C55.786 78.7473 55.5328 79.2204 55.4462 79.4003C55.1175 80.1095 55.409 80.9516 56.1058 81.3058C56.4422 81.4674 56.8292 81.4879 57.1807 81.3628C57.5323 81.2377 57.8194 80.9773 57.978 80.6396C57.978 80.6396 57.978 80.5863 57.978 80.5663C57.978 80.5463 57.9381 80.5663 59.0574 78.7007C59.8931 77.3494 61.1103 76.276 62.5554 75.6158C68.512 72.904 70.9439 70.7653 74.3952 67.3139C76.0213 65.4732 77.4733 63.4859 78.7327 61.3773C80.3918 58.5789 79.5189 56.187 78.0198 55.7806C77.9198 55.7515 77.8609 55.6483 77.8866 55.5474C77.8836 55.5297 77.8836 55.5117 77.8866 55.4941C78.7594 54.1327 79.4053 52.6385 79.7988 51.0699C80.0919 49.6241 79.6789 47.8651 77.7 47.4387C77.5978 47.4155 77.5327 47.3149 77.5534 47.2122C77.68 46.7524 77.8066 46.1728 77.8866 45.793C78.317 44.116 77.3464 42.3984 75.6878 41.9019C74.7603 41.7003 73.7908 41.9039 73.0227 42.4616C72.9133 42.5362 72.7658 42.5191 72.6762 42.4216C72.2926 42.0061 71.7559 41.7654 71.1904 41.7553C69.9445 41.7553 68.7252 42.1151 67.859 44.0273C67.1927 45.3599 66.2666 47.2322 63.4749 50.3304C60.938 53.0161 58.1011 55.4014 55.0197 57.4396C54.6266 57.6928 54.0803 57.6328 54.1403 57.1131C54.2469 56.2803 55.1397 50.6569 55.3129 49.0311C55.5594 46.366 54.1203 45.1267 52.5012 44.9135C51.1686 44.7336 49.1698 45.1134 48.0504 48.145C46.7765 51.1941 45.7254 54.3316 44.9056 57.5329C44.0387 61.3383 43.9526 65.2799 44.6524 69.1195C44.7006 69.3856 44.6509 69.6601 44.5125 69.8924C43.4387 71.5026 42.4706 73.1807 41.6141 74.9162C41.3179 75.5869 41.5733 76.3732 42.2071 76.7418C42.8847 77.1091 43.7317 76.8625 44.106 76.1888L44.146 76.1088C44.5724 75.2094 45.4786 73.5103 45.7984 72.7774C46.2333 71.952 46.6204 71.1022 46.9577 70.2322C47.1797 69.5048 47.1797 68.7276 46.9577 68.0002C46.4014 64.9073 46.4808 61.7335 47.1909 58.6722C48.1035 55.1341 49.2158 51.6506 50.5223 48.2382C50.8621 47.3987 51.3419 47.1389 51.8549 47.1855C52.3679 47.2322 53.2541 47.4587 52.9942 49.1844C52.5212 52.2426 51.8549 56.127 51.6617 57.4396C51.5551 58.1059 51.4351 59.5784 52.6145 60.2646C53.5406 60.7977 54.56 60.5045 55.6794 59.7516C59.1788 57.3803 62.4074 54.6321 65.3071 51.5563C68.1788 48.3315 69.0916 46.406 69.8312 44.667C70.1045 44.1084 70.7398 43.8273 71.337 44.0007C71.6435 44.0873 72.0033 44.5004 71.7568 45.3732C71.0905 47.4987 68.492 52.3559 63.4416 56.9132C63.2139 57.0715 63.0629 57.3178 63.0249 57.5924C62.9869 57.867 63.0655 58.145 63.2417 58.3591C63.4198 58.5557 63.6727 58.6678 63.9379 58.6678C64.2032 58.6678 64.4561 58.5557 64.6342 58.3591C68.1188 55.2927 70.9278 51.5353 72.8828 47.3254C73.2707 46.5004 73.6024 45.6501 73.8755 44.7802C73.991 44.2273 74.4982 43.8454 75.0615 43.8874C75.6145 44.0007 75.981 44.5537 75.8078 45.5065C75.5239 46.6972 75.1083 47.8526 74.5685 48.9512C73.116 52.0427 70.0377 56.1803 66.7197 59.7316C66.5318 59.9091 66.4253 60.1561 66.4253 60.4146C66.4253 60.673 66.5318 60.92 66.7197 61.0975M46.1915 45.7264C46.3647 45.5731 46.2981 45.3732 46.2515 45.22C46.0049 44.4338 44.6124 41.169 44.2526 40.516C44.2039 40.3885 44.1052 40.2865 43.9793 40.2336C43.8535 40.1808 43.7115 40.1817 43.5863 40.2362C43.0944 40.4893 42.6448 40.8175 42.2538 41.209C41.8106 41.5512 41.4259 41.963 41.1144 42.4283C41.0506 42.542 41.035 42.6766 41.0714 42.8019C41.1077 42.9272 41.1928 43.0326 41.3077 43.0945C41.9073 43.5476 44.9655 45.3532 45.7051 45.6931C45.8584 45.7663 46.0449 45.8596 46.2182 45.6931L46.1915 45.7264ZM39.5287 46.8257C39.1489 46.8257 38.989 46.9856 38.9424 47.2455C38.8986 47.8039 38.9413 48.3658 39.0689 48.9112C39.1343 49.4662 39.2849 50.0078 39.5154 50.5169C39.647 50.7526 39.942 50.8411 40.1816 50.7168C40.8479 50.437 44.0061 48.7646 44.6857 48.3115C44.8256 48.2183 44.9989 48.105 44.9589 47.8718M71.377 74.643C71.1438 74.643 71.0771 74.8629 71.0172 75.0161C70.7373 75.7824 69.8645 79.227 69.7512 79.9666C69.7107 80.0975 69.7264 80.2393 69.7947 80.3582C69.8629 80.477 69.9775 80.562 70.111 80.5929C70.6622 80.6986 71.2266 80.7166 71.7834 80.6462C72.3427 80.6395 72.8977 80.5474 73.4291 80.373C73.5542 80.3217 73.6532 80.2219 73.7034 80.0963C73.7536 79.9708 73.7508 79.8302 73.6956 79.7068C73.4891 78.9872 72.1632 75.7091 71.7834 74.9695C71.7035 74.8229 71.6102 74.6363 71.377 74.6497V74.643ZM73.3758 73.0506C73.2626 73.2571 73.3758 73.4171 73.5024 73.5436C74.0154 74.2099 76.5007 76.7218 77.0737 77.2015C77.1681 77.3014 77.2994 77.358 77.4368 77.358C77.5742 77.358 77.7055 77.3014 77.7999 77.2015C78.1735 76.7855 78.4793 76.3134 78.7061 75.8023C78.9866 75.3181 79.1869 74.7915 79.2991 74.2432C79.2991 73.9767 79.2324 73.7635 78.866 73.6636C78.1464 73.4637 74.6418 72.8907 73.8222 72.8441C73.6557 72.8441 73.4491 72.8441 73.3425 73.0173L73.3758 73.0506ZM61.1962 92.1396C61.1989 92.6555 60.8898 93.122 60.4137 93.3207C59.9375 93.5194 59.3886 93.4109 59.0237 93.0461C58.6589 92.6813 58.5505 92.1323 58.7491 91.6562C58.9478 91.18 59.4143 90.8709 59.9302 90.8736C60.266 90.8736 60.588 91.007 60.8254 91.2444C61.0628 91.4818 61.1962 91.8038 61.1962 92.1396ZM61.1962 27.7367C61.1962 28.2521 60.8854 28.7165 60.409 28.9131C59.9327 29.1097 59.3848 28.9996 59.0214 28.6342C58.6579 28.2689 58.5507 27.7204 58.7498 27.2451C58.9489 26.7698 59.4149 26.4614 59.9302 26.4641C60.2672 26.4641 60.5902 26.5984 60.8278 26.8373C61.0654 27.0761 61.198 27.3998 61.1962 27.7367ZM69.4847 90.7137C69.663 91.389 69.2607 92.0811 68.5856 92.2604C67.9106 92.4396 67.2179 92.0383 67.0377 91.3635C66.8574 90.6887 67.2578 89.9955 67.9323 89.8143C68.2575 89.7269 68.604 89.7727 68.8954 89.9415C69.1867 90.1103 69.3988 90.3882 69.4847 90.7137ZM52.8277 28.503C52.9467 28.941 52.823 29.4092 52.5032 29.7313C52.1834 30.0533 51.7161 30.1803 51.2772 30.0644C50.8384 29.9485 50.4948 29.6072 50.3758 29.1693C50.1918 28.4922 50.5915 27.7941 51.2686 27.6102C51.9457 27.4262 52.6437 27.8259 52.8277 28.503ZM77.1337 87.1891C77.3709 87.5813 77.3775 88.0711 77.1511 88.4697C76.9246 88.8682 76.5004 89.1132 76.042 89.1101C75.5837 89.1071 75.1627 88.8565 74.9416 88.455C74.6091 87.8514 74.8205 87.0926 75.4173 86.748C76.0141 86.4033 76.777 86.5994 77.1337 87.1891ZM44.9256 31.4146C45.2825 32.0163 45.0841 32.7934 44.4825 33.1503C43.8808 33.5072 43.1038 33.3089 42.7468 32.7072C42.4143 32.1036 42.6258 31.3448 43.2226 31.0001C43.8194 30.6555 44.5822 30.8516 44.9389 31.4413M83.5833 81.8389C84.0782 82.3338 84.0782 83.1362 83.5833 83.6312C83.0883 84.1261 82.2859 84.1261 81.791 83.6312C81.296 83.1362 81.296 82.3338 81.791 81.8389C82.2859 81.3439 83.0883 81.3439 83.5833 81.8389ZM38.0562 36.2718C38.3764 36.592 38.5014 37.0586 38.3842 37.496C38.267 37.9333 37.9254 38.2749 37.4881 38.3921C37.0507 38.5093 36.5841 38.3843 36.2639 38.0641C35.769 37.5692 35.769 36.7668 36.2639 36.2718C36.7588 35.7769 37.5613 35.7769 38.0562 36.2718ZM88.4471 74.9162C89.058 75.2584 89.2757 76.031 88.9335 76.6419C88.5913 77.2527 87.8187 77.4705 87.2078 77.1282C86.6007 76.7787 86.3919 76.0031 86.7414 75.3959C87.091 74.7887 87.8666 74.5799 88.4738 74.9295M32.6593 42.7414C33.0608 42.9626 33.3114 43.3835 33.3144 43.8419C33.3174 44.3002 33.0725 44.7244 32.6739 44.9509C32.2754 45.1774 31.7856 45.1707 31.3934 44.9335C30.8037 44.5768 30.6076 43.814 30.9522 43.2172C31.2969 42.6203 32.0557 42.4089 32.6593 42.7414ZM91.3588 67.0474C92.0377 67.2167 92.4509 67.9043 92.2816 68.5832C92.1123 69.2621 91.4247 69.6752 90.7458 69.506H90.7058C90.269 69.387 89.9289 69.0439 89.8136 68.6062C89.6982 68.1684 89.8252 67.7023 90.1467 67.3835C90.4682 67.0648 90.9353 66.9417 91.3721 67.0607M29.168 50.4037C29.6072 50.5227 29.9495 50.867 30.066 51.3068C30.1825 51.7467 30.0555 52.2153 29.7329 52.5361C29.4102 52.8569 28.9409 52.9813 28.5017 52.8622C27.8629 52.6478 27.502 51.9724 27.6787 51.3221C27.8554 50.6718 28.5084 50.272 29.168 50.4103M92.1317 58.6522C92.8308 58.6522 93.3976 59.219 93.3976 59.9182C93.3976 60.6173 92.8308 61.1841 92.1317 61.1841C91.4325 61.1841 90.8657 60.6173 90.8657 59.9182C90.8657 59.219 91.4325 58.6522 92.1317 58.6522ZM27.7288 58.6522C28.1811 58.6522 28.599 58.8935 28.8252 59.2852C29.0513 59.6769 29.0513 60.1595 28.8252 60.5511C28.599 60.9428 28.1811 61.1841 27.7288 61.1841C27.0297 61.1841 26.4629 60.6173 26.4629 59.9182C26.4629 59.219 27.0297 58.6522 27.7288 58.6522ZM90.7058 50.357C91.3628 50.2162 92.0153 50.613 92.1924 51.2612C92.3695 51.9093 92.0094 52.5829 91.3721 52.7956H91.3388C90.6617 52.9796 89.9637 52.5799 89.7797 51.9028C89.5957 51.2257 89.9954 50.5277 90.6725 50.3437M28.4617 67.0008C28.9066 66.8522 29.3972 66.9619 29.7365 67.2857C30.0759 67.6095 30.2084 68.0944 30.0808 68.5458C29.9533 68.9971 29.5866 69.341 29.128 69.4393C28.6912 69.5584 28.2241 69.4353 27.9026 69.1165C27.5811 68.7978 27.4542 68.3317 27.5695 67.8939C27.6848 67.4561 28.0249 67.1131 28.4617 66.9941M87.1479 42.6881C87.5401 42.4509 88.0299 42.4442 88.4284 42.6707C88.827 42.8972 89.0719 43.3214 89.0689 43.7797C89.0659 44.2381 88.8153 44.659 88.4138 44.8802C87.8102 45.2127 87.0514 45.0013 86.7067 44.4045C86.3621 43.8076 86.5582 43.0448 87.1479 42.6881ZM31.4067 74.9362C31.8497 74.6734 32.4077 74.7053 32.818 75.0168C33.2282 75.3282 33.4088 75.8572 33.2748 76.3545C33.1407 76.8518 32.7188 77.2183 32.2076 77.2814C31.6964 77.3445 31.1979 77.0916 30.947 76.6419C30.6076 76.0391 30.8117 75.2757 31.4067 74.9229M81.8043 36.2785C82.299 35.7849 83.1 35.7855 83.5939 36.2798C84.0879 36.7741 84.0879 37.5751 83.5939 38.0695C83.1 38.5638 82.299 38.5644 81.8043 38.0708C81.3122 37.5747 81.3122 36.7746 81.8043 36.2785ZM36.2639 81.8122C36.7586 81.3186 37.5596 81.3192 38.0535 81.8135C38.5475 82.3078 38.5475 83.1089 38.0535 83.6032C37.5596 84.0975 36.7586 84.0981 36.2639 83.6045C36.0242 83.3679 35.8893 83.0451 35.8893 82.7084C35.8893 82.3716 36.0242 82.0488 36.2639 81.8122ZM74.9083 31.4146C75.258 30.81 76.0314 30.603 76.6365 30.9519C77.2415 31.3008 77.4497 32.0739 77.1016 32.6795C76.7535 33.285 75.9807 33.4942 75.3747 33.147C74.7694 32.7959 74.5611 32.0221 74.9083 31.4146ZM42.7335 87.1891C42.9443 86.775 43.3651 86.5097 43.8296 86.4979C44.2941 86.4862 44.7277 86.7299 44.9593 87.1327C45.1908 87.5356 45.183 88.033 44.9389 88.4284C44.5822 89.0181 43.8194 89.2142 43.2226 88.8695C42.6258 88.5249 42.4143 87.7661 42.7468 87.1625M67.0395 28.503C67.1442 28.0626 67.4759 27.7116 67.9097 27.5821C68.3434 27.4526 68.8133 27.5643 69.1423 27.8752C69.4713 28.1861 69.6095 28.6489 69.5047 29.0893V29.1626C69.3207 29.8378 68.6242 30.2361 67.949 30.0521C67.2737 29.8681 66.8755 29.1715 67.0595 28.4963M50.4024 90.7071C50.5735 90.0282 51.2626 89.6165 51.9415 89.7876C52.6204 89.9587 53.0321 90.6478 52.861 91.3267C52.742 91.7635 52.399 92.1036 51.9612 92.219C51.5234 92.3343 51.0573 92.2073 50.7385 91.8858C50.4198 91.5644 50.2967 91.0972 50.4157 90.6604" fill="#28646E"/>
<path fill-rule="evenodd" clip-rule="evenodd" d="M96.8217 75.2106C90.6416 90.1323 76.0812 99.8618 59.9303 99.8618C37.8907 99.8361 20.0294 81.9778 20 59.9381C19.9973 43.7872 29.7243 29.2251 44.645 23.0426C59.5657 16.86 76.7416 20.2747 88.1629 31.6941C99.5843 43.1136 103.002 60.2888 96.8217 75.2106ZM96.4825 59.9381C96.4825 39.7509 80.1175 23.3859 59.9303 23.3859C39.7522 23.4079 23.4001 39.76 23.3781 59.9381C23.3781 80.1254 39.743 96.4904 59.9303 96.4904C80.1175 96.4904 96.4825 80.1254 96.4825 59.9381Z" fill="#28646E"/>
</svg>
