<svg width="120" height="120" viewBox="0 0 120 120" fill="none" xmlns="http://www.w3.org/2000/svg">
<path d="M60 120C93.138 120 120 93.138 120 60C120 26.862 93.138 0 60 0C26.862 0 0 26.862 0 60C0 93.138 26.862 120 60 120Z" fill="#EDF0F4"/>
<path fill-rule="evenodd" clip-rule="evenodd" d="M31.0033 63.8602C31.0033 66.1248 32.3221 68.2696 34.9996 70.3877L65.1852 40.2021C66.8769 38.3771 67.5297 36.339 67.1299 34.0744C66.652 31.6691 65.3289 29.5144 63.4002 28L33.1347 58.2655C32.4292 59.0122 31.8779 59.8907 31.5122 60.8507C31.1465 61.8107 30.9735 62.8335 31.0033 63.8602ZM45.763 81.1511C43.1121 79.0596 41.7667 76.8882 41.7933 74.6503C41.7636 73.6234 41.9365 72.6009 42.3022 71.6408C42.6679 70.6808 43.2193 69.8024 43.9247 69.0556L74.1901 38.7901C76.1113 40.3033 77.4293 42.4526 77.9066 44.8511C78.3064 47.1157 77.6536 49.1539 75.9619 50.9788L45.763 81.1511ZM56.553 91.9412C53.8755 89.8231 52.5567 87.6783 52.5701 85.4271C52.5404 84.4002 52.7133 83.3776 53.079 82.4176C53.4446 81.4576 53.996 80.5791 54.7014 79.8323L84.9669 49.5668C86.8881 51.08 88.206 53.2293 88.6834 55.6278C89.0832 57.8925 88.4304 59.9306 86.7387 61.7555L56.553 91.9412Z" fill="url(#paint0_linear)"/>
<defs>
<linearGradient id="paint0_linear" x1="37.9203" y1="63.0846" x2="65.1721" y2="85.351" gradientUnits="userSpaceOnUse">
<stop stop-color="#7EB5FF"/>
<stop offset="0.9997" stop-color="#1A38F8"/>
</linearGradient>
</defs>
</svg>
