<svg width="120" height="120" viewBox="0 0 120 120" fill="none" xmlns="http://www.w3.org/2000/svg">
<circle cx="60" cy="60" r="60" fill="#EDF0F4"/>
<path d="M80.2222 70.9813C82.6329 67.3652 83.9721 63.0796 83.9721 58.4815C83.9721 45.5799 73.1241 35.089 59.6868 35.089C53.7047 35.089 48.2138 37.1871 44.0174 40.6246C43.8835 40.7139 43.7495 40.8032 43.6156 40.9371C43.571 40.9817 43.5263 41.0264 43.437 41.071C43.3924 41.1157 43.3031 41.2049 43.2585 41.2496C43.0799 41.3835 42.946 41.5174 42.7674 41.696C42.5442 41.9192 42.321 42.1424 42.1424 42.3656C39.5532 45.0888 37.7675 48.6155 36.83 52.4101C36.83 52.4548 36.7854 52.4994 36.7854 52.5887C34.955 58.7493 34.7765 66.5617 38.7496 74.999C45.312 89.0613 61.4725 96.6951 79.4186 96.2041C79.4633 96.2041 79.4633 96.2041 79.5079 96.2041C81.5614 96.1594 82.3204 98.8826 80.5347 99.8201C74.3741 103.034 67.3206 104.82 59.91 104.82C35.089 104.82 15 84.731 15 59.91C15 36.7407 32.589 17.6339 55.1333 15.2679C56.6958 15.0893 58.3029 15 59.91 15C69.7759 15 78.9276 18.1696 86.3382 23.5713C88.347 25.0445 90.222 26.6516 91.9631 28.4373C96.1148 33.1247 98.6147 39.1514 98.6147 45.7584C98.6147 57.41 90.9363 67.3206 80.2222 70.9813Z" fill="url(#paint0_linear)"/>
<path d="M104.284 59.6868C104.284 59.7761 104.284 59.8654 104.284 59.9546C104.195 74.508 94.4181 86.8739 80.8022 89.731C79.1504 90.0881 77.3201 90.3113 75.9362 90.4452C59.4633 91.7845 46.9188 84.0614 41.3385 71.517C40.535 69.7313 39.9546 67.9456 39.5529 66.2492C39.1957 64.8206 38.9279 63.4367 38.7939 62.0528C38.7939 62.0082 38.7939 61.9635 38.7939 61.9189C38.4368 58.5707 38.7493 55.4458 39.4189 52.6333C39.4189 52.5887 39.4189 52.5441 39.4189 52.4994C39.4636 52.3655 39.5082 52.2316 39.5082 52.0976C39.7314 51.1601 40.1779 50.3119 40.6689 49.553C42.2314 47.2763 45.7135 47.9906 46.2938 50.6691C46.8742 53.5262 47.767 56.8297 48.8831 58.794C53.4366 66.8295 62.0079 72.2759 71.8738 72.2759C74.9987 72.2759 78.0344 71.7402 80.8468 70.7134C91.0699 67.0081 98.3466 57.1422 98.3466 45.5352C98.3466 38.9282 95.9359 32.9015 92.0074 28.2141C98.4359 35.089 102.855 44.1513 103.971 54.2405C104.195 56.0708 104.284 57.8565 104.284 59.6868Z" fill="url(#paint1_linear)"/>
<defs>
<linearGradient id="paint0_linear" x1="15" y1="104.836" x2="98.6009" y2="104.836" gradientUnits="userSpaceOnUse">
<stop stop-color="#2D2D4C"/>
<stop offset="1" stop-color="#1E1E3A"/>
</linearGradient>
<linearGradient id="paint1_linear" x1="38.6352" y1="90.6101" x2="104.284" y2="90.6101" gradientUnits="userSpaceOnUse">
<stop stop-color="#8592B9"/>
<stop offset="1" stop-color="#6D5D91"/>
</linearGradient>
</defs>
</svg>
