<svg width="120" height="120" viewBox="0 0 120 120" fill="none" xmlns="http://www.w3.org/2000/svg">
<circle cx="60" cy="60" r="60" fill="#EDF0F4"/>
<path fill-rule="evenodd" clip-rule="evenodd" d="M30.2869 57.3959L78.1255 90.9775L89.7132 82.8862C93.0222 80.5657 94.9924 76.7777 94.9924 72.7361C94.9924 68.6944 93.0222 64.9065 89.7132 62.5859L41.8746 29L30.2869 37.0956C26.976 39.415 25.0044 43.2033 25.0044 47.2458C25.0044 51.2882 26.976 55.0766 30.2869 57.3959ZM32.8381 40.719L41.8702 34.4L87.1707 66.2049C89.2998 67.6972 90.5675 70.1339 90.5675 72.7339C90.5675 75.3339 89.2998 77.7706 87.1707 79.2629L78.1386 85.5775L32.8381 53.777C30.7072 52.2859 29.438 49.8488 29.438 47.248C29.438 44.6472 30.7072 42.2101 32.8381 40.719Z" fill="#4BC0C8"/>
<path d="M41.8264 85.5468L32.8075 79.2147C30.6784 77.7224 29.4106 75.2857 29.4106 72.6857C29.4106 70.0857 30.6784 67.649 32.8075 66.1567L56.1535 49.8342L52.3026 47.1385L30.2825 62.5334C26.9716 64.8527 25 68.6411 25 72.6835C25 76.726 26.9716 80.5143 30.2825 82.8337L41.8395 90.9468L56.136 80.9432L52.2851 78.2389L41.8264 85.5468Z" fill="#02819B"/>
<path d="M89.7352 37.1438L78.1737 29.0306L63.8642 39.043L67.7151 41.7473L78.1694 34.4481L87.1927 40.7802C89.3218 42.2725 90.5895 44.7092 90.5895 47.3092C90.5895 49.9093 89.3218 52.3459 87.1927 53.8383L63.8423 70.1477L67.6932 72.852L89.7176 57.4441C93.0285 55.1248 95.0001 51.3364 95.0001 47.2939C95.0001 43.2515 93.0285 39.4631 89.7176 37.1438H89.7352Z" fill="#02819B"/>
<path d="M33.0356 60.5954L51.2285 47.8661L53.7648 51.4911L35.572 64.2203L33.0356 60.5954Z" fill="#02819B"/>
<path d="M84.8385 55.453L75.9771 61.6582L78.5108 65.2815L87.7004 58.8444C86.7377 57.7329 85.7881 56.5951 84.8385 55.453Z" fill="#02819B"/>
</svg>
