<svg width="120" height="120" viewBox="0 0 120 120" fill="none" xmlns="http://www.w3.org/2000/svg">
<circle cx="60" cy="60" r="60" fill="#EDF0F4"/>
<path fill-rule="evenodd" clip-rule="evenodd" d="M66.1622 33.5132L60.3165 39.3589L61.5169 40.5594C61.8406 40.8877 62.2824 41.0726 62.7435 41.0726C63.2045 41.0726 63.6464 40.8877 63.97 40.5594L69.8158 34.7136L68.6153 33.5132C68.2916 33.1848 67.8498 33 67.3888 33C66.9277 33 66.4859 33.1848 66.1622 33.5132ZM51.2869 33.5132L49.8776 34.7136L55.9843 40.5594C56.299 40.8847 56.7322 41.0683 57.1848 41.0683C57.6374 41.0683 58.0706 40.8847 58.3853 40.5594L59.5857 39.3589L53.6878 33.5132C53.3731 33.1879 52.9399 33.0042 52.4873 33.0042C52.0348 33.0042 51.6015 33.1879 51.2869 33.5132ZM60.5774 52.3031L71.6948 41.1857H71.747C73.0065 39.9455 75.0283 39.9455 76.2878 41.1857L78.5322 43.4301L67.4149 54.5996C66.1375 55.8461 64.0991 55.8461 62.8218 54.5996L60.5774 52.3031ZM43.5622 41.1857L41.3178 43.4301L52.4351 54.5474C53.0355 55.1726 53.8649 55.5261 54.7317 55.5261C55.5985 55.5261 56.4279 55.1726 57.0282 54.5474L59.2726 52.3031L48.1552 41.1857C46.8779 39.9392 44.8395 39.9392 43.5622 41.1857ZM57.5502 42.1252L58.6984 40.9247H58.7506C59.0653 40.5994 59.4985 40.4158 59.9511 40.4158C60.4037 40.4158 60.8369 40.5994 61.1516 40.9247L62.352 42.1252L59.9511 44.5261L57.5502 42.1252ZM79.5761 52.0421L61.0472 70.5188L64.753 74.2768C65.7398 75.3308 67.1192 75.929 68.5631 75.929C70.007 75.929 71.3864 75.3308 72.3733 74.2768L90.85 55.8001L87.1442 52.0421C86.1574 50.988 84.778 50.3899 83.3341 50.3899C81.8901 50.3899 80.5107 50.988 79.5239 52.0421H79.5761ZM29 55.7479L32.6014 52.0421H32.758C33.7448 50.988 35.1242 50.3899 36.5681 50.3899C38.0121 50.3899 39.3915 50.988 40.3783 52.0421L58.855 70.5188L55.097 74.2768C54.1102 75.3308 52.7308 75.929 51.2869 75.929C49.843 75.929 48.4636 75.3308 47.4767 74.2768L29 55.7479ZM57.498 55.2781L55.2536 57.5225L59.7945 62.0633L64.492 57.5225L62.2476 55.2781C61.6401 54.6661 60.8134 54.322 59.9511 54.322C59.0888 54.322 58.2621 54.6661 57.6546 55.2781H57.498ZM52.383 79.1308L56.1409 75.425C57.1278 74.371 58.5072 73.7728 59.9511 73.7728C61.395 73.7728 62.7744 74.371 63.7613 75.425L67.467 79.1308L59.9511 86.699L52.383 79.1308Z" fill="url(#paint0_linear)"/>
<defs>
<linearGradient id="paint0_linear" x1="51.9524" y1="86.5567" x2="103.288" y2="86.5567" gradientUnits="userSpaceOnUse">
<stop stop-color="#7CB7FF"/>
<stop offset="1" stop-color="#BA6DF6"/>
</linearGradient>
</defs>
</svg>
