<svg width="120" height="120" viewBox="0 0 120 120" fill="none" xmlns="http://www.w3.org/2000/svg">
<circle cx="60" cy="60" r="60" fill="#F55749"/>
<path fill-rule="evenodd" clip-rule="evenodd" d="M59.2936 22.1818C59.7302 21.9394 60.2623 21.9394 60.6989 22.1818L91.7711 39.4986C92.2033 39.7355 92.4722 40.1861 92.4738 40.6761C92.4738 41.1636 92.2093 41.6136 91.7749 41.8536L64.7449 56.9805C63.7916 55.9048 62.493 55.1894 61.0691 54.9556V46.7321C63.9969 46.2484 66.2296 43.7885 66.2296 40.8148C66.2296 37.4962 63.4491 34.8038 60.0151 34.8038C56.5811 34.8038 53.8007 37.4962 53.8007 40.8148C53.8007 43.7697 56.0107 46.2221 58.9158 46.7246V54.9668C57.5114 55.2067 56.2317 55.9158 55.2891 56.9767L28.2629 41.9136C27.8291 41.6787 27.5589 41.2277 27.5582 40.7372C27.5574 40.2468 27.8261 39.7949 28.2591 39.5586L59.2973 22.1931L59.2936 22.1818ZM91.8618 44.006C92.2973 43.7609 92.8302 43.7595 93.2671 44.0022C93.6996 44.2393 93.9696 44.6894 93.9736 45.1797L94 78.8009C94 79.2884 93.7356 79.7346 93.2973 79.9783L63.2073 96.8152C62.2742 97.3402 61.1031 96.6839 61.1031 95.6377L61.0767 66.7901C62.5349 66.5501 63.8571 65.8114 64.8053 64.7089L72.3231 68.89C72.1159 69.6574 72.0683 70.4587 72.1833 71.2449C72.6593 74.5335 75.8062 76.821 79.2024 76.3597C82.6024 75.8947 84.9673 72.8536 84.4913 69.565C84.0153 66.2764 80.8647 63.9889 77.4684 64.4539C75.7622 64.6805 74.2272 65.5998 73.2298 66.9926L65.8631 62.894C66.392 61.5028 66.3542 59.9691 65.7687 58.6004L91.8656 43.9985L91.8618 44.006ZM27.4356 43.8147C26.7027 43.8147 26.0302 44.381 26.0302 45.1759L26 78.7971C26.0016 79.2871 26.2705 79.7378 26.7027 79.9746L56.7964 96.8114C57.7333 97.3364 58.9044 96.6839 58.9044 95.6377L58.9271 66.7826C57.484 66.5351 56.1769 65.8001 55.2362 64.7052L47.7222 68.8863C47.93 69.6549 47.9775 70.4574 47.862 71.2449C47.3784 74.5298 44.2429 76.821 40.8429 76.356C37.4429 75.891 35.0742 72.8499 35.554 69.565C36.0338 66.2801 39.1731 63.9889 42.5731 64.4539C44.2792 64.6809 45.8141 65.6002 46.8118 66.9926L54.1747 62.894C53.6533 61.5065 53.6836 59.9841 54.2616 58.6192L28.1382 44.0022C27.9267 43.8785 27.6811 43.8147 27.4356 43.8147Z" fill="white"/>
</svg>
