<svg width="120" height="120" viewBox="0 0 120 120" fill="none" xmlns="http://www.w3.org/2000/svg">
<circle cx="60" cy="60" r="60" fill="#172852"/>
<path d="M48.33 26.814C55.356 24.186 63.264 24.18 70.422 26.34C79.74 29.232 87.606 36.264 91.716 45.09C92.85 47.604 93.936 50.226 94.044 53.022C88.806 49.986 83.064 48.018 77.31 46.224C68.106 42.906 58.47 40.602 49.758 36.042C47.73 34.83 45.144 33.588 44.592 31.062C44.37 28.878 46.68 27.66 48.33 26.814Z" fill="#FFD83D"/>
<path d="M27.1202 48.054C29.1542 42.534 32.4902 37.41 37.0202 33.612C38.1722 43.086 42.2042 52.242 48.8642 59.13C56.8502 67.428 68.2262 72.522 79.8002 72.33C84.3962 72.474 88.8902 71.412 93.3722 70.554C88.9622 86.49 71.4962 97.068 55.3142 94.524C45.5462 93.276 36.5282 87.492 31.0862 79.326C24.9482 70.302 23.4002 58.32 27.1202 48.054Z" fill="#FFD83D"/>
<path d="M77.3101 46.224C83.0641 48.018 88.8061 49.986 94.0441 53.022L94.3981 53.208C94.8841 56.862 95.2381 60.588 94.5901 64.248C91.9561 63.132 89.8201 61.17 87.5881 59.436C83.2921 55.86 78.9061 51.768 77.3101 46.224Z" fill="#FF6F03"/>
</svg>
