<svg width="120" height="120" viewBox="0 0 120 120" fill="none" xmlns="http://www.w3.org/2000/svg">
<path d="M60 120C93.138 120 120 93.138 120 60C120 26.862 93.138 0 60 0C26.862 0 0 26.862 0 60C0 93.138 26.862 120 60 120Z" fill="#EDF0F4"/>
<path fill-rule="evenodd" clip-rule="evenodd" d="M90.4086 85.9879C96.3886 78.9975 100 69.9206 100 60C100 37.9086 82.0914 20 60 20C37.9086 20 20 37.9086 20 60C20 82.0914 37.9086 100 60 100C69.7708 100 78.7235 96.4968 85.6702 90.6778L60.9524 65.96L42.4284 84.4841C41.5204 85.3917 40.155 85.6635 38.9687 85.1721L37.1978 84.4387C36.0116 83.9473 35.2381 82.7895 35.2381 81.5057V40.9862C35.2381 39.7022 36.0116 38.5446 37.1978 38.0532L38.9687 37.3197C40.155 36.8283 41.5204 37.0999 42.4284 38.0078L60.9524 56.5317L78.6829 38.8015C79.5908 37.8936 80.9562 37.622 82.1425 38.1133L83.9133 38.8469C85.0997 39.3382 85.873 40.4958 85.873 41.7798V74.5794L79.2063 67.9127V47.706L65.6663 61.246L90.4086 85.9879ZM41.9048 46.9123L56.2384 61.246L41.9048 75.5794V46.9123Z" fill="#D55139"/>
</svg>
