<svg width="120" height="120" viewBox="0 0 120 120" fill="none" xmlns="http://www.w3.org/2000/svg">
<circle cx="60" cy="60" r="60" fill="#1C68F3"/>
<path fill-rule="evenodd" clip-rule="evenodd" d="M96 31.2C96 27.2235 92.7765 24 88.8 24H31.2C27.2235 24 24 27.2235 24 31.2V40H96V31.2ZM96 46V66H36V66.0002L33.4185 66.0003C36.1508 78.1354 46.9941 87.2 59.9545 87.2C70.6693 87.2 79.9371 81.0045 84.3709 72.0004L96 72.0002V88.8C96 92.7765 92.7765 96 88.8 96H31.2C27.2235 96 24 92.7765 24 88.8V46H96ZM77.4653 72.0003C73.6469 77.5829 67.2286 81.2463 59.9545 81.2463C52.6805 81.2463 46.2621 77.5829 42.4437 72.0003H77.4653ZM33.5134 60.4001C34.2898 54.9724 38.9576 50.8 44.6 50.8C50.2424 50.8 54.9102 54.9724 55.6866 60.4001L49.5492 60.4001C48.8744 58.311 46.9137 56.8 44.6 56.8C42.2863 56.8 40.3256 58.311 39.6508 60.4001L33.5134 60.4001ZM75.4 50.8C69.7576 50.8 65.0898 54.9724 64.3134 60.4001L70.4508 60.4001C71.1256 58.311 73.0863 56.8 75.4 56.8C77.7137 56.8 79.6744 58.311 80.3492 60.4001L86.4866 60.4001C85.7102 54.9724 81.0424 50.8 75.4 50.8Z" fill="white"/>
</svg>
