<svg width="120" height="120" viewBox="0 0 120 120" fill="none" xmlns="http://www.w3.org/2000/svg">
<circle cx="60" cy="60" r="60" fill="#103F68"/>
<path fill-rule="evenodd" clip-rule="evenodd" d="M96 39.4534L60.4253 19H60.1786L25 39.4534V80.4869L60.1786 100.929L60.4664 101L96 80.4869V39.4534ZM28.7368 41.5983L60.3094 23.2451L64.1621 25.3789L92.2632 41.6058V78.3308L64.1621 94.4645L60.3057 96.6915L28.7368 78.342V41.5983ZM33.6284 62.8239L42.9742 55.8481L51.2364 61.1154V70.5904L57.4881 76.6037L57.4844 79.4238L51.4606 85.0566H46.3747L33.6321 62.8239H33.6284ZM63.1494 76.5962L63.1606 79.4313L69.1769 84.9932H74.1993L86.8784 62.8276L77.5512 55.781L69.3787 61.1154V70.5904L63.1494 76.5962ZM54.3043 61.1154L51.2625 53.166H69.3414L66.3594 61.1154L67.2413 70.001L60.2646 70.0159L53.3701 70.0271L54.3043 61.1154ZM43.0826 50.9801L60.2646 50.9875L77.5325 50.9987L74.1694 36.7302H46.2776L43.0826 50.9801Z" fill="white"/>
</svg>
