<svg width="120" height="120" viewBox="0 0 120 120" fill="none" xmlns="http://www.w3.org/2000/svg">
<circle cx="60" cy="60" r="60" fill="#01A64F"/>
<path fill-rule="evenodd" clip-rule="evenodd" d="M85 48.62C85 41.465 82.6593 35.345 78.0759 30.47C73.387 25.385 67.5824 23 60.5528 23C53.4214 23 47.6092 25.385 42.9278 30.26C38.2427 35.0338 36 41.1537 36 48.5187C36 55.7787 38.3445 61.9025 43.0296 66.7775C46.6971 70.6138 51.0769 72.8975 56.0712 73.7262V78.0838H45.7812V82.7525H56.1692V85.2425H45.7774V89.6H56.0674V98H64.9326V89.5963H75.3206V85.2425H64.8271V82.7525H75.3206V78.0838H64.9326V73.8312C70.0248 72.9987 74.4047 70.7188 78.0722 66.8825C82.6593 62.0075 85 55.8838 85 48.62ZM71.4534 48.5187C71.4534 52.46 70.4319 55.6775 68.4983 58.1675C66.5609 60.6575 63.8132 61.9025 60.549 61.9025C57.3942 61.9025 54.7482 60.6575 52.709 58.1675C50.6698 55.6775 49.6484 52.46 49.6484 48.4175C49.6484 44.4725 50.6661 41.3638 52.709 38.8737C54.7482 36.3837 57.3942 35.1388 60.5528 35.1388C63.6096 35.1388 66.2594 36.3837 68.2948 38.975C70.4357 41.4688 71.4534 44.6825 71.4534 48.5187Z" fill="white"/>
</svg>
