<svg width="120" height="120" viewBox="0 0 120 120" fill="none" xmlns="http://www.w3.org/2000/svg">
<circle cx="60" cy="60" r="60" fill="#1E252C"/>
<path fill-rule="evenodd" clip-rule="evenodd" d="M53.8213 28.1358C52.8808 28.1717 51.996 27.6905 51.5151 26.8815C51.0341 26.0724 51.0341 25.0652 51.5151 24.2562C51.996 23.4472 52.8808 22.9659 53.8213 23.0019C55.2399 23.0019 56.39 24.152 56.39 25.5707C56.39 26.9894 55.2399 28.1395 53.8213 28.1395V28.1358ZM53.8212 43.5486C52.324 43.5939 50.9206 42.8209 50.1586 41.5312C49.3966 40.2415 49.3966 38.6393 50.1586 37.3496C50.9206 36.0599 52.324 35.2869 53.8212 35.3322C56.0418 35.3993 57.8071 37.2188 57.8071 39.4404C57.8071 41.662 56.0418 43.4815 53.8212 43.5486ZM48.1737 53.3064C48.1737 56.4276 50.7039 58.9578 53.825 58.9578C56.9461 58.9578 59.4762 56.4276 59.4762 53.3064C59.4762 50.1852 56.9461 47.655 53.825 47.655C50.7039 47.655 48.1737 50.1852 48.1737 53.3064ZM62.0412 53.3064C62.0412 56.4276 64.5714 58.9578 67.6925 58.9578C70.8136 58.9578 73.3438 56.4276 73.3438 53.3064C73.3438 50.1852 70.8136 47.655 67.6925 47.655C64.5714 47.655 62.0412 50.1852 62.0412 53.3064ZM53.8213 72.8294C50.7002 72.8294 48.17 70.2992 48.17 67.178C48.17 64.0568 50.7002 61.5266 53.8213 61.5266C56.9423 61.5266 59.4725 64.0568 59.4725 67.178C59.4725 70.2992 56.9423 72.8294 53.8213 72.8294ZM62.0412 67.178C62.0412 70.2992 64.5714 72.8294 67.6925 72.8294C70.8136 72.8294 73.3438 70.2992 73.3438 67.178C73.3438 64.0568 70.8136 61.5266 67.6925 61.5266C64.5714 61.5266 62.0412 64.0568 62.0412 67.178ZM81.56 57.4165C80.0916 57.4165 78.7348 56.6331 78.0006 55.3614C77.2665 54.0898 77.2665 52.523 78.0006 51.2513C78.7348 49.9797 80.0916 49.1963 81.56 49.1963C83.8299 49.1963 85.67 51.0364 85.67 53.3064C85.67 55.5763 83.8299 57.4165 81.56 57.4165ZM77.45 67.178C77.45 69.4479 79.2901 71.2881 81.56 71.2881C83.8299 71.2881 85.67 69.4479 85.67 67.178C85.67 64.908 83.8299 63.0679 81.56 63.0679C79.2901 63.0679 77.45 64.908 77.45 67.178ZM39.44 57.4165C37.1701 57.4165 35.33 55.5763 35.33 53.3064C35.33 51.0364 37.1701 49.1963 39.44 49.1963C41.7099 49.1963 43.55 51.0364 43.55 53.3064C43.55 55.5763 41.7099 57.4165 39.44 57.4165ZM35.33 67.178C35.33 69.4479 37.1701 71.2881 39.44 71.2881C41.7099 71.2881 43.55 69.4479 43.55 67.178C43.55 64.908 41.7099 63.0679 39.44 63.0679C37.1701 63.0679 35.33 64.908 35.33 67.178ZM53.8212 85.1559C52.324 85.2012 50.9206 84.4282 50.1586 83.1385C49.3966 81.8488 49.3966 80.2466 50.1586 78.9569C50.9206 77.6672 52.324 76.8942 53.8212 76.9395C56.0418 77.0066 57.8071 78.8261 57.8071 81.0477C57.8071 83.2693 56.0418 85.0888 53.8212 85.1559ZM64.0299 83.1385C64.7919 84.4282 66.1952 85.2012 67.6925 85.1559C69.913 85.0888 71.6784 83.2693 71.6784 81.0477C71.6784 78.8261 69.913 77.0066 67.6925 76.9395C66.1952 76.8942 64.7919 77.6672 64.0299 78.9569C63.2679 80.2466 63.2679 81.8488 64.0299 83.1385ZM64.0299 41.5312C64.7919 42.8209 66.1952 43.5939 67.6925 43.5486C69.913 43.4815 71.6784 41.662 71.6784 39.4404C71.6784 37.2188 69.913 35.3993 67.6925 35.3322C66.1952 35.2869 64.7919 36.0599 64.0299 37.3496C63.2679 38.6393 63.2679 40.2415 64.0299 41.5312ZM65.3863 26.8815C65.8672 27.6905 66.752 28.1717 67.6925 28.1358V28.1395C69.1112 28.1395 70.2612 26.9894 70.2612 25.5707C70.2612 24.152 69.1112 23.0019 67.6925 23.0019C66.752 22.9659 65.8672 23.4472 65.3863 24.2562C64.9054 25.0652 64.9054 26.0724 65.3863 26.8815ZM95.4313 55.879C94.0126 55.879 92.8625 54.7289 92.8625 53.3101C92.8625 51.8914 94.0126 50.7413 95.4313 50.7413C96.8499 50.7413 98 51.8914 98 53.3101C98 54.7289 96.8499 55.879 95.4313 55.879ZM92.8625 67.1817C92.8625 68.6004 94.0126 69.7505 95.4313 69.7505C96.8499 69.7505 98 68.6004 98 67.1817C98 65.763 96.8499 64.6129 95.4313 64.6129C94.0126 64.6129 92.8625 65.763 92.8625 67.1817ZM25.5687 55.879C24.1501 55.879 23 54.7289 23 53.3101C23 51.8914 24.1501 50.7413 25.5687 50.7413C26.9874 50.7413 28.1375 51.8914 28.1375 53.3101C28.1375 54.7289 26.9874 55.879 25.5687 55.879ZM23 67.1817C23 68.6004 24.1501 69.7505 25.5687 69.7505C26.9874 69.7505 28.1375 68.6004 28.1375 67.1817C28.1375 65.763 26.9874 64.6129 25.5687 64.6129C24.1501 64.6129 23 65.763 23 67.1817ZM53.8213 98C52.4026 98 51.2525 96.8499 51.2525 95.4312C51.2525 94.0125 52.4026 92.8624 53.8213 92.8624C55.2399 92.8624 56.39 94.0125 56.39 95.4312C56.39 96.8499 55.2399 98 53.8213 98ZM65.1237 95.4312C65.1237 96.8499 66.2738 98 67.6925 98C69.1112 98 70.2612 96.8499 70.2612 95.4312C70.2612 94.0125 69.1112 92.8624 67.6925 92.8624C66.2738 92.8624 65.1237 94.0125 65.1237 95.4312Z" fill="white"/>
</svg>
