<svg width="120" height="120" viewBox="0 0 120 120" fill="none" xmlns="http://www.w3.org/2000/svg">
<circle cx="60" cy="60" r="60" fill="#7967EF"/>
<path fill-rule="evenodd" clip-rule="evenodd" d="M60 47.1998C57.2564 43.4369 52.9385 41 48.0517 41C39.6937 41 33 48.1284 33 56.8276V74.9828L33.0012 75.0696C33.0472 76.7434 34.4185 78.0862 36.1034 78.0862C37.8174 78.0862 39.2069 76.6967 39.2069 74.9828V56.8276L39.2081 56.6673C39.2871 51.3872 43.2604 47.2069 48.0517 47.2069C52.8914 47.2069 56.8966 51.4721 56.8966 56.8276V74.9828L56.8977 75.0696C56.9437 76.7434 58.3151 78.0862 60 78.0862C61.714 78.0862 63.1034 76.6967 63.1034 74.9828V56.8276L63.1034 56.8275L63.1046 56.6673C63.1836 51.3872 67.157 47.2069 71.9483 47.2069C76.788 47.2069 80.7931 51.4721 80.7931 56.8276V74.9828L80.7943 75.0696C80.8403 76.7434 82.2116 78.0862 83.8966 78.0862C85.6105 78.0862 87 76.6967 87 74.9828V56.8276L86.998 56.5671C86.866 47.9865 80.2227 41 71.9483 41C67.0615 41 62.7436 43.4369 60 47.1998Z" fill="white"/>
</svg>
