<svg width="120" height="120" viewBox="0 0 120 120" fill="none" xmlns="http://www.w3.org/2000/svg">
<circle cx="60" cy="60" r="60" fill="#7833F6"/>
<path fill-rule="evenodd" clip-rule="evenodd" d="M38.4997 60.2569C39.4622 61.2166 40.766 61.7557 42.1253 61.7557C43.4845 61.7557 44.7883 61.2166 45.7508 60.2569L60.2569 45.7508C61.2166 44.7883 61.7557 43.4845 61.7557 42.1253C61.7557 40.766 61.2166 39.4622 60.2569 38.4997C59.2943 37.5393 57.9901 37 56.6303 37C55.2706 37 53.9664 37.5393 53.0038 38.4997L38.4997 53.0038C37.5393 53.9664 37 55.2706 37 56.6303C37 57.9901 37.5393 59.2943 38.4997 60.2569ZM58.7469 73.2511L73.2511 58.7469C74.2137 57.7865 75.5179 57.2472 76.8777 57.2472C78.2373 57.2472 79.5416 57.7865 80.5041 58.7469C81.4645 59.7095 82.0038 61.0137 82.0038 62.3735C82.0038 63.7332 81.4645 65.0374 80.5041 66L66 80.5041C65.0374 81.4645 63.7332 82.0038 62.3735 82.0038C61.0137 82.0038 59.7095 81.4645 58.7469 80.5041C57.7865 79.5416 57.2472 78.2373 57.2472 76.8777C57.2472 75.5179 57.7865 74.2137 58.7469 73.2511ZM57.6857 66.4385C56.3261 66.4385 55.0218 65.8992 54.0593 64.9388C53.0989 63.9762 52.5596 62.672 52.5596 61.3123C52.5596 59.9525 53.0989 58.6483 54.0593 57.6857L57.6857 54.0593C58.6483 53.0989 59.9525 52.5596 61.3123 52.5596C62.672 52.5596 63.9762 53.0989 64.9388 54.0593C65.8992 55.0218 66.4385 56.3261 66.4385 57.6857C66.4385 59.0455 65.8992 60.3497 64.9388 61.3123L61.3123 64.9388C60.3497 65.8992 59.0455 66.4385 57.6857 66.4385Z" fill="white"/>
</svg>
