<svg width="120" height="120" viewBox="0 0 120 120" fill="none" xmlns="http://www.w3.org/2000/svg">
<path d="M60 120C93.138 120 120 93.138 120 60C120 26.862 93.138 0 60 0C26.862 0 0 26.862 0 60C0 93.138 26.862 120 60 120Z" fill="url(#paint0_linear)"/>
<path fill-rule="evenodd" clip-rule="evenodd" d="M58.5805 77.0066H59.9109H61.2413C62.1475 77.0066 62.7269 76.8071 62.9043 76.674C63.9353 67.7384 66.2701 49.0754 67.361 45.9091C68.4519 42.7428 71.6958 41.2417 73.1814 40.8869C73.2257 38.9246 74.1925 35 77.7047 35C81.2169 35 81.6071 39.2794 81.3632 41.4191C81.9175 41.6075 83.4186 42.3437 84.9885 43.7805C86.5583 45.2173 86.8621 49.0355 86.8178 50.765V83.5255H79.9663V42.3836C79.5229 42.2173 78.3299 41.8581 77.106 41.7517C75.8821 41.6452 74.8887 41.8625 74.5451 41.9845C73.8466 48.1375 72.2235 62.0798 71.3189 68.6253C70.4142 75.1707 65.9973 77.6497 63.902 78.0709C64.2013 78.4479 64.514 79.7871 63.3698 82.1286C62.2321 84.457 60.5905 84.4568 59.922 84.4567H59.9109H59.8996C59.2233 84.4568 57.5897 84.457 56.4519 82.1286C55.3078 79.7871 55.6205 78.4479 55.9198 78.0709C53.8244 77.6497 49.4076 75.1707 48.5029 68.6253C47.5983 62.0798 45.9752 48.1375 45.2768 41.9845C44.9331 41.8625 43.9398 41.6452 42.7158 41.7517C41.4919 41.8581 40.2989 42.2173 39.8555 42.3836V83.5255H33.004V50.765C32.9597 49.0355 33.2634 45.2173 34.8333 43.7805C36.4031 42.3437 37.9042 41.6075 38.4586 41.4191C38.2147 39.2794 38.6049 35 42.1171 35C45.6293 35 46.596 38.9246 46.6403 40.8869C48.126 41.2417 51.3699 42.7428 52.4607 45.9091C53.5517 49.0754 55.8865 67.7384 56.9175 76.674C57.0949 76.8071 57.6743 77.0066 58.5805 77.0066Z" fill="#FFFFFD"/>
<defs>
<linearGradient id="paint0_linear" x1="-30.5441" y1="40.6439" x2="42.2013" y2="152.269" gradientUnits="userSpaceOnUse">
<stop stop-color="#E1804D"/>
<stop offset="1" stop-color="#9069DD"/>
</linearGradient>
</defs>
</svg>
