<svg width="120" height="120" viewBox="0 0 120 120" fill="none" xmlns="http://www.w3.org/2000/svg">
<circle cx="60" cy="60" r="60" fill="black"/>
<path fill-rule="evenodd" clip-rule="evenodd" d="M81.6077 25.4905C81.6077 27.9678 79.6233 29.9842 77.1812 29.9842C74.7391 29.9842 72.7547 27.9806 72.7547 25.5033C72.7547 23.026 74.7391 21.0128 77.1812 21C79.6233 21 81.6077 23.0132 81.6077 25.4905ZM82.235 37.8549C82.2508 39.9406 80.5728 41.6443 78.4871 41.6601C76.4131 41.6601 74.7391 39.9609 74.7391 37.8549C74.7391 35.7489 76.4163 34.0493 78.4871 34.0493C80.5579 34.0493 82.235 35.7617 82.235 37.8549ZM88.7772 43.1484C90.8384 43.1484 92.5155 41.4489 92.5155 39.3525C92.5155 37.2561 90.8384 35.5565 88.7772 35.5565C86.7159 35.5565 85.0388 37.2561 85.0388 39.3525C85.0388 41.4489 86.7191 43.1484 88.7772 43.1484ZM90.7392 49.8954C90.7392 51.6845 89.3085 53.1376 87.5417 53.1376C85.775 53.1376 84.3443 51.6845 84.3443 49.8954C84.3443 48.1062 85.775 46.6531 87.5417 46.6531C89.3085 46.6531 90.7392 48.1062 90.7392 49.8954ZM95.7802 56.3767C97.5597 56.3767 99 54.914 99 53.112C99 51.3101 97.5597 49.8474 95.7802 49.8474C94.9202 49.8533 94.0979 50.2006 93.4941 50.8128C92.8902 51.4251 92.5544 52.2521 92.5603 53.112C92.5603 54.914 94.0038 56.3767 95.7802 56.3767ZM79.5131 50.8078C78.8985 51.4297 78.062 51.7819 77.1876 51.787C75.3761 51.787 73.9102 50.2891 73.9102 48.4647C73.9102 46.6275 75.3729 45.1424 77.1876 45.1424C79.0024 45.1424 80.4651 46.6307 80.4651 48.4647V48.4711C80.4702 49.3454 80.1278 50.186 79.5131 50.8078ZM74.2174 59.7341C75.7377 59.7341 76.9636 58.4859 76.9636 56.9528C76.976 55.4292 75.751 54.1839 74.2274 54.1714H74.2174C72.6971 54.1714 71.4713 55.4197 71.4713 56.9528C71.4713 58.4859 72.6971 59.7341 74.2174 59.7341ZM86.4573 60.3226C85.9465 60.8405 85.2509 61.1342 84.5235 61.1392H84.4973C83.7725 61.1299 83.0811 60.833 82.5752 60.3138C82.0693 59.7947 81.7904 59.0958 81.7998 58.371C81.7998 56.8411 83.016 55.6024 84.5235 55.6024C86.031 55.6024 87.2473 56.8411 87.2473 58.371V58.3777C87.2523 59.1051 86.9681 59.8047 86.4573 60.3226ZM92.7395 64.3655C94.2598 64.3655 95.4857 63.1172 95.4857 61.5745C95.4857 60.0318 94.2598 58.7836 92.7395 58.7836C91.2192 58.7836 89.9934 60.0318 89.9934 61.5745C89.9774 63.0999 91.201 64.3495 92.7264 64.3655H92.7395ZM91.0016 68.043C91.0016 69.3361 89.9646 70.3955 88.6811 70.3955C87.3977 70.3955 86.3607 69.3361 86.3607 68.043C86.3607 66.7499 87.3977 65.6905 88.6811 65.6905C89.9646 65.6905 91.0016 66.7499 91.0016 68.043ZM80.4267 67.2204C81.7325 67.2204 82.8016 66.1386 82.8016 64.8104C82.8016 63.4821 81.7421 62.4003 80.4267 62.4003C79.1112 62.4003 78.0518 63.4821 78.0518 64.8104C78.0518 66.1386 79.1208 67.2204 80.4267 67.2204ZM72.484 63.362C72.4831 64.6657 71.4369 65.7277 70.1334 65.7481H70.1302C68.8268 65.7259 67.782 64.6625 67.7829 63.3589C67.7838 62.0553 68.83 60.9932 70.1334 60.9728H70.1366C71.4401 60.995 72.4848 62.0584 72.484 63.362ZM75.8562 71.4133C76.9924 71.4133 77.9046 70.4787 77.9046 69.3425C77.9152 68.2095 77.0055 67.2824 75.8725 67.2717H75.8562C74.7199 67.2717 73.8078 68.2062 73.8078 69.3425C73.7953 70.4737 74.7022 71.4008 75.8334 71.4133H75.8562ZM86.1782 72.5495C86.1782 73.7081 85.2436 74.6427 84.1074 74.6427C82.9514 74.6427 82.0142 73.7056 82.0142 72.5495C82.0142 71.3935 82.9514 70.4563 84.1074 70.4563C85.2564 70.4563 86.1782 71.3909 86.1782 72.5495ZM79.4601 77.0656C80.3595 77.0656 81.0924 76.3231 81.0924 75.4109C81.0977 74.5035 80.3674 73.7632 79.4601 73.7562C78.5607 73.7562 77.8278 74.4987 77.8278 75.4109C77.826 76.3168 78.5542 77.0551 79.4601 77.0656ZM76.1032 77.9236C75.8265 78.2038 75.4498 78.3626 75.056 78.3651L75.0269 78.3648C74.214 78.3506 73.5664 77.6801 73.5805 76.8672V76.8633C73.578 76.4695 73.7321 76.0909 74.0088 75.8107C74.2855 75.5305 74.6622 75.3717 75.056 75.3693C75.8658 75.3693 76.5315 76.035 76.5315 76.8672V76.871C76.534 77.2648 76.3799 77.6434 76.1032 77.9236ZM71.1992 74.057C72.169 74.057 72.9564 73.2569 72.9564 72.2775C72.9564 71.2981 72.169 70.4979 71.1992 70.4979C70.2294 70.4979 69.4421 71.2981 69.4421 72.2775C69.4401 73.2524 70.2244 74.0466 71.1992 74.057ZM67.5889 67.9054C67.5889 69.0544 66.6671 69.9762 65.5405 69.9762C64.4049 69.9656 63.4903 69.0411 63.4921 67.9054C63.4921 66.7564 64.4139 65.8346 65.5405 65.8346C66.6767 65.8346 67.5889 66.7564 67.5889 67.9054ZM82.3215 95.9206C84.754 95.9206 86.7255 93.917 86.7255 91.4493C86.7255 88.9816 84.754 86.978 82.3215 86.978C79.889 86.978 77.9174 88.9816 77.9174 91.4493C77.9174 93.917 79.889 95.9206 82.3215 95.9206ZM74.8064 86.5363C74.8064 88.5943 73.1612 90.2618 71.1352 90.2618C69.106 90.2618 67.4641 88.5943 67.4641 86.5363C67.4641 84.4783 69.1092 82.8108 71.1352 82.8108C73.1612 82.8108 74.8064 84.4783 74.8064 86.5363ZM64.7435 98.4523C66.792 98.4523 68.4467 96.7752 68.4467 94.6915C68.4467 92.6207 66.792 90.9308 64.7435 90.9308C62.6951 90.9308 61.0404 92.6079 61.0404 94.6915C61.0244 96.7525 62.6822 98.4363 64.7432 98.4523H64.7435ZM65.0993 82.3986C64.4972 83.0091 63.6773 83.3554 62.82 83.3613C61.0532 83.3613 59.6129 81.8986 59.6097 80.1062C59.6038 79.2489 59.9386 78.4243 60.5407 77.8138C61.1427 77.2034 61.9626 76.8571 62.82 76.8512C63.6773 76.8571 64.4972 77.2034 65.0993 77.8138C65.7013 78.4243 66.0362 79.2489 66.0302 80.1062C66.0362 80.9636 65.7013 81.7882 65.0993 82.3986ZM56.4443 91.6637C58.211 91.6637 59.6417 90.2106 59.6417 88.4215C59.6417 86.6323 58.211 85.1792 56.4443 85.1792C54.6775 85.1792 53.2468 86.6323 53.2468 88.4215C53.2293 90.1943 54.652 91.6458 56.4248 91.6637H56.4443ZM52.7604 94.0642C52.7604 95.8438 51.3393 97.2969 49.5725 97.2969C47.8154 97.2969 46.3847 95.8438 46.3847 94.0642C46.3847 92.2847 47.8058 90.8316 49.5725 90.8316C51.3297 90.8316 52.7604 92.2751 52.7604 94.0642ZM43.853 89.9642C45.3652 89.9503 46.5822 88.7175 46.5767 87.2052C46.5767 85.6849 45.3605 84.4463 43.853 84.4463C42.3456 84.4692 41.1357 85.6977 41.1357 87.2052C41.1357 88.7128 42.3456 89.9412 43.853 89.9642ZM53.4613 81.5465C53.4702 83.0602 52.2512 84.2949 50.7375 84.3055H50.7279C49.2205 84.28 48.0126 83.0494 48.0152 81.5418C48.0179 80.0342 49.2301 78.8077 50.7375 78.7876C52.245 78.7876 53.4613 80.0166 53.4613 81.5465ZM57.1612 76.0062C57.8886 76.0012 58.5842 75.7075 59.0951 75.1896C59.6059 74.6717 59.89 73.9721 59.885 73.2447V73.238C59.885 71.7081 58.6687 70.4694 57.1612 70.4694C56.4338 70.4744 55.7382 70.7682 55.2274 71.286C54.7166 71.8039 54.4325 72.5035 54.4375 73.2309V73.2376C54.4375 74.7676 55.6537 76.0062 57.1612 76.0062ZM49.7005 74.7515C49.7005 76.0798 48.6411 77.1488 47.3353 77.1488C46.0294 77.1488 44.97 76.0798 44.97 74.7515C44.97 73.4233 46.0294 72.3543 47.3353 72.3543C48.6411 72.3543 49.7005 73.4233 49.7005 74.7515ZM40.4859 82.7852C41.1107 82.7818 41.7085 82.5303 42.1479 82.0862C42.5872 81.642 42.8322 81.0415 42.8288 80.4167V80.4103C42.8412 79.1111 41.7982 78.0479 40.499 78.0354H40.4859C39.8611 78.0388 39.2633 78.2902 38.8239 78.7344C38.3846 79.1786 38.1396 79.7791 38.143 80.4039V80.4103C38.1388 81.0359 38.3832 81.6376 38.8226 82.083C39.262 82.5283 39.8603 82.7809 40.4859 82.7852ZM40.9372 74.1306C40.9407 75.2547 40.0352 76.1702 38.9112 76.179C37.7974 76.179 36.8852 75.2669 36.8852 74.1306C36.8852 73.004 37.7974 72.0822 38.9112 72.0822C40.025 72.0822 40.9372 72.9944 40.9372 74.1306ZM38.8536 70.3827C39.3179 70.3785 39.7615 70.1899 40.0869 69.8586C40.4122 69.5273 40.5926 69.0803 40.5883 68.6159C40.5883 67.6461 39.8106 66.8492 38.8536 66.8492C37.8966 66.8492 37.1188 67.6365 37.1188 68.6159C37.1188 69.5953 37.8966 70.3827 38.8536 70.3827ZM41.2829 64.0646C41.2829 64.8872 40.6299 65.5625 39.8074 65.5625C38.9848 65.5625 38.3319 64.8872 38.3319 64.0646C38.3319 63.2421 38.9848 62.5667 39.8074 62.5667C40.6171 62.5667 41.2829 63.2421 41.2829 64.0646ZM45.7125 64.756C46.6823 64.756 47.4697 63.9558 47.4697 62.9764C47.4697 61.997 46.6823 61.1968 45.7125 61.1968C44.7427 61.1968 43.9554 61.997 43.9554 62.9764C43.9518 63.952 44.737 64.7472 45.7125 64.756ZM54.2422 60.1598C54.2422 61.2961 53.3205 62.2306 52.1938 62.2306H52.1842C51.6393 62.2264 51.1183 62.0059 50.7359 61.6175C50.3536 61.2291 50.1412 60.7048 50.1454 60.1598C50.1454 59.0236 51.0672 58.089 52.1938 58.089H52.2102C53.3431 58.0997 54.2529 59.0269 54.2422 60.1598ZM53.7365 68.8048C55.02 68.8021 56.0587 67.7602 56.0573 66.4768C56.056 65.1933 55.0152 64.1536 53.7317 64.1536C52.4483 64.1536 51.4075 65.1933 51.4062 66.4768C51.4048 67.7602 52.4435 68.8021 53.7269 68.8048H53.7365ZM47.8218 68.4943C47.8218 69.6337 46.9224 70.5555 45.7958 70.5555V70.5552H45.7727C45.2338 70.5475 44.72 70.3261 44.3444 69.9396C43.9688 69.5531 43.7621 69.0332 43.7698 68.4943V68.4844C43.7663 67.9437 43.9779 67.4238 44.3579 67.0391C44.7378 66.6544 45.2551 66.4364 45.7958 66.4331C46.9096 66.4331 47.8218 67.3549 47.8218 68.4943ZM23.3913 67.4989C25.811 67.4989 27.7826 65.5049 27.7826 63.05C27.7826 60.5951 25.811 58.6011 23.3913 58.6011C20.9716 58.6011 19 60.5983 19 63.0532C19 65.5081 20.9716 67.4989 23.3913 67.4989ZM37.1188 55.7365C37.1188 57.8426 35.4417 59.5549 33.3581 59.5549C31.2873 59.5549 29.5973 57.8554 29.5973 55.7365V55.7298C29.5833 53.6388 31.267 51.9323 33.3581 51.9182C35.4289 51.9182 37.1188 53.6305 37.1188 55.7365ZM29.4693 49.761C31.5401 49.761 33.2076 48.0614 33.2076 45.965C33.2076 43.8686 31.5305 42.169 29.4693 42.169C28.4711 42.1757 27.5164 42.5787 26.8153 43.2893C26.1142 44 25.7241 44.96 25.7309 45.9583V45.965C25.7098 48.0401 27.3747 49.7395 29.4498 49.761H29.4693ZM42.2879 41.865C42.2879 43.6669 40.8444 45.12 39.0776 45.12C37.3109 45.12 35.8674 43.6669 35.8674 41.865C35.8674 40.063 37.3077 38.6099 39.0776 38.6099C40.8476 38.6099 42.2879 40.063 42.2879 41.865ZM43.0048 54.8916C44.7844 54.8916 46.2246 53.4289 46.2246 51.6269C46.2246 49.825 44.7844 48.3623 43.0048 48.3623C41.2252 48.3623 39.785 49.825 39.785 51.6269C39.785 53.4289 41.2252 54.8916 43.0048 54.8916ZM54.4855 50.0813C54.4976 51.6049 53.2725 52.8499 51.749 52.8624L51.7294 52.8627C50.2112 52.8448 48.9948 51.5996 49.0124 50.0813V49.9975C49.0274 49.0198 49.5628 48.1244 50.417 47.6485C51.2712 47.1727 52.3143 47.1886 53.1535 47.6905C53.9927 48.1923 54.5005 49.1037 54.4855 50.0813ZM59.3025 52.888C60.6083 52.888 61.6677 51.819 61.6677 50.5003C61.6677 49.1816 60.6083 48.1126 59.3025 48.1126C57.9838 48.1126 56.9148 49.1816 56.9148 50.5003C56.9148 51.819 57.9838 52.888 59.3025 52.888ZM67.5377 52.3087C67.5377 53.4257 66.6351 54.3251 65.5437 54.3251C64.4491 54.3251 63.5625 53.4129 63.5497 52.3087C63.546 51.2022 64.4373 50.3009 65.5437 50.2923C66.6479 50.2923 67.5377 51.1916 67.5377 52.3087ZM66.3567 46.97C67.3206 46.9631 68.0969 46.1768 68.0914 45.2128C68.0914 44.243 67.3137 43.4557 66.3567 43.4557C65.3997 43.4557 64.6219 44.243 64.6219 45.2128C64.6164 46.1768 65.3927 46.9631 66.3567 46.97ZM63.5499 42.5615C63.5512 43.6646 62.6588 44.5604 61.5557 44.5631H61.5458C60.4427 44.5604 59.5503 43.6646 59.5516 42.5615C59.553 41.4584 60.4476 40.5649 61.5508 40.5649C62.6539 40.5649 63.5485 41.4584 63.5499 42.5615ZM55.3881 43.1036C56.6901 43.0931 57.738 42.0308 57.7309 40.7287C57.7309 39.4101 56.6843 38.3539 55.3881 38.3539C54.0918 38.3539 53.0452 39.4229 53.0452 40.7287C53.0401 41.3535 53.2834 41.9547 53.7216 42.4001C54.1597 42.8455 54.7569 43.0985 55.3817 43.1036H55.3881ZM50.5935 40.3319C50.5935 41.865 49.3677 43.1132 47.8474 43.1132C46.3228 43.0991 45.0959 41.8565 45.1012 40.3319C45.1012 38.7988 46.3271 37.5505 47.8474 37.5505C49.3677 37.5505 50.5935 38.7988 50.5935 40.3319ZM37.6917 36.1582C39.4137 36.1582 40.7996 34.7499 40.7996 33.0056C40.7996 31.2613 39.4041 29.853 37.6917 29.853C35.9698 29.853 34.5839 31.2613 34.5839 33.0056C34.5839 34.7499 35.9794 36.1582 37.6917 36.1582ZM49.1788 31.4661C49.1788 32.9992 47.953 34.2474 46.4327 34.2474C44.9124 34.2474 43.6865 32.9992 43.6865 31.4661C43.6865 29.933 44.9124 28.6847 46.4327 28.6847C47.953 28.6847 49.1788 29.933 49.1788 31.4661ZM53.983 34.2827C55.2889 34.2827 56.3483 33.2136 56.3483 31.8854C56.3483 30.5571 55.2889 29.4881 53.983 29.4881C53.3523 29.4915 52.7488 29.7453 52.3052 30.1937C51.8616 30.642 51.6143 31.2483 51.6177 31.879V31.8854C51.6122 33.1992 52.6693 34.2705 53.983 34.2827ZM62.1734 33.6937C62.1734 34.8108 61.2837 35.7101 60.1794 35.7101C59.0658 35.7101 58.163 34.8074 58.163 33.6937C58.163 32.5801 59.0658 31.6773 60.1794 31.6773C61.2837 31.6773 62.1734 32.5767 62.1734 33.6937ZM64.9388 38.181C65.9274 38.174 66.7237 37.3677 66.7183 36.3791C66.7183 35.3773 65.9182 34.5771 64.9388 34.5771C63.9594 34.5771 63.1592 35.3869 63.1592 36.3791C63.1592 37.3713 63.9594 38.181 64.9388 38.181ZM69.469 40.5788C69.1946 40.8567 68.8212 41.0143 68.4307 41.0168L68.4313 41.0165H68.4083C68.0204 41.0107 67.6507 40.851 67.3805 40.5725C67.1104 40.294 66.962 39.9196 66.968 39.5317V39.5285C66.9654 39.138 67.1181 38.7625 67.3924 38.4846C67.6667 38.2067 68.0402 38.0491 68.4307 38.0466H68.4339C68.8244 38.05 69.1975 38.2084 69.4712 38.4869C69.7449 38.7654 69.8968 39.1412 69.8934 39.5317V39.5349C69.8959 39.9254 69.7433 40.3009 69.469 40.5788Z" fill="white"/>
</svg>
