<svg width="120" height="120" viewBox="0 0 120 120" fill="none" xmlns="http://www.w3.org/2000/svg">
<circle cx="60" cy="60" r="60" fill="#00316D"/>
<path fill-rule="evenodd" clip-rule="evenodd" d="M52.6814 78.9922C55.2785 78.9923 57.8757 78.9925 60.4728 78.9925C63.7334 78.9925 66.994 78.9922 70.2545 78.992C80.0363 78.9913 89.818 78.9906 99.5997 78.9962C100.479 78.9962 101.316 78.8379 101.769 78.0087C102.229 77.153 101.939 76.3049 101.448 75.5322C101.143 75.0516 100.831 74.5773 100.519 74.103C100.415 73.945 100.311 73.787 100.207 73.6287C99.164 72.0262 98.0997 70.4369 97.0355 68.8476C94.6779 65.3267 92.3206 61.8062 90.1943 58.1444C86.4896 51.7648 82.9459 45.286 79.4031 38.8088C78.0644 36.3614 76.7259 33.9142 75.3788 31.4727C74.8922 30.5831 74.2621 29.9537 73.2246 30.0027C72.2324 30.0479 71.7231 30.7603 71.3383 31.5971L61.5518 52.8937C61.0689 53.9416 60.835 53.9717 60.1823 53.052C59.2976 51.7971 58.4123 50.5427 57.527 49.2885C55.2376 46.0446 52.9486 42.8014 50.6713 39.5503C50.128 38.7739 49.3999 38.2839 48.5473 38.6005C47.9285 38.8266 47.34 39.4033 46.9552 39.9725C44.5184 43.5869 42.1005 47.2159 39.6826 50.845C38.2073 53.0593 36.7319 55.2736 35.2522 57.4848C34.9493 57.9354 34.6529 58.3926 34.3564 58.85C33.46 60.2328 32.5624 61.6174 31.4795 62.8296C28.6499 66.0015 25.7313 69.0971 22.8126 72.1927C21.8397 73.2245 20.8668 74.2563 19.8972 75.291C19.2219 76.0109 18.739 76.7723 19.154 77.8014C19.5917 78.8869 20.5047 79 21.5157 79C31.9043 78.991 42.2929 78.9916 52.6814 78.9922ZM74.2772 38.2122L74.5639 38.1632C74.6164 38.2346 74.6711 38.305 74.726 38.3754C74.8565 38.5431 74.9874 38.7113 75.0883 38.8945C78.3593 44.8048 81.6227 50.7226 84.8785 56.6404C84.9723 56.8126 85.0099 57.017 85.0473 57.2207L85.0474 57.2208L85.0474 57.2209L85.0474 57.221L85.0474 57.221L85.0474 57.2211L85.0475 57.2212C85.0657 57.3206 85.0839 57.4198 85.1087 57.5149C85.0153 57.5161 84.9204 57.5232 84.8254 57.5303C84.6173 57.5459 84.4088 57.5615 84.2145 57.5149C82.827 57.1739 81.4407 56.8275 80.0547 56.4811L80.054 56.481L80.0519 56.4804C78.1754 56.0115 76.2992 55.5426 74.4206 55.0875C73.8811 54.9593 73.7264 54.6879 73.7453 54.1678L74.164 39.9537C74.1767 39.5612 74.2064 39.1705 74.236 38.7814C74.2504 38.5913 74.2648 38.4016 74.2772 38.2122ZM46.9929 47.3151L47.2268 47.8051C47.1715 48.3498 47.1193 48.8817 47.0681 49.4041L47.068 49.4043L47.068 49.4044L47.068 49.4045C46.9235 50.8778 46.7863 52.2752 46.6081 53.6664C46.5345 54.0459 46.3169 54.3823 46.0007 54.605C44.2017 55.7603 42.3856 56.8887 40.5529 57.9898C40.4039 58.0812 40.2168 58.1039 40.0281 58.1267L40.0281 58.1267L40.0281 58.1267L40.028 58.1268L40.028 58.1268L40.028 58.1268L40.0279 58.1268L40.0279 58.1268L40.0279 58.1268L40.0278 58.1268L40.0278 58.1268C39.9443 58.1369 39.8605 58.147 39.7795 58.1632C39.8011 58.0779 39.8146 57.9874 39.8281 57.8971C39.8545 57.7202 39.8807 57.5441 39.9681 57.4094C42.1027 54.179 44.2506 50.9575 46.4119 47.7448C46.5003 47.615 46.6495 47.5263 46.798 47.4381C46.865 47.3983 46.9319 47.3585 46.9929 47.3151ZM68.5894 74.7166C68.5993 74.738 68.6126 74.7667 68.6332 74.8048C68.022 75.2797 58.7826 75.2759 58.0507 74.7369C58.299 74.462 58.5464 74.1871 58.7934 73.9126L58.7936 73.9124L58.7939 73.9121L58.7941 73.9118L58.7944 73.9116L58.7946 73.9113L58.7957 73.91C59.5539 73.0675 60.3087 72.2287 61.0765 71.4048C61.1557 71.3181 61.4085 71.3031 61.533 71.3634C63.5419 72.2959 65.5453 73.2423 67.5479 74.1883L67.5483 74.1885L68.5578 74.6653C68.5687 74.6718 68.5758 74.6872 68.5894 74.7166ZM92.4881 75.1327H95.6044C96.2042 75.1327 96.4344 74.9065 96.0533 74.3298C95.5109 73.502 94.9691 72.6738 94.4273 71.8458L94.3751 71.7661L94.3681 71.7553L94.3611 71.7446L94.354 71.7337C92.942 69.5755 91.5305 67.4181 90.1113 65.2684C90.038 65.1534 89.8994 65.0837 89.761 65.014C89.6998 64.9833 89.6386 64.9525 89.5831 64.9178C89.554 64.9762 89.5182 65.0345 89.4822 65.0932L89.4822 65.0933L89.4821 65.0934L89.482 65.0936L89.482 65.0937L89.4819 65.0938L89.4818 65.0939L89.4818 65.094L89.4817 65.0941C89.4017 65.2247 89.3207 65.3569 89.3077 65.4945C89.1822 67.1025 89.0634 68.7105 88.9446 70.3185C88.8456 71.6581 88.7466 72.9977 88.6437 74.3374C88.6022 74.899 88.7984 75.1515 89.3718 75.1402C90.112 75.1241 90.8522 75.1271 91.5937 75.1302H91.5939H91.5942H91.5944H91.5946H91.5949H91.5951H91.5953H91.5955H91.5958C91.893 75.1315 92.1904 75.1327 92.4881 75.1327ZM26.0336 75.0272C25.9096 74.9915 25.7636 74.9496 25.5827 74.9065L25.9707 74.4803C26.5894 73.8006 27.1032 73.2359 27.6275 72.6713C28.1838 72.0772 28.7408 71.4837 29.2979 70.8902L29.2982 70.8899L29.2983 70.8898L29.2984 70.8897L29.2985 70.8896L29.2986 70.8895L29.2987 70.8894L29.2988 70.8893L29.2989 70.8892C30.5473 69.559 31.7961 68.2286 33.0376 66.8892C33.5017 66.3916 33.7733 66.3577 34.0676 67.0626C35.0781 69.4773 36.1118 71.8822 37.1688 74.277C37.4442 74.9065 37.2782 75.1365 36.6255 75.1365C34.9428 75.1327 33.2593 75.1327 31.5752 75.1327C29.8912 75.1327 28.2067 75.1327 26.5221 75.1289C26.3796 75.1266 26.2356 75.0852 26.0336 75.0272ZM75.3637 57.5187C75.4439 57.6748 75.5044 57.7985 75.5541 57.9003L75.5542 57.9004L75.5542 57.9005C75.6402 58.0765 75.6944 58.1874 75.7637 58.2876L80.3211 64.899L81.0218 65.9163L81.0225 65.9173C82.6707 68.3105 84.3182 70.7025 85.9802 73.0859C86.0677 73.2146 86.2116 73.3029 86.3541 73.3903C86.4203 73.4309 86.4862 73.4714 86.5461 73.5156C86.5779 73.4423 86.6161 73.3702 86.6541 73.2982C86.7335 73.1482 86.8124 72.9988 86.8328 72.8409C86.8853 72.3952 86.9086 71.9494 86.9319 71.5036C86.942 71.3086 86.9522 71.1136 86.9649 70.9186C87.0263 70.0373 87.0898 69.1564 87.1533 68.2757L87.1539 68.2684C87.3007 66.2322 87.4474 64.1974 87.5685 62.1625C87.6439 60.9186 87.1044 60.2778 85.9236 59.9838C85.1825 59.7985 84.4413 59.6129 83.7002 59.4274C81.2909 58.8242 78.8811 58.2209 76.4692 57.6242C76.2902 57.5813 76.1052 57.5701 75.8608 57.5552L75.8607 57.5552C75.7186 57.5465 75.5565 57.5367 75.3637 57.5187ZM59.9928 66.775L59.9928 66.7748L59.9928 66.7748L59.9929 66.7746L59.9929 66.7745C60.0466 66.5127 60.088 66.3108 60.0956 66.1089C60.1152 65.4772 60.1276 64.8454 60.1399 64.2137L60.1399 64.2132C60.1585 63.2658 60.1771 62.3183 60.2201 61.3709C60.2877 60.1676 59.9298 58.9788 59.209 58.0125C56.2135 53.8599 53.2268 49.7011 50.2488 45.536C50.1566 45.4082 50.101 45.2543 50.0452 45.1003C50.0188 45.0273 49.9924 44.9543 49.962 44.8839L49.6074 45.095C49.5792 45.1979 49.5458 45.3005 49.5124 45.403L49.5124 45.403L49.5124 45.403L49.5124 45.4031L49.5124 45.4031L49.5124 45.4031L49.5124 45.4031C49.4431 45.6159 49.3738 45.8287 49.3509 46.0449C49.246 47.0623 49.1472 48.0796 49.0483 49.0966L49.0483 49.0968L49.0483 49.097L49.0482 49.0972L49.0482 49.0974L49.0482 49.0976C48.8981 50.6423 48.7481 52.1859 48.5774 53.7267C48.4901 54.2721 48.668 54.8265 49.0566 55.2194C51.1826 57.5856 53.2997 59.9608 55.4172 62.3365C56.6627 63.7338 57.9084 65.1314 59.1562 66.5273C59.2757 66.6617 59.4117 66.7796 59.5913 66.9354C59.6837 67.0156 59.7877 67.1057 59.9069 67.2134C59.9368 67.0479 59.9663 66.9043 59.9927 66.7752L59.9928 66.775ZM62.0839 66.4256L62.0838 66.4256V66.4293L62.0839 66.4256ZM62.3101 66.5763L62.0839 66.4256C62.0954 65.9588 62.0997 65.4927 62.104 65.0276V65.0274V65.0272V65.027V65.0268C62.1274 62.4624 62.1507 59.9267 63.3891 57.4584C65.2729 53.7071 67.0432 49.8965 68.814 46.0847L68.8141 46.0845L68.8141 46.0844L68.8142 46.0842L68.8143 46.084L68.8144 46.0838C69.6466 44.2925 70.4789 42.5009 71.3232 40.7151C71.4023 40.5518 71.561 40.4248 71.7196 40.2978L71.7196 40.2978C71.7953 40.2372 71.8711 40.1765 71.9381 40.112C71.9621 40.1895 71.9923 40.2674 72.0225 40.3454C72.0922 40.5253 72.1622 40.7059 72.1569 40.8847C72.0513 45.5398 71.9343 50.1949 71.7985 54.85C71.7816 55.1315 71.6789 55.4011 71.5043 55.6227C68.6559 59.1188 65.7974 62.6067 62.9289 66.0863C62.8163 66.2218 62.6674 66.3243 62.5184 66.4268L62.5184 66.4268L62.5183 66.4269L62.5182 66.4269L62.5181 66.427L62.5181 66.4271C62.4474 66.4756 62.3768 66.5242 62.3101 66.5763ZM50.2793 75.14H50.2797H50.2801C51.6253 75.1451 52.9716 75.1501 54.3158 75.1138C54.7299 75.0942 55.1234 74.9271 55.4249 74.6427C56.0723 73.965 56.6988 73.2666 57.3254 72.5682C57.9221 71.903 58.5188 71.2379 59.1335 70.5907C59.6051 70.1006 59.4995 69.7991 59.0996 69.3619C56.9704 67.0547 54.8601 64.7302 52.7689 62.3886C52.2634 61.8232 51.9729 61.827 51.5202 62.4452C49.7082 64.9216 47.8843 67.3874 46.0597 69.8542L46.0592 69.8548L46.0588 69.8553L46.0584 69.8559C44.9923 71.2972 43.926 72.7387 42.8618 74.1828C42.7658 74.314 42.7104 74.4739 42.6549 74.6342L42.6549 74.6343C42.6274 74.7135 42.5999 74.7928 42.5675 74.8688C42.6444 74.8963 42.7213 74.9305 42.7983 74.9647L42.7983 74.9647L42.7983 74.9647L42.7984 74.9647C42.9745 75.0429 43.1511 75.1214 43.3296 75.1214C44.8083 75.1395 46.2821 75.1383 47.7588 75.1371C48.1283 75.1368 48.498 75.1365 48.868 75.1365C49.3379 75.1365 49.8082 75.1382 50.2786 75.14H50.2789H50.2793ZM49.8806 59.1897C50.1672 59.5185 50.4562 59.8501 50.7468 60.1873L46.0309 66.5047C45.5477 67.1519 45.0646 67.7996 44.5813 68.4475L44.5786 68.4511C43.2023 70.2962 41.825 72.1427 40.4435 73.983C39.738 74.9254 39.5644 74.9065 39.1042 73.8511C38.7131 72.9443 38.3236 72.0372 37.9342 71.1301C37.1176 69.2282 36.3012 67.3267 35.471 65.4305C35.2258 64.8651 35.1654 64.36 35.6144 63.9001C35.7305 63.7814 35.8446 63.6588 35.959 63.5359L35.959 63.5359L35.9591 63.5358C36.3202 63.1478 36.6833 62.7577 37.1159 62.4829C38.8428 61.3885 40.5821 60.3135 42.3214 59.2385L42.3215 59.2384L42.3217 59.2383C43.7515 58.3546 45.1814 57.4708 46.6043 56.5763C47.1325 56.2484 47.4343 56.2974 47.8267 56.7761C48.4887 57.5928 49.1773 58.3829 49.8805 59.1896L49.8806 59.1897ZM72.6097 57.2171C72.5286 57.3479 72.4616 57.4618 72.4022 57.5627L72.4022 57.5628C72.2818 57.7674 72.1926 57.9189 72.0815 58.0501C69.0935 61.6913 66.1017 65.3325 63.0911 68.9585C62.6006 69.5503 62.8534 69.784 63.408 70.0366C64.8924 70.7158 66.374 71.3999 67.8558 72.0841C69.8275 72.9946 71.7997 73.9052 73.7792 74.8048C74.2233 75.0046 74.7033 75.1123 75.1902 75.1214C78.0424 75.1478 80.8983 75.1402 83.7543 75.1251C83.9374 75.1251 84.1224 75.0671 84.3079 75.0089L84.3081 75.0089C84.39 74.9832 84.472 74.9575 84.5541 74.9367C84.5255 74.852 84.5017 74.7636 84.4779 74.6747C84.4231 74.4709 84.3679 74.2653 84.2523 74.0999C81.6204 70.2599 78.9807 66.4253 76.3333 62.5959C75.3324 61.1442 74.3259 59.6925 73.1932 58.0588L73.1925 58.0578L72.6097 57.2171Z" fill="white"/>
</svg>
