<svg width="120" height="120" viewBox="0 0 120 120" fill="none" xmlns="http://www.w3.org/2000/svg">
<circle cx="60" cy="60" r="60" fill="#EDF0F4"/>
<path fill-rule="evenodd" clip-rule="evenodd" d="M64.2035 30.1248L84.1173 41.1857C86.9503 42.7688 88.7 45.7684 88.7 48.9971V70.5148C88.7 73.7644 86.9294 76.7431 84.0965 78.3262L64.1827 89.3871C61.4956 90.8869 58.2044 90.8869 55.5173 89.3871L35.6035 78.3262C32.7706 76.7431 31 73.7644 31 70.5148V48.9971C31 45.7684 32.7706 42.7688 35.6035 41.1857L55.5381 30.1248C58.2252 28.6251 61.5164 28.6251 64.2035 30.1248ZM46.9977 76.1182C49.9556 76.1182 52.3719 73.7019 52.3719 70.744V51.83C52.3719 48.8721 49.9556 46.4558 46.9977 46.4558C44.0398 46.4558 41.6235 48.8721 41.6235 51.83V70.744C41.6235 73.7019 44.0398 76.1182 46.9977 76.1182ZM59.85 60.9745C56.8713 60.9745 54.4549 58.5582 54.4549 55.5795C54.4549 52.6008 56.8713 50.1844 59.85 50.1844C62.8287 50.1844 65.2451 52.6008 65.2451 55.5795C65.2451 58.5582 62.8287 60.9745 59.85 60.9745ZM72.7231 76.1182C75.681 76.1182 78.0974 73.7019 78.0974 70.744V51.83C78.0974 48.8721 75.681 46.4558 72.7231 46.4558C69.7652 46.4558 67.3489 48.8721 67.3489 51.83V70.744C67.3489 73.7019 69.7652 76.1182 72.7231 76.1182Z" fill="#26A5A4"/>
</svg>
