<svg width="120" height="120" viewBox="0 0 120 120" fill="none" xmlns="http://www.w3.org/2000/svg">
<path d="M118.204 74.5158C110.188 106.657 77.6408 126.219 45.4842 118.204C13.3433 110.188 -6.20374 77.6252 1.81195 45.4842C9.81203 13.3433 42.3748 -6.21936 74.5001 1.79634C106.657 9.81204 126.219 42.3748 118.204 74.5158Z" fill="#0007BC"/>
<path fill-rule="evenodd" clip-rule="evenodd" d="M96.0312 63.6563L95.2812 62.4532L83.2186 43.3436C82.2655 41.8592 81.0155 40.5936 79.5467 39.6248C76.8123 37.8904 73.4685 37.3436 70.3279 38.1248C67.2184 38.8748 64.5622 40.8592 62.9528 43.6249C62.1403 44.9686 61.1246 46.6405 60.0934 48.2812L56.8121 43.2186L56.6871 43.0467V42.9999C55.5777 41.5155 54.1871 40.2655 52.5933 39.328C50.2027 38.0311 47.437 37.5936 44.7339 38.0623C42.1401 38.578 39.7651 39.8905 37.9369 41.828C37.4213 42.4061 36.9682 43.0311 36.5932 43.703L27.6868 57.8281L23.9524 63.7188C22.2493 66.4376 21.6555 69.7189 22.3118 72.8595C22.9212 76.0002 24.8118 78.7502 27.515 80.469C29.3587 81.6252 31.4837 82.2346 33.6556 82.219C37.9213 82.2034 41.8745 80.0315 44.1401 76.4221L46.9839 71.922L49.7339 76.2033C50.4683 77.2658 51.3433 78.2502 52.2964 79.1096C52.5621 79.344 52.8277 79.5783 53.1089 79.7815H53.1402C53.3277 79.9221 53.5152 80.0471 53.7339 80.1877C55.5777 81.3752 57.734 82.0159 59.9371 82.0159C62.2653 82.0002 64.5465 81.3284 66.4841 80.0471L66.7184 79.8908L66.9372 79.7502C67.9997 79.0002 68.9528 78.0783 69.7341 77.0314L72.9685 72.0001L75.7342 76.3752C78.0311 79.969 81.9842 82.1409 86.2499 82.1409C88.4062 82.1565 90.5312 81.5471 92.3749 80.4065C97.9219 76.9377 99.5781 69.2814 96.0312 63.6563ZM38.3276 44.7343C38.6557 44.1718 39.0307 43.6561 39.4526 43.1717C40.9526 41.5624 42.937 40.453 45.0932 39.9842C47.3433 39.578 49.6402 39.953 51.6402 41.0311C52.9996 41.8436 54.1871 42.9217 55.1246 44.1874L55.2027 44.2968L58.984 50.1093C58.2832 51.1574 57.6267 52.1316 57.0898 52.9285L57.0868 52.9329L57.0867 52.9331C56.2725 54.1413 55.734 54.9405 55.734 54.9687C54.3433 57.0938 52.2183 58.6406 49.7652 59.2813H49.6402C47.0776 60.0313 44.3432 59.7344 41.9838 58.4688L41.6088 58.25L41.2807 58.0313L40.9682 57.8125L40.7026 57.5938L40.4526 57.3906L40.2495 57.2188L40.1088 57.0938L40.0307 57.0156L39.8119 56.7656L39.5463 56.5312L39.4682 56.4531L39.3432 56.3281L39.2651 56.25L39.1869 56.1719L38.8276 55.875L38.7494 55.8125L38.6401 55.7344L38.4526 55.5937L38.3588 55.5312H38.3119L38.0463 55.3594L37.9526 55.3125H37.8744L37.6244 55.1719L37.4994 55.0937L37.1713 54.9375L37.015 54.8281L36.8432 54.75L36.5307 54.625H36.515L36.1244 54.5L35.9682 54.4687L35.6557 54.3906H35.4994L35.2025 54.2812H35.0307H34.9057H34.7494H34.5306H34.0463H33.89H33.3431H33.265L32.7338 54.3594H32.6869L32.1244 54.4844L38.3276 44.7343ZM36.2338 79.9377C38.8432 79.2815 41.1088 77.6564 42.562 75.3752L45.9683 70.1251L38.2494 57.7188L38.1557 57.6094L38.0932 57.5313L38.0463 57.4844L37.8744 57.3125H37.8432L37.5619 57.0625H37.515L37.39 56.9844L37.2807 56.9062H37.2338H37.1713L36.9838 56.7812L36.8588 56.7031H36.7963L36.6713 56.625L36.5463 56.5625H36.4682L36.3275 56.4844L36.2338 56.4531L35.9057 56.3281H35.8119L35.6088 56.25H35.515H35.4525L35.2807 56.2187H35.1869H34.9682H34.8431H34.5931H34.4681H34.0931C32.6869 56.2187 31.3275 56.7656 30.3119 57.7344C29.9681 58.0781 29.6712 58.4375 29.4056 58.8438L25.6868 64.7344C22.718 69.4845 24.0774 75.9064 28.6556 78.7814C30.9056 80.2033 33.6556 80.6096 36.2338 79.9377ZM68.2185 75.8439C67.5466 76.7502 66.7653 77.5471 65.8278 78.2033L65.6559 78.3283L65.4372 78.4689C62.2497 80.6096 58.0934 80.6565 54.8433 78.6096L54.3433 78.2658H54.2808C54.2331 78.2283 54.1847 78.1909 54.1358 78.1531C53.9606 78.0175 53.78 77.8778 53.6089 77.7189C52.7808 76.9689 52.0308 76.1252 51.3902 75.2033L47.8433 69.6095L42.3745 60.9063L42.562 60.9844L43.0776 61.1563L43.3745 61.25L43.8901 61.375L44.2339 61.4688L44.7807 61.5625L45.0776 61.6094L45.7964 61.6875H45.8901H46.7026H47.0308H47.6401H47.9526L48.5464 61.6094H48.812C49.0933 61.5625 49.3745 61.5157 49.6245 61.4375C50.5933 61.1875 51.5308 60.8282 52.4214 60.3594H52.5152C52.6402 60.2969 52.7574 60.2344 52.8746 60.1719C52.9918 60.1094 53.1089 60.0469 53.2339 59.9844C54.8902 59.0313 56.2965 57.7031 57.3277 56.0937C57.3277 56.0937 59.0152 53.5468 60.859 50.6718C62.1715 48.6249 63.5778 46.3905 64.5778 44.6718C65.9059 42.3749 68.1403 40.703 70.7185 40.0936C73.3591 39.453 76.1248 39.8905 78.4217 41.3436C79.6404 42.1561 80.6873 43.2342 81.4998 44.4686L90.7812 59.1875C90.5155 59.0625 90.2499 58.9688 89.9687 58.875L89.828 58.8281C89.6113 58.7516 89.3841 58.6855 89.1635 58.6213L89.0155 58.5781H88.9374C88.6916 58.5059 88.4325 58.4603 88.1847 58.4168L88.1249 58.4063H87.9999C87.794 58.3699 87.5693 58.343 87.3623 58.3181C87.3022 58.3109 87.2436 58.3039 87.1874 58.2969H87.0311C86.7499 58.2969 86.4686 58.2969 86.2186 58.2656H86.1874H85.3749H85.203C84.9374 58.2656 84.6561 58.2969 84.3905 58.3594H84.2186C83.9374 58.4063 83.6561 58.4531 83.3592 58.5313C82.9686 58.625 82.5936 58.7344 82.203 58.8594C79.6092 59.75 77.3904 61.5157 75.9685 63.8594L72.5935 69.1564L68.2185 75.8439ZM77.4842 75.297C80.4529 80.0315 86.828 81.594 91.4062 78.7189C95.9843 75.8439 97.3281 69.422 94.3281 64.6251L93.6249 63.5001L93.5468 63.4219C93.4999 63.3699 93.4531 63.316 93.4062 63.2622C93.3124 63.1546 93.2187 63.0469 93.1249 62.9532L93.0468 62.8751C92.7187 62.5469 92.3437 62.2344 91.953 61.9532L91.828 61.875C91.7655 61.8334 91.7117 61.7969 91.6579 61.7604C91.5503 61.6875 91.4426 61.6146 91.2655 61.5C90.9999 61.3282 90.7187 61.1875 90.453 61.0625H90.3749L90.0937 60.9375L89.9218 60.8594L89.7187 60.7813L89.453 60.6719H89.3437L88.9687 60.5469C84.828 59.2813 80.3123 60.8438 77.8435 64.4219L77.5779 64.8438L74.2029 70.1407L77.4842 75.297Z" fill="white"/>
</svg>
