<svg width="120" height="120" viewBox="0 0 120 120" fill="none" xmlns="http://www.w3.org/2000/svg">
<circle cx="60" cy="60" r="60" fill="#EDF0F4"/>
<path fill-rule="evenodd" clip-rule="evenodd" d="M25 74.5213C25.0061 78.4668 26.8542 82.1832 29.9966 84.5691L29.9867 84.574L38.9093 91.38V44.8934C38.9095 40.9582 37.077 37.2475 33.9523 34.8555L25 28V74.5213ZM90.0405 84.5691L81.118 91.375V44.8884C81.1177 40.9533 82.9502 37.2425 86.075 34.8505L95 28V74.5163C94.9996 78.4606 93.158 82.1785 90.0207 84.5691H90.0405ZM62.5343 80.4449L71.8435 73.23C74.7485 70.9753 76.4476 67.5039 76.446 63.8266V42.2637L67.2756 49.1638C64.29 51.4116 62.5341 54.9317 62.5343 58.6688V80.4449ZM43.5441 63.839C43.5443 67.5176 45.2462 70.9892 48.1541 73.2424H48.1466L57.4509 80.4572V58.6862C57.4507 54.9516 55.6969 51.4339 52.7145 49.1861L43.5441 42.2761V63.839Z" fill="#0072FF"/>
</svg>
