<svg width="120" height="120" viewBox="0 0 120 120" fill="none" xmlns="http://www.w3.org/2000/svg">
<circle opacity="0.98" cx="60" cy="60" r="60" fill="#002D3E"/>
<path d="M63.7833 78.4252C63.3948 79.9421 62.0074 81.0705 60.3609 81.0705C58.7145 81.0705 57.3456 79.9421 56.9386 78.4252L46.8936 38.578C45.3766 32.4732 39.8454 27.9409 33.2782 27.9409C25.527 27.9409 19.2373 34.2307 19.2373 41.9818V45.1452C19.2373 48.0865 21.6237 50.4544 24.5466 50.4544C27.4879 50.4544 29.8558 48.068 29.8558 45.1452V41.9818C29.8558 40.0949 31.3913 38.578 33.2597 38.578C34.8506 38.578 36.201 39.6879 36.571 41.1679L46.7826 81.6255C48.3735 87.6377 53.8492 92.0591 60.3609 92.0591C66.8542 92.0591 72.3484 87.6193 73.9393 81.6255L84.1509 41.1679C84.5209 39.6879 85.8528 38.578 87.4622 38.578C89.3491 38.578 90.8661 40.1134 90.8661 41.9818V86.7498C90.8661 89.6912 93.2525 92.0591 96.1753 92.0591C99.1167 92.0591 101.485 89.6727 101.485 86.7498V41.9818C101.485 34.2307 95.1949 27.9409 87.4437 27.9409C80.8765 27.9409 75.3453 32.4732 73.8283 38.578L63.7833 78.4252Z" fill="white"/>
<path d="M29.8744 86.7498C29.8744 89.6912 27.488 92.059 24.5651 92.059C21.6238 92.059 19.2559 89.6727 19.2559 86.7498V74.8548C19.2559 71.9135 21.6423 69.5456 24.5651 69.5456C27.5065 69.5456 29.8744 71.932 29.8744 74.8548V86.7498Z" fill="white"/>
<path d="M20.9205 56.3742C21.5865 55.7082 22.1415 55.1717 22.6224 54.7462L22.6779 54.7092C23.7509 53.7473 25.3788 53.7473 26.4518 54.6907L26.5073 54.7462C26.9882 55.1902 27.5617 55.7267 28.2092 56.3927C28.8567 57.0401 29.4116 57.6136 29.8371 58.0946L29.8926 58.1501C30.8546 59.223 30.8546 60.851 29.8926 61.9239L29.8556 61.9794C29.4116 62.4604 28.8752 63.0339 28.2277 63.6813L28.2092 63.6998C27.5617 64.3473 26.9882 64.8838 26.5258 65.3278L26.4703 65.3648C25.3973 66.3267 23.7694 66.3267 22.6964 65.3648L22.6409 65.3093C22.16 64.8653 21.605 64.3288 20.939 63.6813V63.6628C20.273 62.9969 19.7366 62.4419 19.2926 61.9609L19.2371 61.9054C18.2751 60.8325 18.2751 59.2045 19.2371 58.1316L19.2741 58.0761C19.7366 57.5951 20.273 57.0401 20.9205 56.3742Z" fill="#F5C117"/>
</svg>
