<svg width="120" height="120" viewBox="0 0 120 120" fill="none" xmlns="http://www.w3.org/2000/svg">
<circle cx="60" cy="60" r="60" fill="#EDF0F4"/>
<path d="M57.3333 64.5791L45.9534 75.959C44.3277 77.5847 41.6957 77.5847 40.07 75.959L27.2193 63.0308C25.5936 61.4052 25.5936 58.7731 27.2193 57.1474L40.1474 44.2193C41.7731 42.5936 44.4052 42.5936 46.0308 44.2193L57.4107 55.5991C59.0364 57.2248 61.6684 57.2248 63.2941 55.5991L74.5966 44.2193C76.2223 42.5936 78.8543 42.5936 80.48 44.2193L93.3307 57.1474C94.9564 58.7731 94.9564 61.4052 93.3307 63.0308L80.48 75.959C78.8543 77.5847 76.2223 77.5847 74.5966 75.959L63.2167 64.5791C61.591 62.9534 58.959 62.9534 57.3333 64.5791Z" fill="url(#paint0_linear)"/>
<defs>
<linearGradient id="paint0_linear" x1="191.576" y1="21.7651" x2="37.9233" y2="21.7651" gradientUnits="userSpaceOnUse">
<stop stop-color="#3600C9"/>
<stop offset="1" stop-color="#9E00E7"/>
</linearGradient>
</defs>
</svg>
