<svg width="120" height="120" viewBox="0 0 120 120" fill="none" xmlns="http://www.w3.org/2000/svg">
<path fill-rule="evenodd" clip-rule="evenodd" d="M60 120C27 120 0 93.0006 0 59.7012C0.3 26.7019 27 -0.297518 60.3 0.00247602C93.3 0.30247 120 27.0019 120 60.6012C119.7 93.3006 93 120 60 120Z" fill="#EDF0F4"/>
<path fill-rule="evenodd" clip-rule="evenodd" d="M99.7647 66.1728L73.8235 40.2316C73.5147 39.9228 72.9265 39.9228 72.6176 40.2316L59.8824 52.9228L47.3971 40.4375C47.0588 40.0993 46.5294 40.0993 46.1912 40.4375L42.2941 44.261L27.9706 58.3051L24.8382 61.3787L20.2353 65.864C20.0588 66.0404 20 66.2463 20 66.4816C20 66.7169 20.1029 66.9228 20.2353 67.0993L33.1765 80.0404C33.5147 80.3787 34.0735 80.3787 34.3824 80.0404L46.8088 67.6287L59.3971 80.2169C59.7353 80.5551 60.2941 80.5551 60.6029 80.2169L73.0588 67.761L85.5882 80.2904C85.7647 80.4669 85.9706 80.5257 86.2059 80.5257C86.4412 80.5257 86.6471 80.4522 86.8235 80.2904L99.7647 67.3493C99.9412 67.1728 100 66.9669 100 66.7316C100 66.4816 99.9265 66.3051 99.7647 66.1728ZM97.4412 67.2463L90 64.511L86.5882 57.1581L88.5588 57.4375L97.9118 66.7904L97.4412 67.2463ZM91.0294 66.7316L93.2353 71.4522L96.1029 68.5993L91.0294 66.7316ZM42.0147 54.4375L31.5294 57.261L42.0147 46.9522V54.4375ZM36.3529 57.7463L29 59.7169L26.9265 61.7757L35.8676 66.0257L36.3529 57.7463ZM38.1176 57.2757L39.4265 56.9375L42.9118 62.2904L37.4559 68.3346L38.1176 57.2757ZM41.1471 56.4375L44.0735 60.9228L46.9853 57.7169L42.8088 55.9963L41.1471 56.4375ZM43.7353 54.511V51.3787L53.6765 52.2022L56.1618 59.6581L43.7353 54.511ZM55.7059 66.3787L52.1471 64.2022L51.2647 69.6875L56.2941 74.6875L55.7059 66.3787ZM56.9853 65.1434L52.4706 62.3493L52.8088 60.1728L57.0588 61.9375C57.1618 62.011 57.2647 62.0699 57.3971 62.0699L61.6765 63.864L63.4706 69.1728L56.9853 65.1434ZM68.0882 61.2022L63.4265 63.614L64.6765 67.2757L68.0882 61.2022ZM69.8824 58.3787L65.5735 60.614L66.6029 53.3051L72.6029 56.9669L69.8824 58.3787ZM66.3529 51.1287L74.3971 56.0257L77.0735 54.6434L76.2059 51.1287L67.0588 48.1581L64.9412 50.261L66.3529 51.1287ZM78.7794 54.3346L76.6471 45.4669L86.5882 55.4081L78.7794 54.3346ZM80.6765 56.3051L78.8529 56.0699L77.3971 69.614L82.6471 74.864L80.6765 56.3051ZM82.4118 56.5846L84.5882 56.8934L87.6912 63.5846L83.8971 70.6287L82.4118 56.5846ZM74.2647 43.1287L73.1912 42.0551L68.4412 46.8199L75.7206 49.1728L74.2647 43.1287ZM60.4706 54.7904L63.7206 51.5404L65 52.3346L63.6912 61.5846L62.3529 62.2757L58.2206 60.5846L54.8382 50.4081L59.25 54.8199C59.6029 55.0993 60.1176 55.0993 60.4706 54.7904ZM52.1176 47.6434L46.7647 42.3051L43.7353 45.261V49.6434L53.0441 50.4375L52.1176 47.6434ZM25.5882 63.0699L35.7353 67.864L35.4559 72.4228L26.3824 70.8346L22.0735 66.5257L25.5882 63.0699ZM28.4853 72.9669L33.7647 78.2463L35.1324 76.8346L35.3088 74.1728L28.4853 72.9669ZM46.1765 65.8199L37 74.9963L37.2353 71.0699L37.2647 71.0404L48.6471 58.4522L51.1618 59.4816L50.6471 62.6581L49.75 68.1728L47.3971 65.8199C47.0735 65.4816 46.5294 65.4816 46.1765 65.8199ZM58.1471 76.5551L60.0147 78.4228L64.9706 73.4816L64.3529 71.6875L57.5294 67.4816L58.1471 76.5551ZM73.0882 65.7169C72.8824 65.7169 72.6471 65.7904 72.4706 65.9522L66.2941 72.1287L65.3971 69.4669L70.8824 59.7316L77.0588 56.5551L75.8235 68.0404L73.7206 65.9375C73.5441 65.7904 73.2941 65.7169 73.0882 65.7169ZM84.5441 76.8199L86.2059 78.4816L91.9412 72.7463L88.5882 65.4963L84.2059 73.6434L84.5441 76.8199Z" fill="url(#paint0_linear)"/>
<defs>
<linearGradient id="paint0_linear" x1="19.9985" y1="80.524" x2="99.9998" y2="80.524" gradientUnits="userSpaceOnUse">
<stop stop-color="#C51F5D"/>
<stop offset="1" stop-color="#2F2361"/>
</linearGradient>
</defs>
</svg>
