<svg width="120" height="120" viewBox="0 0 120 120" fill="none" xmlns="http://www.w3.org/2000/svg">
<circle cx="60" cy="60" r="60" fill="#36A9CF"/>
<path fill-rule="evenodd" clip-rule="evenodd" d="M98.8357 71.215C99.1931 70.4025 98.9485 69.5116 98.2864 69.2246C97.6281 68.9376 96.8005 69.3588 96.4431 70.1714C96.1958 70.6822 96.2255 71.2823 96.5221 71.7667L88.0578 86.5867C87.7484 86.5492 87.4344 86.5929 87.1474 86.7134L81.5422 81.0553C81.7632 80.0728 81.2529 79.0723 80.3233 78.6661V42.1602C80.6699 42.0077 80.9688 41.7657 81.1885 41.4594L94.991 48.7837L95.0361 48.9701C95.2882 49.8199 96.0518 50.3343 96.7403 50.1107C97.4249 49.8945 97.7786 49.026 97.5228 48.1724C97.2895 47.3934 96.6349 46.9014 95.9954 46.9871L89.2879 34.0159L89.318 33.9786C89.8071 33.2704 89.4986 32.2044 88.6409 31.5931C88.148 31.2209 87.5085 31.0969 86.9104 31.2576L82.3359 28.2086C82.2448 27.5409 81.8478 26.9522 81.26 26.6133C80.7272 26.2873 80.0772 26.2083 79.4806 26.3971L68.8495 20.3886C68.7028 19.7401 68.082 19.1772 67.2544 19.0356C66.344 18.8753 65.5014 19.2704 65.2042 19.9413L42.1888 24.0862C41.6692 23.7376 41.0146 23.6506 40.4207 23.8513C39.4765 24.1458 38.8746 24.977 39.0138 25.7598L23.0181 42.3652C22.3033 42.3279 21.5773 42.8758 21.2763 43.7443C21.0293 44.3882 21.1285 45.1122 21.5397 45.6676L20.6406 66.8652C20.1628 67.2528 19.907 67.9797 20.0311 68.7512C20.1816 69.6085 20.7572 70.2571 21.4231 70.3876L27.5174 84.3913C27.2691 85.0324 27.5023 85.8785 28.1494 86.46C28.6081 86.8992 29.2519 87.0933 29.8798 86.9818L44.698 97.575C44.6604 98.3466 45.315 99.0958 46.263 99.3008C46.8529 99.4441 47.4766 99.3153 47.9596 98.9504L67.1378 100.281C67.5065 100.822 68.2739 101.112 69.0789 100.959C69.7752 100.856 70.3631 100.393 70.6213 99.7443L86.9443 90.0606C87.5486 90.0995 88.1394 89.8716 88.5581 89.4382C89.0862 88.9574 89.318 88.2356 89.1676 87.5409L97.5378 72.2475C98.1247 72.1559 98.6186 71.763 98.8357 71.215ZM98.0795 70.1975C98.3429 70.313 98.4444 70.6671 98.3015 70.9951C98.1548 71.3194 97.8275 71.4871 97.5641 71.3753C97.2971 71.256 97.1992 70.9019 97.3422 70.5777C97.4851 70.2534 97.8162 70.0856 98.0795 70.1975ZM88.276 88.8567C88.5769 88.5585 88.6296 88.1187 88.3926 87.8727C88.1556 87.6267 87.7192 87.6677 87.4145 87.9621C87.1135 88.2603 87.0609 88.7039 87.2979 88.9499C87.5349 89.1959 87.975 89.1549 88.276 88.8567ZM85.9511 87.8354L85.9097 87.9248L70.9637 93.0462C70.7756 92.8338 70.5273 92.6623 70.2489 92.5431L69.5454 82.4531C69.9222 82.2395 70.2241 81.917 70.4107 81.5287H77.626C77.9642 82.2543 78.6965 82.7196 79.5032 82.7214C79.8824 82.7207 80.2538 82.6148 80.5753 82.4158L85.9511 87.8354ZM70.2301 98.3093L83.2726 90.5713L71.385 94.6416C71.2253 95.2387 70.788 95.7246 70.2075 95.9499L69.8464 98.0521C69.9858 98.1196 70.115 98.2062 70.2301 98.3093ZM69.6432 99.5617C69.7034 99.9046 69.4213 100.24 69.0075 100.315C68.5937 100.393 68.2062 100.18 68.1422 99.8412C68.082 99.5021 68.368 99.1666 68.778 99.092C69.1918 99.01 69.583 99.2262 69.6432 99.5617ZM67.1115 98.8311C67.3612 98.4233 67.7513 98.1188 68.2099 97.9738L68.5523 95.9797C68.2473 95.8673 67.973 95.6861 67.751 95.4504L52.7861 97.8434L67.1115 98.8311ZM48.2455 96.8966L53.1134 82.6693C53.3444 82.6159 53.5645 82.5239 53.7642 82.3972L67.1152 93.8775L48.2455 96.8966ZM46.8498 95.9201L51.492 82.3562C51.1862 82.146 50.9421 81.8591 50.7848 81.5249H42.2979C42.2457 81.6281 42.1866 81.7277 42.1211 81.8231L46.8498 95.9201ZM47.147 98.2124C47.0793 98.5479 46.6881 98.7491 46.2742 98.6597C45.8604 98.5702 45.5858 98.2273 45.6573 97.8844C45.7288 97.5489 46.12 97.3514 46.5338 97.4371C46.9476 97.5303 47.2222 97.8769 47.147 98.2124ZM30.8993 85.9419L45.2134 96.1772L40.6916 82.6991C40.03 82.7844 39.3675 82.5485 38.9122 82.0654L30.9256 85.5132C30.9371 85.6565 30.9295 85.8006 30.9031 85.9419H30.8993ZM30.1244 84.0596C29.9535 83.9185 29.7636 83.8018 29.5601 83.7129L26.0126 66.3881L38.7128 79.3929C38.4832 79.7257 38.3529 80.1158 38.3366 80.5186L30.1244 84.0596ZM29.4735 85.9829C29.6993 85.7294 29.624 85.2896 29.3118 85.0063C28.9958 84.7268 28.5594 84.7044 28.3337 84.9616C28.108 85.2225 28.1757 85.6623 28.4917 85.9419C28.8077 86.2214 29.2478 86.2401 29.4698 85.9829H29.4735ZM27.1111 79.87L22.7397 69.8322C23.1104 69.2967 23.2155 68.6235 23.0256 68.002L24.1805 65.5643L27.1111 79.87ZM22.6344 53.6554L22.1077 66.1495L23.1535 63.9504C22.802 63.2897 22.8351 62.493 23.2401 61.8631L22.6344 53.6554ZM22.2131 44.7097C21.8933 44.5942 21.7391 44.1767 21.882 43.7741H21.8782C22.0212 43.3716 22.3899 43.1405 22.7134 43.2523C23.0369 43.3679 23.1836 43.7853 23.0444 44.1879C22.9052 44.5904 22.5366 44.8215 22.2131 44.7097ZM25.0571 62.9813C25.0571 62.5564 24.7448 62.2134 24.3686 62.2134C23.9887 62.2134 23.6764 62.5564 23.6764 62.9813C23.6764 63.4099 23.9887 63.7528 24.3686 63.7528C24.7448 63.7528 25.0571 63.4099 25.0571 62.9813ZM23.6764 45.6155C23.9098 45.375 24.0859 45.0859 24.1918 44.7693C24.2408 44.6251 24.2761 44.4766 24.2972 44.3258L31.4636 39.5063L24.7674 60.4877L23.6764 45.6155ZM35.5754 31.4067L26.4189 40.9115L31.11 37.7582C31.173 37.3337 31.3585 36.9363 31.6442 36.6139C31.9383 36.2676 32.3363 36.0234 32.7803 35.9168L35.5754 31.4067ZM34.3226 36.5319L40.2928 26.9078V26.9115C40.6363 26.9676 40.9883 26.9421 41.3198 26.837C41.7909 26.698 42.1998 26.4033 42.4785 26.002L54.7724 28.7007C54.8272 29.0515 54.9694 29.3833 55.1862 29.666L51.1647 38.1421C50.5194 38.277 49.9758 38.7051 49.6976 39.2976H42.2979C42.0153 38.6767 41.4381 38.237 40.7598 38.1261C40.0816 38.0152 39.3924 38.2479 38.9235 38.7459L34.5032 37.4003C34.5296 37.0996 34.4669 36.7978 34.3226 36.5319ZM40.511 24.4738C40.1085 24.5968 39.8639 24.9658 39.9618 25.2938C40.0633 25.6256 40.4696 25.7896 40.8684 25.6666C41.2709 25.5436 41.5192 25.1746 41.4176 24.8466C41.3198 24.5148 40.9173 24.3471 40.511 24.4738ZM45.4617 24.9733L64.0154 21.6261L57.5186 26.3822C56.6605 26.0815 55.7049 26.3738 55.1674 27.1016L45.4617 24.9733ZM66.2914 21.9877L59.3732 27.0569L78.3521 27.5787L78.3934 27.4371L68.3341 21.7566C67.8711 22.0927 67.2871 22.2211 66.724 22.1107C66.576 22.0843 66.431 22.0431 66.2914 21.9877ZM66.329 20.165C66.3854 19.8221 66.7729 19.6059 67.1867 19.6804C67.6005 19.755 67.8902 20.0904 67.83 20.4259C67.7698 20.7688 67.3861 20.985 66.9723 20.9104C66.5547 20.8359 66.2726 20.5004 66.329 20.165ZM79.349 29.8375C79.0922 29.6803 78.8686 29.4753 78.6906 29.2337L58.8917 28.6895C58.8766 28.806 58.8501 28.9209 58.8127 29.0324L66.803 38.1607C67.7537 37.956 68.7211 38.4291 69.1354 39.3013H77.626C77.8333 38.8639 78.1868 38.511 78.6267 38.3024L79.349 29.8375ZM78.6718 40.2182C78.6718 39.7523 79.0443 39.3721 79.4994 39.3721H79.5032C79.9622 39.3721 80.3383 39.7523 80.3383 40.2182C80.3383 40.6841 79.9622 41.0606 79.4994 41.0606C79.0443 41.0606 78.6718 40.6841 78.6718 40.2182ZM79.8719 27.4445C79.665 27.8024 79.8192 28.2869 80.218 28.518C80.613 28.7566 81.1058 28.6559 81.3089 28.2944C81.5196 27.9365 81.3654 27.4557 80.9666 27.2209C80.5678 26.9861 80.0788 27.0867 79.8719 27.4445ZM80.9553 30.1692L94.5998 47.2667L81.5835 40.043C81.5212 39.248 81.0117 38.5558 80.2669 38.2539L80.9553 30.1692ZM85.9737 32.3684L82.9115 30.3332L92.794 43.0808L87.9863 34.5564C87.5844 34.5254 87.199 34.3848 86.8728 34.1501C86.2333 33.6991 85.8947 32.9946 85.9699 32.3684H85.9737ZM87.6741 33.1101C87.328 32.8641 87.2076 32.4392 87.4032 32.1559L87.407 32.1597C87.5988 31.8726 88.0352 31.8428 88.3851 32.0851C88.7274 32.3274 88.8478 32.756 88.6522 33.0356C88.4566 33.3226 88.0164 33.3524 87.6741 33.1101ZM66.4494 40.2182C66.4494 40.673 66.8068 41.042 67.2619 41.042C67.7161 41.0358 68.0804 40.6682 68.0783 40.2182C68.0825 39.7668 67.7176 39.3969 67.2619 39.3908C66.8063 39.3969 66.4414 39.7668 66.4456 40.2182H66.4494ZM66.3034 58.2588C66.46 58.1008 66.6735 58.0109 66.897 58.009C67.1202 58.0109 67.3334 58.1009 67.4894 58.259C67.6454 58.4171 67.7314 58.6303 67.7284 58.8514C67.7314 59.0728 67.6455 59.2864 67.4896 59.445C67.3337 59.6037 67.1205 59.6945 66.897 59.6975C66.4381 59.6975 66.0619 59.3173 66.0619 58.8514C66.0599 58.6299 66.1468 58.4168 66.3034 58.2588ZM55.9988 28.1005C55.9988 28.5665 56.3712 28.9429 56.8302 28.9429C57.0537 28.941 57.2672 28.8511 57.4238 28.6931C57.5804 28.5351 57.6673 28.322 57.6653 28.1005C57.6653 27.6346 57.2891 27.2544 56.8302 27.2544C56.6067 27.2574 56.3935 27.3482 56.2376 27.5069C56.0817 27.6655 55.9958 27.8791 55.9988 28.1005ZM52.7936 38.5074L56.6082 30.4749C56.9932 30.5136 57.3814 30.4452 57.7293 30.2773L65.4788 39.1261C65.1578 39.6467 65.08 40.2794 65.2653 40.8611C65.4507 41.4429 65.8811 41.9166 66.4456 42.1602V56.7938C66.3221 56.8203 66.2012 56.8577 66.0845 56.9057L53.3692 41.288C53.9257 40.3521 53.677 39.1507 52.7936 38.5074ZM50.7396 40.2182C50.7396 40.6841 51.1158 41.0606 51.5748 41.0606C52.03 41.0606 52.4062 40.6841 52.4062 40.2182C52.4062 39.7523 52.03 39.3721 51.5748 39.3721C51.1088 39.3783 50.7354 39.7565 50.7396 40.2182ZM40.4169 41.042C39.9655 41.042 39.6044 40.673 39.6044 40.2182C39.6044 39.7635 39.9655 39.3908 40.4169 39.3908C40.8684 39.3908 41.2333 39.7598 41.2333 40.2182C41.2333 40.673 40.8684 41.042 40.4169 41.042ZM40.4169 79.7656C40.1944 79.7686 39.9822 79.859 39.827 80.017C39.6718 80.175 39.5863 80.3876 39.5893 80.608C39.5893 81.0739 39.958 81.4504 40.4169 81.4504C40.6404 81.4484 40.854 81.3586 41.0106 81.2006C41.1672 81.0426 41.2541 80.8295 41.2521 80.608C41.2551 80.3863 41.1686 80.1725 41.0117 80.0143C40.8549 79.8561 40.6408 79.7666 40.4169 79.7656ZM32.1182 38.0414C31.8586 37.8141 31.8812 37.3705 32.1558 37.05C32.4379 36.7294 32.8668 36.6549 33.1226 36.886C33.3784 37.1133 33.3596 37.5569 33.0812 37.8737C32.8028 38.198 32.3702 38.2651 32.1182 38.0414ZM26.0427 61.8705C26.2535 62.2032 26.3645 62.5885 26.3624 62.9813C26.3624 63.3913 26.2496 63.7715 26.054 64.0809L39.6044 77.9541V42.1602C38.8534 41.8324 38.3599 41.1055 38.3366 40.2928L33.7396 38.895C33.5967 39.0234 33.4373 39.1325 33.2656 39.2193L26.0427 61.8705ZM70.4859 79.8737C70.1925 79.0723 69.4288 78.4946 68.5297 78.4946C68.348 78.4975 68.1673 78.5226 67.9918 78.5691L54.889 62.4296C55.1407 61.7886 55.0574 61.0658 54.6665 60.4974C54.2755 59.9291 53.627 59.588 52.9328 59.5856C52.3728 59.5906 51.8378 59.8162 51.446 60.2128C51.0542 60.6094 50.8379 61.1442 50.845 61.6991C50.8437 62.4288 51.2219 63.1077 51.8456 63.4957V78.6661C51.3154 78.8978 50.9037 79.334 50.7058 79.8737H42.3731C42.17 79.3295 41.7599 78.8897 41.2333 78.6661V42.1602C41.7635 41.9284 42.1752 41.4922 42.3731 40.9525H49.6186C49.975 41.9401 51.0209 42.5071 52.0525 42.272L64.9484 58.1059C64.8581 58.3407 64.8129 58.5904 64.8129 58.8514C64.8059 59.4056 65.0217 59.9398 65.4126 60.3363C65.8036 60.7328 66.3376 60.9589 66.897 60.9648C68.0612 60.9504 68.9937 60.0048 68.9811 58.8514C68.9851 58.1588 68.6482 57.5079 68.0783 57.1069V42.1602C68.6071 41.9276 69.0173 41.4915 69.2144 40.9525H77.5508C77.7455 41.4929 78.1565 41.9298 78.6869 42.1602V78.6661C78.1568 78.8968 77.7459 79.3336 77.5508 79.8737H70.4859ZM69.4326 95.0814C69.8953 95.0814 70.2715 94.7459 70.2715 94.3359C70.2715 93.9259 69.8953 93.5793 69.4363 93.5793H69.4326C68.9811 93.5793 68.6049 93.9147 68.6049 94.3322C68.6049 94.7497 68.9811 95.0814 69.4326 95.0814ZM68.5259 81.4504C68.0708 81.4504 67.6983 81.0739 67.6983 80.608C67.6941 80.1483 68.0658 79.7718 68.5297 79.7656C68.7532 79.7676 68.9668 79.8575 69.1234 80.0154C69.28 80.1734 69.3669 80.3866 69.3649 80.608C69.3669 80.8301 69.2795 81.0438 69.122 81.2019C68.9646 81.36 68.7501 81.4494 68.5259 81.4504ZM52.0977 61.6991C52.0977 62.165 52.4739 62.5415 52.9328 62.5415C53.3918 62.5415 53.7642 62.165 53.7642 61.6991C53.7642 61.2294 53.3918 60.8567 52.9328 60.8567C52.4739 60.8567 52.0977 61.2294 52.0977 61.6991ZM52.0683 80.0154C52.2249 79.8575 52.4385 79.7676 52.662 79.7656C52.8851 79.7676 53.0983 79.8576 53.2543 80.0157C53.4103 80.1738 53.4964 80.3869 53.4934 80.608C53.4934 81.0739 53.1209 81.4504 52.662 81.4504C52.203 81.4504 51.8268 81.0739 51.8268 80.608C51.8248 80.3866 51.9117 80.1734 52.0683 80.0154ZM53.4745 78.6661C54.4005 79.0686 54.913 80.0608 54.7009 81.0404L68.2175 92.6586C68.3405 92.5877 68.4703 92.529 68.6049 92.4834L67.9128 82.6283C67.0329 82.3418 66.4402 81.5256 66.4456 80.608C66.4456 80.2353 66.5397 79.8886 66.7089 79.5904L53.7567 63.6373C53.6654 63.677 53.5711 63.7094 53.4745 63.7342V78.6661ZM80.0942 80.0143C80.2501 80.1716 80.3366 80.3838 80.3346 80.6043L80.3384 80.608C80.3384 81.0739 79.9622 81.4504 79.5032 81.4504C79.0443 81.4504 78.6681 81.0739 78.6681 80.608C78.6661 80.3866 78.7529 80.1734 78.9095 80.0154C79.0662 79.8575 79.2797 79.7676 79.5032 79.7656C79.7257 79.7676 79.9383 79.8571 80.0942 80.0143ZM21.235 69.3439C21.5735 69.288 21.788 68.9003 21.7165 68.4829C21.6412 68.0617 21.314 67.7672 20.9791 67.8269C20.6406 67.8828 20.4299 68.2741 20.5014 68.6916C20.5691 69.1128 20.9001 69.4073 21.235 69.3439ZM96.0556 48.821C95.954 48.4818 96.097 48.1314 96.3679 48.0457H96.3716C96.6425 47.96 96.951 48.1613 97.0488 48.5042C97.1466 48.8434 97.0111 49.1937 96.7328 49.2795C96.4619 49.3652 96.1572 49.1602 96.0556 48.821Z" fill="white"/>
</svg>
