<svg width="120" height="120" viewBox="0 0 120 120" fill="none" xmlns="http://www.w3.org/2000/svg">
<circle cx="60" cy="60" r="60" fill="black"/>
<path d="M78.1422 33.0672L65.6066 51.6707C64.7398 52.9376 66.4067 54.4712 67.607 53.4043L79.9426 42.669C80.276 42.4023 80.7427 42.6023 80.7427 43.0691V76.6086C80.7427 77.0754 80.1426 77.2754 79.8759 76.942L42.5357 32.2671C41.3354 30.8001 39.6018 30 37.6681 30H36.3345C32.8672 30 30 32.8672 30 36.4012V83.6099C30 87.1439 32.8672 90.0111 36.4012 90.0111C38.6016 90.0111 40.6686 88.8776 41.8689 86.9439L54.4045 68.3404C55.2713 67.0735 53.6044 65.5399 52.4041 66.6068L40.0685 77.2754C39.7351 77.5421 39.2684 77.3421 39.2684 76.8753V43.4025C39.2684 42.9357 39.8685 42.7357 40.1352 43.0691L77.4754 87.744C78.6757 89.211 80.476 90.0111 82.343 90.0111H83.6766C87.2106 90.0111 90.0778 87.1439 90.0778 83.6099V36.4012C90.0778 32.8672 87.2106 30 83.6766 30C81.4095 30 79.3425 31.1335 78.1422 33.0672Z" fill="white"/>
</svg>
