<svg width="120" height="120" viewBox="0 0 120 120" fill="none" xmlns="http://www.w3.org/2000/svg">
<path d="M60 0C93.132 0 120 26.868 120 60C120 93.132 93.132 120 60 120C26.868 120 0 93.132 0 60C0 26.868 26.868 0 60 0Z" fill="black"/>
<path d="M85.7402 51.876C88.4762 38.892 82.4402 32.28 71.0522 32.28C64.2122 32.28 58.5242 34.788 53.3882 39.456L54.5282 34.212C54.5282 34.212 52.7042 33.42 49.0562 33.42C45.0722 33.42 43.1282 34.212 43.1282 34.212L32.1602 85.728C32.1602 85.728 33.7562 86.52 37.7402 86.52C41.3882 86.52 43.5482 85.728 43.5482 85.728L51.4442 48.804C55.4282 44.244 60.9002 41.508 65.9162 41.508C73.2122 41.508 75.7082 45.156 74.3522 51.54L67.0202 85.728C67.0202 85.728 68.7242 86.52 72.6002 86.52C76.3562 86.52 78.4082 85.728 78.4082 85.728L85.7402 51.876Z" fill="white"/>
</svg>
