<svg width="120" height="120" viewBox="0 0 120 120" fill="none" xmlns="http://www.w3.org/2000/svg">
<circle cx="60" cy="60" r="60" fill="#EDF0F4"/>
<path fill-rule="evenodd" clip-rule="evenodd" d="M68.5168 25.7232C72.5985 27.7817 75.3417 31.2885 76.3069 35.6816C76.4524 36.344 76.488 36.9122 76.4844 38.5199C76.4794 40.7671 76.3495 41.6071 75.7011 43.5865C75.389 44.5393 74.4128 46.7562 74.3054 46.7562C74.1119 46.7562 71.5951 45.3432 70.8509 44.8168C69.6162 43.9433 67.7185 42.0432 66.9615 40.9221C64.1261 36.7237 63.7165 31.7028 65.8177 26.9007C66.0065 26.4693 66.3133 25.8651 66.4995 25.5582L66.8381 25L67.2453 25.1436C67.4693 25.2227 68.0414 25.4835 68.5168 25.7232ZM52.7923 27.1073C53.8461 27.2954 55.0334 27.728 55.9863 28.271C58.9562 29.9635 60.7575 32.9388 61.1621 36.8199C61.2625 37.7835 61.2591 37.9586 61.1381 38.0352C60.9192 38.1736 59.0423 38.1426 58.0061 37.9834C56.2054 37.7067 54.6989 37.1448 53.386 36.26C52.5845 35.7198 51.3933 34.5287 50.8532 33.7274C49.6957 32.0097 48.9933 29.746 48.9873 27.7141L48.9853 27.0567L49.304 27.0032C50.1963 26.8533 51.6043 26.8953 52.7923 27.1073ZM55.1651 39.8972C60.9405 40.6111 66.3998 43.9725 70.2342 49.1755C70.5734 49.6356 70.8509 50.0512 70.8509 50.0989C70.8509 50.2222 69.5482 51.2416 68.5545 51.896C61.7327 56.3884 54.1579 57.1389 47.5103 53.9808C44.2536 52.4336 41.2138 49.7882 39.0693 46.6349L38.3848 45.6286L38.8561 45.2082C41.9507 42.4464 46.0218 40.5416 50.1025 39.9459C51.2001 39.7857 54.0418 39.7584 55.1651 39.8972ZM84.1369 52.9431C84.9357 53.0315 86.2227 53.2575 86.6617 53.3866C86.8794 53.4505 86.8881 54.1179 86.6903 55.5809C85.9434 61.105 83.3089 65.9162 79.2311 69.2024C76.4214 71.4666 73.0557 72.8754 68.9879 73.4899C66.9245 73.8017 62.2727 73.674 60.9231 73.2686C60.695 73.2 60.7004 72.8091 60.9505 71.276C61.7761 66.2157 63.9166 61.8277 67.1244 58.62C71.5087 54.2356 77.5621 52.2156 84.1369 52.9431ZM43.4335 57.1436C44.8413 57.4262 46.3248 57.9196 47.6294 58.5392C48.2133 58.8165 48.6912 59.0631 48.6912 59.0871C48.6912 59.1112 48.4721 59.5686 48.2043 60.1034C46.5999 63.3083 44.144 65.9037 41.374 67.3217C38.1988 68.9473 34.7642 69.3229 31.2869 68.4248C29.3103 67.9142 26.9421 66.8002 27.0011 66.4086C27.0168 66.3045 27.2706 65.7194 27.5654 65.1079C29.6373 60.809 33.4089 57.8691 37.9054 57.0477C39.3181 56.7897 41.8931 56.8344 43.4335 57.1436ZM52.4907 63.0083C54.1467 65.0065 55.7805 67.9582 56.6693 70.5574C57.5104 73.0171 57.8269 74.8694 57.8298 77.3484C57.8351 82.0248 56.3074 86.2782 53.2679 90.0498C52.0123 91.6078 49.4875 93.8379 47.9387 94.7571L47.5294 95L46.7304 94.0428C44.0626 90.8475 42.3138 86.846 41.8214 82.8109C41.6709 81.5774 41.7534 78.381 41.9649 77.2512C42.3333 75.2841 42.79 73.8769 43.6362 72.1026C44.9655 69.3152 46.9141 66.7394 49.2629 64.6646C50.2483 63.7942 51.8779 62.5426 52.0259 62.5426C52.0692 62.5426 52.2784 62.7521 52.4907 63.0083ZM86.3547 70.6287C88.3947 70.9859 90.3008 71.9446 91.8193 73.377C92.3754 73.9017 92.4985 74.0685 92.4273 74.2013C92.2198 74.5891 90.9422 75.8584 90.2185 76.3958C87.6209 78.3246 84.4493 78.9483 81.4405 78.122C79.9099 77.7017 77.8494 76.5491 76.6758 75.4567C75.9981 74.8259 75.9859 74.8659 77.2163 73.695C79.8722 71.1675 83.1505 70.0676 86.3547 70.6287ZM40.025 72.4076C40.1295 72.8236 39.9956 75.2794 39.8262 76.0578C39.4961 77.573 38.9531 78.8796 38.1691 80.0448C37.6528 80.8122 36.4503 82.0091 35.6623 82.5403C33.9469 83.6963 31.6808 84.4002 29.6551 84.4062C29.033 84.408 29.001 84.3967 28.9393 84.1503C28.8157 83.6581 28.8751 81.4272 29.0338 80.5975C29.3551 78.9173 30.1179 77.2849 31.1989 75.9635C33.0014 73.7603 36.285 72.2658 39.546 72.1645C39.916 72.153 39.9678 72.1793 40.025 72.4076ZM69.8704 76.9243C73.5768 77.5254 76.992 79.7643 79.1549 83.0111C80.1149 84.4523 81.1957 86.9313 81.2696 87.8616C81.2922 88.1476 81.2597 88.1765 80.607 88.4471C78.8157 89.1899 76.9734 89.5408 74.871 89.5392C73.1183 89.538 72.0216 89.3705 70.4584 88.8651C66.1517 87.4729 62.6706 83.8539 61.0074 79.0397L60.6601 78.0347L61.0164 77.8858C61.6364 77.6267 62.9229 77.2612 63.9532 77.0514C65.9091 76.6532 67.9306 76.6098 69.8704 76.9243Z" fill="#283A79"/>
</svg>
