<svg width="120" height="120" viewBox="0 0 120 120" fill="none" xmlns="http://www.w3.org/2000/svg">
<circle cx="60" cy="60" r="60" fill="#F28F01"/>
<path fill-rule="evenodd" clip-rule="evenodd" d="M68.6151 51.4127L61.2923 37.0466C62.8165 33.7336 63.5785 31.8513 63.5785 31.4184C63.5785 29.8635 62.5524 28.7266 60.5038 28H82.944C80.1785 29.2424 77.7187 32.3482 75.5683 37.3214L68.6151 51.4127ZM57.6139 73.7299L54.1995 80.6569H74.3346C83.4533 80.6569 89.55 78.9515 92.6248 75.5369L81.865 92H26.8397C32.7818 90.8593 38.7766 83.7176 44.8205 70.5638C46.8578 66.5205 48.7253 62.7859 50.4306 59.3675L57.6139 73.7299ZM39.75 37.3214C39.75 45.2348 23.4556 73.3609 19 76H36.3696L49.8949 48.6607L63.5748 76H79.5598C79.2505 75.7929 79.0995 75.2734 79.0995 74.4452C79.0995 70.2362 94.315 34.0574 102 32.0395H83.8645L69.1056 61.8635L53.8902 32.0395H36.3696C38.622 33.696 39.75 35.4579 39.75 37.3214Z" fill="white"/>
</svg>
