<svg width="120" height="120" viewBox="0 0 120 120" fill="none" xmlns="http://www.w3.org/2000/svg">
<circle cx="60" cy="60" r="60" fill="#EDF0F4"/>
<path d="M97.3507 74.3909C97.353 64.7367 97.353 55.0826 97.3507 45.4287C97.3898 44.4416 96.8941 43.4593 96.1019 42.8774C84.5977 34.4717 73.0934 26.0647 61.5889 17.6565C60.885 17.106 59.9774 16.8869 59.0999 17.0556C58.5638 17.1608 58.0806 17.429 57.6502 17.7517C46.2278 26.1005 34.8049 34.4488 23.3814 42.7967C22.5146 43.3992 21.9999 44.3898 22.0051 45.4454C21.9983 55.0971 21.9983 64.7483 22.0051 74.3991C21.9901 75.4445 22.5326 76.459 23.3922 77.0478C34.8145 85.3923 46.2346 93.7386 57.6523 102.087C58.7449 103.021 60.459 103.095 61.5868 102.184C73.0543 93.8108 84.5176 85.4335 95.9766 77.0521C96.8396 76.4706 97.3979 75.4381 97.3498 74.3914" fill="#050708"/>
<path d="M55.6986 23.9654C56.0016 23.6221 56.3089 23.087 56.8414 23.1582C58.6529 23.1689 60.4686 23.1299 62.2797 23.1775C62.5934 23.3723 62.8337 23.6646 63.1019 23.9157C63.0951 25.785 63.0951 27.6549 63.1019 29.5251C62.5629 29.5316 62.0222 29.5556 61.4832 29.5187C61.4505 29.3865 61.3857 29.1269 61.3544 28.9951C61.3544 27.5991 61.4754 26.2013 61.3587 24.8074C60.0275 24.8094 58.6971 24.8094 57.3676 24.8074C57.3611 25.2769 57.359 25.749 57.3547 26.2185C56.7942 26.2185 56.2316 26.2185 55.669 26.2142C55.6729 25.467 55.5905 24.7074 55.6986 23.9654Z" fill="white"/>
<path d="M51.1826 26.2464C51.795 26.2228 52.4074 26.2228 53.022 26.2378C53.0305 28.8239 53.0413 31.4078 53.0155 33.9917C52.431 34.0046 51.8469 34.0046 51.2646 34.0003C51.0702 31.4254 51.2255 28.8303 51.1826 26.2464Z" fill="white"/>
<path d="M66.7609 29.0252C68.3917 29.0037 70.0199 29.0101 71.6498 29.0209C71.6584 29.6182 71.6584 30.2135 71.6498 30.8104C70.019 30.8276 68.3882 30.834 66.7574 30.8061C66.7514 30.2131 66.7514 29.6161 66.7574 29.0252" fill="white"/>
<path d="M56.8721 29.9058C57.53 29.8908 58.1879 29.8929 58.8462 29.8929C59.4757 31.1177 60.2658 32.2605 60.7774 33.5437C60.1735 33.572 59.5676 33.572 58.9638 33.5742C58.2462 32.3627 57.5536 31.137 56.8721 29.9058Z" fill="white"/>
<path d="M63.589 32.0593C64.1581 32.0464 64.7271 32.0485 65.2988 32.0571C66.848 34.4604 68.3539 36.892 69.9148 39.2896C69.9148 40.0192 69.9148 40.7488 69.9019 41.4783C69.7328 41.4478 69.3998 41.3895 69.2333 41.3616C67.9089 39.3875 66.6905 37.343 65.3812 35.3603C65.3597 37.5919 65.3876 39.8235 65.3662 42.0551C64.7731 42.066 64.1787 42.066 63.583 42.0551C63.5757 38.7244 63.565 35.3916 63.589 32.0593Z" fill="white"/>
<path d="M70.6612 33.4115C71.2672 33.3986 71.8753 33.3986 72.4813 33.4158C72.4856 33.987 72.4856 34.5608 72.4813 35.1324C71.8753 35.1474 71.2672 35.1474 70.6634 35.1367C70.6591 34.5628 70.6591 33.9877 70.6634 33.4115" fill="white"/>
<path d="M40.7034 33.9763C41.1815 33.9677 41.66 33.9699 42.1381 33.9741C43.4148 33.8883 44.6894 33.9136 45.9666 33.987C45.9709 34.5411 45.9666 35.0972 45.9623 35.6513C44.074 36.7851 42.2596 38.0425 40.3442 39.1274C39.7795 38.9128 39.3486 38.4609 38.8877 38.0841C40.1408 37.3203 41.3678 36.5152 42.6338 35.7727C41.993 35.7401 41.3506 35.7444 40.7099 35.738C40.6987 35.1492 40.6966 34.5619 40.7034 33.9763Z" fill="white"/>
<path d="M55.8091 34.6342C56.3958 34.617 56.9841 34.6192 57.5687 34.6342C57.5837 35.223 57.5837 35.8092 57.5687 36.398C56.9821 36.4152 56.3956 36.4159 55.8091 36.4001C55.7954 35.8114 55.7954 35.2227 55.8091 34.6342Z" fill="white"/>
<path d="M47.2006 36.3568C48.1401 37.7807 49.0512 39.2244 50.003 40.6397C50.9532 39.2072 51.8707 37.7528 52.8294 36.3268C52.8294 37.2709 52.8921 38.2249 52.8101 39.1682C51.9402 40.6591 50.9339 42.068 49.9966 43.5181C49.0748 42.092 48.0984 40.696 47.2243 39.242C47.1251 38.285 47.1964 37.3177 47.2006 36.3568Z" fill="white"/>
<path d="M73.2067 36.5971C76.0263 36.5843 78.8461 36.585 81.6662 36.5993C81.6662 37.1705 81.6662 37.7443 81.6636 38.3159C78.8458 38.3225 76.0268 38.3232 73.2067 38.318C73.2041 37.7443 73.2024 37.1692 73.2067 36.5971Z" fill="white"/>
<path d="M58.2805 38.8304C58.8475 38.8197 59.4165 38.8197 59.986 38.8261C60.0143 41.3277 59.986 43.8318 60.001 46.3363C59.7371 46.5874 59.4753 46.8427 59.2178 47.0981C57.2634 47.1195 55.3095 47.0981 53.3573 47.1088C53.0998 46.862 52.8359 46.626 52.6041 46.3599C52.5046 45.5939 52.578 44.8124 52.5758 44.0425C53.1194 44.0382 53.6647 44.0382 54.2117 44.0425C54.2268 44.4841 54.2246 44.9253 54.2182 45.3669C55.5623 45.5184 56.9167 45.4098 58.2672 45.4424C58.2741 43.2387 58.2526 41.0316 58.2805 38.8304Z" fill="white"/>
<path d="M85.5426 46.2252C85.5249 44.3369 85.5249 42.4476 85.5426 40.5574C86.1335 40.5445 86.7241 40.5423 87.3171 40.5574C87.3363 42.4456 87.3363 44.3356 87.3171 46.2273C86.7258 46.2372 86.1353 46.235 85.5443 46.2273" fill="white"/>
<path d="M77.1218 41.9839C78.2376 41.9731 79.3594 41.7998 80.4692 41.9796C81.1962 44.3494 81.8197 46.7556 82.5424 49.1297C81.9712 49.134 81.3974 49.134 80.8258 49.134C80.2803 47.2925 79.8151 45.4291 79.2525 43.5915C78.9388 43.5958 78.6251 43.6001 78.311 43.6022C77.8436 45.457 77.281 47.2835 76.7982 49.1314C76.2223 49.1334 75.6466 49.1327 75.0713 49.1293C75.7798 46.7556 76.4446 44.3657 77.1218 41.9839Z" fill="white"/>
<path d="M29.4176 42.8885C31.9886 42.8735 34.5618 42.8671 37.1325 42.8885C37.1475 43.4795 37.1475 44.0678 37.1346 44.6588C34.5597 44.6824 31.9882 44.6759 29.415 44.6609C29.4069 44.07 29.4069 43.4756 29.4176 42.8864" fill="white"/>
<path d="M38.345 42.8907C38.9295 42.8864 39.5136 42.8842 40.1002 42.8907C40.1131 43.4837 40.1131 44.0786 40.1002 44.6716C39.5136 44.6781 38.9295 44.6759 38.345 44.6716C38.3381 44.0786 38.3381 43.4876 38.345 42.895" fill="white"/>
<path d="M44.8068 42.9636C45.3801 42.9593 45.956 42.9615 46.5294 42.9679C46.5466 44.3412 46.538 45.7184 46.538 47.0929C45.9556 47.0972 45.3737 47.0994 44.7939 47.0929C44.7879 45.7196 44.7699 44.3391 44.8068 42.9615" fill="white"/>
<path d="M89.7495 44.1974C90.4095 44.1846 91.0717 44.1867 91.7317 44.1846C92.3853 45.3965 93.1797 46.5449 93.6663 47.8397C93.0655 47.8611 92.4608 47.8633 91.8592 47.8658C91.1476 46.6475 90.47 45.4089 89.749 44.1974" fill="white"/>
<path d="M63.7281 45.6673C64.3004 45.663 64.8726 45.663 65.4448 45.6673C65.4576 47.55 65.4486 49.4327 65.4486 51.3158C64.8731 51.3201 64.2994 51.3222 63.7243 51.3222C63.7243 49.4378 63.7213 47.5508 63.7281 45.6651" fill="white"/>
<path d="M69.7649 47.9568C69.758 47.368 69.758 46.7779 69.7649 46.1866C70.3426 46.178 70.9236 46.178 71.5026 46.193C71.5026 46.7818 71.5068 47.3702 71.4983 47.959C70.9215 47.9611 70.3396 47.959 69.7628 47.959" fill="white"/>
<path d="M37.1025 50.5665C38.4896 49.5537 39.9701 48.6731 41.3941 47.7165C42.3356 47.7272 43.2746 47.7165 44.2162 47.7294C42.818 48.7293 41.3314 49.5927 39.9246 50.5794C41.3705 51.4883 42.788 52.4406 44.2248 53.3581C43.2575 53.3753 42.2901 53.3646 41.3228 53.3667C39.9268 52.4192 38.4767 51.5458 37.1025 50.5665" fill="white"/>
<path d="M85.5446 48.9241C86.1373 48.9112 86.7304 48.9091 87.3256 48.9241C87.3402 49.5172 87.3385 50.1077 87.3213 50.7008C86.7304 50.7137 86.1377 50.7115 85.5468 50.7008C85.5339 50.1097 85.5339 49.5189 85.5468 48.9284" fill="white"/>
<path d="M24.663 49.1666C27.6242 49.1494 30.5905 49.143 33.5555 49.1709C33.5619 49.7314 33.5619 50.294 33.5641 50.8566C32.2397 51.7243 30.9153 52.5964 29.5541 53.4015C28.9786 53.1916 28.5434 52.7148 28.052 52.3651C28.7854 51.902 29.53 51.454 30.2407 50.9583C28.3816 50.9497 26.5229 50.969 24.6617 50.9476C24.6531 50.3545 24.6531 49.7608 24.6617 49.1666" fill="white"/>
<path d="M50.0181 50.8849C52.5827 50.8956 55.1469 50.872 57.7094 50.8956C57.7717 51.4789 57.7638 52.0674 57.6858 52.6487C55.1297 52.6595 52.5763 52.6509 50.0228 52.653C50.0182 52.0617 50.0167 51.4723 50.0181 50.8849Z" fill="white"/>
<path d="M59.384 50.8957C60.0007 50.8828 60.6152 50.8828 61.2323 50.9042C61.2343 51.4799 61.2335 52.0541 61.2297 52.6269C60.6152 52.644 59.9985 52.644 59.3844 52.6333C59.3784 52.0535 59.3784 51.4746 59.3844 50.8957" fill="white"/>
<path d="M67.4504 53.3757C67.3702 52.7676 67.9937 52.456 68.3139 52.0385C69.067 52.0385 69.8198 52.0342 70.5734 52.0492C70.5905 52.6161 70.5905 53.183 70.5815 53.7525C70.106 53.7611 69.6271 53.7611 69.1516 53.7675V57.8059C71.3652 57.8209 73.5792 57.7973 75.7932 57.8187C75.7996 58.3921 75.7996 58.9659 75.7846 59.5353C73.2916 59.5525 70.7961 59.5375 68.3031 59.5439C67.9851 59.1285 67.3749 58.8144 67.4526 58.211C67.4414 56.5999 67.4414 54.9882 67.4526 53.3757" fill="white"/>
<path d="M75.8445 52.8388C76.4547 52.8174 77.0693 52.8174 77.6817 52.8388C77.6883 53.4231 77.6883 54.0074 77.6817 54.5919C77.0693 54.6134 76.459 54.6134 75.8466 54.5919C75.8402 54.0053 75.8402 53.4212 75.8466 52.8346" fill="white"/>
<path d="M81.6776 52.8389C84.2572 52.8041 86.8347 52.8281 89.4143 52.826C89.4186 53.4212 89.4186 54.0186 89.4118 54.6134C86.8343 54.6134 84.2572 54.6349 81.6793 54.6027C81.6707 54.0139 81.6707 53.426 81.6793 52.8389" fill="white"/>
<path d="M45.9436 54.8971C47.3894 54.8949 48.8326 54.8971 50.278 54.8949C50.2909 55.4957 50.2909 56.0966 50.278 56.6974C48.8344 56.6997 47.3915 56.6997 45.9496 56.6974C45.9244 56.0966 45.9231 55.4965 45.9457 54.8971" fill="white"/>
<path d="M55.4762 54.8971C57.7443 54.8949 60.0123 54.8971 62.28 54.8928C63.104 54.764 63.9292 55.6198 63.8249 56.4334C63.8201 58.0994 63.8192 59.7672 63.8224 61.4369C63.5322 61.7506 63.2404 62.0601 62.9482 62.3716C62.1972 62.3716 61.4487 62.3716 60.6977 62.3631C60.6914 61.7908 60.6907 61.2195 60.6955 60.649C61.165 60.6426 61.6354 60.6383 62.1045 60.6318C62.1045 59.3204 62.1045 58.0067 62.1087 56.6952C59.9055 56.4982 57.6855 56.6626 55.4758 56.6042C55.4703 56.032 55.4703 55.463 55.4758 54.8971" fill="white"/>
<path d="M39.4915 55.4249C40.5995 55.4185 41.7055 55.4121 42.8135 55.4292C43.4843 57.8248 44.2048 60.2074 44.8391 62.6141C44.2812 62.6141 43.7233 62.6141 43.1684 62.6184C42.5994 60.77 42.1599 58.8873 41.5733 57.048C41.2574 57.0673 40.9416 57.0909 40.6253 57.1149C40.2056 58.9676 39.606 60.7722 39.1473 62.6163C38.5739 62.6163 38.0002 62.6163 37.4307 62.6098C38.113 60.2147 38.7924 57.8162 39.4906 55.4249" fill="white"/>
<path d="M87.832 57.5891C89.7632 57.5698 91.697 57.5501 93.6256 57.5956C94.1127 57.896 94.662 58.3835 94.556 59.0238C94.556 60.3971 94.5474 61.7742 94.556 63.1488C94.5389 63.8089 94.5689 64.4689 94.5496 65.1289C94.58 65.6679 94.4329 66.198 94.4637 66.7391C93.914 66.7391 93.3643 66.7391 92.8145 66.7327C92.821 64.2526 92.8145 61.7704 92.8188 59.2903C91.47 59.2534 90.1224 59.2817 88.774 59.271C88.7715 59.7319 88.7715 60.1928 88.7633 60.6559C88.196 60.6645 87.6288 60.6673 87.0617 60.6645C87.051 59.9049 87.0536 59.1431 87.0553 58.3835C87.3166 58.1217 87.5741 57.8574 87.8316 57.5891" fill="white"/>
<path d="M32.8758 57.6582H34.6696C34.6739 59.5431 34.6696 61.4258 34.6696 63.3089H32.8672C32.8758 61.4262 32.8693 59.5414 32.8736 57.6582" fill="white"/>
<path d="M27.2468 59.2341C27.8356 59.2255 28.424 59.2427 29.0106 59.2817C29.0172 59.8399 29.0172 60.399 29.0106 60.9589C28.4175 60.9653 27.8249 60.9674 27.2318 60.9589C27.2253 60.3829 27.2275 59.8096 27.2468 59.2362" fill="white"/>
<path d="M48.3256 69.5634C48.3102 66.2306 48.3095 62.8975 48.3235 59.5641C48.908 59.5555 49.4921 59.5555 50.0766 59.5684C51.4499 61.7824 52.8661 63.9724 54.2685 66.1709C54.8745 66.952 54.511 67.9996 54.6084 68.9085C54.405 68.9085 54.2016 68.9128 54.0003 68.9171C52.7386 66.9129 51.4207 64.9436 50.213 62.9089C49.9946 65.1208 50.174 67.352 50.1027 69.5724C49.5084 69.5784 48.9161 69.5784 48.3256 69.5634Z" fill="white"/>
<path d="M56.1182 60.846C56.713 60.8331 57.3081 60.8317 57.9034 60.8417C57.912 62.2983 57.9099 63.7548 57.9034 65.2109C57.3061 65.2217 56.7108 65.2217 56.1139 65.2066C56.104 63.7527 56.1014 62.2983 56.1139 60.846" fill="white"/>
<path d="M66.9075 62.7939C67.4899 62.7896 68.0739 62.7875 68.6584 62.7939C68.6693 63.387 68.6693 63.98 68.6584 64.5728C68.0739 64.575 67.4903 64.575 66.9075 64.5728C66.9006 63.982 66.9006 63.3897 66.9075 62.7961" fill="white"/>
<path d="M72.5832 62.8716C74.3968 62.848 76.2104 62.8609 78.0261 62.8652C78.0995 63.3952 78.145 63.9342 78.0931 64.4711C77.9214 64.8195 77.5107 64.6809 77.2034 64.7135C75.6585 64.668 74.1088 64.8024 72.5746 64.6277C72.5639 64.0402 72.5639 63.4561 72.5832 62.8716Z" fill="white"/>
<path d="M79.9004 63.1227C80.4849 63.1141 81.0754 63.075 81.6599 63.1656C81.7161 65.2126 81.6835 67.2666 81.6728 69.3162C81.082 69.3271 80.4919 69.3271 79.9025 69.3162C79.8828 67.2525 79.8828 65.1888 79.9025 63.1248" fill="white"/>
<path d="M63.7278 64.3354C64.299 64.3354 64.8728 64.3311 65.4444 64.3354C65.4509 64.9242 65.4526 65.5147 65.4444 66.1078C64.8722 66.1164 64.3 66.1164 63.7278 66.1078C63.7235 65.5173 63.7235 64.9242 63.7278 64.3333" fill="white"/>
<path d="M36.2129 65.5941C38.2514 65.3736 40.3096 65.5487 42.3567 65.4839C42.8842 65.4771 43.4116 65.5009 43.9364 65.5551C43.945 66.1503 43.9428 66.7477 43.9364 67.3425C41.3615 67.3382 38.7921 67.3554 36.2215 67.3339C36.206 66.7541 36.206 66.1752 36.2108 65.5941" fill="white"/>
<path d="M24.6652 66.9104C24.9446 66.6379 25.2257 66.3628 25.5072 66.0903C26.2518 66.086 26.9959 66.0838 27.7388 66.0988C27.7474 66.6615 27.7474 67.2262 27.7431 67.7888C27.28 67.7996 26.8191 67.8017 26.3561 67.806C26.3668 69.148 26.3496 70.4895 26.3668 71.8315C28.5589 71.8379 30.7515 71.8164 32.9436 71.8422C32.9543 72.3962 32.9543 72.9481 32.95 73.5022C32.4067 73.5043 31.8612 73.5065 31.3192 73.5065C29.3739 73.4871 27.426 73.5391 25.4827 73.4828C25.1583 73.2987 24.8313 72.9958 24.6841 72.652C24.633 70.7393 24.6781 68.824 24.6674 66.9104" fill="white"/>
<path d="M70.1448 68.0262C70.437 67.7515 70.7314 67.4764 71.0323 67.2082C72.9278 67.2232 74.8238 67.2082 76.7194 67.2146C77.0052 67.4871 77.2906 67.7622 77.5777 68.0326C77.58 69.9089 77.58 71.7844 77.5777 73.6592C77.0001 73.6635 76.422 73.6592 75.8465 73.6442C75.8465 72.0666 75.8336 70.4912 75.8529 68.9136C74.5226 68.9115 73.1978 68.9136 71.8708 68.9115C71.873 69.3917 71.8708 69.8724 71.8601 70.3526C71.2911 70.3612 70.722 70.3612 70.1547 70.359C70.1362 69.5814 70.1405 68.8046 70.1426 68.0262" fill="white"/>
<path d="M82.3151 71.3379C84.418 69.9681 86.5419 68.6343 88.6623 67.2953C89.1687 67.6331 89.6665 67.988 90.16 68.3429C88.634 69.3156 87.1091 70.2859 85.5853 71.2538C87.825 71.2774 90.0652 71.2538 92.3071 71.2667C92.3114 71.8619 92.3114 72.4593 92.3071 73.0541C88.978 73.065 85.6495 73.065 82.3216 73.0541C82.313 72.4803 82.313 71.907 82.3173 71.3375" fill="white"/>
<path d="M58.5166 71.6774C60.6267 70.2728 62.8038 68.9699 64.9136 67.5657C65.4152 67.912 65.9113 68.2648 66.422 68.5956C64.9629 69.6213 63.4141 70.5152 61.9271 71.504C64.154 71.5431 66.3808 71.4997 68.6077 71.5276C68.6227 72.14 68.6227 72.7546 68.6077 73.367C65.2749 73.3863 61.9417 73.3734 58.6084 73.3734C58.5226 72.8116 58.5226 72.2426 58.5187 71.6752" fill="white"/>
<path d="M36.611 70.1625C37.5371 71.5787 38.4658 72.9949 39.3812 74.4149C40.3635 73.0125 41.2424 71.5396 42.2162 70.1299C42.2355 71.0843 42.2205 72.0409 42.229 72.9953C41.2596 74.4149 40.3721 75.8908 39.3769 77.2911C38.4551 75.8844 37.5611 74.4587 36.6003 73.0777C36.5908 72.1061 36.581 71.1324 36.611 70.1625Z" fill="white"/>
<path d="M46.7618 73.7961C46.7403 73.1902 46.7382 72.5842 46.7725 71.9804C47.3549 71.9739 47.9411 71.9761 48.5234 72.0233C48.5363 72.6138 48.5363 73.2046 48.5234 73.7957C47.9381 73.8004 47.3514 73.8026 46.7639 73.7957" fill="white"/>
<path d="M55.0133 74.6707C55.6042 74.6643 56.1969 74.6621 56.7879 74.6707C56.8029 76.8714 56.7879 79.0726 56.7964 81.2733C56.3767 81.2904 55.9566 81.3102 55.5369 81.3488C55.4025 81.3226 55.1343 81.2754 55 81.2514C55.0133 79.0592 54.9893 76.865 55.0133 74.6729" fill="white"/>
<path d="M67.2377 76.0513C68.3535 76.0299 69.4662 76.0449 70.5812 76.0385C71.265 78.434 71.9496 80.8297 72.6351 83.2255C72.0596 83.2255 71.4837 83.2255 70.9103 83.2126C70.4211 81.3818 69.8911 79.5618 69.3933 77.7332C69.0817 77.7139 68.7702 77.7006 68.4586 77.6855C67.9436 79.5335 67.4301 81.381 66.9179 83.2281C66.3424 83.2281 65.7687 83.2281 65.1953 83.2195C65.8961 80.8347 66.5931 78.4499 67.2377 76.0526" fill="white"/>
<path d="M41.9716 80.0201C44.0946 78.6567 46.2133 77.2847 48.3659 75.9668C48.8616 76.3152 49.3616 76.6534 49.8525 77.01C48.3119 77.9688 46.8012 78.9773 45.2451 79.9098C47.5003 79.9527 49.7573 79.9034 52.0146 79.936C52.0253 80.5291 52.0275 81.1218 52.0103 81.7148C48.6668 81.7256 45.3232 81.741 41.9797 81.7084C41.963 81.1454 41.9651 80.5827 41.9716 80.0201Z" fill="white"/>
<path d="M59.5078 76.4019C60.1294 76.4087 60.7507 76.3711 61.3669 76.2895C62.0965 77.4911 62.9573 78.6829 63.332 80.0506C62.7496 80.0549 62.1677 80.0549 61.5879 80.0592C60.903 78.8344 60.2096 77.6153 59.5078 76.4019Z" fill="white"/>
<path d="M84.0854 77.1353C84.6935 77.116 85.3038 77.116 85.9136 77.1289C85.9162 77.7108 85.9162 78.2938 85.9136 78.8777C85.3038 78.8927 84.6953 78.8927 84.0871 78.867C84.0764 78.2889 84.0764 77.7134 84.0871 77.1353" fill="white"/>
<path d="M79.6039 81.7925C80.3399 80.6089 81.1274 79.4597 81.8677 78.2782C81.8891 79.1545 81.9024 80.0334 81.8805 80.9119C81.902 81.2411 81.6621 81.4964 81.5085 81.7625C80.6931 82.968 79.9112 84.1971 79.1108 85.4103C78.1478 83.9735 77.2152 82.5212 76.2629 81.0758C76.2586 80.115 76.25 79.1541 76.2737 78.1954C77.2083 79.5957 78.0915 81.0325 79.0481 82.4195C79.3181 82.3054 79.4395 82.0157 79.606 81.7925" fill="white"/>
<path d="M34.3135 80.0897C35.8739 80.0377 37.4365 80.0635 38.999 80.0746C39.0076 80.6523 39.0445 81.2333 38.9707 81.8101C37.421 81.8857 35.8654 81.8492 34.3157 81.8209C34.3092 81.2432 34.3092 80.6673 34.3135 80.0897Z" fill="white"/>
<path d="M53.3356 83.8619C55.8371 83.825 58.337 83.8619 60.8385 83.8426C61.1246 84.1287 61.4107 84.4165 61.6968 84.706C61.6861 86.6171 61.6904 88.5302 61.6925 90.4451C61.4416 90.7069 61.1934 90.9717 60.9479 91.2395C60.1471 91.2566 59.3463 91.2588 58.5447 91.2352C58.5554 90.694 58.4863 90.1421 58.6159 89.6121C59.0682 89.5645 59.5227 89.5817 59.9793 89.5774C59.9836 88.238 59.9793 86.9003 59.9793 85.5631C57.7632 85.5502 55.5449 85.5914 53.3313 85.5416C53.3245 84.9811 53.3245 84.4212 53.3313 83.8619" fill="white"/>
<path d="M41.3187 84.4979C41.9029 84.4893 42.488 84.4908 43.0739 84.5022C43.0825 85.0861 43.0832 85.6719 43.0761 86.2596C42.4873 86.2682 41.9008 86.2689 41.3166 86.2617C41.3085 85.6729 41.3085 85.085 41.3166 84.4979" fill="white"/>
<path d="M72.2692 85.4433C72.9314 84.8854 73.5331 85.8154 74.1 86.0871C74.1 86.139 74.1 86.245 74.1 86.2969C72.6199 87.2514 71.1049 88.1539 69.657 89.1581L70.4968 89.1517C70.9423 89.1517 71.3896 89.1567 71.8388 89.1667C71.8431 89.7512 71.8431 90.3374 71.8345 90.9219C70.0123 90.9481 68.1901 90.9412 66.3679 90.9262C66.331 90.3743 66.325 89.8203 66.3203 89.2705C68.2657 87.9402 70.2956 86.7385 72.2671 85.4433" fill="white"/>
<path d="M44.6061 87.0664C46.9716 87.0578 49.3392 87.0449 51.7043 87.0728C51.7086 87.6547 51.7086 88.2377 51.7043 88.8216C49.3366 88.8564 46.9712 88.8409 44.6039 88.8302C44.5932 88.2418 44.5954 87.653 44.6039 87.0664" fill="white"/>
<path d="M50.9102 91.5592C51.5766 91.5528 52.2431 91.5506 52.91 91.5635C53.5267 92.7904 54.3468 93.9204 54.821 95.2164C54.2236 95.2491 53.6284 95.2491 53.0315 95.2533C52.3019 94.035 51.62 92.7874 50.9102 91.5592Z" fill="white"/>
<path d="M62.7232 93.4247C63.3056 93.4204 63.8875 93.429 64.4673 93.4676C64.478 94.05 64.4738 94.6341 64.4004 95.2143C63.8442 95.2166 63.2894 95.2166 62.7361 95.2143C62.7147 94.6135 62.7147 94.0199 62.7228 93.4247" fill="white"/>
<path d="M58.6661 99.2161C58.6661 97.857 58.6356 96.4957 58.6876 95.1366C59.2742 95.1366 59.8626 95.1692 60.4471 95.2224C60.4537 96.5534 60.4537 97.885 60.4471 99.2174C59.8531 99.2266 59.2595 99.2266 58.6661 99.2174" fill="white"/>
</svg>
