<svg width="120" height="120" viewBox="0 0 120 120" fill="none" xmlns="http://www.w3.org/2000/svg">
<circle cx="60" cy="60" r="60" fill="#EDF0F4"/>
<path fill-rule="evenodd" clip-rule="evenodd" d="M88.6189 50.0845C85.0063 48.1577 80.6711 48.1577 77.2992 50.0845L60.1992 59.9592L77.2992 69.8338C80.9119 71.7606 85.2471 71.7606 88.6189 69.8338C92.2316 67.907 94.3992 64.0535 94.3992 59.9592C94.3992 55.8648 92.2316 52.0113 88.6189 50.0845Z" fill="#050505"/>
<path fill-rule="evenodd" clip-rule="evenodd" d="M31.7803 50.0845C28.1676 52.0113 26 55.8648 26 59.9592C26 64.0535 28.1676 67.6662 31.7803 69.8338C35.393 71.7606 39.7282 71.7606 43.1 69.8338L60.2 59.9592L43.1 50.0845C39.4873 48.1577 35.1521 48.1577 31.7803 50.0845Z" fill="#050505"/>
<path fill-rule="evenodd" clip-rule="evenodd" d="M50.3259 88.138C52.2527 91.7507 56.1062 93.6775 60.2006 93.6775C64.2949 93.6775 68.1485 91.5099 70.0752 88.138C72.002 84.5254 72.002 80.431 70.0752 76.8183L60.2006 59.9592L50.3259 76.8183C48.3992 80.431 48.3992 84.5254 50.3259 88.138Z" fill="#050505"/>
<path fill-rule="evenodd" clip-rule="evenodd" d="M70.0752 31.5394C68.1485 28.1676 64.2949 26 60.2006 26C56.1062 26 52.2527 28.1676 50.3259 31.5394C48.3992 35.1521 48.3992 39.2465 50.3259 42.8592L60.2006 59.7183L70.0752 42.8592C72.002 39.4873 72.002 35.1521 70.0752 31.5394Z" fill="#050505"/>
</svg>
