<svg width="120" height="120" viewBox="0 0 120 120" fill="none" xmlns="http://www.w3.org/2000/svg">
<path fill-rule="evenodd" clip-rule="evenodd" d="M60 0C93.1371 0 120 26.8629 120 60C120 93.1371 93.1371 120 60 120C26.8629 120 0 93.1371 0 60C0 26.8629 26.8629 0 60 0Z" fill="#0D251D"/>
<path d="M33.3189 67.8583L25.488 60.0308L60.0138 25.5051L67.8446 33.336L33.3189 67.8583Z" fill="#0BC98D"/>
<path d="M59.9864 94.5291L52.1589 86.6982L86.6812 52.176L94.5121 60.0034L59.9864 94.5291Z" fill="#0BC98D"/>
<path d="M59.6743 94.2137L25.8035 60.3429L33.6343 52.5154L67.5052 86.3829L59.6743 94.2137Z" fill="#0BC98D"/>
<path d="M73.128 54.2846L52.1829 33.336L60.0137 25.5051L80.9589 46.4537L73.128 54.2846Z" fill="#0BC98D"/>
<path d="M59.431 67.9817L51.6001 60.1508L72.5452 39.2023L80.3761 47.0331L59.431 67.9817Z" fill="#0BC98D"/>
</svg>
