<svg width="120" height="120" viewBox="0 0 120 120" fill="none" xmlns="http://www.w3.org/2000/svg">
<circle cx="60" cy="60" r="60" fill="#82BD39"/>
<path d="M54.5112 73.1L60.5 80.99V98L38 88.0137V44.0713C38 43.4225 38.2887 42.8037 38.795 42.3725L41.3563 40.1787C41.8549 39.7474 42.51 39.5418 43.1657 39.6107C43.8214 39.6796 44.4194 40.0169 44.8175 40.5425L65.3113 67.4075L76.6325 74.33V37.28L66.6275 32.2887L66.14 55.5238L60.845 48.5L60.605 23L83 33.4213V77.1613L77.9113 81.3537L61.8838 72.4025L44.0938 49.0662L43.85 84.5187L54.4438 89.945L54.5112 73.1Z" fill="white"/>
</svg>
