<svg width="120" height="120" viewBox="0 0 120 120" fill="none" xmlns="http://www.w3.org/2000/svg">
<circle cx="60" cy="60" r="60" fill="#EDF0F4"/>
<path d="M81.1688 34.0289L74.4957 37.1927C74.4681 37.2066 74.4266 37.2342 74.4128 37.2618C74.3852 37.2895 74.3713 37.3171 74.3575 37.3585C74.3437 37.4 74.3437 37.4276 74.3437 37.4691C74.3437 37.5105 74.3575 37.5381 74.3713 37.5796L84.5123 58.9529C88.284 66.9109 87.2755 72.9347 81.5418 75.6703C76.8997 77.867 72.9069 76.3334 69.7844 70.9728L57.7645 45.6481C52.9013 35.3828 46.2696 32.6611 38.3945 36.4052C33.2826 38.8368 30.3122 43.1751 30.3674 48.6876C30.3674 48.7567 30.3536 48.812 30.3122 48.8672C30.2707 48.9225 30.2155 48.9501 30.1464 48.964C30.0773 48.9778 30.022 48.9778 29.953 48.9501C29.8977 48.9225 29.8424 48.8811 29.8148 48.812L27.1898 43.2856C27.1759 43.258 27.1483 43.2165 27.1207 43.2027C27.093 43.1751 27.0654 43.1612 27.024 43.1474C26.9963 43.1198 26.9687 43.1198 26.9273 43.1198C26.8858 43.1198 26.8582 43.1336 26.8167 43.1474L20.1574 46.3113C20.0883 46.3389 20.0331 46.3942 20.0193 46.4771C19.9916 46.5462 19.9916 46.6291 20.0331 46.6981L38.4498 85.5349C38.4774 85.604 38.5465 85.6592 38.6156 85.6868C38.6847 85.7145 38.7675 85.7145 38.8366 85.673L45.5098 82.5092C45.5374 82.4954 45.5788 82.4677 45.5926 82.4401C45.6203 82.4125 45.6341 82.3848 45.6479 82.3434C45.6617 82.3019 45.6617 82.2743 45.6617 82.2329C45.6617 82.1914 45.6479 82.1638 45.6341 82.1223L35.7695 61.3431C31.749 52.8601 32.5089 46.7258 38.657 43.8106C43.3821 41.5724 47.0571 43.0783 50.3592 48.8258C50.3592 48.8258 50.373 48.8396 50.373 48.8534L62.2685 73.9156C66.8554 83.5868 73.9845 86.9027 81.5004 83.3381C87.3169 80.5749 89.7347 76.4301 89.5827 70.959C89.5827 70.8899 89.5966 70.8347 89.638 70.7794C89.6795 70.7241 89.7347 70.6965 89.8038 70.6827C89.8729 70.6689 89.9281 70.6689 89.9972 70.6965C90.0525 70.7241 90.1077 70.7656 90.1354 70.8347L92.7881 76.4163C92.8019 76.444 92.8295 76.4854 92.8571 76.4992C92.8848 76.5269 92.9124 76.5407 92.9538 76.5545C92.9953 76.5683 93.0229 76.5683 93.0644 76.5683C93.1058 76.5683 93.1335 76.5545 93.1749 76.5407L99.848 73.3768C99.8757 73.363 99.9171 73.3354 99.9309 73.3077C99.9586 73.2801 99.9724 73.2525 99.9862 73.211C100 73.1696 100 73.1419 100 73.1005C100 73.059 99.9862 73.0314 99.9724 72.99L81.5418 34.167C81.5142 34.098 81.4451 34.0427 81.3761 34.0151C81.307 33.9874 81.2241 34.0012 81.1688 34.0289Z" fill="#1E65F3"/>
</svg>
