<svg width="120" height="120" viewBox="0 0 120 120" fill="none" xmlns="http://www.w3.org/2000/svg">
<circle cx="60" cy="60" r="60" fill="#008FBB"/>
<path fill-rule="evenodd" clip-rule="evenodd" d="M56.9914 62.6654C58.9041 62.6654 60.4547 64.0828 60.4547 65.8308C60.4547 67.5788 58.9041 69 56.9914 69H50.0684C49.5168 69.0013 48.9717 68.8793 48.4725 68.6428L28.2809 56.3308H22.4634C20.5506 56.3308 19 54.9134 19 53.1654C19 51.4174 20.5468 50.0001 22.4634 50.0001H29.3863C30.096 49.9974 30.7915 50.2006 31.3896 50.5852L51.1285 62.6692H56.9914V62.6654ZM88.2975 62.6654H81.3745V62.6692H78.7336L58.9947 50.5852C58.4288 50.2166 57.7384 50.0001 56.9914 50.0001H50.0684C48.1519 50.0001 46.605 51.4174 46.605 53.1654C46.605 54.9134 48.1556 56.3308 50.0684 56.3308H55.886L76.0776 68.6428C76.5767 68.8795 77.1218 69.0015 77.6735 69H88.2975C90.214 69 91.7608 67.5788 91.7608 65.8308C91.7608 64.0828 90.2102 62.6654 88.2975 62.6654ZM95.0733 59.5C95.0733 61.248 96.6239 62.6654 98.5366 62.6654C100.453 62.6654 102 61.248 102 59.5V53.1654C102 51.4174 100.449 50.0001 98.5366 50.0001H77.6735C75.7607 50.0001 74.2101 51.4174 74.2101 53.1654C74.2101 54.9134 75.7607 56.3308 77.6735 56.3308H95.0733V59.5ZM29.3863 62.6654H22.4634C20.5468 62.6654 19 64.0866 19 65.8346C19 67.5826 20.5506 69 22.4634 69H29.3863C31.2991 69 32.8497 67.5826 32.8497 65.8346C32.8497 64.0828 31.2991 62.6654 29.3863 62.6654Z" fill="white"/>
</svg>
