<svg width="120" height="120" viewBox="0 0 120 120" fill="none" xmlns="http://www.w3.org/2000/svg">
<circle cx="60" cy="60" r="60" fill="#164B79"/>
<path fill-rule="evenodd" clip-rule="evenodd" d="M52.2969 70.0044L49.9466 74.9918H44.733L58.8912 45L68.3338 64.9983H62.9957L58.7705 56.3173L54.5378 65.1446L52.2969 70.0044ZM72.8722 74.8793L83.9256 60.0672L72.7929 45.1425H78.8855L86.9625 56.0548L84.0237 60.0672L86.9625 64.0796L78.8893 74.9918H67.7114L65.3498 70.0044H70.5634L72.8722 74.8793ZM86.9625 55.9273L89.9465 60.0034L86.9663 64.0833L95.0394 74.9956H101L89.9465 60.0034L101 45.015H95.0394L86.9625 55.9273ZM46.325 60.0072C46.4414 56.0538 44.9684 52.2172 42.2318 49.3462H42.2281C39.6624 46.5286 35.9969 44.9509 32.1743 45.0187C29.2034 44.9718 26.3074 45.9468 23.9767 47.7787L27.4474 51.4536C28.8486 50.5532 30.4913 50.0956 32.1592 50.1411C34.7131 50.0894 37.1635 51.1431 38.8743 53.0286C40.6409 54.9795 41.6144 57.5137 41.6056 60.1384C41.6804 62.7729 40.6993 65.3291 38.8781 67.2445C37.1201 69.1832 34.6981 70.2819 32.163 70.2819C29.5919 70.2649 27.1498 69.1602 25.4479 67.2445C22.4037 63.8744 21.8547 58.9522 24.0823 55.001L20.6116 51.3261C18.8553 53.8798 17.9441 56.9144 18.0048 60.0072C17.9049 63.9573 19.3772 67.7871 22.1017 70.6644C24.6873 73.4616 28.3454 75.0371 32.1668 74.9993C36.1392 74.9993 39.5081 73.6981 42.2318 70.6644C44.9126 67.7603 46.3767 63.9483 46.325 60.0072Z" fill="white"/>
</svg>
