<svg width="120" height="120" viewBox="0 0 120 120" fill="none" xmlns="http://www.w3.org/2000/svg">
<path fill-rule="evenodd" clip-rule="evenodd" d="M60 120C27 120 0 93.0006 0 59.7012C0.3 26.7019 27 -0.297518 60.3 0.00247602C93.3 0.30247 120 27.0019 120 60.6012C119.7 93.3006 93 120 60 120Z" fill="#EDF0F4"/>
<path fill-rule="evenodd" clip-rule="evenodd" d="M49.336 34.1594C49.3407 37.3147 46.7866 39.8765 43.6313 39.8812C40.476 39.8859 37.9142 37.3318 37.9095 34.1765C37.9048 31.0211 40.4589 28.4594 43.6142 28.4547C46.7696 28.4547 49.3275 31.0126 49.3275 34.1679L49.336 34.1594ZM28.9057 47.8985C31.0403 47.0115 32.4301 44.9256 32.4267 42.6141C32.422 39.4621 29.8654 36.9093 26.7134 36.9094C24.4018 36.9094 22.318 38.3023 21.4342 40.4382C20.5504 42.5742 21.0408 45.0322 22.6766 46.6655C24.3123 48.2988 26.7711 48.7855 28.9057 47.8985ZM37.901 50.849C37.901 54.0043 40.4589 56.5623 43.6142 56.5623C46.7696 56.5623 49.3275 54.0043 49.3275 50.849C49.3275 49.3338 48.7255 47.8806 47.6541 46.8091C46.5827 45.7377 45.1295 45.1358 43.6142 45.1358C40.4589 45.1358 37.901 47.6937 37.901 50.849ZM82.9286 34.1679C82.9286 36.4787 81.5366 38.562 79.4017 39.4463C77.2668 40.3306 74.8094 39.8418 73.1754 38.2078C71.5415 36.5738 71.0527 34.1165 71.937 31.9816C72.8213 29.8467 74.9045 28.4547 77.2153 28.4547C80.3707 28.4547 82.9286 31.0126 82.9286 34.1679ZM79.4017 56.1274C81.5366 55.2431 82.9286 53.1598 82.9286 50.849C82.9286 47.6937 80.3707 45.1358 77.2153 45.1358C74.9045 45.1358 72.8213 46.5277 71.937 48.6626C71.0527 50.7975 71.5415 53.2549 73.1754 54.8889C74.8094 56.5229 77.2668 57.0117 79.4017 56.1274Z" fill="#141414"/>
</svg>
