<svg width="120" height="120" viewBox="0 0 120 120" fill="none" xmlns="http://www.w3.org/2000/svg">
<circle cx="60" cy="60" r="60" fill="#E7EFF3"/>
<path fill-rule="evenodd" clip-rule="evenodd" d="M20.7152 52.3157C23.8903 35.5421 37.7775 22.553 55.0322 20.2117C58.0149 19.7948 64.333 20.0193 67.6364 20.6607C75.5261 22.1681 83.48 26.562 88.9643 32.3349C98.2972 42.2451 101.985 55.7474 98.9707 69.0252C97.2388 76.6903 93.326 83.4896 87.4248 89.1022C81.8443 94.362 75.5261 97.6333 67.7006 99.301C63.9161 100.103 56.0905 100.103 52.3061 99.301C46.8218 98.1144 42.0751 96.1259 37.4247 93.0791C34.3779 91.0586 29.086 85.7346 26.9692 82.5916C20.9077 73.5152 18.7268 62.8994 20.7152 52.3157ZM88.419 36.6005C82.5499 29.3522 73.5377 24.4773 64.0123 23.3868C56.1226 22.5209 48.6178 24.1245 41.4016 28.2618C34.7948 32.0142 28.8294 38.9096 25.975 46.0617C20.3624 59.9488 23.4734 75.3433 34.0251 85.9271C52.723 104.753 84.6345 98.0502 94.2882 73.2587C96.1163 68.6403 96.6936 65.2086 96.6936 59.6281C96.6615 55.7153 96.5332 54.4324 95.8276 51.6101C94.3844 45.6768 92.2035 41.315 88.419 36.6005Z" fill="black"/>
<path fill-rule="evenodd" clip-rule="evenodd" d="M28.2515 62.0014C27.2894 57.1906 29.9513 52.027 34.1207 50.5197C35.6922 49.9744 38.8353 49.8782 40.4709 50.3272C44.6724 51.5139 47.5268 56.1323 47.0777 61.0713C46.725 64.6634 45.1534 67.1971 42.299 68.8007C40.7596 69.6345 40.3426 69.7307 37.5524 69.7307C34.0565 69.7307 32.7737 69.2497 30.7852 67.1008C29.2778 65.5293 28.7326 64.4068 28.2515 62.0014ZM43.3253 61.8731C43.9988 59.0829 43.0367 55.9077 41.1444 54.5287C39.2201 53.1816 35.9167 53.1496 34.0565 54.4966C31.8115 56.0681 31.0418 60.5902 32.5171 63.4767C34.9546 68.3196 42.0425 67.2612 43.3253 61.8731Z" fill="black"/>
<path d="M77.5141 50.648C71.4846 53.0533 69.7848 61.9373 74.339 67.3254C76.8085 70.276 82.6456 70.8212 85.2434 68.3196L85.949 67.6461L86.0452 68.5441C86.1415 69.3459 86.2377 69.41 87.7451 69.41H89.3487L89.4449 64.3427L89.5411 59.3074H85.0189H80.5289V60.911V62.5146H83.255C86.2056 62.5146 86.3018 62.5787 85.468 64.3106C84.8907 65.4973 82.8381 66.6839 81.2986 66.6839C77.6103 66.6839 75.3974 64.0861 75.3974 59.8847C75.4294 55.2342 78.4121 52.5723 82.4853 53.5344C84.0568 53.9193 85.6604 55.2984 85.6604 56.2926C85.6604 56.6133 86.1415 56.7416 87.5847 56.7416H89.4769L89.0279 55.2984C88.0337 51.9308 85.5642 50.231 81.491 50.1027C79.695 50.0386 78.7008 50.1669 77.5141 50.648Z" fill="black"/>
<path d="M49.7402 59.9488V69.5704H51.3438H52.9474L53.0116 63.0919L53.1078 56.5813L55.4811 63.0919L57.8544 69.6025L59.458 69.5062L61.0616 69.41L63.4029 62.9956L65.7441 56.5813L65.8403 62.9956L65.9366 69.41L67.6364 69.5062L69.3041 69.6025L69.24 60.045L69.1437 50.4876H66.9308H64.6857L62.12 57.6076C60.7088 61.5524 59.458 64.6634 59.3618 64.503C59.2335 64.3747 58.0789 61.3279 56.7961 57.7038C55.5132 54.0796 54.2944 50.9366 54.1341 50.7121C53.9417 50.4876 53.0436 50.3272 51.7928 50.3272H49.7402V59.9488Z" fill="black"/>
</svg>
