<svg width="120" height="120" viewBox="0 0 120 120" fill="none" xmlns="http://www.w3.org/2000/svg">
<circle cx="60" cy="60" r="60" fill="#E7EFF3"/>
<path fill-rule="evenodd" clip-rule="evenodd" d="M77.0567 30C69.921 29.9945 64.1284 35.7677 64.11 42.9033V57.21C62.7767 57.3 61.4133 57.3567 60 57.3567C58.5867 57.3567 57.23 57.4133 55.89 57.4933V42.9033C55.7766 35.835 50.0143 30.1644 42.945 30.1644C35.8757 30.1644 30.1134 35.835 30 42.9033V77.0967C30.1134 84.165 35.8757 89.8356 42.945 89.8356C50.0143 89.8356 55.7766 84.165 55.89 77.0967V62.79C57.2233 62.7 58.5867 62.6433 60 62.6433C61.4133 62.6433 62.77 62.5867 64.11 62.5067V77.0967C64.2234 84.165 69.9857 89.8356 77.055 89.8356C84.1243 89.8356 89.8866 84.165 90 77.0967V42.9033C89.9816 35.769 84.191 29.9963 77.0567 30ZM42.9433 35.2867C47.1544 35.2848 50.5723 38.6922 50.5833 42.9033V58.0533C46.7959 58.6022 43.0974 59.6478 39.5833 61.1633C38.0608 61.8316 36.6275 62.6871 35.3167 63.71V42.9033C35.3277 38.6974 38.7374 35.2922 42.9433 35.2867ZM42.9433 84.7367C47.1628 84.7367 50.5833 81.3161 50.5833 77.0967V63.39C47.5361 63.8871 44.5616 64.757 41.7267 65.98C37.7033 67.7667 35.3033 70.6367 35.3033 73.6667V77.0967C35.3033 81.3161 38.7239 84.7367 42.9433 84.7367ZM77.0567 84.7133C72.8456 84.7152 69.4277 81.3078 69.4167 77.0967V61.9467C73.2041 61.3979 76.9026 60.3522 80.4167 58.8367C81.9392 58.1684 83.3725 57.313 84.6833 56.29V77.0967C84.6723 81.3026 81.2626 84.7079 77.0567 84.7133ZM69.4167 56.59C72.4639 56.0929 75.4384 55.2231 78.2733 54C82.2967 52.22 84.6967 49.35 84.6967 46.3333V42.9033C84.6967 38.6839 81.2761 35.2633 77.0567 35.2633C72.8372 35.2633 69.4167 38.6839 69.4167 42.9033V56.59Z" fill="url(#paint0_linear)"/>
<defs>
<linearGradient id="paint0_linear" x1="59.9005" y1="111.406" x2="111.957" y2="59.2054" gradientUnits="userSpaceOnUse">
<stop stop-color="#00AEE9"/>
<stop offset="1" stop-color="#69FABD"/>
</linearGradient>
</defs>
</svg>
