<svg width="120" height="120" viewBox="0 0 120 120" fill="none" xmlns="http://www.w3.org/2000/svg">
<circle cx="60" cy="60" r="60" fill="#25AAE1"/>
<path fill-rule="evenodd" clip-rule="evenodd" d="M61.3092 93.9739C55.1139 94.0409 49.9121 92.9391 45.0087 90.5382C44.7065 90.3893 44.4798 90.3819 44.1776 90.5494C41.1994 92.2079 37.9297 93.2966 34.5409 93.758L34.4297 93.7723C33.0154 93.9541 31.5873 94.1376 30.1664 93.8511C28.3383 93.4975 26.8455 92.2004 26.2608 90.4574C25.6761 88.7144 26.0903 86.7962 27.3445 85.4387C29.0756 83.5011 30.3753 81.2275 31.1599 78.7646C31.2536 78.5152 31.2153 78.2362 31.0579 78.0202C28.3837 73.8375 26.7323 69.0998 26.2339 64.1807C25.1233 53.3041 28.5571 43.9872 36.4713 36.3491C41.452 31.4878 47.8976 28.3481 54.8419 27.4007C64.4257 26.0197 73.1596 28.201 80.832 34.0562C87.6771 39.2823 91.9382 46.1648 93.4228 54.5697C95.3041 65.208 92.5804 74.685 85.3387 82.7847C79.9858 88.7701 73.1861 92.3249 65.185 93.5868C64.0753 93.7636 62.9535 93.847 62.1114 93.9096L62.11 93.9097C61.8003 93.9327 61.5286 93.9529 61.3092 93.9739ZM37.019 85.0851L37.0233 85.0839L37.0228 85.0851H37.019ZM37.0233 85.0839L37.1552 85.0481L37.1556 85.048C37.3222 85.0028 37.4362 84.9719 37.5479 84.9362C39.6965 84.2211 41.7257 83.1962 43.5694 81.8951C44.8992 80.9719 46.21 80.9273 47.6115 81.7164C50.6185 83.4138 53.8408 84.4709 57.2973 84.832C62.9147 85.4238 68.2147 84.3704 72.9556 81.3702C81.1531 76.1888 85.2329 68.7293 84.791 59.07C84.5076 52.8835 82.0484 47.542 77.5946 43.1907C72.2266 37.9497 65.695 35.56 58.1284 36.0737C53.0286 36.4235 48.4199 38.1507 44.495 41.3779C36.8906 47.6314 33.9554 55.6492 35.6402 65.2639C36.1917 68.4278 37.4723 71.3312 39.278 74.0113C39.9753 74.9804 40.211 76.2001 39.924 77.3539C39.4922 79.2049 38.8851 81.0119 38.1108 82.7512C37.8976 83.2302 37.6739 83.7032 37.4395 84.1987C37.3043 84.4845 37.1656 84.7777 37.0233 85.0839ZM60.0303 46.332L60.0286 46.3286H60.0324C60.0317 46.3297 60.031 46.3309 60.0303 46.332ZM62.1818 50.6353L60.0303 46.332C59.9879 46.4044 59.953 46.4626 59.9231 46.5124C59.874 46.5943 59.8384 46.6536 59.8057 46.7157C59.3284 47.6687 58.8503 48.6212 58.3722 49.5738C57.4161 51.4787 56.4599 53.3836 55.5105 55.2918C55.367 55.5822 55.2083 55.7646 54.8608 55.813C53.31 56.0222 51.763 56.2408 50.2157 56.4595C49.5883 56.5482 48.9608 56.6369 48.333 56.7249L44.8727 57.2163L44.7556 57.3949C44.8051 57.4252 44.8569 57.4528 44.9085 57.4805C45.0223 57.5413 45.1357 57.602 45.224 57.689C47.4827 59.8581 49.7367 62.0319 51.986 64.2105C51.9987 64.2228 52.0114 64.235 52.0241 64.2471C52.222 64.4369 52.405 64.6125 52.3411 64.9624C51.9271 67.185 51.5363 69.4133 51.1458 71.6399C51.0909 71.9527 51.0361 72.2654 50.9811 72.5782C50.8835 73.1336 50.792 73.691 50.6945 74.285C50.66 74.4952 50.6248 74.7099 50.5883 74.9307C50.6702 74.8917 50.7383 74.8605 50.7975 74.8335C50.8967 74.7882 50.9706 74.7544 51.0416 74.7148C51.3709 74.5445 51.7002 74.3743 52.0294 74.2041C54.5219 72.9157 57.0133 71.6278 59.4959 70.3225C59.8888 70.114 60.1835 70.1326 60.5612 70.3336C62.952 71.5992 65.3538 72.8456 67.7549 74.0916C68.1575 74.3005 68.5602 74.5095 68.9627 74.7185C69.0486 74.7635 69.1403 74.7972 69.2485 74.837C69.2925 74.8531 69.3393 74.8703 69.3895 74.8897C69.3851 74.8299 69.3824 74.781 69.3801 74.7389C69.3765 74.6735 69.3738 74.6246 69.3669 74.577C69.2799 74.0672 69.1932 73.5574 69.1064 73.0475C68.658 70.4122 68.2097 67.7777 67.7349 65.1485C67.6518 64.6906 67.7765 64.4115 68.09 64.1137C69.8958 62.4089 71.6901 60.6929 73.4807 58.9695C73.8713 58.5948 74.2494 58.2045 74.637 57.8044C74.8155 57.6202 74.996 57.4338 75.1807 57.246C75.1176 57.234 75.0602 57.2211 75.0059 57.2089C74.943 57.1948 74.8843 57.1816 74.8256 57.1716C74.0473 57.061 73.269 56.95 72.4907 56.8389C70.0993 56.4977 67.7075 56.1564 65.3135 55.8279C64.8904 55.772 64.6373 55.6306 64.4484 55.2286C63.9357 54.1505 63.4009 53.0798 62.8671 52.0113C62.6379 51.5523 62.4088 51.0938 62.1818 50.6353Z" fill="white"/>
</svg>
