<svg width="120" height="120" viewBox="0 0 120 120" fill="none" xmlns="http://www.w3.org/2000/svg">
<circle cx="60" cy="60" r="60" fill="#EDF0F4"/>
<path fill-rule="evenodd" clip-rule="evenodd" d="M60 25C79.33 25 95 40.67 95 60C95 61.6809 93.6374 63.0435 91.9565 63.0435C90.3041 63.0435 88.9593 61.7267 88.9142 60.0852L88.913 60C88.913 44.0318 75.9683 31.087 60 31.087C58.3191 31.087 56.9565 29.7243 56.9565 28.0435C56.9565 26.3626 58.3191 25 60 25ZM38.6957 60C38.6957 48.2339 48.2339 38.6957 60 38.6957C71.7661 38.6957 81.3043 48.2339 81.3043 60C81.3043 71.7661 71.7661 81.3043 60 81.3043C48.2339 81.3043 38.6957 71.7661 38.6957 60ZM72.1739 60C72.1739 53.2765 66.7235 47.8261 60 47.8261C53.2765 47.8261 47.8261 53.2765 47.8261 60C47.8261 66.7235 53.2765 72.1739 60 72.1739C66.7235 72.1739 72.1739 66.7235 72.1739 60ZM31.087 60C31.087 58.3191 29.7243 56.9565 28.0435 56.9565C26.3626 56.9565 25 58.3191 25 60C25 79.33 40.67 95 60 95C61.6809 95 63.0435 93.6374 63.0435 91.9565C63.0435 90.2757 61.6809 88.913 60 88.913L59.5219 88.9092C43.7742 88.6538 31.087 75.8086 31.087 60ZM33.103 49.729C33.103 51.6263 31.5649 53.1644 29.6676 53.1644C27.7703 53.1644 26.2323 51.6263 26.2323 49.729C26.2323 47.8317 27.7703 46.2937 29.6676 46.2937C31.5649 46.2937 33.103 47.8317 33.103 49.729ZM90.3255 73.6782C92.2228 73.6782 93.7609 72.1401 93.7609 70.2428C93.7609 68.3455 92.2228 66.8075 90.3255 66.8075C88.4282 66.8075 86.8902 68.3455 86.8902 70.2428C86.8902 72.1401 88.4282 73.6782 90.3255 73.6782Z" fill="url(#paint0_linear)"/>
<defs>
<linearGradient id="paint0_linear" x1="6.68337" y1="51.5633" x2="51.7439" y2="114.79" gradientUnits="userSpaceOnUse">
<stop stop-color="#126AB2"/>
<stop offset="1" stop-color="#14B088"/>
</linearGradient>
</defs>
</svg>
