<svg width="120" height="120" viewBox="0 0 120 120" fill="none" xmlns="http://www.w3.org/2000/svg">
<circle cx="60" cy="60" r="60" fill="#EDF0F4"/>
<path d="M60.1954 18.7982C63.5281 18.4209 66.5464 16.8803 69.7847 16C70.2249 16.8803 70.7594 17.9493 71.9227 17.9493C73.086 18.1379 73.7462 17.0061 74.2807 16.1572C77.0789 17.2576 79.657 18.7982 82.5181 19.7414C83.9958 20.2445 85.7879 20.1501 86.9197 21.4077C88.2717 22.8854 88.3031 25.0234 88.083 26.8784C87.8001 28.3561 86.9512 29.9281 85.3792 30.3054C83.87 30.6827 82.3609 30.9342 80.9461 31.563C78.6509 32.4748 76.5444 33.8896 74.1235 34.5498C73.8091 33.9839 73.4633 33.4494 73.1174 32.8835C72.3943 32.8835 71.6083 32.8206 70.948 33.1979C70.5079 33.5752 70.2249 34.1097 69.9105 34.5813C66.3892 34.3926 63.2451 32.3176 59.6924 32.3804C56.0138 32.4433 52.3668 33.3237 49.0341 34.8642C41.8028 37.7253 35.9549 43.6047 32.7165 50.6473C30.9559 54.5774 29.8554 58.8218 29.6982 63.1291C29.5725 70.5176 31.8047 78.0319 36.3322 83.9112C38.5015 87.0553 41.4255 89.6334 44.5695 91.7713C51.2349 96.456 59.7552 98.1852 67.804 97.2105C77.6134 96.0472 86.794 90.4194 92.2961 82.2135C95.9746 77.0887 98.0182 70.9264 98.4898 64.6697C99.0557 59.7021 98.2068 54.6717 96.6663 49.9556C95.4715 46.0885 93.365 42.5671 90.9441 39.3602C89.7179 37.6624 88.1774 36.2791 86.7311 34.8014C89.6236 36.9079 92.0131 39.6117 94.0253 42.5671C97.6724 47.7234 99.8103 53.8542 100.596 60.1109C100.785 64.0409 100.911 68.0338 99.9989 71.8696C98.4584 79.7611 94.3082 87.0867 88.4603 92.5888C85.5993 95.5127 82.0779 97.6193 78.4937 99.5371C75.0353 101.235 71.2939 102.461 67.4581 102.933C59.6295 104.253 51.3921 103.216 44.1608 99.883C42.6517 99.1284 41.2054 98.2481 39.7277 97.4621C33.9112 93.8464 28.9122 88.8159 25.5167 82.8737C22.4669 77.1516 20.2032 70.8949 20.0146 64.4182C20.046 61.2742 19.826 58.1301 20.4233 55.0175C22.0268 45.554 26.7428 36.5935 33.9112 30.1796C37.7784 26.5325 42.4002 23.7972 47.3049 21.8165C51.3921 20.0558 55.7938 19.2698 60.1954 18.7982Z" fill="black"/>
<path d="M57.3663 49.4526C59.2213 49.201 61.1392 49.201 63.0256 49.4526C67.0185 50.3329 70.5084 53.2254 72.0804 57.0297C73.9354 60.834 73.4009 65.4557 71.263 69.0399C69.4394 71.7438 66.767 73.9446 63.5601 74.7306C62.1767 74.9822 60.7619 75.4852 59.3156 75.2337C57.3663 74.9193 55.3542 74.5105 53.6564 73.4416C49.4748 71.115 46.7709 66.3046 47.0853 61.4942C47.0853 58.7589 48.3429 56.1808 49.9464 54.0114C51.7071 51.6534 54.4738 50.1128 57.3663 49.4526Z" fill="black"/>
</svg>
