<svg width="120" height="120" viewBox="0 0 120 120" fill="none" xmlns="http://www.w3.org/2000/svg">
<circle cx="60" cy="60" r="60" fill="#03E8B0"/>
<path fill-rule="evenodd" clip-rule="evenodd" d="M76.8968 29.5015C78.6944 29.5015 80.1517 28.0465 80.1517 26.2517H80.1554C80.1554 24.4558 78.6973 23 76.8986 23C75.1 23 73.6418 24.4558 73.6418 26.2517C73.6418 28.0465 75.0991 29.5015 76.8968 29.5015ZM44.4301 26.51C44.4301 28.3048 42.9728 29.7598 41.1752 29.7598C39.3775 29.7598 37.9202 28.3048 37.9202 26.51C37.9798 24.7591 39.4186 23.3705 41.1733 23.3705C42.9279 23.3705 44.3668 24.7591 44.4263 26.51H44.4301ZM62.4713 25.8092C61.0927 24.3826 59.49 22.7242 57.341 23.6571C55.0536 24.5369 54.6711 27.8429 56.5385 29.3667C58.4993 31.0925 60.3596 32.9296 62.2203 34.7672L62.2203 34.7672L62.2204 34.7673L62.2206 34.7676C63.2138 35.7484 64.2071 36.7293 65.2158 37.6934C66.3183 38.7866 68.077 39.3782 69.5169 38.592C71.3881 37.757 71.9469 35.0127 70.5707 33.5113C68.1707 30.9804 65.6358 28.5805 62.9734 26.3228C62.8097 26.1594 62.6432 25.9871 62.4733 25.8113L62.4731 25.8111L62.4731 25.811L62.4725 25.8105L62.4723 25.8103L62.4722 25.8102L62.4722 25.8101L62.4721 25.81L62.472 25.81L62.4719 25.8099L62.4718 25.8098L62.4718 25.8097L62.4717 25.8096L62.4716 25.8096L62.4715 25.8095L62.4714 25.8094L62.4714 25.8093L62.4713 25.8093L62.4713 25.8092ZM88.4352 33.122C87.9815 31.1713 85.3565 30.4562 83.7178 31.3361V31.3398C81.4119 33.2796 79.3913 35.5149 77.3711 37.7497L77.3711 37.7497C76.2407 39.0002 75.1105 40.2504 73.9306 41.4486C72.4681 42.9238 72.9931 45.8291 74.9318 46.6304C76.2743 47.2481 77.9505 46.9411 78.8992 45.7955C81.5054 43.0773 84.1116 40.3629 86.7928 37.7233C88.0152 36.5664 89.129 34.8554 88.4352 33.122ZM31.3391 31.8752C33.0454 30.8456 35.1566 31.527 36.4203 32.9235C38.1762 34.6929 39.9664 36.425 41.7548 38.1554L41.7548 38.1554L41.7548 38.1554L41.7549 38.1555L41.7549 38.1555L41.7549 38.1555L41.7549 38.1555L41.7549 38.1555L41.755 38.1556L41.755 38.1556L41.755 38.1556L41.755 38.1556L41.7551 38.1557L41.7551 38.1557L41.7551 38.1557L41.7551 38.1557L41.7551 38.1558L41.7552 38.1558L41.7555 38.1561C42.8619 39.2266 43.9675 40.2963 45.0638 41.3738C46.965 43.126 45.6375 46.84 42.9864 46.855C41.3579 47.1022 40.2904 45.9895 39.251 44.9061C38.8735 44.5125 38.4997 44.1229 38.104 43.8036C35.5015 41.6508 33.1166 39.2547 30.7542 36.8398C29.4192 35.4657 29.8167 32.9422 31.3429 31.8752H31.3391ZM37.414 53.7777C39.199 51.2954 36.4053 47.6937 33.5441 48.7982L33.5478 48.7944C31.0256 50.5024 28.9945 52.8081 26.9638 55.1134L26.9638 55.1135C25.7761 56.4617 24.5886 57.8098 23.3031 59.038C21.3756 60.8239 22.7069 64.5043 25.358 64.6054C27.1852 64.8255 28.3605 63.4744 29.4598 62.2107C29.7255 61.9053 29.9867 61.6049 30.2517 61.3331C31.2046 60.2593 32.234 59.2508 33.263 58.2428C34.7202 56.8152 36.1766 55.3884 37.414 53.7777ZM91.5776 56.7617C93.5463 55.4775 96.5163 56.9376 96.58 59.3076C96.7908 60.9313 95.6684 61.9962 94.5728 63.0356C94.1678 63.4198 93.7665 63.8006 93.4376 64.2048C91.2926 66.7807 88.9377 69.1843 86.5078 71.4981C84.7303 73.1717 81.4154 71.9961 81.0966 69.57C80.7623 67.5579 82.2162 66.1594 83.5708 64.8565C83.9025 64.5375 84.2282 64.2242 84.5203 63.909C85.6393 62.8718 86.6791 61.751 87.7174 60.6318L87.7175 60.6317L87.7175 60.6317L87.7176 60.6317L87.7176 60.6316L87.7177 60.6316L87.7177 60.6315L87.7178 60.6315L87.7178 60.6314L87.7178 60.6314L87.7179 60.6313L87.7179 60.6313L87.718 60.6312L87.718 60.6312L87.7181 60.6312L87.7181 60.6311C88.9622 59.2901 90.2042 57.9513 91.5776 56.7617ZM45.8663 76.9082C45.8213 74.5907 42.9226 73.2354 41.0102 74.3773C39.4362 75.749 37.999 77.2653 36.5607 78.7828C35.4118 79.9949 34.2622 81.2078 33.0416 82.3483L32.9856 82.4026C31.5758 83.7687 29.7741 85.5145 30.5217 87.676C30.9642 89.9412 34.3016 90.7012 35.8653 89.1212C38.2727 86.7812 40.6577 84.4112 42.7951 81.8279C43.1164 81.4316 43.5084 81.0569 43.9044 80.6785C45.0011 79.6303 46.128 78.5532 45.8663 76.9082ZM74.9918 74.2912C76.0493 73.928 77.3917 73.898 78.2842 74.6618C79.4102 75.73 80.5609 76.7722 81.7117 77.8146L81.7117 77.8146C83.9451 79.8373 86.1787 81.8604 88.2327 84.0743C89.1927 85.0477 89.2789 86.6764 88.6415 87.8445C87.7415 89.9449 84.6591 89.9973 83.1628 88.5109C81.7225 87.1549 80.3094 85.7658 78.896 84.3763C77.3434 82.85 75.7905 81.3234 74.2006 79.8398C72.3631 78.4171 72.7944 75.1149 74.9881 74.2912H74.9918ZM54.0523 83.4752C52.9199 82.2772 51.0674 81.4722 49.4924 82.3221C47.6025 83.1458 47.0325 85.9238 48.435 87.4139C50.7362 89.862 53.1778 92.1747 55.7473 94.3404C56.1538 94.6696 56.5354 95.0731 56.9207 95.4804L56.9207 95.4804L56.9208 95.4804L56.9208 95.4805L56.9209 95.4805L56.9209 95.4806C57.9463 96.5647 58.9973 97.6759 60.6109 97.4854C63.3596 97.4554 64.6796 93.7002 62.7296 91.8506C59.7828 89.1155 56.8898 86.3232 54.0523 83.4752ZM50.6568 38.3991C52.4534 38.3991 53.9098 36.945 53.9098 35.1512C53.9098 33.3574 52.4534 31.9033 50.6568 31.9033C48.8602 31.9033 47.4037 33.3574 47.4037 35.1512C47.4037 36.945 48.8602 38.3991 50.6568 38.3991ZM28.508 43.0885C28.5483 44.2752 27.9373 45.3894 26.9142 45.9947C25.8911 46.5999 24.6188 46.5999 23.5957 45.9947C22.5726 45.3894 21.9615 44.2752 22.0019 43.0885C22.0614 41.3376 23.5003 39.949 25.2549 39.949C27.0096 39.949 28.4484 41.3376 28.508 43.0885ZM97 42.2761C97 44.0699 95.5436 45.524 93.747 45.524C91.9503 45.524 90.4939 44.0699 90.4939 42.2761C90.4939 40.4823 91.9503 39.0281 93.747 39.0281C95.5436 39.0281 97 40.4823 97 42.2761ZM84.8559 54.8541C86.6525 54.8541 88.109 53.4 88.109 51.6062C88.109 49.8124 86.6525 48.3582 84.8559 48.3582C83.0593 48.3582 81.6029 49.8124 81.6029 51.6062C81.6029 53.4 83.0593 54.8541 84.8559 54.8541ZM96.985 77.8368C96.985 79.6305 95.5286 81.0847 93.732 81.0847C91.9353 81.0847 90.4789 79.6305 90.4789 77.8368C90.4789 76.043 91.9353 74.5888 93.732 74.5888C95.5286 74.5888 96.985 76.043 96.985 77.8368ZM70.0193 88.6652C71.0424 88.06 71.6535 86.9458 71.6131 85.7591C71.5536 84.0082 70.1147 82.6196 68.3601 82.6196C66.6054 82.6196 65.1666 84.0082 65.1071 85.7591C65.0667 86.9458 65.6777 88.06 66.7008 88.6652C67.7239 89.2705 68.9962 89.2705 70.0193 88.6652ZM80.9729 94.6399C81.0133 95.8266 80.4022 96.9408 79.3791 97.5461C78.356 98.1513 77.0837 98.1513 76.0606 97.5461C75.0375 96.9408 74.4265 95.8266 74.4668 94.6399C74.5264 92.889 75.9652 91.5004 77.7199 91.5004C79.4745 91.5004 80.9134 92.889 80.9729 94.6399ZM42.0939 97.8897C43.8915 97.8897 45.3488 96.4347 45.3488 94.6399H45.345C45.2855 92.889 43.8466 91.5004 42.092 91.5004C40.3374 91.5004 38.8985 92.889 38.839 94.6399C38.839 96.4347 40.2962 97.8897 42.0939 97.8897ZM37.4102 69.203C37.4506 70.3897 36.8396 71.5039 35.8165 72.1092C34.7933 72.7145 33.5211 72.7145 32.498 72.1092C31.4748 71.5039 30.8638 70.3897 30.9042 69.203C30.9637 67.4522 32.4026 66.0635 34.1572 66.0635C35.9118 66.0635 37.3507 67.4522 37.4102 69.203ZM26.9142 81.5479C27.9373 80.9426 28.5483 79.8284 28.508 78.6417C28.4484 76.8908 27.0096 75.5022 25.2549 75.5022C23.5003 75.5022 22.0614 76.8908 22.0019 78.6417C21.9615 79.8284 22.5726 80.9426 23.5957 81.5479C24.6188 82.1531 25.8911 82.1531 26.9142 81.5479Z" fill="white"/>
</svg>
