<svg width="120" height="120" viewBox="0 0 120 120" fill="none" xmlns="http://www.w3.org/2000/svg">
<circle cx="60" cy="60" r="60" fill="#EDF0F4"/>
<path fill-rule="evenodd" clip-rule="evenodd" d="M15 60C15 84.8528 35.1472 105 60 105C84.8528 105 105 84.8528 105 60C105 48.0653 100.259 36.6193 91.8198 28.1802C83.3807 19.7411 71.9347 15 60 15C35.1472 15 15 35.1472 15 60ZM78.9844 33.6328L78.327 36.7969H82.5C87.1599 36.7969 90.9375 40.5745 90.9375 45.2344V57.8906C90.9375 62.5505 87.1599 66.3281 82.5 66.3281H72.0516L71.3801 69.4922C71.1904 70.2897 70.494 70.864 69.675 70.8984H67.5656C67.2114 70.9132 66.8717 70.757 66.6524 70.4785C66.433 70.2 66.3608 69.833 66.4582 69.4922L67.1297 66.3281H62.2078L61.5363 69.4922C61.3467 70.2897 60.6502 70.864 59.8312 70.8984H57.7219C57.3677 70.9132 57.0279 70.757 56.8086 70.4785C56.5893 70.2 56.5171 69.833 56.6145 69.4922L57.2859 66.3281H52.0125L47.3789 88.125H36.1289L44.3484 49.4531H55.5984L53.8055 57.8906H75.4688C77.7987 57.8906 79.6875 56.0018 79.6875 53.6719V49.4531C79.6875 47.1232 77.7987 45.2344 75.4688 45.2344H29.0625L36.0938 36.7969H63.5473L64.2188 33.6328C64.4084 32.8353 65.1048 32.261 65.9238 32.2266H68.0332C68.3874 32.2118 68.7271 32.368 68.9465 32.6465C69.1658 32.925 69.238 33.292 69.1406 33.6328L68.4691 36.7969H73.391L74.0625 33.6328C74.2522 32.8353 74.9486 32.261 75.7676 32.2266H77.877C78.2312 32.2118 78.5709 32.368 78.7902 32.6465C79.0096 32.925 79.0818 33.292 78.9844 33.6328Z" fill="#F7931E"/>
</svg>
