<svg width="120" height="120" viewBox="0 0 120 120" fill="none" xmlns="http://www.w3.org/2000/svg">
<circle cx="60" cy="60" r="60" fill="#E7EFF3"/>
<path d="M44.0428 34.8279C45.4128 33.2679 46.6728 31.9479 47.8728 30.8279C27.6128 30.1779 33.5128 44.8279 26.8728 59.6979C19.2728 76.8379 27.7728 83.3679 40.4328 85.4079C38.6649 83.3012 37.2223 80.9417 36.1528 78.4079C27.9828 68.0779 31.2928 49.2479 44.0428 34.8279Z" fill="#EFE812"/>
<path d="M92.7927 53.0879C90.4001 59.3471 86.9387 65.1433 82.5627 70.2179C79.0545 74.4814 74.8522 78.1225 70.1327 80.9879C64.6516 84.4611 58.2811 86.2708 51.7927 86.1979C48.0044 86.232 44.2194 85.9678 40.4727 85.4079C42.5529 87.8929 45.1319 89.9131 48.0427 91.3379C66.3627 100.198 67.5127 83.7479 86.8927 75.3979C97.7727 70.7079 97.8127 61.5479 92.7827 53.0879" fill="#EDE70A"/>
<path d="M70.1328 35.9879C72.785 36.4521 75.3404 37.358 77.6928 38.6679C83.8553 42.1328 89.0478 47.0915 92.7928 53.0879C96.0928 43.7879 94.5528 36.4879 87.3428 35.1679C79.4028 33.7179 73.2028 33.2479 67.2428 29.0879C59.9028 23.9879 53.4628 25.6479 47.8828 30.8379L49.0928 30.8879C56.8328 31.3479 64.2328 32.8879 70.0928 35.9679" fill="#EDE70A"/>
<path d="M44.0423 34.8279C31.2923 49.2479 27.9823 68.0779 36.1923 78.4079C32.3417 69.3164 32.9975 58.9422 37.9623 50.4079C44.8723 38.8879 58.7423 33.8879 70.1323 35.9879C64.2323 32.8679 56.8323 31.3679 49.1323 30.9079L47.9223 30.8479C46.6823 31.9879 45.4223 33.2679 44.0423 34.8279Z" fill="#DEC21C"/>
<path d="M77.6928 38.6479C75.3392 37.345 72.7838 36.4459 70.1328 35.9879C77.8928 40.0679 83.0428 46.9879 83.0428 57.9279C82.9515 67.3126 78.0855 76.0043 70.1328 80.9879C74.8546 78.1256 79.0574 74.4841 82.5628 70.2179C86.9389 65.1433 90.4003 59.3471 92.7928 53.0879C89.0504 47.0842 83.8577 42.1184 77.6928 38.6479Z" fill="#E5CB22"/>
<path fill-rule="evenodd" clip-rule="evenodd" d="M37.9625 50.3579C44.8725 38.8879 58.7425 33.8879 70.1325 35.9879C77.8925 40.0679 83.0425 46.9879 83.0425 57.9279C82.953 67.3131 78.0865 76.0056 70.1325 80.9879C64.6514 84.4611 58.2809 86.2708 51.7925 86.1979C48.0043 86.232 44.2192 85.9678 40.4725 85.4079C38.7011 83.3037 37.2581 80.9437 36.1925 78.4079C32.3202 69.303 32.9764 58.9039 37.9625 50.3579ZM42.7325 70.1679C48.4095 78.9093 60.0826 81.4209 68.8525 75.7879C77.6225 70.1779 78.8125 59.2479 74.4825 49.7879C70.0425 40.0779 57.8625 37.4179 48.3625 44.1679C39.8725 50.1679 37.0725 61.4379 42.7325 70.1679Z" fill="#CCA727"/>
</svg>
