<svg width="120" height="120" viewBox="0 0 120 120" fill="none" xmlns="http://www.w3.org/2000/svg">
<path d="M17.5906 17.5906C-5.86353 41.0447 -5.86353 79.0153 17.5906 102.409L102.409 17.5906C79.0153 -5.86353 40.9848 -5.86353 17.5906 17.5906Z" fill="#FF6666"/>
<path d="M102.409 102.409C79.0152 78.9552 40.9847 78.9552 17.5906 102.409L102.409 17.5906C125.864 40.9847 125.864 79.0152 102.409 102.409Z" fill="#DA5F5A"/>
<ellipse cx="60" cy="59.9999" rx="38.3304" ry="38.4504" fill="#FFF4C7"/>
<path d="M102.409 102.409C79.0152 125.864 40.9847 125.864 17.5906 102.409C40.9847 79.0152 79.0152 79.0152 102.409 102.409Z" fill="#FFF4C7"/>
<circle cx="60" cy="60" r="32.7518" fill="#F7931A"/>
<path fill-rule="evenodd" clip-rule="evenodd" d="M68.3979 47.6431C72.8967 49.2028 76.2559 51.5422 75.5961 55.9211C75.1162 59.1003 73.3766 60.6599 71.0972 61.1398C74.3364 62.8193 75.956 65.3987 74.3964 69.8376C72.4169 75.4162 67.798 75.8361 61.6795 74.6964L60.1799 80.6349L56.5808 79.7351L58.0804 73.8566C57.4406 73.7366 56.8008 73.5633 56.1609 73.39C55.841 73.3034 55.5211 73.2167 55.2012 73.1368L53.7015 79.0753L50.1024 78.1755L51.6021 72.177C51.1235 72.0403 50.645 71.923 50.1554 71.8031C49.7858 71.7125 49.4098 71.6204 49.0227 71.5172L44.3439 70.3775L46.1434 66.2385C46.1434 66.2385 48.8427 66.9583 48.7828 66.8983C49.7425 67.1383 50.2224 66.4784 50.4024 66.0585L52.7418 56.6409L52.7418 56.6409C52.8618 56.7009 52.9817 56.7609 53.1017 56.7609L53.1017 56.7609C52.9817 56.7009 52.8617 56.6409 52.7418 56.6409L54.4214 49.9226C54.4813 49.1428 54.1814 48.183 52.7418 47.8231C52.8018 47.7631 50.1024 47.1633 50.1024 47.1633L51.0622 43.3242L56.0409 44.5839C56.7608 44.7639 57.5406 44.9438 58.3204 45.1238L59.82 39.2452L63.4191 40.145L61.9795 45.9636C62.9392 46.1435 63.899 46.3835 64.8587 46.6234L66.2984 40.8648L69.8975 41.7646L68.3979 47.6431ZM68.5178 55.8611C67.5983 59.5391 62.4357 58.1937 59.9344 57.5418C59.6617 57.4707 59.4206 57.4079 59.2202 57.3607L61.0197 50.1625C61.2563 50.227 61.5579 50.2967 61.904 50.3766C64.454 50.9654 69.4157 52.1111 68.5178 55.8611ZM67.3781 67.4382C66.336 71.4968 59.9784 69.8386 57.0168 69.0662L57.0166 69.0662C56.7392 68.9938 56.4916 68.9292 56.2809 68.8778L58.2604 60.9598C58.5448 61.0361 58.9015 61.1197 59.308 61.2149C62.4163 61.9429 68.4391 63.3535 67.3781 67.4382Z" fill="white"/>
</svg>
