<svg width="120" height="120" viewBox="0 0 120 120" fill="none" xmlns="http://www.w3.org/2000/svg">
<circle cx="60" cy="60" r="60" fill="#EDF0F4"/>
<path d="M60 54.7266C57.0938 54.7266 54.7266 57.0938 54.7266 60C54.7266 60.9727 55.5117 61.7578 56.4844 61.7578C57.457 61.7578 58.2422 60.9727 58.2422 60C58.2422 59.0273 59.0273 58.2422 60 58.2422C60.9727 58.2422 61.7578 57.457 61.7578 56.4844C61.7578 55.5117 60.9727 54.7266 60 54.7266Z" fill="black"/>
<path fill-rule="evenodd" clip-rule="evenodd" d="M85.7578 63.1172C88.3711 61.1602 90 58.0781 90 54.7266C90 50.2031 87.0469 46.2188 82.793 44.7656C82.207 38.4609 76.9336 33.5156 70.5469 33.5156C69.9492 33.5156 69.3398 33.5625 68.707 33.6797C66.3867 31.3242 63.2695 30 60 30C56.7305 30 53.6133 31.3242 51.293 33.6797C50.6484 33.5742 50.0391 33.5156 49.4531 33.5156C43.0078 33.5156 37.6758 38.543 37.0898 44.7656C32.9062 46.2188 30 50.2031 30 54.7266C30 58.1016 31.6172 61.1953 34.1953 63.1406C31.4062 64.7578 30 66.6562 30 68.7891V68.9414C30.1172 80.5664 43.5234 90 60 90C76.4766 90 89.8828 80.5664 90 68.9297V68.7773C90 66.6445 88.5703 64.7344 85.7578 63.1172ZM86.4844 54.7266C86.4844 57.668 84.5625 60.3164 81.7617 61.3359C79.1016 60.3984 75.8789 59.6367 72.2812 59.1094C72.1875 57.8086 71.8828 56.5664 71.4141 55.4062L81.3047 47.9883C84.3398 48.8438 86.4844 51.5977 86.4844 54.7266ZM70.5469 37.0312C69.9844 37.0312 69.3867 37.1016 68.7305 37.2422L64.8281 48.6914C66.7148 49.5 68.3555 50.7656 69.6211 52.3477L79.2891 45.0938C78.8672 40.5703 75.1172 37.0312 70.5469 37.0312ZM68.7891 60C68.7891 64.8516 64.8516 68.7891 60 68.7891C55.1484 68.7891 51.2109 64.8516 51.2109 60C51.2109 55.1484 55.1484 51.2109 60 51.2109C64.8516 51.2109 68.7891 55.1484 68.7891 60ZM65.5898 35.5781C64.0195 34.2539 62.0508 33.5156 60 33.5156C57.9492 33.5156 55.9805 34.2539 54.4102 35.5781L58.582 47.7773C59.0508 47.7188 59.5195 47.6953 60 47.6953C60.4805 47.6953 60.9492 47.7188 61.418 47.7773L65.5898 35.5781ZM49.4531 37.0312C50.0156 37.0312 50.6016 37.1016 51.2695 37.2422L55.1719 48.6797C53.2852 49.4883 51.6328 50.7539 50.3672 52.3477L40.5938 45.082C41.0391 40.6406 44.918 37.0312 49.4531 37.0312ZM38.5898 47.9766C35.6133 48.832 33.5156 51.5859 33.5156 54.7266C33.5156 57.7031 35.4141 60.3633 38.1914 61.3594C40.8633 60.4102 44.0977 59.6484 47.7305 59.1094C47.8242 57.8086 48.1172 56.5664 48.5859 55.4062L38.5898 47.9766ZM60 86.4844C48.6914 86.4844 39.0117 81.6211 35.2266 75C41.8828 78.3281 52.4531 79.3359 60 79.3359C67.5469 79.3359 78.1172 78.3164 84.7734 75C80.8945 81.7852 71.0742 86.4844 60 86.4844ZM33.5156 68.7891C33.5156 71.5078 43.5703 75.8203 60 75.8203C76.5703 75.8203 86.4844 71.4727 86.4844 68.7773C86.4844 67.043 81.8672 64.1133 72.0234 62.6133C71.8945 63.2227 71.7188 63.8086 71.4961 64.3828C73.8281 65.9062 75.3047 67.5352 75.375 67.6172C76.0195 68.3438 75.9609 69.457 75.2344 70.1016C74.5078 70.7461 73.3945 70.6875 72.75 69.9609C72.7496 69.9606 72.748 69.9588 72.7452 69.9558C72.6614 69.8662 71.5189 68.6436 69.7734 67.4648C67.5234 70.4062 63.9844 72.3047 60 72.3047C56.0156 72.3047 52.4766 70.4062 50.2266 67.4648C48.4722 68.6419 47.341 69.8628 47.2552 69.9554C47.2521 69.9587 47.2504 69.9605 47.25 69.9609C46.6055 70.6875 45.4922 70.7578 44.7656 70.1016C44.0391 69.4453 43.9805 68.3438 44.625 67.6172C44.6953 67.5352 46.1719 65.8945 48.5039 64.3828C48.2812 63.8086 48.1055 63.2227 47.9766 62.6133C43.7695 63.2578 40.0898 64.2305 37.4648 65.4141C34.5586 66.7383 33.5156 68.0273 33.5156 68.7891Z" fill="black"/>
<path d="M86.4844 54.7266C86.4844 57.668 84.5625 60.3164 81.7617 61.3359C79.1016 60.3984 75.8789 59.6367 72.2812 59.1094C72.1875 57.8086 71.8828 56.5664 71.4141 55.4062L81.3047 47.9883C84.3398 48.8438 86.4844 51.5977 86.4844 54.7266Z" fill="#8A67AC"/>
<path d="M68.7305 37.2422C69.3867 37.1016 69.9844 37.0312 70.5469 37.0312C75.1172 37.0312 78.8672 40.5703 79.2891 45.0938L69.6211 52.3477C68.3555 50.7656 66.7148 49.5 64.8281 48.6914L68.7305 37.2422Z" fill="#8A67AC"/>
<circle cx="60" cy="60" r="8.78906" fill="black"/>
<path d="M60 33.5156C62.0508 33.5156 64.0195 34.2539 65.5898 35.5781L61.418 47.7773C60.9492 47.7188 60.4805 47.6953 60 47.6953C59.5195 47.6953 59.0508 47.7188 58.582 47.7773L54.4102 35.5781C55.9805 34.2539 57.9492 33.5156 60 33.5156Z" fill="#8A67AC"/>
<path d="M49.4531 37.0312C50.0156 37.0312 50.6016 37.1016 51.2695 37.2422L55.1719 48.6797C53.2852 49.4883 51.6328 50.7539 50.3672 52.3477L40.5938 45.082C41.0391 40.6406 44.918 37.0312 49.4531 37.0312Z" fill="#8A67AC"/>
<path d="M33.5156 54.7266C33.5156 51.5859 35.6133 48.832 38.5898 47.9766L48.5859 55.4062C48.1172 56.5664 47.8242 57.8086 47.7305 59.1094C44.0977 59.6484 40.8633 60.4102 38.1914 61.3594C35.4141 60.3633 33.5156 57.7031 33.5156 54.7266Z" fill="#8A67AC"/>
<path d="M60 86.4844C48.6914 86.4844 39.0117 81.6211 35.2266 75C41.8828 78.3281 52.4531 79.3359 60 79.3359C67.5469 79.3359 78.1172 78.3164 84.7734 75C80.8945 81.7852 71.0742 86.4844 60 86.4844Z" fill="#8C69AF"/>
<path d="M60 75.8203C43.5703 75.8203 33.5156 71.5078 33.5156 68.7891C33.5156 68.0273 34.5586 66.7383 37.4648 65.4141C40.0898 64.2305 43.7695 63.2578 47.9766 62.6133C48.1055 63.2227 48.2812 63.8086 48.5039 64.3828C46.1719 65.8945 44.6953 67.5352 44.625 67.6172C43.9805 68.3438 44.0391 69.4453 44.7656 70.1016C45.4922 70.7578 46.6055 70.6875 47.25 69.9609C47.2617 69.9492 48.4102 68.6836 50.2266 67.4648C52.4766 70.4062 56.0156 72.3047 60 72.3047C63.9844 72.3047 67.5234 70.4062 69.7734 67.4648C71.5781 68.6836 72.7383 69.9492 72.75 69.9609C73.3945 70.6875 74.5078 70.7461 75.2344 70.1016C75.9609 69.457 76.0195 68.3438 75.375 67.6172C75.3047 67.5352 73.8281 65.9062 71.4961 64.3828C71.7188 63.8086 71.8945 63.2227 72.0234 62.6133C81.8672 64.1133 86.4844 67.043 86.4844 68.7773C86.4844 71.4727 76.5703 75.8203 60 75.8203Z" fill="#B49AC9"/>
<circle cx="59.9883" cy="60.0117" r="8.78906" fill="#E5E5E5"/>
<circle cx="57.7734" cy="57.7852" r="4.27734" fill="url(#paint0_linear)"/>
<defs>
<linearGradient id="paint0_linear" x1="53.4926" y1="62.0613" x2="62.0473" y2="62.0613" gradientUnits="userSpaceOnUse">
<stop offset="0.00558659" stop-color="#F2F2F2"/>
<stop offset="1" stop-color="white"/>
</linearGradient>
</defs>
</svg>
