<svg width="120" height="120" viewBox="0 0 120 120" fill="none" xmlns="http://www.w3.org/2000/svg">
<circle cx="60" cy="60" r="60" fill="#303642"/>
<path fill-rule="evenodd" clip-rule="evenodd" d="M61.9896 18.199C61.5915 18.199 61.2432 18.1493 60.8949 18.0995C60.5466 18.0498 60.1982 18 59.8001 18C36.7106 18 18 36.7105 18 59.8002C18 66.1696 19.3933 72.1411 21.981 77.5154C21.981 77.7145 22.18 77.9134 22.18 77.9134L22.379 78.1125C28.5495 90.8516 41.0895 100.008 55.8192 101.401H56.2172C56.6153 101.401 57.0632 101.451 57.5111 101.501L57.5113 101.501C57.9591 101.55 58.4068 101.6 58.8049 101.6H59.601H59.8001C82.8896 101.6 101.6 82.8897 101.6 59.8002C101.6 37.7058 84.0839 19.3933 61.9896 18.199ZM78.9087 39.6962C78.9087 50.2458 70.3496 58.8048 59.8001 58.8048C47.8572 58.8048 38.3029 68.3591 38.3029 80.302C38.3029 85.8754 40.4924 91.0506 43.8763 94.8326C42.4829 93.8374 41.4877 93.0411 40.4924 92.0459C36.3124 87.8659 33.7248 82.0934 33.7248 76.7191C33.7248 65.5725 40.6915 59.203 55.0229 57.2125C67.563 55.421 73.7335 49.2505 73.7335 38.9001C73.7335 33.5258 71.3449 28.5495 66.7667 24.9667C64.3781 22.9762 61.3924 21.5829 58.4067 20.7867H59.8001C70.3496 20.5876 78.9087 29.1467 78.9087 39.6962ZM24.3695 59.6011C20.9857 65.9705 23.5733 74.7288 24.1705 76.7191C24.8011 78.1381 25.5567 79.4323 26.2393 80.6014C26.4184 80.9083 26.5926 81.2066 26.7581 81.4963C25.7629 79.1077 25.1657 76.7191 24.9667 74.5297C23.7724 57.8096 37.9049 54.0277 49.2506 51.0419C50.0547 50.7203 50.8588 50.5286 51.5579 50.3619L51.558 50.3619L51.5584 50.3618L51.5599 50.3614C51.7254 50.3219 51.8849 50.2839 52.0372 50.2458C59.402 48.2553 62.5867 44.2744 62.5867 37.7058C62.5867 32.9286 60.5963 29.3457 56.6153 27.3553C53.2315 25.5638 48.8524 25.1657 44.4734 25.9619C45.6677 26.161 47.061 26.5591 48.0563 26.9572C52.8335 28.9476 55.6201 32.9286 55.421 37.5067C55.222 46.663 48.6535 48.6534 36.7106 52.0373L36.6925 52.0424L36.6745 52.0476L36.6565 52.0527C35.2812 52.4456 33.9058 52.8385 32.5305 53.2316C28.7486 54.2268 25.9619 56.4162 24.3695 59.6011ZM26.7581 38.701C31.3362 32.7296 36.7106 31.5353 40.0943 32.3315C42.2838 32.9286 43.6772 34.3219 44.0752 36.1133C44.4734 37.9048 44.2743 39.4973 43.2792 40.4924C41.2886 43.0801 36.5115 43.8762 32.3315 44.0753C27.7533 44.4734 24.1705 46.2648 21.7819 49.4496C22.9762 45.6676 24.5686 42.0848 26.7581 38.701ZM65.3735 26.7581C60.5963 22.7772 53.6295 21.3838 47.061 22.7772C46.7624 22.8767 46.5136 22.9264 46.2648 22.9762L46.2648 22.9762C46.016 23.026 45.7672 23.0757 45.4686 23.1752C49.8477 22.7772 54.2267 23.3743 57.6106 25.1657C62.3878 27.5543 64.9753 32.1324 64.9753 37.7058C64.9753 45.4687 60.9944 50.2458 52.6344 52.6344C51.6392 53.0325 50.8429 53.2316 49.8477 53.4305L49.5979 53.4994C38.1313 56.6619 26.3672 59.9064 27.3553 74.5297C27.5543 79.5059 30.54 84.6811 34.9191 89.0602C32.5305 85.0791 31.1372 80.7002 31.1372 76.5202C31.1372 64.1791 39.0991 56.8144 54.6249 54.6248C65.9706 53.0325 71.3449 47.8573 71.3449 38.701C71.3449 34.123 69.1553 29.7438 65.3735 26.7581ZM20.7867 62.3877C20.7867 58.8048 21.1848 54.2268 23.7724 51.0419C25.7629 48.4544 28.7486 46.8619 32.5305 46.663C37.3077 46.2648 42.682 45.4687 45.0706 42.0848C46.2649 40.2933 46.862 38.303 46.2649 35.7153C45.6677 32.9286 43.4781 30.7391 40.2934 29.9429C38.9 29.5448 37.3077 29.5448 35.5163 29.9429C39.8952 27.7533 44.0752 27.9524 47.061 29.1467C50.8429 30.7391 53.0324 33.9239 52.8335 37.5067C52.6355 44.8309 47.7129 46.2492 36.1082 49.5928L35.9143 49.6487L31.7343 50.843C27.1562 52.2362 23.9714 54.8239 22.18 58.6059C21.5829 59.8002 21.1848 60.9944 20.7867 62.3877ZM40.6915 80.302C40.6915 90.8516 49.2506 99.2117 59.8001 99.4106C81.4964 99.4106 99.2116 81.6954 99.2116 59.9991C99.2116 43.0801 88.463 28.7486 73.5344 23.1752C78.3116 27.1562 81.2973 33.1276 81.2973 39.6962C81.2973 51.6391 71.743 61.1934 59.8001 61.1934C49.2506 61.1934 40.6915 69.7525 40.6915 80.302Z" fill="url(#paint0_linear)"/>
<defs>
<linearGradient id="paint0_linear" x1="17.9861" y1="101.748" x2="101.586" y2="101.748" gradientUnits="userSpaceOnUse">
<stop stop-color="#45DCA3"/>
<stop offset="1" stop-color="#128D89"/>
</linearGradient>
</defs>
</svg>
