<svg width="120" height="120" viewBox="0 0 120 120" fill="none" xmlns="http://www.w3.org/2000/svg">
<circle cx="60" cy="60" r="60" fill="#96B73D"/>
<path fill-rule="evenodd" clip-rule="evenodd" d="M45.3896 62.5862C44.7746 61.7687 44.2984 60.8612 43.9759 59.8937C44.3214 60.8479 44.8177 61.7405 45.4459 62.5375L45.5584 62.6837L45.3896 62.485C45.6058 62.7946 45.84 63.0914 46.0909 63.3737L46.4358 63.7187C46.4904 63.7733 46.5407 63.8266 46.5884 63.8773C46.6588 63.9519 46.7235 64.0206 46.7883 64.0787L54.2733 71.6162C55.5795 72.9361 57.4939 73.453 59.287 72.9699C61.0799 72.4719 62.4749 71.0614 62.953 69.2631C63.4311 67.4647 62.9209 65.5477 61.612 64.225L47.0021 49.4988C47.011 49.489 47.0198 49.479 47.0283 49.4688L47.2533 49.2813L62.0395 34.4914L62.1295 34.5889L62.1595 34.6264L89.7968 62.5262C91.9155 63.8884 94.6982 63.5836 96.4717 61.795C98.2711 59.9779 98.5096 57.1326 97.038 55.0413L65.752 23.5302C64.7847 22.5529 63.4674 22.0021 62.0924 22C60.7175 21.9979 59.3985 22.5447 58.4283 23.519L48.8771 33.0777L48.5358 33.3777C48.3108 33.5802 48.0783 33.7752 47.8346 33.9551L36.0409 45.7563C34.0133 47.8014 34.0133 51.0987 36.0409 53.1438L45.3896 62.5862ZM59.8945 54.8088L74.5231 69.5424C74.5155 69.5499 74.508 69.5574 74.5006 69.5649L74.2831 69.7412L59.527 84.4936L59.4333 84.3811L31.7435 56.425C29.7688 54.5901 26.7176 54.5738 24.7235 56.3875C22.725 58.2089 22.4255 61.2458 24.0298 63.4225L55.8183 95.4735C56.7872 96.4505 58.1061 97 59.482 97C60.8579 97 62.1768 96.4505 63.1457 95.4735L72.9857 85.6336C73.2133 85.4328 73.4511 85.2438 73.6981 85.0674L85.4993 73.2624C87.5299 71.2156 87.5299 67.9143 85.4993 65.8675L75.7119 56.0163C75.8216 56.1634 75.9291 56.3122 76.0344 56.4625L75.9519 56.3613C75.7869 56.125 75.6069 55.8925 75.4119 55.675L75.0706 55.33C75.0032 55.2662 74.9429 55.2025 74.8866 55.143C74.8271 55.0801 74.7721 55.022 74.7181 54.9738L67.2294 47.4363C66.2613 46.4569 64.9422 45.9045 63.5651 45.9017C62.188 45.8989 60.8667 46.4459 59.8945 47.4213C57.8668 49.4664 57.8668 52.7637 59.8945 54.8088Z" fill="white"/>
</svg>
