<svg width="120" height="120" viewBox="0 0 120 120" fill="none" xmlns="http://www.w3.org/2000/svg">
<circle cx="60" cy="60" r="60" fill="#EDF0F4"/>
<path fill-rule="evenodd" clip-rule="evenodd" d="M26 25.1036L59.9846 18L94.0379 25.1036V72.2083C94.0379 86.8986 61.9487 100.554 60.5701 101.071L60.0188 101.28L59.4675 101.071C52.9876 98.0712 46.7134 94.6227 40.7174 90.6915C33.0657 85.6224 26 79.105 26 72.2083V25.1036ZM59.9846 96.9678C69.1877 93.3468 91.281 82.4844 91.281 72.2083L91.2831 72.2087L91.2485 27.6211L60.1224 22.6219H59.8468L28.7199 27.6211V72.6497C28.7199 72.6742 28.7155 72.69 28.7115 72.7048C28.7041 72.7318 28.6976 72.7554 28.7199 72.8221C28.7557 72.9222 28.7789 73.0264 28.789 73.1323C28.789 73.1641 28.796 73.1885 28.8038 73.2152C28.8132 73.2477 28.8235 73.2836 28.8235 73.3405C28.8235 73.3976 28.834 73.4545 28.8434 73.5057C28.8511 73.5475 28.8581 73.5855 28.8581 73.6166C28.8551 73.6876 28.8668 73.7585 28.8927 73.8248C28.91 73.8766 28.9186 73.9197 28.9272 73.9628C28.9359 74.0059 28.9445 74.049 28.9618 74.1008C28.9769 74.1462 28.9854 74.185 28.9931 74.2199C29.003 74.2648 29.0115 74.3035 29.0309 74.3423C29.0697 74.4175 29.0932 74.4996 29.1 74.5838C29.1 74.6184 29.1173 74.6615 29.1346 74.7046C29.1519 74.7477 29.1692 74.7908 29.1692 74.8253C29.176 74.9096 29.1995 74.9917 29.2383 75.0668C29.2789 75.1445 29.3135 75.2253 29.3415 75.3084C29.3588 75.3607 29.3761 75.3954 29.3935 75.4302C29.4106 75.4644 29.4277 75.4987 29.4448 75.5499C29.4735 75.6439 29.508 75.7361 29.5481 75.8259C29.5894 75.8917 29.624 75.9614 29.6513 76.0341C29.6687 76.0861 29.6945 76.1294 29.7204 76.1726C29.7462 76.2157 29.7719 76.2587 29.7892 76.3102L29.8924 76.5184C29.9243 76.6168 29.9707 76.7099 30.0303 76.7945L30.1681 77.0027C30.2098 77.0436 30.2388 77.0981 30.2704 77.1576C30.2912 77.1967 30.3131 77.2378 30.3405 77.2787L30.4437 77.4869L30.6519 77.7971L30.7552 77.9695L30.9634 78.2797L31.1012 78.4521L31.3423 78.7623L31.4801 78.9347L31.7212 79.2449L31.859 79.3827L32.1347 79.7275L32.238 79.8653L32.5482 80.2101L32.6514 80.3479L32.9616 80.6927L33.0649 80.8305L33.4097 81.1753L33.5129 81.2786L33.8923 81.6233L33.9955 81.7266L34.3749 82.1059L34.4781 82.2092L34.8575 82.5885L34.9607 82.6577L35.3742 83.037L35.4433 83.1061L35.8914 83.4855L35.9605 83.5546L36.4431 83.9339L36.5122 83.9685L37.0294 84.3478L37.0985 84.3824L37.6498 84.7962L37.6844 84.8308L38.2365 85.2414L38.2711 85.2759L38.8224 85.6898L38.8569 85.7244L39.4428 86.1383L40.0632 86.5867L40.6836 87.0006C45.9227 90.5179 51.8854 93.518 56.4694 95.5525H56.504L57.0212 95.7607H57.0549L57.5029 95.9331L57.572 95.9676L57.9855 96.14L58.0888 96.1746L58.4681 96.3469L58.5714 96.3815L58.8816 96.5193L59.054 96.5884L59.3642 96.7263L59.5366 96.7954L59.9846 96.9678Z" fill="#5E4778"/>
<path fill-rule="evenodd" clip-rule="evenodd" d="M59.9847 26.0693L36.4099 29.8626L31.5493 30.6213V71.0016C31.5493 80.3467 51.6435 90.2435 59.9847 93.5197C64.8444 91.623 73.6681 87.4849 80.1826 82.5194C80.3433 82.3931 80.5078 82.2668 80.6723 82.1405L80.6728 82.1401L80.6729 82.14C81.0022 81.8871 81.3315 81.6343 81.6304 81.3815C83.8706 79.5539 85.7318 77.6227 86.9385 75.6573C87.8692 74.14 88.4205 72.5881 88.4205 71.0354V30.6213L59.9847 26.0693ZM46.2667 47.4834H62.8453V50.932H46.2667V47.4834ZM65.0513 62.5539C72.9099 62.5539 78.597 57.277 78.597 49.1045H78.5961C78.5961 40.9319 72.909 35.8282 65.0159 35.8282H49.0931V39.7594L59.9847 39.7248H64.5354C70.3262 39.7248 74.152 43.1734 74.152 49.1045C74.152 55.1047 70.3262 58.6565 64.4667 58.6565H49.8514V79.7958H54.1598V62.5539H65.0513Z" fill="#5E4778"/>
<path d="M59.9846 18V22.6219H60.1225L91.2485 27.6211V72.1725C91.2485 82.4486 69.1552 93.311 59.9521 96.932V101.242L60.5035 101.034C61.8821 100.517 93.9713 86.8615 93.9713 72.1713V25.1036L59.9846 18Z" fill="#5E4778"/>
<path fill-rule="evenodd" clip-rule="evenodd" d="M54.1596 62.5185H65.0158V62.5189C72.9089 62.5189 78.5614 57.242 78.5614 49.0695C78.5614 40.9665 72.8743 35.8282 65.0158 35.8282H49.0929V39.7594L59.9845 39.7248H64.5361C70.3268 39.7248 74.1526 43.1734 74.1526 49.1045C74.1526 55.1047 70.3268 58.6565 64.4674 58.6565H49.852V60.5877C40.7872 50.9666 37.5127 38.7251 36.4097 29.8626L60.0191 26.0693L88.4544 30.6213V71.0004C88.4544 72.5531 87.9031 74.105 86.9725 75.6223C75.7016 75.1052 66.8779 72.4499 60.0191 68.5187C57.9644 67.3532 56.0052 66.027 54.1596 64.5526V62.5185ZM62.8089 47.4834H59.9845H46.2665V50.932H62.8089V47.4834Z" fill="#5E4778"/>
<path d="M59.5711 96.7954L59.3988 96.7263L59.0885 96.623L58.9162 96.5539L58.6059 96.4161L58.5027 96.3815L58.1233 96.2091L58.0201 96.1746L57.6066 96.0022L57.5375 95.9676L57.0894 95.7594H57.0212L56.504 95.5512H56.4694C51.9199 93.5167 45.9568 90.5166 40.7178 86.9648L40.0973 86.5509L39.4769 86.0683L38.8911 85.6544L38.8565 85.6199L38.3052 85.206L38.2706 85.1714L37.7193 84.7575L37.6848 84.723L37.1335 84.3091L37.0644 84.2745L36.5472 83.8952L36.4781 83.8606L35.9955 83.4813L35.9268 83.4151L35.4787 83.0357L35.4096 82.9666L34.9961 82.5873L34.8929 82.5182L34.5135 82.1388L34.4103 82.0356L34.0309 81.6562L33.9277 81.553L33.5483 81.2082L33.4451 81.1049L33.1003 80.7602L32.997 80.6223L32.6868 80.2776L32.5836 80.1397L32.2734 79.795L32.1701 79.6571L31.8599 79.3811L31.722 79.2433L31.481 78.933L31.3431 78.7607L31.102 78.4504L30.9642 78.2781L30.756 77.9678L30.6528 77.7955L30.4446 77.4853L30.3413 77.3129C30.2722 77.2096 30.238 77.1047 30.1689 77.0368L30.0311 76.8286L29.8933 76.5525L29.79 76.3443C29.7554 76.2411 29.6867 76.172 29.6522 76.0683C29.6249 75.9956 29.5903 75.9258 29.5489 75.8601C29.5088 75.7703 29.4743 75.6781 29.4456 75.584C29.4111 75.4807 29.3765 75.4462 29.3424 75.3425C29.3143 75.2594 29.2798 75.1787 29.2391 75.101C29.1959 75.0277 29.1721 74.9446 29.17 74.8595C29.17 74.7562 29.1009 74.6513 29.1009 74.5834C29.094 74.4991 29.0705 74.4171 29.0317 74.3419C28.9972 74.2728 28.9972 74.2041 28.9626 74.1004C28.9281 73.9967 28.9281 73.928 28.8935 73.8243C28.8677 73.7581 28.8559 73.6872 28.8589 73.6161C28.8589 73.547 28.8244 73.4438 28.8244 73.3401C28.8244 73.2364 28.7898 73.2022 28.7898 73.1319C28.7798 73.026 28.7565 72.9218 28.7207 72.8217C28.6861 72.7184 28.7207 72.7184 28.7207 72.6493V27.6211L59.8468 22.6219H59.9846V18L26 25.1036V72.2083C26 79.105 33.0657 85.6224 40.7174 90.6915C46.7134 94.6227 52.9876 98.0712 59.4675 101.071L60.0188 101.28V96.9678L59.5707 96.7954" fill="#3D3144"/>
<path d="M59.9847 68.5187C57.93 67.3531 55.9708 66.0269 54.1252 64.5525V79.7924H49.8177V60.5872C40.752 50.9319 37.512 38.69 36.4099 29.8625L31.5493 30.6212V71.0016C31.5493 80.3467 51.6435 90.2435 59.9847 93.5196C64.8444 91.623 73.6681 87.4849 80.1826 82.5194C80.6652 82.1401 81.1819 81.7607 81.6304 81.3814C83.8706 79.5539 85.7318 77.6226 86.9385 75.6573C75.6676 75.071 66.8785 72.4157 59.9851 68.5191" fill="#3D3144"/>
</svg>
