<svg width="120" height="120" viewBox="0 0 120 120" fill="none" xmlns="http://www.w3.org/2000/svg">
<circle cx="60" cy="60" r="60" fill="#303642"/>
<path fill-rule="evenodd" clip-rule="evenodd" d="M78.0742 61.9209H53.3075V37H65.1364C67.5401 37 69.5722 37.5535 71.4225 38.4766C73.2454 39.3883 74.8763 40.6419 76.226 42.1692C77.5208 43.6458 78.6297 45.3063 79.369 47.3384C80.1083 49.3685 80.476 51.2129 80.476 53.245C80.476 55.4589 80.1083 57.3052 79.369 59.3373C78.9994 60.2585 78.6297 60.9978 78.0742 61.9209ZM66.4312 49.3685C65.506 48.6292 64.7667 48.2616 64.0274 48.2616H57.7433V58.2284H64.3971C65.1364 58.2284 65.8757 57.8587 66.615 57.1214C67.1685 56.384 67.5401 55.0912 67.5401 53.245C67.5401 51.3987 67.1705 50.1059 66.4312 49.3685ZM49.4271 65.6135V83.7028H44.9913V69.3041H40V65.6135H49.4271ZM49.4271 61.9209V37H44.9913V58.2303H40V61.9209H49.4271ZM53.3075 83.7048V65.6135H74.9332C73.9167 66.6189 72.7267 67.4321 71.4205 68.0133C69.5722 68.9364 67.5401 69.3041 65.3222 69.3041H57.7433V83.7048H53.3075Z" fill="url(#paint0_linear)"/>
<defs>
<linearGradient id="paint0_linear" x1="40" y1="37" x2="40" y2="83.7048" gradientUnits="userSpaceOnUse">
<stop stop-color="#F0F0F0"/>
<stop offset="1" stop-color="#999797"/>
</linearGradient>
</defs>
</svg>
