<svg width="120" height="120" viewBox="0 0 120 120" fill="none" xmlns="http://www.w3.org/2000/svg">
<circle cx="60" cy="60" r="60" fill="black"/>
<path fill-rule="evenodd" clip-rule="evenodd" d="M56.4307 66.4479C56.1526 66.0881 55.8623 65.7079 55.5761 65.3072C55.2572 64.8574 55.1468 64.424 55.2449 63.9702C55.4575 62.9807 56.6392 62.1139 57.0767 61.8645L56.537 60.8914C56.4552 60.9363 54.5335 62.0444 54.1696 63.7248C54.002 64.4935 54.1737 65.2458 54.6807 65.9573C54.9751 66.3702 55.2736 66.7587 55.5598 67.1307C56.9867 68.9911 57.6327 69.9397 56.7537 71.1213C56.3775 71.6242 55.9441 71.9513 55.4821 72.2948C54.3372 73.1534 53.1515 74.0407 53.5522 77.3443L54.6439 77.2094C54.3209 74.5477 55.0814 73.9793 56.1363 73.1902C56.6187 72.8304 57.1625 72.4215 57.6368 71.7878C59.0638 69.8743 57.784 68.2102 56.4307 66.4479Z" fill="#DEC685"/>
<path fill-rule="evenodd" clip-rule="evenodd" d="M56.4671 61.1611C55.9724 61.476 54.6476 62.4327 54.3573 63.7657C54.202 64.4771 54.3614 65.1763 54.8398 65.8427C55.1342 66.2557 55.4286 66.64 55.7107 67.008C57.1581 68.897 57.8695 69.9396 56.9087 71.2316C56.5162 71.7591 56.0705 72.0903 55.5962 72.446C54.4677 73.2924 53.4006 74.0897 53.7195 77.1235L54.4268 77.0335C54.1529 74.4249 54.9747 73.8075 56.0133 73.0307C56.4875 72.675 57.0191 72.2784 57.477 71.6691C58.8181 69.8701 57.6406 68.3368 56.2749 66.5582C55.9969 66.1943 55.7025 65.8141 55.4163 65.4093C55.0606 64.9105 54.942 64.4239 55.0524 63.9169C55.2609 62.9643 56.279 62.1343 56.8146 61.7867L56.4671 61.1611ZM53.3801 77.561L53.3556 77.3688C52.9385 73.9506 54.2265 72.9898 55.3591 72.1393C55.8088 71.8041 56.2381 71.4811 56.5939 71.0027C57.3584 69.9764 56.9005 69.2036 55.4 67.2492C55.0974 66.8608 54.803 66.4683 54.5168 66.0717C53.9771 65.3153 53.7931 64.5098 53.973 63.6839C54.3451 61.9707 56.2177 60.8463 56.4344 60.7236L56.6061 60.6255L57.3339 61.938L57.1704 62.032C56.7819 62.2528 55.6289 63.091 55.4327 64.011C55.3468 64.4035 55.4449 64.7919 55.7311 65.1967C56.0173 65.5974 56.3036 65.9736 56.5816 66.3334C57.9186 68.0752 59.3006 69.8783 57.7878 71.9104C57.2971 72.5646 56.7411 72.9816 56.2504 73.3496C55.2119 74.1265 54.525 74.6416 54.8357 77.1889L54.8602 77.3811L53.3801 77.561ZM43.2401 43.1381C37.5445 42.9132 36.2075 45.0639 36.089 46.912C36.0358 47.7461 36.0971 48.6742 36.1666 49.6596C36.3138 51.8184 36.4651 54.055 35.3366 55.1834C34.6743 55.8458 33.5948 56.1075 32.037 55.9848L31.9512 57.097C32.2251 57.1174 32.4868 57.1297 32.7403 57.1297C34.2286 57.1297 35.3366 56.7494 36.1094 55.9767C37.5977 54.4884 37.4219 51.8838 37.2665 49.586C37.2011 48.6415 37.1438 47.7502 37.1888 46.9856C37.3156 45.0189 39.3354 44.0948 43.1992 44.2543L43.2401 43.1381Z" fill="#DEC685"/>
<path fill-rule="evenodd" clip-rule="evenodd" d="M32.1551 56.9211C33.8929 57.0274 35.1358 56.6758 35.9699 55.8417C37.3928 54.4147 37.2211 51.8552 37.0698 49.5982C37.0044 48.6497 36.9471 47.7542 36.9921 46.9733C37.1229 44.9126 39.1468 43.9313 43.0107 44.0539L43.0393 43.3262C38.7666 43.1912 36.436 44.4383 36.2807 46.9242C36.2275 47.7542 36.2888 48.6701 36.3583 49.6432C36.5055 51.847 36.6609 54.1285 35.4711 55.3184C34.7965 55.993 33.7334 56.2792 32.2165 56.1893L32.1551 56.9211ZM32.7398 57.3218C32.4822 57.3218 32.2165 57.3136 31.9344 57.2891L31.7422 57.2728L31.8567 55.7763L32.0488 55.7926C33.5453 55.9112 34.5757 55.6659 35.1931 55.0444C36.2602 53.9773 36.1089 51.7857 35.9699 49.6678C35.9045 48.6824 35.8391 47.7501 35.8922 46.8956C36.0149 44.9616 37.3887 42.7128 43.2437 42.9418L43.4359 42.95L43.3787 44.4506L43.1865 44.4424C39.4535 44.2911 37.495 45.1497 37.3764 46.9937C37.3274 47.7461 37.3887 48.6333 37.4541 49.5696C37.6136 51.9084 37.7894 54.5619 36.2439 56.1116C35.4302 56.9293 34.2813 57.3218 32.7398 57.3218Z" fill="#DEC685"/>
<path fill-rule="evenodd" clip-rule="evenodd" d="M51.6589 61.8768C51.3808 61.5129 51.0905 61.1367 50.8043 60.7319C50.4486 60.2331 50.326 59.767 50.4282 59.3009C50.604 58.5077 51.3768 57.9066 51.7325 57.6695C52.5012 57.9761 53.4334 58.1806 54.57 58.2255V58.2337C54.6477 58.2337 54.7295 58.2337 54.8072 58.2296C54.8849 58.2337 54.9626 58.2337 55.0443 58.2337V58.2255C58.2049 58.1029 59.8036 56.7291 60.6132 55.3798C61.3696 55.6865 63.5366 56.7986 63.4385 59.4849C63.3894 60.8096 62.2814 62.073 61.206 63.2955C59.6809 65.0373 57.9473 67.0122 59.3906 69.355L60.327 68.7663C59.3865 67.2371 60.3433 65.9573 62.0319 64.0356C63.234 62.6659 64.477 61.2471 64.5383 59.5258C64.6242 57.1257 63.2545 55.6129 61.9624 54.8156C63.0419 54.7052 64.4116 54.3372 64.7428 53.6503C64.8613 53.4049 65.1721 52.7548 62.1955 45.6732C61.9829 44.6592 61.3818 41.7521 61.206 40.3374C63.418 37.2954 62.4286 34.1757 60.4292 32.4012C58.3603 30.5695 54.938 29.8989 52.2967 31.9801C51.5403 30.2506 49.6268 29.0321 47.0836 28.7173C42.5615 28.1612 39.2619 30.5736 38.113 33.0513C36.6288 36.2528 37.4465 38.5057 38.2315 39.7078C35.7824 39.7323 34.0774 40.3333 33.047 41.5231C31.3952 43.4285 31.9472 46.3028 32.3888 48.6171C32.5932 49.6924 32.8508 51.0294 32.5891 51.3565C31.7305 52.4359 30.7574 52.1252 30.3771 51.9412C29.727 51.6264 29.3181 51.0008 29.4326 50.4856L28.3573 50.2485C28.1365 51.2706 28.7866 52.4073 29.9069 52.947C30.8964 53.4254 32.3479 53.4417 33.4518 52.0516C34.0324 51.3238 33.7871 50.0358 33.4723 48.4044C33.0798 46.3315 32.585 43.7556 33.8811 42.255C34.8256 41.1633 36.686 40.6972 39.4132 40.8526L39.7852 39.859C39.7566 39.8386 37.1726 37.7084 39.1147 33.5256C40.5212 30.4918 44.1643 29.4778 46.9569 29.8212C48.8908 30.0584 51.0946 31.0356 51.4953 33.0718L52.4276 33.3539C54.0917 31.6448 57.2073 31.0233 59.7055 33.2394C61.2183 34.5805 62.2527 37.0787 60.2738 39.7364C55.2079 38.9513 51.4176 39.626 49.0217 41.7603C47.5661 43.0523 46.9364 44.606 46.6625 45.7795C46.5439 45.6855 46.4171 45.6078 46.2822 45.5423C45.9061 45.3706 45.1456 45.1866 44.246 45.8613C43.3547 46.5318 42.9908 47.5376 43.2198 48.6866C43.4896 50.0563 44.5445 51.4424 45.5912 52.2233C45.0924 52.7099 44.5813 53.3641 44.4096 54.1532C44.2419 54.9219 44.4137 55.6742 44.9207 56.3856C45.2151 56.7986 45.5135 57.187 45.7997 57.5591C47.2267 59.4194 47.8727 60.368 46.9937 61.5497C46.6175 62.0526 46.18 62.3797 45.718 62.7231C44.5731 63.5818 43.3874 64.469 43.7881 67.7727L44.8798 67.6378C44.5568 64.976 45.3173 64.4077 46.3722 63.6226C46.8546 63.2628 47.3984 62.854 47.8727 62.2202C49.2997 60.3067 48.0199 58.6426 46.6666 56.8763C46.3763 56.5001 46.09 56.1199 45.812 55.7355C45.4931 55.2858 45.3868 54.8483 45.4808 54.3985C45.6158 53.7688 46.1432 53.1882 46.6216 52.7876C46.6543 52.7998 46.7524 52.6812 46.7524 52.6812C46.9773 52.5054 47.1776 52.3705 47.3126 52.2969L47.0427 51.8103L46.7729 51.3238C46.6747 51.381 46.5807 51.4383 46.4867 51.5037C45.6403 50.9681 44.5322 49.6842 44.291 48.474C44.1438 47.738 44.3442 47.1778 44.8961 46.7567C45.2355 46.4991 45.5422 46.4337 45.8161 46.5604C46.1432 46.7076 46.4131 47.1369 46.4417 47.554L46.9609 47.5131L47.5415 47.4886C47.5374 47.46 47.4679 44.6019 49.7454 42.5903C51.9001 40.685 55.4041 40.1084 60.1552 40.8526C60.4292 42.7375 61.1529 46.1148 61.1856 46.2742L61.2346 46.262C62.4326 49.1159 63.6633 52.44 63.7124 53.1923C63.3649 53.4949 61.9011 53.7688 61.2714 53.7648C61.4309 53.1392 61.435 52.6976 61.435 52.6812H60.331C60.331 52.8611 60.2656 57.0071 54.799 57.1216C49.3692 57.003 49.2752 52.8571 49.2711 52.6772L48.7232 52.6812H48.1712C48.1712 52.7221 48.2121 55.4902 50.6449 57.1052C50.146 57.5305 49.545 58.1928 49.3528 59.0556C49.177 59.8406 49.361 60.6256 49.9089 61.3902C50.2033 61.8032 50.5018 62.1916 50.788 62.5637C52.2149 64.424 52.861 65.3685 51.9819 66.5502C51.6057 67.0531 51.1682 67.3802 50.7103 67.7277C49.5655 68.5863 48.3797 69.4695 48.7804 72.7773L49.8721 72.6423C49.5491 69.9806 50.3096 69.4123 51.3645 68.6231C51.847 68.2633 52.3908 67.8545 52.865 67.2207C54.2879 65.3031 53.0082 63.639 51.6589 61.8768Z" fill="#DEC685"/>
<path fill-rule="evenodd" clip-rule="evenodd" d="M48.3753 52.8734C48.4325 53.5194 48.776 55.6332 50.7549 56.9416L50.9675 57.0847L50.7713 57.2524C50.3092 57.6449 49.7246 58.2786 49.5447 59.0964C49.3811 59.8283 49.5569 60.5601 50.068 61.2757C50.3624 61.6886 50.6568 62.077 50.943 62.445C52.3863 64.3299 53.0978 65.3726 52.1369 66.6646C51.7444 67.1879 51.3028 67.5232 50.8326 67.8748C49.6959 68.7253 48.6288 69.5226 48.9477 72.5605L49.6591 72.4706C49.3852 69.862 50.207 69.2405 51.2456 68.4677C51.7199 68.112 52.2514 67.7154 52.7052 67.1062C54.0422 65.3112 52.8688 63.778 51.5072 61.9994L51.6585 61.8767L51.5032 61.9953C51.2251 61.6314 50.9348 61.2511 50.6445 60.8463C50.2561 60.3025 50.1212 59.7792 50.2397 59.2599C50.4319 58.389 51.2742 57.743 51.6258 57.5059L51.7117 57.4486L51.8057 57.4854C52.603 57.8043 53.5393 57.9883 54.5779 58.0292L54.7578 58.0374H54.8068H54.9499L55.0399 58.0292C57.5953 57.927 59.4148 57.003 60.4534 55.2775L60.5392 55.1385L60.6905 55.1998C61.406 55.4901 63.7407 56.6554 63.6385 59.493C63.5853 60.8831 62.4527 62.1752 61.361 63.4222C59.9136 65.07 58.2822 66.9304 59.4639 69.0851L60.0731 68.7008C59.2308 67.1348 60.253 65.7732 61.8926 63.9047C63.0742 62.5595 64.2927 61.1694 64.354 59.5175C64.448 56.9662 62.8371 55.576 61.868 54.979L61.3856 54.6806L61.9498 54.6233C63.062 54.5088 64.3008 54.1368 64.5748 53.5684C64.8365 53.0246 63.9778 50.3956 62.0234 45.7508C61.8272 44.8227 61.2016 41.8052 61.0217 40.3619L61.0094 40.2883L61.0544 40.2229C63.1969 37.279 62.2197 34.2452 60.3021 32.5443C58.3354 30.8025 54.999 30.0992 52.419 32.1313L52.2228 32.2867L52.1246 32.0577C51.3928 30.3854 49.4997 29.2079 47.0669 28.9094C42.6388 28.3656 39.4169 30.7166 38.2966 33.133C36.886 36.175 37.5729 38.3298 38.3988 39.6055L38.591 39.8999L38.2394 39.9039C35.8434 39.9285 34.1956 40.5009 33.2021 41.6498C31.6116 43.4857 32.1513 46.311 32.5847 48.5802C32.8668 50.044 33.0426 51.107 32.7482 51.475C31.8037 52.6607 30.7202 52.3173 30.2991 52.1129C29.6367 51.7939 29.2115 51.1929 29.2237 50.6327L28.5164 50.4774C28.4305 51.3605 29.0234 52.3009 29.9883 52.7711C30.9083 53.2168 32.2617 53.2291 33.2961 51.9329C33.8195 51.2706 33.5823 50.0235 33.2798 48.4412C32.875 46.3273 32.3761 43.6983 33.7295 42.1323C34.6944 41.0161 36.5589 40.5173 39.2779 40.6563L39.5559 39.9162C39.0694 39.446 37.1559 37.279 38.9385 33.4438C40.3859 30.32 44.1189 29.2815 46.9769 29.6331C48.9395 29.8743 51.1801 30.8638 51.6585 32.9204L52.37 33.1371C54.1158 31.424 57.2846 30.8352 59.8319 33.0962C61.3938 34.4823 62.4854 37.0827 60.4247 39.8549L60.3552 39.9489L60.2407 39.9326C55.228 39.1557 51.495 39.8181 49.1481 41.9074C47.7047 43.1913 47.0996 44.745 46.8502 45.8244L46.7807 46.1188L46.5435 45.9307C46.4209 45.8367 46.3105 45.7672 46.2042 45.714C45.8689 45.5586 45.182 45.3951 44.3683 46.0125C43.5383 46.6381 43.199 47.5744 43.4116 48.6456C43.6855 50.0317 44.765 51.3605 45.7094 52.0638L45.8934 52.1987L45.7299 52.3582C45.1166 52.9469 44.7404 53.5643 44.6014 54.1899C44.446 54.9014 44.6055 55.6005 45.0839 56.267C45.3619 56.6554 45.644 57.0234 45.9139 57.375L45.9589 57.4364C47.4063 59.3213 48.1177 60.3639 47.1569 61.6559C46.7643 62.1834 46.3146 62.5186 45.8403 62.8703C44.7118 63.7166 43.6446 64.5139 43.9636 67.5518L44.675 67.466C44.4011 64.8533 45.227 64.2359 46.2655 63.4631C46.7439 63.1033 47.2754 62.7067 47.7252 62.1016C49.0663 60.3025 47.8887 58.7693 46.5231 56.9907C46.2369 56.6186 45.9507 56.2425 45.6645 55.8458C45.3088 55.3511 45.1902 54.8605 45.3006 54.3576C45.4559 53.6461 46.0447 53.0287 46.5067 52.6362L46.5885 52.5667L46.6008 52.5708L46.6171 52.5544C46.7807 52.4195 46.932 52.3091 47.0669 52.2232L46.7153 51.5895C46.6785 51.614 46.6458 51.6345 46.609 51.659L46.4945 51.7285L46.3882 51.6631C45.46 51.0784 44.3479 49.7373 44.1067 48.5107C43.9472 47.7052 44.1762 47.0633 44.7854 46.6013C45.1861 46.2987 45.5623 46.221 45.9016 46.3805C46.241 46.5358 46.5231 46.9243 46.6131 47.3413L47.3572 47.3004C47.3817 46.6054 47.6189 44.2135 49.6264 42.443C51.8221 40.5009 55.3752 39.9039 60.1917 40.6604L60.3348 40.6849L60.3552 40.8239C60.5883 42.4144 61.1321 45.0476 61.3406 46.0452L61.357 46.0411L61.4183 46.1883C62.5877 48.9809 63.8592 52.3827 63.9124 53.18L63.9206 53.2781L63.847 53.3395C63.434 53.6952 61.9171 53.9569 61.2956 53.9569H61.2793H61.034L61.0912 53.7197C61.1607 53.4417 61.2098 53.1596 61.2384 52.8774H60.5269C60.4574 53.7524 59.8605 57.2115 54.8109 57.3178C49.7818 57.2115 49.1644 53.7483 49.0867 52.8774L48.3753 52.8734ZM48.6083 72.9857L48.5838 72.7936C48.1668 69.3754 49.4547 68.4146 50.5914 67.5682C51.0452 67.2288 51.4664 66.9099 51.8262 66.4315C52.5908 65.4053 52.1369 64.6325 50.6363 62.6781C50.3501 62.306 50.0517 61.9135 49.7532 61.4965C49.1767 60.6869 48.9804 59.8528 49.1685 59.0064C49.3525 58.1969 49.8718 57.5549 50.3379 57.1174C48.0114 55.4247 47.9828 52.7016 47.9828 52.673V52.4808L49.467 52.4767L49.4711 52.6689C49.4711 52.8406 49.5651 56.8067 54.8191 56.9212C60.0935 56.8108 60.1549 52.8447 60.1549 52.673V52.4808H61.6432V52.673C61.6432 52.6771 61.6391 53.0246 61.5287 53.5562C62.1747 53.5112 63.1683 53.2945 63.5199 53.0941C63.389 52.2805 62.3791 49.4756 61.1321 46.4786L61.0503 46.499L61.0094 46.311C60.8295 45.4687 60.2571 42.7292 59.9995 41.0161C55.3752 40.3128 51.9734 40.8893 49.8881 42.7293C47.6802 44.6755 47.7456 47.4476 47.7497 47.4762L47.7538 47.6684L46.2778 47.7543L46.2614 47.5621C46.2328 47.2146 46.0079 46.8507 45.7462 46.728C45.5418 46.634 45.3047 46.6912 45.0225 46.9038C44.5278 47.28 44.3561 47.7625 44.491 48.4289C44.7036 49.4961 45.6726 50.6982 46.4945 51.2624C46.6049 51.1929 46.6744 51.152 46.6866 51.1438L46.8543 51.0539L47.578 52.3582L47.4104 52.4522C47.2632 52.5381 47.0587 52.6771 46.8747 52.8243C46.8338 52.8815 46.7766 52.9306 46.7112 52.9592C46.3636 53.2577 45.8035 53.8178 45.6686 54.4312C45.5827 54.8278 45.6808 55.2162 45.967 55.6169C46.2492 56.0135 46.5354 56.3856 46.8093 56.7413C48.1545 58.4953 49.5365 60.2985 48.0237 62.3306C47.5412 62.9807 46.9851 63.3936 46.4986 63.7616C45.4478 64.5466 44.765 65.0577 45.0716 67.6091L45.0961 67.8013L43.6201 67.9852L43.5956 67.7931C43.1826 64.3749 44.4665 63.4141 45.6031 62.5636C46.0529 62.2283 46.4781 61.9094 46.8379 61.4269C47.6025 60.4007 47.1446 59.6279 45.644 57.6735L45.5991 57.6122C45.3251 57.2565 45.043 56.8844 44.765 56.496C44.2212 55.7395 44.0413 54.9341 44.2212 54.1081C44.3602 53.4662 44.7241 52.8406 45.3006 52.2396C44.3397 51.4627 43.3053 50.1216 43.0273 48.7233C42.786 47.4967 43.1744 46.4254 44.1271 45.7058C45.1043 44.9658 45.9425 45.1743 46.3596 45.3624C46.4209 45.391 46.4822 45.4237 46.5395 45.4564C46.9279 43.9722 47.7456 42.6352 48.8864 41.613C51.311 39.4624 55.1094 38.7632 60.1794 39.5278C61.9907 37.0051 60.9931 34.6459 59.5702 33.3824C57.1619 31.2481 54.1608 31.841 52.558 33.4888L52.4763 33.5705L51.3192 33.223L51.2987 33.1085C50.9185 31.1745 48.7882 30.2423 46.9238 30.0133C44.2048 29.6781 40.6476 30.6594 39.282 33.6073C37.4175 37.6265 39.8749 39.6872 39.8994 39.7118L40.0057 39.7976L39.5396 41.057L39.3965 41.0488C36.7306 40.8893 34.9234 41.3432 34.0198 42.3858C32.785 43.8128 33.2675 46.3396 33.6559 48.3717C33.9789 50.0521 34.2324 51.3769 33.5946 52.1742C32.417 53.6502 30.8715 53.6339 29.8166 53.1187C28.6186 52.5422 27.9235 51.3156 28.1648 50.2034L28.2057 50.0153L29.6612 50.3343L29.6204 50.5223C29.5304 50.9476 29.8984 51.4955 30.4626 51.7653C30.8797 51.9657 31.6933 52.166 32.4375 51.2338C32.6419 50.9762 32.3516 49.4634 32.1962 48.6538C31.7465 46.3028 31.1863 43.3753 32.8995 41.4004C33.9217 40.2147 35.5572 39.6055 37.8877 39.5278C37.0986 38.1458 36.5507 35.9583 37.9368 32.9736C39.1143 30.4345 42.4875 27.9608 47.1037 28.5291C49.5692 28.8317 51.5154 30.0052 52.3659 31.6856C55.0808 29.7067 58.5153 30.4549 60.5515 32.2621C62.5836 34.0653 63.6262 37.2749 61.4019 40.3946C61.5941 41.8502 62.1992 44.7695 62.3791 45.6445C65.3803 52.767 65.0654 53.4253 64.9141 53.7442C64.6034 54.3903 63.5322 54.7746 62.4895 54.9504C63.5117 55.7068 64.816 57.1461 64.7301 59.5461C64.6647 61.337 63.4013 62.7803 62.1747 64.1746C60.3961 66.2026 59.6479 67.3106 60.4902 68.6803L60.5883 68.8439L59.329 69.6371L59.2267 69.4694C57.7098 67.0039 59.4884 64.9719 61.0626 63.181C62.1134 61.983 63.1969 60.7441 63.2459 59.493C63.3318 57.1174 61.5941 56.0339 60.6905 55.6373C59.9096 56.8517 58.3436 58.25 55.2362 58.4217V58.4299L55.044 58.4381H54.3775V58.4217C53.4085 58.3686 52.5294 58.1887 51.7567 57.8984C51.4091 58.1437 50.7631 58.6793 50.6159 59.354C50.526 59.7628 50.6363 60.1799 50.9594 60.6337C51.2456 61.0344 51.5359 61.4106 51.8098 61.7704L51.6585 61.889L51.8139 61.7745C53.1509 63.5163 54.5288 65.3194 53.016 67.3474C52.5294 68.0016 51.9693 68.4186 51.4786 68.7866C50.436 69.5676 49.7532 70.0787 50.0598 72.63L50.0844 72.8222L48.6083 72.9857Z" fill="#DEC685"/>
<path fill-rule="evenodd" clip-rule="evenodd" d="M42.5044 37.5611C41.703 38.5955 41.6907 39.9121 42.4717 40.9179C42.9623 41.5476 43.6451 41.891 44.3239 41.891C44.606 41.891 44.8881 41.8297 45.1539 41.707C46.2905 41.1837 46.5604 40.7585 47.2882 39.6095C47.6521 39.0412 48.1468 38.2602 48.9482 37.1522C49.5656 36.3018 50.2239 35.852 50.9149 35.8234C52.0352 35.7825 52.9756 36.8374 52.9838 36.8496L53.4008 36.4857L53.8179 36.1218C53.7688 36.0646 52.5953 34.7072 50.9926 34.7072C50.9558 34.7072 50.919 34.7072 50.8781 34.7112C49.8354 34.7521 48.8869 35.3532 48.0609 36.4939C47.4681 37.3117 46.9038 38.1539 46.3641 39.0085C45.6813 40.0838 45.5382 40.3087 44.6959 40.6971C44.1889 40.9302 43.6492 40.6317 43.3385 40.2269C42.9746 39.7608 42.7947 38.9962 43.3753 38.248L42.5044 37.5611Z" fill="#DEC685"/>
<path fill-rule="evenodd" clip-rule="evenodd" d="M42.5407 37.835C41.911 38.7714 41.9356 39.9121 42.6225 40.7953C43.248 41.6008 44.2498 41.9074 45.0675 41.5312C46.151 41.0324 46.3964 40.6481 47.1201 39.5032C47.484 38.9349 47.9787 38.154 48.7883 37.0337C49.4384 36.1301 50.1498 35.6599 50.898 35.6271C51.8589 35.5903 52.6684 36.2772 52.9833 36.5798L53.5312 36.1014C53.1918 35.7539 52.2228 34.8912 50.9798 34.8912C50.9471 34.8912 50.9144 34.8912 50.8776 34.8953C49.8922 34.9321 48.9968 35.5045 48.2077 36.6003C47.3858 37.741 46.8829 38.5301 46.519 39.1026C45.8239 40.1942 45.6604 40.4518 44.769 40.8607C44.168 41.1346 43.5343 40.7953 43.1785 40.3373C42.7002 39.7445 42.6715 38.9063 43.1009 38.2766L42.5407 37.835ZM44.3193 42.0832C43.567 42.0832 42.8351 41.6989 42.3158 41.0324C41.4776 39.9571 41.494 38.5465 42.3485 37.4384L42.4671 37.2831L43.6365 38.2112L43.522 38.3625C43.0109 39.0208 43.1663 39.6954 43.4852 40.1043C43.7469 40.4437 44.2007 40.7012 44.6096 40.5132C45.3987 40.1493 45.5173 39.9571 46.1919 38.8981C46.5599 38.3175 47.0669 37.5243 47.8969 36.3754C48.7596 35.1815 49.7573 34.5559 50.8612 34.5109C50.898 34.5068 50.9389 34.5068 50.9798 34.5068C52.6807 34.5068 53.9032 35.9297 53.9523 35.991L54.075 36.1382L52.9506 37.1154L52.8238 36.9723C52.8156 36.9642 51.9611 36.0115 50.9634 36.0115H50.9103C50.2847 36.0401 49.6755 36.4572 49.0949 37.2585C48.5184 38.0558 47.9664 38.8736 47.4431 39.7077C46.7112 40.8566 46.4086 41.3309 45.2229 41.8788C44.9449 42.0137 44.6341 42.0832 44.3193 42.0832ZM75.7656 82.7537C78.4723 81.9523 79.7807 78.6282 78.9466 74.5313L77.8672 74.7561C78.4682 77.6959 77.9081 81.1386 75.2668 81.7397C72.7399 82.3162 70.299 80.0878 69.334 76.318C68.7575 74.0611 68.9129 71.9554 69.7674 70.5407C70.2826 69.6861 71.0186 69.1423 71.9508 68.9297C72.56 68.7825 73.1938 68.7989 73.7948 68.9747L74.1056 67.9035C73.3246 67.6745 72.4987 67.654 71.7096 67.838C71.2435 67.9443 70.7978 68.1242 70.3848 68.3737L70.3644 68.3328C67.3388 69.9028 63.9656 70.6838 60.5597 70.6102L60.5392 71.7223C60.6864 71.7264 60.8295 71.7264 60.9767 71.7264C63.6098 71.7264 66.2184 71.2398 68.6431 70.3199C67.809 71.9676 67.6658 74.2205 68.271 76.592C68.9988 79.4295 70.5034 81.4984 72.3229 82.4143C70.0577 82.8395 67.4328 83.1707 65.6215 83.1707C62.9516 83.1707 60.3184 82.7905 57.7998 82.0341L57.489 83.1012C60.1303 83.8903 62.8698 84.2869 65.6256 84.2829C68.5776 84.2829 73.3451 83.4774 75.7738 82.7578L75.7656 82.7537Z" fill="#DEC685"/>
<path fill-rule="evenodd" clip-rule="evenodd" d="M57.7257 82.9826C60.273 83.7267 62.9266 84.1029 65.621 84.1029C68.4913 84.1029 73.0788 83.3383 75.5443 82.6351L75.712 82.5696C78.3083 81.801 79.5349 78.6772 78.7949 74.7602L78.0957 74.9074C78.6518 77.8922 78.0221 81.3103 75.3113 81.9318C72.674 82.5288 70.1431 80.2432 69.1496 76.3671C68.5608 74.0651 68.7244 71.9063 69.6034 70.4466C70.1472 69.543 70.9241 68.9706 71.9095 68.7457C72.486 68.6108 73.087 68.6108 73.6635 68.7457L73.868 68.0465C73.177 67.8748 72.4492 67.8707 71.7582 68.0343C71.3125 68.1365 70.8832 68.3082 70.4907 68.5453L70.3108 68.6557L70.2822 68.6026C67.3301 70.0991 64.0591 70.8596 60.7514 70.8146L60.7391 71.5424C63.4336 71.571 66.0708 71.1049 68.5772 70.1481L69.0433 69.9682L68.8184 70.4139C68.0047 72.0208 67.8739 74.2573 68.4586 76.5511C69.1537 79.2578 70.5929 81.3348 72.4124 82.2507L72.9235 82.5083L72.3592 82.6146C69.8201 83.0889 67.3015 83.3751 65.621 83.3751C63.0165 83.3792 60.4283 83.0112 57.9261 82.2834L57.7257 82.9826ZM65.621 84.4913C62.8489 84.4954 60.089 84.0947 57.4313 83.3015L57.2473 83.2484L57.6685 81.8091L57.8565 81.8623C60.3548 82.6105 62.9715 82.9908 65.621 82.9908C67.1379 82.9908 69.4521 82.7414 71.7664 82.3325C70.0695 81.2653 68.7448 79.2332 68.0865 76.6533C67.5182 74.4331 67.5877 72.3315 68.2746 70.6756C65.7927 71.5587 63.1719 71.984 60.5347 71.9308L60.3425 71.9267L60.3711 70.4262L60.5633 70.4302C60.7023 70.4343 60.8372 70.4343 60.9762 70.4343C64.2309 70.4343 67.4487 69.6534 70.2781 68.1774L70.4498 68.0874L70.4702 68.1242C70.8464 67.9157 71.2512 67.7644 71.6723 67.6704C72.4941 67.4782 73.3528 67.4986 74.1623 67.7358L74.3463 67.7889L73.9293 69.2282L73.7412 69.1709C73.1729 69.0074 72.5718 68.991 71.9953 69.1259C71.1122 69.3304 70.4212 69.8415 69.9346 70.651C69.1087 72.0248 68.9574 74.0733 69.5217 76.2771C70.458 79.9406 72.809 82.1117 75.2213 81.5597C77.74 80.9873 78.2592 77.655 77.6786 74.8011L77.6418 74.613L79.0974 74.3063L79.1383 74.4985C79.9765 78.6199 78.7172 81.9563 76.0023 82.8845L76.0064 82.9008L75.8265 82.954C73.3855 83.6818 68.5935 84.4913 65.621 84.4913ZM60.0031 45.8816L57.4231 44.7817L56.9897 44.7858L52.668 46.6789L53.1055 47.7011L57.2146 45.9061L59.5779 46.912L60.0031 45.8816Z" fill="#DEC685"/>
<path fill-rule="evenodd" clip-rule="evenodd" d="M52.923 46.7771L53.2092 47.4435L57.2121 45.6936L59.4731 46.6544L59.7512 45.9839L57.3838 44.9739L57.0322 44.978L52.923 46.7771ZM53.0048 47.9546L52.416 46.5767L56.9913 44.5937L57.4656 44.5896L57.5024 44.606L60.2582 45.7794L59.6817 47.1614L57.2162 46.1147L53.0048 47.9546Z" fill="#DEC685"/>
<path fill-rule="evenodd" clip-rule="evenodd" d="M56.6562 48.0037C56.6562 48.5107 57.0897 48.9237 57.6212 48.9237C58.1527 48.9237 58.5861 48.5107 58.5861 48.0037C58.5861 47.4967 58.1527 47.0837 57.6212 47.0837C57.0897 47.0837 56.6562 47.5008 56.6562 48.0037Z" fill="#DEC685"/>
<path fill-rule="evenodd" clip-rule="evenodd" d="M57.62 47.28C57.1948 47.28 56.8472 47.6071 56.8472 48.0078C56.8472 48.4085 57.1907 48.7356 57.62 48.7356C58.0493 48.7356 58.3928 48.4085 58.3928 48.0078C58.3928 47.6071 58.0452 47.28 57.62 47.28ZM57.62 49.1159C56.9822 49.1159 56.4629 48.617 56.4629 48.0037C56.4629 47.3904 56.9822 46.8916 57.62 46.8916C58.2578 46.8916 58.7812 47.3904 58.7812 48.0037C58.7812 48.617 58.2578 49.1159 57.62 49.1159Z" fill="#DEC685"/>
<path fill-rule="evenodd" clip-rule="evenodd" d="M77.6502 59.5298L68.2216 63.3159L72.02 51.3564C72.0364 51.3564 72.0528 51.3605 72.0691 51.3605C72.1018 51.3605 72.1304 51.3523 72.1632 51.3523L77.7892 58.8101C77.6911 58.986 77.6379 59.1822 77.6379 59.3826C77.6379 59.4316 77.6461 59.4807 77.6502 59.5298ZM48.4772 77.1276C48.7144 77.4015 49.0619 77.5814 49.4585 77.5814C49.4871 77.5814 49.5158 77.5733 49.5444 77.5733L54.7003 86.2863C52.8481 85.9224 51.0368 85.3663 49.2991 84.6222C46.0976 83.2525 43.1905 81.2858 40.7291 78.8244L48.4772 77.1276ZM36.0107 62.8866C36.0884 63.3159 36.391 63.6716 36.8039 63.827L38.8033 76.7105C37.0942 74.6253 35.7041 72.3152 34.6574 69.8088L33.9173 69.5226L33.5084 69.7147C32.6253 67.1266 32.1183 64.4239 32.0079 61.6886L36.0107 62.8866ZM87.7371 87.0427C84.1717 90.6612 79.9399 93.5479 75.2706 95.5432C70.4459 97.612 65.2491 98.671 59.9992 98.6628C54.7043 98.6628 49.5689 97.612 44.7279 95.5432C40.0586 93.5479 35.8227 90.6571 32.2614 87.0427C28.9046 83.6532 26.1896 79.683 24.2434 75.3245L33.8683 70.7737C35.2911 73.9997 37.2905 76.9395 39.7724 79.4418C42.3728 82.079 45.4598 84.1888 48.8657 85.6444C52.382 87.149 56.1722 87.9259 59.9951 87.9177C62.293 87.9177 64.5745 87.6438 66.7701 87.104L66.5085 86.0246C63.1066 86.8546 59.5781 87.0264 56.1149 86.5275L50.5052 77.0417C50.6483 76.8373 50.7301 76.5961 50.7301 76.3466C50.7301 75.6638 50.1577 75.1078 49.4503 75.1078C48.8534 75.1078 48.3546 75.5085 48.2155 76.0441L40.0872 77.8227L37.9079 63.7452C38.2882 63.5326 38.5498 63.136 38.5498 62.6781C38.5498 61.9953 37.9774 61.4433 37.2701 61.4433C36.9103 61.4433 36.5832 61.5905 36.3501 61.8235L31.9793 60.5192C31.9793 60.4988 31.7789 60.462 31.7789 60.462H30.8753C30.8753 63.8065 31.4273 67.0734 32.5067 70.189L28.6429 72.0167C27.31 68.3123 26.6312 64.3994 26.6353 60.462C26.6353 59.632 26.6639 58.802 26.7212 57.9883L25.6213 57.9065C25.56 58.7447 25.5314 59.6074 25.5314 60.462C25.5314 64.6039 26.2387 68.6476 27.637 72.491L23.7896 74.3105C22.1336 69.8824 21.2873 65.1926 21.2955 60.462C21.2955 55.1753 22.3217 50.048 24.3375 45.2193C26.2755 40.5745 29.0885 36.3508 32.6294 32.7732C36.1457 29.2038 40.3243 26.3539 44.9323 24.3832C49.6957 22.347 54.8188 21.3003 59.9992 21.3084C65.2246 21.3084 70.2946 22.3429 75.0661 24.3873C79.6741 26.358 83.8528 29.2078 87.3691 32.7773C90.9099 36.3508 93.727 40.5786 95.661 45.2193C97.6808 50.048 98.7112 55.2284 98.703 60.462C98.703 65.0986 97.9016 69.6289 96.3397 73.9425L92.3614 72.4869C93.7597 68.6312 94.4712 64.563 94.4671 60.462C94.4671 41.2368 79.0077 25.5975 60.0033 25.5975C57.317 25.5975 54.643 25.9083 52.0508 26.5297L52.3043 27.6132C54.8147 27.0163 57.4029 26.7096 60.0033 26.7096C68.4588 26.7096 76.1824 29.9152 82.066 35.1733L83.1454 44.0785C82.7161 44.2788 82.4381 44.7082 82.434 45.1825V45.1906L72.7478 49.079C72.5434 48.9522 72.3103 48.8868 72.0691 48.8868C72.0241 48.8868 71.9832 48.895 71.9424 48.8991L67.7187 39.8549C67.9109 39.6382 68.0172 39.356 68.0213 39.0657C68.0213 38.7346 67.8823 38.4156 67.641 38.1867L69.2356 33.6932C69.7958 33.8894 70.3559 34.1061 70.9038 34.3392C74.2402 35.7661 77.2659 37.8309 79.8131 40.4191L80.59 39.63C77.9446 36.9437 74.8004 34.7971 71.3331 33.3129C69.2602 32.4257 67.0891 31.7878 64.8689 31.4076L64.689 32.5074C65.8747 32.7078 67.0441 32.994 68.193 33.3538L66.5984 37.8473C65.9647 37.9209 65.4699 38.4361 65.4699 39.0698C65.4699 39.7404 66.026 40.2842 66.7129 40.3005L70.9938 49.4715C70.867 49.6637 70.7975 49.8927 70.7934 50.1257C70.7934 50.3915 70.8834 50.6368 71.0306 50.8412L67.1504 63.0542C66.5371 63.1442 66.0628 63.6512 66.0628 64.2727C66.0628 64.9555 66.6352 65.5075 67.3426 65.5075C68.0172 65.5075 68.561 65.0005 68.6101 64.3585L78.1245 60.5397L76.35 69.5798C75.798 69.7147 75.4055 70.2013 75.3973 70.7696C75.3973 71.4524 75.9697 72.0044 76.6771 72.0044C77.3722 72.0044 77.9323 71.4688 77.9528 70.7983L90.362 65.1681C90.5787 65.3398 90.8527 65.442 91.1552 65.442C91.8585 65.442 92.435 64.886 92.435 64.2072C92.435 63.5244 91.8626 62.9684 91.1552 62.9684C90.4642 62.9684 89.9 63.504 89.8796 64.1664L77.4662 69.8006L77.4376 69.7761L79.2448 60.5765C79.7968 60.4415 80.1893 59.9509 80.1975 59.3867C80.1975 58.7038 79.6251 58.1519 78.9177 58.1519C78.84 58.1519 78.7664 58.16 78.6928 58.1723L73.1363 50.8085C73.2712 50.6123 73.3489 50.3833 73.3489 50.1298C73.3489 50.1012 73.3407 50.0766 73.3407 50.048L82.9614 46.1842C83.1741 46.3314 83.4316 46.4254 83.7138 46.4254C84.417 46.4254 84.9935 45.8694 84.9935 45.1906C84.9935 44.6959 84.6869 44.2707 84.2535 44.0744L83.3172 36.3549C89.7569 42.721 93.3754 51.4055 93.3631 60.462C93.3631 64.4689 92.6803 68.3818 91.327 72.1066L86.8171 70.4548L86.629 70.9782L86.8171 70.4548L85.7908 70.0786L85.0998 70.373C84.0368 72.7731 82.6343 75.0137 80.9416 77.0213L81.7798 77.745C83.4317 75.7906 84.8136 73.6236 85.8931 71.3012L86.4409 71.5015L95.9104 74.9728C93.956 79.4663 91.1839 83.5591 87.7371 87.0427ZM99.807 60.462C99.807 55.0281 98.7521 49.7536 96.6791 44.7859C94.6879 40.0102 91.789 35.6639 88.15 31.9882C84.5315 28.3165 80.2343 25.389 75.4995 23.361C70.6013 21.2635 65.3309 20.1841 60.0033 20.1922C54.6348 20.1922 49.4176 21.2594 44.5071 23.361C39.7683 25.389 35.471 28.3165 31.8566 31.9882C28.2176 35.6639 25.3187 40.0102 23.3275 44.7859C21.2464 49.7495 20.1833 55.0812 20.1915 60.462C20.1915 65.4829 21.1196 70.3935 22.9023 75.0382L23.0209 75.2795C25.0325 79.957 27.9028 84.2133 31.4845 87.8318C35.148 91.5485 39.5025 94.5169 44.2986 96.5694C49.2582 98.6955 54.6021 99.7872 59.9992 99.7791C65.4413 99.7791 70.7239 98.6996 75.6999 96.5694C80.5 94.5169 84.8504 91.5485 88.5139 87.8318C92.2019 84.107 95.1376 79.7035 97.1534 74.8665L97.1861 74.797C98.9238 70.2177 99.811 65.3603 99.807 60.462Z" fill="#DEC685"/>
<path fill-rule="evenodd" clip-rule="evenodd" d="M72.1352 51.6345L68.529 62.9847L77.4424 59.403V59.3826C77.4424 59.1945 77.4832 59.0105 77.5609 58.8306L72.1352 51.6345ZM67.9156 63.6471L71.8858 51.1561L72.1025 51.1643L72.2579 51.152L78.023 58.7938L77.9616 58.9042C77.8798 59.0514 77.8349 59.215 77.8308 59.3867C77.8308 59.4153 77.8349 59.4398 77.839 59.4644L77.8594 59.6116L77.7245 59.7097L67.9156 63.6471ZM33.9098 69.3141L34.8052 69.6616L34.8379 69.7352C35.7783 71.984 37.0091 74.0979 38.5055 76.0237L36.6329 63.966C36.2486 63.7861 35.9623 63.4468 35.8519 63.0379L32.213 61.9544C32.3438 64.5139 32.8181 67.0326 33.6236 69.449L33.9098 69.3141ZM39.1066 77.3811L38.6568 76.8332C36.9518 74.7521 35.5535 72.4379 34.5108 69.9601L33.9262 69.7311L33.3946 69.9805L33.3251 69.7761C32.4379 67.1675 31.9268 64.4485 31.8123 61.6968L31.8 61.4229L36.1831 62.7272L36.2036 62.8457C36.2649 63.2015 36.5225 63.5081 36.8741 63.643L36.9804 63.6839L39.1066 77.3811ZM41.1182 78.9348C43.5101 81.2613 46.3068 83.1298 49.3733 84.4423C50.9557 85.1211 52.6157 85.6444 54.3084 86.0083L49.4347 77.7695C49.0503 77.7655 48.6823 77.6101 48.4084 77.3361L41.1182 78.9348ZM55.0853 86.5603L54.66 86.4744C52.7956 86.1064 50.972 85.5463 49.222 84.798C46.0001 83.4201 43.0685 81.4371 40.5908 78.9594L40.3414 78.7099L48.5474 76.915L48.6251 77.0009C48.8336 77.2462 49.1403 77.3852 49.4592 77.3852L49.6514 77.3729L55.0853 86.5603ZM24.5017 75.4226C26.4315 79.6912 29.1056 83.5796 32.4011 86.9078C35.946 90.5059 40.1615 93.3803 44.8062 95.3674C49.6064 97.424 54.7786 98.483 59.9999 98.4707C65.2662 98.4707 70.3811 97.424 75.1936 95.3674C79.8383 93.3803 84.0538 90.5059 87.5987 86.9078L87.7337 87.0427L87.5987 86.9078C90.9842 83.4897 93.7113 79.4827 95.6494 75.0833L85.9878 71.5424C84.9124 73.8198 83.5468 75.946 81.9236 77.8677L81.7968 78.019L80.6684 77.0418L80.791 76.8946C82.4715 74.8993 83.8616 72.6791 84.9206 70.2954L84.9533 70.2259L85.7833 69.8701L91.2091 71.8573C92.5134 68.1979 93.1757 64.3463 93.1675 60.462C93.1675 51.5691 89.7657 43.2199 83.5754 36.8906L84.43 43.9395C84.892 44.193 85.1864 44.6673 85.1864 45.1825C85.1864 45.9716 84.524 46.6135 83.7144 46.6135C83.4405 46.6135 83.1747 46.5399 82.9417 46.3968L73.5458 50.1707C73.5376 50.3915 73.4804 50.6041 73.3741 50.7963L78.7794 57.9638C78.8243 57.9597 78.8693 57.9556 78.9184 57.9556C79.7279 57.9556 80.3903 58.5976 80.3903 59.3826C80.3903 59.9877 79.9937 60.5233 79.4131 60.7237L77.6918 69.4858L89.6962 64.0355C89.7903 63.3037 90.4199 62.764 91.1559 62.7721C91.9696 62.7721 92.6278 63.4141 92.6278 64.2032C92.6278 64.9923 91.9655 65.6301 91.1559 65.6301C90.8656 65.6301 90.5876 65.5484 90.3422 65.3889L78.1415 70.925C78.0597 71.6365 77.4301 72.1925 76.6819 72.1925C75.8723 72.1925 75.2099 71.5506 75.2099 70.7615C75.2099 70.1564 75.6065 69.6207 76.1871 69.4204L77.8717 60.8423L68.7906 64.4894C68.6802 65.1722 68.0628 65.6915 67.3432 65.6915C66.5337 65.6915 65.8713 65.0496 65.8713 64.2645C65.8713 63.6062 66.3497 63.0297 66.9998 62.8784L70.8186 50.8658C70.5488 50.4406 70.5283 49.9009 70.7737 49.4552L66.5868 40.4846C65.8549 40.4069 65.2743 39.7936 65.2743 39.0658C65.2743 38.383 65.7732 37.8064 66.4519 37.6715L67.9402 33.4765C66.8608 33.1494 65.765 32.8877 64.6529 32.6956L64.4648 32.6628L64.7101 31.1827L64.9023 31.2154C67.1388 31.5957 69.3222 32.2417 71.4115 33.133C74.9033 34.6254 78.0679 36.7843 80.7297 39.491L80.8646 39.6259L79.8138 40.689L79.6748 40.55C77.1439 37.9823 74.1387 35.9297 70.8268 34.515C70.3403 34.3106 69.8496 34.1184 69.3508 33.9385L67.8625 38.1376C68.2959 38.6283 68.3327 39.352 67.9443 39.8794L72.0575 48.6906C72.3028 48.707 72.5441 48.7478 72.7608 48.8623L82.2466 45.0557C82.2875 44.606 82.541 44.2094 82.9376 43.9722L81.8827 35.2714C75.8191 29.8743 68.0506 26.9018 59.9999 26.9018C57.4117 26.9018 54.8358 27.2044 52.3458 27.7973L52.1577 27.8422L51.8143 26.3826L52.0024 26.3376C54.6232 25.712 57.3054 25.3972 59.9999 25.3972C79.1105 25.3972 94.6558 41.1265 94.6558 60.4538C94.6558 64.5466 93.9648 68.5495 92.6033 72.3602L96.2177 73.6849C97.7346 69.4367 98.5115 64.9637 98.5074 60.4538C98.5074 55.1957 97.4893 50.093 95.4818 45.2847C93.5519 40.6645 90.7511 36.4572 87.2307 32.9C83.7308 29.3469 79.5726 26.5134 74.9891 24.5508C70.2544 22.5351 65.1517 21.4925 59.9999 21.5006C54.8031 21.5006 49.7618 22.531 45.0066 24.5631C40.4231 26.5257 36.2649 29.3592 32.765 32.9082C25.5239 40.2474 21.4678 50.1503 21.4883 60.462C21.4883 65.1231 22.3019 69.6943 23.9006 74.0447L27.4006 72.3888C26.0309 68.5618 25.3358 64.5262 25.3399 60.4579C25.3399 59.5993 25.3685 58.7366 25.4298 57.8902L25.4421 57.698L26.9263 57.8084L26.914 58.0006C26.8568 58.8183 26.8282 59.6402 26.8282 60.462C26.8282 64.3422 27.4742 68.1406 28.7539 71.751L32.2702 70.0868C31.2194 66.9876 30.6797 63.733 30.6838 60.462V60.2698H31.7837C31.8777 60.2821 31.9718 60.3066 32.0576 60.3434L36.3017 61.6109C36.5716 61.382 36.9109 61.2552 37.2748 61.2552C38.0844 61.2552 38.7468 61.8972 38.7468 62.6863C38.7468 63.1483 38.5096 63.5817 38.1212 63.8475L40.2555 77.5937L48.0731 75.8806C48.2857 75.2959 48.8418 74.9115 49.4633 74.9156C50.2769 74.9156 50.9352 75.5575 50.9352 76.3467C50.9352 76.592 50.8698 76.8332 50.743 77.0499L56.2465 86.3558C59.726 86.8383 63.1932 86.6461 66.4723 85.8407L66.6604 85.7957L67.012 87.2513L66.824 87.2962C64.5915 87.8441 62.3018 88.1181 59.9999 88.114C56.1115 88.114 52.3417 87.3453 48.7927 85.8284C45.3623 84.3605 42.2549 82.2426 39.6381 79.5849C37.1849 77.1113 35.2018 74.2164 33.7749 71.0395L24.5017 75.4226ZM59.9999 98.8591C54.6805 98.8591 49.5164 97.8042 44.655 95.7231C39.9652 93.7155 35.7088 90.8125 32.1271 87.1777C28.7539 83.7718 26.0268 79.7853 24.0724 75.4063L23.9947 75.2345L33.9711 70.5162L34.0488 70.6961C35.4594 73.9016 37.4506 76.8169 39.912 79.3069C42.492 81.9278 45.5626 84.0212 48.944 85.4686C52.4358 86.9651 56.1974 87.7337 59.9999 87.7256C62.216 87.7256 64.4198 87.468 66.5418 86.961L66.3701 86.2536C63.0051 87.0509 59.5174 87.2063 56.0952 86.7157L56.0052 86.7034L50.281 77.0295L50.3546 76.9273C50.4773 76.7555 50.5427 76.5511 50.5427 76.3426C50.5427 75.7661 50.0561 75.2959 49.4551 75.2959C48.9645 75.2918 48.5351 75.6148 48.4043 76.0891L48.3757 76.2036L39.9284 78.0517L37.6919 63.6389L37.8104 63.5735C38.1416 63.3977 38.3502 63.0543 38.3542 62.6781C38.3542 62.1016 37.8677 61.6355 37.2707 61.6355C36.9763 61.6355 36.6942 61.75 36.4857 61.9585L36.4039 62.0403L31.7837 60.6583L31.7428 60.6501L31.0682 60.6542C31.0845 63.8802 31.6324 67.0776 32.6873 70.1236L32.7445 70.2872L28.5331 72.2784L28.4596 72.0781C27.1185 68.3491 26.4356 64.4199 26.4438 60.4579C26.4438 59.6933 26.4683 58.9206 26.5174 58.1601L25.806 58.1069C25.7528 58.8879 25.7283 59.6729 25.7283 60.4538C25.7283 64.5671 26.4356 68.5945 27.8258 72.4174L27.8871 72.581L23.688 74.5681L23.6144 74.3718C21.9462 69.9315 21.0958 65.2172 21.104 60.462C21.104 55.1508 22.1343 49.999 24.1623 45.1457C26.1085 40.4805 28.9379 36.2323 32.4951 32.6383C36.0278 29.0525 40.2269 26.1904 44.8553 24.2115C49.6391 22.163 54.7909 21.1081 59.9999 21.1163C65.2498 21.1163 70.3443 22.1548 75.1445 24.2115C79.7729 26.1904 83.9761 29.0525 87.5088 32.6424C91.066 36.2364 93.8953 40.4805 95.8457 45.1498C97.8737 50.0031 98.9122 55.208 98.8999 60.4661C98.904 65.0863 98.0985 69.6698 96.5244 74.012L96.459 74.196L92.1168 72.6055L92.1822 72.4256C93.5723 68.5945 94.2797 64.5466 94.2756 60.4702C94.2756 41.3514 78.902 25.7979 60.004 25.7979C57.3954 25.7979 54.7991 26.0964 52.2845 26.6811L52.448 27.3884C54.9258 26.8119 57.4608 26.5257 60.004 26.5257C68.1773 26.5257 76.0563 29.5513 82.1975 35.0384L82.2507 35.0874L83.3546 44.2012L83.232 44.2625C82.8681 44.4302 82.635 44.79 82.6309 45.1907V45.3215L82.5083 45.3787L72.7322 49.3039L72.6504 49.2548C72.4541 49.1363 72.2252 49.0627 72.0084 49.0954L71.8694 49.1158L71.7713 48.9932L67.4945 39.8344L67.5763 39.7404C67.7398 39.5564 67.8298 39.3234 67.8339 39.078C67.8339 38.7959 67.7153 38.5301 67.515 38.338L67.425 38.2521L69.1259 33.4561L69.3099 33.5215C69.9191 33.7382 70.4711 33.9467 70.9863 34.1716C74.2859 35.5822 77.2829 37.6143 79.8179 40.1534L80.3249 39.6423C77.7245 37.0337 74.6498 34.9525 71.2643 33.5051C69.2649 32.6506 67.1756 32.025 65.0331 31.6448L64.9145 32.3644C66.0021 32.5565 67.1224 32.8346 68.2509 33.1821L68.4431 33.2434L66.7422 38.0395L66.6195 38.0518C66.0757 38.1172 65.6628 38.5588 65.6628 39.0821C65.6628 39.6423 66.1371 40.1084 66.7177 40.1207L66.8362 40.1247L71.2112 49.5002L71.1539 49.5901C71.0476 49.7537 70.9863 49.9458 70.9863 50.138C70.9863 50.3506 71.0558 50.5591 71.1866 50.735L71.2439 50.8167L67.2942 63.2383L67.1756 63.2546C66.6522 63.3323 66.2556 63.7739 66.2556 64.2809C66.2556 64.8574 66.7422 65.3235 67.3432 65.3235C67.9034 65.3235 68.3777 64.8983 68.4186 64.3545L68.4267 64.2359L68.5371 64.1909L78.3828 60.2371L76.5142 69.7475L76.3956 69.7761C75.9295 69.8865 75.5983 70.2995 75.5902 70.7778C75.5902 71.3543 76.0767 71.8205 76.6778 71.8205C77.2584 71.8205 77.7449 71.3625 77.7572 70.8024L77.7613 70.6797L90.3831 64.9514L90.4772 65.0209C90.6693 65.1722 90.9065 65.254 91.1477 65.254C91.7447 65.254 92.2353 64.7879 92.2353 64.2114C92.2353 63.6349 91.7488 63.1687 91.1477 63.1687C90.559 63.1687 90.0847 63.6103 90.0683 64.1787L90.0642 64.2972L89.9538 64.3463L77.4342 70.0296L77.2297 69.8824L77.242 69.7434L79.0737 60.4211L79.1923 60.3925C79.6584 60.2821 79.9896 59.8691 79.9978 59.3908C79.9978 58.8183 79.5112 58.3481 78.9143 58.3481C78.8489 58.3481 78.7875 58.3563 78.7221 58.3645L78.6076 58.3849L72.8998 50.8167L72.9775 50.7022C73.092 50.5346 73.1574 50.3343 73.1574 50.1298C73.1533 50.1053 73.1492 50.0808 73.1492 50.0562L73.141 49.9172L73.2678 49.8641L82.9866 45.9634L83.0725 46.0248C83.2606 46.1597 83.4814 46.2292 83.7144 46.2292C84.3114 46.2292 84.802 45.759 84.802 45.1866C84.7939 44.7777 84.5485 44.4097 84.1765 44.2462L84.0783 44.2012L83.0562 35.8234L83.4528 36.2159C89.9702 42.6638 93.556 51.2788 93.556 60.462C93.556 64.4894 92.865 68.4309 91.5075 72.1721L91.4421 72.3561L86.9323 70.7002L86.8096 71.0395L86.4457 70.9087L86.5684 70.5652L85.7956 70.279L85.2477 70.5162C84.2051 72.8508 82.8476 75.0301 81.2121 76.9927L81.7559 77.4629C83.3383 75.5575 84.6712 73.456 85.7138 71.2112L85.7915 71.0518L96.1687 74.8543L96.0869 75.0424C94.1243 79.5604 91.3399 83.6736 87.8727 87.1736C84.2909 90.8084 80.0387 93.7114 75.3448 95.719C70.4956 97.8002 65.2743 98.8673 59.9999 98.8591ZM59.9999 20.3885C54.6559 20.3885 49.4674 21.4475 44.5814 23.5409C39.8671 25.5567 35.5903 28.476 31.9922 32.1272C28.3655 35.7825 25.483 40.1084 23.504 44.8595C21.4351 49.8027 20.3762 55.1058 20.3843 60.462C20.3843 65.4257 21.292 70.3035 23.0829 74.9688L23.1933 75.1937C25.1968 79.8507 28.0548 84.0907 31.6201 87.6969C35.2673 91.3972 39.5972 94.3534 44.3728 96.3936C49.3079 98.5075 54.6232 99.5951 59.9958 99.5869C65.4134 99.5869 70.6674 98.5116 75.6188 96.3936C80.3944 94.3493 84.7284 91.3972 88.3715 87.6969C92.0432 83.9885 94.9625 79.6095 96.9701 74.793L97.0069 74.7153C98.7282 70.1604 99.6114 65.3317 99.6073 60.4661C99.6155 55.1099 98.5565 49.8068 96.4917 44.8636C94.5087 40.1125 91.6261 35.7866 88.0035 32.1272C84.4054 28.476 80.1286 25.5567 75.4144 23.5409C70.5488 21.4516 65.303 20.3803 59.9999 20.3885ZM59.9999 99.9713C54.5333 99.9713 49.222 98.8878 44.2256 96.7453C39.405 94.6846 35.0301 91.6998 31.3462 87.9668C27.7481 84.3319 24.8615 80.051 22.8417 75.3531L22.7272 75.1201C20.924 70.4467 20 65.4748 20 60.462C20 54.9995 21.059 49.7005 23.1483 44.7082C25.1477 39.9121 28.0548 35.5454 31.7142 31.8533C35.349 28.1653 39.6667 25.2214 44.426 23.1852C49.3488 21.0754 54.6478 19.9919 59.9999 20.0001C65.3929 20.0001 70.6346 21.0713 75.5738 23.1811C80.3331 25.2173 84.6508 28.1612 88.2856 31.8492C91.945 35.5454 94.8521 39.908 96.8556 44.7082C98.9408 49.6964 100.012 55.0526 99.9998 60.462C99.9998 65.4012 99.1166 70.2463 97.3708 74.8625L97.3299 74.9483C95.306 79.8057 92.358 84.2256 88.6536 87.9668C84.9738 91.7039 80.5988 94.6846 75.7742 96.7453C70.79 98.8837 65.4215 99.9835 59.9999 99.9713Z" fill="#DEC685"/>
<path fill-rule="evenodd" clip-rule="evenodd" d="M85.8242 49.4307C87.2839 52.9225 88.0321 56.6759 88.0239 60.4621H89.1279C89.1279 56.4838 88.3592 52.6281 86.8423 48.9973L85.8242 49.4307Z" fill="#DEC685"/>
<path fill-rule="evenodd" clip-rule="evenodd" d="M88.2162 60.2699H88.9317C88.9154 56.4878 88.1712 52.7466 86.7361 49.2508L86.0778 49.5329C87.472 52.9388 88.1998 56.5859 88.2162 60.2699ZM89.3161 60.6542H87.8278V60.462C87.8359 56.7004 87.0918 52.9756 85.6444 49.5043L85.5708 49.3285L86.9405 48.7438L87.0141 48.9237C88.5433 52.579 89.3242 56.5042 89.3161 60.4661V60.6542ZM34.1143 78.7713L34.5477 79.2947C34.5927 79.3478 34.9689 79.8303 34.5191 80.2105C34.421 80.3046 34.2901 80.3577 34.1552 80.3618C33.8608 80.3618 33.6237 80.0797 33.6196 80.0797L33.1862 79.5563L34.1143 78.7713ZM34.2247 76.96L29.8457 80.6644L30.6798 81.6743L32.2376 80.3577L32.671 80.8811C32.6996 80.9138 33.3375 81.6743 34.2247 81.6743C34.6213 81.6743 35.0016 81.523 35.3532 81.2245C36.4694 80.28 35.9297 79.0248 35.4922 78.4974L34.2247 76.96Z" fill="#DEC685"/>
<path fill-rule="evenodd" clip-rule="evenodd" d="M33.4565 79.5808L33.7673 79.957C33.8164 80.0142 33.9881 80.1696 34.1516 80.1696C34.2007 80.1696 34.2784 80.1574 34.3929 80.0633C34.675 79.8221 34.491 79.5318 34.3969 79.4132L34.0903 79.0411L33.4565 79.5808ZM34.1557 80.558C33.7714 80.558 33.4852 80.2187 33.4729 80.2064L32.9168 79.5359L34.1394 78.5014L34.6954 79.1761C34.9694 79.5113 35.0593 80.0102 34.6423 80.3618C34.5073 80.4804 34.3356 80.554 34.1557 80.558ZM32.2626 80.0797L32.8187 80.7543C32.8269 80.7625 33.4157 81.478 34.2211 81.478C34.5687 81.478 34.908 81.3431 35.2229 81.0732C36.2246 80.2269 35.734 79.0943 35.3374 78.6118L34.1925 77.2257L30.112 80.6807L30.7008 81.3921L32.2626 80.0797ZM30.6558 81.9482L29.5723 80.6398L34.2457 76.686L35.6399 78.3747C36.1224 78.9553 36.7071 80.3291 35.4764 81.3717C35.0879 81.7029 34.6668 81.8664 34.2252 81.8664C33.2317 81.8664 32.5284 81.0078 32.5243 81.0037L32.2177 80.6316L30.6558 81.9482ZM41.037 83.7513L37.8233 88.5351L40.4442 90.3342L41.1352 89.2997L39.5978 88.2407L42.1164 84.4914L41.037 83.7513Z" fill="#DEC685"/>
<path fill-rule="evenodd" clip-rule="evenodd" d="M38.0923 88.4819L40.3942 90.0643L40.8726 89.3528L39.3311 88.2939L41.8498 84.5445L41.0893 84.0212L38.0923 88.4819ZM40.4964 90.604L37.5566 88.5842L40.983 83.4814L42.3813 84.4382L39.8627 88.1916L41.4 89.2506L40.4964 90.604ZM49.7247 92.4848C49.7206 92.4889 49.5856 92.9018 49.1686 92.9018C49.0746 92.9018 48.9805 92.8855 48.8906 92.8528C48.2854 92.6524 48.4081 92.1536 48.4367 92.0596L49.6429 88.3388L48.404 87.9259L47.2019 91.6466C47.1978 91.663 46.654 93.4211 48.5103 94.0344C48.772 94.1203 49.0214 94.1653 49.2585 94.1653C50.2807 94.1653 50.8204 93.3312 50.9635 92.8896L52.1656 89.1688L50.9267 88.76L49.7247 92.4848Z" fill="#DEC685"/>
<path fill-rule="evenodd" clip-rule="evenodd" d="M48.5263 88.1753L47.3856 91.708C47.3651 91.7734 46.9113 93.3026 48.5713 93.8546C48.8125 93.9322 49.0456 93.9772 49.2582 93.9772C50.1659 93.9772 50.6484 93.229 50.7792 92.8365L51.924 89.2997L51.0531 89.0094L49.9083 92.5503C49.7529 92.9755 49.2827 93.1963 48.8534 93.0409C48.8493 93.0368 48.8411 93.0368 48.8371 93.0327C48.191 92.8201 48.1706 92.2804 48.2565 91.9983L49.4013 88.4575L48.5263 88.1753ZM49.2582 94.3616C49.0006 94.3616 48.7267 94.3125 48.4486 94.2225C46.4043 93.5479 47.0094 91.6099 47.0176 91.5894L48.281 87.6847L49.8879 88.2162L48.6244 92.1169C48.5876 92.2354 48.5427 92.5298 48.9556 92.6688C49.0251 92.6934 49.0987 92.7056 49.1723 92.7097C49.4299 92.7097 49.528 92.4603 49.5444 92.4235L50.8078 88.5229L52.4147 89.0544L51.1513 92.955C50.9877 93.4416 50.3908 94.3616 49.2582 94.3616ZM57.3375 91.3482L58.6581 91.3891L58.5191 95.9112L59.8234 95.9521L59.9624 91.4259L61.2913 91.4668L61.3322 90.2197L57.3743 90.097L57.3375 91.3482Z" fill="#DEC685"/>
<path fill-rule="evenodd" clip-rule="evenodd" d="M58.7208 95.7272L59.6367 95.7558L59.7757 91.2296L61.1045 91.2705L61.1332 90.4119L57.5637 90.2974L57.5392 91.1601L58.8598 91.201L58.7208 95.7272ZM60.0129 96.1565L58.3242 96.1034L58.4632 91.5813L57.1426 91.5404L57.1916 89.909L61.5379 90.0439L61.4848 91.6753L60.156 91.6344L60.0129 96.1565ZM69.5518 93.5357C69.4741 93.5561 69.3924 93.5684 69.3147 93.5725C68.8854 93.5725 68.7586 93.1677 68.7464 93.1227L68.223 91.1315C68.223 91.1274 68.1862 90.9761 68.2271 90.8085C68.2802 90.5836 68.4438 90.4364 68.7218 90.3628C68.7995 90.3424 68.8813 90.3301 68.9631 90.3301C69.3924 90.3301 69.5191 90.7349 69.5314 90.7799L70.0547 92.7711C70.0711 92.8651 70.1651 93.3721 69.5518 93.5357ZM70.7866 90.4364C70.664 89.9621 70.1365 89.0626 69.0407 89.0626C68.824 89.0667 68.6114 89.0953 68.4029 89.1526C67.4175 89.4143 67.0782 90.0357 66.9637 90.5059C66.841 91.0089 66.9555 91.4463 66.9596 91.4627L67.4829 93.458C67.6056 93.9323 68.133 94.8318 69.2288 94.8318C69.4292 94.8318 69.6418 94.8032 69.8667 94.7418C71.7597 94.2348 71.3141 92.4481 71.31 92.4317L70.7866 90.4364Z" fill="#DEC685"/>
<path fill-rule="evenodd" clip-rule="evenodd" d="M68.9577 90.5181C68.8923 90.5181 68.831 90.5263 68.7656 90.5467C68.4957 90.6203 68.4344 90.7471 68.4098 90.8493C68.3812 90.9679 68.4057 91.0824 68.4057 91.0824L68.9291 93.0736C68.9455 93.1308 69.064 93.462 69.5015 93.3516C69.9022 93.2453 69.8981 92.9714 69.8613 92.816L69.3421 90.8248C69.3298 90.7921 69.248 90.5181 68.9577 90.5181ZM69.3094 93.7646C68.8719 93.7646 68.6306 93.4456 68.5529 93.1717L68.0296 91.1764C68.0255 91.1641 67.9805 90.972 68.0337 90.7594C68.1073 90.465 68.3199 90.2687 68.6674 90.1747C68.7615 90.1501 68.8596 90.1338 68.9577 90.1338C69.4279 90.1338 69.6528 90.5059 69.7141 90.7266L70.2334 92.7179C70.3234 93.0817 70.2089 93.5601 69.5997 93.7196C69.5056 93.7482 69.4075 93.7605 69.3094 93.7646ZM69.0395 89.2547C68.8555 89.2547 68.6552 89.2833 68.4507 89.3365C67.5594 89.5777 67.2527 90.1256 67.1505 90.5467C67.0401 91.0047 67.1423 91.4054 67.1423 91.4095L67.6657 93.4048C67.7761 93.83 68.2463 94.6355 69.2235 94.6355C69.4075 94.6355 69.6078 94.6068 69.8123 94.5496C71.5009 94.0957 71.137 92.5379 71.1166 92.4725L70.5932 90.4813C70.4869 90.0602 70.0167 89.2547 69.0395 89.2547ZM69.2235 95.0239C68.0132 95.0239 67.4326 94.0303 67.2936 93.507L66.7703 91.5117C66.6885 91.1641 66.6926 90.8043 66.7744 90.4609C66.9011 89.9375 67.2732 89.2547 68.3526 88.9685C68.5897 88.9031 68.8228 88.8704 69.0436 88.8704C70.2579 88.8704 70.8385 89.8639 70.9735 90.3873L71.4968 92.3826C71.6685 93.0695 71.5622 94.4883 69.9145 94.9298C69.6773 94.9912 69.4443 95.0239 69.2235 95.0239ZM77.9979 84.9575L79.4535 87.3616L76.7753 85.7139L75.7327 86.3599L78.7175 91.2868L79.8296 90.5999L78.374 88.1957L81.0521 89.8435L82.0948 89.1975L79.11 84.2665L77.9979 84.9575Z" fill="#DEC685"/>
<path fill-rule="evenodd" clip-rule="evenodd" d="M75.9981 86.4212L78.7826 91.021L79.5676 90.5385L77.7972 87.6151L81.0518 89.6186L81.8287 89.1361L79.0442 84.5363L78.2592 85.0188L80.0296 87.9422L76.775 85.9387L75.9981 86.4212ZM78.6558 91.5566L75.4707 86.2945L76.775 85.4849L78.8725 86.7769L77.7318 84.892L79.171 84.0007L82.3561 89.2629L81.0518 90.0724L78.9543 88.7804L80.095 90.6653L78.6558 91.5566ZM84.7725 79.0697C83.9875 79.9651 83.9425 80.9996 84.658 81.6415C84.8747 81.8378 85.1691 81.9359 85.5249 81.9359C86.0155 81.9359 86.5716 81.756 87.0622 81.5924C87.4547 81.4657 87.8227 81.343 88.0639 81.343C88.1212 81.343 88.203 81.3512 88.2438 81.3839C88.5137 81.6251 88.1498 82.0586 88.1375 82.0749L87.1154 83.2402L88.0312 84.062L89.0534 82.8926C89.4827 82.402 89.7035 81.85 89.6708 81.3389C89.6463 80.9464 89.4664 80.5784 89.1679 80.3208C88.9512 80.1246 88.6609 80.0265 88.3052 80.0265C87.8145 80.0265 87.2544 80.2105 86.7637 80.3699C86.3712 80.5008 85.9991 80.6193 85.7579 80.6193C85.7007 80.6193 85.6189 80.6111 85.578 80.5743C85.3122 80.3331 85.6802 79.9038 85.6966 79.8834L86.7106 78.7222L85.7865 77.8962L84.7725 79.0697Z" fill="#DEC685"/>
<path fill-rule="evenodd" clip-rule="evenodd" d="M87.3855 83.2321L88.0151 83.7963L88.9065 82.7742C89.3031 82.3203 89.5075 81.8215 89.4789 81.3595C89.4585 81.016 89.299 80.6971 89.0414 80.4722C88.8615 80.3087 88.6121 80.2269 88.3054 80.2269C87.8475 80.2269 87.3037 80.4068 86.8253 80.5622C86.2161 80.7625 85.66 80.9179 85.4474 80.7298C85.153 80.464 85.3043 80.0593 85.5456 79.769L86.441 78.7468L85.8032 78.1784L84.9159 79.1924C84.2086 80.002 84.1513 80.9261 84.781 81.4903C84.965 81.6539 85.2103 81.7356 85.521 81.7356C85.979 81.7356 86.5187 81.5598 86.993 81.4044C87.6022 81.2041 88.1542 81.0487 88.3668 81.2368C88.6653 81.5026 88.5058 81.9196 88.2809 82.1936L87.3855 83.2321ZM88.0519 84.3442L86.8458 83.2648L87.9947 81.9523C88.056 81.8787 88.2155 81.6375 88.1255 81.5394C88.1255 81.5435 88.1051 81.5394 88.0683 81.5394C87.8557 81.5394 87.4836 81.6579 87.1238 81.7765C86.6168 81.9441 86.0485 82.1281 85.5292 82.1281C85.1244 82.1281 84.7892 82.0137 84.5316 81.7847C83.7302 81.0651 83.7711 79.9243 84.6297 78.943L85.7745 77.6346L86.9848 78.7182L85.844 80.0225C85.7786 80.1001 85.6151 80.3414 85.7009 80.4395C85.705 80.4354 85.7255 80.4395 85.7582 80.4395C85.9749 80.4395 86.3429 80.3168 86.7068 80.1983C87.2138 80.0306 87.7862 79.8425 88.3095 79.8425C88.7143 79.8425 89.0496 79.957 89.3031 80.186C89.6465 80.4927 89.8428 80.8933 89.8673 81.3349C89.9 81.8951 89.6629 82.4961 89.2009 83.0236L88.0519 84.3442Z" fill="#DEC685"/>
</svg>
