<svg width="120" height="120" viewBox="0 0 120 120" fill="none" xmlns="http://www.w3.org/2000/svg">
<circle cx="60" cy="60" r="60" fill="#EDF0F4"/>
<rect x="44.5527" y="20.2809" width="32.3003" height="32.3003" fill="white"/>
<path fill-rule="evenodd" clip-rule="evenodd" d="M28.2168 91.7569L91.8023 28.1714C99.9697 36.2926 104.999 47.5516 104.999 59.918C104.999 72.3767 99.9697 83.6357 91.8023 91.7569C74.2678 74.2224 45.7974 74.2224 28.2168 91.7569ZM63.2396 104.862C64.3469 104.769 65.408 104.631 66.4691 104.493L66.4696 104.492C65.4083 104.631 64.3009 104.769 63.2396 104.862Z" fill="#D95E59"/>
<path fill-rule="evenodd" clip-rule="evenodd" d="M91.012 27.3902C91.0785 27.4517 91.1432 27.5116 91.2031 27.5715C91.2631 27.6314 91.3278 27.6913 91.3943 27.7528C91.5326 27.8807 91.6783 28.0155 91.803 28.1714L28.1252 91.8492C22.2189 85.9428 17.9275 78.4214 16.0357 69.9772C16.0126 69.8388 15.978 69.6888 15.9434 69.5389C15.9088 69.3889 15.8742 69.2389 15.8511 69.1005C15.828 68.939 15.7934 68.7659 15.7588 68.5929C15.7242 68.4199 15.6896 68.2468 15.6665 68.0853V67.9469C15.6434 67.8085 15.6204 67.6585 15.5973 67.5085C15.5742 67.3586 15.5512 67.2086 15.5281 67.0702C15.5281 67.024 15.5165 66.9779 15.505 66.9318C15.4935 66.8856 15.4819 66.8395 15.4819 66.7933C15.4589 66.701 15.4473 66.5972 15.4358 66.4934C15.4243 66.3896 15.4127 66.2857 15.3897 66.1935C15.3666 66.0781 15.355 65.9627 15.3435 65.8474C15.332 65.732 15.3204 65.6167 15.2974 65.5013V65.409C15.2751 65.231 15.2636 65.0638 15.2525 64.9021C15.2405 64.7284 15.229 64.5611 15.2051 64.3939C15.1589 64.0709 15.1128 63.7017 15.1128 63.3787C15.1128 63.188 15.1005 63.0096 15.0886 62.8371C15.0774 62.6758 15.0667 62.5197 15.0667 62.3636C15.0205 62.0867 15.0205 61.856 15.0205 61.5791C15.0205 61.3056 15.0155 61.0271 15.0104 60.7452C15.0001 60.1711 14.9896 59.5831 15.0205 58.9951V58.303C15.0431 58.0549 15.0546 57.8069 15.0659 57.5643C15.0777 57.3103 15.0892 57.0623 15.1128 56.8264C15.1359 56.5495 15.1589 56.2842 15.182 56.0189C15.2051 55.7535 15.2282 55.4882 15.2512 55.2113C15.2974 54.6576 15.3435 54.1501 15.4358 53.5963C15.4589 53.4118 15.4935 53.2387 15.5281 53.0657C15.5627 52.8926 15.5973 52.7196 15.6204 52.535C15.6665 52.1659 15.7127 51.8429 15.8049 51.4737C15.828 51.3122 15.8626 51.1623 15.8972 51.0123C15.9318 50.8623 15.9664 50.7124 15.9895 50.5509C16.0097 50.4902 16.0211 50.4384 16.0314 50.3915C16.0445 50.3315 16.0559 50.2797 16.0818 50.2279C16.1049 50.1125 16.1279 50.0087 16.151 49.9049C16.1741 49.801 16.1972 49.6972 16.2202 49.5819C16.2202 49.4434 16.2664 49.305 16.3125 49.1666C16.3587 49.0281 16.3933 48.8897 16.4279 48.7513C16.4625 48.6129 16.4971 48.4744 16.5432 48.336C16.5894 48.2898 16.5894 48.2437 16.5894 48.1976C16.6355 47.9207 16.7278 47.5977 16.8201 47.3208C16.8432 47.2747 16.8547 47.2286 16.8662 47.1824C16.8778 47.1363 16.8893 47.0901 16.9124 47.044C16.9585 46.9286 16.9931 46.8133 17.0277 46.6979C17.0624 46.5825 17.097 46.4672 17.1431 46.3518C17.1662 46.2826 17.1892 46.2019 17.2123 46.1211C17.2354 46.0404 17.2585 45.9596 17.2815 45.8904C17.3046 45.7981 17.3392 45.7058 17.3738 45.6135C17.4084 45.5212 17.443 45.429 17.4661 45.3367L17.743 44.5061C17.8814 44.1369 18.0198 43.8139 18.2044 43.4448C18.3198 43.191 18.4236 42.9372 18.5274 42.6834C18.6312 42.4296 18.735 42.1759 18.8504 41.9221C18.9658 41.6683 19.0811 41.426 19.1965 41.1838C19.3118 40.9415 19.4272 40.6993 19.5426 40.4455L19.9578 39.6149L20.3731 38.7843C24.5722 30.94 31.0322 24.4799 38.8766 20.2808L39.7072 19.8656L40.5378 19.4503C40.9992 19.2196 41.5067 18.9889 42.0143 18.7582L42.0144 18.7581C42.5219 18.5274 43.0295 18.2967 43.5371 18.1121L43.5371 18.1121C43.8601 17.9737 44.1831 17.8352 44.5522 17.743C44.7137 17.6968 44.8637 17.6391 45.0137 17.5815C45.1636 17.5238 45.3136 17.4661 45.4751 17.42C45.4998 17.4076 45.5212 17.3952 45.5411 17.3838C45.5954 17.3524 45.6383 17.3277 45.7058 17.3277C45.9365 17.2354 46.2134 17.1431 46.4902 17.0508L46.4903 17.0508C46.5595 17.0277 46.6172 17.0047 46.6748 16.9816C46.7325 16.9585 46.7902 16.9355 46.8594 16.9124C46.9377 16.8928 47.0161 16.8649 47.0979 16.8357C47.209 16.7962 47.3265 16.7544 47.4593 16.7278L48.013 16.5894C48.1514 16.5432 48.2898 16.4971 48.3821 16.4971C48.6129 16.4048 48.7974 16.3587 49.0281 16.3125C49.2589 16.2664 49.4434 16.2202 49.628 16.1741C49.7136 16.1456 49.7991 16.1347 49.9173 16.1196C49.9904 16.1103 50.076 16.0994 50.1817 16.0818C50.3346 16.0818 50.4559 16.0501 50.5979 16.013C50.6273 16.0054 50.6576 15.9974 50.6893 15.9895C50.9662 15.8972 51.243 15.8511 51.5199 15.8049C51.7045 15.7819 51.8775 15.7473 52.0505 15.7127C52.2236 15.6781 52.3966 15.6434 52.5812 15.6204C52.7427 15.5973 52.8926 15.5742 53.0426 15.5512C53.1926 15.5281 53.3425 15.505 53.504 15.4819C53.5733 15.4819 53.6425 15.4704 53.7117 15.4589C53.7809 15.4473 53.8501 15.4358 53.9193 15.4358C54.0578 15.4127 54.1847 15.4012 54.3116 15.3897C54.4384 15.3781 54.5653 15.3666 54.7038 15.3435C54.9221 15.2811 55.1614 15.2609 55.4076 15.2401C55.5257 15.2302 55.6454 15.22 55.7651 15.2051C56.0881 15.1589 56.4572 15.1128 56.7802 15.1128C56.9417 15.1128 57.1032 15.1013 57.2647 15.0897C57.4262 15.0782 57.5877 15.0667 57.7492 15.0667C58.0261 15.0205 58.2568 15.0205 58.5337 15.0205C58.8072 15.0205 59.0857 15.0155 59.3676 15.0104C59.9417 15.0001 60.5297 14.9896 61.1177 15.0205H61.8098C62.0579 15.0431 62.3059 15.0546 62.5485 15.0659C62.8024 15.0777 63.0505 15.0892 63.2864 15.1128C63.5633 15.1359 63.8286 15.1589 64.0939 15.182C64.3593 15.2051 64.6246 15.2282 64.9014 15.2512C65.4552 15.2974 65.9627 15.3435 66.5165 15.4358C66.7472 15.4819 66.9779 15.5281 67.2548 15.5742C69.2389 15.8972 71.1769 16.3587 73.0688 16.9124C73.2072 16.9585 73.3341 16.9931 73.461 17.0277C73.5879 17.0624 73.7148 17.097 73.8533 17.1431C74.084 17.2123 74.3032 17.2931 74.5223 17.3738C74.7415 17.4546 74.9607 17.5353 75.1914 17.6045C76.1143 17.9275 77.0833 18.2967 78.0062 18.712C78.6522 18.9888 79.3443 19.3118 79.9903 19.6348C80.1518 19.7271 80.3133 19.8079 80.4748 19.8886C80.6363 19.9694 80.7978 20.0501 80.9593 20.1424C81.9283 20.65 82.8973 21.2037 83.8664 21.8036C83.973 21.8747 84.0865 21.9458 84.2041 22.0195C84.392 22.1372 84.5906 22.2616 84.7892 22.4034C84.9618 22.5229 85.1382 22.6424 85.3162 22.7629C85.7569 23.0615 86.2077 23.3668 86.635 23.6955C87.0964 24.0185 87.5117 24.3415 87.9731 24.7106L88.8037 25.4028C88.8498 25.4489 88.9075 25.495 88.9652 25.5412C89.0229 25.5873 89.0806 25.6335 89.1267 25.6796C89.6343 26.0949 90.1418 26.5102 90.6033 26.9716C90.7279 27.1275 90.8737 27.2622 91.012 27.3902ZM52.0275 44.0447C56.4572 48.4744 63.5633 48.4744 67.9008 44.0447C72.2844 39.7072 72.2382 32.555 67.9008 28.1714C63.5633 23.7877 56.4111 23.8339 52.0275 28.1714C47.6438 32.5088 47.6438 39.661 52.0275 44.0447Z" fill="#FF6666"/>
<path d="M91.8023 91.803C88.2493 95.356 84.0964 98.3092 79.5282 100.524C78.5592 100.986 77.544 101.447 76.5289 101.816C76.2059 101.955 75.8367 102.093 75.5137 102.185C75.2369 102.278 74.96 102.37 74.7293 102.462C74.5447 102.508 74.3601 102.601 74.1756 102.647C74.0371 102.693 73.8526 102.739 73.7141 102.785C73.4834 102.877 73.2527 102.924 73.022 103.016C72.9297 103.062 72.8374 103.062 72.7451 103.108C72.4683 103.2 72.1452 103.293 71.8684 103.339C71.8222 103.339 71.7761 103.339 71.73 103.385C71.4531 103.477 71.1762 103.523 70.8994 103.616C70.7609 103.662 70.6225 103.708 70.4841 103.708C70.2534 103.754 70.0688 103.8 69.8381 103.846C69.7458 103.893 69.6535 103.893 69.5151 103.939C69.1921 103.985 68.9152 104.077 68.5922 104.123C68.2231 104.216 67.9001 104.262 67.5309 104.308C67.1618 104.354 66.8388 104.446 66.4696 104.492C65.4083 104.631 64.347 104.769 63.2396 104.862C62.7781 104.908 62.2706 104.908 61.763 104.954C61.5323 104.954 61.3016 104.954 61.0708 104.954C60.1941 105 59.3174 104.954 58.4868 104.954C58.21 104.954 57.9792 104.954 57.7024 104.908C57.3794 104.908 57.0564 104.862 56.6872 104.862C56.3642 104.862 55.9951 104.815 55.6721 104.769C55.3491 104.723 55.0261 104.723 54.6569 104.677C54.6108 104.677 54.6108 104.677 54.5646 104.677C54.3339 104.631 54.1032 104.631 53.8725 104.585C53.6879 104.539 53.4572 104.539 53.2726 104.492C53.1803 104.492 53.0881 104.446 52.9958 104.446C52.7189 104.4 52.3959 104.354 52.119 104.308C52.0729 104.308 52.0268 104.308 51.9806 104.308C51.6576 104.262 51.2885 104.169 50.9655 104.123C42.1982 102.324 34.3077 97.9862 28.2168 91.8491C45.7974 74.2224 74.2217 74.2224 91.8023 91.803Z" fill="#FFF4C7"/>
<path d="M56.042 32.1397C53.8271 34.3546 53.8271 37.9076 56.042 40.1225C58.2569 42.3374 61.8099 42.3374 64.0248 40.1225C66.2397 37.9076 66.2397 34.3546 64.0248 32.1397C61.7638 29.9248 58.2108 29.9248 56.042 32.1397Z" fill="#016273"/>
</svg>
