<svg width="120" height="120" viewBox="0 0 120 120" fill="none" xmlns="http://www.w3.org/2000/svg">
<circle cx="60" cy="60" r="60" fill="#EDF0F4"/>
<path d="M88.0086 42.8742L84.7188 40.4832L92.4131 36.6L88.0086 42.8742Z" fill="#3F4B80"/>
<path d="M68.4492 35L78.0312 39.9258L79.1818 47.8719L68.4492 35Z" fill="#313A62"/>
<path d="M79.1818 47.8719L77.6537 54.6315L68.4492 35L79.1818 47.8719Z" fill="#3F4B80"/>
<path d="M77.654 54.6315L62.9844 36.1146L68.4675 35.0359L77.654 54.6315Z" fill="#4B5897"/>
<path d="M77.6543 54.6314L61.7441 48.4112L62.9846 36.1146L77.6543 54.6314Z" fill="#5161A4"/>
<path d="M62.9846 36.1146L61.7441 48.4112L45.3486 50.7123L62.9846 36.1146Z" fill="#4B5897"/>
<path d="M77.6535 54.6314L60.1074 59.3955L61.7434 48.4112L77.6535 54.6314Z" fill="#4B5897"/>
<path d="M60.1074 59.3955L77.6535 54.6315L69.7434 58.3169L60.1074 59.3955Z" fill="#3F4B80"/>
<path d="M50.418 61.0494L60.1079 59.3955L60.2697 62.7034L50.418 61.0494Z" fill="#3F4B80"/>
<path d="M60.2692 62.7034L60.1074 59.3955L69.7434 58.3169L60.2692 62.7034Z" fill="#313A62"/>
<path d="M45.3486 50.7123L61.7441 48.4112L60.1082 59.3955L45.3486 50.7123Z" fill="#3F4B80"/>
<path d="M45.3486 50.7124L60.1082 59.3955L50.4183 61.0495L45.3486 50.7124Z" fill="#4B5897"/>
<path d="M45.3486 50.7124L50.4183 61.0495L45.5284 64.627L45.3486 50.7124Z" fill="#313A62"/>
<path d="M37.0245 53.4989L38.9841 65.2742L33.5908 57.1663L37.0245 53.4989Z" fill="#5161A4"/>
<path d="M27.3711 57.2382L33.5913 57.1663L33.6273 60.9595L27.3711 57.2382Z" fill="#313A62"/>
<path d="M27.8745 59.809L27.3711 57.2382L33.6273 60.9595L27.8745 59.809Z" fill="#3F4B80"/>
<path d="M27.874 59.809L24.3145 62.955L27.3706 57.2382L27.874 59.809Z" fill="#4B5897"/>
<path d="M24.3146 62.955L24.0629 64.8607L20 64.1955L24.3146 62.955Z" fill="#313A62"/>
<path d="M24.3142 62.9551L27.8737 59.809L24.0625 64.8607L24.3142 62.9551Z" fill="#5161A4"/>
<path d="M33.5908 57.1663L38.9841 65.2742L33.6268 66.3348L33.5908 57.1663Z" fill="#3F4B80"/>
<path d="M35.1727 72.3753L31.2716 80.4472L30.6963 74.227L35.1727 72.3753Z" fill="#3F4B80"/>
<path d="M30.6963 74.227L31.2716 80.4472L29.0244 81.5259L30.6963 74.227Z" fill="#1F243E"/>
<path d="M31.2715 80.4472L31.8648 83.4854L27.2266 84.4382L31.2715 80.4472Z" fill="#3F4B80"/>
<path d="M29.0243 81.5259L31.2715 80.4472L27.2266 84.4382L29.0243 81.5259Z" fill="#313A62"/>
<path d="M33.6266 66.3348L38.9839 65.2742L30.6963 74.227L33.6266 66.3348Z" fill="#313A62"/>
<path d="M38.9839 65.2742L42.6334 69.427L30.6963 74.227L38.9839 65.2742Z" fill="#4B5897"/>
<path d="M37.0244 53.4989L45.348 50.7124L38.984 65.2742L37.0244 53.4989Z" fill="#4B5897"/>
<path d="M38.9844 65.2742L45.3484 50.7124L45.5282 64.627L38.9844 65.2742Z" fill="#3F4B80"/>
<path d="M42.6338 69.427L38.9844 65.2741L45.5282 64.627L42.6338 69.427Z" fill="#313A62"/>
<path d="M69.7441 58.3168L77.4565 58.2629L72.5307 65.7775L69.7441 58.3168Z" fill="#4B5897"/>
<path d="M69.7441 58.3169L77.6543 54.6315L77.4565 58.2629L69.7441 58.3169Z" fill="#5161A4"/>
<path d="M68.2334 64.9685L69.7435 58.3169L72.53 65.7775L68.2334 64.9685Z" fill="#3F4B80"/>
<path d="M66.3818 68.4562L68.2335 64.9685L72.5302 65.7775L66.3818 68.4562Z" fill="#4B5897"/>
<path d="M62.6426 70.9551L63.8111 65.2382L68.2336 64.9685L62.6426 70.9551Z" fill="#3F4B80"/>
<path d="M62.6426 70.9551L68.2336 64.9685L66.3819 68.4562L62.6426 70.9551Z" fill="#313A62"/>
<path d="M84.7188 40.4832L92.0536 35.3416L92.4131 36.6L84.7188 40.4832Z" fill="#495692"/>
<path d="M92.0537 35.3416L98.0582 35.0359L92.4133 36.6L92.0537 35.3416Z" fill="#5D6CAC"/>
<path d="M88.2071 47.0809L84.8633 44.7258L96.1711 44.7438L88.2071 47.0809Z" fill="#4F60A3"/>
<path d="M84.8633 44.7258L94.5891 43.4674L96.1711 44.7438L84.8633 44.7258Z" fill="#495692"/>
<path d="M94.5889 43.4674L99.0473 39.5663L96.1709 44.7438L94.5889 43.4674Z" fill="#3F4B80"/>
<path d="M96.1709 44.7438L99.0473 39.5663L100 40.0157L96.1709 44.7438Z" fill="#4F60A3"/>
<path d="M99.0469 39.5663L99.8379 37.3191L99.9997 40.0157L99.0469 39.5663Z" fill="#313A62"/>
<path d="M79.1824 47.8719L80.261 57.3281L77.6543 54.6315L79.1824 47.8719Z" fill="#313A62"/>
<path d="M80.2603 57.3281L79.1816 47.8719L88.2064 47.0809L80.2603 57.3281Z" fill="#3F4B80"/>
<path d="M88.2065 47.0809L79.1818 47.8719L78.0312 39.9258L88.2065 47.0809Z" fill="#4B5897"/>
<path d="M88.0093 42.8741L89.4655 44.1865L84.8633 44.7258L88.0093 42.8741Z" fill="#313A62"/>
<path d="M78.0312 39.9258L88.0088 42.8742L84.8627 44.7258L78.0312 39.9258Z" fill="#3F4B80"/>
<path d="M78.0312 39.9258L84.7189 40.4831L88.0088 42.8742L78.0312 39.9258Z" fill="#313A62"/>
<path d="M87.793 62.0382L88.2065 47.0809L91.802 50.0112L87.793 62.0382Z" fill="#3F4B80"/>
<path d="M87.7933 62.0382L88.2068 47.0809L80.2607 57.3281L87.7933 62.0382Z" fill="#495692"/>
<path d="M91.8025 50.0112L90.652 46.2719L88.207 47.0809L91.8025 50.0112Z" fill="#313A62"/>
<path d="M92.2874 59.9708L87.793 62.0382L91.802 50.0112L92.2874 59.9708Z" fill="#313A62"/>
</svg>
