<svg width="120" height="120" viewBox="0 0 120 120" fill="none" xmlns="http://www.w3.org/2000/svg">
<path d="M60 120C93.138 120 120 93.138 120 60C120 26.862 93.138 0 60 0C26.862 0 0 26.862 0 60C0 93.138 26.862 120 60 120Z" fill="#EDF0F4"/>
<path fill-rule="evenodd" clip-rule="evenodd" d="M17 60C17 36.2518 36.2518 17 60 17C83.7482 17 103 36.2518 103 60C103 83.7482 83.7482 103 60 103C36.2518 103 17 83.7482 17 60ZM97 60C97 39.5655 80.4345 23 60 23C39.5655 23 23 39.5655 23 60C23 80.4345 39.5655 97 60 97C80.4345 97 97 80.4345 97 60Z" fill="#3740C2"/>
<path d="M65.8544 43.5461C65.2419 42.9334 64.4105 42.5902 63.5441 42.5923H63.5358C62.6676 42.5921 61.8357 42.9405 61.2267 43.5592L35.6999 69.2079C35.0858 69.8209 34.7424 70.6541 34.7461 71.5218C34.7484 72.3955 35.0915 73.2165 35.7106 73.8333C36.3218 74.4458 37.1521 74.7891 38.0173 74.787C38.8934 74.787 39.7193 74.444 40.3384 73.8237L65.864 48.1738C67.1359 46.8919 67.1316 44.8227 65.8544 43.5461H65.8544Z" fill="#2DB8E3"/>
<path d="M80.6752 42.9043C79.4513 42.393 78.0395 42.6763 77.1076 43.6202L51.5784 69.2713C50.3052 70.553 50.3105 72.6238 51.5904 73.899C52.8729 75.1721 54.944 75.1662 56.2193 73.8859L76.1526 53.8569V71.578C76.1539 73.3847 77.6183 74.8491 79.425 74.8504C81.2318 74.8491 82.6961 73.3847 82.6975 71.578V45.9293C82.7014 44.6035 81.9018 43.4074 80.6752 42.9043H80.6752Z" fill="#3840C7"/>
</svg>
