<svg width="120" height="120" viewBox="0 0 120 120" fill="none" xmlns="http://www.w3.org/2000/svg">
<circle cx="60" cy="60" r="60" fill="#EDF0F4"/>
<path d="M99.0829 59.1487C96.852 56.9977 94.7426 54.7285 92.5117 52.5775C91.8566 52.0726 91.6264 51.1873 91.9556 50.4266C92.8729 47.32 93.6687 44.2134 94.5444 41.1068C94.7842 40.3494 94.6627 40.033 93.8285 39.8316C90.642 39.0358 87.4971 38.0802 84.2691 37.2812C83.3518 37.083 82.9938 36.6036 82.7957 35.7662C81.9999 32.6596 81.1241 29.633 80.3667 26.5264C80.127 25.6091 79.8489 25.4109 78.9316 25.689C75.8251 26.5647 72.6801 27.3605 69.5736 28.1596C69.0558 28.3194 68.5764 28.4376 68.1002 27.9614C65.5497 25.3374 62.881 22.8285 60.4136 20.0799C60.1324 20.0863 59.8511 20.0607 59.5762 20C59.5922 20.2109 59.4836 20.4155 59.2982 20.5178C56.9075 22.8669 54.5201 25.216 52.1678 27.6066C51.7171 28.1596 50.9564 28.3545 50.2949 28.0861C47.1883 27.2103 44.0817 26.4145 40.9751 25.5356C40.0994 25.2959 39.7414 25.4557 39.5017 26.373C38.7059 29.4795 37.7886 32.5861 36.9928 35.6927C36.9097 36.3447 36.4079 36.8657 35.7591 36.9679C32.6142 37.7638 29.546 38.6395 26.401 39.3969C25.3655 39.6367 25.0875 39.9946 25.4039 41.0685C26.3211 44.1367 27.0371 47.2817 27.9128 50.3882C28.194 51.0498 27.9991 51.8137 27.4334 52.2611C25.0843 54.5303 22.8119 56.8826 20.4627 59.1519C19.8267 59.7495 19.8651 60.1075 20.4627 60.7051C22.7735 62.9744 25.0044 65.2851 27.3119 67.5543C27.8808 67.9762 28.095 68.7305 27.8297 69.3857C26.954 72.4539 26.1965 75.5189 25.2792 78.5872C24.9596 79.661 25.1194 80.1021 26.2764 80.3802C29.383 81.1376 32.4097 82.0517 35.5162 82.8092C36.4335 83.0073 36.7915 83.4867 36.9896 84.3241C37.7854 87.469 38.6612 90.5373 39.4602 93.6822C39.6583 94.478 39.9396 94.6794 40.7354 94.4397C43.8036 93.5639 46.907 92.848 49.9753 91.9691C50.7903 91.6623 51.7107 91.9212 52.2445 92.6051C54.4338 94.8743 56.6646 97.0668 58.8571 99.336C59.5347 100.052 59.931 100.094 60.6501 99.3744C62.8394 97.0636 65.1502 94.8743 67.3811 92.5636C67.8828 91.902 68.7618 91.6591 69.532 91.9659C72.6002 92.8832 75.6653 93.6375 78.7335 94.5164C79.6092 94.7561 79.9672 94.5963 80.2069 93.679C80.9643 90.6108 81.92 87.5457 82.6774 84.4775C82.8756 83.5602 83.3135 83.2023 84.1924 83.0041C87.299 82.2467 90.3256 81.3709 93.4322 80.6135C94.3495 80.4153 94.6275 80.0574 94.3495 79.0985C93.4738 75.992 92.6779 72.8055 91.799 69.6605C91.5178 68.9989 91.7127 68.2351 92.2784 67.7876C94.5476 65.5983 96.7785 63.2876 99.0893 61.0983C99.9202 60.3056 99.8403 59.9061 99.0829 59.1487Z" fill="#05BCA9"/>
<path d="M40.0192 57.3589C40.0192 57.3621 40.0192 57.3652 40.0192 57.3684C40.0064 58.7204 38.9006 59.8038 37.5486 59.7911H35.0781C34.0426 59.7911 33.007 59.7911 31.9331 59.8294C31.377 59.8294 31.2172 59.6313 31.3355 59.0719C31.6135 57.9182 31.8916 57.0009 33.4065 56.7612C35.3593 56.4831 37.229 55.8056 39.1403 55.2463C39.8179 55.0865 40.0959 55.1664 40.016 55.8823C39.9808 56.3617 40.0192 56.8794 40.0192 57.3589Z" fill="#EDF0F4"/>
<path d="M39.9008 79.089C38.258 77.5421 36.7878 76.1134 35.2793 74.6848C36.5545 73.9689 37.7882 73.2913 38.9835 72.5754C39.6611 72.1759 39.9008 72.2558 39.9008 73.0931C39.8625 75.0363 39.9008 77.0243 39.9008 79.089Z" fill="#EDF0F4"/>
<path d="M35.4803 73.8474C35.0009 74.1254 34.8827 74.0072 34.7644 73.5278C34.4065 72.0927 33.9686 70.6609 33.6106 69.2259C33.5307 68.9062 33.4924 68.5099 33.8088 68.3086C34.1284 68.1104 34.3649 68.3885 34.6046 68.5067C36.2378 69.424 37.871 70.3796 39.7439 71.4152C38.229 72.2525 36.8323 73.01 35.4803 73.8474Z" fill="#EDF0F4"/>
<path d="M32.4546 52.4976C32.0551 53.4948 30.6616 53.6514 29.7476 54.2906C28.8303 51.9415 28.8303 51.9415 30.4251 50.3083C31.5406 49.1929 32.656 48.119 33.7714 47.0036C33.8737 46.9397 33.9792 46.8885 34.091 46.8438C33.5285 48.8349 33.1705 50.7462 32.4546 52.4976Z" fill="#EDF0F4"/>
<path d="M34.8409 46.4059C34.9208 46.048 35.1989 46.1279 35.397 46.2461C36.7522 47.0419 38.0658 47.8378 39.5775 48.7167C37.4266 49.9504 35.4738 51.0658 33.2461 52.2611C33.8054 50.1485 34.3232 48.2756 34.8409 46.4059Z" fill="#EDF0F4"/>
<path d="M30.662 56.8794C30.2241 56.8794 30.2241 56.4416 30.1442 56.1635C29.7063 54.8499 29.7862 54.77 32.1769 53.7729C31.9532 54.6901 31.739 55.4444 31.5569 56.1635C31.4961 56.6014 31.103 56.9178 30.662 56.8794Z" fill="#EDF0F4"/>
<path d="M28.2712 57.557C26.7563 57.9565 25.2445 58.3145 23.7296 58.6724L23.6113 58.5126L29.1086 55.2878C30.0258 57.0009 29.9843 57.1192 28.2712 57.557Z" fill="#EDF0F4"/>
<path d="M29.4275 57.8766C30.463 57.6369 30.1434 58.714 30.3447 59.1519C30.5429 59.5897 30.2648 59.7879 29.7886 59.7879H23.2942C23.2942 59.708 23.2559 59.5897 23.2559 59.5098C25.2854 58.9921 27.3149 58.3944 29.4275 57.8766Z" fill="#EDF0F4"/>
<path d="M30.9883 61.6448C31.3846 63.1501 31.7809 64.6555 32.2316 66.2791C29.2113 64.8089 29.6012 65.6367 30.9883 61.6448Z" fill="#EDF0F4"/>
<path d="M29.9614 65.9211C30.9586 65.8828 32.7484 67.5543 32.7484 68.4716C32.4927 69.1492 31.9525 69.7852 31.4348 70.5043C31.3964 70.5043 31.3549 70.5426 31.3165 70.5426C30.917 70.6225 28.9674 68.2319 29.0473 67.794C29.0857 67.7141 29.0857 67.6342 29.1272 67.5543C29.4021 66.995 29.0857 65.9595 29.9614 65.9211Z" fill="#EDF0F4"/>
<path d="M30.8376 72.4923C31.2371 71.8946 31.5152 71.6549 32.0713 72.3325C32.5858 72.9205 33.1292 73.4766 33.7045 74.004C33.9026 74.2437 34.3021 74.4419 33.7844 74.7615C31.5152 76.0367 29.2044 77.3503 26.9352 78.6255C26.8713 78.568 26.8201 78.5009 26.7754 78.4274C28.1113 76.4362 29.4665 74.4834 30.8376 72.4923Z" fill="#EDF0F4"/>
<path d="M33.0523 69.4656C33.4103 70.7408 33.7299 72.016 34.0879 73.368C31.499 71.5366 31.4191 71.2969 33.0523 69.4656Z" fill="#EDF0F4"/>
<path d="M34.0087 66.7169C33.5708 67.3945 33.0914 67.1165 32.9348 66.5571C32.3787 64.6459 31.8609 62.7346 31.3815 60.8234C31.1833 60.1874 31.7394 60.344 32.0591 60.344H38.3905C36.834 62.6164 35.4405 64.6874 34.0087 66.7169Z" fill="#EDF0F4"/>
<path d="M39.6624 54.5303C37.2334 55.1664 34.8044 55.8056 32.2539 56.4831C32.4137 54.1724 33.2095 52.6606 35.3221 51.8233C36.9138 51.1873 38.3488 50.1517 40.0619 49.1961V53.9742C40.0971 54.2331 39.9245 54.4792 39.6624 54.5303Z" fill="#EDF0F4"/>
<path d="M40.0201 42.3022V48.2373C38.5467 47.3999 37.2331 46.6041 35.9579 45.8466C35.52 45.6069 35.4018 45.3672 35.8396 44.9293C36.9135 43.8938 37.949 42.8583 38.9846 41.7844C39.1795 41.4999 39.5503 41.4009 39.8603 41.5447C40.1799 41.6661 40.0201 42.0241 40.0201 42.3022Z" fill="#EDF0F4"/>
<path d="M35.5996 43.9354C35.9991 41.1068 36.1973 40.9087 38.2683 41.5447C37.3511 42.3821 36.437 43.1779 35.5996 43.9354Z" fill="#EDF0F4"/>
<path d="M39.7037 28.6038C39.7836 28.6422 39.9018 28.6422 39.9817 28.6837V33.9796C39.9817 36.1689 39.9817 36.1689 37.5527 36.4885C38.2687 33.8198 38.9846 31.1926 39.7037 28.6038Z" fill="#EDF0F4"/>
<path d="M37.0732 38.1217C37.233 37.0862 38.0288 37.2044 38.7064 36.9264C39.8601 36.447 40.0998 36.9647 39.9816 37.9619V38.4413C39.9816 40.5923 38.9077 41.3881 36.9134 40.6722C36.6737 40.5923 36.5138 40.5124 36.5554 40.2727C36.7152 39.5535 36.9549 38.8376 37.0732 38.1217Z" fill="#EDF0F4"/>
<path d="M27.9121 39.7549C30.7566 39.039 33.6075 38.2815 36.5958 37.524C36.3561 38.4797 36.158 39.2371 35.9598 40.033C35.8 40.669 35.3238 40.5507 34.8859 40.5124C32.5752 40.3142 30.2261 40.1544 27.877 39.9563C27.9057 39.8923 27.9185 39.822 27.9121 39.7549Z" fill="#EDF0F4"/>
<path d="M34.9211 41.1068C35.4772 41.1452 35.5987 41.3465 35.4772 41.9027C34.7613 45.169 34.7996 45.169 31.9711 43.4943C30.4977 42.6186 28.9828 41.7429 27.3496 40.7872C30.0247 40.5507 32.4921 40.9886 34.9211 41.1068Z" fill="#EDF0F4"/>
<path d="M26.2791 41.3082C26.2408 41.1899 26.2408 41.11 26.1992 40.9886C26.3175 40.9886 26.3974 41.0269 26.5188 41.0269C28.9095 42.4204 31.3385 43.8555 33.8059 45.2489C34.0456 45.4088 34.4035 45.4887 34.004 45.9265C32.3708 47.5981 30.7792 49.3112 29.1843 51.0242C29.0309 50.9731 28.8839 50.9092 28.7465 50.8261C27.9123 47.6396 27.1165 44.4947 26.2791 41.3082Z" fill="#EDF0F4"/>
<path d="M28.3506 52.3794C28.4688 52.4976 28.5903 52.5392 28.5903 52.5776C29.1464 54.6103 29.1464 54.6103 27.315 55.6458C25.9599 56.4416 24.5664 57.1991 23.0547 58.0364C24.886 56.0421 26.5991 54.2107 28.3506 52.3794Z" fill="#EDF0F4"/>
<path d="M21.9016 60.344C24.4521 60.344 26.961 60.344 29.5083 60.3056C30.1858 60.3056 30.4639 60.4239 30.1858 61.2229C29.7863 62.2968 29.8279 64.0099 29.112 64.3678C28.2746 64.8057 27.1208 63.4921 26.1236 62.9744C24.6886 62.2169 23.2951 61.3412 21.8633 60.5453C21.8761 60.4782 21.892 60.4111 21.9016 60.344Z" fill="#EDF0F4"/>
<path d="M22.8945 62.0986L22.9329 62.0603C24.9656 62.8177 26.717 64.093 28.5867 65.1285C29.1045 65.4066 28.9862 66.1257 28.2288 67.6374C26.4006 65.7997 24.5661 64.0482 22.8945 62.0986Z" fill="#EDF0F4"/>
<path d="M28.6295 69.146C28.7477 69.1843 28.8692 69.1843 28.9075 69.2259C30.9786 71.217 30.9786 71.217 29.3454 73.5661C28.4697 74.8414 27.5524 76.075 26.6767 77.3087L26.4785 77.1489L28.6295 69.146Z" fill="#EDF0F4"/>
<path d="M26.1992 79.7793C28.9862 78.1877 31.4951 76.7526 34.0456 75.3176C34.3652 75.1194 34.525 75.1578 34.6432 75.5573C35.2409 77.8265 35.8386 80.0574 36.5161 82.5663C32.9717 81.5723 29.7437 80.6966 26.1992 79.7793Z" fill="#EDF0F4"/>
<path d="M39.7987 91.4098C39.7188 91.4098 39.6389 91.4481 39.559 91.4481C38.8431 88.8593 38.1655 86.2705 37.4496 83.6018H37.4336C37.7117 83.5634 37.7916 83.5219 37.8874 83.5634C39.7987 84.0013 39.7987 84.0013 39.7987 85.9924V91.4098Z" fill="#EDF0F4"/>
<path d="M39.8628 83.2854C39.5848 83.3237 39.5432 83.3653 39.5432 83.3653C37.7918 83.247 36.8361 82.3681 36.5964 80.5783C36.3567 79.0634 35.8805 77.6315 35.7207 76.0367C36.9959 77.3119 38.3479 78.5072 39.5048 79.9007C40.339 80.8947 39.5432 82.1316 39.8628 83.2854Z" fill="#EDF0F4"/>
<path d="M40.0191 64.1697L39.9009 69.7468C39.9009 70.4627 39.7826 70.7823 39.0252 70.3029C37.67 69.5071 36.3181 68.7113 34.9214 67.9922C34.3237 67.6726 34.3237 67.3945 34.6817 66.8768C36.0752 64.8856 37.4687 62.8944 38.8238 60.8617C38.9804 60.5102 39.3608 60.312 39.7411 60.3823C40.2972 60.4622 40.0191 60.9001 40.0191 61.1782C40.0607 62.1753 40.0191 63.1725 40.0191 64.1697Z" fill="#EDF0F4"/>
<path d="M74.2716 45.3704C73.0763 44.5746 71.6029 44.255 71.0851 42.7017C70.8774 42.2574 70.8933 41.7397 71.1235 41.3082C72.159 39.5951 73.1562 37.882 74.1118 36.1689C74.5113 35.4913 74.7478 35.6128 75.2656 36.0507C76.1413 36.8081 76.4609 37.5656 76.0614 38.7194C75.387 40.9087 74.8693 43.1395 74.2716 45.3704Z" fill="#EDF0F4"/>
<path d="M79.2511 75.4007C79.2511 78.7054 79.2511 78.7054 75.9464 78.4273C74.3548 78.3091 72.7216 78.1493 71.1267 78.0278C70.7272 77.9895 70.4108 77.9479 70.2894 77.4717C70.1711 76.9923 70.609 76.954 70.887 76.7942C73.3959 75.4007 75.8665 74.0072 78.3339 72.5721C79.0913 72.1343 79.331 72.3324 79.2511 73.1698C79.2096 73.9273 79.2511 74.6432 79.2511 75.4007Z" fill="#EDF0F4"/>
<path d="M64.8719 85.4747C63.5167 84.4775 61.9634 83.7232 60.4102 82.806C61.8452 82.0101 63.1588 81.2527 64.5139 80.4568C64.7472 80.2779 65.0796 80.313 65.2714 80.5368C67.0228 82.2882 68.8158 84.0428 70.6472 85.8742C70.4075 86.0723 70.3691 86.1139 70.3691 86.1139C68.4163 86.9896 66.6265 86.8298 64.8719 85.4747Z" fill="#EDF0F4"/>
<path d="M66.5052 87.1495C64.4342 87.6672 62.6028 88.185 60.7715 88.6644C60.3336 88.7826 60.1738 88.6644 60.1738 88.185V83.4069C62.3631 84.6789 64.3159 85.8327 66.5052 87.1495Z" fill="#EDF0F4"/>
<path d="M46.2742 85.1966C45.718 85.0368 45.9961 84.7172 46.1559 84.4392C47.1914 82.6462 48.2653 80.8532 49.3807 78.9036C50.5345 81.3326 51.6116 83.5634 52.6471 85.7943C53.0466 86.5901 52.6471 86.8682 52.0111 86.7116C50.0967 86.2737 48.1854 85.7144 46.2742 85.1966Z" fill="#EDF0F4"/>
<path d="M51.5315 87.2293C48.9043 88.9808 48.8244 88.9424 46.5137 85.8742C48.2236 86.3504 49.8184 86.7499 51.5315 87.2293Z" fill="#EDF0F4"/>
<path d="M45.4952 75.2792C45.5336 75.0811 45.655 74.8797 45.8947 75.0395C46.7321 75.5573 47.7261 75.797 48.3237 76.6727C48.9214 77.5484 49.1611 78.4242 48.4036 79.4597C47.4959 80.7925 46.6841 82.1923 45.9746 83.6402C45.3769 84.7939 44.9007 84.714 44.2232 83.8C43.9451 83.4004 43.3858 83.2023 43.5072 82.5663C44.1624 80.1405 44.8017 77.7082 45.4952 75.2792Z" fill="#EDF0F4"/>
<path d="M40.5779 37.2044C40.5715 37.1725 40.5651 37.1373 40.5651 37.1054C40.5299 36.6675 40.8591 36.284 41.297 36.2488C42.1727 36.089 43.0484 35.8493 43.9241 35.6128C44.0296 35.5936 44.1383 35.5936 44.2438 35.6128C44.1702 35.6607 44.1127 35.7311 44.0839 35.811C42.9685 36.8848 41.8531 38.0003 40.5779 39.2371C40.5779 38.4797 40.6162 37.8437 40.5779 37.2044Z" fill="#EDF0F4"/>
<path d="M40.8562 39.9946C42.2912 38.4797 43.7646 37.0063 45.3562 35.3731C46.5899 37.5241 47.667 39.4353 48.9422 41.5863C46.1137 41.3881 43.5249 41.2283 40.9776 40.9502C40.2201 40.8703 40.5366 40.311 40.8562 39.9946Z" fill="#EDF0F4"/>
<path d="M54.4372 34.3791C55.9106 35.5329 57.6621 36.3703 59.4551 37.4058C58.02 38.2432 56.748 38.9591 55.4727 39.7165C55.1531 39.9147 54.9166 40.0361 54.597 39.7165C52.8456 37.9235 51.0526 36.1721 49.1797 34.2992C51.0941 33.5417 52.6858 33.024 54.4372 34.3791Z" fill="#EDF0F4"/>
<path d="M53.3633 33.1039C55.396 32.5478 57.1858 32.0683 59.0171 31.5889C59.455 31.4707 59.6947 31.509 59.6947 32.0683V36.8081C57.5437 35.5712 55.5526 34.3791 53.3633 33.1039Z" fill="#EDF0F4"/>
<path d="M58.1978 49.7906C57.7983 49.3111 57.1623 49.8289 56.6829 49.9504C54.6917 50.4298 54.7301 50.4681 53.6945 48.6751C52.8188 47.0835 51.9431 45.4886 50.9875 43.9354C50.6295 43.2993 50.6678 42.9797 51.3454 42.7017C51.7449 42.5419 52.1029 42.3437 52.4608 42.1839C53.2982 41.8259 54.0525 40.8703 54.8515 41.0301C55.7688 41.2283 56.3249 42.3054 57.0408 42.9829C59.2557 45.2138 61.445 47.483 63.7174 49.6339C64.5739 50.4202 65.1013 51.5005 65.1908 52.6606C62.618 52.2228 60.0931 51.8233 57.6001 51.347C57.6001 51.2671 57.5618 51.1872 57.6001 51.1073C57.7184 50.6279 58.6356 50.3467 58.1978 49.7906Z" fill="#EDF0F4"/>
<path d="M40.617 44.7312L40.633 44.3317C40.633 41.5032 40.633 41.5032 43.3816 41.7045C45.1331 41.8228 46.9261 42.0241 48.6775 42.1424C49.077 42.1807 49.419 42.1807 49.5373 42.6601C49.6555 43.1396 49.2177 43.1779 48.9812 43.3377L41.4544 47.6396C40.6586 48.119 40.5787 47.7579 40.617 47.0835C40.6586 46.2845 40.617 45.5302 40.617 44.7312Z" fill="#EDF0F4"/>
<path d="M43.1252 47.3999C45.2346 46.3644 47.1874 45.169 49.1786 43.9737C49.936 43.4943 50.2141 43.734 50.5721 44.4116C51.5277 46.2429 52.5632 48.0359 53.6403 49.7874C54.0782 50.5033 53.9599 50.7046 53.1609 50.9028C49.3767 51.8584 45.5926 52.8939 41.8116 53.9295C40.9743 54.1692 40.6579 54.0893 40.7761 53.172C40.8145 52.6159 40.7761 52.0182 40.7761 51.1009C40.0985 49.2344 41.3354 48.2373 43.1252 47.3999Z" fill="#EDF0F4"/>
<path d="M40.6591 58.9505C40.6975 58.4327 40.7774 57.8766 40.7774 57.3589C40.8158 54.85 40.8158 54.85 43.1681 54.2139C46.2363 53.4181 49.3013 52.6223 52.3695 51.7434C53.6032 51.3854 54.7986 51.2256 56.1121 51.8616C54.4406 53.8528 52.8074 55.8439 51.2126 57.8351C50.6565 57.4356 50.893 56.4 50.2154 56.4799C49.6177 56.5598 49.7775 57.4356 49.5794 57.9533C49.4356 58.3401 49.3301 58.7396 49.2598 59.1487C49.2598 59.1583 49.2566 59.171 49.2566 59.1806C49.1831 59.6313 48.758 59.9381 48.3041 59.8646C46.0349 59.8262 43.7625 59.7847 41.4933 59.8262C40.7774 59.8262 40.5792 59.5482 40.6591 58.9505Z" fill="#EDF0F4"/>
<path d="M49.141 33.5801C48.7351 33.7271 48.2845 33.5354 48.1055 33.1422C47.8274 32.7044 48.2653 32.5446 48.4635 32.3464C49.4191 31.3109 49.4606 31.3109 51.6499 32.9025C50.7327 33.1422 49.8985 33.302 49.141 33.5801Z" fill="#EDF0F4"/>
<path d="M48.2389 31.6305C47.7211 32.388 47.2417 32.4263 46.5673 31.6688C45.5702 30.5534 44.4579 29.5179 43.3809 28.444C43.4192 28.3641 43.4608 28.2459 43.4991 28.166C45.356 28.8819 46.9093 30.1571 48.5968 30.9945C48.6384 31.3492 48.3603 31.4291 48.2389 31.6305Z" fill="#EDF0F4"/>
<path d="M49.7392 35.7311C51.2542 37.2045 52.7276 38.6778 54.3607 40.2727C53.6161 40.7649 52.8458 41.2187 52.05 41.6278C50.9378 42.1296 49.6274 41.6758 49.0617 40.5923C48.0261 38.7609 46.9906 36.9679 45.9551 35.1366C48.2243 34.2193 48.2243 34.2577 49.7392 35.7311Z" fill="#EDF0F4"/>
<path d="M40.5379 61.3795C40.5379 60.622 40.6561 60.3056 41.535 60.344C43.686 60.4239 45.8369 60.3823 47.9879 60.3823C48.544 60.3823 48.8636 60.4622 48.6655 61.1398C47.5117 65.3203 46.3963 69.5039 45.2393 73.8058C44.5234 73.368 43.9257 73.0484 43.3664 72.7319C40.4196 71.0604 40.4196 71.0604 40.4995 67.7141C40.5794 65.6015 40.5794 63.4921 40.5379 61.3795Z" fill="#EDF0F4"/>
<path d="M50.0577 78.7853C49.8595 78.4273 49.7381 78.1077 50.0961 77.7881C50.3741 77.5101 50.6138 77.7881 50.8535 77.9064C53.6021 79.498 56.3092 81.1312 59.1761 82.806C57.463 83.8031 55.9097 84.7172 54.398 85.6345C53.8802 85.9924 53.5222 86.1139 53.2026 85.3564C52.2087 83.1671 51.1316 80.9746 50.0577 78.7853Z" fill="#EDF0F4"/>
<path d="M49.3018 76.1965C48.9822 75.9983 48.7041 75.7586 48.3845 75.5605C47.5472 74.9628 46.1537 74.8445 45.9555 73.8889C45.7574 73.0132 46.355 71.9361 46.6331 70.9421C47.4289 68.0753 48.2663 65.2467 48.9438 62.3383C49.1772 61.1142 49.8771 60.0308 50.8966 59.3116C51.6925 61.501 52.4499 63.6519 53.3257 65.6846C53.5654 66.4005 53.5238 66.6818 52.6896 66.522C52.4116 66.4836 52.0536 66.3622 51.8938 66.6818C51.734 67.0014 52.092 67.1612 52.2518 67.3977C52.8079 68.1552 54.0831 68.593 54.0032 69.587C53.9233 70.4244 53.1659 71.2202 52.6896 72.0576C51.9322 73.3328 51.1747 74.608 50.4588 75.9216C50.1392 76.5161 49.8196 76.5928 49.3018 76.1965Z" fill="#EDF0F4"/>
<path d="M53.9988 66.1608C53.1614 63.8916 52.3273 61.5809 51.4899 59.3117C51.2694 58.9026 51.3525 58.3976 51.688 58.078C53.3212 56.2051 54.9129 54.2938 56.4662 52.3826C56.6995 52.0278 57.1341 51.8648 57.54 51.9831C59.9307 52.4209 62.3597 52.8588 64.7472 53.2583C65.2841 53.3095 65.7316 53.693 65.8626 54.2139C66.6584 56.4032 67.4543 58.6341 68.2916 60.8266C68.5377 61.306 68.4386 61.8877 68.0519 62.2616C66.4986 64.0546 64.9837 65.9243 63.4304 67.7589C63.1523 68.0785 62.951 68.4748 62.5131 68.2766C59.886 67.8388 57.3739 67.4009 54.8266 66.9631C54.3184 66.8768 54.1586 66.5572 53.9988 66.1608Z" fill="#EDF0F4"/>
<path d="M62.2838 68.8679C62.2838 69.5455 61.21 69.8651 61.6478 70.3828C62.0857 70.9006 62.8432 70.4212 63.3609 70.1847C64.7544 69.5487 65.4703 70.0664 66.1095 71.3385C66.9054 73.01 67.9025 74.6049 68.8582 76.1965C69.2577 76.8741 69.1778 77.232 68.4587 77.5101C67.9952 77.6986 67.5446 77.9096 67.1035 78.1461C64.9142 79.3414 64.9142 79.3414 63.2011 77.6283C60.9319 75.3591 58.7011 73.0867 56.4318 70.8591C55.5561 69.9833 54.7188 69.1076 54.7188 67.5543C57.266 67.9922 59.7749 68.43 62.2838 68.8679Z" fill="#EDF0F4"/>
<path d="M70.6893 86.67C71.0984 86.5166 71.5554 86.686 71.7632 87.0695C72.0029 87.469 71.565 87.6256 71.3637 87.8653C70.4081 88.9009 70.4081 88.9009 68.2188 87.3092C69.136 87.0695 69.9318 86.9097 70.6893 86.67Z" fill="#EDF0F4"/>
<path d="M70.1714 84.7204C68.8961 83.247 67.4643 81.9335 66.0676 80.5783C65.5115 80.0222 65.5498 79.7825 66.2658 79.4629C67.1415 79.0634 67.8191 78.2676 68.9345 78.5073C69.8901 78.2676 70.3695 78.8269 70.8074 79.661C71.6831 81.2942 72.6004 82.8859 73.556 84.4807C73.8341 84.9985 73.7957 85.1966 73.198 85.4363C72.0027 85.9126 71.0854 85.7943 70.1714 84.7204Z" fill="#EDF0F4"/>
<path d="M76.7176 72.8119C74.6466 73.8474 72.6554 75.0811 70.6643 76.238C70.0283 76.596 69.7087 76.6375 69.3091 75.9184C68.312 74.0072 67.2381 72.1343 66.1227 70.3029C65.7232 69.6669 65.9629 69.4656 66.5605 69.3058C70.4629 68.3086 74.327 67.3146 78.191 66.2375C78.9485 66.0394 79.1882 66.1576 79.1083 66.9151C79.0699 67.5128 79.1083 68.1488 79.1083 69.1044H79.0923C79.7699 70.9773 78.549 71.9745 76.7176 72.8119Z" fill="#EDF0F4"/>
<path d="M79.2089 61.4211C79.1705 61.9005 79.0906 62.4182 79.0906 62.8944C79.0522 65.4034 79.0522 65.365 76.5817 66.0394C73.5934 66.8352 70.6082 67.631 67.6199 68.4684C66.3447 68.8263 65.0694 69.1044 63.7559 68.3501L68.6938 62.4566C69.2499 62.8145 68.9718 63.8916 69.6494 63.7702C70.327 63.6519 70.2055 62.7346 70.3653 62.1785C70.8831 60.3855 70.8831 60.3855 72.7144 60.3855C74.5458 60.3855 76.4187 60.4239 78.2916 60.3855C79.0906 60.3855 79.2888 60.7019 79.2089 61.4211Z" fill="#EDF0F4"/>
<path d="M70.8446 58.3528C70.5666 59.4683 69.9689 60.1842 69.0133 60.9417C68.096 58.4711 67.2618 56.122 66.3861 53.7729C66.9422 53.3734 67.7956 54.0925 67.9777 53.4149C68.1759 52.8971 67.3801 52.5392 66.9806 52.1397C65.667 50.7845 65.667 50.8261 66.6226 49.1514C67.5399 47.5981 68.4955 46.1247 69.2913 44.5298C69.7707 43.5742 70.2469 43.6541 70.9629 44.2102C71.193 44.3956 71.4327 44.5682 71.6788 44.728C72.3947 45.2841 73.7115 45.4439 73.9096 46.2813C74.1078 47.1187 73.5517 48.1126 73.312 49.0299C72.5194 52.1397 71.6021 55.2463 70.8446 58.3528Z" fill="#EDF0F4"/>
<path d="M73.5937 35.0535C74.1114 35.1717 73.8717 35.5329 73.7119 35.811C72.6764 37.6039 71.6409 39.3969 70.4871 41.3465C69.2917 38.9175 68.2562 36.6483 67.2207 34.4558C66.8627 33.6983 67.1823 33.3819 67.8567 33.5385C69.7712 33.9796 71.6824 34.5357 73.5937 35.0535Z" fill="#EDF0F4"/>
<path d="M68.3789 32.9824C71.2458 31.231 70.1304 30.8315 73.4766 34.3759C71.6037 33.8997 70.0505 33.4618 68.3789 32.9824Z" fill="#EDF0F4"/>
<path d="M69.811 41.3466C69.9708 41.6662 70.169 42.0241 69.8494 42.3821C69.4499 42.8199 69.1718 42.3821 68.8938 42.2223C66.1867 40.669 63.518 39.0773 60.6895 37.4026C62.4824 36.3671 64.154 35.4115 65.7488 34.4558C66.2666 34.1362 66.4648 34.3376 66.6661 34.7754C67.7016 36.9647 68.7755 39.1573 69.811 41.3466Z" fill="#EDF0F4"/>
<path d="M75.5054 34.9352C74.9493 34.9352 75.1858 34.4974 75.3456 34.2193C76.3427 32.5062 77.3367 30.8347 78.3339 29.1216C78.4426 29.128 78.5512 29.1567 78.6535 29.2015C78.1517 31.0744 77.6979 33.024 77.0619 34.8969C76.7806 35.811 76.0647 34.9352 75.5054 34.9352Z" fill="#EDF0F4"/>
<path d="M77.4962 29.3197C76.5406 30.9913 75.5434 32.666 74.5878 34.3376C73.5139 33.2221 72.5551 32.1866 71.5195 31.1127C73.7887 29.7992 76.0995 28.2459 78.5701 27.0505C78.5317 27.9646 77.8957 28.6038 77.4962 29.3197Z" fill="#EDF0F4"/>
<path d="M70.3862 28.6837C72.4956 28.0861 74.6082 27.5683 76.7591 27.0122L76.8774 27.2519H76.8614C74.9661 28.3258 73.0773 29.5626 71.1436 30.5566C70.3478 30.9561 69.8301 29.9206 69.5105 29.2814C69.1908 28.6422 70.0666 28.7604 70.3862 28.6837Z" fill="#EDF0F4"/>
<path d="M68.1391 29.2015C69.0148 29.4795 69.4527 30.3169 70.0919 30.8347C70.1239 30.9465 70.0919 31.068 70.012 31.1543C69.1682 31.7232 68.2733 32.2154 67.3433 32.6277C66.6657 32.8674 65.0325 30.8762 65.2339 30.1571C65.2339 30.0388 65.432 29.9174 65.5535 29.879C66.3876 29.6393 67.2218 29.438 68.1391 29.2015Z" fill="#EDF0F4"/>
<path d="M67.6208 28.6038C67.5985 28.623 67.5825 28.6518 67.5825 28.6837C64.9553 29.601 64.9138 29.601 63.7184 27.0921C63.0824 25.737 62.4432 24.4234 61.7656 22.95C62.7628 23.3463 66.9848 27.4884 67.6208 28.6038Z" fill="#EDF0F4"/>
<path d="M60.334 22.2309C60.4522 22.2309 60.5321 22.1925 60.6536 22.1925C61.7275 24.4617 62.8045 26.7341 63.8784 28.9234C64.0766 29.3229 64.1181 29.5594 63.6004 29.7608C60.4938 30.9945 60.334 30.9146 60.334 27.6514V22.2309Z" fill="#EDF0F4"/>
<path d="M61.0491 31.6305C62.4425 32.0684 63.836 32.4263 65.2295 32.7843C65.5491 32.8642 65.8655 32.9441 65.9454 33.3404C65.9838 33.5801 65.8272 33.6984 65.6258 33.8198C63.8744 34.817 62.1613 35.8525 60.25 36.9647V32.2282C60.2117 31.589 60.4514 31.4291 61.0491 31.6305Z" fill="#EDF0F4"/>
<path d="M60.9472 38.24C63.4976 39.7933 66.0449 41.3082 68.6337 42.7816C69.2697 43.1395 69.3113 43.4176 68.9533 44.0153C67.7995 45.8466 66.764 47.7195 65.6869 49.5924C65.4089 50.1102 65.2075 50.3499 64.6514 49.7906C61.5832 46.7639 58.5182 43.7756 55.2933 40.6306H55.2773C56.869 39.7133 58.1858 38.9974 59.4738 38.2016C59.9212 37.8948 60.5157 37.9108 60.9472 38.24Z" fill="#EDF0F4"/>
<path d="M52.6634 28.166C54.9166 25.8552 57.1474 23.5444 59.3783 21.2369C59.4966 21.3168 59.5765 21.3967 59.6979 21.4766L59.7139 29.8791C59.7139 30.4767 59.4742 30.6365 58.9564 30.4767C56.8055 29.8791 54.6162 29.2814 52.3438 28.6454C52.4364 28.4728 52.5419 28.313 52.6634 28.166Z" fill="#EDF0F4"/>
<path d="M52.1673 29.3197C54.1584 29.8375 56.1911 30.3553 58.1823 30.9114V31.1894C56.5907 31.6273 54.9575 32.0652 53.3243 32.5446C51.9691 32.8642 51.1733 31.7072 50.1378 31.231C50.0579 31.1926 50.0195 30.9913 50.0195 30.9114C50.0579 30.4735 51.7294 29.2015 52.1673 29.3197Z" fill="#EDF0F4"/>
<path d="M50.7735 28.8403C49.5782 30.7931 49.46 30.8315 47.7469 29.7959C46.2735 28.8787 44.6403 28.1244 43.2852 27.009C45.89 27.3286 48.2806 28.3641 50.7735 28.8403Z" fill="#EDF0F4"/>
<path d="M42.608 28.444C43.9631 29.7992 45.3566 31.1511 46.6318 32.5861C47.3094 33.382 46.194 33.5418 45.9542 33.9796C45.7561 34.3376 45.4748 34.3791 45.2383 33.9413C44.2412 32.1898 43.2472 30.4767 42.25 28.7253C42.3715 28.6422 42.4897 28.5239 42.608 28.444Z" fill="#EDF0F4"/>
<path d="M40.5791 32.4263C40.4992 30.7548 40.5408 29.1216 40.5408 27.4468C40.6239 27.4373 40.707 27.4117 40.7805 27.3669C42.0557 29.5978 43.3309 31.8287 44.603 34.0979C44.881 34.5357 44.8011 34.7754 44.2834 34.8553C44.245 34.8553 44.2035 34.8937 44.1651 34.8937C43.0497 35.1717 41.6562 36.0091 40.8987 35.6096C40.0198 35.1334 40.6175 33.5418 40.5791 32.4263Z" fill="#EDF0F4"/>
<path d="M40.4196 78.3858C40.6177 76.3147 40.4579 74.2053 40.4579 71.853C42.0112 72.7703 43.3248 73.5246 44.6384 74.282C45.0762 74.5601 44.958 74.8797 44.8365 75.2377C44.2005 77.5484 43.6029 79.8592 42.9253 82.4065C41.7747 81.1344 40.2214 80.4568 40.4196 78.3858Z" fill="#EDF0F4"/>
<path d="M40.5795 81.0162C41.2155 81.6522 41.8132 82.2499 42.4108 82.8092C42.7688 83.1288 42.6505 83.4452 42.5291 83.8063C42.3693 84.3625 41.973 83.9661 41.7333 83.9246C40.2215 83.605 40.0617 83.2854 40.5795 81.0162Z" fill="#EDF0F4"/>
<path d="M40.4574 91.4513C40.419 91.4513 40.3775 91.413 40.3391 91.413C40.3391 89.0639 40.3391 86.7531 40.3008 84.4424C40.419 84.404 40.4989 84.3241 40.5405 84.3241C42.2919 84.6821 42.2536 84.7236 41.8157 86.3951C41.3747 88.0635 40.8984 89.7766 40.4574 91.4513Z" fill="#EDF0F4"/>
<path d="M41.1758 91.1317C41.6935 89.2588 42.173 87.3476 42.7291 85.4779C43.0487 84.3241 43.8445 85.2797 44.3207 85.3181C45.1165 85.4363 44.5604 85.9541 44.4006 86.2353C43.5632 87.7087 42.7291 89.1438 41.8502 90.6172C41.6935 90.8537 41.652 91.1701 41.1758 91.1317Z" fill="#EDF0F4"/>
<path d="M41.2148 93.0813C42.57 90.6907 43.9219 88.2617 45.277 85.8326C46.5107 86.8298 47.428 87.942 48.5019 89.0575C46.0313 90.451 43.7621 91.9659 41.2947 93.1612L41.2148 93.0813Z" fill="#EDF0F4"/>
<path d="M43.0078 93.1613C44.7209 91.7678 46.6705 90.7706 48.585 89.7766C49.6205 89.2972 49.8602 90.6939 50.8957 91.25C47.9873 91.9276 45.5966 92.8448 43.0078 93.1613Z" fill="#EDF0F4"/>
<path d="M51.8092 91.0103C51.4096 90.9719 49.7765 89.5752 49.7765 89.2972C49.7509 89.2173 49.7637 89.1278 49.8148 89.0575C49.9746 88.7378 52.4835 87.5425 52.8415 87.5841C54.1551 87.7439 54.0752 89.0575 54.6345 89.8533C54.7943 90.093 54.5961 90.2911 54.3948 90.3327C53.5223 90.5724 52.6465 90.8121 51.8092 91.0103Z" fill="#EDF0F4"/>
<path d="M54.5977 88.0635C55.9528 88.4214 57.1066 88.741 58.3818 89.0607C55.793 90.3742 55.3168 90.256 54.5977 88.0635Z" fill="#EDF0F4"/>
<path d="M52.6048 92.2472C52.0487 91.7677 52.0871 91.5696 52.8445 91.3714C55.0339 90.7738 55.0339 90.7354 55.9895 92.7649C56.7469 94.3981 57.5428 96.0313 58.3002 97.6645C56.389 95.7916 54.4777 93.9986 52.6048 92.2472Z" fill="#EDF0F4"/>
<path d="M59.4545 95.3538V98.0608C59.3746 98.0608 59.3363 98.0992 59.2564 98.0992C58.1825 95.8683 57.1054 93.5991 55.99 91.3683C55.7119 90.7706 55.7918 90.5724 56.4694 90.3711C59.4961 89.4954 59.4961 89.4538 59.4961 92.6403C59.4961 93.5608 59.4545 94.4365 59.4545 95.3538Z" fill="#EDF0F4"/>
<path d="M59.615 85.9925C59.615 88.821 59.615 88.821 56.9079 88.1019C56.1121 87.9037 55.3163 87.664 54.5173 87.4658C54.1977 87.3859 53.9611 87.2261 53.9196 86.9097C53.8812 86.5901 54.1593 86.5102 54.3575 86.392C55.8308 85.5162 57.3458 84.6789 58.8192 83.7648C59.5766 83.2854 59.6565 83.6465 59.615 84.2826V85.9925Z" fill="#EDF0F4"/>
<path d="M58.9944 81.9718C56.4055 80.4185 53.8167 78.9036 51.1895 77.3918C50.7101 77.1138 50.5535 76.8741 50.8699 76.3563C52.1452 74.2469 53.3405 72.1343 54.6541 69.9034C57.8406 73.0899 60.8896 76.155 64.0122 79.2232C64.3701 79.5811 64.4117 79.7409 63.9323 80.019C62.7369 80.655 61.5832 81.3741 60.3878 82.0517C59.95 82.3042 59.4003 82.2754 58.9944 81.9718Z" fill="#EDF0F4"/>
<path d="M67.0223 92.2056C64.8713 94.4748 62.682 96.7056 60.5311 98.9749L60.1731 98.7351C60.1731 95.9066 60.1731 93.0813 60.1348 90.2112C60.1348 89.6551 60.4128 89.6136 60.8507 89.7318C62.8834 90.2879 64.9129 90.8856 66.9456 91.4034C67.7798 91.6079 67.3004 91.9275 67.0223 92.2056Z" fill="#EDF0F4"/>
<path d="M67.54 90.9336C65.5872 90.4158 63.5961 89.8597 61.6465 89.342C61.6784 89.2525 61.6912 89.1566 61.6848 89.0639C63.318 88.626 65.0056 88.1083 66.6643 87.7503C67.9395 87.4723 68.697 88.5877 69.7325 89.0639C69.7837 89.163 69.8092 89.2716 69.8124 89.3835C69.7293 89.8981 68.0578 91.0519 67.54 90.9336Z" fill="#EDF0F4"/>
<path d="M76.1833 93.2412C73.8342 92.6051 71.4851 92.0075 69.1328 91.3683C69.9702 89.5753 70.4464 89.4155 72.0412 90.3711L76.3431 92.88C76.2728 92.9951 76.2217 93.1165 76.1833 93.2412Z" fill="#EDF0F4"/>
<path d="M76.518 92.3271C74.725 91.2532 72.9736 90.1761 70.9824 89.0223C71.3244 88.7443 71.5641 88.6228 71.6983 88.4247C72.2161 87.7087 72.6156 87.7886 73.2133 88.4247C74.089 89.4218 75.0862 90.2976 76.0003 91.2532C76.2783 91.528 76.7162 91.7294 76.518 92.3271Z" fill="#EDF0F4"/>
<path d="M77.2186 91.6878C75.8634 90.3743 74.5914 89.0607 73.3545 87.7439C72.5971 86.8682 73.6741 86.67 73.9905 86.2705C74.4284 85.5929 74.6266 86.3089 74.7864 86.5901L77.0556 90.5341C77.3464 90.8505 77.4103 91.3075 77.2186 91.6878Z" fill="#EDF0F4"/>
<path d="M79.2888 92.7649C79.2089 92.8033 79.1706 92.8033 79.0907 92.8448C77.8154 90.6555 76.5562 88.4247 75.2682 86.1938C74.9901 85.7144 75.0285 85.4779 75.6261 85.3564C76.8215 85.0784 78.0168 84.7204 79.2888 84.4008V92.7649Z" fill="#EDF0F4"/>
<path d="M76.2637 84.4391C77.2608 83.4835 78.3347 82.448 79.2903 81.4924C79.4118 84.1227 79.1305 84.4008 76.2637 84.4391Z" fill="#EDF0F4"/>
<path d="M78.9703 80.3386C77.5768 81.8535 76.1418 83.4068 74.5885 85.0784C73.2749 82.7676 72.1978 80.818 70.9258 78.6671C73.7128 78.9068 76.2632 79.0666 78.7721 79.3031C79.6479 79.383 79.3314 79.9391 78.9703 80.3386Z" fill="#EDF0F4"/>
<path d="M79.3472 50.1485C79.3088 53.0154 79.3088 55.8439 79.3088 58.7108C79.3472 59.5482 79.149 59.9445 78.155 59.9061C76.0456 59.7879 73.933 59.8678 71.8236 59.8678C71.3059 59.8678 71.0278 59.8294 71.1876 59.1902C72.3414 54.9714 73.4952 50.7526 74.6489 46.4539C76.0776 47.2465 77.388 48.0008 78.6728 48.8349C79.1426 49.0938 79.4111 49.6148 79.3472 50.1485Z" fill="#EDF0F4"/>
<path d="M79.4502 42.4236C79.2105 44.2965 79.4118 46.2078 79.4118 48.3587C77.8585 47.483 76.5609 46.6872 75.2314 45.9681C75.2314 45.9681 75.2282 45.9681 75.2282 45.9649C74.9533 45.8434 74.8318 45.5238 74.9533 45.249C75.6309 42.8583 76.2669 40.4293 76.9445 37.882C78.453 39.1157 79.7282 40.2311 79.4502 42.4236Z" fill="#EDF0F4"/>
<path d="M79.2089 39.5152C78.5473 38.7194 78.0551 38.0802 77.4958 37.4825C77.2305 37.2204 77.1666 36.8177 77.336 36.4853C77.5342 36.0059 77.8921 36.2456 78.1734 36.2872C79.6468 36.5684 79.7682 36.9264 79.2089 39.5152Z" fill="#EDF0F4"/>
<path d="M78.9471 35.8525C78.5093 35.6543 77.4737 36.0507 77.7518 34.9352C78.2696 32.9441 78.8257 30.9913 79.3434 29.0001H79.5256C79.5256 31.0712 79.5256 33.1039 79.5032 35.1717C79.5032 35.5329 79.663 36.2105 78.9471 35.8525Z" fill="#EDF0F4"/>
<path d="M96.7336 58.0364C96.6952 58.0748 96.6952 58.1547 96.6537 58.1962C94.8223 57.1607 92.9494 56.2434 91.2363 55.0897C90.3606 54.4536 91.4345 53.5364 91.4345 52.7789C93.2307 54.5303 94.9821 56.2818 96.7336 58.0364Z" fill="#EDF0F4"/>
<path d="M80.0479 61.9772C80.604 60.8234 81.403 59.986 82.9947 60.5038C84.5256 60.5038 86.1396 60.5422 87.8144 60.5038C88.4504 60.5038 88.5718 60.7435 88.4504 61.3412C88.2107 62.4566 87.8527 63.2141 86.4976 63.4506C84.5863 63.8085 82.6751 64.4062 80.7638 64.9655C80.0863 65.1637 79.7283 65.0454 79.8466 64.288C79.968 63.5305 79.6484 62.7347 80.0479 61.9772Z" fill="#EDF0F4"/>
<path d="M79.9668 41.1068C81.6 42.6985 83.0734 44.0952 84.5883 45.5686C83.2747 46.326 81.9995 47.0419 80.7243 47.7579C80.2065 48.0359 79.9668 47.9976 79.9668 47.3584V41.1068H79.9668Z" fill="#EDF0F4"/>
<path d="M84.3873 46.4059C84.8667 46.1279 84.985 46.2877 85.1032 46.7639C85.4612 48.1989 85.8991 49.6308 86.257 51.0658C86.3976 51.3822 86.3145 51.7529 86.0589 51.9831C85.7393 52.1812 85.5411 51.8648 85.3014 51.7434C83.6298 50.8261 81.9551 49.8705 80.1621 48.8349C81.6802 47.9592 83.0354 47.2017 84.3873 46.4059Z" fill="#EDF0F4"/>
<path d="M88.4654 44.1367C89.8589 43.3409 91.2524 42.5834 92.6459 41.7876C92.7258 41.7493 92.8057 41.7876 93.1636 41.7876H93.1476C91.6327 43.9769 90.2392 46.0096 88.9033 48.0008C88.6252 48.4386 88.4654 48.4386 88.0659 48.0807C85.5602 45.7667 85.5186 45.8083 88.4654 44.1367Z" fill="#EDF0F4"/>
<path d="M86.8959 53.693C87.452 55.5659 87.9314 57.4356 88.4108 59.3085C88.6089 59.9445 88.1327 59.8646 87.7748 59.8646H81.4434C83.035 57.5954 84.4317 55.5627 85.7453 53.4916C86.2598 52.7789 86.6977 53.0569 86.8959 53.693Z" fill="#EDF0F4"/>
<path d="M87.8131 66.3973C87.7748 65.4801 88.1711 64.6842 88.3693 63.8884C88.4492 63.5305 88.7688 63.409 89.1267 63.3707C89.6061 63.3323 89.6061 63.7286 89.6828 64.0067C90.1623 65.3618 89.9225 65.6814 87.8131 66.3973Z" fill="#EDF0F4"/>
<path d="M79.968 66.1608C80.6456 64.9271 82.755 65.1637 84.2284 64.6874C85.3438 64.3295 86.4593 64.0898 87.7345 63.7702C87.4564 64.8057 87.2167 65.6431 87.0186 66.5188C86.9227 66.9247 86.6414 67.2635 86.2611 67.4361C85.3438 67.9155 84.4681 68.4332 83.554 68.951C82.4002 69.6286 81.2049 70.2646 79.9297 70.9837L79.968 66.1608Z" fill="#EDF0F4"/>
<path d="M86.6185 67.9506C86.0624 70.06 85.5446 71.9329 85.0269 73.8058C84.8671 74.3619 84.5091 74.0455 84.2694 73.8857C82.9942 73.1698 81.7605 72.4123 80.2871 71.5366C82.4381 70.3029 84.3877 69.1875 86.6185 67.9506Z" fill="#EDF0F4"/>
<path d="M87.1781 68.2702C87.3379 67.6342 89.409 66.0394 89.9651 66.0809C90.0737 66.1033 90.1696 66.1576 90.2431 66.2407C90.8408 66.9183 90.7609 68.6314 90.1249 69.2674C89.0095 70.3828 87.894 71.4983 86.7786 72.5722C86.5389 72.7703 86.3407 73.0899 85.8613 72.9717C86.2992 71.3385 86.7371 69.7852 87.1781 68.2702Z" fill="#EDF0F4"/>
<path d="M90.4179 64.3678C90.3795 63.93 89.8202 63.2524 90.5362 63.0127C92.3643 62.4566 94.1893 61.9005 96.174 61.8174C94.4226 62.773 92.7095 63.767 90.974 64.7226C90.5777 64.9655 90.4563 64.6459 90.4179 64.3678Z" fill="#EDF0F4"/>
<path d="M90.4399 62.3351C89.4427 62.5748 89.724 61.5393 89.5642 61.0599C89.3245 60.3823 89.9637 60.5038 90.3216 60.5038H96.733C96.7426 60.5645 96.7713 60.6188 96.8129 60.6636C94.7035 61.2197 92.5909 61.8174 90.4399 62.3351Z" fill="#EDF0F4"/>
<path d="M88.9665 58.9505C88.4871 57.1192 88.0907 55.6042 87.6113 53.8528C90.3216 55.2463 90.3216 55.2463 88.9665 58.9505Z" fill="#EDF0F4"/>
<path d="M89.8429 54.3706C89.0631 53.9934 88.3184 53.5556 87.6121 53.057C87.5801 53.0346 87.5514 53.0122 87.5226 52.9867C87.0176 52.5616 86.9505 51.8105 87.3756 51.3023C87.6153 50.9444 87.855 50.6248 88.0531 50.2668C88.4111 49.5093 88.7691 49.6691 89.2069 50.1869C89.763 50.8645 90.5205 51.3822 90.9584 52.0598C90.7602 52.8173 90.6004 53.4533 90.4023 54.1692C90.3224 54.4505 90.1242 54.5304 89.8429 54.3706Z" fill="#EDF0F4"/>
<path d="M91.1973 51.1041C91.079 51.0658 90.9576 51.0658 90.9192 51.0242C88.8098 49.113 88.8098 49.113 90.4014 46.8022C91.2772 45.5686 92.1145 44.3317 92.9903 43.098C93.1085 43.1363 93.23 43.2162 93.3482 43.2578C92.6323 45.8466 91.9547 48.477 91.1973 51.1041Z" fill="#EDF0F4"/>
<path d="M93.6692 40.4708C90.7608 42.104 88.092 43.6158 85.3466 45.1691C84.6691 42.6985 84.033 40.2695 83.3555 37.6807C86.8168 38.5979 90.0832 39.5152 93.6692 40.4708Z" fill="#EDF0F4"/>
<path d="M82.9145 38.5596C83.3939 40.3526 83.8701 42.1839 84.3495 44.0153C84.2888 44.0632 84.2216 44.1048 84.1513 44.1335C82.8761 42.8583 81.6009 41.5831 80.3288 40.3494C80.0508 40.0298 79.891 37.441 80.1307 37.1246C80.1914 37.0287 80.2969 36.968 80.4087 36.9648C81.3228 36.7666 82.6747 37.6423 82.9145 38.5596Z" fill="#EDF0F4"/>
<path d="M80.0214 34.6156C80.1812 32.6245 80.0597 30.6333 80.0597 28.6422H80.2835C80.961 31.1127 81.5971 33.5801 82.2523 36.0507C82.4121 36.6483 82.2139 36.7282 81.6162 36.6068C80.4625 36.4086 79.9031 35.9708 80.0214 34.6156Z" fill="#EDF0F4"/>
<path d="M79.8487 58.9505V55.8439L79.9286 50.3882C79.9286 49.7107 80.0884 49.471 80.766 49.8705C82.1211 50.7078 83.5146 51.5037 84.9464 52.2611C85.5025 52.5392 85.5025 52.8172 85.1861 53.2966C83.7926 55.2878 82.3991 57.279 81.044 59.3117C80.8043 59.7112 80.4879 59.9477 80.0468 59.7911C79.609 59.6281 79.8487 59.2286 79.8487 58.9505Z" fill="#EDF0F4"/>
<path d="M79.8065 77.9096V71.9745C81.3374 72.8502 82.5935 73.646 83.9103 74.4035C84.3897 74.6816 84.428 74.9213 84.0285 75.3208C82.993 76.3179 81.9575 77.3535 80.9603 78.389C80.7525 78.6575 80.4202 78.7949 80.0846 78.747C79.6084 78.5872 79.8065 78.1876 79.8065 77.9096Z" fill="#EDF0F4"/>
<path d="M84.3067 75.8769C83.5908 79.5811 83.8273 79.1433 81.5996 78.7438C82.3571 77.6699 83.3127 76.9124 84.3067 75.8769Z" fill="#EDF0F4"/>
<path d="M80.166 91.6079C80.0861 91.6079 79.9678 91.5696 79.8879 91.5696C79.8879 89.5369 79.9263 87.4658 79.8496 85.4363C79.8112 84.519 80.0477 84.0428 81.0034 83.9629C81.4476 83.8862 81.8887 83.7807 82.3169 83.6433C81.5595 86.3919 80.8851 89.0191 80.166 91.6079Z" fill="#EDF0F4"/>
<path d="M81.6798 83.1671C79.5704 83.6849 79.9284 83.7648 79.8868 81.812C79.8868 79.9391 80.2065 79.383 81.4401 79.5013C82.0762 79.5396 82.9934 79.1433 83.313 79.9391C83.6294 80.7349 82.3958 82.9658 81.6798 83.1671Z" fill="#EDF0F4"/>
<path d="M91.9936 80.4569C89.1267 81.2143 86.2982 81.9718 83.2715 82.806C83.5112 81.8503 83.7093 81.013 83.9075 80.2172C84.0673 79.5811 84.5851 79.7377 85.0229 79.7793C87.3337 79.9391 89.6029 80.0989 91.9137 80.2971C91.9552 80.3386 91.9552 80.4185 91.9936 80.4569Z" fill="#EDF0F4"/>
<path d="M85.1825 79.1816C84.5465 79.1433 84.2652 78.9835 84.4666 78.1845C85.2624 75.1578 85.224 75.1578 87.9311 76.7494L92.7092 79.7377C90.0821 79.5428 87.6147 79.3414 85.1825 79.1816Z" fill="#EDF0F4"/>
<path d="M93.8284 79.5428C90.9615 77.8297 88.3312 76.2764 85.8223 74.803C87.6153 73.01 89.3284 71.2586 91.1597 69.5071C91.9939 72.732 92.8696 75.9984 93.8284 79.5428Z" fill="#EDF0F4"/>
<path d="M91.3957 67.6726C91.3478 67.6246 91.3095 67.5703 91.2775 67.5128C90.6798 65.56 90.6415 65.56 92.4728 64.566C93.8663 63.8085 95.3013 63.0511 96.6948 62.2968L96.8546 62.415C95.0201 64.1697 93.2303 65.9211 91.3957 67.6726Z" fill="#EDF0F4"/>
<path d="M97.8104 59.8678H90.322C89.7659 59.8678 89.4463 59.8294 89.686 59.1103C90.0056 58.1131 90.2421 57.1192 90.4819 56.122C90.6001 55.6426 90.7599 55.486 91.2393 55.764C93.4702 57.0776 95.701 58.3145 97.9287 59.5865C97.8967 59.6824 97.8552 59.7783 97.8104 59.8678Z" fill="#EDF0F4"/>
</svg>
