<svg width="120" height="120" viewBox="0 0 120 120" fill="none" xmlns="http://www.w3.org/2000/svg">
<circle cx="60" cy="60" r="60" fill="#348F8D"/>
<path fill-rule="evenodd" clip-rule="evenodd" d="M87.8186 33.8393C89.674 31.9076 89.674 28.849 87.8186 26.9173H87.8223C86.9391 26.0032 85.7245 25.4873 84.4557 25.4873C83.1869 25.4873 81.9723 26.0032 81.0891 26.9173L72.3941 35.8641L61.2443 24.4163C61.0201 24.18 60.766 23.9738 60.497 23.7901C58.7672 22.5618 56.4026 22.7865 54.9333 24.3188L54.8398 24.4163L54.8361 24.42H54.8324L26.345 53.7426C26.3285 53.7623 26.3111 53.781 26.2927 53.7989L26.2329 53.8551C24.589 55.5614 24.589 58.2683 26.2329 59.9746L34.8493 68.7976C35.6299 69.5936 36.6976 70.0397 37.8105 70.0347C38.9233 70.0298 39.987 69.5743 40.7606 68.7714C42.3907 67.081 42.4022 64.4013 40.7867 62.6969L35.3687 57.1361L57.8067 34.0417L69.4572 46.0183C70.8635 47.4838 73.0796 47.8093 74.8453 46.8094C75.3198 46.5698 75.7516 46.253 76.1232 45.872L87.8186 33.8393ZM94.7648 67.1478C96.4132 65.45 96.4115 62.7428 94.7611 61.047L94.6565 60.9383L94.6452 60.9308L94.6378 60.9233L86.1446 52.2052C85.364 51.4093 84.2963 50.9632 83.1835 50.9682C82.0707 50.9731 81.0069 51.4286 80.2334 52.2315C78.6033 53.9219 78.5918 56.6016 80.2072 58.306L85.6252 63.8668L63.2284 86.9049L51.548 74.9134C50.4531 73.7885 48.8763 73.316 47.3668 73.6535C46.4326 73.841 45.577 74.3134 44.9119 75.0109L33.2202 87.0399C32.0058 88.2735 31.5313 90.0809 31.9685 91.772C32.4094 93.4669 33.6985 94.7868 35.3463 95.2405C36.9941 95.6942 38.7503 95.203 39.9535 93.9581L48.5961 85.0413L59.4956 96.2304C60.2419 97.2582 61.4029 97.9023 62.6672 97.9898C63.9315 98.0773 65.1696 97.5993 66.0495 96.6841L94.649 67.2603C94.6666 67.2405 94.6854 67.2217 94.705 67.204L94.7648 67.1478Z" fill="white"/>
</svg>
