<svg width="120" height="120" viewBox="0 0 120 120" fill="none" xmlns="http://www.w3.org/2000/svg">
<circle cx="60" cy="60" r="60" fill="#EDF0F4"/>
<rect x="32.9048" y="32.6705" width="53.6905" height="53.6905" fill="white"/>
<path fill-rule="evenodd" clip-rule="evenodd" d="M56.841 66.8567H51.101L51.1986 78.0634H41.4367V41.3781H56.5481C58.2045 41.3628 59.8396 41.7515 61.3119 42.5105C62.7446 43.2268 64.0244 44.2148 65.08 45.4195C66.1261 46.619 66.9641 47.985 67.5595 49.461C68.1703 50.9201 68.4824 52.4868 68.4772 54.0686C68.4791 55.6952 68.1881 57.3089 67.6181 58.8324C67.0941 60.3366 66.3001 61.7326 65.2752 62.9519C64.2439 64.1297 62.9899 65.0918 61.5852 65.7829C60.1028 66.4875 58.4824 66.8543 56.841 66.8567ZM55.9819 50.2419H51.101V58.0515H56.1967C56.8436 58.0221 57.4442 57.7075 57.8367 57.1924C58.4933 56.3432 58.7943 55.2722 58.6762 54.2053C58.7869 53.0904 58.4576 51.9765 57.7586 51.101C57.3012 50.5937 56.6636 50.2854 55.9819 50.2419Z" fill="#2D8EFF"/>
<path fill-rule="evenodd" clip-rule="evenodd" d="M29 86.9662V32.5338C29 30.5821 30.5821 29 32.5338 29H86.9662C87.9034 29 88.8023 29.3723 89.465 30.035C90.1277 30.6977 90.5 31.5966 90.5 32.5338V86.9662C90.5 88.9179 88.9179 90.5 86.9662 90.5H32.5338C30.5821 90.5 29 88.9179 29 86.9662ZM39.699 83.2957H79.7619V83.2567C81.6984 83.2568 83.2743 81.6983 83.2957 79.7619V39.699C83.2957 37.7474 81.7136 36.1652 79.7619 36.1652H39.699C37.7474 36.1652 36.1652 37.7474 36.1652 39.699V79.7619C36.1652 81.7136 37.7474 83.2957 39.699 83.2957Z" fill="#2D8EFF"/>
<rect x="55.4157" y="71.1714" width="22.6281" height="6.95048" fill="#2D8EFF"/>
</svg>
