<svg width="120" height="120" viewBox="0 0 120 120" fill="none" xmlns="http://www.w3.org/2000/svg">
<circle cx="60" cy="60" r="60" fill="#EDF0F4"/>
<path d="M73.8264 64.7341L57.7339 93.867L41.364 64.5491C41.5799 64.7032 42.8253 65.363 46.0808 66.7688C49.3363 68.1745 52.8013 68.7726 54.127 68.8959C52.8322 68.341 49.4657 66.7873 46.3582 65.0115C42.4738 62.7919 37.6646 59.2774 34.3351 56.3179C31.6715 53.9503 24.47 46.5144 21.2021 43.0925C24.9941 45.7437 33.7987 51.7676 38.6819 54.6532C43.5652 57.5387 55.6377 62.761 61.0634 65.0115C60.3851 64.3641 58.6403 62.5884 57.0865 60.6647C55.5328 58.741 54.0961 56.1638 53.5721 55.1156C55.2059 56.1329 59.0472 58.4636 61.3409 59.6474C63.6345 60.8312 70.6203 63.5318 73.8264 64.7341Z" fill="url(#paint0_linear)"/>
<path d="M72.7168 60.1098C82.1873 64.4012 94.8517 65.9055 100 66.1214C95.5298 64.6416 84.9064 60.9237 78.1734 57.8902C71.4405 54.8566 66.7361 50.6454 65.2254 48.9191C66.1503 49.6281 68.8139 51.3422 72.0694 52.526C75.3249 53.7098 78.4818 54.2523 79.6532 54.3757L94.9133 27H70.4046L57.9191 51.0462L42.8439 27H20C22.158 29.5279 27.6578 35.6012 32.3931 39.6705C37.1283 43.7399 44.6628 49.1349 47.8382 51.3237C46.6667 49.8439 44.1387 46.4775 43.3988 44.8497C42.659 43.222 42.0424 40.4104 41.8266 39.2081C43.8922 41.2119 48.578 45.6636 50.7977 47.4393C53.5723 49.659 60.8786 54.7457 72.7168 60.1098Z" fill="url(#paint1_linear)"/>
<defs>
<linearGradient id="paint0_linear" x1="10.7519" y1="42.809" x2="46.0315" y2="102.294" gradientUnits="userSpaceOnUse">
<stop stop-color="#721951"/>
<stop offset="1" stop-color="#E4662E"/>
</linearGradient>
<linearGradient id="paint1_linear" x1="-18.6748" y1="33.9635" x2="-9.14216" y2="96.5338" gradientUnits="userSpaceOnUse">
<stop stop-color="#721951"/>
<stop offset="1" stop-color="#E4662E"/>
</linearGradient>
</defs>
</svg>
