<svg width="120" height="120" viewBox="0 0 120 120" fill="none" xmlns="http://www.w3.org/2000/svg">
<circle cx="60" cy="60" r="60" fill="#EDF0F4"/>
<circle cx="60" cy="60" r="45" fill="#1347E8"/>
<path fill-rule="evenodd" clip-rule="evenodd" d="M60.375 29.25C43.1855 29.25 29.25 43.1855 29.25 60.375C29.25 77.5645 43.1855 91.5 60.375 91.5C77.5645 91.5 91.5 77.5645 91.5 60.375C91.5 43.1855 77.5645 29.25 60.375 29.25ZM89.9155 59.1017L87.3972 59.1272L87.3858 58.0717L89.907 58.0491L89.9183 59.1017H89.9155ZM89.2699 53.6605L89.2703 53.6605V53.6633L89.2699 53.6605ZM89.1232 52.6164L89.2699 53.6605L86.7718 54.0085L86.6275 52.9616L89.1232 52.6164ZM87.1199 47.0337L87.5556 47.9957L85.2609 49.037L84.8251 48.0778L87.117 47.0337H87.1199ZM84.6695 43.0299L83.9734 42.2376L82.0804 43.9014L82.7737 44.6937L84.6695 43.0299ZM80.2808 38.2961L81.0788 38.9865L79.4348 40.8936L78.6341 40.206L80.2808 38.2961ZM76.7637 35.3081L75.8809 34.7337L74.5086 36.8502L75.3914 37.4217L76.7637 35.3081ZM70.8726 32.2635L71.8941 32.5323L71.2546 34.9685L70.2331 34.6997L70.8754 32.2663L70.8726 32.2635ZM66.4189 30.9958L65.3691 30.9109L65.1598 33.4208L66.2095 33.5085L66.4189 30.9958ZM59.6704 30.246H60.723V32.7671H59.6704V30.246ZM55.1998 33.4208L54.9904 30.9109L53.9378 30.9987L54.1472 33.5113L55.1998 33.4208ZM49.4841 32.2635L50.1236 34.6997L49.1049 34.9685L48.4626 32.5351L49.4813 32.2635H49.4841ZM45.8509 36.8502L44.4786 34.7337L43.593 35.3081L44.9653 37.4217L45.8509 36.8502ZM40.0787 38.2989L41.7226 40.206L40.9247 40.8936L39.2807 38.9865L40.0787 38.2961V38.2989ZM38.2847 43.8957L36.3889 42.232V42.2348L35.6929 43.0271L37.5858 44.688L38.2847 43.8957ZM33.2453 47.0309L35.5373 48.075L35.1043 49.037L32.8096 47.9901L33.2453 47.0309ZM33.7377 52.9588L31.2392 52.6136V52.6107L31.0949 53.6577L33.5905 54.0057L33.7377 52.9588ZM30.4582 58.0463L32.9765 58.0689L32.968 59.1243L30.4497 59.0989L30.4582 58.0463ZM33.1972 63.711L30.6902 63.9657L30.7949 65.0126L33.3019 64.758L33.1972 63.711ZM31.8305 69.3249L34.2866 68.7533L34.5271 69.7804L32.0711 70.352L31.8305 69.3249ZM34.0574 74.8113L34.578 75.7281L36.7681 74.4775L36.2446 73.5607L34.0574 74.8113ZM38.1489 80.2186L37.3821 79.4942L39.1166 77.6635L39.8806 78.3879L38.1489 80.2186ZM41.3237 83.1925L42.181 83.8036L43.6439 81.7522L42.7865 81.1382L41.3237 83.1925ZM46.8894 86.9473L45.9556 86.4578L47.1271 84.2281L48.0608 84.7176L46.8894 86.9473ZM51.0573 88.7751L52.0986 88.9506L52.5145 86.4662L51.4732 86.2908L51.0573 88.7751ZM56.6513 89.8051L56.6315 87.284L57.6869 87.2727L57.7067 89.7938L56.6513 89.8051ZM60.375 34.1734C45.9273 34.1734 34.1734 45.9273 34.1734 60.375C34.1734 74.8227 45.9273 86.5766 60.375 86.5766C74.8227 86.5766 86.5766 74.8227 86.5766 60.375C86.5766 45.9273 74.8227 34.1734 60.375 34.1734ZM62.4292 90.0315L62.3953 90.0343L62.1661 87.5273L63.2159 87.4311L63.2498 87.4255L63.479 89.9353L62.4292 90.0315ZM67.6073 86.3672L68.0459 88.8487L69.0843 88.6676L68.6458 86.1833L67.6073 86.3672ZM73.4051 86.9982L72.542 84.6299L73.5324 84.2705L74.3954 86.6388L73.4051 86.9982ZM76.6053 82.1031L78.1615 84.0838V84.0809L78.9906 83.4273L77.4315 81.4466L76.6053 82.1031ZM82.2191 80.1309L80.4082 78.3822L81.1382 77.6211L82.9491 79.3754L82.2191 80.1309ZM83.498 74.3869L85.5353 75.8724L86.1578 75.0179L84.1205 73.5352L83.498 74.3869ZM88.229 70.8075L85.8466 69.9756L86.1946 68.9796L88.5742 69.8115L88.229 70.8047V70.8075ZM87.1963 64.9504L89.7146 65.0636L89.7627 64.011L87.2444 63.895L87.1963 64.9504ZM70.3803 73.7644H70.3774C70.799 74.2171 70.8104 74.9075 70.3944 75.3207C69.9785 75.7309 69.2909 75.7111 68.841 75.281V75.2839L68.0544 74.4916L66.2661 72.6779C65.1056 73.2313 63.8268 73.4907 62.5424 73.4333H57.6247C53.171 73.5975 49.0568 71.3734 49.3907 64.1411C49.3988 63.9237 49.3851 61.8545 49.3767 60.591L49.3767 60.5904C49.3734 60.0948 49.3709 59.7234 49.3709 59.6365L49.3794 56.7164C49.3709 49.5011 51.1337 46.2301 55.9949 45.0728C56.5466 44.9398 59.5544 44.8748 60.1288 44.8748H60.3863C60.9635 44.8748 63.6177 44.9398 64.1694 45.0728C69.0306 46.2301 70.7934 49.5011 70.7849 56.7164L70.7934 59.6393C70.7934 59.7198 70.7913 60.0445 70.7884 60.4858C70.7802 61.7348 70.766 63.9181 70.7764 64.144C70.9575 68.0487 69.837 69.7465 68.0685 71.4272L69.5965 72.9693L70.3803 73.7644ZM64.5146 70.9009C63.977 71.0594 63.4196 71.1386 62.8565 71.1386C62.7801 71.1386 62.7037 71.1386 62.6273 71.1329H57.5822L57.5398 71.1358L57.3106 71.1414C56.2524 71.1414 54.7329 70.8698 53.5077 69.5852C52.1891 68.2044 51.5581 67.0499 51.6855 64.2486C51.6968 64.0534 51.6968 64.0477 51.677 60.5335C51.6762 59.5761 51.6762 58.6188 51.677 57.6615C51.679 56.7871 51.6811 56.7718 51.6821 56.7645C51.6824 56.7618 51.6826 56.7602 51.6826 56.7136C51.677 53.5162 52.0392 50.7376 52.8173 49.4841C53.2785 48.7371 54.0764 47.8995 56.4929 47.3166C56.9682 47.2459 59.4016 47.1723 60.1288 47.1723H60.3891C61.4866 47.1788 62.5833 47.2269 63.6771 47.3166C66.0907 47.8995 66.8886 48.7371 67.3498 49.4841C68.128 50.7376 68.4901 53.5162 68.4873 56.7136C68.4873 56.7591 68.4875 56.7606 68.4879 56.7633C68.4888 56.7702 68.4909 56.785 68.493 57.6615L68.4958 59.6365L68.4901 60.5335C68.4706 63.993 68.4731 64.0496 68.4813 64.2395L68.4817 64.2486C68.609 67.0499 67.9808 68.2044 66.6623 69.5852C66.5953 69.6569 66.5254 69.7258 66.4529 69.7917L65.0409 68.36L64.2571 67.5677C63.8072 67.1404 63.1197 67.1206 62.7037 67.5337C62.2878 67.944 62.2963 68.6316 62.7207 69.0843L63.5073 69.8823L64.5146 70.9009Z" fill="white"/>
</svg>
