<svg width="120" height="120" viewBox="0 0 120 120" fill="none" xmlns="http://www.w3.org/2000/svg">
<circle cx="60" cy="60" r="60" fill="#EDF0F4"/>
<path d="M76 50.7036V69.1538L92 59.9456V41.4615L76 50.7036Z" fill="#9290B0"/>
<path d="M92 78.3959L76 69.1538V87.638L92 96.8462V78.3959Z" fill="#A2EEE3"/>
<path d="M60 41.4503V23L28 41.4503L43.9831 50.6923L60 41.4503Z" fill="#46DDC8"/>
<path d="M60 78.3959L43.9831 69.1538L28 78.3959L43.9831 87.638L60 96.8462V78.3959Z" fill="#262261"/>
<path d="M28 41.4615V59.94V78.3846L44 69.1454V50.7008L28 41.4615Z" fill="#9290B0"/>
<path d="M76 69.1538L60 78.3959V96.8462L76 87.638V69.1538Z" fill="#46DDC8"/>
<path d="M76 50.6923L92 41.4503L76 32.2421L60 23V41.4503L76 50.6923Z" fill="#262261"/>
</svg>
