<svg width="120" height="120" viewBox="0 0 120 120" fill="none" xmlns="http://www.w3.org/2000/svg">
<circle cx="60" cy="60" r="60" fill="#454545"/>
<path fill-rule="evenodd" clip-rule="evenodd" d="M83.1691 44.972C86.0828 49.4422 87.6317 54.6641 87.6269 60C87.6308 65.3363 86.0805 70.5583 83.1653 75.028L94 85.8627L85.8627 94L75.028 83.1653C70.6987 85.9798 65.5458 87.6269 60 87.6269C54.4542 87.6269 49.3013 85.9798 44.972 83.1653L34.1373 94L26 85.8627L36.8347 75.028C34.024 70.6987 32.3731 65.5458 32.3731 60C32.3731 54.4542 34.0202 49.3013 36.8347 44.972L26 34.1373L34.1373 26L44.972 36.8309C49.3013 34.0202 54.4542 32.3731 60 32.3731C65.5458 32.3731 70.6987 34.0202 75.028 36.8347L85.8627 26L94 34.1373L83.1691 44.972ZM60 43C50.6273 43 43 50.6273 43 60C43.0104 69.3845 50.6155 76.9896 60 77C62.3888 76.9997 64.7503 76.4924 66.9284 75.5116L55.7084 64.2916L64.2916 55.7047L75.5116 66.9247C76.4598 64.8053 77 62.4669 77 60C77 50.6273 69.3727 43 60 43Z" fill="white"/>
</svg>
