<svg width="120" height="120" viewBox="0 0 120 120" fill="none" xmlns="http://www.w3.org/2000/svg">
<circle cx="60" cy="60" r="60" fill="#EDF0F4"/>
<path fill-rule="evenodd" clip-rule="evenodd" d="M99.8029 92.7824L99.7749 92.7424L85.9904 80.282L92.5466 60.0213L92.5666 59.9613V59.4372L85.8584 38.5765C85.8504 38.5205 85.8304 38.4645 85.7984 38.4125V38.3605L85.6184 38.1805C85.5664 38.0765 85.4824 38.0005 85.3744 37.9605L67.7097 25.076L67.6057 25H45.2849C45.1529 25 45.1249 25.02 44.8449 25.22L44.8449 25.22C44.7129 25.316 44.5169 25.456 44.2689 25.632C43.8009 25.968 43.1168 26.4601 42.2328 27.0961C41.1769 27.8567 39.827 28.8309 38.2031 30.0028L38.1944 30.0091L38.1898 30.0124L38.1862 30.015L36.0726 31.5402C31.6484 34.7364 27.1723 37.9725 27.1283 38.0045L27.1043 38.0245L26.7642 38.3645V38.6005L20.02 59.3772L20 59.4372V59.9653L26.7682 80.802V80.806C26.7642 80.95 26.8162 81.086 26.9162 81.186L27.1043 81.374L44.7209 94.1185C44.7929 94.2425 44.9209 94.3225 45.0609 94.3345C45.1409 94.3785 45.2329 94.4025 45.3249 94.4025H67.4697L67.5497 94.3225C67.5977 94.3105 67.6457 94.2945 67.6857 94.2665H67.7017L84.8343 81.85L98.3948 94.1585C98.4828 94.2425 98.5908 94.3065 98.7068 94.3465C98.9428 94.4185 99.1908 94.4185 99.4269 94.3465C99.5829 94.2905 99.7149 94.1825 99.7949 94.0345C99.9349 93.8665 100.007 93.6545 99.9989 93.4345C100.003 93.2025 99.9349 92.9744 99.8029 92.7824ZM84.6143 58.7692L85.5304 43.9367L90.2825 58.7692H84.6143ZM85.5344 75.4658L90.2865 60.6333H84.6183L85.5344 75.4658ZM37.3446 77.4419L43.0448 90.6224L29.5643 80.826L37.3446 77.4419ZM67.0177 27.8601L58.0374 40.1605L73.1699 42.0646L67.0177 27.8601ZM75.218 41.9606L69.5178 28.7761L82.9983 38.5725L75.218 41.9606ZM83.8263 40.2886L76.102 43.6767L82.8543 56.2291L82.8623 56.0571L83.8263 40.2886ZM29.7123 56.2291L29.7043 56.0651L28.7403 40.2926L33.3045 42.3086L36.4646 43.6807L29.7123 56.2291ZM56.3133 39.2645L65.3216 26.9321H47.249L56.3133 39.2645ZM82.0542 60.6333L74.834 74.0298L70.8778 65.5655L68.6538 60.6333H82.0542ZM74.838 45.3767L68.6618 58.7692H82.0542L74.838 45.3767ZM58.0654 42.1006L73.3539 44.0127L67.0657 57.6372L58.0654 42.1006ZM67.0657 61.7653L59.9414 74.1058L58.0694 77.2979L73.3539 75.3858L67.0657 61.7653ZM47.085 58.7692L56.3133 42.8086L60.8655 50.7849L65.4816 58.7692H47.085ZM56.3133 76.5979L65.4816 60.6333H47.085L51.6971 68.6176L56.3133 76.5979ZM52.8212 45.0327L45.5649 57.6332L39.2767 44.0127L54.5052 42.1006L52.8212 45.0327ZM39.2727 75.3898L54.5012 77.3019L45.5569 61.7653L44.0049 65.0934L39.2727 75.3898ZM30.5764 58.7692L37.7926 45.3807L41.7488 54.037L43.9649 58.7692H30.5764ZM37.7926 74.0258L43.9689 60.6333H30.5764L37.7926 74.0258ZM82.8583 63.1614V63.2014L83.8263 79.1099L79.2621 77.0939L76.102 75.7218L82.8583 63.1614ZM43.0448 28.7801L29.5643 38.5765L37.3446 41.9606L43.0448 28.7801ZM36.4646 75.7258L28.7403 79.1139L29.7043 63.2094L29.7083 63.1614L36.4646 75.7258ZM65.3216 92.4744L56.3133 80.138L47.249 92.4744H65.3216ZM82.9983 80.826L69.5178 90.6224L75.218 77.4419L82.9983 80.826ZM45.5489 27.8641L39.3967 42.0686L54.5292 40.1605L45.5489 27.8641ZM22.2801 58.7692L27.0323 43.9367L27.9483 58.7692H22.2801ZM27.0363 75.4658L27.9523 60.6333H22.2801L27.0363 75.4658ZM54.5292 79.242L45.5489 91.5384L39.3967 77.3339L54.5292 79.242ZM67.0177 91.5384L73.1699 77.3339L58.0374 79.242L67.0177 91.5384Z" fill="#2E9AD0"/>
</svg>
