<svg width="120" height="120" viewBox="0 0 120 120" fill="none" xmlns="http://www.w3.org/2000/svg">
<circle cx="60" cy="60" r="60" fill="#EDF0F4"/>
<path fill-rule="evenodd" clip-rule="evenodd" d="M69.973 19.6824L91.9006 33.511H91.9023C96.722 36.3026 97.6638 42.5537 92.9439 45.5126L75.081 56.4148C73.6747 57.294 72.6291 58.6504 71.8154 60.1009L62.0726 76.772C61.6591 77.5094 60.8838 77.9643 60.0445 77.9621C59.2052 77.9598 58.4323 77.5007 58.0227 76.761L49.7342 62.5181C49.5555 62.1947 49.3628 61.8231 49.1566 61.4258C48.2571 59.6918 47.1027 57.4665 45.7452 56.6093L26.4851 44.8682C22.3598 42.2636 22.4477 37.0272 26.5916 34.4513L49.4976 20.0033C55.7491 16.1172 63.605 15.9941 69.973 19.6824ZM70.5919 51.7309L85.5621 42.3469C89.0278 40.1748 88.921 35.8289 85.3832 33.7796L67.4301 22.5952C62.7551 19.8873 56.9878 19.9776 52.3981 22.8304L34.2638 34.1035C31.2213 35.9944 31.2058 40.4554 34.2341 42.3667L49.5984 52.0719C50.8231 52.8458 51.8346 53.9191 52.5394 55.1925L58.5568 66.4739C58.8565 67.0188 59.4247 67.3575 60.042 67.3591C60.6593 67.3607 61.2292 67.0251 61.5317 66.4818L68.1123 54.3413C68.7093 53.2753 69.562 52.3777 70.5919 51.7309Z" fill="#000300"/>
<path d="M23 51.2377V80.3369C22.9993 80.8613 23.2752 81.3463 23.7241 81.61L58.1284 101.873C59.1071 102.446 60.3176 102.453 61.2994 102.016L96.0924 81.7448C96.544 81.3479 96.8223 80.8612 96.8223 80.3352V51.4381C96.8217 49.9917 95.6599 48.8196 94.2273 48.8202C92.7948 48.8208 91.6339 49.9937 91.6344 51.4401V77.3859C91.6347 77.9094 91.3595 78.3935 90.9117 78.6573L61.5684 96.0926C60.5847 96.6717 59.3684 96.6717 58.3846 96.0926L28.513 78.3904C28.0643 78.1268 27.7883 77.6422 27.7882 77.118V51.2377C27.7882 49.9027 26.7163 48.8205 25.3941 48.8205C24.0719 48.8205 23 49.9027 23 51.2377Z" fill="#000300"/>
</svg>
