<svg width="120" height="120" viewBox="0 0 120 120" fill="none" xmlns="http://www.w3.org/2000/svg">
<circle cx="60" cy="60" r="60" fill="#EDF0F4"/>
<path d="M70.6852 66.053L60.3775 72.0814L50.0698 66.053V53.9716L60.3775 47.9186L70.6852 53.9716V66.053Z" fill="#00B5D1"/>
<path fill-rule="evenodd" clip-rule="evenodd" d="M27 40.5123L60.5 21L94 40.5123V79.4877L60.5 99L27 79.4877V40.5123ZM44.1795 50.453V69.4486L60.3773 78.9218L76.5751 69.4486V50.453L60.3773 40.9798L44.1795 50.453ZM44.1795 80.3981V73.8038L66.0956 86.6479L60.5 89.9205L44.1795 80.3981ZM69.826 84.4827L86.1465 74.9603V45.0397L60.5245 30.1041L34.878 45.0397V74.9603L40.5227 78.2574V71.5647V49.1735V48.3369L60.4018 36.6984L80.281 48.3369V71.5647L64.0341 81.0871L69.826 84.4827Z" fill="#0D285A"/>
</svg>
