<svg width="120" height="120" viewBox="0 0 120 120" fill="none" xmlns="http://www.w3.org/2000/svg">
<circle cx="60" cy="60" r="60" fill="#3555F9"/>
<path fill-rule="evenodd" clip-rule="evenodd" d="M63.5042 25.1119C60.2988 24.9512 57.056 24.884 53.8878 25.4744C52.8746 25.6453 51.8753 25.883 50.8779 26.1202C50.7195 26.1579 50.5611 26.1956 50.4028 26.233C37.9349 29.4653 27.6476 39.8389 24.7776 52.2602C23.6878 56.6777 23.485 61.2684 24.1812 65.7652C24.2557 66.2921 24.3117 66.89 23.9091 67.3122C22.0343 69.7487 20.3607 72.357 19.1382 75.1746C18.5679 76.5385 19.8575 78.0706 21.2776 78.0706C22.1245 78.0122 22.8773 77.509 23.2568 76.7478L23.3295 76.6097C24.0991 75.1459 24.8693 73.6808 25.7728 72.286C26.0265 72.8371 26.2658 73.3957 26.5052 73.9546C27.0709 75.2756 27.6372 76.5977 28.3968 77.824C33.3392 86.4412 42.0313 92.9358 51.8564 95.0696C58.6327 96.6764 65.8487 96.157 72.4013 93.8588C78.0896 91.8136 83.1829 88.3854 87.2248 83.8814C94.2359 76.176 97.5271 65.2906 95.7976 55.0628C95.792 54.9999 95.7839 54.9356 95.7757 54.8705C95.7354 54.5491 95.6931 54.2116 95.9318 53.9567C97.4861 51.8342 98.9882 49.6593 100.151 47.3051C100.23 47.1391 100.318 46.9733 100.406 46.8065C100.731 46.1919 101.063 45.5628 100.99 44.8575C100.848 43.7008 99.8228 42.861 98.6639 42.9517C97.8253 42.9143 97.1059 43.4711 96.763 44.1923C95.9653 45.7244 95.1453 47.249 94.2284 48.7139L94.1717 48.5772C93.2029 46.2418 92.2286 43.8935 90.7918 41.7932C86.8497 35.5643 81.0952 30.699 74.306 27.8548C70.9067 26.3227 67.2017 25.5454 63.5042 25.1119ZM30.3983 49.1735C33.1565 42.294 38.4754 36.4682 45.0839 32.9855C51.9012 29.4168 60.0751 28.3293 67.5707 30.2389C78.8235 32.8323 88.2796 42.01 90.8515 53.1608C84.1349 61.0119 74.388 65.7764 64.3802 68.0932C64.0922 68.1534 63.8044 68.2145 63.5166 68.2755C61.8563 68.6278 60.197 68.9799 58.5134 69.1582C57.8072 69.2257 57.102 69.3075 56.397 69.3892C54.3704 69.624 52.3447 69.8587 50.2984 69.7561C51.4053 68.6365 52.5368 67.54 53.6683 66.4435C55.1087 65.0477 56.5492 63.6517 57.9394 62.2077C57.2266 61.3439 56.4149 60.5704 55.6039 59.7976C55.3589 59.5641 55.114 59.3307 54.8718 59.0949C53.2247 60.6514 51.6152 62.247 50.0059 63.8424C48.8874 64.9511 47.7691 66.0598 46.6382 67.1553C45.9048 67.9093 45.1303 68.6228 44.3557 69.3363C43.4336 70.1859 42.5114 71.0354 41.6585 71.9534C42.0746 72.4904 42.536 72.9905 43.0376 73.4481C44.5623 74.939 46.0817 76.4352 47.6009 77.931C49.6915 79.9896 51.7815 82.0477 53.8841 84.0907C54.1863 84.3809 54.4817 84.6766 54.7767 84.9718C55.4273 85.6231 56.0758 86.2723 56.7914 86.856C57.0668 86.5858 57.3464 86.3191 57.6262 86.0523C58.399 85.3151 59.173 84.5767 59.8627 83.7619C58.1897 82.1793 56.5499 80.5652 54.9099 78.9508C54.1566 78.2093 53.4033 77.4677 52.6466 76.7291C52.4536 76.5356 52.2578 76.3448 52.0622 76.154C51.4305 75.5383 50.7999 74.9235 50.2649 74.2217C58.2972 73.9937 66.3184 72.5438 73.8475 69.7412C79.6411 67.6715 85.0038 64.5475 89.6662 60.5261C89.8554 60.355 90.0423 60.1816 90.2293 60.0082C90.7199 59.553 91.2106 59.0978 91.7423 58.6838C92.3424 67.8728 88.4436 77.2336 81.4922 83.377C76.6337 87.7549 70.5561 90.5388 64.0745 91.3552C59.4378 92.0016 54.6817 91.471 50.2239 90.0958C42.6015 87.6744 35.9669 82.312 32.1278 75.3726C30.9649 73.1828 29.9026 70.9183 29.3398 68.4968C29.2652 68.1455 29.2242 67.7308 29.5075 67.4505C34.2673 62.032 40.5105 57.9813 47.2793 55.4402C47.5399 55.3526 47.8004 55.2645 48.0611 55.1765C51.0334 54.1725 54.0176 53.1646 57.1119 52.6114C61.2791 51.7819 65.5133 51.1765 69.7699 51.1167C68.4314 52.6355 66.952 54.0225 65.4726 55.4095C64.3276 56.483 63.1826 57.5566 62.1028 58.6913C62.669 59.5271 63.4125 60.216 64.1543 60.9032C64.4771 61.2023 64.7996 61.5011 65.107 61.8116C65.4779 61.5291 65.8337 61.2272 66.173 60.9073C68.1857 58.895 70.2246 56.9079 72.2634 54.9208C74.3023 52.9337 76.3411 50.9467 78.3538 48.9344C76.0838 46.6001 73.7491 44.3253 71.4137 42.0498C69.8646 40.5404 68.3153 39.0308 66.7843 37.5033C66.2881 37.0325 65.8037 36.5498 65.3193 36.0672C64.6465 35.3969 63.9737 34.7266 63.2694 34.0878C62.2034 35.0893 61.1374 36.0908 60.1534 37.1745C61.7133 38.7963 63.3393 40.3555 64.9654 41.9147C66.5914 43.4739 68.2174 45.0331 69.7773 46.6549C60.5485 47.1033 51.2601 48.7587 42.8252 52.604C38.2853 54.6518 33.943 57.2227 30.2343 60.541C29.6036 61.1493 28.9364 61.7183 28.2365 62.245C27.9905 57.7982 28.8031 53.3289 30.3983 49.1735Z" fill="white"/>
</svg>
