<svg width="120" height="120" viewBox="0 0 120 120" fill="none" xmlns="http://www.w3.org/2000/svg">
<circle cx="60" cy="60" r="60" fill="#EDF0F4"/>
<path d="M84.0409 42.5202C82.6601 34.7706 75.9902 29.444 66.1135 28.2034C64.5123 28.0023 61.2114 27.9363 59.4032 28.0692C50.6674 28.7113 42.3094 32.3701 36.7852 37.9705C32.7189 42.0928 30.9617 47.0142 32.6217 49.6315C33.353 50.7848 34.4257 51.2697 36.2465 51.2697C37.4405 51.2697 38.3118 50.9859 39.2191 50.3015C40.4316 49.3868 41.1621 48.3657 43.5466 44.2525C46.2352 39.6144 49.0288 37.2701 53.6611 35.7643C56.5042 34.8402 59.7823 34.4713 63.0879 34.7036C66.0515 34.9118 67.6574 35.2946 69.5702 36.2487C70.8102 36.8672 71.4439 37.3192 72.3347 38.2204C74.8393 40.754 75.5197 44.757 74.1412 48.8489C73.2029 51.634 71.5173 54.2223 69.1613 56.495C65.5701 59.9592 60.9705 61.9403 56.8319 61.805L55.5652 61.7635L56.8108 59.0912C59.5076 53.3048 60.9905 49.4214 61.1219 47.8C61.1876 46.9903 61.1555 46.7812 60.8699 46.1573C60.6013 45.571 60.4385 45.392 59.9639 45.1622C58.6831 44.5422 57.54 44.9647 55.809 46.6975C54.4368 48.0711 53.6005 49.1239 52.0732 51.4001C49.9727 54.5306 48.3478 57.3338 43.7235 65.8046C42.471 68.0989 40.0024 72.6158 38.2378 75.8422C34.2853 83.0686 33.8512 83.9295 33.5977 85.044C33.1868 86.8507 33.403 88.6349 34.1599 89.6796C35.3791 91.3626 38.0781 91.7639 40.0673 90.5577C40.9694 90.0108 42.3714 88.534 43.2925 87.1605C44.8291 84.8695 46.7807 80.2263 49.6664 71.9966C50.1744 70.548 50.859 68.828 50.9758 68.7072C51.0268 68.6545 51.4076 69.6224 51.8221 70.8581C54.6577 79.3093 58.1908 85.2488 62.1398 88.2034C64.2229 89.762 66.1314 90.4093 68.6176 90.401C73.9352 90.3827 79.6953 87.6049 85.0031 82.4993C86.8758 80.6978 87.8386 78.8626 87.727 77.307C87.5749 75.1868 85.2219 74.6721 83.5106 76.3847C83.2282 76.6675 82.5479 77.3984 81.999 78.0095C80.7289 79.423 79.0995 80.6499 77.1962 81.6257C74.4825 83.0167 72.8787 83.388 69.9092 83.3126C68.2676 83.2709 67.9249 83.2244 67.4165 82.9747C64.6941 81.6378 61.6533 76.7681 60.0373 71.1573C59.7883 70.2925 59.5509 69.3414 59.51 69.0435L59.4356 68.5021L60.201 68.3531C65.1528 67.3894 71.5085 64.4035 75.6971 61.0731C77.0503 59.9972 79.1984 57.8649 80.123 56.6796C82.1619 54.0656 83.52 51.232 84.0349 48.5181C84.2967 47.1384 84.2998 43.9733 84.0409 42.5202Z" fill="#681BFF"/>
</svg>
