<svg width="120" height="120" viewBox="0 0 120 120" fill="none" xmlns="http://www.w3.org/2000/svg">
<circle cx="60" cy="60" r="60" fill="#CC1E46"/>
<path fill-rule="evenodd" clip-rule="evenodd" d="M44.6332 34.3371C50.8847 29.5877 58.3303 26.7094 66.1215 26.0301C66.9133 25.8678 67.7724 26.3737 67.7462 27.2573C67.7991 28.7551 67.7883 30.2528 67.7775 31.7506C67.7731 32.3673 67.7686 32.984 67.7686 33.6008C67.8209 34.2578 67.4773 35.1111 66.7303 35.13C59.8352 35.9003 53.2838 38.7473 47.5915 42.6818C47.0983 42.9622 47.1578 43.579 47.2056 44.0754C47.21 44.1205 47.2142 44.1645 47.218 44.2072C47.4705 46.5728 47.4525 48.9492 47.4345 51.3255V51.3256C47.4243 52.674 47.4141 54.0223 47.4533 55.3687C57.406 55.397 67.3608 55.3929 77.3167 55.3887C85.9452 55.385 94.5745 55.3814 103.204 55.3989C104.089 55.3234 105.023 55.8332 104.952 56.8338C105.012 60.8997 105.002 64.9656 104.993 69.0306V69.031C104.988 71.289 104.983 73.5466 104.989 75.8038C105.004 79.2398 104.28 82.7967 102.222 85.606C98.9719 90.02 93.2572 92.6669 87.8263 91.6927C83.9791 91.1112 80.6549 88.6984 78.3241 85.6362C71.9798 90.46 64.4094 93.3607 56.496 93.9998C55.693 94.0111 55.0916 93.2144 55.2149 92.4365C55.225 91.578 55.2205 90.7183 55.2161 89.8583C55.209 88.502 55.2019 87.1451 55.2522 85.791C55.3945 84.8994 56.2562 84.8184 57.0335 84.7453H57.0335C57.2767 84.7224 57.5116 84.7003 57.7137 84.6545C64.2277 83.6274 70.4579 80.8672 75.7768 76.9517C75.5026 72.8434 75.4067 68.725 75.4892 64.6083C64.5836 64.5376 53.6756 64.5471 42.7679 64.5565H42.7665H42.7664C35.0251 64.5631 27.2841 64.5698 19.5444 64.5479C18.7226 64.6423 17.9308 64.0193 18.0092 63.1395C17.9943 56.4826 17.998 49.822 18.0167 43.1651C18.054 39.6837 19.141 36.1646 21.4231 33.5101C24.4299 30.0514 28.9644 27.8425 33.566 28.1144C37.9735 28.2919 42.0186 30.8255 44.6332 34.3371ZM25.5243 44.3129C25.5168 48.2134 25.5131 52.1177 25.5318 56.0257C26.9003 56.0246 28.2681 56.0298 29.6356 56.035H29.636H29.636C32.8741 56.0473 36.1101 56.0596 39.348 55.988C39.3499 55.0574 39.3541 54.1271 39.3584 53.1968V53.1967C39.3716 50.3223 39.3849 47.4489 39.3256 44.5735C39.2547 40.926 35.9939 37.7014 32.3708 37.7769C28.8336 37.6296 25.6102 40.7598 25.5243 44.3092V44.3129ZM84.1807 70.9641C84.1789 68.7383 84.1771 66.5121 84.1995 64.2874V64.2836C84.9667 64.2823 85.7339 64.2807 86.5011 64.2792C90.3356 64.2713 94.1701 64.2634 98.0045 64.2949C98.0293 67.0379 98.0257 69.7768 98.0221 72.5176C98.0208 73.4969 98.0195 74.4764 98.0195 75.4564C98.0494 78.2883 96.2901 81.1051 93.627 82.102C90.7434 83.2309 87.2175 82.1133 85.447 79.557C84.5992 78.3487 84.1547 76.8988 84.1771 75.4149C84.1831 73.9317 84.1819 72.448 84.1807 70.9641Z" fill="white"/>
</svg>
