<svg width="120" height="120" viewBox="0 0 120 120" fill="none" xmlns="http://www.w3.org/2000/svg">
<circle cx="60" cy="60" r="60" fill="#EDF0F4"/>
<path d="M71.2337 54.3223L53.5181 66.8334V61.929C53.2513 61.7289 52.297 61.4486 50.6155 61.929C48.5137 62.5296 41.0071 65.332 38.5049 74.4401C36.5031 81.7265 39.9395 88.8862 41.9079 91.5551H87.448C85.4797 86.9511 81.3026 77.3226 80.3417 75.6411C79.3809 73.9596 79.9414 72.6719 80.3417 72.2381C83.5111 69.7025 89.1695 61.2885 86.4471 47.9167C83.7247 34.5449 71.5005 29.734 65.7289 29H33V54.9229C34.5013 53.6551 38.4848 50.8192 42.4083 49.6182C46.3318 48.4171 51.6498 48.2503 53.8184 48.317V42.9123L71.2337 54.3223Z" fill="url(#paint0_linear)"/>
<defs>
<linearGradient id="paint0_linear" x1="33" y1="29" x2="33" y2="91.5551" gradientUnits="userSpaceOnUse">
<stop stop-color="#E34D67"/>
<stop offset="1" stop-color="#7746F4"/>
</linearGradient>
</defs>
</svg>
