<svg width="120" height="120" viewBox="0 0 120 120" fill="none" xmlns="http://www.w3.org/2000/svg">
<circle cx="60" cy="60" r="60" fill="#149DD9"/>
<path fill-rule="evenodd" clip-rule="evenodd" d="M51.0462 26.2498H56.8906C56.9991 26.2417 57.0853 26.1555 57.0933 26.0471V20.2027C57.0853 20.0943 56.9991 20.0081 56.8906 20H51.0462C50.9378 20.0081 50.8516 20.0943 50.8435 20.2027V26.0471C50.8416 26.1014 50.8624 26.1541 50.9008 26.1925C50.9392 26.231 50.9919 26.2517 51.0462 26.2498ZM56.8906 36.9927H51.0462C50.9378 36.9846 50.8516 36.8984 50.8435 36.79V30.9456C50.8516 30.8371 50.9378 30.7509 51.0462 30.7429H56.8906C56.9991 30.7509 57.0853 30.8371 57.0933 30.9456V36.79C57.0853 36.8984 56.9991 36.9846 56.8906 36.9927ZM56.8906 47.7018H38.8169C38.7626 47.7037 38.7099 47.6829 38.6715 47.6445C38.6331 47.6061 38.6123 47.5534 38.6142 47.4991V41.6547C38.6223 41.5462 38.7085 41.46 38.8169 41.452H56.8906C56.9991 41.46 57.0853 41.5462 57.0933 41.6547V47.4991C57.0853 47.6075 56.9991 47.6937 56.8906 47.7018ZM26.0471 62.9039H20.2027C20.0943 62.912 20.0081 62.9982 20 63.1066V68.951C20.0081 69.0595 20.0943 69.1457 20.2027 69.1537H26.0471C26.1555 69.1457 26.2417 69.0595 26.2498 68.951V63.1066C26.2417 62.9982 26.1555 62.912 26.0471 62.9039ZM41.6547 62.9039H47.4991C47.6075 62.912 47.6937 62.9982 47.7018 63.1066V81.1803C47.6937 81.2888 47.6075 81.375 47.4991 81.383H41.6547C41.5462 81.375 41.46 81.2888 41.452 81.1803V63.1066C41.46 62.9982 41.5462 62.912 41.6547 62.9039ZM83.2411 57.0595H89.0855C89.1939 57.0515 89.2801 56.9653 89.2882 56.8568V51.0125C89.2801 50.904 89.1939 50.8178 89.0855 50.8098H83.2411C83.1327 50.8178 83.0465 50.904 83.0384 51.0125V56.8568C83.0304 56.9127 83.0491 56.969 83.089 57.0089C83.1289 57.0488 83.1852 57.0676 83.2411 57.0595ZM78.3426 57.0595H72.4982C72.4439 57.0615 72.3912 57.0407 72.3528 57.0023C72.3143 56.9638 72.2936 56.9112 72.2955 56.8568V38.7831C72.3036 38.6747 72.3898 38.5885 72.4982 38.5804H78.3426C78.451 38.5885 78.5372 38.6747 78.5453 38.7831V56.8568C78.5372 56.9653 78.451 57.0515 78.3426 57.0595ZM30.9456 62.9039H36.79C36.8934 62.9222 36.9744 63.0032 36.9927 63.1066V68.951C36.9846 69.0595 36.8984 69.1457 36.79 69.1537H30.9456C30.8371 69.1457 30.7509 69.0595 30.7429 68.951V63.1066C30.7509 62.9982 30.8371 62.912 30.9456 62.9039ZM81.2141 72.2955H63.1404C63.032 72.3036 62.9458 72.3898 62.9377 72.4982V78.3426C62.9458 78.451 63.032 78.5372 63.1404 78.5453H81.2141C81.3226 78.5372 81.4088 78.451 81.4168 78.3426V72.4982C81.4102 72.3891 81.3232 72.3021 81.2141 72.2955ZM67.9375 61.654H93.5448C93.5991 61.6521 93.6518 61.6728 93.6902 61.7113C93.7286 61.7497 93.7494 61.8024 93.7475 61.8567V67.5322C93.7394 67.6406 93.6532 67.7268 93.5448 67.7349H67.9375C67.8291 67.7268 67.7429 67.6406 67.7349 67.5322V61.8567C67.7429 61.7482 67.8291 61.662 67.9375 61.654ZM68.951 83.0046H63.1066C62.9982 83.0127 62.912 83.0989 62.9039 83.2073V89.0517C62.912 89.1601 62.9982 89.2463 63.1066 89.2544H68.951C69.0595 89.2463 69.1457 89.1601 69.1537 89.0517V83.2073C69.1556 83.153 69.1349 83.1003 69.0965 83.0619C69.058 83.0234 69.0053 83.0027 68.951 83.0046ZM52.0597 52.2624C52.1681 52.2705 52.2543 52.3567 52.2624 52.4651V58.1406C52.2543 58.249 52.1681 58.3352 52.0597 58.3433H26.4525C26.3441 58.3352 26.2579 58.249 26.2498 58.1406V52.4651C26.2579 52.3567 26.3441 52.2705 26.4525 52.2624H52.0597ZM99.7946 50.8435H93.9502C93.8418 50.8516 93.7555 50.9378 93.7475 51.0462V56.8906C93.7555 56.9991 93.8418 57.0853 93.9502 57.0933H99.7946C99.903 57.0853 99.9892 56.9991 99.9973 56.8906V51.0462C100.005 50.9904 99.9865 50.934 99.9466 50.8942C99.9068 50.8543 99.8504 50.8355 99.7946 50.8435ZM52.4651 67.7349H58.1406C58.249 67.7429 58.3352 67.8291 58.3433 67.9375V93.5448C58.3352 93.6532 58.249 93.7394 58.1406 93.7475H52.4651C52.3567 93.7394 52.2705 93.6532 52.2624 93.5448V67.9375C52.2705 67.8291 52.3567 67.7429 52.4651 67.7349ZM67.7349 52.0935V26.4525C67.7268 26.3441 67.6406 26.2579 67.5322 26.2498H61.8567C61.7482 26.2579 61.662 26.3441 61.654 26.4525V52.0935C61.662 52.2019 61.7482 52.2881 61.8567 52.2962H67.5322C67.6406 52.2881 67.7268 52.2019 67.7349 52.0935ZM63.1066 93.7475H68.951C69.0069 93.7395 69.0632 93.7582 69.1031 93.7981C69.143 93.838 69.1617 93.8943 69.1537 93.9502V99.7946C69.1457 99.903 69.0595 99.9892 68.951 99.9973H63.1066C62.9982 99.9892 62.912 99.903 62.9039 99.7946V93.9502C62.912 93.8417 62.9982 93.7555 63.1066 93.7475Z" fill="white"/>
</svg>
