<svg width="120" height="120" viewBox="0 0 120 120" fill="none" xmlns="http://www.w3.org/2000/svg">
<circle cx="60" cy="60" r="60" fill="#FFD800"/>
<path fill-rule="evenodd" clip-rule="evenodd" d="M52.6864 30.5024C52.6864 24.1511 47.608 19 41.3451 19C35.0821 19 30 24.1511 30 30.5024C30 36.8536 35.0784 42.001 41.3451 42.001C47.6043 42.001 52.6864 36.8536 52.6864 30.5024ZM64.4537 33.6966C64.8722 33.4842 65.0852 33.4842 65.713 33.4842C72.0171 33.4842 77.0581 38.8067 77.0581 45.199C76.8488 51.1626 72.6486 56.0603 66.9723 56.6976H65.713C63.6129 56.6976 61.5128 56.0603 59.6219 54.9943C59.0083 54.5633 58.2722 54.3399 57.5218 54.3569C56.6811 54.3569 55.8403 54.5694 55.2125 54.9943C53.7402 55.8478 53.1086 57.3387 53.1086 59.0421V60.9579C52.6901 66.4929 48.2806 70.7532 42.8174 71.3943H41.7673C35.467 71.3943 30.4223 66.0717 30.4223 59.6795C30.4223 53.932 34.6262 49.2431 40.295 48.3933H41.5581C43.6582 48.3933 45.7583 49.0306 47.6491 50.0966C48.2628 50.5277 48.9989 50.751 49.7492 50.734C50.59 50.734 51.4308 50.5215 52.0586 50.0966C53.5309 49.2431 54.1587 47.7522 54.1587 46.0488C53.7402 39.8727 58.3626 34.334 64.4537 33.6966ZM88.6049 48.3933C88.8179 48.1808 89.2402 48.1808 89.6549 48.1808C95.959 48.1808 101 53.5034 101 59.8956C101 65.8593 96.5905 70.5445 90.918 71.6067H89.6549C87.5548 71.6067 85.4547 70.9694 83.5639 69.9034C82.9502 69.4723 82.2141 69.249 81.4638 69.266C80.623 69.266 79.7822 69.4785 79.1544 69.9034C77.6821 70.7569 77.0543 72.2478 77.0543 73.9512V75.867C76.5978 81.2907 72.3857 85.6492 66.9686 86.3034H65.7093C63.6092 86.3034 61.5091 85.666 59.6182 84.6C58.7774 84.1751 58.1496 83.9626 57.3088 83.9626C56.4681 83.9626 55.6273 84.1751 54.9957 84.6C53.5272 85.4535 52.8956 86.9445 52.8956 88.6478V90.5636C52.4771 96.1024 48.0639 100.363 42.6044 101H41.5543C35.2503 101 30.2093 95.6737 30.2093 89.2852C30.4185 83.3215 34.6187 78.4239 40.2913 77.7828H41.5543C43.6544 77.7828 45.7545 78.4239 47.6454 79.4899C48.259 79.9209 48.9951 80.1443 49.7455 80.1273C50.5863 80.1273 51.4271 79.9148 52.0548 79.4899C53.5272 78.6364 54.1549 77.1455 54.1549 75.4421C53.7364 69.266 58.1496 63.7273 64.2407 63.0899H65.5C67.6001 63.0899 69.7002 63.7273 71.5911 64.7933C72.4318 65.2182 73.0634 65.4306 73.9042 65.4306C74.7412 65.4306 75.5857 65.2182 76.2135 64.7933C77.6821 63.9397 78.3136 62.4488 78.3136 60.7455C77.8951 54.5694 82.5138 49.0306 88.6049 48.3933Z" fill="white"/>
</svg>
