<svg width="120" height="120" viewBox="0 0 120 120" fill="none" xmlns="http://www.w3.org/2000/svg">
<circle cx="60" cy="60" r="60" fill="#EDF0F4"/>
<path fill-rule="evenodd" clip-rule="evenodd" d="M87.8906 38.8906C82.5859 32.1094 74.8203 27.7891 66.2344 27.7891C49.6094 27.7891 37.4141 43.2656 37.4141 60C37.4141 71.6484 45.1797 80.3984 53.7656 80.3984C54.5859 80.3984 55.3516 80.3438 56.1719 80.1797C50.375 75.9688 46.7109 68.3125 46.7109 60C46.7109 46.7656 55.6797 36.4297 66.2344 36.4297C77.7734 36.4297 85.7578 47.8594 85.7578 60C85.7031 68.9688 82.5312 77.8828 76.8984 84.4453C71.9766 90.1875 65.6328 93.7969 58.6328 94.9453C58.6328 94.9453 59.2344 95 60 95C79.3047 95 95 79.3047 95 60C95 52.0703 92.375 44.7422 87.8906 38.8906ZM82.5859 60C82.5859 48.3516 74.8203 39.6016 66.2344 39.6016C65.4141 39.6016 64.6484 39.6562 63.8281 39.8203C69.625 44.0312 73.2891 51.6875 73.2891 60C73.2891 73.2344 64.3203 83.5703 53.7656 83.5703C42.2266 83.5703 34.2422 72.1406 34.2422 60C34.2969 51.0312 37.4688 42.1172 43.1016 35.5547C48.0234 29.8125 54.3672 26.2031 61.3672 25.0547C61.3672 25.0547 60.7656 25 60 25C40.6953 25 25 40.6953 25 60C25 67.9297 27.625 75.2578 32.1094 81.1094C37.4141 87.8906 45.1797 92.1562 53.7656 92.1562C70.3906 92.2109 82.5859 76.7344 82.5859 60Z" fill="#0089DB"/>
</svg>
