<svg width="120" height="120" viewBox="0 0 120 120" fill="none" xmlns="http://www.w3.org/2000/svg">
<circle cx="60" cy="60" r="60" fill="#3D58B0"/>
<path fill-rule="evenodd" clip-rule="evenodd" d="M15 60.0038C15 35.1852 35.1852 15 60.0038 15C84.8185 15 105.004 35.1852 105 60.0038C105 84.8185 84.8223 105 60.0038 105C35.1852 105 15 84.8223 15 60.0038ZM87.5063 32.5001C80.2134 25.2065 70.318 21.1147 60.0038 21.1277C49.6892 21.1147 39.7934 25.2064 32.4999 32.4999C25.2064 39.7934 21.1147 49.6892 21.1277 60.0038C21.1147 70.318 25.2065 80.2134 32.5001 87.5063C39.7937 94.7992 49.6895 98.8901 60.0038 98.8761C70.3173 98.8891 80.2122 94.7978 87.505 87.505C94.7978 80.2122 98.8891 70.3173 98.8761 60.0038C98.8901 49.6895 94.7992 39.7937 87.5063 32.5001Z" fill="white"/>
<path fill-rule="evenodd" clip-rule="evenodd" d="M43.2842 76.6145V43.3855H76.7197V76.6145H43.2842ZM71.2717 48.8298H48.7322V71.1702H71.2717V48.8298Z" fill="white"/>
</svg>
