<svg width="120" height="120" viewBox="0 0 120 120" fill="none" xmlns="http://www.w3.org/2000/svg">
<circle cx="60" cy="60" r="60" fill="#EDF0F4"/>
<path fill-rule="evenodd" clip-rule="evenodd" d="M72.3342 43.6053C73.5518 39.958 76.5469 36.9616 79.4486 34.527L79.4478 34.5248C80.106 34.0534 80.5723 34.245 80.4738 34.8047C80.4271 35.3208 80.3339 35.812 80.2406 36.3031C80.1473 36.7943 80.0541 37.2853 80.0075 37.8011C79.8208 39.2059 79.8208 40.5169 79.9141 41.9212C80.0103 43.6985 80.3848 45.3826 81.0378 46.9734C81.6898 48.4708 82.4418 49.9682 83.188 51.3725C85.064 55.3053 86.9343 59.233 88.7119 63.1658C88.9132 63.6357 89.1146 64.0999 89.3147 64.5611C89.9531 66.0329 90.5783 67.4741 91.1464 68.9693C91.8926 71.0256 92.2658 72.9954 91.6128 75.1457C90.3018 79.4517 86.7473 82.6324 83.4727 85.4416C83.3882 85.5119 83.2803 85.6101 83.1592 85.7202C82.4776 86.3398 81.3785 87.3391 81.6951 85.9079C81.9044 84.7773 82.1889 83.6663 82.4729 82.5573C82.8241 81.1863 83.1744 79.8185 83.3806 78.4206C83.7931 75.2715 82.304 71.9807 80.9828 69.0607C80.8104 68.6799 80.6409 68.3053 80.4789 67.9382C79.3907 65.473 78.1956 63.0798 77.0032 60.6919C76.2481 59.1797 75.494 57.6697 74.7688 56.1448C72.8939 52.3102 70.9299 47.9111 72.3342 43.6053ZM29.4768 43.6053C30.6946 39.9521 33.6894 36.9573 36.5912 34.527L36.592 34.5264C37.245 34.055 37.7113 34.2466 37.6129 34.8012C37.5662 35.3164 37.473 35.807 37.3798 36.2976C37.2865 36.7889 37.1932 37.2801 37.1466 37.796C36.9601 39.2009 36.9601 40.5118 37.0532 41.9161C37.1458 43.6934 37.5241 45.3772 38.1769 46.968C38.8291 48.4657 39.5812 49.9631 40.3273 51.3674C42.203 55.3002 44.0737 59.2279 45.8509 63.1608C46.0517 63.6293 46.2526 64.0923 46.4522 64.5523C47.0912 66.0252 47.7169 67.4676 48.2855 68.9642C49.0317 71.0205 49.4046 72.9901 48.7518 75.1406C47.4409 79.4466 43.8861 82.6274 40.6115 85.4365C40.527 85.5069 40.4191 85.605 40.2979 85.7151C39.6164 86.3347 38.5173 87.334 38.8342 85.9028C39.0432 84.7697 39.3281 83.6563 39.6126 82.5449C39.9628 81.1764 40.3123 79.8109 40.5181 78.4155C40.9306 75.2663 39.4414 71.9751 38.1201 69.0551C37.9478 68.6743 37.7784 68.2998 37.6164 67.9328C36.5206 65.4538 35.3185 63.0437 34.1193 60.6394C33.3734 59.144 32.6287 57.6509 31.9114 56.1448C30.0365 52.3102 28.0728 47.9111 29.4768 43.6053Z" fill="#165098"/>
<path d="M57.3649 27.4126C54.0902 30.1292 50.5354 33.4025 48.5666 37.2368C47.1623 39.9521 46.9758 42.7607 47.722 45.564C48.6597 48.932 49.9656 52.3 51.3699 55.5747C54.0848 61.8445 57.6396 67.7413 60.2615 74.1044C61.1979 76.348 62.2252 78.8765 62.4117 81.4052C62.599 84.4934 61.5671 87.7684 60.7278 90.6701C60.5405 91.5147 59.9816 92.6338 60.075 93.4792C60.1681 94.132 60.5413 93.8522 60.9194 93.5726C62.5331 92.3307 64.065 90.9859 65.5052 89.5464C69.3396 85.8985 73.7387 81.0277 73.3658 75.3228C73.1785 72.9807 72.0548 70.7369 71.1222 68.5867C70.0911 66.0633 68.9717 63.6329 67.8473 61.1975C65.7902 56.6119 63.6346 52.1194 61.391 47.627C60.6449 46.0362 59.7055 44.5388 59.1475 42.948C58.3028 40.7975 57.9296 38.5486 57.8365 36.305C57.7432 34.6211 57.8365 32.8439 58.0238 31.1597C58.1169 30.0361 58.4901 29.0092 58.4901 27.8848C58.77 26.8537 58.2103 26.7611 57.3665 27.4134L57.3649 27.4126Z" fill="#5C9DD5"/>
</svg>
