<svg width="120" height="120" viewBox="0 0 120 120" fill="none" xmlns="http://www.w3.org/2000/svg">
<circle cx="60" cy="60" r="60" fill="#E7EFF3"/>
<path fill-rule="evenodd" clip-rule="evenodd" d="M40.3543 48.1681C44.5798 41.3267 52.1343 37.2593 60.1719 37.498C72.579 37.5871 82.4913 47.8558 82.4913 60.2629V82.4932H58.8354C50.7978 82.2545 43.4981 77.7459 39.686 70.6657C35.874 63.5856 36.1287 55.0095 40.3543 48.1681ZM73.5034 73.4942V59.9956H73.4922C73.4922 52.5406 67.4487 46.4971 59.9937 46.4971C52.5386 46.4971 46.4951 52.5406 46.4951 59.9956C46.4951 67.4507 52.5386 73.4942 59.9937 73.4942H73.5034Z" fill="#20EE82"/>
<path d="M91.8136 28.1805C76.6963 13.0624 53.0282 10.6695 35.1909 22.4558C35.6972 23.0156 36.1312 23.6368 36.4828 24.3047C53.4304 13.1805 75.8569 15.4678 90.2098 29.7843C106.871 46.4236 106.871 73.5321 90.2098 90.1937C73.5482 106.855 46.4397 106.855 29.7781 90.1937C15.4688 75.8352 13.1908 53.4092 24.3208 36.4667C23.6524 36.1159 23.0311 35.6818 22.4719 35.1748C8.76177 55.8904 14.453 83.8164 35.1686 97.5265C55.8842 111.237 83.8102 105.545 97.5204 84.8299C109.326 66.991 106.94 43.3063 91.8136 28.1805Z" fill="#7F8C8D"/>
<path d="M25.3456 25.3293C27.0985 23.5681 29.9473 23.5613 31.7086 25.3141C33.4699 27.067 33.4769 29.9157 31.7242 31.6772C29.9715 33.4386 27.1227 33.4458 25.3612 31.6932L25.3456 31.6776C23.5983 29.9222 23.5983 27.0847 25.3456 25.3293Z" fill="#20EE82"/>
</svg>
