<svg width="120" height="120" viewBox="0 0 120 120" fill="none" xmlns="http://www.w3.org/2000/svg">
<path d="M118.161 74.5731C110.117 106.696 77.5709 126.223 45.4505 118.197C13.3301 110.171 -6.21154 77.6286 1.7936 45.4958C9.79874 13.363 42.322 -6.20259 74.4519 1.78542C89.934 5.58003 103.26 15.4028 111.467 29.0708C119.675 42.7388 122.084 59.1197 118.161 74.5731Z" fill="#EC672F"/>
<path fill-rule="evenodd" clip-rule="evenodd" d="M57.6338 55.1819H36.2719C35.9359 55.2163 35.6017 55.1013 35.3574 54.8671C35.1131 54.6329 34.9831 54.3029 35.0018 53.9643V51.1811C35.008 50.4792 35.573 49.9118 36.2719 49.9055H57.3451V20.3344H36.3297C35.6308 20.3281 35.0658 19.7607 35.0595 19.0588V16.2756C35.0646 15.5955 35.5957 15.0367 36.2719 15H83.7298C84.4287 15.0063 84.9937 15.5737 85 16.2756V19.0008C84.9937 19.7027 84.4287 20.2701 83.7298 20.2764H62.0216V49.8475H83.7298C84.4287 49.8538 84.9937 50.4212 85 51.1231V53.9063C84.9937 54.6082 84.4287 55.1756 83.7298 55.1819H62.5989V72.1128C65.9008 73.2593 68.1226 76.3739 68.1415 79.8824C68.1415 84.3656 64.5227 88 60.0586 88C55.5946 88 51.9758 84.3656 51.9758 79.8824C52.008 76.3421 54.2841 73.2165 57.6338 72.1128V55.1819ZM60.1164 83.8832C62.2208 83.8832 63.9268 82.1699 63.9268 80.0564C63.9362 79.0386 63.5377 78.0598 62.8211 77.3401C62.1044 76.6203 61.1298 76.2202 60.1164 76.2295C58.0119 76.2295 56.3059 77.9429 56.3059 80.0564C56.3059 82.1699 58.0119 83.8832 60.1164 83.8832Z" fill="white"/>
<path d="M78.6017 62.3487L78.4862 62.2332C78.1615 61.9281 77.6554 61.9281 77.3308 62.2332L75.2511 64.3118C75.0465 64.4864 74.9214 64.7364 74.9045 65.0047C74.8872 65.1675 74.9281 65.3311 75.02 65.4666C75.02 65.5304 75.0717 65.5821 75.1355 65.5821L75.2511 65.6976C78.6937 69.5905 80.6211 74.5908 80.6814 79.7861C80.6814 91.2023 71.422 100.457 60 100.457C48.578 100.457 39.3186 91.2023 39.3186 79.7861C39.3186 74.474 41.5138 69.8548 44.7489 65.6976L44.8645 65.5821C44.8645 65.5183 44.9162 65.4666 44.98 65.4666C45.0955 65.3511 45.0955 65.2357 45.0955 65.0047C45.1033 64.7303 44.9732 64.4702 44.7489 64.3118L42.6692 62.2332C42.3469 61.9223 41.8362 61.9223 41.5138 62.2332L41.3983 62.3487C36.5691 66.8969 33.8841 73.2706 34.0038 79.9016C33.9783 94.2808 45.6135 105.962 60 106C74.3865 105.962 86.0217 94.2808 85.9962 79.9016C86.1159 73.2706 83.4309 66.8969 78.6017 62.3487Z" fill="white"/>
</svg>
