<svg width="120" height="120" viewBox="0 0 120 120" fill="none" xmlns="http://www.w3.org/2000/svg">
<path fill-rule="evenodd" clip-rule="evenodd" d="M60 120C27 120 0 93.0006 0 59.7012C0.3 26.7019 27 -0.297518 60.3 0.00247602C93.3 0.30247 120 27.0019 120 60.6012C119.7 93.3006 93 120 60 120Z" fill="#EDF0F4"/>
<path fill-rule="evenodd" clip-rule="evenodd" d="M99.1705 52.369C95.7519 33.6142 79.3485 19.7917 60.0685 19.7917C40.7885 19.7917 24.3851 33.6142 20.9665 52.369L20.5859 54.4567L56.2687 77.9547L71.4855 61.9264L71.5544 61.8515C72.703 60.5636 72.628 58.5872 71.3677 57.3907L71.2927 57.3217C70.0048 56.1732 68.0284 56.2482 66.8319 57.5085L55.3123 69.6419L27.7197 51.4717L27.7895 51.1938C31.5261 36.6712 44.7103 26.2083 60.0685 26.2083C76.235 26.2083 89.9928 37.8015 92.8578 53.5197C93.1756 55.2629 94.8463 56.4184 96.5895 56.1007C98.3326 55.7829 99.4882 54.1122 99.1705 52.369ZM63.8976 41.5244L48.1605 57.4633L48.0887 57.5384C46.9165 58.8036 46.9532 60.78 48.1894 62.0005L48.2644 62.0723C49.5296 63.2444 51.506 63.2078 52.7265 61.9716L64.7947 49.7485L92.4123 67.6246L92.3474 67.8847C88.611 82.4073 75.4267 92.8701 60.0685 92.8701C43.6591 92.8701 29.7603 80.9319 27.1673 64.9086L27.1508 64.8155C26.8253 63.1175 25.2055 61.976 23.4876 62.254C21.7385 62.5371 20.55 64.1845 20.833 65.9337C23.927 85.0527 40.4987 99.2868 60.0685 99.2868C79.3485 99.2868 95.7519 85.4643 99.1705 66.7094L99.5543 64.6038L63.8976 41.5244Z" fill="url(#paint0_linear)"/>
<defs>
<linearGradient id="paint0_linear" x1="-2.71836" y1="38.7925" x2="23.7854" y2="112.359" gradientUnits="userSpaceOnUse">
<stop offset="0.119792" stop-color="#053F92"/>
<stop offset="1" stop-color="#4CDADF"/>
</linearGradient>
</defs>
</svg>
