<svg width="120" height="120" viewBox="0 0 120 120" fill="none" xmlns="http://www.w3.org/2000/svg">
<circle cx="60" cy="60" r="60" fill="#EDF0F4"/>
<circle cx="60" cy="60" r="45" fill="#057BC1"/>
<path fill-rule="evenodd" clip-rule="evenodd" d="M26.25 60C26.25 41.3616 41.3616 26.25 60 26.25C78.6396 26.25 93.75 41.3604 93.75 60C93.75 78.6384 78.6384 93.75 60 93.75C41.3616 93.75 26.25 78.6384 26.25 60ZM70.3725 72.7322H71.745V69.8803H70.5356V43.9209H65.8162C65.7764 49.3686 65.793 53.8493 65.8061 57.365C65.8115 58.8081 65.8162 60.0885 65.8162 61.2066C62.703 63.0767 58.9862 63.6674 55.4466 62.8547C52.755 62.0306 51 59.2856 50.8903 56.5434V43.9209H46.2244V56.1047C46.1564 58.4441 46.7261 60.758 47.8725 62.7984C49.0791 64.8853 51.3825 66.1453 53.6887 66.6937C57.8559 67.4826 62.1677 66.7839 65.8725 64.7194V69.8775H58.7372V72.7322H65.76V80.4159H70.3725V72.7322Z" fill="white"/>
</svg>
