<svg width="120" height="120" viewBox="0 0 120 120" fill="none" xmlns="http://www.w3.org/2000/svg">
<circle cx="60" cy="60" r="60" fill="black"/>
<path fill-rule="evenodd" clip-rule="evenodd" d="M78.8381 68.2959C79.1081 70.2487 79.6406 71.7075 80.4328 72.6741C81.8831 74.4338 84.3666 75.3131 87.885 75.3131C89.9925 75.3131 91.7034 75.0816 93.0178 74.6175C95.5116 73.7278 96.7584 72.075 96.7584 69.6591C96.7584 68.2472 96.1397 67.155 94.9031 66.3816C93.6656 65.6278 91.7231 64.9613 89.0737 64.3809L84.5503 63.3666C80.1038 62.3606 77.0306 61.2684 75.3291 60.0891C72.4491 58.1175 71.0081 55.0341 71.0081 50.8387C71.0081 47.0109 72.4003 43.8309 75.1838 41.2987C77.9681 38.7666 82.0566 37.5 87.45 37.5C91.9547 37.5 95.7966 38.6934 98.9766 41.0812C102.157 43.4691 103.824 46.9341 103.979 51.4772H95.3953C95.2406 48.9056 94.1194 47.0794 92.0316 45.9966C90.6403 45.2813 88.9097 44.9231 86.8416 44.9231C84.5409 44.9231 82.7044 45.3872 81.3319 46.3153C79.9594 47.2434 79.2731 48.5381 79.2731 50.2013C79.2731 51.7284 79.9491 52.8694 81.3028 53.6231C82.1728 54.1256 84.0281 54.7153 86.8706 55.3922L94.2356 57.1603C97.4644 57.9338 99.9 58.9678 101.543 60.2634C104.095 62.2744 105.371 65.1834 105.371 68.9916C105.371 72.8972 103.878 76.14 100.891 78.7209C97.9041 81.3019 93.6853 82.5919 88.2328 82.5919C82.6659 82.5919 78.2869 81.3206 75.0975 78.7781C71.9072 76.2366 70.3125 72.7425 70.3125 68.2959H78.8381Z" fill="white"/>
<path fill-rule="evenodd" clip-rule="evenodd" d="M26.25 24.375V95.625H88.125V89.0625H33.75V30.9375H88.125V24.375H26.25Z" fill="white"/>
</svg>
