<svg width="120" height="120" viewBox="0 0 120 120" fill="none" xmlns="http://www.w3.org/2000/svg">
<circle cx="60" cy="60" r="60" fill="#EDF0F4"/>
<path fill-rule="evenodd" clip-rule="evenodd" d="M60.0728 30C62.9072 30.0112 65.5959 30.6162 68.0381 31.7028L41.0167 90.1596H39.9972C37.4877 90.1596 35.0903 89.6779 32.8833 88.8265L60.0728 30ZM58.5716 30.0672L31.651 88.3112C24.7836 85.1407 20 78.1949 20 70.1064C20 59.0267 28.9511 50.0532 39.9972 50.0532C39.9972 39.4553 48.1977 30.8066 58.5716 30.0672ZM89.1892 52.305L71.6902 90.1596H64.6996L83.1172 50.3109C85.2794 50.6582 87.3183 51.3303 89.1892 52.305ZM61.462 90.1596L80.0028 50.0532C80.0028 46.3002 78.9609 42.8049 77.1685 39.8025L53.8888 90.1596H61.462ZM86.8926 88.9161L98.7677 63.239C99.5519 65.39 100 67.6978 100 70.1176C100 78.7439 94.5442 86.093 86.8926 88.9161ZM96.4487 58.7131C95.2612 56.9766 93.7936 55.4642 92.1356 54.1871L75.5104 90.1596H80.0028C80.6526 90.1596 81.3135 90.126 81.9521 90.0588L96.4487 58.7131ZM51.2449 90.1596L75.5889 37.4947C73.9756 35.4894 71.9815 33.7978 69.7185 32.5319L43.078 90.1596H51.2449Z" fill="#0072FF"/>
</svg>
