<svg width="120" height="120" viewBox="0 0 120 120" fill="none" xmlns="http://www.w3.org/2000/svg">
<circle cx="60" cy="60" r="60" fill="#5B6DEE"/>
<path fill-rule="evenodd" clip-rule="evenodd" d="M43.635 57.3836C45.6942 57.0159 47.7829 56.8362 49.875 56.8469V56.8506C54.0938 56.8506 57.2006 57.255 60.3075 57.6595C63.4144 58.064 66.5212 58.4684 70.74 58.4684C82.1663 58.4684 90 53.8312 90 44.2323C90 34.6373 83.475 30 73.95 30C58.395 30 45.33 41.8019 43.635 57.3836ZM30 76.7677C30 67.1726 37.8337 62.5316 49.26 62.5316C53.4764 62.5316 56.5831 62.9369 59.6901 63.3422C62.7977 63.7477 65.9058 64.1531 70.125 64.1531C72.2171 64.1638 74.3058 63.9841 76.365 63.6164C74.67 79.2018 61.605 91 46.05 91C36.525 91 30 86.3627 30 76.7677Z" fill="white"/>
</svg>
