<svg width="120" height="120" viewBox="0 0 120 120" fill="none" xmlns="http://www.w3.org/2000/svg">
<circle cx="60" cy="60" r="60" fill="#199248"/>
<path fill-rule="evenodd" clip-rule="evenodd" d="M15 60C15 35.1488 35.1488 15 60 15C84.8528 15 105 35.1472 105 60C105 84.8512 84.8512 105 60 105C35.1488 105 15 84.8512 15 60ZM31.1509 87.2558C41.1632 97.8695 56.1872 102.142 70.2863 98.385C90.8262 92.8631 103.377 72.1473 98.761 51.3849C94.1452 30.6225 73.9999 17.1755 53.055 20.8763C38.6922 23.4467 26.8935 33.6822 22.3212 47.5384C17.7489 61.3945 21.1386 76.642 31.1509 87.2558Z" fill="white"/>
<path fill-rule="evenodd" clip-rule="evenodd" d="M71.0625 33.1388C70.9875 31.2 70.9875 29.265 70.9875 27.3263H70.9913L70.9988 27.3525C85.0358 32.0718 94.4952 45.223 94.5045 60.0321C94.5139 74.8412 85.0711 88.0043 71.04 92.7413C70.9803 90.8417 70.9803 88.9408 71.04 87.0413C68.4474 88.0119 65.7564 88.6959 63.015 89.0813C63.0194 90.816 63.0694 92.5504 63.165 94.2825C61.065 94.5825 58.935 94.5825 56.835 94.2825C56.94 92.5425 56.94 90.7838 56.94 89.025C54.2003 88.6647 51.5145 87.9734 48.9413 86.9663C48.9788 88.8788 48.9975 90.7913 48.9975 92.7113C34.9606 87.9848 25.5068 74.8263 25.5068 60.015C25.5068 45.2038 34.9606 32.0452 48.9975 27.3188C49.0238 29.28 49.005 31.2338 48.9488 33.1913C51.5417 32.173 54.2413 31.4509 56.9963 31.0388C56.9363 29.2238 56.8988 27.4088 56.9963 25.6013C58.9609 25.5089 60.9294 25.5327 62.8913 25.6725C63.2115 26.7127 63.1369 27.8549 63.0625 28.9937C63.0175 29.6819 62.9726 30.3688 63.015 31.0313C65.769 31.4253 68.4689 32.1324 71.0625 33.1388ZM59.25 84.5738C65.16 84.66 71.595 83.6888 76.125 79.5825L76.1213 79.5788C81.7538 74.4638 81.0938 64.2188 74.7675 59.9288C71.4761 57.3509 67.4771 56.5984 63.4709 55.8446C60.8451 55.3505 58.2162 54.8559 55.7813 53.8463C52.9688 52.8488 52.3913 48.8625 54.6413 46.9913C58.5938 43.68 66.5475 45.03 67.4888 50.7113C69.8569 50.3116 72.2234 49.8988 74.5905 49.4859C75.7993 49.275 77.0082 49.0642 78.2175 48.855C76.2225 43.3988 72.0788 38.4713 66.2663 37.0013C59.8388 35.4413 52.4288 35.925 46.8863 39.8138C39.6375 44.8538 40.185 57.2363 47.5913 61.905C50.524 63.9338 53.9653 64.5594 57.4109 65.1859C60.2833 65.7081 63.1587 66.2309 65.745 67.5675C68.1713 68.7825 68.115 72.3338 66.1575 73.9575C63.3975 76.32 59.295 76.1738 55.9838 75.1388C53.806 74.4224 52.178 72.5956 51.7163 70.35C50.1552 70.6837 48.5776 70.9323 46.9997 71.181C44.8896 71.5135 42.7789 71.8461 40.7063 72.3825C41.715 74.9288 42.84 77.4938 44.8275 79.4138C48.5738 83.1675 54.0638 84.5738 59.25 84.5738Z" fill="white"/>
</svg>
