<svg width="120" height="120" viewBox="0 0 120 120" fill="none" xmlns="http://www.w3.org/2000/svg">
<path fill-rule="evenodd" clip-rule="evenodd" d="M60 120C27 120 0 93.0006 0 59.7012C0.3 26.7019 27 -0.297518 60.3 0.00247602C93.3 0.30247 120 27.0019 120 60.6012C119.7 93.3006 93 120 60 120Z" fill="white"/>
<path fill-rule="evenodd" clip-rule="evenodd" d="M0 60C0 26.8554 26.8686 0 60 0C93.1446 0 120 26.8554 120 60C120 93.1314 93.1314 120 60 120C26.8686 120 0 93.1314 0 60ZM59.0082 91.7022C66.5666 91.703 72.7908 89.8374 77.6808 86.1054L77.6844 86.1036C82.59 82.3796 85.4028 77.4376 86.1228 71.2776H73.2306C72.5786 74.0368 71.0526 76.4072 68.6526 78.3888C66.234 80.3814 63.0684 81.3708 59.1258 81.3708C55.266 81.3708 52.4538 80.5488 50.6874 78.939C48.9246 77.313 48.0432 75.4464 48.0432 73.3392C48.0432 70.26 49.26 68.1678 51.72 67.08C54.1636 65.9844 57.555 64.991 61.8942 64.0998C65.3125 63.3643 68.6753 62.391 71.958 61.1868C75.2904 59.972 78.066 58.2474 80.2848 56.013C82.4892 53.791 83.5914 50.771 83.5914 46.953C83.5914 41.6964 81.5826 37.2834 77.571 33.7662C73.5558 30.2422 67.9302 28.4802 60.6942 28.4802C54.0228 28.4802 48.6252 30.1002 44.4828 33.3402C40.3404 36.5802 37.9224 41.1558 37.188 47.0802H49.4826C49.8924 44.4816 51.0684 42.4596 53.0448 41.0016C55.0096 39.542 57.6388 38.8122 60.9324 38.8122C64.1568 38.8122 66.6456 39.483 68.4108 40.821C70.176 42.159 71.0508 43.872 71.0508 45.9762C71.0508 48.0966 69.837 49.7514 67.377 50.967C64.9326 52.1826 61.695 53.2848 57.6804 54.2448C53.6672 55.1444 49.95 56.181 46.5288 57.3546C43.1168 58.5258 40.3652 60.2458 38.274 62.5146C36.1828 64.7834 35.1372 68.1096 35.1372 72.4932C35.0556 78.0072 37.1662 82.5872 41.469 86.2332C45.7718 89.8792 51.6182 91.7022 59.0082 91.7022Z" fill="#D81D3C"/>
</svg>
