<svg width="120" height="120" viewBox="0 0 120 120" fill="none" xmlns="http://www.w3.org/2000/svg">
<circle cx="60" cy="60" r="60" fill="#FF3B81"/>
<path fill-rule="evenodd" clip-rule="evenodd" d="M31.8932 83.6683V84.2003H26.3878V74.1384L26.2163 74.6968L20.9569 73.0896L23.9277 63.3937L23.5624 63.937L19 60.8697L24.703 52.4415L24.1588 52.8791L20.6923 48.6159L28.8964 41.991L27.8527 42.3947L25.8771 37.2713L35.6766 33.5212L34.5285 33.5967L34.1483 28.1262L44.4062 27.4094L43.4781 27.1981L44.7156 21.8522L54.5188 24.1083L53.9 23.7536L56.6472 19L65.1942 23.9196L64.8587 23.565L68.8844 19.8225L75.5416 26.9378L75.3999 26.6511L80.3462 24.2441L84.6179 32.9742L84.5806 32.729L90.0115 31.8688L91.6143 41.9533L91.7261 41.2365L97.1645 42.0929L95.5393 52.3245L95.9381 51.502L100.884 53.909L96.3072 63.2692L96.9781 62.5524L101 66.2987L93.8843 73.9045L94.7454 73.4103L97.4962 78.1639L88.5541 83.3099L89.4524 83.1024L90.6936 88.4484L80.8084 90.7233L81.5726 90.7761L81.1886 96.2504L71.296 95.56L71.7992 95.7524L69.8237 100.876L60.356 97.2539L60.9561 97.7368L57.4933 102L49.6768 95.6882L50.0645 96.2579L45.5021 99.3289L39.9109 91.0666L40.0787 91.6099L34.8155 93.2171L31.8932 83.6683ZM31.8932 77.149L35.3299 76.1002L37.9988 84.8152L40.9733 82.8157L46.05 90.3234L48.3201 87.5316L55.3575 93.2133L56.6173 89.9424L65.101 93.1869L65.347 89.6443L74.4271 90.2781L73.607 86.7506L82.5082 84.702L80.6631 81.5179L88.6063 76.9453L85.8852 74.4176L92.1585 67.7097L88.8113 66.0799L92.8481 57.8327L89.1877 57.2517L90.6265 48.1971L87.1227 48.748L85.6877 39.6934L82.5343 41.2251L78.5273 33.0383L75.9553 35.4265L69.7603 28.7978L67.986 31.8612L60.1398 27.3453L59.3272 30.8464L50.5006 28.8129L50.7578 32.4686L41.6964 33.0987L43.0345 36.5809L34.4987 39.8481L36.7985 42.6739L29.6344 48.4575L32.6573 50.491L27.4986 58.1232L30.9763 59.1871L28.2813 67.9813H31.8969L31.8932 77.149ZM57.4672 63.6842C58.4326 64.4199 58.9172 65.48 58.9172 66.8684C58.9625 68.0481 58.4174 69.1715 57.4672 69.8564C56.5018 70.5619 55.1562 70.9127 53.4341 70.9127C48.8009 70.9127 46.4824 68.9434 46.4824 65.0084H39.2139C39.2139 67.3098 39.7954 69.3357 40.9546 71.0825C42.1288 72.8293 43.8285 74.2101 46.0463 75.225C48.3775 76.2439 50.8951 76.753 53.4341 76.719C57.3293 76.719 60.4268 75.8437 62.7304 74.0969C65.0302 72.3313 66.182 69.9092 66.182 66.8193C66.182 64.0464 65.2426 61.7261 63.3566 59.8624C61.4742 58.0025 58.4736 56.4405 54.3511 55.1842C52.1146 54.4976 50.4149 53.7619 49.2594 52.981C48.1151 52.1962 47.5448 51.2229 47.5448 50.0646C47.5159 48.8832 48.0674 47.7641 49.0171 47.0766C49.9974 46.307 51.3766 45.926 53.1471 45.926C54.981 45.926 56.4049 46.3825 57.4187 47.2955C58.4326 48.1934 58.9395 49.461 58.9395 51.0946H66.182C66.2134 49.0602 65.6422 47.0629 64.5419 45.36C63.4609 43.6774 61.9401 42.3796 59.9758 41.4666C58.0151 40.5347 55.7787 40.0707 53.2664 40.0707C50.7727 40.0707 48.5176 40.4932 46.5048 41.3421C44.5106 42.191 42.9749 43.3756 41.8939 44.896C40.8316 46.3975 40.3023 48.1141 40.3023 50.042C40.3023 53.7506 42.3002 56.6933 46.2886 58.8815C47.7535 59.6851 49.7402 60.5038 52.2525 61.3338C54.7648 62.1487 56.4981 62.9334 57.4672 63.6842ZM81.0209 44.9941L74.0394 70.8448L68.288 70.4374L72.6379 43.7868L81.0209 44.9941ZM73.115 82.6723L74.9303 73.5385L67.2219 71.6522L65.4663 80.4125L73.115 82.6723Z" fill="white"/>
</svg>
