<svg width="120" height="120" viewBox="0 0 120 120" fill="none" xmlns="http://www.w3.org/2000/svg">
<circle cx="60" cy="60" r="60" fill="#00B098"/>
<path fill-rule="evenodd" clip-rule="evenodd" d="M23 41V42.3269H54.5637V41H23ZM23 44.8577V46.1846H54.5637V44.8577H23ZM36.3125 81.9851V48.8385H37.58V81.9851H36.3125ZM39.9875 48.8385V81.9851H41.2513V48.8385H39.9875ZM97.1075 79.2716L82.865 64.3141L83.7575 63.3785L98 78.3324L97.1075 79.2716ZM76.6888 55.9575L62.4463 41L61.5537 41.9393L75.7962 56.8931L76.6888 55.9575ZM94.5088 82L80.2663 67.0425L81.1588 66.1032L95.4013 81.0607L94.5088 82ZM74.0938 58.6822L59.8513 43.7284L58.955 44.6676L73.1975 59.6215L74.0938 58.6822ZM80.18 61.5L81.0762 60.5607L97.1075 43.7284L98 44.6676L81.9688 61.5L81.0762 62.4393L79.3737 64.2284L78.4775 65.1676L62.45 82L61.5575 81.0607L77.5887 64.2284L78.4812 63.2891L80.18 61.5ZM94.5125 41L78.4775 57.8324L77.5888 58.7716L75.8825 60.5607L74.99 61.5L58.9588 78.3324L59.855 79.2716L75.8825 62.4393L76.7788 61.5L78.4813 59.7109L79.3738 58.7716L95.405 41.9393L94.5125 41Z" fill="white"/>
</svg>
