<svg width="120" height="120" viewBox="0 0 120 120" fill="none" xmlns="http://www.w3.org/2000/svg">
<circle cx="60" cy="60" r="60" fill="#01AEF0"/>
<path d="M78.509 71.337C78.4602 79.1145 73.9678 85.737 66.8016 88.4557C65.1216 89.0932 63.3741 89.562 61.6341 89.997C60.5954 90.2595 60.0292 90.7732 59.9467 91.9095C59.8417 93.342 59.6954 94.7707 59.4967 96.1845C59.2567 97.857 58.6829 98.2395 57.1454 97.872C54.498 97.242 54.213 96.8145 54.5655 94.0357C54.5955 93.7995 54.6292 93.5632 54.6555 93.3232C54.918 91.047 54.5955 90.7207 52.4167 90.8295C51.438 90.8782 51.0293 91.362 50.9355 92.322C50.808 93.702 50.673 95.0857 50.448 96.447C50.223 97.842 49.638 98.187 48.2955 97.8945C45.4306 97.2757 45.2206 96.957 45.5956 93.927C46.0681 90.1657 46.0568 90.207 42.5843 89.1607C41.0469 88.6957 39.5544 88.0507 38.0506 87.4545C37.1356 87.0945 36.8357 86.412 37.0831 85.3957C37.3981 84.102 37.6156 82.7782 37.8856 81.4695C38.3506 79.2382 39.4306 78.5632 41.4931 79.3732C45.1456 80.8095 48.8955 81.6945 52.7992 81.7882C56.3204 81.8745 59.8042 81.642 63.0179 79.9132C65.1404 78.7695 66.7003 77.0932 67.4841 74.6895C68.6466 71.1195 67.6041 68.2319 64.2591 66.7957C61.5029 65.6144 58.5442 64.9582 55.7655 63.8257C53.298 62.8207 50.733 61.8157 48.603 60.2369C43.8143 56.6969 42.9781 51.4619 44.0281 45.8707C45.2206 39.5669 49.0793 35.4794 54.8055 33.3081C56.3317 32.7344 57.0217 31.9319 57.0479 30.2181C57.0704 28.3619 57.3667 26.5056 57.5917 24.6569C57.7642 23.2356 58.3192 22.8381 59.6467 23.0556C62.4666 23.5169 62.8041 23.9631 62.5266 26.8919C62.4179 28.0356 62.3241 29.1794 62.1891 30.3156C62.0766 31.2719 62.3804 31.7106 63.3816 31.7406C65.6653 31.8081 65.7628 31.7669 66.0328 29.4044C66.2053 27.8856 66.3328 26.3631 66.5391 24.8481C66.7641 23.1681 67.3078 22.7856 68.8566 23.1006C71.4628 23.6369 71.7515 24.0344 71.4965 26.7494C71.384 27.9381 71.3278 29.1381 71.1215 30.3119C70.8853 31.6619 71.2978 32.2881 72.6403 32.5994C75.194 33.1919 77.7215 33.9419 80.2302 34.7219C82.1164 35.3069 82.1914 35.5206 81.8277 37.4819C81.6139 38.6557 81.4002 39.8332 81.1227 40.9919C80.6052 43.1744 79.5177 43.8232 77.4402 43.1257C73.8853 41.9257 70.3153 40.8419 66.5466 40.6807C63.2466 40.5419 59.9917 40.5907 57.1267 42.6644C53.0917 45.5819 53.0692 51.5144 57.3592 54.0119C60.0892 55.6019 63.2429 56.4119 66.2016 57.5819C68.0053 58.2944 69.8578 58.9094 71.5903 59.7719C76.2327 62.0894 78.5615 65.9632 78.509 71.3407" fill="white"/>
</svg>
