<svg width="120" height="120" viewBox="0 0 120 120" fill="none" xmlns="http://www.w3.org/2000/svg">
<circle cx="60" cy="60" r="60" fill="white"/>
<path fill-rule="evenodd" clip-rule="evenodd" d="M0 60C0 26.8629 26.8629 0 60 0C93.1371 0 120 26.8629 120 60C120 93.1371 93.1371 120 60 120C26.8629 120 0 93.1371 0 60ZM44.4264 81.2995L44.9949 80.731C47.2284 78.4975 48.3046 75.3909 47.9797 72.264L47.8579 71.1472C47.7766 70.4162 47.6142 69.7056 47.3909 69.0152L46.6396 66.7817L39.6954 50.4366C39.2284 49.3401 38.7817 48.2234 38.4162 47.0863L38.0914 46.1117C37.1777 43.2893 37.0355 40.264 37.6853 37.3807L38.2741 34.7208C38.335 34.4772 38.2335 34.2538 38.0305 34.132C37.8274 34.0102 37.5838 34.0305 37.401 34.1726L35.8985 35.3503C34.599 36.3858 33.3401 37.5025 32.1624 38.6802L31.5939 39.2487C29.3604 41.4822 28.2843 44.5685 28.6294 47.7157L28.7513 48.8325C28.8325 49.5635 28.9949 50.2741 29.2183 50.9645L29.9695 53.198L36.8934 69.5432C37.3604 70.6396 37.8071 71.7563 38.1726 72.8934L38.4975 73.868C39.4112 76.6904 39.5533 79.7157 38.9036 82.599L38.3147 85.2589C38.2538 85.5025 38.3553 85.7259 38.5584 85.8477C38.6396 85.9086 38.7411 85.9289 38.8426 85.9289C38.9645 85.9289 39.0863 85.8883 39.1878 85.8071L40.6904 84.6294C41.9898 83.5939 43.2487 82.4772 44.4264 81.2995ZM68.4264 86.0914L67.6954 86.8223C66.2132 88.3046 64.6294 89.7259 62.9848 91.0051L61.0355 92.5482C60.934 92.6294 60.7919 92.6701 60.6701 92.6701C60.5685 92.6701 60.4467 92.6294 60.3452 92.5685C60.1218 92.4264 60.0203 92.1827 60.0812 91.9391L60.8528 88.5076C61.665 84.8528 61.4822 81.0355 60.3249 77.4822L59.9188 76.2437C59.4518 74.802 58.9036 73.3807 58.2944 72L49.5431 51.3909L48.6091 48.5888C48.3249 47.736 48.1218 46.8223 48.0203 45.9289L47.8579 44.5076C47.4112 40.5685 48.7716 36.7107 51.5533 33.8883L52.2843 33.1574C53.7665 31.6751 55.3503 30.2538 56.9949 28.9746L58.9442 27.4315C59.1472 27.269 59.4112 27.2487 59.6345 27.3909C59.8579 27.533 59.9594 27.7766 59.8985 28.0203L59.1269 31.4518C58.3147 35.1066 58.4975 38.9239 59.6548 42.4772L60.0609 43.7157C60.5279 45.1371 61.0761 46.5787 61.6853 47.9594L70.4366 68.5888L71.3706 71.3909C71.6548 72.2437 71.8579 73.1574 71.9594 74.0508L72.1218 75.4721C72.5685 79.4112 71.2081 83.2893 68.4264 86.0914ZM87.8376 81.2995L88.4061 80.731C90.6396 78.4975 91.7157 75.3909 91.3706 72.264L91.2487 71.1472C91.1675 70.4162 91.0051 69.7056 90.7817 69.0152L90.0305 66.7817L83.0863 50.4366C82.6193 49.3401 82.1726 48.2234 81.8071 47.0863L81.4822 46.1117C80.5685 43.2893 80.4264 40.264 81.0761 37.3807L81.665 34.7208C81.7259 34.4772 81.6244 34.2538 81.4213 34.132C81.2183 34.0102 80.9746 34.0305 80.7919 34.1726L79.2893 35.3503C77.9899 36.3858 76.731 37.5025 75.5533 38.6802L74.9848 39.2487C72.7513 41.4822 71.6751 44.5685 72.0203 47.7157L72.1421 48.8325C72.2234 49.5635 72.3858 50.2741 72.6091 50.9645L73.3604 53.198L80.3046 69.5432C80.7716 70.6396 81.2183 71.7563 81.5838 72.8934L81.9086 73.868C82.8223 76.6904 82.9645 79.7157 82.3147 82.599L81.7259 85.2589C81.665 85.5025 81.7665 85.7259 81.9695 85.8477C82.0508 85.9086 82.1523 85.9289 82.2538 85.9289C82.3756 85.9289 82.4975 85.8883 82.599 85.8071L84.1015 84.6294C85.401 83.5939 86.6599 82.4772 87.8376 81.2995Z" fill="#171FC9"/>
</svg>
