<svg width="120" height="120" viewBox="0 0 120 120" fill="none" xmlns="http://www.w3.org/2000/svg">
<circle cx="60" cy="60" r="60" fill="#FD2E53"/>
<path fill-rule="evenodd" clip-rule="evenodd" d="M30.0015 33.221C30.0766 33.3426 34.5296 38.569 39.8972 44.8356C50.2373 56.9075 50.4033 57.1399 50.4033 59.5422C50.4033 61.9445 50.2373 62.1769 39.8972 74.2487C34.5296 80.5154 30.0766 85.7418 30.0015 85.8634C29.9197 85.9956 33.0935 86.0788 37.9022 86.0704L45.9394 86.0566L54.8672 75.5973C65.3299 63.3399 65.2428 63.4748 65.2428 59.5422C65.2428 55.6096 65.3299 55.7445 54.8672 43.4871L45.9394 33.0277L37.9022 33.014C33.0935 33.0055 29.9197 33.0888 30.0015 33.221ZM65.8928 38.3504C63.4714 41.2932 61.5746 43.7773 61.6774 43.8707C61.7804 43.9641 63.9745 44.5553 66.5535 45.1843C71.715 46.4434 72.6927 46.4849 74.5764 45.526C75.3778 45.1182 88.16 34.9841 89.9666 33.3245C90.2631 33.0521 88.7097 33 80.3076 33H70.2952L65.8928 38.3504ZM66.2079 73.9778C63.4258 74.6867 61.646 75.2535 61.681 75.4195C61.7129 75.5698 63.6647 78.031 66.0185 80.8886L70.2986 86.0844H80.3093C88.7099 86.0844 90.2631 86.0323 89.9666 85.7599C88.1282 84.0708 75.3701 73.9623 74.5499 73.5449C72.6931 72.5998 71.3414 72.6697 66.2079 73.9778Z" fill="white"/>
</svg>
