<svg width="120" height="120" viewBox="0 0 120 120" fill="none" xmlns="http://www.w3.org/2000/svg">
<circle cx="60" cy="60" r="60" fill="#2DC4E7"/>
<path fill-rule="evenodd" clip-rule="evenodd" d="M19.1512 34.0967C20.3487 34.0967 21.5582 34.0727 22.7726 34.0486C25.6228 33.9921 28.5002 33.9351 31.3133 34.1862C32.3664 35.3663 32.9369 36.8268 33.5127 38.3009L33.5127 38.3009C33.9107 39.32 34.3114 40.3457 34.8758 41.2897C46.8789 41.3494 58.9203 41.3295 70.9489 41.3096H70.9489C76.9584 41.2997 82.9647 41.2897 88.9615 41.2897L89.1471 41.3019C90.4464 41.3861 91.9747 41.4851 92.6138 42.7559C93.4146 44.2221 92.8383 45.9532 92.0787 47.2851C89.6455 51.3985 87.2905 55.5516 84.936 59.7036C83.7562 61.7841 82.5765 63.8644 81.3873 65.9392C81.0157 66.5577 80.6782 67.1965 80.3416 67.8336L80.3416 67.8337C79.468 69.4871 78.6 71.1301 77.1549 72.3824C75.5083 73.759 73.2331 73.8448 71.1412 73.8448H46.1884C44.8525 73.8448 43.4267 73.7143 42.6259 72.6472C40.6207 70.4048 39.3376 67.6808 38.0723 64.9942L38.0722 64.9941C37.7082 64.2212 37.3456 63.4515 36.9677 62.6971C34.0385 56.8505 31.1718 50.9729 28.3682 45.0653C27.9325 44.0648 27.4228 43.14 26.9122 42.2136C26.7432 41.9068 26.574 41.5997 26.4073 41.2897C24.0497 41.2897 21.6847 41.2897 19.372 41.2002C18.923 38.8498 18.923 36.4508 19.1475 34.0967H19.1512ZM47.2624 78.6427C49.0752 78.2133 50.9601 78.1827 52.7859 78.5531C54.8328 79.0008 56.6179 80.5528 57.1081 82.5973C57.6395 84.9477 57.6395 87.4847 56.7039 89.7456C55.8133 91.7901 53.5867 92.7675 51.4948 92.9466C49.0886 93.122 46.3269 92.9466 44.5419 91.167C42.6296 89.0367 42.6296 85.929 43.03 83.2614C43.2957 81.0416 45.077 79.1314 47.2587 78.6427H47.2624ZM76.3092 78.9971C74.1687 78.1987 71.7624 78.1577 69.5358 78.6427C67.3542 79.1351 65.6627 80.952 65.2136 83.1271C64.6715 85.4758 64.9556 87.939 66.0182 90.1037C67.1334 92.0997 69.446 92.9018 71.5866 92.9877C73.7682 93.0324 76.1745 92.8123 77.821 91.2566C79.6023 89.3911 79.8717 86.593 79.6023 84.1493C79.4264 82.0638 78.3561 79.844 76.3092 78.9971Z" fill="white"/>
</svg>
