<svg width="120" height="120" viewBox="0 0 120 120" fill="none" xmlns="http://www.w3.org/2000/svg">
<path d="M60 120C93.138 120 120 93.138 120 60C120 26.862 93.138 0 60 0C26.862 0 0 26.862 0 60C0 93.138 26.862 120 60 120Z" fill="#EDF0F4"/>
<path fill-rule="evenodd" clip-rule="evenodd" d="M59.6355 95.125C60.0107 95.3682 60.4484 95.4974 60.8956 95.497L60.8964 95.4947C61.3353 95.4912 61.7647 95.3664 62.1372 95.1342L96.3298 73.1643C97.9588 72.1194 98.9415 70.3151 98.9355 68.3798V61.8158C98.9553 61.1309 98.6833 60.4699 98.1871 59.9974C97.4098 59.2964 96.2597 59.2018 95.3783 59.7665L60.5424 81.9904C60.5203 82.0057 60.491 82.0057 60.4689 81.9904L26.3151 60.2821C25.4766 59.7497 24.9701 58.8241 24.9738 57.8308V51.6446C24.9726 51.6324 24.9753 51.6201 24.9815 51.6096C25.0012 51.578 25.0425 51.5677 25.0746 51.5865L59.6951 73.3828C60.4546 73.8558 61.417 73.8558 62.1765 73.3828L97.8654 50.8489C98.5405 50.4207 98.9495 49.6768 98.9495 48.8774C98.9495 48.0779 98.5405 47.3341 97.8654 46.9058L62.4789 24.3642C61.7504 23.9004 60.825 23.878 60.0749 24.3061L60.0364 24.3292L23.4325 48.1844L22.7695 48.638L22.6541 48.7312C22.2332 49.1655 21.9985 49.747 22 50.3518V57.8346C21.9994 59.8501 23.0366 61.7239 24.7449 62.7934L59.2507 84.746C60.0139 85.2307 60.9885 85.2307 61.7517 84.746L95.8978 62.9993C95.9076 62.9949 95.9182 62.9923 95.9289 62.9916C95.9669 62.9908 95.999 63.0196 96.0024 63.0574V68.4056C96.0045 69.3247 95.5363 70.1811 94.7616 70.6757L60.9529 92.3993C60.9308 92.4147 60.9015 92.4147 60.8794 92.3993L25.2059 69.4233C25.1792 69.4 25.1394 69.4 25.1127 69.4233L23.5775 71.8115C23.5543 71.8382 23.5543 71.8779 23.5775 71.9046L59.6355 95.125ZM60.8952 70.6214L27.2262 49.4056C27.2215 49.4013 27.2176 49.396 27.2147 49.3903C27.2023 49.3756 27.1965 49.3564 27.1987 49.3374C27.2009 49.3183 27.2108 49.3009 27.2262 49.2894L61.2107 27.1237C61.2328 27.1083 61.2621 27.1083 61.2842 27.1237L95.3164 48.8127C95.3246 48.8171 95.3313 48.8238 95.3356 48.832C95.3462 48.8466 95.3501 48.865 95.3464 48.8827C95.3428 48.9004 95.3319 48.9158 95.3164 48.9251L60.9687 70.6214C60.9466 70.6368 60.9173 70.6368 60.8952 70.6214Z" fill="url(#paint0_linear)"/>
<defs>
<linearGradient id="paint0_linear" x1="22" y1="56.6708" x2="98.9524" y2="56.6708" gradientUnits="userSpaceOnUse">
<stop stop-color="white"/>
<stop stop-color="#21BBC0"/>
<stop offset="0.34" stop-color="#20B9C0"/>
<stop offset="1" stop-color="#1387C9"/>
</linearGradient>
</defs>
</svg>
