<svg width="120" height="120" viewBox="0 0 120 120" fill="none" xmlns="http://www.w3.org/2000/svg">
<circle cx="60" cy="60" r="60" fill="#2D9CDB"/>
<path fill-rule="evenodd" clip-rule="evenodd" d="M53.3511 32.7013C56.8644 28.4075 58.3 26.3187 60.1889 23C62.04 26.42 63.4718 28.5312 66.8378 32.7013H53.3511ZM67.786 34.565C80.6456 47.9375 83.9096 50.3 87.0338 51.1512C76.1727 49.8013 70.0451 49.0362 59.8111 43.7038L53.3511 51.1662L94 60.125C81.284 70.8575 75.776 76.5762 67.786 86.4275H52.4067C45.6482 76.61 41.1413 73.4225 32.46 69.4512C44.0124 70.5088 50.4347 71.2138 59.8111 76.7262L66.8416 68.8887L26 60.125C35.4973 52.355 41.0242 47.1725 52.4029 34.565H67.786ZM60 98C61.8813 94.6813 63.3207 92.5925 66.8378 88.2988H53.3511C56.7133 92.4688 58.1489 94.58 60 98Z" fill="white"/>
</svg>
