<svg width="120" height="120" viewBox="0 0 120 120" fill="none" xmlns="http://www.w3.org/2000/svg">
<circle cx="60" cy="60" r="60" fill="#7012FE"/>
<path d="M51.1534 88.8947C44.3733 89.6696 39.4497 94.2219 37.8354 96.4012C37.0283 93.4955 36.092 86.3764 38.804 81.1461C41.516 75.9158 59.3056 71.8639 67.8613 70.4918C57.6106 68.2317 37.109 61.145 37.109 50.878C37.109 38.0444 54.3012 32.9593 65.682 31.2643C74.7867 29.9083 80.7757 25.8564 82.6322 24C82.4707 27.4707 80.4529 35.7682 73.6728 41.1923C66.8928 46.6163 55.8348 48.7795 51.1534 49.183C61.3235 50.7973 81.6152 57.0285 81.4215 69.0389C81.1793 84.0518 59.6285 87.9262 51.1534 88.8947Z" fill="white"/>
<path d="M71.2512 52.0888C69.3138 50.9265 65.7625 49.6673 64.229 49.183C66.2469 48.4566 70.9607 46.6647 73.6729 45.3087C76.385 43.9527 79.4843 40.3851 80.6948 38.7708C80.9371 40.5466 81.2762 44.9213 80.6948 48.2145C80.1135 51.5076 77.5469 54.5909 76.3362 55.7209C75.4484 54.9945 73.1885 53.2511 71.2512 52.0888Z" fill="white"/>
</svg>
