<svg width="120" height="120" viewBox="0 0 120 120" fill="none" xmlns="http://www.w3.org/2000/svg">
<circle cx="60" cy="60" r="60" fill="#EDF0F4"/>
<path fill-rule="evenodd" clip-rule="evenodd" d="M60.0003 15C61.5195 15 63.0207 15.0753 64.5012 15.2223V71.3733L31.0334 33.3854V94.438C21.2297 86.1837 15.0005 73.8191 15.0005 60.0001C15.0005 35.1471 35.1476 15 60.0003 15ZM105 60.0001C105 39.1532 90.8247 21.6174 71.5869 16.5058V89.8174L38.6068 52.1959V99.599C44.9698 103.044 52.2566 105 60.0003 105C84.8533 105 105 84.8526 105 60.0001ZM77.9323 57.3103C77.6974 58.8599 78.1559 60.2017 79.1603 61.0693C80.1233 61.9009 81.4207 62.1497 82.6078 61.9121C83.767 61.6795 84.577 60.9658 85.157 60.2327C85.6741 59.5797 86.0944 58.7974 86.444 58.1467C86.4746 58.0897 86.5048 58.0336 86.534 57.9788C86.9359 57.2338 87.2531 56.6829 87.601 56.3046C87.9083 55.9703 88.1427 55.8754 88.4055 55.8754C89.5854 55.8754 90.0687 56.2475 90.2892 56.5384C90.5498 56.882 90.6744 57.4185 90.6065 58.0622C90.5075 59.0045 89.5539 59.7458 88.5783 59.7458V62.4458C90.6344 62.4458 93.0185 60.9415 93.2916 58.3449C93.4041 57.2777 93.2502 55.9751 92.4411 54.9073C91.5915 53.7869 90.2132 53.1754 88.4055 53.1754C87.1748 53.1754 86.2681 53.7654 85.6138 54.4767C85 55.144 84.5342 55.9994 84.158 56.6971L84.0959 56.8119C83.7134 57.5216 83.402 58.0998 83.0402 58.5569C82.6775 59.0151 82.3747 59.205 82.0772 59.2646C81.5845 59.3634 81.1682 59.2356 80.9252 59.0259C80.7241 58.8521 80.4847 58.4878 80.6021 57.7152C80.7083 57.0128 81.0503 56.6646 81.4274 56.4504C81.8617 56.2039 82.3706 56.1317 82.6433 56.1317V53.4317C82.0453 53.4317 81.0427 53.564 80.0941 54.1025C79.0892 54.6733 78.178 55.6907 77.9323 57.3103ZM79.4141 41.2957C78.3994 42.6381 78.0533 44.2164 77.9368 45.5424C77.8531 46.4936 77.8841 47.4722 77.9053 48.1448V48.145C77.9129 48.3758 77.9188 48.5706 77.9188 48.7159V50.0659H79.2688H91.8215H92.9505L93.1503 48.9545C93.3713 47.7237 93.3645 46.0278 93.0108 44.4104C92.6634 42.8218 91.9232 41.0515 90.4535 39.9774C88.8754 38.8241 86.5813 38.5729 84.6224 38.8062C82.687 39.0367 80.5405 39.8066 79.4141 41.2957ZM90.5966 47.3659H80.5859C80.5747 46.8771 80.5756 46.3557 80.6264 45.7789C80.7223 44.6918 80.9873 43.6918 81.5678 42.9242C82.0372 42.3034 83.2864 41.6844 84.9415 41.4873C86.5732 41.2929 88.064 41.5754 88.8605 42.1573C89.5553 42.665 90.0854 43.671 90.3734 44.9872C90.552 45.8045 90.6146 46.6419 90.5966 47.3659ZM90.372 66.4836C91.7706 67.3004 92.7966 68.7939 92.7966 71.075C92.7966 73.3529 91.7751 74.8586 90.399 75.7059C89.1408 76.4808 87.6959 76.6446 86.7154 76.5758H78.6131V73.8758H86.7662H86.8207L86.8747 73.8803C87.4538 73.9271 88.3169 73.8177 88.9833 73.4069C89.5575 73.0532 90.0966 72.42 90.0966 71.075C90.0966 69.7322 89.562 69.1368 89.0103 68.8151C88.3565 68.433 87.5006 68.3489 86.9174 68.4146L86.8418 68.4231H86.7662H78.6131V65.7231H86.6956C87.6721 65.6277 89.1111 65.747 90.372 66.4836Z" fill="url(#paint0_radial)"/>
<defs>
<radialGradient id="paint0_radial" cx="0" cy="0" r="1" gradientUnits="userSpaceOnUse" gradientTransform="translate(60.0003 60.0001) scale(44.9999 45)">
<stop stop-color="#6573AB"/>
<stop offset="1" stop-color="#57628F"/>
</radialGradient>
</defs>
</svg>
