<svg width="120" height="120" viewBox="0 0 120 120" fill="none" xmlns="http://www.w3.org/2000/svg">
<circle cx="60" cy="60" r="60" fill="#E7EFF3"/>
<path fill-rule="evenodd" clip-rule="evenodd" d="M84.4233 52.7094C81.4493 49.8956 77.2496 47.5516 71.8005 46.0633H71.769C58.8023 42.5356 54.1826 50.8799 64.6819 56.14C76.6013 62.1037 78.2575 71.8706 71.5301 77.9786C69.8161 79.5325 64.2462 82.4408 59.1226 83.139C50.9856 84.2677 41.9562 82.5379 34.6172 80.2071C38.6088 83.3076 43.1705 85.5942 48.0432 86.9371C59.4848 90.0869 73.3045 87.7666 82.4625 79.8055C91.6861 71.7761 92.5681 60.3949 84.4233 52.7094ZM71.8057 46.066L71.9238 46.1001L71.8057 46.066Z" fill="#008DD0"/>
<path fill-rule="evenodd" clip-rule="evenodd" d="M46.8755 33.8842C59.7269 28.646 74.394 30.6343 85.3869 39.1049C71.6853 34.7477 61.0548 35.1257 54.0806 37.9316L53.9783 37.9736C45.3662 41.4961 42.3818 48.7065 46.13 55.2266C48.1485 58.7412 51.7078 61.3687 55.3169 63.172C64.8608 67.9518 61.9262 75.2724 51.5923 73.9337C50.4454 73.7808 49.3105 73.5484 48.1958 73.2382C27.9033 67.6972 24.9346 50.4652 37.539 39.5065C40.3214 37.1326 43.4758 35.233 46.8755 33.8842Z" fill="#008DD0"/>
</svg>
