<svg width="120" height="120" viewBox="0 0 120 120" fill="none" xmlns="http://www.w3.org/2000/svg">
<circle cx="60" cy="60" r="60" fill="#0899CD"/>
<path fill-rule="evenodd" clip-rule="evenodd" d="M31.1255 31.1255C23.1877 39.086 19.1509 48.665 19 59.8586L19.0038 59.8624C19.0151 58.9985 19.0528 58.1458 19.1094 57.3007C19.2641 57.3076 19.418 57.3265 19.5697 57.3573L37.2675 26.6624C37.1468 26.5266 37.045 26.3757 36.9582 26.2248C38.7427 24.9685 40.5989 23.8781 42.5267 22.95C42.6288 23.1202 42.7147 23.2996 42.7833 23.4858H78.2167C78.2855 23.2996 78.3713 23.1203 78.4733 22.95C80.4185 23.8907 82.2823 24.9911 84.0456 26.2399C83.9588 26.3835 83.8603 26.5197 83.7513 26.6473L101.43 57.3573C101.581 57.3268 101.733 57.3079 101.887 57.3007C101.926 57.833 101.955 58.3659 101.973 58.8992C101.99 59.3783 101.998 59.8603 102 60.3453C101.999 59.8631 101.99 59.381 101.973 58.8992C101.61 48.1183 97.5631 38.8595 89.833 31.1293C81.748 23.0444 71.9691 19 60.5 19C49.0309 19 39.2407 23.0444 31.1255 31.1255ZM36.977 94.7752C34.8894 93.2989 32.9329 91.6454 31.1293 89.833C23.8215 82.5252 19.8187 73.8366 19.1132 63.771C19.2665 63.765 19.4191 63.7473 19.5697 63.7181L37.2675 94.3715C37.1594 94.4976 37.0623 94.6327 36.977 94.7752ZM89.833 89.833C97.1634 82.5252 101.181 73.8404 101.887 63.771C101.728 63.7634 101.577 63.7445 101.427 63.7181L83.7325 94.3715C83.8373 94.4936 83.9343 94.6221 84.0229 94.7564C86.0489 93.3265 87.9843 91.6854 89.833 89.833ZM60.5 102C68.5397 102 75.7531 100.008 82.129 96.0202C80.9331 96.7635 79.7107 97.4425 78.4544 98.0462C78.3602 97.8904 78.2806 97.7262 78.2167 97.5557H42.7833C42.7179 97.7262 42.637 97.8904 42.5418 98.0462C41.5798 97.5859 40.6366 97.0841 39.7085 96.5371C45.8845 100.178 52.815 102 60.5 102ZM99.5326 58.4552L99.5313 58.4567L82.3667 28.7035V57.4818C82.8105 57.6512 83.2122 57.9151 83.5438 58.2552C83.8835 58.5858 84.1474 58.9861 84.3172 59.4285H98.9441C99.0794 59.0717 99.2784 58.7424 99.5313 58.4567L99.5326 58.459V58.4552ZM99.5326 62.609C99.2793 62.3227 99.0799 61.9929 98.9441 61.6356H84.3172C84.1476 62.0793 83.8838 62.4809 83.5438 62.8127C83.2119 63.1515 82.8103 63.4142 82.3667 63.5823V92.3305L99.5326 62.609ZM22.0559 59.4323C21.9202 59.075 21.7208 58.7452 21.4674 58.459L38.6333 28.7035V57.4856C38.1895 57.655 37.7878 57.9189 37.4562 58.259C37.1166 58.5896 36.8527 58.9899 36.6828 59.4323H22.0559ZM42.787 25.689C42.7771 25.7154 42.7644 25.7407 42.7493 25.7645L65.812 45.7411C66.4663 45.3588 67.2378 45.2286 67.9813 45.3751L78.809 26.6624C78.5571 26.3751 78.3578 26.0456 78.2205 25.689H42.787ZM42.787 59.4323C42.6172 58.9899 42.3533 58.5895 42.0136 58.259C41.6819 57.919 41.2803 57.6551 40.8365 57.4856V28.7035L58.0213 58.4212C57.7729 58.7211 57.5811 59.0637 57.4554 59.4323H42.787ZM70.4497 49.7071L70.4487 49.71V49.7062L70.4497 49.7071ZM79.6919 57.7044L70.4497 49.7071C70.5847 49.337 70.652 48.9457 70.6486 48.5518C70.6574 47.7914 70.3892 47.0539 69.8941 46.4768L80.171 28.7072V57.4818C80.0052 57.5423 79.845 57.6167 79.6919 57.7044ZM64.401 47.3973C64.2515 47.7637 64.1758 48.156 64.1784 48.5518C64.1784 49.344 64.435 50.0382 64.9518 50.6305L61.0735 57.3196C60.6974 57.2447 60.3102 57.2447 59.9341 57.3196L43.9604 29.7145L64.3972 47.3973H64.401ZM62.9862 58.425C63.2395 58.7233 63.4375 59.0644 63.571 59.4323V59.4361H78.2205C78.2351 59.412 78.2478 59.3868 78.2582 59.3606L69.015 51.3662C68.3607 51.7485 67.5893 51.8787 66.8457 51.7322L62.9862 58.425ZM78.9939 62.8165C79.3256 63.1565 79.7272 63.4204 80.171 63.5899V92.3305L62.9862 62.5599C63.2215 62.2871 63.4078 61.9756 63.537 61.6394H78.2205C78.3901 62.0831 78.654 62.4847 78.9939 62.8165ZM61.0735 63.6804C60.7093 63.7419 60.3379 63.7483 59.9718 63.6993L56.0746 70.4449C56.57 71.0218 56.8382 71.7595 56.8291 72.5199C56.8317 72.9151 56.7627 73.3075 56.6254 73.6781L77.0434 91.3383L61.0735 63.6804ZM78.2582 95.2732C78.2476 95.2993 78.235 95.3245 78.2205 95.3487H42.787C42.6569 94.9916 42.464 94.6607 42.2174 94.3715L53.0225 75.6965C53.766 75.8434 54.5376 75.7132 55.1918 75.3306L78.2582 95.2732ZM51.9925 69.7055C52.6466 69.3225 53.4183 69.1923 54.1618 69.3395L58.0402 62.5939C57.7874 62.2996 57.5988 61.9789 57.4705 61.6394H42.787C42.7768 61.6656 42.7642 61.6909 42.7493 61.7148L51.9925 69.7055ZM50.5777 71.3617L50.5766 71.3645L41.3157 63.3673C41.1626 63.4539 41.0023 63.5271 40.8365 63.5861V92.3494L51.1323 74.5949C50.6155 74.0026 50.3589 73.3122 50.3589 72.5199C50.3545 72.1242 50.4285 71.7315 50.5766 71.3645L50.5777 71.3655V71.3617ZM38.6333 63.5899C38.1896 63.4203 37.788 63.1564 37.4562 62.8165C37.1162 62.4847 36.8524 62.0831 36.6828 61.6394H22.0559C21.9201 61.9967 21.7207 62.3265 21.4674 62.6127L38.6333 92.3305V63.5899Z" fill="white"/>
</svg>
