<svg width="120" height="120" viewBox="0 0 120 120" fill="none" xmlns="http://www.w3.org/2000/svg">
<circle cx="60" cy="60" r="60" fill="#EDF0F4"/>
<circle cx="44.3975" cy="60.3975" r="24.3975" fill="url(#paint0_linear)"/>
<circle cx="41.5725" cy="66.8228" r="1.82831" fill="black"/>
<circle cx="46.9719" cy="66.8228" r="1.82831" fill="black"/>
<circle cx="52.3703" cy="66.8228" r="1.82831" fill="black"/>
<circle cx="57.7727" cy="66.8228" r="1.82831" fill="black"/>
<circle cx="63.175" cy="66.8228" r="1.82831" fill="black"/>
<circle cx="68.5744" cy="66.8228" r="1.82831" fill="black"/>
<circle cx="73.9768" cy="66.8228" r="1.82831" fill="black"/>
<circle cx="79.3752" cy="66.8228" r="1.82831" fill="black"/>
<circle cx="84.7736" cy="66.8228" r="1.82831" fill="black"/>
<circle cx="87.7823" cy="72.2966" r="1.25884" fill="black"/>
<circle cx="82.2002" cy="72.2966" r="1.25884" fill="black"/>
<circle cx="76.6211" cy="72.2966" r="1.25884" fill="black"/>
<circle cx="71.043" cy="72.2966" r="1.25884" fill="black"/>
<circle cx="65.461" cy="72.2966" r="1.25884" fill="black"/>
<circle cx="59.878" cy="72.2966" r="1.25884" fill="black"/>
<circle cx="54.2999" cy="72.2966" r="1.25884" fill="black"/>
<circle cx="48.7168" cy="72.2966" r="1.25884" fill="black"/>
<circle cx="43.1387" cy="72.2966" r="1.25884" fill="black"/>
<circle cx="90.7458" cy="76.1442" r="1.22137" fill="black"/>
<circle cx="85.0847" cy="76.1442" r="1.22137" fill="black"/>
<circle cx="79.4235" cy="76.1442" r="1.22137" fill="black"/>
<circle cx="73.7663" cy="76.1442" r="1.22137" fill="black"/>
<circle cx="68.1061" cy="76.1442" r="1.22137" fill="black"/>
<circle cx="62.445" cy="76.1442" r="1.22137" fill="black"/>
<circle cx="56.7878" cy="76.1442" r="1.22137" fill="black"/>
<circle cx="51.1266" cy="76.1442" r="1.22137" fill="black"/>
<circle cx="45.4655" cy="76.1442" r="1.22137" fill="black"/>
<circle cx="94.6907" cy="80.0257" r="0.93289" fill="black"/>
<circle cx="88.9554" cy="80.0257" r="0.93289" fill="black"/>
<circle cx="83.219" cy="80.0257" r="0.93289" fill="black"/>
<circle cx="77.4866" cy="80.0257" r="0.93289" fill="black"/>
<circle cx="71.7513" cy="80.0257" r="0.93289" fill="black"/>
<circle cx="66.0149" cy="80.0257" r="0.93289" fill="black"/>
<circle cx="60.2796" cy="80.0257" r="0.93289" fill="black"/>
<circle cx="54.5471" cy="80.0257" r="0.93289" fill="black"/>
<circle cx="48.8108" cy="80.0257" r="0.93289" fill="black"/>
<circle cx="99.284" cy="83.4838" r="0.71559" fill="black"/>
<circle cx="93.5037" cy="83.4838" r="0.71559" fill="black"/>
<circle cx="87.7185" cy="83.4838" r="0.71559" fill="black"/>
<circle cx="81.9382" cy="83.4838" r="0.71559" fill="black"/>
<circle cx="76.157" cy="83.4838" r="0.71559" fill="black"/>
<circle cx="70.3718" cy="83.4838" r="0.71559" fill="black"/>
<circle cx="64.5916" cy="83.4838" r="0.71559" fill="black"/>
<circle cx="58.8103" cy="83.4838" r="0.71559" fill="black"/>
<circle cx="53.0261" cy="83.4838" r="0.71559" fill="black"/>
<circle cx="38.9424" cy="61.6563" r="1.25884" fill="black"/>
<circle cx="44.5215" cy="61.6563" r="1.25884" fill="black"/>
<circle cx="50.1036" cy="61.6563" r="1.25884" fill="black"/>
<circle cx="55.6817" cy="61.6563" r="1.25884" fill="black"/>
<circle cx="61.2647" cy="61.6563" r="1.25884" fill="black"/>
<circle cx="66.8467" cy="61.6563" r="1.25884" fill="black"/>
<circle cx="72.4258" cy="61.6563" r="1.25884" fill="black"/>
<circle cx="78.0079" cy="61.6563" r="1.25884" fill="black"/>
<circle cx="83.586" cy="61.6563" r="1.25884" fill="black"/>
<circle cx="35.9792" cy="57.8087" r="1.22137" fill="black"/>
<circle cx="41.6403" cy="57.8087" r="1.22137" fill="black"/>
<circle cx="47.3015" cy="57.8087" r="1.22137" fill="black"/>
<circle cx="52.9587" cy="57.8087" r="1.22137" fill="black"/>
<circle cx="58.6198" cy="57.8087" r="1.22137" fill="black"/>
<circle cx="64.277" cy="57.8087" r="1.22137" fill="black"/>
<circle cx="69.9382" cy="57.8087" r="1.22137" fill="black"/>
<circle cx="75.5983" cy="57.8087" r="1.22137" fill="black"/>
<circle cx="81.2556" cy="57.8087" r="1.22137" fill="black"/>
<circle cx="32.0335" cy="53.9273" r="0.93289" fill="black"/>
<circle cx="37.7698" cy="53.9273" r="0.93289" fill="black"/>
<circle cx="43.5061" cy="53.9273" r="0.93289" fill="black"/>
<circle cx="49.2376" cy="53.9273" r="0.93289" fill="black"/>
<circle cx="54.9739" cy="53.9273" r="0.93289" fill="black"/>
<circle cx="60.7102" cy="53.9273" r="0.93289" fill="black"/>
<circle cx="66.4456" cy="53.9273" r="0.93289" fill="black"/>
<circle cx="72.178" cy="53.9273" r="0.93289" fill="black"/>
<circle cx="77.9143" cy="53.9273" r="0.93289" fill="black"/>
<circle cx="27.4402" cy="50.4691" r="0.71559" fill="black"/>
<circle cx="33.2215" cy="50.4691" r="0.71559" fill="black"/>
<circle cx="39.0027" cy="50.4691" r="0.71559" fill="black"/>
<circle cx="44.7869" cy="50.4691" r="0.71559" fill="black"/>
<circle cx="50.5681" cy="50.4691" r="0.71559" fill="black"/>
<circle cx="56.3523" cy="50.4691" r="0.71559" fill="black"/>
<circle cx="62.1336" cy="50.4691" r="0.71559" fill="black"/>
<circle cx="67.9148" cy="50.4691" r="0.71559" fill="black"/>
<circle cx="73.699" cy="50.4691" r="0.71559" fill="black"/>
<defs>
<linearGradient id="paint0_linear" x1="8.49061" y1="84.8643" x2="57.4242" y2="84.8643" gradientUnits="userSpaceOnUse">
<stop stop-color="#3B007F"/>
<stop offset="1" stop-color="#AA003D"/>
</linearGradient>
</defs>
</svg>
