<svg width="120" height="120" viewBox="0 0 120 120" fill="none" xmlns="http://www.w3.org/2000/svg">
<circle cx="60" cy="60" r="60" fill="black"/>
<path fill-rule="evenodd" clip-rule="evenodd" d="M76.5053 40.0662C86.491 40.9421 94.3744 49.0008 94.9 58.9865C94.3744 42.5188 80.7098 29.3797 64.0669 29.9053C54.2564 30.2556 45.1466 35.1609 39.891 43.3947C40.7669 33.409 48.8256 25.5256 58.8113 25C42.1684 25.7008 29.3797 39.891 30.0805 56.5338C30.4308 65.994 35.3361 74.7534 43.2195 80.009C33.2338 79.1331 25.5256 71.0744 25 61.0887C25.3504 77.5564 39.1902 90.6955 55.6579 90.3451C65.4684 90.1699 74.403 85.0895 79.8338 77.0308C78.9579 86.8414 70.8992 94.5496 61.0887 95.0752C77.5564 94.5496 90.5203 80.7098 89.9947 64.0669C89.6444 54.4316 84.7391 45.3218 76.5053 40.0662ZM59.8624 72.6511C56.5338 72.6511 53.3805 71.4248 51.103 68.9722C46.1977 64.0669 46.3729 56.1835 51.103 51.4534C55.8331 46.7233 63.8917 46.7233 68.6218 51.4534C73.3519 56.1835 73.3519 64.2421 68.6218 68.9722C66.3444 71.4248 63.191 72.6511 59.8624 72.6511Z" fill="#94FEBF"/>
</svg>
