<svg width="120" height="120" viewBox="0 0 120 120" fill="none" xmlns="http://www.w3.org/2000/svg">
<circle cx="60" cy="60" r="60" fill="#EDF0F4"/>
<path fill-rule="evenodd" clip-rule="evenodd" d="M72.6426 70.0667L84.9849 80.5707V80.3081C86.0353 78.9951 87.0857 77.4195 88.1361 75.8439L74.2182 67.7032C73.693 68.4911 73.1678 69.2789 72.6426 70.0667Z" fill="url(#paint0_linear)"/>
<path fill-rule="evenodd" clip-rule="evenodd" d="M76.318 59.5626H92.3367V59.8252C92.3367 61.4008 92.0741 62.9764 91.8115 64.552V65.0772V65.6024C91.5489 67.178 91.0237 68.7536 90.4985 70.3293V70.5919L75.2676 65.0772C76.0554 63.5016 76.318 61.6634 76.318 59.5626Z" fill="url(#paint1_linear)"/>
<path fill-rule="evenodd" clip-rule="evenodd" d="M88.3978 43.2813C89.1856 44.8569 89.9734 46.4325 90.4986 48.0081L90.7612 48.2707V48.5333C91.2864 50.1089 91.8116 51.6846 92.0742 53.2602V53.5228L76.3181 56.4114C75.7929 53.5228 74.7425 50.8967 72.9043 48.7959L85.2466 38.2919V38.5545C86.297 40.1301 87.3474 41.7057 88.3978 43.2813Z" fill="url(#paint2_linear)"/>
<path fill-rule="evenodd" clip-rule="evenodd" d="M63.1894 43.5439C62.139 43.2813 61.3512 43.2813 60.3008 43.2813V27C62.139 27 63.9772 27.2626 65.8154 27.5252C67.6536 27.7878 69.2292 28.313 71.0674 28.8382C72.6431 29.3634 74.4813 30.1512 76.0569 31.2016C77.6325 31.9894 78.9455 33.0398 80.5211 34.3528H80.7837L70.5422 46.6951C69.2292 45.3821 67.391 44.5943 65.8154 43.8065C65.0276 43.8065 63.9772 43.5439 63.1894 43.5439Z" fill="url(#paint3_linear)"/>
<path fill-rule="evenodd" clip-rule="evenodd" d="M60.3 43.2813V27C42.1805 27 28 41.4431 28 59.5626C28 77.6821 42.4431 92.1252 60.3 92.1252C69.7537 92.1252 78.9447 87.9236 84.9846 80.5707L72.6423 70.0667C69.7537 73.7431 65.0268 75.8439 60.3 75.8439C51.3715 75.8439 44.0187 68.4911 44.0187 59.5626C44.0187 50.6341 51.3715 43.2813 60.3 43.2813ZM90.7618 70.5919L75.5309 65.0772C75.3747 65.7021 75.1255 66.234 74.894 66.7283C74.7364 67.0649 74.5869 67.3841 74.4805 67.7033L88.3984 75.8439C88.6943 75.1535 89.0272 74.5001 89.3554 73.856L89.3555 73.8559C89.9012 72.785 90.4339 71.7396 90.7618 70.5919ZM92.0748 53.7854L92.0748 53.7855C92.3374 55.6237 92.6 57.4618 92.6 59.5626H76.5813C76.5813 58.5122 76.5813 57.7244 76.3187 56.674L92.0748 53.7854ZM82.4169 35.9285C81.95 35.4908 81.4832 35.0531 81.0455 34.6154L70.5415 46.9577C70.8146 47.2308 71.0877 47.4724 71.3499 47.7043C71.844 48.1413 72.2992 48.5439 72.6423 49.0585L84.9846 38.5545C84.2843 37.6791 83.3506 36.8038 82.4169 35.9285Z" fill="#1D2667"/>
<defs>
<linearGradient id="paint0_linear" x1="79.2778" y1="69.6077" x2="75.5043" y2="75.0593" gradientUnits="userSpaceOnUse">
<stop stop-color="white" stop-opacity="0.01"/>
<stop offset="1" stop-opacity="0.1"/>
</linearGradient>
<linearGradient id="paint1_linear" x1="82.2646" y1="62.2525" x2="80.8175" y2="66.5159" gradientUnits="userSpaceOnUse">
<stop stop-color="white" stop-opacity="0.01"/>
<stop offset="1" stop-opacity="0.1"/>
</linearGradient>
<linearGradient id="paint2_linear" x1="73.6162" y1="48.2279" x2="79.7473" y2="58.9105" gradientUnits="userSpaceOnUse">
<stop stop-color="white" stop-opacity="0.01"/>
<stop offset="1" stop-opacity="0.1"/>
</linearGradient>
<linearGradient id="paint3_linear" x1="53.5928" y1="39.916" x2="70.8719" y2="53.1622" gradientUnits="userSpaceOnUse">
<stop stop-color="white" stop-opacity="0.01"/>
<stop offset="1" stop-opacity="0.1"/>
</linearGradient>
</defs>
</svg>
