<svg width="120" height="120" viewBox="0 0 120 120" fill="none" xmlns="http://www.w3.org/2000/svg">
<path fill-rule="evenodd" clip-rule="evenodd" d="M60 120C27 120 0 93.0006 0 59.7012C0.3 26.7019 27 -0.297518 60.3 0.00247602C93.3 0.30247 120 27.0019 120 60.6012C119.7 93.3006 93 120 60 120Z" fill="#FC070C"/>
<path fill-rule="evenodd" clip-rule="evenodd" d="M102.75 47.306C101.112 45.7941 99.2138 43.9508 97.2355 42.03L97.2351 42.0296C94.4565 39.3317 91.5204 36.481 88.9292 34.1811L88.6667 33.9973C88.2299 33.6466 87.7375 33.3715 87.2098 33.1836L85.2099 32.8105C71.4102 30.2356 26.6789 21.8892 25.7587 22.0011C25.4866 22.0392 25.2265 22.1379 24.9975 22.2899L24.7481 22.4867C24.4411 22.7986 24.2078 23.1753 24.0656 23.5892L24 23.7599V24.6917V24.8361C27.0369 33.2924 34.9258 52.1773 42.2099 69.6145L42.21 69.6147L42.2102 69.6151L42.2103 69.6154C48.3685 84.3571 54.0943 98.064 56.0905 103.56L56.0913 103.562C56.354 104.376 56.8526 105.922 57.7836 106.001H57.9936C58.4924 106.001 60.6186 103.192 60.6186 103.192C60.6186 103.192 98.6285 57.0973 102.474 52.1885C102.972 51.5839 103.411 50.9335 103.787 50.246C103.981 49.1519 103.588 48.0358 102.75 47.306ZM70.3705 52.6741L86.5929 39.2211L96.1085 47.9885L70.3705 52.6741ZM36.1406 28.9048L64.0705 51.7948L81.3298 37.2392L36.1406 28.9048ZM66.5905 57.7929L95.1767 53.186L62.4955 92.5609L66.5905 57.7929ZM61.7343 56.126L32.3475 31.1886L57.4818 92.5871L61.7343 56.126Z" fill="white"/>
</svg>
