<svg width="120" height="120" viewBox="0 0 120 120" fill="none" xmlns="http://www.w3.org/2000/svg">
<path d="M60 0C93.1371 0 120 26.8629 120 60C120 93.1371 93.1371 120 60 120C26.8629 120 0 93.1371 0 60C0 26.8629 26.8629 0 60 0Z" fill="#FFE81C"/>
<path d="M98.9895 32.5474L91.9301 55.4777H74.1838L71.4444 57.5657L61.8272 97.368H35.1015L40.1004 82.5051L40.4775 81.0548L29.5438 89.3554L44.681 67.3543L48.2432 55.4777H24.0615L31.0558 32.5474H61.3438H63.6924L76.1004 24.6L71.0398 32.5474H98.9895Z" fill="#3F3F3F"/>
<path d="M89.4647 52.0457L94.4875 36.6069H72.147L65.9893 46.68L80.043 51.9806L89.4647 52.0457Z" fill="#FFE81C"/>
<path d="M40.6597 77.6777L72.4871 53.5577L58.4334 47.6468L59.294 46.2514L67.6871 33.096L67.7522 32.9657L43.6357 48.4183L56.2562 55.008L40.6597 77.6777Z" fill="#FFE81C"/>
<path d="M58.512 92.8937L65.6366 65.6812L44.472 82.1657L41.04 92.88H58.512V92.8937Z" fill="#FFE81C"/>
<path d="M34.6971 48.8469L53.7874 36.6583L33.3154 36.6069L28.5771 51.9669L42.2126 52.0457L34.6971 48.8469Z" fill="#FFE81C"/>
</svg>
