<svg width="120" height="120" viewBox="0 0 120 120" fill="none" xmlns="http://www.w3.org/2000/svg">
<circle cx="60" cy="60" r="60" fill="#EDF0F4"/>
<path fill-rule="evenodd" clip-rule="evenodd" d="M27.3844 36.9438C25 41.625 25 47.75 25 60C25 72.25 25 78.375 27.3844 83.0563C29.4844 87.1688 32.8313 90.5156 36.9438 92.6156C41.625 95 47.75 95 60 95C72.25 95 78.375 95 83.0563 92.6156C87.1688 90.5156 90.5156 87.1688 92.6156 83.0563C95 78.375 95 72.25 95 60C95 47.75 95 41.625 92.6156 36.9438C90.5156 32.8313 87.1688 29.4844 83.0563 27.3844C78.375 25 72.25 25 60 25C47.75 25 41.625 25 36.9438 27.3844C32.8313 29.4844 29.4844 32.8313 27.3844 36.9438ZM77.4672 43.8781C78.0797 43.8781 78.6594 44.1297 79.0861 44.5563C79.5125 44.9938 79.7533 45.5844 79.7422 46.1859C79.633 52.7047 79.3813 57.6922 78.9111 61.6406C78.4516 65.5891 77.7625 68.5203 76.7236 70.8938C76.0236 72.4797 75.1594 73.7922 74.1422 74.9078C72.775 76.3844 71.2111 77.4563 69.5047 78.4736C68.7752 78.9098 68.0168 79.3404 67.2212 79.7923C65.5237 80.7563 63.6573 81.8162 61.5422 83.2313C60.7766 83.7453 59.7813 83.7453 59.0158 83.2313C56.8682 81.7997 54.9771 80.7266 53.2642 79.7549C52.8832 79.5388 52.5111 79.3277 52.1469 79.1188C50.1455 77.9594 48.3408 76.8547 46.7658 75.2578C45.7158 74.2078 44.808 72.9281 44.0861 71.4078C43.1017 69.3734 42.4345 66.9125 41.9423 63.7297C41.286 59.475 40.9579 53.9078 40.8376 46.1859C40.8266 45.5844 41.0563 44.9938 41.4829 44.5563C41.9095 44.1297 42.5001 43.8781 43.1126 43.8781H44.0533C46.9516 43.8891 53.35 43.6047 58.8844 39.2953C59.7047 38.6609 60.8533 38.6609 61.6736 39.2953C67.208 43.6047 73.6063 43.8891 76.5158 43.8781H77.4672ZM72.3813 69.4391C73.0922 67.9734 73.683 65.95 74.1313 63.0406C74.6672 59.5625 74.9955 54.8375 75.1486 48.4063C71.7361 48.3078 65.8736 47.6516 60.2844 43.8891C54.6955 47.6406 48.833 48.2969 45.4313 48.4063C45.5516 53.7219 45.7922 57.8563 46.175 61.1047C46.6125 64.8016 47.2361 67.3063 48.0125 69.0672C48.5266 70.2375 49.0955 71.0797 49.7736 71.8234C50.6813 72.8188 51.8297 73.6391 53.3938 74.5797C54.0426 74.9689 54.7579 75.3738 55.5366 75.8147C56.9239 76.5998 58.5121 77.4987 60.2844 78.6266C62.0241 77.5171 63.5895 76.6274 64.9606 75.848C65.374 75.6131 65.7695 75.3882 66.1469 75.1703C68.0719 74.0656 69.4938 73.1469 70.5547 72.075C71.2658 71.3422 71.8455 70.5438 72.3813 69.4391Z" fill="#3375BB"/>
</svg>
