<svg width="120" height="120" viewBox="0 0 120 120" fill="none" xmlns="http://www.w3.org/2000/svg">
<circle cx="60" cy="60" r="60" fill="#374851"/>
<path fill-rule="evenodd" clip-rule="evenodd" d="M72.125 84.87V96.1566C87.1438 91.2632 98 77.1456 98 60.497C98 39.7874 81.2113 23 60.5 23C39.7887 23 23 39.7874 23 60.497C23 77.1456 33.8562 91.2632 48.875 96.1566V84.87C37.4886 79.4387 31.3814 66.8472 34.1659 54.5437C36.9504 42.2403 47.8844 33.5049 60.5 33.5049C73.1156 33.5049 84.0496 42.2403 86.8341 54.5437C89.6186 66.8472 83.5114 79.4387 72.125 84.87ZM66.875 86.7373V58.2471H80V47.748H41V58.2471H54.125V97.4539C59.1047 98.3119 64.2063 98.1576 69.125 97.0002V86.0886C68.39 86.3361 67.64 86.5498 66.875 86.7373Z" fill="white"/>
</svg>
