<svg width="120" height="120" viewBox="0 0 120 120" fill="none" xmlns="http://www.w3.org/2000/svg">
<circle cx="60" cy="60" r="60" fill="#AD7DE2"/>
<path d="M55.3385 39.2758H64.5079V57.6146C64.5079 59.476 64.0253 60.5791 63.3359 61.2686C62.6464 62.1648 61.4744 62.6474 59.8887 62.6474C58.303 62.6474 57.3378 62.1648 56.4416 61.2686C55.7521 60.3723 55.2695 59.2003 55.2695 57.6146V39.2758H55.3385Z" fill="white"/>
<path d="M82.916 58.0972C82.916 64.7847 80.8477 70.7138 76.5043 75.0572C72.1609 79.1938 66.6455 81.262 59.958 81.262C53.2705 81.262 47.824 79.4006 43.4117 75.0572C38.9993 70.7138 37 64.7157 37 58.0972V39.2758H46.1694V58.0972C46.1694 62.9232 47.5483 66.1635 49.8234 68.2318C52.0985 70.5069 55.3388 71.679 59.958 71.679C64.784 71.679 67.7486 70.3001 70.0926 68.2318C72.3677 65.9567 73.7466 62.7164 73.7466 57.8904V39H82.916V58.0972Z" fill="white"/>
</svg>
