<svg width="120" height="120" viewBox="0 0 120 120" fill="none" xmlns="http://www.w3.org/2000/svg">
<circle cx="60" cy="60" r="60" fill="#EDF0F4"/>
<path d="M39.6732 52.1007C44.0387 51.3756 48.1311 51.6189 52.2048 52.6995C53.9079 53.1513 55.5975 53.7454 57.3598 54.4924L57.4991 54.5517L57.5952 54.5929L57.6913 54.6343L57.7874 54.6759L57.9315 54.7388L58.0759 54.8023L58.2204 54.8664L58.3653 54.9311L58.5105 54.9965L58.6563 55.0627L58.7538 55.1072L58.9005 55.1746L58.9987 55.22L59.1467 55.2888L59.2956 55.3584L59.4454 55.429L59.5458 55.4766L59.6467 55.5246L59.799 55.5975L59.9526 55.6714L60.1075 55.7464L60.2115 55.797L60.3688 55.8738L60.5276 55.9519L60.6344 56.0046L60.796 56.0846L60.9047 56.1387L61.1246 56.2487L61.2917 56.3327L61.5178 56.4468L61.6899 56.5341L61.9229 56.6528L62.2551 56.8229L62.4439 56.9192L62.6308 57.014C62.6618 57.0297 62.6928 57.0453 62.7236 57.0609L62.9078 57.1535C63.03 57.2147 63.1511 57.2749 63.271 57.3342L63.45 57.4223C66.0043 58.6758 68.0505 59.4865 70.1035 60.037C72.7322 60.7418 75.4343 61.0208 78.6721 60.8938C81.7377 60.7737 84.2289 60.2681 86.3135 59.4253C87.97 58.7556 89.3195 57.9055 90.6956 56.7528L90.7386 56.7166L92.9927 59.3942C91.3362 60.7887 89.6685 61.8441 87.6253 62.6702C85.1533 63.6695 82.2654 64.2557 78.8092 64.3912C75.2291 64.5315 72.176 64.2163 69.1971 63.4176C66.5601 62.7106 63.9942 61.6441 60.6634 59.9401L60.3925 59.8013L60.1149 59.6597L59.8433 59.5221L59.6832 59.4414L59.5251 59.362L59.3689 59.284L59.1635 59.1818L59.0115 59.1067L58.8611 59.0327L58.7123 58.9599L58.565 58.8883L58.4676 58.8411L58.3226 58.7712L58.2267 58.7252L58.0838 58.657L57.942 58.5898L57.8482 58.5455L57.7547 58.5016L57.6617 58.4582L57.5691 58.4151L57.4309 58.3512L57.2935 58.288L57.2023 58.2464L57.066 58.1846L56.9302 58.1234L56.84 58.0831L56.75 58.043L56.6153 57.9834L56.5256 57.9441L56.3466 57.8661L56.2126 57.8082L56.0786 57.7509C54.4297 57.0481 52.8674 56.4963 51.3074 56.0825C47.7005 55.1257 44.1076 54.9121 40.2467 55.5534C37.2373 56.0533 34.7639 56.9703 32.7696 58.1765C31.7074 58.819 30.8551 59.499 30.1944 60.1685L30.1474 60.2164C30.1397 60.2243 30.1321 60.2322 30.1245 60.2401L30.0794 60.287L30.0357 60.3332C30.0285 60.3408 30.0214 60.3484 30.0143 60.356L29.9724 60.4012C29.9655 60.4087 29.9587 60.4161 29.9519 60.4235L29.9119 60.4676L29.8732 60.511C29.8668 60.5182 29.8605 60.5253 29.8543 60.5324L29.8173 60.5747L29.7817 60.6162L29.7472 60.6569C29.7416 60.6637 29.736 60.6703 29.7305 60.677L29.6978 60.7165C29.6925 60.7231 29.6872 60.7296 29.682 60.736L29.6512 60.7743L29.6311 60.7997L29.6034 60.8354L29.5865 60.8574L29.5709 60.8782L29.5565 60.8976L29.5369 60.9248L29.5295 60.9351L29.5368 60.924L26.6069 59.0095L26.627 58.9792L26.6493 58.9464L26.6655 58.923L26.6918 58.8859L26.7106 58.8598L26.7304 58.8325L26.7622 58.7896L26.7847 58.7596L26.8204 58.7127L26.8586 58.6634L26.8854 58.6293L26.9132 58.5941C27.1302 58.3216 27.3927 58.0247 27.7031 57.7102C28.5631 56.8387 29.6424 55.9776 30.9582 55.1817C33.3316 53.7462 36.2249 52.6735 39.6732 52.1007Z" fill="#00F5FF"/>
<path fill-rule="evenodd" clip-rule="evenodd" d="M25 60L60 25L95 60L60 95L25 60ZM60 28.5L28.5 60L60 91.5L91.5 60L60 28.5Z" fill="#00F5FF"/>
<path fill-rule="evenodd" clip-rule="evenodd" d="M71.6669 65.565C71.6669 67.9009 70.7862 69.8805 69.0248 71.5038C67.2634 73.1271 64.6807 74.0292 61.2768 74.21V79.4436H59.0368V74.2562C56.857 74.1346 54.8037 73.7023 52.8768 72.9591C50.95 72.2159 49.4355 71.2679 48.3335 70.115L49.6323 67.5212C50.6774 68.5525 52.0434 69.4171 53.7301 70.115C55.4197 70.8134 57.2129 71.2286 59.0375 71.3439V59.3739C56.9772 58.858 55.2603 58.3047 53.8869 57.7142C52.5135 57.1236 51.3715 56.2589 50.4608 55.12C49.5508 53.9825 49.0958 52.4731 49.0958 50.592C49.0958 48.2559 49.9318 46.2914 51.6039 44.6987C53.276 43.106 55.7541 42.1726 59.0382 41.8987V36.6666H61.2782V41.8543C62.9581 41.9113 64.6227 42.1945 66.2269 42.6964C67.8243 43.1969 69.2052 43.8567 70.3695 44.676L69.2495 47.3608C68.035 46.5765 66.7258 45.9495 65.3533 45.495C63.9799 45.04 62.6214 44.7821 61.2779 44.7215V56.78C63.4871 57.326 65.2934 57.8797 66.6969 58.4411C68.0751 58.9852 69.2922 59.8709 70.2337 61.015C71.1892 62.1667 71.6669 63.6834 71.6669 65.565ZM52.3644 50.501C52.3644 52.0783 52.9391 53.2767 54.0885 54.0962C55.2379 54.9157 56.8876 55.6135 59.0375 56.1896V44.8125C56.8281 44.9945 55.1635 45.6088 54.0437 46.6556C52.924 47.7023 52.3642 48.9841 52.3644 50.501ZM66.6063 69.569C65.4119 70.57 63.6354 71.1616 61.2768 71.3439L61.2765 59.9668C63.5758 60.5433 65.3374 61.2411 66.5615 62.0601C67.7856 62.8791 68.3976 64.1078 68.3976 65.7463C68.3978 67.2938 67.8007 68.568 66.6063 69.569Z" fill="#00F5FF"/>
<path d="M60.1946 93.2679L27.1875 60.1869C27.1875 60.1869 34.2823 54.7941 42.5644 52.762C50.8465 50.7299 57.0831 54.7973 62.6268 58.9997C68.1704 63.2022 72.3372 64.2683 78.8825 63.8892C85.4278 63.5102 93.2013 60.1869 93.2013 60.1869L60.1946 93.2679Z" fill="#00F5FF"/>
<path fill-rule="evenodd" clip-rule="evenodd" d="M71.6669 65.4043C71.6672 67.7407 70.7865 69.7203 69.0248 71.3431C67.2634 72.9664 64.6815 73.8691 61.2793 74.0511V79.285H59.0393V74.098C56.8581 73.9764 54.8048 73.5441 52.8793 72.8009C50.9538 72.0577 49.4386 71.1097 48.3335 69.9568L49.6323 67.3626C50.6774 68.3942 52.0434 69.2589 53.7301 69.9568C55.4198 70.6549 57.213 71.07 59.0375 71.1853V59.2153C56.9774 58.6996 55.2603 58.1459 53.8862 57.5542C52.5121 56.9625 51.3701 56.0978 50.4601 54.9603C49.8593 54.2095 49.4566 53.2968 49.2522 52.2223C50.6571 52.4203 52.0352 52.7758 53.3605 53.2821C53.5766 53.5278 53.8207 53.7474 54.0878 53.9362C55.1171 54.6698 56.5475 55.3061 58.3792 55.8451C59.8506 56.7747 61.2614 57.8034 62.6264 58.8397C65.8149 61.2565 68.56 62.9939 71.5619 63.9616C71.6335 64.4392 71.6686 64.9215 71.6669 65.4043ZM61.2768 71.1839C63.6356 71.0021 65.4121 70.4105 66.6063 69.409C67.8005 68.408 68.3977 67.1338 68.3979 65.5863C68.3984 63.9479 67.7864 62.7191 66.5618 61.9001C65.3373 61.0811 63.5756 60.3834 61.2768 59.8068V71.1839Z" fill="black"/>
</svg>
