<svg width="120" height="120" viewBox="0 0 120 120" fill="none" xmlns="http://www.w3.org/2000/svg">
<path d="M60 120C93.138 120 120 93.138 120 60C120 26.862 93.138 0 60 0C26.862 0 0 26.862 0 60C0 93.138 26.862 120 60 120Z" fill="#EDF0F4"/>
<path d="M56.7172 81.9066C53.3238 76.9296 55.6803 72.1035 57.2828 70.3125C58.8664 68.5027 62.8442 66.1651 64.6352 65.2224C71.9875 66.9191 86.7488 70.765 86.975 72.5748C87.2578 74.837 85.5611 76.7472 82.4505 79.6443C79.3399 82.5415 70.5736 89.2587 67.463 89.8243C64.3524 90.3899 60.959 88.1276 56.7172 81.9066Z" fill="#2D46A9"/>
<path d="M47.1019 48.821C43.0298 46.785 40.8807 41.1859 40.3151 38.6409C39.3725 38.9236 37.9398 38.6974 39.7496 35.5302C42.0118 31.5713 60.1099 26.1984 71.4212 30.7229C80.4703 34.3426 83.2981 38.8294 83.5809 40.6203C73.1179 44.2022 51.174 50.8571 47.1019 48.821Z" fill="#2D46A9"/>
<path d="M38.8813 63.2167C36.1666 59.5971 30.9634 52.2825 28.7011 49.0776C28.1355 50.5858 27.0044 54.4504 27.0044 57.8438C27.0044 62.0856 26.7216 70.2863 30.6806 77.3558C33.8478 83.0115 42.1804 88.196 45.9509 90.0811C46.3279 88.8555 46.9123 85.3303 46.2336 81.032C45.3853 75.6591 42.2747 67.7412 38.8813 63.2167Z" fill="#6294F1"/>
<path d="M45.9506 55.8644C42.5572 48.512 49.6268 42.5736 54.7168 39.7457C57.9217 38.049 65.9716 34.6557 72.5322 34.6557C80.7328 34.6557 85.8229 39.7457 88.9335 47.0981C92.0442 54.4504 93.7409 65.7618 89.7819 70.5691C85.8229 75.3764 75.0772 71.7002 70.5527 69.7207C66.0281 67.7412 49.344 63.2167 45.9506 55.8644Z" fill="#6294F1"/>
<path d="M41.7088 42.2908C37.6367 44.3268 32.4712 45.5899 30.3975 45.967C31.5286 43.8932 34.3564 39.1802 36.6187 36.9179C39.4465 34.0901 44.8194 30.9795 48.2128 30.9795C51.6062 30.9795 50.7578 34.0901 49.6267 35.7868C48.4956 37.4835 46.7989 39.7457 41.7088 42.2908Z" fill="#6294F1"/>
<path d="M70.553 88.9499C68.9694 87.1401 71.9669 83.6713 73.6636 82.1632C76.1521 80.3533 84.1266 77.4501 87.8027 76.2247C86.3888 78.3927 82.8823 83.2943 80.1676 85.5565C76.7742 88.3844 72.5325 91.2122 70.553 88.9499Z" fill="#6294F1"/>
</svg>
