<svg width="120" height="120" viewBox="0 0 120 120" fill="none" xmlns="http://www.w3.org/2000/svg">
<circle cx="60" cy="60" r="60" fill="url(#paint0_linear)"/>
<mask id="mask0" style="mask-type:alpha" maskUnits="userSpaceOnUse" x="0" y="0" width="120" height="120">
<circle cx="60" cy="60" r="60" fill="white"/>
</mask>
<g mask="url(#mask0)">
<path d="M85.3799 0H149.34L149.4 126L22.4399 125.22L85.3799 0Z" fill="url(#paint1_linear)"/>
</g>
<path fill-rule="evenodd" clip-rule="evenodd" d="M98 33L63.4742 101.17L63.4399 101.239L63.4226 101.28C62.9156 102.446 61.9342 102.989 60.5731 103L60.5304 103H60.4706C59.0735 103 58.0708 102.447 57.5633 101.244L57.5611 101.239L57.5296 101.175L23 33.0603L40.1064 33.0604L40.2592 33.061L40.3669 33.0622L40.4356 33.0634L40.5019 33.065L40.5659 33.0669L40.6279 33.0692L40.6878 33.072L40.7459 33.0752L40.7743 33.077L40.8297 33.081L40.8835 33.0854L40.9099 33.0879L40.9615 33.0933L40.9869 33.0961L41.0366 33.1024L41.0852 33.1093L41.1327 33.1169C41.1484 33.1195 41.164 33.1223 41.1794 33.1252L41.2252 33.1342C41.3768 33.1655 41.5171 33.2095 41.6652 33.271C42.0349 33.4244 42.3445 33.6745 42.5684 34.0109C42.6898 34.1935 42.7723 34.3743 42.836 34.5729L42.8446 34.6005L60.4695 69.2144L78.0549 34.6223L78.057 34.6157L78.0631 34.5935C78.2382 33.9594 78.696 33.4955 79.299 33.248L79.327 33.2368C79.7554 33.067 80.2519 33 80.867 33H98ZM28.0791 36.1952L60.2986 99.7533L60.3527 99.8623L60.3844 99.8637L60.4257 99.8648L60.4706 99.8651H60.5304L60.5753 99.8648L60.6167 99.8637L60.6483 99.8623L60.6991 99.7599L92.923 36.1348L80.838 36.135C80.8189 36.1351 80.8003 36.1353 80.7822 36.1356L80.7775 36.1357L60.4717 76.0791L40.1635 36.1954L28.0791 36.1952Z" fill="white"/>
<path d="M70.3152 33C68.9845 33 68.5611 33.1812 67.9562 34.3896L53.3793 62.9667L38.8023 34.3896C38.4998 33.3021 37.774 33.6042 36.4433 33.6042H24.1043C23.4995 33.6042 22.8946 34.2688 23.0156 34.6917L50.9598 89.4896C51.3832 90.4562 52.1695 91 53.3793 91H53.4397C54.6494 91 55.4962 90.5167 55.8592 89.4896L83.8639 34.3896C84.0454 33.9667 84.0454 33.6646 83.8639 33.4229C83.6824 33.1813 83.2591 33 82.7752 33H70.3152Z" fill="white"/>
<defs>
<linearGradient id="paint0_linear" x1="-41.46" y1="25.08" x2="-41.46" y2="108" gradientUnits="userSpaceOnUse">
<stop stop-color="#5B62FE"/>
<stop offset="1" stop-color="#3831AB"/>
</linearGradient>
<linearGradient id="paint1_linear" x1="-8760.69" y1="18.45" x2="-8760.69" y2="103.752" gradientUnits="userSpaceOnUse">
<stop stop-color="#1F1B55" stop-opacity="0.98"/>
<stop offset="1" stop-color="#493ED1"/>
</linearGradient>
</defs>
</svg>
