<svg width="120" height="120" viewBox="0 0 120 120" fill="none" xmlns="http://www.w3.org/2000/svg">
<circle cx="60" cy="60" r="60" fill="#338BE5"/>
<path fill-rule="evenodd" clip-rule="evenodd" d="M60.608 66.745L81.1622 34H39.7801L60.608 66.745ZM93.2299 66.775C90.7999 65.2787 88.0998 64.4275 85.3622 63.6925H85.366C84.5555 63.4809 83.7451 63.2895 82.9208 63.0949C82.3721 62.9654 81.8172 62.8344 81.2522 62.695C86.8452 54.3019 92.4278 45.9019 98 37.495C97.8275 37.4725 97.6587 37.465 97.49 37.465C93.9199 37.465 90.3461 37.465 86.776 37.435C86.2373 37.435 86.0569 37.7 85.8177 38.0513L85.816 38.0538C79.2121 48.01 72.6082 57.9737 66.0081 67.9487C64.8922 69.6434 63.7648 71.3367 62.6188 73.058L62.6173 73.0602L62.6168 73.0609C61.9148 74.1153 61.2057 75.1803 60.488 76.2625C60.329 76.0805 60.1883 75.8833 60.068 75.6738C51.8741 63.1338 43.6689 50.605 35.4563 38.08C35.2365 37.6411 34.7762 37.3756 34.2862 37.405C32.5912 37.42 30.8962 37.42 29.2007 37.42C27.5052 37.42 25.8092 37.42 24.1123 37.435C23.9536 37.435 23.7779 37.4521 23.5591 37.4734L23.5591 37.4734L23.5591 37.4734L23.5591 37.4734C23.4883 37.4803 23.413 37.4877 23.3323 37.495C28.0921 44.7208 32.7591 51.8593 37.4551 59.0422L37.4556 59.0429L39.6301 62.3687C39.5026 62.4052 39.4083 62.4195 39.327 62.4318L39.327 62.4318L39.3269 62.4318C39.2744 62.4398 39.2272 62.447 39.1801 62.4587C38.4464 62.6462 37.7131 62.8261 36.9807 63.0058L36.9806 63.0058C35.1936 63.4442 33.4124 63.8811 31.6462 64.4237C29.1561 65.1887 26.7561 66.1862 24.806 67.9487C22.3422 70.1537 22.406 72.445 24.956 74.5863C24.9998 74.63 25.0523 74.6671 25.1057 74.7047L25.1057 74.7047C25.1574 74.7412 25.2099 74.7782 25.2561 74.8225C26.9961 76.2025 29.0061 77.1138 31.1062 77.8488C37.7401 80.2262 44.6702 81.1375 51.6941 81.6362C52.1277 81.6431 52.526 81.8764 52.7441 82.2513C55.2884 86.1852 57.8598 90.1015 60.458 94C60.62 93.7327 60.8004 93.4771 60.998 93.235C62.1789 91.4727 63.3528 89.7105 64.5265 87.9486L64.5272 87.9476C65.7983 86.0394 67.0692 84.1317 68.3482 82.225C68.5331 81.9385 68.8246 81.7374 69.1582 81.6663C70.493 81.4996 71.8317 81.3529 73.1696 81.2063L73.1697 81.2063L73.1698 81.2063C75.3537 80.9671 77.5356 80.728 79.6959 80.4025C83.986 79.7575 88.1861 78.67 92.1461 76.7612C93.7099 76.0262 95.1799 75.145 96.26 73.765C97.49 72.1787 97.58 70.5962 96.23 69.0962C95.3187 68.2188 94.3099 67.4388 93.2299 66.775ZM36.2963 72.7075C35.385 72.1862 34.5637 71.5187 33.8662 70.7425V70.7388C33.1252 69.9748 33.1386 68.7562 33.8962 68.0088C34.5475 67.2492 35.3299 66.6128 36.2063 66.13C37.5601 65.4812 38.9551 64.9225 40.3801 64.4537C40.6535 64.408 40.9323 64.4958 41.1301 64.69C42.3284 66.5002 43.5193 68.3169 44.7106 70.1341L44.7108 70.1345L44.7117 70.1358L44.7125 70.1369L44.7127 70.1372C45.9366 72.0043 47.161 73.8719 48.394 75.7337C48.409 75.7619 48.4165 75.7984 48.4278 75.8533C48.439 75.9081 48.454 75.9812 48.484 76.0825C44.1902 75.4375 40.0463 74.7062 36.2963 72.7075ZM81.1322 73.9112C82.7674 73.4696 84.2641 72.6207 85.4823 71.4437C86.686 70.2437 86.686 68.89 85.4823 67.6562C85.1846 67.3342 84.8424 67.0564 84.466 66.8312C83.7187 66.4576 82.9513 66.0941 82.1805 65.7289C81.6207 65.4637 81.0591 65.1976 80.5022 64.9262C80.0521 64.69 79.7821 64.8662 79.5121 65.2787C78.2718 67.192 77.0083 69.0762 75.742 70.9645L75.222 71.74C74.6309 72.6268 74.0397 73.5265 73.4399 74.4392L73.4395 74.4398C73.1264 74.9163 72.811 75.3964 72.492 75.88C72.7311 75.9101 72.9729 75.9101 73.212 75.88C73.9591 75.6975 74.7085 75.5195 75.4584 75.3414L75.4591 75.3412L75.4594 75.3411C77.3591 74.8899 79.261 74.4382 81.1322 73.9112Z" fill="white"/>
</svg>
