<svg width="120" height="120" viewBox="0 0 120 120" fill="none" xmlns="http://www.w3.org/2000/svg">
<circle cx="60" cy="60" r="60" fill="#EDF0F4"/>
<path fill-rule="evenodd" clip-rule="evenodd" d="M60 20C82.0766 20 100 37.9234 100 60C100 82.0766 82.0766 100 60 100C37.9234 100 20 82.0766 20 60C20 37.9234 37.9234 20 60 20ZM40.3892 34.469C41.8997 33.1755 44.0192 32.113 45.8618 32.8612C49.175 34.2066 58.0769 52.1534 58.0769 52.1534C58.0769 52.1534 70.5285 34.4635 75.0006 32.8504C76.5263 32.3 78.6179 33.268 80.2132 34.4606C85.8121 38.6465 86.3906 44.4863 85.9066 46.1064C85.2981 48.1433 54.3691 87.3869 54.369 87.3869C53.4441 87.0096 35.1183 52.9962 34.1252 47.1763C33.1761 41.6145 36.4051 37.8355 40.3892 34.469Z" fill="#3165D4"/>
</svg>
