<svg width="120" height="120" viewBox="0 0 120 120" fill="none" xmlns="http://www.w3.org/2000/svg">
<circle cx="60" cy="60" r="60" fill="#F89022"/>
<path fill-rule="evenodd" clip-rule="evenodd" d="M96.135 71.2325H105L76.9313 47H68.025L85.3763 61.9925L79.8938 66.7062L68.4975 52.8012H60.96L47.265 69.47L45.7725 71.2925L52.4775 52.8313H46.3838L41.9438 65.3L37.5 52.835H30L25.545 65.3263L21.075 52.7787H15L21.6487 71.2025H29.565L33.75 59.465L37.9688 71.2925H45.7725L41.1 77H48.5887L64.7325 57.3462L69.3563 63.0012H63.285L60.1613 66.86H72.5062L76.0875 71.21H83.58L89.8463 65.8475L96.135 71.2325ZM92.025 56.5025L96.2063 60.0875L104.636 52.955L96.1988 52.9475L92.025 56.5025Z" fill="white"/>
</svg>
