<svg width="120" height="120" viewBox="0 0 120 120" fill="none" xmlns="http://www.w3.org/2000/svg">
<circle cx="60" cy="60" r="60" fill="#B80000"/>
<path fill-rule="evenodd" clip-rule="evenodd" d="M97.5983 42.4511C98.1833 43.4447 98.1045 44.4871 97.5233 45.507C96.9118 46.4821 96.3336 47.4702 95.7562 48.4569C95.5122 48.874 95.2683 49.2909 95.022 49.7065L95.0161 49.7166C92.7456 53.5978 90.475 57.479 88.197 61.3601C83.6464 69.0893 79.0914 76.8159 74.532 84.5399C74.0101 85.5099 72.9638 86.0793 71.8658 85.991C70.7145 85.9385 69.897 85.3686 69.3533 84.375C68.8072 83.4039 68.2397 82.4436 67.6682 81.4766L67.6283 81.4091C65.9356 78.5152 64.237 75.6272 62.5404 72.7425L61.8795 71.6189C61.5212 70.9997 61.1549 70.391 60.7564 69.7288L60.522 69.3392C60.3164 69.6878 60.1156 70.0198 59.9196 70.3439C59.6581 70.7763 59.4052 71.1946 59.1608 71.6189L53.4121 81.4053C52.8248 82.388 52.2498 83.378 51.6871 84.375C51.1433 85.3686 50.3296 85.9385 49.1746 85.991C48.0778 86.0735 47.0345 85.5056 46.5083 84.5399C44.5284 81.2085 42.5705 77.8771 40.6059 74.5342L40.6051 74.5329L40.0583 73.6025C37.6451 69.5265 35.2401 65.4458 32.8433 61.3601C30.5746 57.4756 28.2983 53.591 26.0183 49.7065C25.824 49.377 25.63 49.0467 25.4359 48.7161L25.4359 48.716C24.8061 47.6433 24.1744 46.5675 23.5208 45.507C22.8983 44.4871 22.8083 43.4447 23.3896 42.4511C23.9596 41.4724 24.8783 41 26.0596 41C27.289 41.0044 28.5186 41.0094 29.7482 41.0144C35.8996 41.0394 42.0528 41.0644 48.2033 41.0112C50.0671 41 51.1808 41.7124 52.0508 43.2647C53.2473 45.4 54.4933 47.5012 55.7392 49.6022L55.7393 49.6024C56.434 50.7738 57.1286 51.9452 57.8145 53.1223C58.1184 53.6477 58.4207 54.1746 58.7231 54.7019L58.725 54.7051L58.7251 54.7054C59.2208 55.5695 59.7171 56.4347 60.222 57.2956C60.2712 57.3737 60.345 57.4384 60.4192 57.5036L60.4193 57.5036C60.4412 57.5229 60.4632 57.5422 60.4845 57.5618C60.5847 57.4904 60.6711 57.4015 60.7395 57.2994C61.0739 56.7241 61.405 56.1462 61.7363 55.5679C62.204 54.7516 62.6723 53.9344 63.1508 53.1223C63.7479 52.1036 64.3493 51.0878 64.9505 50.0724C66.29 47.8101 67.6282 45.5499 68.9145 43.2647C69.7808 41.7124 70.8945 41 72.7583 41.015C78.8757 41.0647 84.9905 41.0398 91.107 41.0148C92.3732 41.0097 93.6394 41.0045 94.9058 41C96.1095 41 97.0283 41.4724 97.5983 42.4511ZM56.937 64.0298C57.0831 63.7208 57.0872 63.3635 56.9483 63.0512C56.7006 62.5459 56.4005 62.0587 56.0989 61.5689L56.0989 61.5689L56.0987 61.5686C55.9438 61.317 55.7884 61.0647 55.6395 60.809C54.8681 59.4919 54.0962 58.1761 53.3246 56.8605C51.4557 53.6743 49.5876 50.4896 47.7271 47.2918C47.4571 46.8306 47.1458 46.6656 46.6021 46.6656C43.1584 46.684 39.7128 46.6895 36.268 46.695C34.7913 46.6974 33.3146 46.6997 31.8383 46.7031C31.6916 46.7031 31.5449 46.718 31.3719 46.7356L31.3719 46.7356L31.3718 46.7356C31.2706 46.7459 31.1604 46.7571 31.0358 46.7668C33.5451 51.0471 36.0452 55.3143 38.5451 59.5812L38.5474 59.5851C42.0319 65.5325 45.5162 71.4795 49.0246 77.4608C49.2456 77.0924 49.4522 76.7556 49.6489 76.435L49.649 76.4348C49.9128 76.0048 50.1586 75.6041 50.3971 75.196C52.5946 71.484 54.7733 67.7606 56.937 64.0298ZM72.5802 76.4269L71.9745 77.4608C71.8104 77.1907 71.6537 76.9358 71.5032 76.6908C71.1793 76.1636 70.8837 75.6824 70.602 75.196C68.412 71.4802 66.2333 67.7569 64.0583 64.0298C63.9163 63.7191 63.9163 63.3619 64.0583 63.0512C64.3419 62.484 64.6732 61.9465 65.003 61.4114C65.1267 61.2107 65.2501 61.0104 65.3708 60.809C68.0116 56.3039 70.6491 51.7969 73.2833 47.288C73.5533 46.8306 73.8645 46.6656 74.4083 46.6656C77.8528 46.684 81.2974 46.6895 84.7432 46.695C86.2192 46.6974 87.6955 46.6997 89.172 46.7031C89.3148 46.7031 89.4534 46.7172 89.6199 46.7342C89.7244 46.7449 89.84 46.7567 89.9745 46.7668C84.1541 56.6705 78.3933 66.5042 72.5802 76.4269Z" fill="white"/>
</svg>
