<svg width="120" height="120" viewBox="0 0 120 120" fill="none" xmlns="http://www.w3.org/2000/svg">
<circle opacity="0.98" cx="60" cy="60" r="60" fill="#0A142E"/>
<path fill-rule="evenodd" clip-rule="evenodd" d="M83.9726 27.0002V27L83.9728 27C84.7372 27.0001 85.3568 27.6159 85.3568 28.3754C85.3562 28.8667 85.092 29.3205 84.6635 29.5657L84.6646 29.5678L80.0035 32.1074L84.6644 34.647L84.6633 34.6491C85.0918 34.8943 85.356 35.3481 85.3566 35.8394C85.3566 36.5989 84.737 37.2147 83.9726 37.2148C83.7295 37.2143 83.491 37.1502 83.2808 37.0291L83.2797 37.0303C83.2797 37.0303 79.4969 34.8744 77.891 33.9931C76.5747 33.2707 76.4791 32.4013 76.4868 32.1076C76.4792 31.8139 76.5747 30.9445 77.891 30.2221C79.4969 29.3408 83.2797 27.1849 83.2797 27.1849L83.2808 27.186C83.491 27.0648 83.7295 27.0007 83.9726 27.0002ZM48.9132 29.1212C49.8057 28.2344 51.0162 27.7362 52.2784 27.7363C54.9068 27.7363 57.0374 29.8534 57.0375 32.465C57.0375 33.7192 56.5361 34.922 55.6436 35.8089C54.7511 36.6957 53.5406 37.194 52.2784 37.194C51.0162 37.194 49.8056 36.6958 48.9131 35.8089C48.0206 34.9221 47.5192 33.7192 47.5192 32.465C47.5192 31.2108 48.0206 30.008 48.9132 29.1212ZM101.184 43.4999C99.9786 43.5016 98.8447 44.0696 98.1261 45.0318L98.1194 45.0269L90.5598 55.5886L90.5736 55.593C90.0881 56.2398 89.823 57.0236 89.8167 57.8304C89.823 58.6371 90.0881 59.4208 90.5736 60.0676L90.5598 60.0722L98.1194 70.6336L98.1261 70.629C98.8447 71.5911 99.9787 72.159 101.184 72.1607C102.196 72.1607 103.167 71.7613 103.882 71.0503C104.598 70.3393 105 69.375 105 68.3695C104.998 67.5882 104.754 66.8265 104.3 66.1886L104.304 66.1854L98.3196 57.8304L104.304 49.4754L104.3 49.472C104.754 48.8342 104.998 48.0725 105 47.2913C105 46.2858 104.598 45.3214 103.883 44.6104C103.167 43.8993 102.196 43.4999 101.184 43.4999V43.4999ZM45.3955 79.9039C45.3956 78.801 46.2535 77.907 47.3117 77.907C47.7158 77.9079 48.1094 78.0418 48.4361 78.2897L48.6033 78.4C48.6033 78.4 56.9278 84.2161 67.3236 84.0382C77.7194 84.2161 86.0437 78.4 86.0437 78.4L86.2109 78.2897C86.5376 78.0418 86.9312 77.9081 87.3353 77.907C88.3935 77.907 89.2514 78.801 89.2515 79.9039C89.251 80.6651 88.8353 81.3598 88.1797 81.6953C77.0796 88.6131 67.3236 87.9852 67.3236 87.9852C67.3236 87.9852 57.5674 88.6131 46.4673 81.6953C45.8117 81.3598 45.3959 80.6651 45.3955 79.9039Z" fill="white"/>
</svg>
