<svg width="120" height="120" viewBox="0 0 120 120" fill="none" xmlns="http://www.w3.org/2000/svg">
<circle cx="60" cy="60" r="60" fill="#F7931A"/>
<path fill-rule="evenodd" clip-rule="evenodd" d="M70.3167 59.8333C73.9496 58.9524 76.6976 56.4829 77.4555 51.4008C78.5009 44.4589 73.3895 40.7584 66.3852 38.3114L68.7113 28.9038L63.1593 27.511L60.893 36.6701C59.4368 36.3012 57.9396 35.9548 56.4499 35.616L58.7312 26.3929L53.1829 25L50.8569 34.4038C49.6472 34.129 48.4599 33.8542 47.3099 33.5643L47.3174 33.538L39.6633 31.6105L38.1512 37.7242C38.1512 37.7242 42.2694 38.6766 42.1798 38.7331C44.4312 39.3015 44.8307 40.8299 44.7561 42.0459L42.1052 52.7635C42.3021 52.813 42.4954 52.8759 42.6839 52.9517L42.094 52.8049L38.3827 67.8179C38.1027 68.5219 37.4007 69.5797 35.8251 69.192C35.8811 69.271 31.7928 68.1756 31.7928 68.1756L29 74.7334L36.2246 76.5517C37.0388 76.7569 37.842 76.9676 38.6375 77.1764L38.6391 77.1768C39.1565 77.3125 39.6705 77.4474 40.1823 77.5794L37.8301 87.0962L43.3709 88.489L45.7007 79.0777C47.17 79.4794 48.6436 79.8646 50.1213 80.2334L47.8027 89.6071L53.351 91L55.7032 81.5058C65.1717 83.294 72.303 82.5109 75.3497 73.6756C77.8027 66.5606 75.2862 62.4798 70.3167 59.8333ZM95.4592 82.1834L97.4941 73.9654L105.645 76.0171L107 70.5359L98.8494 68.488L100.881 60.27L95.448 58.9035L93.4132 67.1215L85.2626 65.0736L83.9073 70.551L92.0579 72.5989L90.0268 80.8207L95.4592 82.1834ZM64.6602 69.7906C66.3082 63.1241 56.7208 60.9596 52.032 59.9011L52.0319 59.9011C51.5047 59.782 51.0394 59.677 50.659 59.5811L47.5488 72.181C47.8606 72.259 48.2261 72.3564 48.6352 72.4654C53.1665 73.673 63.0582 76.309 64.6677 69.7868L64.6602 69.7906ZM56.0588 42.6406C59.968 43.5102 67.9755 45.2915 66.4785 51.3593C65.0086 57.2947 56.7558 55.0659 52.9865 54.0479C52.6486 53.9566 52.3467 53.8751 52.089 53.8101L54.9154 42.3771C55.2319 42.4566 55.6195 42.5429 56.0588 42.6406Z" fill="white"/>
</svg>
