<svg width="120" height="120" viewBox="0 0 120 120" fill="none" xmlns="http://www.w3.org/2000/svg">
<path fill-rule="evenodd" clip-rule="evenodd" d="M0 59.9999C0 26.863 26.8633 0 60.0003 0C93.1373 0 120 26.863 120 59.9999C120 93.1367 93.1373 120 60.0003 120C26.8633 120 0 93.1367 0 59.9999Z" fill="#278DC1"/>
<path fill-rule="evenodd" clip-rule="evenodd" d="M42.8059 55.3128C38.8381 55.3128 35.6222 52.0967 35.6222 48.129C35.6222 44.1616 38.8381 40.9455 42.8059 40.9455C46.7732 40.9455 49.9894 44.1616 49.9894 48.129C49.9894 52.0967 46.7732 55.3128 42.8059 55.3128ZM55.7976 28.2596H50.0036V37.3136C47.943 35.9395 45.4686 35.1372 42.8059 35.1372C35.6307 35.1372 29.814 40.9541 29.814 48.129C29.814 55.3042 35.6307 61.1205 42.8059 61.1205C49.9809 61.1205 55.7976 55.3042 55.7976 48.129C55.7976 48.0908 55.7952 48.0525 55.7949 48.0146H55.7976V28.2596Z" fill="#FFFFFE"/>
<path fill-rule="evenodd" clip-rule="evenodd" d="M77.1944 64.6869C81.1617 64.6869 84.3778 67.9029 84.3778 71.8709C84.3778 75.8381 81.1617 79.0542 77.1944 79.0542C73.2265 79.0542 70.0104 75.8381 70.0104 71.8709C70.0104 67.9029 73.2265 64.6869 77.1944 64.6869ZM64.2021 91.74H69.9968V82.686C72.0573 84.0602 74.5315 84.8624 77.1944 84.8624C84.3691 84.8624 90.1861 79.0456 90.1861 71.8709C90.1861 64.6954 84.3691 58.8792 77.1944 58.8792C70.0189 58.8792 64.2021 64.6954 64.2021 71.8709C64.2021 71.9089 64.2052 71.9471 64.2054 71.9854H64.2021V91.74Z" fill="#FFFFFE"/>
<path fill-rule="evenodd" clip-rule="evenodd" d="M70.4575 37.5065C74.4248 37.5065 77.6415 40.7228 77.6415 44.6903C77.6415 48.6574 74.4248 51.874 70.4575 51.874C66.4902 51.874 63.2741 48.6574 63.2741 44.6903C63.2741 40.7228 66.4902 37.5065 70.4575 37.5065ZM70.5725 31.6985V31.7014C70.5343 31.7009 70.4963 31.6985 70.4575 31.6985C63.2828 31.6985 57.4658 37.5153 57.4658 44.6903C57.4658 51.8655 63.2828 57.6823 70.4575 57.6823C77.633 57.6823 83.4498 51.8655 83.4498 44.6903C83.4498 42.0277 82.6475 39.5532 81.2735 37.4928H90.3274V31.6985H70.5725Z" fill="#FFFFFE"/>
<path fill-rule="evenodd" clip-rule="evenodd" d="M49.5427 82.4935C45.5751 82.4935 42.3593 79.277 42.3593 75.3098C42.3593 71.3423 45.5751 68.126 49.5427 68.126C53.51 68.126 56.7264 71.3423 56.7264 75.3098C56.7264 79.277 53.51 82.4935 49.5427 82.4935ZM49.4277 88.3018V88.2983C49.4662 88.2989 49.5045 88.3018 49.5427 88.3018C56.7179 88.3018 62.5341 82.485 62.5341 75.3098C62.5341 68.1348 56.7179 62.318 49.5427 62.318C42.3677 62.318 36.551 68.1348 36.551 75.3098C36.551 77.972 37.3532 80.4466 38.7273 82.5072H29.6729V88.3018H49.4277Z" fill="#FFFFFE"/>
</svg>
