<svg width="120" height="120" viewBox="0 0 120 120" fill="none" xmlns="http://www.w3.org/2000/svg">
<circle cx="60" cy="60" r="60" fill="#4F7AA2"/>
<path fill-rule="evenodd" clip-rule="evenodd" d="M19 45H26.1229V52.5H19V45ZM50.3476 45H60.6773C65.6649 45 74.5723 48.0112 74.5723 60C74.5723 71.9888 65.6686 75 60.6773 75H50.3514L50.3476 45ZM56.0444 68.925H60.3227C63.8841 68.925 68.1586 66.7575 68.1586 60C68.1586 53.2425 63.8841 51.075 60.3227 51.075H56.0482L56.0444 68.925ZM80.6313 45H78.4959L78.4884 75H80.6275V49.23L99.8609 75H102V45H99.8646V71.3475L80.6313 45ZM36.8073 45H29.6881V52.5H36.8073V45ZM40.3725 45H47.4992V52.5H40.3725V45ZM47.4992 56.25H40.3725V63.75H47.4992V56.25ZM40.3725 67.5H47.4992V75H40.3725V67.5ZM36.8073 56.25H29.6881V63.75H36.8073V56.25Z" fill="white"/>
</svg>
