<svg width="120" height="120" viewBox="0 0 120 120" fill="none" xmlns="http://www.w3.org/2000/svg">
<circle cx="60" cy="60" r="60" fill="#EDF0F4"/>
<path fill-rule="evenodd" clip-rule="evenodd" d="M60.2495 34.3731L30 27V30.9854L60.2495 38.3585V34.3731ZM59.8908 49.6373L90.22 34.8513V39.1157L30 68.4685V64.2041L54.4706 52.2478L30 46.2895V42.3041L59.8908 49.6373ZM59.8908 66.137H59.9904L90.22 51.3909V55.6553L65.869 67.512L90.1801 73.4902V77.4756L60.5085 70.1424L30.1196 84.9682V80.8034L59.8908 66.137ZM30 38.6375V34.652L60.2893 42.065V46.0504L30 38.6375ZM90.22 43.1211L30 72.5137V76.6984L90.22 47.3855V43.1211ZM90.1801 85.0878L59.8908 77.6749V73.6894L90.1403 81.0824L90.1801 85.0878ZM59.8908 81.3215V85.307L90.22 92.7598V88.7743L59.8908 81.3215Z" fill="#FF0033"/>
</svg>
