<svg width="120" height="120" viewBox="0 0 120 120" fill="none" xmlns="http://www.w3.org/2000/svg">
<circle cx="60" cy="60" r="60" fill="#EDF0F4"/>
<path d="M32.4746 59.764V52.3892H56.2782V44.8162H32.4746V37.4811H87.4856V44.8559H63.682V52.4289H87.4856V59.8036H63.682L87.605 95.25C98.1933 87.0426 105 74.2359 105 59.8433C105 35.0625 84.8585 15 60.0199 15C35.1415 15 15 35.0625 15 59.8433C15 74.2359 21.8067 87.0426 32.395 95.25L56.318 59.8036C56.318 59.764 32.4746 59.764 32.4746 59.764Z" fill="#E3242D"/>
<path d="M38.25 99.5629C44.6069 103.041 51.8776 105 59.625 105C67.3724 105 74.6431 103.041 81 99.5629L59.625 67.5L38.25 99.5629Z" fill="#E3242D"/>
</svg>
