<svg width="120" height="120" viewBox="0 0 120 120" fill="none" xmlns="http://www.w3.org/2000/svg">
<circle cx="60" cy="60" r="60" fill="#4FA784"/>
<path d="M95.4174 48.3074L65.228 39.528L54.9018 57.3777L42.9079 43.2604L48.3427 42.5502L53.9451 49.2292L60.1617 38.051L32.8013 30.0913C32.0531 29.8663 31.2435 30.064 30.6781 30.6097C30.1127 31.1554 29.8776 31.9661 30.0615 32.7357L42.182 82.1331L55.1996 59.8899L67.1935 74.0072L61.7586 74.7174L56.16 68.0384L43.8385 88.8801L45.6625 96.3222C45.8557 97.0903 46.4362 97.6964 47.1873 97.9142C47.9383 98.132 48.7468 97.9285 49.3106 97.38L96.3257 52.0096C96.8909 51.4663 97.1241 50.6562 96.936 49.8896C96.7479 49.1229 96.1677 48.5184 95.4174 48.3074Z" fill="white"/>
</svg>
