<svg width="120" height="120" viewBox="0 0 120 120" fill="none" xmlns="http://www.w3.org/2000/svg">
<circle cx="60" cy="60" r="60" fill="#EDF0F4"/>
<path fill-rule="evenodd" clip-rule="evenodd" d="M47.2284 49.9913C47.1223 50.882 47.0163 51.8151 46.9527 52.7482C45.341 53.8722 43.8353 55.0173 42.4356 56.1625C41.7146 56.7563 41.0148 57.3501 40.3574 57.9651C35.183 52.6846 32.9775 47.9343 34.3983 45.4955C35.6495 43.3324 39.8484 42.7174 45.7439 43.8838C45.9772 42.8659 46.2104 41.8904 46.4861 40.9573C39.3395 39.5152 33.8894 40.4695 31.8323 44.011C31.2809 44.9441 31.0052 46.0045 31.0052 47.1284V47.2345C31.0477 52.2605 35.9888 58.983 44.2382 65.3238C45.0865 65.9812 45.9984 66.6386 46.9315 67.296C47.1011 69.353 47.3556 71.3253 47.6737 73.1702C47.8221 73.9973 47.9706 74.8032 48.1402 75.5878C40.9936 77.4328 35.798 76.9662 34.3771 74.5275C33.1259 72.3644 34.6952 68.3987 38.6397 63.8817L36.5826 61.7186C31.7051 67.2324 29.754 72.4704 31.8111 76.0331C33.2532 78.5355 36.3705 79.7231 40.5695 79.7231C44.7896 79.7231 50.0913 78.5143 55.9019 76.1604C56.0503 76.0968 56.1988 76.0332 56.3684 75.9695C57.3864 75.5454 58.4043 75.1001 59.4434 74.6123C59.4858 74.5911 59.5282 74.5699 59.5707 74.5487C61.4156 75.3969 63.2394 76.1604 65.042 76.8178C65.8266 77.1147 66.6113 77.3692 67.3747 77.6237C65.4025 84.7491 62.3911 89.0329 59.5707 89.0329C57.0683 89.0329 54.4174 85.6822 52.4876 79.9564C51.5121 80.2957 50.5578 80.5926 49.6035 80.8471C51.9362 87.7604 55.4778 92.0018 59.5707 92.0018C65.5297 92.0018 70.28 83.0526 71.9129 70.0105C72.019 69.1198 72.1038 68.1867 72.1886 67.2748C73.864 66.1084 75.4333 64.8996 76.8965 63.6697C76.9813 63.606 77.0662 63.5424 77.151 63.4576C77.7024 62.991 78.2325 62.5245 78.7627 62.0367C83.9583 67.296 86.1638 72.0675 84.743 74.5063C83.5766 76.5209 79.7382 77.1995 74.479 76.33C74.1184 76.2664 73.7791 76.2028 73.4186 76.1392C73.1853 77.1359 72.9521 78.0902 72.6764 79.0233C73.1217 79.1081 73.5671 79.1929 73.9912 79.2566C75.6665 79.5323 77.2146 79.6807 78.6355 79.6807C82.898 79.6807 85.9306 78.4295 87.3302 76.0119C89.1964 72.7885 87.8392 68.1018 83.4918 62.8426C81.2439 60.1069 78.3174 57.3501 74.9243 54.7204C74.0548 54.0418 73.1429 53.3844 72.231 52.727C72.0614 50.67 71.8069 48.6977 71.4676 46.8315C71.3192 46.0045 71.1707 45.1986 71.0011 44.414C72.2098 44.0959 73.3762 43.8414 74.5002 43.6505C79.7594 42.7811 83.5978 43.4597 84.7642 45.4743C85.9942 47.595 84.4885 51.4758 80.6713 55.908C81.4135 56.629 82.0922 57.3501 82.7284 58.0499C83.004 57.753 83.2585 57.4349 83.4918 57.138C87.818 51.8787 89.1964 47.1921 87.3302 43.9686C85.464 40.7452 80.7349 39.5789 74.0124 40.7028C70.895 41.2118 67.4807 42.2085 63.9392 43.5657C63.7908 43.6293 63.6635 43.6717 63.5151 43.7354C62.3275 44.2019 61.1399 44.7109 59.9524 45.2622C59.8463 45.3047 59.7403 45.3683 59.6343 45.4107C57.7681 44.5412 55.9231 43.7566 54.1417 43.0992C53.3571 42.8023 52.5724 42.5478 51.809 42.2933C53.7812 35.1891 56.7926 30.9053 59.6131 30.9053C62.1155 30.9053 64.7875 34.2772 66.7173 40.003C67.6928 39.6849 68.6471 39.388 69.6014 39.1123C67.2051 32.2625 63.6635 28 59.5494 28C53.6116 28 48.8401 36.9492 47.2284 49.9913ZM66.1871 48.9098C66.1447 48.8674 66.0811 48.8462 66.0387 48.825C65.042 48.2524 64.0241 47.701 63.0485 47.1708C63.1334 47.1284 63.2182 47.086 63.303 47.0648C64.5118 46.5559 65.7206 46.0893 66.887 45.6864C67.2899 45.5379 67.6928 45.4107 68.0745 45.2835C68.2442 46.0681 68.3926 46.8527 68.5411 47.6798C68.7107 48.6341 68.838 49.6096 68.9652 50.6063C68.0533 50.0337 67.1202 49.4612 66.1871 48.9098ZM50.5578 47.7858C50.7063 46.9164 50.8547 46.0893 51.0456 45.2835C51.8302 45.5379 52.6149 45.7924 53.4207 46.1105C54.2902 46.4286 55.1809 46.7891 56.0928 47.1708C55.096 47.701 54.0781 48.2524 53.0814 48.825C53.039 48.8462 52.9966 48.8674 52.9542 48.9098C51.9999 49.4612 51.0668 50.0337 50.1549 50.6063C50.2821 49.6308 50.4094 48.6977 50.5578 47.7858ZM54.5659 68.6532C53.8448 68.2503 53.145 67.8262 52.4664 67.402C51.5333 66.8294 50.6426 66.2569 49.7732 65.6631C49.6459 63.8605 49.5823 61.9731 49.5823 60.0221C49.5823 59.0042 49.6035 58.0075 49.6459 57.032C49.6883 56.1201 49.7307 55.2506 49.7944 54.3811C51.3 53.3632 52.8905 52.3665 54.5659 51.391C55.2021 51.0093 55.8595 50.6487 56.4957 50.3094C57.5136 49.7581 58.5315 49.2491 59.5494 48.7401C61.1824 49.5248 62.8365 50.4155 64.533 51.391C65.254 51.8151 65.9539 52.218 66.6325 52.6422C67.5656 53.2148 68.4563 53.7873 69.3257 54.3811C69.453 56.1837 69.5166 58.0711 69.5166 60.0221C69.5166 61.04 69.4954 62.0367 69.453 63.0122C69.4106 63.9029 69.3681 64.7936 69.3045 65.6631C67.7988 66.681 66.2083 67.6777 64.533 68.6532C64.0877 68.9077 63.6635 69.1622 63.2182 69.3955C62.0942 70.0317 60.9703 70.6042 59.8675 71.1556C59.7615 71.198 59.6555 71.2616 59.5494 71.3041C57.8953 70.4982 56.22 69.6075 54.5659 68.6532ZM44.0898 61.3793C43.5384 60.934 43.0294 60.4674 42.5205 60.0221C43.2203 59.4071 43.9413 58.7709 44.7048 58.1559C45.341 57.647 45.9984 57.1168 46.6982 56.6078C46.6558 57.4561 46.6346 58.3256 46.6346 59.195C46.6346 59.4707 46.6346 59.7464 46.6346 60.0221C46.6346 61.1885 46.6558 62.3124 46.6982 63.4364C45.7863 62.7578 44.8956 62.0792 44.0898 61.3793ZM72.4855 60.8704C72.4855 60.5947 72.4855 60.319 72.4855 60.0221C72.4855 58.8557 72.4643 57.7318 72.4219 56.6078C73.3338 57.2864 74.2033 57.9863 75.0303 58.6649C75.5605 59.1102 76.0907 59.5768 76.5784 60.0221C76.027 60.5099 75.4545 61.0188 74.8607 61.5066C74.7758 61.5702 74.691 61.655 74.6062 61.7186C73.9064 62.2912 73.1641 62.885 72.4007 63.4576C72.4431 62.6093 72.4855 61.7398 72.4855 60.8704ZM50.579 72.3644C50.4094 71.4101 50.2821 70.4346 50.1549 69.4379C51.0668 70.0105 51.9787 70.5618 52.933 71.1132C52.9754 71.1556 53.039 71.1768 53.0814 71.198C54.0781 71.7706 55.0748 72.322 56.0928 72.8521C56.0928 72.8521 56.0715 72.8521 56.0715 72.8734C55.0112 73.3187 53.9721 73.7216 52.9542 74.1033C52.8057 74.167 52.6573 74.2094 52.5088 74.273C52.0211 74.4426 51.5333 74.6123 51.0456 74.7607C50.8759 73.9973 50.7275 73.1915 50.579 72.3644ZM65.6994 73.9337C64.8087 73.5944 63.918 73.2551 63.0061 72.8734C63.1334 72.8097 63.2606 72.7461 63.3879 72.6825C64.2573 72.2159 65.1268 71.7282 66.0175 71.2404C66.272 71.092 66.5264 70.9435 66.7597 70.7951C67.502 70.3498 68.223 69.9044 68.944 69.4591C68.8168 70.4134 68.6895 71.3677 68.5411 72.2584C68.3926 73.1278 68.223 73.9549 68.0533 74.782C67.2899 74.5063 66.5052 74.2306 65.6994 73.9337ZM55.7322 60.0221C55.7322 57.9226 57.45 56.2049 59.5494 56.2049C61.6489 56.2049 63.3666 57.9226 63.3666 60.0221C63.3666 62.1216 61.6489 63.8393 59.5494 63.8393C57.45 63.8393 55.7322 62.1216 55.7322 60.0221Z" fill="url(#paint0_linear)"/>
<defs>
<linearGradient id="paint0_linear" x1="35.1395" y1="87.1272" x2="85.3933" y2="88.8839" gradientUnits="userSpaceOnUse">
<stop stop-color="#6B57A5"/>
<stop offset="1" stop-color="#59499E"/>
</linearGradient>
</defs>
</svg>
