<svg width="120" height="120" viewBox="0 0 120 120" fill="none" xmlns="http://www.w3.org/2000/svg">
<circle cx="60" cy="60" r="60" fill="#EDF0F4"/>
<path d="M69.4015 88.2225L50.8601 87.924V59.1577L59.907 47.0403L69.4015 59.1577V88.2225Z" fill="url(#paint0_linear)"/>
<path d="M68.7182 59.5347L53.7029 57.8148L59.4514 43.5377L59.6242 43.4356L84.6209 29.0014L93.6286 45.1476L68.7182 59.5347Z" fill="url(#paint1_linear)"/>
<path d="M50.8836 59.9745L25.7141 45.4382L35.2479 29.8103L60.2368 44.378L66.1267 57.7992L50.8836 59.9745Z" fill="url(#paint2_linear)"/>
<path d="M59.9069 90.7983C56.4751 90.7983 53.8521 90.2564 52.2501 89.8009C51.1663 89.4947 50.4124 88.4816 50.4124 87.3507L50.4046 59.3698C50.3574 55.2783 48.6769 51.7993 45.5513 49.302C41.2556 45.8858 34.5647 44.6372 28.1015 46.0507C27.1748 46.2549 26.2481 45.9487 25.6269 45.234C25.0073 44.5194 24.8345 43.5613 25.1644 42.6739C25.9026 40.6949 26.845 38.3468 28.235 35.9437C29.9548 32.9673 31.7375 30.9726 32.9312 29.8182C33.7401 29.0329 34.9966 28.8836 35.9782 29.4491L59.5928 43.0822L59.6007 43.0665L60.2289 43.4435V43.4513C63.8414 45.4539 67.6659 45.7288 71.3726 44.2681C76.4772 42.2577 80.8986 37.0902 82.9168 30.7841C83.2074 29.881 83.9299 29.2292 84.8644 29.0486C85.7911 28.8679 86.7099 29.1978 87.3146 29.9281C88.6575 31.5537 90.2203 33.5484 91.6103 35.9515C93.3302 38.9279 94.1705 41.4723 94.571 43.0822C94.8458 44.1738 94.3511 45.3361 93.3694 45.9015L69.6135 59.6211L68.9695 59.998C65.522 62.0948 63.4016 65.2911 62.8362 69.2256C62.0587 74.6286 64.3283 81.0054 68.7575 85.8743C69.3936 86.5811 69.5899 87.5314 69.2837 88.4266C68.9774 89.3219 68.2313 89.9502 67.2968 90.1072C65.1843 90.4371 62.6791 90.7983 59.9069 90.7983Z" fill="#44004E"/>
<defs>
<linearGradient id="paint0_linear" x1="77.0843" y1="64.0862" x2="47.9062" y2="54.9786" gradientUnits="userSpaceOnUse">
<stop stop-color="#44004E"/>
<stop offset="0.1" stop-color="#4C0056"/>
<stop offset="0.3" stop-color="#83008A"/>
<stop offset="0.5" stop-color="#EA00EB"/>
<stop offset="0.6" stop-color="#FF00FF"/>
<stop offset="1" stop-color="#FF00FF"/>
</linearGradient>
<linearGradient id="paint1_linear" x1="60.9532" y1="22.1535" x2="50.2994" y2="59.5036" gradientUnits="userSpaceOnUse">
<stop stop-color="#44004E"/>
<stop offset="0.1" stop-color="#4C0056"/>
<stop offset="0.3" stop-color="#83008A"/>
<stop offset="0.5" stop-color="#EA00EB"/>
<stop offset="0.6" stop-color="#FF00FF"/>
<stop offset="1" stop-color="#FF00FF"/>
</linearGradient>
<linearGradient id="paint2_linear" x1="27.3635" y1="60.6972" x2="66.6614" y2="56.3828" gradientUnits="userSpaceOnUse">
<stop stop-color="#44004E"/>
<stop offset="0.1" stop-color="#4C0056"/>
<stop offset="0.3" stop-color="#83008A"/>
<stop offset="0.5" stop-color="#EA00EB"/>
<stop offset="0.6" stop-color="#FF00FF"/>
<stop offset="1" stop-color="#FF00FF"/>
</linearGradient>
</defs>
</svg>
