<svg width="120" height="120" viewBox="0 0 120 120" fill="none" xmlns="http://www.w3.org/2000/svg">
<path fill-rule="evenodd" clip-rule="evenodd" d="M60 0C93.132 0 120 26.868 120 60C120 93.132 93.132 120 60 120C26.868 120 0 93.132 0 60C0 26.868 26.868 0 60 0Z" fill="#006AE3"/>
<path d="M57.5283 85.296V35.376H62.9643V85.296H57.5283Z" fill="white"/>
<path d="M85.2004 52.008L68.4124 56.46L64.6684 39.036L69.6604 37.908L71.6284 46.164C71.6284 46.164 76.1644 38.724 70.1164 31.02C66.5524 27.06 64.8604 26.892 60.8644 26.268C57.3484 25.764 49.1764 26.952 46.7404 36.492C45.7084 42.636 46.8724 47.184 54.7924 53.136L54.3484 59.76C54.3484 59.76 45.5044 53.532 43.2244 49.164C41.4604 45.708 38.4364 38.88 43.8964 29.376C46.8364 24.624 52.6324 20.064 62.8444 20.544C67.9804 20.76 80.5204 27.036 78.5764 41.7C78.2404 44.448 76.8124 48.108 76.8124 48.108L83.7004 46.572L85.2004 52.008Z" fill="white"/>
<path d="M75.6119 91.068C72.5399 95.736 66.6239 100.14 56.4359 99.396C51.2999 99.048 38.9399 92.436 41.2679 77.832C41.6759 75.096 43.1999 71.484 43.1999 71.484L36.2759 72.828L34.9199 67.368L51.8279 63.36L55.1159 80.88L50.0879 81.876L48.3359 73.56C48.3359 73.56 43.6079 80.868 49.4399 88.74C52.8959 92.796 54.5759 93 58.5719 93.732C62.0639 94.332 70.2719 93.348 72.9599 83.88C74.1479 77.772 73.1039 73.188 65.3519 67.02L65.9759 60.408C65.9759 60.408 74.6519 66.864 76.8119 71.292C78.4679 74.808 81.3119 81.72 75.6119 91.068Z" fill="white"/>
</svg>
