<svg width="120" height="120" viewBox="0 0 120 120" fill="none" xmlns="http://www.w3.org/2000/svg">
<circle cx="60" cy="60" r="60" fill="#C87035"/>
<path fill-rule="evenodd" clip-rule="evenodd" d="M60.4698 101C37.5505 100.985 19 82.4005 19 59.4472C19 36.543 37.6071 17.9849 60.5566 18C83.4382 18.0151 102.03 36.6147 102 59.5076C101.955 82.1515 83.7551 100.97 60.4698 101ZM43.5567 78.4768L43.6117 78.3719C43.7029 78.1975 43.7783 78.0536 43.8509 77.9336C47.5633 71.3841 51.2832 64.8422 55.0031 58.3078C58.2628 52.5808 61.5148 46.8463 64.7556 41.1117C64.8481 40.8856 65.0785 40.7473 65.3215 40.7722C69.1093 40.7911 72.9123 40.7911 76.6963 40.7911H77.2358L75.5445 43.7757C70.8559 52.05 66.1906 60.2831 61.4922 68.5583C61.6808 68.5734 61.7865 68.5734 61.8883 68.5734C71.3918 68.5734 80.8878 68.5772 90.38 68.5885C90.7007 68.5885 90.8025 68.4716 90.8742 68.1924C92.3125 63.1181 92.4488 57.7632 91.2703 52.6223C89.8518 46.3973 86.7393 41.1419 82.1479 36.7467C80.0877 34.7825 77.7484 33.1336 75.2061 31.8535C68.8905 28.6316 62.2392 27.6092 55.2672 28.8353C48.3254 30.069 42.4777 33.3475 37.6825 38.5312C37.2581 38.9886 36.8611 39.4683 36.4638 39.9484L36.4637 39.9485C36.2712 40.1811 36.0787 40.4137 35.8829 40.6439C35.891 40.666 35.9032 40.6859 35.9153 40.7054C35.9258 40.7226 35.9362 40.7394 35.9433 40.7571H63.0315C62.9926 40.8301 62.9569 40.8977 62.9234 40.9613L62.9234 40.9614C62.827 41.1444 62.7485 41.2934 62.6618 41.4362C62.0157 42.5834 61.3662 43.7282 60.7169 44.8728L60.7168 44.8729C59.709 46.6493 58.7016 48.4251 57.7082 50.2078C57.5759 50.5035 57.2681 50.6802 56.9461 50.6454C48.4122 50.6303 39.8783 50.6266 31.3519 50.6303H30.8388C26.5153 64.2235 32.6233 81.2724 47.9444 88.0935C62.7787 94.7184 78.3337 88.6217 85.6263 78.4466C71.6107 78.4731 57.5874 78.4844 43.5604 78.4731L43.5567 78.4768ZM100.902 58.6134C101.196 70.1693 96.5182 79.7897 91.2552 85.6375L85.8187 80.0991C95.7901 67.7661 95.3751 50.5888 85.7169 38.9726C86.7813 37.8973 87.8507 36.822 88.931 35.7358C89.7193 34.9432 90.5134 34.1447 91.3156 33.3362C97.4086 40.7307 100.668 49.0948 100.902 58.6134Z" fill="white"/>
</svg>
