<svg width="120" height="120" viewBox="0 0 120 120" fill="none" xmlns="http://www.w3.org/2000/svg">
<circle cx="60" cy="60" r="60" fill="#EDF0F4"/>
<ellipse cx="60" cy="60.5" rx="39" ry="39.5" fill="white"/>
<path fill-rule="evenodd" clip-rule="evenodd" d="M60.6416 100C82.1613 100 100 82.225 100 60.5C100 38.775 82.1613 21 60.3584 21C38.8387 21 21 38.4929 21 60.5C21 82.225 38.8387 100 60.6416 100ZM25.5305 60.5C25.5305 41.5964 41.3871 25.5143 60.3584 25.5143C79.3298 25.5143 95.4695 41.3143 95.1864 60.5C95.1864 79.4036 79.3298 95.2036 60.3584 95.2036C41.3871 95.2036 25.5305 79.4036 25.5305 60.5Z" fill="#F9C910"/>
<path d="M35.1576 74.6071C30.0608 65.8607 30.0608 53.4464 36.0071 44.4178L45.9174 54.2928C45.9174 54.2928 44.2185 58.2428 45.068 62.475L41.6701 66.425C39.6881 61.0643 41.1038 55.1393 41.1038 55.1393L37.4228 52.0357C33.7418 62.475 38.2723 70.9393 38.2723 70.9393L35.1576 74.6071Z" fill="#F9C910"/>
<path d="M85.8424 45.8286C90.9391 54.575 90.9392 66.9893 84.9929 76.0179L75.0825 66.1429C75.0825 66.1429 76.7814 62.1929 75.932 57.9607L79.3298 54.0107C81.3119 59.3714 79.8961 65.2964 79.8961 65.2964L83.5771 68.9643C87.2581 58.525 82.7277 50.0607 82.7277 50.0607L85.8424 45.8286Z" fill="#F9C910"/>
<path fill-rule="evenodd" clip-rule="evenodd" d="M56.3942 75.4536L83.577 42.1607C73.1003 28.0536 49.3153 27.4893 38.5555 41.0321L47.8996 50.625C54.6953 41.5964 64.6056 44.9821 64.6056 44.9821L37.4229 78.275C51.2974 94.9214 73.9497 90.4071 82.4444 79.1214L73.1003 69.8107C65.7383 78.8393 56.3942 75.4536 56.3942 75.4536ZM47.8996 44.4179L44.7849 41.3143C55.8279 32.2857 70.2687 35.1071 77.6307 42.725L49.3153 77.1464C49.3153 77.1464 60.0752 85.3286 73.1003 76.0178L76.215 79.1214C67.7203 86.7393 53.2795 87.3036 43.3691 77.9928L71.4013 43.5714C71.4013 43.5714 60.0752 35.3893 47.8996 44.4179Z" fill="#ED1C24"/>
</svg>
