<svg width="120" height="120" viewBox="0 0 120 120" fill="none" xmlns="http://www.w3.org/2000/svg">
<path fill-rule="evenodd" clip-rule="evenodd" d="M60 120C27 120 0 93.0006 0 59.7012C0.3 26.7019 27 -0.297518 60.3 0.00247602C93.3 0.30247 120 27.0019 120 60.6012C119.7 93.3006 93 120 60 120Z" fill="#01FF65"/>
<path fill-rule="evenodd" clip-rule="evenodd" d="M37.0001 28.4257V32.8513L51.4915 32.8538C65.1363 32.8562 65.9762 32.8611 65.867 32.938C65.8032 32.9829 59.2875 37.0164 51.3876 41.9014L37.0241 50.7831L37.0121 73.446L37 96.1085H40.9446H44.8892V84.828C44.8892 78.624 44.9001 73.5475 44.9135 73.5475C44.9269 73.5475 51.5097 78.624 59.5419 84.8285L74.146 96.109L78.146 96.0969L82.1461 96.0844V74.0526V52.0209L67.0391 51.9969L51.9321 51.9728L66.5507 42.6646C74.591 37.5451 81.3946 33.211 81.67 33.0333L82.1707 32.7103L82.1583 28.3672L82.1461 24.0241L59.5731 24.0121L37.0001 24V28.4257ZM74.1099 70.481C74.1282 75.8055 74.1363 81.0985 74.1279 82.2429L74.1126 84.3239L59.537 72.6056C51.5204 66.1604 44.9408 60.8675 44.9157 60.8435C44.8884 60.8175 50.7415 60.8 59.4734 60.8H74.0767L74.1099 70.481Z" fill="black"/>
</svg>
