<svg width="101" height="101" viewBox="0 0 101 101" fill="none" xmlns="http://www.w3.org/2000/svg">
<rect x="100.661" y="0.164795" width="100" height="100" rx="3" transform="rotate(90 100.661 0.164795)" fill="#7749F8"/>
<g clip-path="url(#clip0)">
<path d="M70.3855 40.2135C69.7861 40.0291 69.2743 39.8868 68.7763 39.7117C68.5994 39.6492 68.4019 39.5272 68.4791 39.3005C68.5393 39.1239 68.7333 39.1145 68.9034 39.0942C69.1301 39.0676 69.3568 39.0207 69.5835 39.0207C73.3893 39.0082 76.0805 36.796 78.9949 35.0482C83.1975 32.5281 87.2781 29.8282 91.8825 27.9115C93.3681 27.294 94.8502 26.6718 96.5041 26.5279C96.6741 26.5139 96.8458 26.4857 97.0159 26.4935C98.1631 26.5436 98.443 26.8453 98.194 27.8646C97.6942 29.9095 96.365 31.49 94.6767 32.8361C91.6815 35.2217 88.111 36.5897 84.3361 37.573C81.6089 38.2828 78.8404 38.8253 76.0101 39.0379C74.0093 39.188 72.4481 40.0713 71.0484 41.2844C70.6757 41.608 70.3099 41.9379 69.9372 42.2615C69.7947 42.385 69.635 42.5679 69.4289 42.4398C69.2434 42.3241 69.3155 42.1068 69.3671 41.9301C69.5525 41.3001 69.8617 40.7232 70.3855 40.2135Z" fill="white"/>
<path d="M60.9539 41.6673C60.9196 41.9581 60.7324 42.1926 60.5538 42.4256C59.2245 44.164 57.2666 45.0364 55.1336 45.6554C52.3084 46.4746 49.3785 46.742 46.4451 46.9671C44.7088 47.1 42.9691 47.186 41.231 47.3001C39.572 47.408 38.533 48.4351 37.4544 49.4106C37.2157 49.6264 37.0457 50.1485 36.6472 49.9156C36.3261 49.728 36.5648 49.2465 36.7382 48.9823C37.171 48.3194 37.0766 47.9645 36.187 47.8613C35.9809 47.8379 35.6803 47.7363 35.6889 47.4971C35.7009 47.1719 36.0547 47.2126 36.2883 47.2016C38.6034 47.0953 40.5252 46.0916 42.4607 45.0582C45.8475 43.2526 49.3321 41.6329 53.2272 40.9044C54.8863 40.5949 56.5522 40.4135 58.249 40.487C59.0373 40.5214 59.7723 40.6949 60.449 41.0639C60.698 41.1999 60.9179 41.3687 60.9539 41.6673Z" fill="white"/>
<path d="M29.5788 55.0651C29.8227 55.0651 29.8811 55.0636 29.9377 55.0651C31.9145 55.1511 32.3387 55.7921 31.4405 57.368C30.5526 58.9219 29.1271 59.996 27.5333 60.9043C25.3934 62.1237 23.0543 62.9898 20.8062 64.0138C19.7586 64.4906 18.7023 64.9596 17.677 65.474C16.4714 66.0805 16.2911 67.1765 16.1503 68.2833C16.1125 68.5757 16.3048 69.0525 15.9407 69.1119C15.5371 69.1775 15.374 68.6913 15.3414 68.3881C15.2538 67.561 14.8021 67.4438 14.0464 67.6986C13.8644 67.7596 13.6256 67.7549 13.5278 67.5454C13.4453 67.3703 13.5896 67.2327 13.7321 67.1577C16.0129 65.9727 16.8355 63.7433 18.2386 61.9361C20.6156 58.875 23.5403 56.4862 27.5746 55.4028C27.9301 55.3075 28.2959 55.2418 28.6617 55.1824C29.0258 55.1246 29.395 55.0886 29.5788 55.0651Z" fill="white"/>
<path d="M105.275 11.9821C105.098 14.2943 103.987 16.1141 102.395 17.7134C100.255 19.8646 97.67 21.5108 94.8037 22.7255C93.1773 23.4149 92.1537 24.4702 91.4049 25.8647C91.2623 26.1289 91.1851 26.6292 90.845 26.5557C90.4122 26.4635 90.5445 25.9523 90.632 25.6693C90.8553 24.9533 90.5805 24.7282 89.8266 24.7985C89.6634 24.8141 89.4556 24.7735 89.3972 24.6031C89.3148 24.3608 89.5621 24.2967 89.7304 24.2232C90.4517 23.9105 91.2142 23.676 91.8703 23.2414C92.82 22.6129 93.4091 21.7109 94.0789 20.8698C96.0247 18.4247 97.6065 15.7483 99.7601 13.4345C100.609 12.5231 101.374 11.5366 102.462 10.8331C102.833 10.5939 103.224 10.3641 103.64 10.1984C104.49 9.85598 104.825 10.017 105.055 10.8487C105.167 11.2521 105.216 11.6679 105.275 11.9821Z" fill="white"/>
<path d="M12.5372 44.6593C12.0512 44.4764 11.2955 44.8829 11.1907 44.403C11.0928 43.9605 11.8794 43.8808 12.2916 43.7385C14.696 42.91 16.3705 41.1746 18.3232 39.7879C21.2978 37.6727 24.4286 35.8233 28.1228 34.915C29.5603 34.5616 31.0098 34.224 32.516 34.5554C33.6065 34.7946 33.7559 35.1323 33.1291 35.9577C31.853 37.6383 29.9759 38.5732 27.9717 39.3252C24.3153 40.6962 20.4768 41.5764 16.7346 42.7192C15.4808 43.1022 14.5054 43.751 13.7531 44.7125C13.4388 45.1158 13.1383 45.5286 12.8257 45.9335C12.733 46.0554 12.6608 46.243 12.4462 46.1821C12.2401 46.1226 12.2933 45.9304 12.2796 45.7818C12.2452 45.3863 12.4513 45.0283 12.5372 44.6593Z" fill="white"/>
<path d="M12.9312 51.0232C13.8809 51.0373 14.1317 51.3421 13.8758 52.1644C13.3949 53.7122 12.3524 54.9456 11.1657 56.09C8.96224 58.2115 6.37751 59.9562 4.11739 62.023C3.51285 62.5764 2.93408 63.1595 2.28661 63.666C0.967631 64.6994 0.476448 66.0236 0.500492 67.5572C0.503927 67.7386 0.507362 67.9231 0.490188 68.1028C0.471296 68.2983 0.581211 68.5797 0.299553 68.6453C0.0196135 68.7125 -0.0387789 68.4218 -0.152129 68.256C-0.225978 68.1466 -0.294675 68.0215 -0.315284 67.898C-0.413177 67.2915 -0.665638 67.132 -1.22037 67.5807C-1.37493 67.7057 -1.62224 67.873 -1.8352 67.6979C-2.03271 67.5338 -1.83349 67.3493 -1.71327 67.2258C0.10205 65.3607 0.734061 62.9594 1.84008 60.7723C3.64166 57.2078 6.08555 54.1171 9.86045 52.0534C10.8239 51.5266 11.8303 51.0998 12.9312 51.0232Z" fill="white"/>
<path d="M65.6618 29.7136C65.4798 29.4759 65.5296 29.2883 65.5983 29.1226C65.8387 28.5301 66.2904 27.9173 65.1346 27.6671C64.8701 27.6093 64.8736 27.3466 65.1896 27.2278C65.2411 27.2091 65.3012 27.1981 65.3561 27.1981C68.4836 27.2153 70.5634 25.2424 72.9351 23.8541C75.0836 22.5972 77.2476 21.3965 79.6966 20.6774C80.6343 20.4022 81.5841 20.2459 82.5681 20.3334C83.6776 20.4319 83.9884 20.8431 83.6312 21.7905C82.9271 23.6556 81.3333 24.7249 79.4682 25.5081C76.9144 26.5806 74.1734 27.0856 71.4083 27.2263C69.1379 27.342 67.3071 27.9689 65.9074 29.601C65.8611 29.6526 65.7632 29.6682 65.6618 29.7136Z" fill="white"/>
<path d="M41.5932 53.8671C41.6327 53.8561 41.6756 53.8718 41.7289 53.9374C41.8061 54.0312 41.8559 54.1047 41.9968 54.0938C42.3626 54.0656 42.682 53.8108 42.9877 53.6529C43.3432 53.4684 43.6919 53.2714 44.0371 53.0729C44.7292 52.6758 45.4179 52.2678 46.1426 51.9207C48.8459 50.6294 51.6281 49.5976 54.7006 49.3208C55.8478 49.2177 56.9796 49.1504 58.0633 49.6054C58.8945 49.954 58.9753 50.2229 58.4686 50.9155C58.0066 51.5471 57.2355 52.0536 57.3987 52.5976C57.3901 52.0192 56.9349 52.3147 56.3527 52.6305C54.1115 53.8468 51.58 54.1797 49.0554 54.4455C48.0507 54.5518 47.0391 54.6159 46.0276 54.6581C45.5673 54.6769 45.1087 54.7238 44.6468 54.7301C44.1762 54.7379 43.7039 54.7441 43.2385 54.8145C43.0083 54.8489 42.7799 54.9005 42.5601 54.9739C41.6584 55.2741 40.9543 55.9291 40.3824 56.6311C40.312 56.7171 40.2347 56.8093 40.1196 56.8328C39.9633 56.864 39.8071 56.739 39.771 56.5967C39.7349 56.4544 39.7916 56.3059 39.8672 56.1762C39.9427 56.0464 40.0389 55.926 40.0921 55.7884C40.1454 55.6509 40.1488 55.4852 40.0509 55.3695C39.9341 55.2335 39.7229 55.2131 39.5391 55.1709C39.3554 55.1287 39.151 55.0068 39.1716 54.8364C39.1836 54.7441 39.2609 54.6691 39.3519 54.6269C39.443 54.5847 39.5443 54.5721 39.6456 54.5596C39.9221 54.5252 40.1986 54.4893 40.4751 54.4549C40.6847 54.4283 40.9011 54.3971 41.09 54.3064C41.2377 54.236 41.3459 54.1219 41.4455 54.0031C41.497 53.9452 41.5399 53.8827 41.5932 53.8671Z" fill="white"/>
<path d="M49.0976 28.7412C48.9053 28.4926 49.0032 28.2768 49.1079 28.1127C49.448 27.5765 49.6403 27.1153 48.7284 26.9105C48.603 26.8823 48.4879 26.7588 48.5429 26.6041C48.5979 26.4524 48.7559 26.4274 48.8932 26.4321C51.8335 26.5556 54.0558 24.9188 56.4928 23.8354C58.9196 22.7566 61.3755 21.7967 64.0839 21.4919C65.0559 21.3824 66.028 21.3527 66.9554 21.7061C67.7677 22.0172 67.8811 22.3439 67.4552 23.0396C66.6566 24.3434 65.353 25.0579 63.8778 25.5675C61.7945 26.2867 59.6065 26.4962 57.41 26.6369C55.9587 26.7291 54.5006 26.7635 53.0443 26.7932C52.1392 26.812 51.4007 27.1544 50.6897 27.6202C50.1453 27.9767 49.7279 28.4879 49.0976 28.7412Z" fill="white"/>
<path d="M0.996408 90.1389C0.743946 90.45 0.920841 91.0769 0.426223 91.0175C0.0054541 90.9675 0.115369 90.4125 0.0947603 90.0654C0.0294982 88.9554 -0.343183 87.9252 -0.767387 86.8965C-2.17052 83.4884 -2.87467 80.024 -1.63297 76.4314C-1.24311 75.3042 -0.774256 74.2114 0.180632 73.3688C1.14067 72.5214 1.64044 72.6512 2.03545 73.794C2.64342 75.5543 2.32741 77.3037 1.97877 79.05C1.48072 81.5326 0.88821 83.998 0.618575 86.5197C0.486333 87.7563 0.893362 88.7069 1.74349 89.5823C1.91351 89.7574 2.10243 89.9185 2.27074 90.0951C2.37722 90.2061 2.54209 90.3296 2.39267 90.4938C2.29135 90.6063 2.12304 90.5766 1.9908 90.5297C1.67307 90.4156 1.36394 90.2843 0.996408 90.1389Z" fill="white"/>
<path d="M51.8543 60.1193C51.6482 59.9317 51.7495 59.7019 51.8508 59.5487C52.1823 59.0453 52.2493 58.6591 51.4936 58.4622C51.4112 58.4403 51.3081 58.3074 51.3098 58.2292C51.315 58.0791 51.4713 58.0182 51.619 58.0229C54.6657 58.1292 56.8485 56.2094 59.4144 55.2151C61.8737 54.2614 64.3777 53.6236 67.0174 53.3609C67.8246 53.2812 68.618 53.3703 69.3892 53.5798C70.2822 53.8221 70.4059 54.1364 69.8563 54.8086C68.6696 56.2625 66.971 56.9754 65.1214 57.446C62.2052 58.187 59.2065 58.3558 56.2079 58.3574C54.6897 58.3574 53.4686 58.7217 52.4725 59.7472C52.342 59.8817 52.1789 59.9927 52.0226 60.1052C51.9865 60.1303 51.9144 60.1146 51.8543 60.1193Z" fill="white"/>
<path d="M68.9797 31.9036C69.5482 31.8911 70.1235 31.8395 70.6714 32.049C71.4339 32.3398 71.5369 32.5946 71.1093 33.2309C70.5752 34.0282 69.823 34.6114 68.9265 35.0554C66.7385 36.1388 64.3341 36.4405 61.9108 36.6406C60.463 36.7594 59.0084 36.8595 57.5486 36.8313C56.3309 36.8079 55.4911 37.5005 54.6204 38.1399C54.4229 38.2853 54.2545 38.6589 53.9454 38.4494C53.7204 38.2962 53.9248 37.9945 54.0485 37.8084C54.3232 37.3942 54.2563 37.1456 53.7307 37.0064C53.571 36.9642 53.3718 36.8767 53.4044 36.6953C53.4439 36.4686 53.6964 36.4499 53.8836 36.464C55.8002 36.6062 57.3339 35.7261 58.9259 34.9569C61.6291 33.6515 64.3598 32.3961 67.4443 31.9896C67.6418 31.9631 67.8376 31.9162 68.0368 31.9068C68.3511 31.8943 68.6654 31.9036 68.9797 31.9036Z" fill="white"/>
<path d="M38.0641 36.1081C37.8151 36.0424 37.6742 36.019 37.5437 35.9689C37.3668 35.9017 37.0989 35.8829 37.1023 35.6594C37.1058 35.4108 37.4046 35.4155 37.566 35.4171C39.5376 35.4218 41.0833 34.4181 42.72 33.6348C45.2893 32.4045 47.917 31.3289 50.8452 31.0272C51.764 30.9318 52.6759 30.9068 53.5621 31.1819C54.4226 31.4493 54.5445 31.7901 54.0052 32.4404C52.8219 33.8678 51.0856 34.404 49.2806 34.7714C46.8453 35.2686 44.3602 35.4718 41.8751 35.5328C40.4496 35.5672 39.3333 36.0143 38.3509 36.8897C38.1585 37.0602 37.961 37.4338 37.688 37.2618C37.3668 37.0586 37.6948 36.749 37.8048 36.4989C37.858 36.3817 37.949 36.28 38.0641 36.1081Z" fill="white"/>
<path d="M15.2672 60.9886C15.0526 62.5598 14.1355 63.8105 12.9796 64.9158C11.5027 66.3306 9.97243 67.7001 8.4422 69.068C7.52167 69.8904 7.0322 70.819 7.31042 72.0134C7.35508 72.201 7.47014 72.473 7.20051 72.5699C6.92228 72.67 6.80893 72.3902 6.71791 72.2229C6.51869 71.8492 6.28684 71.7336 5.84031 71.9258C5.53632 72.0572 5.23749 71.9008 5.50884 71.6038C7.22627 69.7262 7.23142 67.2186 8.43362 65.1456C9.42801 63.4306 10.6439 61.9329 12.4077 60.826C12.9814 60.4665 13.6031 60.2069 14.3003 60.1428C14.9667 60.0803 15.3669 60.3039 15.2672 60.9886Z" fill="white"/>
<path d="M27.1944 30.5899C27.3387 30.0678 27.6066 29.5612 26.729 29.3596C26.9694 29.2267 27.0794 29.1157 27.203 29.1047C29.0183 28.9359 30.4146 27.9291 31.9345 27.1662C33.8477 26.2063 35.8262 25.4011 38.0108 25.0978C38.7235 24.9994 39.4397 24.9415 40.1421 25.0916C40.9561 25.2651 41.0695 25.5966 40.5337 26.1766C39.687 27.0927 38.526 27.5351 37.3118 27.8728C35.2526 28.4481 33.1247 28.7342 30.9951 28.9406C29.6881 29.0672 28.6371 29.4877 27.7543 30.3335C27.6753 30.4086 27.5877 30.4774 27.4933 30.5352C27.452 30.5649 27.3868 30.5586 27.1944 30.5899Z" fill="white"/>
<path d="M72.1468 48.2122C72.018 47.8511 72.6483 47.3883 71.872 47.1569C71.58 47.0694 71.8497 46.8286 72.0455 46.8208C74.5495 46.7255 76.2635 45.0558 78.3742 44.1803C79.9937 43.5081 81.6081 42.8405 83.3736 42.5857C84.0193 42.4919 84.9261 42.2402 85.2387 42.9109C85.5118 43.4956 84.7681 43.9661 84.2838 44.3492C82.8103 45.5154 80.9898 45.9969 79.1333 46.3471C77.8761 46.5848 76.6018 46.7864 75.3257 46.8959C74.3004 46.985 73.4555 47.3148 72.7221 47.9464C72.5847 48.0653 72.4576 48.231 72.1468 48.2122Z" fill="white"/>
<path d="M19.8903 56.2455C19.6465 55.7312 19.6774 55.2153 18.7551 55.1418C21.448 54.0771 22.8735 51.9447 25.089 50.6972C26.037 50.1641 27.2134 50.0374 28.0241 49.2808C28.553 49.7451 29.2846 49.3214 29.8583 49.6278C30.2653 49.8451 30.2069 50.114 30.0403 50.4236C29.4684 51.4898 28.4534 52.1229 27.3371 52.6123C26.1005 53.1548 24.7867 53.5331 23.4832 53.9255C22.0594 54.3554 20.4296 54.5305 19.8903 56.2455Z" fill="white"/>
<path d="M24.8213 46.4933C24.5207 46.2385 24.6959 46.0212 24.5945 45.9321C23.6912 45.1394 24.6598 45.2192 25.0737 45.1019C25.9771 44.8455 26.6314 44.2436 27.3785 43.7746C29.1543 42.66 30.9576 41.6172 33.1628 41.3639C33.3036 41.3483 33.4462 41.3139 33.587 41.3155C34.0181 41.3186 34.5127 41.3014 34.7291 41.6969C34.9523 42.1034 34.5195 42.3645 34.2654 42.6193C33.4462 43.4385 32.3487 43.8309 31.2221 44.142C30.3479 44.3828 29.4566 44.5735 28.567 44.7627C27.1673 45.0597 25.6353 45.0894 24.8213 46.4933Z" fill="white"/>
</g>
<defs>
<clipPath id="clip0">
<rect width="100" height="80" fill="white" transform="translate(0.661133 10.1648)"/>
</clipPath>
</defs>
</svg>