<svg width="82" height="82" viewBox="0 0 82 82" fill="none" xmlns="http://www.w3.org/2000/svg">
<rect x="80.0161" y="1.98387" width="78.0323" height="78.0323" rx="39.0161" transform="rotate(90 80.0161 1.98387)" stroke="url(#paint0_linear_111:448)" stroke-width="3.96774"/>
<path fill-rule="evenodd" clip-rule="evenodd" d="M4.55926 25.2242C3.33923 25.8284 0.385903 38.1266 2.64466 48.2743L4.55926 54.8872C7.01034 65.2134 13.3681 69.4599 14.4742 69.2109C30.964 65.0826 43.3282 57.1948 52.2042 49.2693C52.1406 49.2861 52.1022 49.2887 52.1022 49.2887C51.095 48.9501 49.9593 48.6619 48.5734 48.4205L46.1912 50.5642L45.6516 48.0217C45.4157 47.9968 45.1738 47.9727 44.9257 47.9494C44.8317 47.9406 44.7377 47.9322 44.6436 47.9241L43.0306 50.3211L41.8054 47.816C39.6083 47.8462 37.4968 48.1678 35.7668 48.9425C35.3965 49.1083 34.9619 48.9425 34.7961 48.5723C34.6303 48.202 34.7961 47.7674 35.1664 47.6016C38.0545 46.3084 41.7246 46.1731 45.0631 46.4866C48.3997 46.8 51.5092 47.5722 53.3822 48.1987C57.4467 44.4387 60.7318 40.708 63.3056 37.4045C67.3427 32.223 63.6031 25.5372 57.0389 25.2954C42.7588 24.7696 20.319 24.2305 4.55926 25.2242ZM50.4214 35.4133C48.6 35.5374 47.0228 34.1614 46.8987 32.3399C46.7746 30.5184 48.1506 28.9412 49.9721 28.8171C51.7936 28.6931 53.3708 30.0691 53.4948 31.8906C53.6189 33.712 52.2429 35.2892 50.4214 35.4133Z" fill="#7749F8"/>
<path d="M55.027 29.3972L45.0678 33.6654L43.645 32.2427L52.1815 26.5517L55.027 29.3972Z" fill="#7749F8"/>
<g style="mix-blend-mode:screen" opacity="0.5">
<circle cx="49.5968" cy="31.0807" r="8.86129" fill="url(#paint1_linear_111:448)"/>
<circle cx="49.5968" cy="31.0807" r="8.86129" stroke="white" stroke-width="0.529032"/>
</g>
<path fill-rule="evenodd" clip-rule="evenodd" d="M49.5969 42.3225C55.8057 42.3225 60.8389 37.2893 60.8389 31.0806C60.8389 24.8718 55.8057 19.8386 49.5969 19.8386C43.3882 19.8386 38.355 24.8718 38.355 31.0806C38.355 37.2893 43.3882 42.3225 49.5969 42.3225ZM49.5968 41C55.0751 41 59.5161 36.559 59.5161 31.0806C59.5161 25.6023 55.0751 21.1613 49.5968 21.1613C44.1185 21.1613 39.6774 25.6023 39.6774 31.0806C39.6774 36.559 44.1185 41 49.5968 41Z" fill="white"/>
<path opacity="0.52" fill-rule="evenodd" clip-rule="evenodd" d="M15.7764 52.8081C13.2541 55.5096 10.6828 57.3073 7.88172 57.5344L7.98861 58.8526C11.2917 58.5848 14.1532 56.4847 16.7432 53.7107C19.0129 51.2797 21.1554 48.2394 23.2603 45.2527C23.5617 44.8249 23.8624 44.3982 24.1626 43.9746C26.5797 40.5633 28.9623 37.3513 31.5081 35.1697C34.0397 33.0003 36.6372 31.9289 39.5265 32.6047L39.6772 31.0806C36.2182 30.2715 33.3502 31.8493 30.6475 34.1654C27.9589 36.4694 25.4886 39.8155 23.0834 43.2099C22.7801 43.6381 22.4777 44.0671 22.1758 44.4953C20.0637 47.4916 17.9791 50.449 15.7764 52.8081Z" fill="white"/>
<path d="M13.2257 15.2097L21.1612 25.7904C21.1612 25.7904 19.8386 27.1129 14.5483 27.1129C9.25795 27.1129 6.61279 25.7904 6.61279 25.7904L13.2257 15.2097Z" fill="#8559FF"/>
<path d="M25.1286 74.7261L14.5485 68.1129C14.5485 68.1129 17.0926 66.3013 19.6133 65.538C22.6202 64.6274 27.6206 64.7616 27.6206 64.7616L25.1286 74.7261Z" fill="#9169FF"/>
<path d="M15.8711 37.0322L14.5485 39.1484V47.6129L11.9033 49.5967" stroke="white" stroke-opacity="0.22" stroke-width="1.05806"/>
<path d="M13.2259 35.7097L11.9033 37.8258V46.2904L9.91943 46.9517" stroke="white" stroke-opacity="0.22" stroke-width="1.05806"/>
<path d="M10.5809 34.3872L9.25828 36.2388V43.6453L7.27441 44.9679" stroke="white" stroke-opacity="0.22" stroke-width="1.05806"/>
<defs>
<linearGradient id="paint0_linear_111:448" x1="153.154" y1="92.1793" x2="129.096" y2="1.81529" gradientUnits="userSpaceOnUse">
<stop offset="0.00373894" stop-color="#7749F8"/>
<stop offset="1" stop-color="#8153FF"/>
</linearGradient>
<linearGradient id="paint1_linear_111:448" x1="38.7075" y1="43.6893" x2="61.0591" y2="19.0452" gradientUnits="userSpaceOnUse">
<stop stop-color="white"/>
<stop offset="1" stop-color="white" stop-opacity="0"/>
</linearGradient>
</defs>
</svg>
