<svg id="Layer_1" data-name="Layer 1" xmlns="http://www.w3.org/2000/svg" xmlns:xlink="http://www.w3.org/1999/xlink" viewBox="0 0 82 82"><defs><style>.cls-1,.cls-11,.cls-6{fill:none;}.cls-1{stroke-width:3.97px;stroke:url(#linear-gradient);}.cls-2,.cls-3{fill:#7749f8;}.cls-2,.cls-7,.cls-8{fill-rule:evenodd;}.cls-4{opacity:0.5;}.cls-5{fill:url(#linear-gradient-2);}.cls-11,.cls-6{stroke:#fff;}.cls-6{stroke-width:0.53px;}.cls-7,.cls-8{fill:#fff;}.cls-8{opacity:0.52;isolation:isolate;}.cls-9{fill:#8559ff;}.cls-10{fill:#9169ff;}.cls-11{stroke-opacity:0.22;stroke-width:1.06px;}</style><linearGradient id="linear-gradient" x1="134.01" y1="1102.81" x2="109.96" y2="1193.17" gradientTransform="matrix(0, 1, 1, 0, -1118, -78.03)" gradientUnits="userSpaceOnUse"><stop offset="0" stop-color="#7749f8"/><stop offset="1" stop-color="#8153ff"/></linearGradient><linearGradient id="linear-gradient-2" x1="38.52" y1="18.79" x2="60.82" y2="43.38" gradientUnits="userSpaceOnUse"><stop offset="0" stop-color="#fff"/><stop offset="1" stop-color="#fff" stop-opacity="0"/></linearGradient></defs><rect class="cls-1" x="2.07" y="1.98" width="78.03" height="78.03" rx="39.02"/><path class="cls-2" d="M4.64,25.22C3.42,25.83.47,38.13,2.73,48.27l1.91,6.62c2.45,10.32,8.81,14.57,9.92,14.32A88.54,88.54,0,0,0,52.29,49.27l-.1,0a23.66,23.66,0,0,0-3.53-.87l-2.39,2.14L45.73,48,45,48l-.28,0-1.62,2.4-1.22-2.5a15.59,15.59,0,0,0-6,1.12.73.73,0,0,1-.6-1.34c2.89-1.29,6.56-1.43,9.9-1.11a39.27,39.27,0,0,1,8.32,1.71,91,91,0,0,0,9.92-10.8c4-5.18.3-11.86-6.27-12.1C42.84,24.77,20.4,24.23,4.64,25.22ZM50.5,35.41a3.3,3.3,0,1,1,3.08-3.52A3.3,3.3,0,0,1,50.5,35.41Z"/><path class="cls-3" d="M55.11,29.4l-10,4.27-1.42-1.43,8.53-5.69Z"/><g class="cls-4"><path class="cls-5" d="M58.54,31.08A8.86,8.86,0,1,1,43.22,25l.68.14H48l1.89.18h5l1,.25h.58l.14-.06A8.79,8.79,0,0,1,58.54,31.08Z"/><path class="cls-6" d="M58.54,31.08a8.86,8.86,0,1,1-17-3.6,8.17,8.17,0,0,1,.93-1.59,3.13,3.13,0,0,1,.56-.69c.34-.24,1.08-.08,1.47-.07l1.72,0,3.53.1c2,.07,3.94.14,5.91.23.39,0,.85-.05,1.15.19a2.11,2.11,0,0,1,.5.74A14.34,14.34,0,0,1,58,28,8.74,8.74,0,0,1,58.54,31.08Z"/></g><path class="cls-7" d="M59.46,25.69a.89.89,0,0,0-.33-.14l-.42-.1a2.43,2.43,0,0,0-.93-.08,1.81,1.81,0,0,0,.24.37,4.23,4.23,0,0,1,.24.4c.16.27.31.55.44.83a10.24,10.24,0,0,1,.62,1.79,9.56,9.56,0,0,1,.28,2.32,9.92,9.92,0,1,1-19.13-3.69,10.29,10.29,0,0,1,.66-1.33c.13-.22.26-.43.4-.63a3.25,3.25,0,0,1,.23-.29c.06-.07.21-.2.19-.3a6.78,6.78,0,0,0-.9,0H40.6c-.15,0-.22,0-.3.11l-.13.2c-.17.27-.33.54-.47.82A10.77,10.77,0,0,0,39,27.68a11.25,11.25,0,1,0,21.22-.54c-.11-.27-.22-.53-.35-.79a4.61,4.61,0,0,0-.22-.51A.75.75,0,0,0,59.46,25.69Z"/><path class="cls-8" d="M15.86,52.81c-2.52,2.7-5.09,4.5-7.9,4.72l.11,1.32c3.3-.27,6.17-2.37,8.76-5.14a79.8,79.8,0,0,0,6.51-8.46L24.25,44a49.32,49.32,0,0,1,7.34-8.8c2.53-2.17,5.13-3.24,8-2.57l.15-1.52c-3.46-.81-6.33.77-9,3.09a50.31,50.31,0,0,0-7.56,9l-.91,1.29A80.48,80.48,0,0,1,15.86,52.81Z"/><path class="cls-9" d="M13.31,15.21l7.93,10.58s-1.32,1.32-6.61,1.32S6.7,25.79,6.7,25.79Z"/><path class="cls-10" d="M25.21,74.73,14.63,68.11a20.72,20.72,0,0,1,5.07-2.57,32.29,32.29,0,0,1,8-.78Z"/><path class="cls-11" d="M16,37l-1.32,2.12v8.46L12,49.6"/><path class="cls-11" d="M13.31,35.71,12,37.83v8.46L10,47"/><path class="cls-11" d="M10.66,34.39,9.34,36.24v7.41L7.36,45"/></svg>