<svg id="Layer_1" data-name="Layer 1" xmlns="http://www.w3.org/2000/svg" xmlns:xlink="http://www.w3.org/1999/xlink" viewBox="0 0 82 82"><defs><style>.cls-1,.cls-8,.cls-9{fill:#fff;}.cls-12,.cls-2,.cls-7{fill:none;stroke:#fff;}.cls-2{stroke-width:3.97px;}.cls-3,.cls-4{fill:#7749f8;}.cls-3,.cls-8,.cls-9{fill-rule:evenodd;}.cls-5{opacity:0.5;}.cls-6{fill:url(#linear-gradient);}.cls-7{stroke-width:0.53px;}.cls-9{opacity:0.52;isolation:isolate;}.cls-10{fill:#8559ff;}.cls-11{fill:#9169ff;}.cls-12{stroke-opacity:0.22;stroke-width:1.06px;}.cls-13{fill:url(#linear-gradient-2);}</style><linearGradient id="linear-gradient" x1="38.52" y1="13.98" x2="60.82" y2="38.58" gradientUnits="userSpaceOnUse"><stop offset="0" stop-color="#fff"/><stop offset="1" stop-color="#fff" stop-opacity="0"/></linearGradient><linearGradient id="linear-gradient-2" x1="9.6" y1="54.34" x2="19.75" y2="54.34" gradientTransform="translate(-2.69 -2.62)" gradientUnits="userSpaceOnUse"><stop offset="0" stop-color="#7749f8"/><stop offset="0.18" stop-color="#7749f8" stop-opacity="0.99"/><stop offset="0.31" stop-color="#7749f8" stop-opacity="0.95"/><stop offset="0.43" stop-color="#7749f8" stop-opacity="0.88"/><stop offset="0.54" stop-color="#7749f8" stop-opacity="0.79"/><stop offset="0.65" stop-color="#7749f8" stop-opacity="0.68"/><stop offset="0.75" stop-color="#7749f8" stop-opacity="0.53"/><stop offset="0.84" stop-color="#7749f8" stop-opacity="0.36"/><stop offset="0.93" stop-color="#7749f8" stop-opacity="0.16"/><stop offset="1" stop-color="#7749f8" stop-opacity="0"/></linearGradient></defs><path class="cls-1" d="M55.17,41.57l-4.35-1.31h-14L35.14,42l-1.6,1.27v1.17l1.35.61,5,.66s5.09.8,5.38.8,3-.44,3-.44l2.2-.28,1.74-1.28,1.26-1.14Z"/><path class="cls-2" d="M48,44.53s-9.75-3.43-17-.66"/><path class="cls-3" d="M57.12,20.49C42.84,20,15.76,19.76,0,20.75V68C16.49,63.9,43.41,52.38,52.29,44.46l-.1,0a23.66,23.66,0,0,0-3.53-.87l-2.39,2.14-.54-2.54L45,43.14l-.28,0-1.62,2.4L41.89,43a15.59,15.59,0,0,0-6,1.12.73.73,0,1,1-.6-1.34c2.89-1.29,6.56-1.43,9.9-1.11a39.27,39.27,0,0,1,8.32,1.71,91,91,0,0,0,9.92-10.8C67.43,27.41,63.69,20.73,57.12,20.49ZM50.5,30.6a3.3,3.3,0,1,1,3.08-3.52A3.3,3.3,0,0,1,50.5,30.6Z"/><path class="cls-4" d="M55.11,24.59l-10,4.27-1.42-1.42,8.53-5.69Z"/><g class="cls-5"><path class="cls-6" d="M58.54,26.28a8.86,8.86,0,1,1-15.32-6.06l.68.14H48l1.89.18h5l1,.25h.58l.14-.06A8.79,8.79,0,0,1,58.54,26.28Z"/><path class="cls-7" d="M58.54,26.28a8.86,8.86,0,1,1-17-3.6,8.55,8.55,0,0,1,.93-1.6,3.39,3.39,0,0,1,.56-.69c.34-.24,1.08-.07,1.47-.06l1.72,0,3.53.1q3,.09,5.91.23c.39,0,.85-.05,1.15.18a2.3,2.3,0,0,1,.5.74A15.19,15.19,0,0,1,58,23.19,8.83,8.83,0,0,1,58.54,26.28Z"/></g><path class="cls-8" d="M59.46,20.88a.89.89,0,0,0-.33-.14l-.42-.1a2.43,2.43,0,0,0-.93-.08,2.2,2.2,0,0,0,.24.38,3.26,3.26,0,0,1,.24.4,8.21,8.21,0,0,1,.44.83A10.14,10.14,0,0,1,59.32,24a9.59,9.59,0,0,1,.28,2.33,9.92,9.92,0,1,1-19.13-3.7,11,11,0,0,1,.66-1.33c.13-.21.26-.42.4-.63s.15-.19.23-.29S42,20.14,42,20a6.79,6.79,0,0,0-.9-.05H40.6c-.15,0-.22,0-.3.1a2.39,2.39,0,0,0-.13.21,8.13,8.13,0,0,0-.47.81,11.24,11.24,0,1,0,21.22,5.16,11,11,0,0,0-.73-3.94c-.11-.27-.22-.54-.35-.8a4.46,4.46,0,0,0-.22-.5A.61.61,0,0,0,59.46,20.88Z"/><path class="cls-9" d="M15.35,48.08c-2.56,2.69-5.16,4.48-8,4.71l.11,1.31c3.34-.26,6.23-2.36,8.85-5.12a79.8,79.8,0,0,0,6.6-8.43l.91-1.27a49.68,49.68,0,0,1,7.43-8.77c2.56-2.16,5.19-3.23,8.11-2.55l.16-1.52c-3.5-.81-6.4.76-9.14,3.07a50.7,50.7,0,0,0-7.65,9l-.92,1.28A81.62,81.62,0,0,1,15.35,48.08Z"/><path class="cls-10" d="M12.41,21.59s-1.32,1.32-6.61,1.32A24.76,24.76,0,0,1,0,22.29V6.5Z"/><path class="cls-11" d="M0,74.14v-11a20.55,20.55,0,0,1,5.06-2.57,32.39,32.39,0,0,1,8-.78Z"/><path class="cls-12" d="M16,32.23l-1.32,2.11v8.47l-2.64,2"/><path class="cls-12" d="M13.31,30.9,12,33v8.47l-2,.66"/><path class="cls-12" d="M10.66,29.58,9.34,31.43v7.41l-2,1.32"/><rect class="cls-13" x="6.91" y="46.65" width="10.15" height="10.15" transform="translate(-24.25 12.92) rotate(-30)"/></svg>